<svg xmlns="http://www.w3.org/2000/svg" viewBox="0 0 626.19 1134.99"><defs><style>.cls-1{fill:#d7e6f4;}.cls-2{fill:#c6d7e5;}.cls-3{fill:#d3e4f2;}.cls-4{fill:#cf3b32;}.cls-5{fill:#d6e6f4;}.cls-6{fill:#dbe9f5;}.cls-7{fill:#f2f2f2;}.cls-8{fill:#bd352f;}.cls-9{fill:#fefefe;}.cls-10{fill:#b3332e;}.cls-11{fill:#e35b53;}.cls-12{fill:#c9d8e6;}.cls-13{fill:#fdfdfd;}.cls-14{fill:#5e4441;}.cls-15{fill:#6b5350;}.cls-16{fill:#5a3a35;}.cls-17{fill:#52302b;}.cls-18{fill:#513430;}.cls-19{fill:#472a26;}.cls-20{fill:#5f3d38;}.cls-21{fill:#dd3f36;}.cls-22{fill:#c73831;}.cls-23{fill:#aa2f2b;}.cls-24{fill:#b3322d;}.cls-25{fill:#d63d34;}.cls-26{fill:#f6e6e5;}.cls-27{fill:#c8d8e6;}.cls-28{fill:#e1544c;}.cls-29{fill:#6f504c;}.cls-30{fill:#674742;}.cls-31{fill:#583c38;}.cls-32{fill:#7e625e;}.cls-33{fill:#62433f;}.cls-34{fill:#694c48;}</style></defs><g id="Слой_2" data-name="Слой 2"><g id="Слой_1-2" data-name="Слой 1"><path class="cls-1" d="M286.2,383l6,.1c8.42,3.59,16.82-2.18,25.25-.1,10.26,4.07,21.95,3.13,31.71,9,4.48,5.41,8.68,11,10.47,18,14,54.57,32,107.93,48.15,161.85,4.53,15.14,2.87,17.64-12.76,21.27-4.85,1.12-9.62,2.82-14.72,2.68-40.46-1-80.9-3.53-121.34.17-2.48-.34-5-.67-7-2.32-4-6.23-.73-12.31.71-18.26a739.1,739.1,0,0,0,20.63-160.84A139.27,139.27,0,0,0,272,394.61c-.56-4.45-1.64-9.45,3.57-12.41C279.09,382.24,282.74,381.22,286.2,383Z"/><path class="cls-2" d="M348.22,393c-8.57-2-17.14-4-25.73-5.91-1.65-.36-3.21-.61-4.26-2.08,1.54-1.84,3.67-2.28,5.89-2.54,5.22-.38,10.55.44,15.68-1.21,24.29-3.77,48.12-8.84,68.58-23.7a7.64,7.64,0,0,1,4.72-1.26c2.8.46,1.5,3.55,3.08,4.81l.13,3.93c1.63,1.73.11,4.41,1.85,6.11l.15,3.89c1.65,1.7.07,4.4,1.88,6.05a9.59,9.59,0,0,0,.07,1.93c1.72,1.7.14,4.43,1.9,6.13a8.17,8.17,0,0,0,.06,1.85c1.78,1.69.17,4.45,1.94,6.15l.19,3.9c1.08,1.15.67,3,1.81,4.09a9,9,0,0,0,.09,1.87c1.75,1.68.11,4.43,1.94,6.08a11.41,11.41,0,0,0,.09,1.94c1.7,1.66.07,4.38,1.93,6v0c1.76,1.68.18,4.44,2,6.11a10.15,10.15,0,0,0,.09,1.91c1.17,1.14.75,3,1.88,4.15l.21,3.88c1.07,1.13.62,2.95,1.84,4a11,11,0,0,0,.12,2c1.12,1.13.68,3,1.85,4.08a10.21,10.21,0,0,0,.11,1.91c1.16,1.14.74,3,1.87,4.14a8.09,8.09,0,0,0,.09,1.84c1.2,1.13.78,3,1.91,4.16a8.63,8.63,0,0,0,.07,1.83c1.8,1.63.11,4.41,2,6v0c1.77,1.64.14,4.41,2,6h0c1.79,1.62.15,4.4,2,6v0c1.77,1.64.14,4.41,2,6h0c1.79,1.62.15,4.4,2,6v0c1.77,1.64.14,4.41,2,6h0c1.79,1.61.13,4.4,2,6h0c1.15,1.16.81,3,1.92,4.18a8,8,0,0,0,.09,1.83c1.2,1.11.76,3,1.93,4.12a9.29,9.29,0,0,0,.11,1.9c1.16,1.12.72,3,1.89,4.09a10.17,10.17,0,0,0,.13,1.91c1.12,1.11.71,2.94,1.9,4l0,0c1.82,1.61.16,4.41,2,6h0c1.16,1.16.83,3,1.92,4.18a8.1,8.1,0,0,0,.12,1.84c1.18,1.11.73,3,1.91,4.1a10.17,10.17,0,0,0,.13,1.91c1.12,1.1.7,2.94,1.9,4v0c1.2,1.13.85,3,1.95,4.17a8.65,8.65,0,0,0,.1,1.83c1.2,1.11.75,3,1.93,4.12a10.06,10.06,0,0,0,.13,1.9c1.12,1.11.7,2.94,1.9,4v0c1.2,1.13.85,3,1.95,4.17a9.44,9.44,0,0,0,.12,1.84c1.18,1.11.73,3,1.92,4.08a10.5,10.5,0,0,0,.15,1.94c1.09,1.11.66,2.93,1.89,4h0c1.16,1.14.8,3,1.95,4.14a9.23,9.23,0,0,0,.11,1.89c1.14,1.09.72,2.94,1.92,4v0c1.2,1.12.84,3,2,4.14a9.1,9.1,0,0,0,.12,1.88c1.14,1.09.72,2.94,1.92,4l0,0c1.21,1.13.87,3,2,4.18a8.05,8.05,0,0,0,.12,1.83c1.16,1.09.74,2.94,1.94,4l0,0c1.21,1.13.86,3,2,4.17a8.72,8.72,0,0,0,.13,1.84c1.15,1.09.73,2.94,1.93,4v0c1.2,1.12.84,3,2,4.14a8.33,8.33,0,0,0,.12,1.87c1.14,1.09.71,2.94,1.93,4h0c1.17,1.12.81,3,2,4.11a10.17,10.17,0,0,0,.13,1.91c1.12,1.09.68,2.94,1.93,4h0c1.12,1.13.79,2.94,1.94,4l0,0c1.24,1.11.88,3,2,4.16a8.1,8.1,0,0,0,.12,1.84c2.1,2.32,2.52,5.44,3.91,8.11a10.18,10.18,0,0,0,.15,1.91c1.1,1.08.65,2.93,1.91,3.93l0,0c1.1,1.12.77,2.94,2,4l0,0c1.21,1.11.83,3,2,4.11a10.29,10.29,0,0,0,.15,1.92c1.1,1.08.65,2.92,1.92,3.93v0c1.1,1.13.77,2.94,2,4l0,0c1.21,1.11.84,3,2,4.12a10.08,10.08,0,0,0,.15,1.9c.67.67,1.23,1.44,1.85,2.16a7.5,7.5,0,0,0,.1,1.83c1.15,1.08.72,2.94,2,4h0c1.15,1.11.82,3,2,4l0,0c1.24,1.1.87,3,2,4.13a9,9,0,0,0,.13,1.87,20.69,20.69,0,0,1,1.87,2.2,7.26,7.26,0,0,0,.09,1.8c1.17,1.07.74,2.94,2,4h0c1.15,1.1.82,2.94,2,4l0,0c1.24,1.1.86,3,2,4.13a9.87,9.87,0,0,0,.15,1.88c.68.67,1.24,1.43,1.86,2.16a7.5,7.5,0,0,0,.1,1.83,17.9,17.9,0,0,1,1.88,2.2,7.65,7.65,0,0,0,.08,1.79c1.2,1.07.75,3,2,4h0c1.16,1.1.83,2.94,2,4l0,0c1.24,1.09.85,3,2,4.11a10.08,10.08,0,0,0,.15,1.9c.67.67,1.23,1.43,1.86,2.13a9,9,0,0,0,.11,1.87c1.13,1.07.68,2.93,2,3.94v0c1.11,1.11.74,2.94,2,4v0c1.12,1.11.77,2.94,2,4h0c1.15,1.11.82,3,2,4l0,0c1.2,1.08.86,2.93,2,4l0,0c1.24,1.08.84,3,2,4.09a10.46,10.46,0,0,0,.15,1.93c.66.67,1.22,1.42,1.84,2.13a9.71,9.71,0,0,0,.14,1.86c.68.67,1.23,1.43,1.87,2.13a8.37,8.37,0,0,0,.13,1.87,27.18,27.18,0,0,1,1.85,2.17,7.92,7.92,0,0,0,.1,1.82c1.17,1.06.7,2.94,2,4v0c1.11,1.1.73,2.94,2,4v0c1.11,1.11.75,2.94,2,4s.79,3,2,4h0c1.17,1.11.79,3,2,4.09a10.57,10.57,0,0,0,.2,1.95c.59.7,1.2,1.39,1.81,2.08a8.64,8.64,0,0,0,.13,1.9c.67.67,1.23,1.43,1.85,2.14a8.94,8.94,0,0,0,.11,1.86c1.14,1.08.7,2.93,1.94,4h0c1.14,1.11.8,3,2,4l0,0c1.21,1.12.85,3,2,4.14a9,9,0,0,0,.12,1.87c1.14,1.09.71,3,1.94,4h0c1.16,1.14.8,3,1.95,4.13a9.3,9.3,0,0,0,.13,1.9c1.12,1.09.69,2.94,1.92,4h0c1.16,1.14.81,3,1.94,4.15a9.1,9.1,0,0,0,.12,1.88c1.16,1.1.7,3,1.91,4.05a10.71,10.71,0,0,0,.14,2c1.09,1.11.67,2.93,1.88,4h0c1.79,1.61.13,4.4,2,6h0c1.15,1.16.81,3,1.92,4.17a8.09,8.09,0,0,0,.09,1.84c1.77,1.64.1,4.41,2,6h0c1.79,1.65.17,4.43,2,6.08a11.42,11.42,0,0,0,.1,1.94c1.68,1.66.06,4.38,1.92,6h0c1.75,1.7.2,4.45,1.95,6.14a9,9,0,0,0,.07,1.87c2.12,2.32-.23,5.74,2,8a11.8,11.8,0,0,0,.07,2c2.05,2.34-.26,5.72,1.93,8a11.7,11.7,0,0,0,0,2c2.27,3-.42,7,1.92,10.09,0,2,.07,3.95.11,5.92a162,162,0,0,1,0,37.93c0,1.33-.06,2.66-.1,4-2.42,3,.35,7-2,10a10.17,10.17,0,0,0-.06,1.91c-1.81,1.66-.18,4.42-1.94,6.09a8.2,8.2,0,0,0-.09,1.85c-1.13,1.15-.71,3-1.87,4.14a8.4,8.4,0,0,0-.12,1.87c-1.13,1.16-.78,3-1.94,4.15h0c-1.24,1-.8,2.9-2,4a8,8,0,0,0-.11,1.83,27,27,0,0,1-1.85,2.16,9,9,0,0,0-.13,1.87c-.64.71-1.2,1.48-1.89,2.14a7.85,7.85,0,0,0-.14,1.81,21.26,21.26,0,0,1-1.92,2.21h0c-1.23,1-.84,2.93-2.07,4l0,0c-.62.71-1.32,1.35-1.93,2.07l0,0c-1.27,1-.86,2.91-2.1,3.94l.05,0c-.63.72-1.32,1.38-2,2.07h0a26.05,26.05,0,0,0-1.91,2l0,.07c-1.31,1-.87,2.89-2.14,3.87l0,0a16.38,16.38,0,0,1-2,2.06l0,0a24.54,24.54,0,0,1-2,2l0,0c-.65.71-1.33,1.38-2,2l0,0c-.65.71-1.33,1.38-2,2l0,0c-.65.71-1.33,1.38-2,2l0,0c-.65.71-1.33,1.38-2,2l0,0c-.65.71-1.33,1.39-2,2l0,0a17.87,17.87,0,0,1-2.06,2l0-.06c-1,1.27-2.9.81-3.83,2.15l-.12.08a16.75,16.75,0,0,0-2,1.88l0,0c-.72.62-1.36,1.31-2.05,2l0,0a23,23,0,0,1-2.08,2l0,0c-4.51,4.63-9.61,8.34-15.95,10.11h0a25.42,25.42,0,0,1-2.2,1.94,7.86,7.86,0,0,0-1.81.15c-1.16,2.59-4,2.54-6,3.89h0c-1.09,1.16-3,.8-4,2h0c-1.08,1.16-2.94.77-4,2l0,0c-1.1,1.1-2.94.73-4,2l0,0c-1.12,1.1-2.94.75-4,2h0c-1.1,1.16-3,.81-4,2l0,0c-1.1,1.21-3,.83-4.09,2a11.46,11.46,0,0,0-1.94.16c-.67.66-1.43,1.22-2.15,1.83h-.92l-.91.11c-1.09,1.16-2.94.73-4,1.93h0c-1.12,1.2-3,.84-4.14,2a9.74,9.74,0,0,0-1.87.12c-1.1,1.14-2.94.73-4,1.91l0,0c-1.61,1.84-4.41.17-6,2h0c-1.15,1.17-3,.82-4.17,1.93a8.22,8.22,0,0,0-1.85.11c-1.11,1.19-3,.74-4.11,1.91a10.11,10.11,0,0,0-1.9.12c-1.11,1.15-3,.69-4.05,1.9a11.54,11.54,0,0,0-1.95.11c-1.13,1.14-3,.71-4.1,1.87a10,10,0,0,0-1.89.11c-1.66,1.71-4.39.07-6,1.93h0c-1.68,1.77-4.44.18-6.11,2h-.95l-1,.08c-1.66,1.74-4.41.09-6,1.94a10.8,10.8,0,0,0-2,.09c-1.68,1.69-4.4.07-6,1.91a10.8,10.8,0,0,0-2,.09c-1.71,1.68-4.42.11-6.09,1.88l-3.92.14c-2.35,2-5.71-.29-8,1.9l-4,.1c-2.37,2-5.72-.28-8,1.88l-4,.11c-2.41,1.58-5.11.62-7.67.89-4.22-.37-8.26.58-12.28,1.7a23.08,23.08,0,0,1-4.7.32c-5.28.34-10.6.36-15.76,1.81a62.2,62.2,0,0,1-6.69.17,141.85,141.85,0,0,0-27.84,1.94c-13.32.11-26.63.09-39.93,0a176.18,176.18,0,0,0-27.91-2c-2.78,0-5.57.07-8.36-.08A38.81,38.81,0,0,0,241,1130c-2,0-4.09.06-6.13-.11-3.38-1.2-6.85-.88-10.32-.55-2,0-3.78-.93-5.67-1.38-2.65-1-5.2-2.35-8.18-2a25.16,25.16,0,0,1-4.16-.2c-2.54-1-5-2.16-7.89-1.8a22.42,22.42,0,0,1-4-.2,7.53,7.53,0,0,0-6.05-1.8c-1.29,0-2.57,0-3.85,0a18.57,18.57,0,0,1-6.08-1.57l-2.35-.77c-1.54-1.65-3.53-1.83-5.61-1.68a8.71,8.71,0,0,1-2.38-.33c-1.51-1.6-3.45-1.8-5.48-1.67a10.81,10.81,0,0,1-2.34-.24c-1.25-.9-2.43-1.94-4.14-1.76a8.71,8.71,0,0,1-2.27-.33c-1.78-.62-3.41-1.7-5.4-1.67a9.84,9.84,0,0,1-2.23-.25c-1.19-.86-2.28-1.91-3.93-1.75a8.33,8.33,0,0,1-2.16-.29c-1.14-.89-2.22-1.87-3.83-1.71a9.25,9.25,0,0,1-2.16-.26,16.13,16.13,0,0,0-2.8-1.66,4.92,4.92,0,0,1-2-.9,4,4,0,0,0-2.94-1.18,10.42,10.42,0,0,1-2.16-.22,28.4,28.4,0,0,0-2.77-1.64,5.59,5.59,0,0,1-1.95-.82c-1-1.17-2.47-1.34-3.72-2a12,12,0,0,0-3.86-1.91,11.72,11.72,0,0,0-3.92-2,11.82,11.82,0,0,0-4-2,11.75,11.75,0,0,0-4-2,11.82,11.82,0,0,0-4-2,11.59,11.59,0,0,0-4-2,11.45,11.45,0,0,0-3.93-2,13.62,13.62,0,0,0-2.84-1.58,4.76,4.76,0,0,1-2-.7,11.57,11.57,0,0,0-1.73-1.11,12.09,12.09,0,0,1-1.93-.63A9.35,9.35,0,0,0,77.5,1080a3.5,3.5,0,0,1-1.82-.75,16.68,16.68,0,0,1-1.46-1.33l-.65-.73a3,3,0,0,0-2.49-1.32,3.33,3.33,0,0,1-1.75-.86,4.65,4.65,0,0,0-1.7-1,4.06,4.06,0,0,1-1.84-.7,17,17,0,0,1-1.49-1.31l-.7-.69c-.45-.48-.9-.95-1.36-1.41l-.65-.72a2.92,2.92,0,0,0-2.42-1.33,2.76,2.76,0,0,1-1.71-.82c-.47-.43-.93-.87-1.4-1.29l-.69-.66a5.88,5.88,0,0,0-1.5-1.12,7.58,7.58,0,0,1-1.67-.87l0-.33a6.48,6.48,0,0,0-1.77-.92l-.8-.58c-.49-.44-1-.9-1.44-1.36l-.7-.68c-.44-.48-.9-.94-1.37-1.38l-.68-.68c-.44-.47-.89-.93-1.36-1.37l-.68-.67c-.43-.47-.88-.92-1.34-1.35,0,0-.67-.68-.68-.67-.43-.47-.87-.92-1.34-1.35l-.67-.67c-.43-.46-.88-.91-1.34-1.34l-.67-.67c-.43-.46-.88-.91-1.34-1.34,0,0-.67-.68-.68-.67q-.65-.7-1.35-1.35l-.67-.68c-.44-.47-.89-.92-1.37-1.36,0,0-.67-.69-.68-.69-.44-.47-.9-.93-1.38-1.37,0,0-.68-.7-.69-.7-.46-.47-.91-1-1.36-1.43l-.58-.81a6,6,0,0,0-.9-1.76l-.33,0a10.37,10.37,0,0,1-1-1.8,10.51,10.51,0,0,0-1.29-1.6c-.24-.25-.47-.5-.71-.74a20.4,20.4,0,0,1-1.36-1.57,8.44,8.44,0,0,1-.68-1.94,9.46,9.46,0,0,0-1.13-1.72l-.6-.84a8.86,8.86,0,0,0-1-1.83l-.32,0a12.76,12.76,0,0,1-1-1.9c-.39-.58-.81-1.15-1.24-1.69a6.51,6.51,0,0,1-.68-1.91,11.53,11.53,0,0,0-1.58-2.51,17.39,17.39,0,0,1-.58-1.9c-.47-.88-1.16-1.64-1.58-2.56a14,14,0,0,1-.15-2c.1-1.54-.88-2.6-1.61-3.78a8.93,8.93,0,0,0-2.06-3.78,7.47,7.47,0,0,1-.33-2.2c.16-1.69-1-2.8-1.79-4.05a18,18,0,0,1-.21-3.52c0-1.57-.34-3.24,1.15-4.43a3.38,3.38,0,0,1,2.32-.16A7.2,7.2,0,0,1,10.6,990a12.68,12.68,0,0,1,1.26,1.89c.4.61.77,1.24,1.16,1.86.22.28.42.58.64.86a16.46,16.46,0,0,1,1.27,1.74A21,21,0,0,1,16,998.17c.38.59.75,1.19,1.15,1.78.24.26.45.54.7.81.53.5,1,1,1.55,1.54.28.25.53.52.81.77.56.5,1.09,1,1.6,1.59a28.46,28.46,0,0,1,3.52,4.45c.42.61.8,1.24,1.19,1.87.21.29.41.6.62.89.47.55.92,1.12,1.39,1.68.26.26.49.54.75.81.55.51,1.06,1.06,1.59,1.6.29.27.55.55.84.82.61.54,1.17,1.11,1.75,1.7.31.31.58.62.89.93a20.25,20.25,0,0,1,1.7,2.1A27.33,27.33,0,0,1,37.6,1024a96.64,96.64,0,0,0,28.17,29.4c43.1,29.59,89.63,51,141.87,58.48a65.27,65.27,0,0,1,17.18,5.2c15.86,7.08,32.66,9,49.68,9.23,29,.41,58.12,1.59,86.68-4.14,44-8.82,88.84-14.33,131.2-30.35,17.46-6.6,34.81-13.77,50.91-23,13.58-7.81,23.87-20.09,32.27-33.53,2-3.2,2-7,1.68-10.7-.35-8.66,7.19-13.23,10.41-20,.46-.84,1-1.65,1.53-2.45.78-1.25,1.59-2.48,2.33-3.75,16.11-33.41,15.43-68.13,8-103.3-7.8-36.67-21.7-71.28-37.9-104.84-24.14-50-46.74-100.7-68.46-151.78-4.13-13.91-16.21-18.55-27.78-23.79-4-2.48-10.3-1.65-11.86-7.88a32.75,32.75,0,0,0-.28-9.93c-11.78-55.34-23.9-110.59-45.26-163.27a135.54,135.54,0,0,0-13.34-25.61c-4.7-6.89-10.7-10-19.17-10.43C366.29,396.93,356.81,397.27,348.22,393Z"/><path class="cls-3" d="M14.23,999c0-.67,0-1.33,0-2-.69-.64-1.29-1.37-2-2s-1.27-1.4-2-2c0-.66,0-1.33,0-2-.68-.65-1.31-1.35-2-2-1.55-.7-2.67-2-4.19-2.76a3.31,3.31,0,0,1-1.79-1.29q0-3-.08-6c-2.52-5.11.78-10.92-1.93-16V951c2.81-6.46-.71-13.54,2-20,0-1.33,0-2.65.05-4,2.2-2.31-.12-5.69,1.93-8,0-1.32,0-2.65.07-4,1.85-1.62.21-4.36,1.92-6l.09-4c1.84-1.64.18-4.4,1.95-6.06,0-.65.06-1.3.05-2,1.22-1.07.75-2.93,1.89-4l.12-3.95c1.2-1.09.74-3,1.92-4.06,0-.66.06-1.31.06-2,1.24-1.06.76-2.93,1.91-4,0-.66,0-1.33.08-2,1.26-1,.77-2.9,1.91-4,0-1.31.07-2.62.11-3.93.67-.66,1.22-1.43,1.9-2.08.06-.66.08-1.33.08-2,1.26-1,.77-2.91,1.91-4,.06-.67.09-1.33.09-2,1.26-1,.77-2.94,1.94-4,0-.65.08-1.31.07-2,1.24-1.07.76-3,2-4a17.4,17.4,0,0,0,.05-1.91c.67-.66,1.22-1.42,1.89-2.08.06-.66.09-1.32.09-2,1.26-1,.77-2.94,1.95-4a17.6,17.6,0,0,0,.07-1.92c.68-.65,1.22-1.42,1.9-2.07.06-.66.09-1.31.09-2,1.24-1.06.75-3,2-4a15,15,0,0,0,.06-1.9c.66-.67,1.21-1.45,1.91-2.1a17.88,17.88,0,0,0,.07-1.94c.64-.67,1.27-1.36,1.89-2,.07-.65.1-1.31.11-2,1.22-1.08.82-2.95,2-4s.79-2.92,2-4a15.18,15.18,0,0,0,.06-1.91c.68-.66,1.23-1.44,1.92-2.09a17.61,17.61,0,0,0,.08-1.92c.68-.65,1.22-1.42,1.9-2.07.06-.65.09-1.31.09-2q1-1,1.89-2c.07-.65.1-1.3.11-2q1-1,1.89-2c.06-.66.1-1.32.1-2,1.24-1.07.83-2.94,2-4h0c1.22-1.06.85-2.91,2-4h0c1.22-1.06.86-2.91,2-4s.86-2.89,2-4v0c1.26-1,.8-2.91,2-4a14.92,14.92,0,0,0,.06-1.89c.67-.68,1.22-1.47,1.92-2.11a17.6,17.6,0,0,0,.07-1.92c.68-.65,1.23-1.43,1.92-2.08a17.61,17.61,0,0,0,.08-1.92c.68-.65,1.22-1.42,1.9-2.07.06-.65.09-1.31.09-2q1-1,1.89-2a18.39,18.39,0,0,0,.11-2c1.21-1.09.82-3,2-4.06h0c1.2-1.07.85-2.91,2-4h0c1.22-1.06.86-2.89,2-4v0c1.26-1,.8-2.89,2-4a17.8,17.8,0,0,0,.08-1.93c.68-.65,1.23-1.42,1.91-2.07,0-.65.08-1.3.08-2,.64-.67,1.27-1.35,1.9-2,.06-.66.1-1.31.1-2,1.22-1.07.82-2.94,2-4h0c1.21-1.07.86-2.9,2-4v0c1.26-1,.81-2.89,2-4,.06-.64.08-1.29.08-1.93.68-.65,1.22-1.42,1.9-2.07.06-.65.09-1.31.09-2,1.21-1.08.81-3,2-4h0c1.2-1.08.85-2.91,2-4h0c1.26-1,.8-2.9,2-4a17.7,17.7,0,0,0,.06-1.93c.69-.64,1.23-1.4,1.9-2.06.06-.65.1-1.31.1-2,1.22-1.08.82-2.94,2-4s.79-2.91,2-4a15.18,15.18,0,0,0,.06-1.91c.67-.65,1.22-1.42,1.89-2.07,0-.67.09-1.34.13-2a10.73,10.73,0,0,1,2-4h0c1.24-1,.79-2.92,2-4a13.7,13.7,0,0,0,.07-1.92c.67-.65,1.22-1.42,1.9-2.08.06-.65.09-1.31.09-2,1.22-1.07.82-2.94,2-4h0c1.24-1,.79-2.92,2-4a15.18,15.18,0,0,0,.06-1.91c.67-.65,1.22-1.42,1.89-2.07a18.75,18.75,0,0,0,.1-2c1.22-1.08.82-2.94,2-4h0c1.24-1,.8-2.9,2-4a17.88,17.88,0,0,0,.07-1.94c.64-.68,1.26-1.36,1.88-2.05,0-.67.07-1.33.11-2,1.26-1,.77-2.94,2-4a15.18,15.18,0,0,0,.06-1.91c.67-.65,1.22-1.42,1.89-2.07.06-.67.09-1.33.09-2,1.26-1,.76-2.95,2-4a13.36,13.36,0,0,0,0-1.9c.67-.66,1.22-1.43,1.9-2.09.06-.65.09-1.31.09-2,1.24-1.07.75-3,2-4a15,15,0,0,0,0-1.9c.67-.66,1.22-1.43,1.9-2.09.06-.65.09-1.31.09-2,1.24-1.06.75-3,2-4a13.36,13.36,0,0,0,.05-1.9c.67-.66,1.22-1.43,1.9-2.09.06-.65.09-1.31.09-2,1.24-1.06.75-3,2-4a15.07,15.07,0,0,0,.05-1.9c.67-.66,1.22-1.43,1.89-2.08.06-.67.09-1.33.09-2,1.26-1,.76-2.95,2-4a15.18,15.18,0,0,0,.06-1.91c.67-.65,1.22-1.42,1.89-2.07l.09-2c1.26-1,.77-2.93,1.94-4a18.17,18.17,0,0,0,.08-2c1.22-1.08.74-3,2-4.06a14.91,14.91,0,0,0,0-1.89c.67-.67,1.22-1.44,1.9-2.1a18.73,18.73,0,0,0,.08-2c1.25-1,.77-2.94,2-4a18,18,0,0,0,.07-1.94c1.19-1.1.81-3,2-4.08s.8-2.88,1.93-4c.06-.66.09-1.32.09-2,1.24-1,.76-2.94,1.94-4a18.16,18.16,0,0,0,.07-2c1.22-1.08.74-3,1.95-4.06a17.4,17.4,0,0,0,.05-1.91c.67-.65,1.22-1.42,1.89-2.07,0-.67.05-1.35.08-2,1.28-1,.78-2.91,1.94-4,.05-.65.08-1.32.07-2,1.25-1,.77-2.94,2-4,0-.65.08-1.3.07-2,1.22-1.08.75-3,1.94-4.06a17.6,17.6,0,0,0,.07-1.92c1.2-1.09.73-3,1.94-4.08a13.68,13.68,0,0,0,0-1.92c.63-.68,1.26-1.37,1.88-2.06l.1-2c1.27-1,.78-2.9,1.91-4l.09-2c1.27-1,.78-2.89,1.91-4l.09-2c1.27-1,.78-2.89,1.92-4l.09-2c1.26-1,.77-2.9,1.9-4l.09-2c1.27-1,.78-2.9,1.91-4l.09-2c1.27-1,.78-2.89,1.91-4l.09-2c1.91-1.58.19-4.38,2-6a17.59,17.59,0,0,0,0-1.92c1.2-1.09.73-3,1.94-4.08a17.77,17.77,0,0,0,.05-1.93c1.22-1.08.75-3,1.93-4.06,0-.66.07-1.31.06-2,1.23-1.05.76-2.92,1.91-4,0-.67,0-1.34.07-2,1.91-1.6.19-4.38,2-6a15.38,15.38,0,0,0,0-1.92c1.21-1.09.75-3,1.92-4.07.05-.66.07-1.32.07-2,1.23-1.05.76-2.91,1.89-4,0-1.32.08-2.63.13-3.95,1.2-1.09.74-3,1.9-4.07a18.91,18.91,0,0,0,.07-2c1.89-1.6.2-4.37,2-6,.05-.66.06-1.31.05-2,1.86-1.62.19-4.38,1.95-6a18.26,18.26,0,0,0,.05-2c1.86-1.62.19-4.38,2-6,0-.65.05-1.31,0-2,1.86-1.61.2-4.36,1.93-6l.09-3.93c1.81-1.65.19-4.39,1.92-6.07q0-11,.08-21.89a1.23,1.23,0,0,1,1.93-.07l0,0c.65.69,1.4,1.3,2,2l0,0c2.66,4,7.05,6.32,10,10v0c.7.64,1.37,1.32,2,2h0c.64.68,1.36,1.28,2,1.95a13.08,13.08,0,0,0,1.88.08c.72.65,1.45,1.28,2.13,2h0c1.06,1.21,2.91.85,4,2h0c1.07,1.21,2.91.85,4,2h0c1,1.23,2.92.79,4,2a17.33,17.33,0,0,0,1.91.07,10.92,10.92,0,0,1,1.86,2.75c1.87,17.1-1.66,33.84-4.46,50.44-9.36,55.63-26.09,109.35-43.67,162.81-1.24,3.78-2.49,7.6-2.52,11.66-1.11,4.56-5.3,4.58-8.63,5.88-13.46,3.67-27,7-39.22,14.24-6.32,3.71-11.06,8.39-13.76,15.16Q103.2,708.72,69.36,780c-15,31.6-29.77,63.28-38.73,97.24-7.24,27.42-12.8,55-8.14,83.77,5.05,31.15,20.17,55.94,44.91,75.21,4.67,3.64,10.27,6.33,13.17,11.95-.27,6-4.32,4.28-6.95,2.79-14.46-8.18-29.07-16.26-39.4-29.92h0c-.66-.68-1.32-1.35-2-2h0c-.65-.68-1.31-1.35-2-2s-1.32-1.35-2-2h0c-.65-.68-1.32-1.35-2-2h0c-.68-.66-1.28-1.4-2-2l-4-6c-.69-.64-1.29-1.37-2-2s-1.32-1.35-2-2h0C15.55,1000.33,15,999.59,14.23,999Z"/><path class="cls-4" d="M240.45,7.07a1.54,1.54,0,0,0,1.78-.18c5.09-2.72,10.3-4.41,16-1.83l4-.22c9.95-1.23,20-.89,29.95-2l41.34.3c9.24,1.58,18.5.95,27.76.34,10.73-.7,20.76,2.59,30.89,5.35a1.59,1.59,0,0,0,1.81.2c5.66,2.13,11.66.47,17.49,1.56,4,.75,7.71,1.38,10.73,4.24a1.11,1.11,0,0,0,1.51.29c1.93,1.45,4.63.13,6.49,1.82a.71.71,0,0,0,1.16.27c1.59.55,3.31.66,4.8,1.54a1.14,1.14,0,0,0,1.49.4c1.9,1.48,4.82-.12,6.46,2.14l-.2-.11c1.32.82,3.05.6,4.27,1.68a.73.73,0,0,0,1.15.36c1.63.6,3.53.5,4.81,1.95l-.14-.08c1.24,1,3,.71,4.18,1.91l0,0c6.74,2.06,13.23,4.55,17.79,10.37l-.14-.19a4.81,4.81,0,0,1,2.34,1.95l-.11-.09c.81.53,1.42,1.28,2.2,1.83l.07,0c1.61,1.85,4.4,2.26,5.59,4.62l-.23-.25A2.72,2.72,0,0,1,488,47.49l-.23-.23a3.19,3.19,0,0,1,2.3,2.13l-.21-.2a4.3,4.3,0,0,1,2.3,2.06L492,51.1a5.57,5.57,0,0,1,2.14,2.14L494,53.1a5.86,5.86,0,0,1,2.16,2.12l-.14-.13a9,9,0,0,1,2.21,2l-.05,0c.72.62,1.36,1.32,2.08,1.93l0,0a26.15,26.15,0,0,0,2,2l0,0a14.33,14.33,0,0,0,2,1.89l.08.06c2.51,2.37,5.78,3.89,7.64,7,0,1.53,0,3,0,4.58a1.62,1.62,0,0,1-1.77,1.39c-4.1.06-5.9,3.51-8.47,5.78-2.9,2.57-5.64,5.35-10,4.64a33.92,33.92,0,0,0-8.47-.69,48.11,48.11,0,0,0-19,3.64c-25.66,12.41-53.23,17.84-81.06,22.41-15.19,2-30.47,2.9-45.72,4.22-17.9.35-35.8.4-53.69,0-39.58-3.3-79.18-6.51-116.43-22.08-5.45-1.94-10.5-4.75-15.61-7.43-3.08-3-9.24-4-7.06-10.59,2.16-2.42,4.57-1.93,7.24-.84,16.3,6.64,33.19,12.5,50.36,15,13.83,2,27.65,6.84,42.12,4.56,9-1.41,17.79,1.54,26.76,1.89,15,.59,29.8-1.92,44.72-2.19,34.09-.17,67.69-3.74,100.25-14.43,7-2.29,15.25-4.56,16.05-13s-6.9-12.46-13.1-16.08c-12.4-7.24-25.59-12.74-39.87-15.22-22.72-8.18-46.5-11.6-70.27-13.51-14.41-1.16-29-2.85-43.77-.88-18.44,2.47-37.26-.55-55.82,2.52-8.87,1.47-17.75,2.83-26.6,4.39-3.7.65-9.49,3.14-8.43-5,1.76-4,5.89-2.41,8.77-3.76a.69.69,0,0,0,1.14-.31c1.7-1.69,4.41-.15,6.1-1.88l-.08,0c1.91-1.8,4.65-.61,6.71-1.86a.81.81,0,0,0,1.26-.27c8.86-4.93,18.87-4.22,28.41-5.83a1.19,1.19,0,0,0,1.6-.19C232,6.61,236.65,9.46,240.45,7.07Z"/><path class="cls-5" d="M262.24,307.05,258.3,307c-1.09-1.21-3-.74-4.07-1.94-.65,0-1.3-.06-1.95,0-1.07-1.24-3-.75-4.06-2l-.95,0h-1c-.65-.68-1.43-1.23-2.08-1.92-.65-.05-1.3-.08-1.95-.07-2.61-1.48-5.8-1.8-8-4l0,0c-.71-.63-1.36-1.32-2.05-2h0c-.64-.66-1.29-1.3-2-1.92a17.87,17.87,0,0,0-1.94-.1c-.67-.68-1.41-1.3-2.08-2h0c-.66-.67-1.32-1.35-2-2h0a26.42,26.42,0,0,0-2-2l0,0a19.94,19.94,0,0,0-2-1.93l-.07-.07a17.67,17.67,0,0,0-1.93-1.94l-.06-.06a22.54,22.54,0,0,0-1.94-2l0,0c-.62-.71-1.29-1.36-2-2h0c-.66-.69-1.28-1.41-2-2.06l-2.09-4c-.62-.69-1.26-1.35-1.92-2l-.21-40q-.87-1.83,1.08-2.34a5,5,0,0,1,3.11,3.49c.16,1.31,0-.32.27.95,1.61,6.4-2.73,14.94,2.41,19,4.33,3.4,12.11,0,18.4.21a459.68,459.68,0,0,1,78.12,9.64c25.21,5.39,44.05,21.1,57.29,43.32-.12,2-1.48,3-3.1,3.83-16,4.83-32.57,6.07-49.16,6.85-4.21.19-8.73.58-12.21-2.87l-1,0-1,0c-6.47-2.78-13.54.71-20-1.94l-4-.06c-2.3-2.2-5.71.14-8-2l-3.94-.06C265.21,307.75,263.34,308.21,262.24,307.05Z"/><path class="cls-6" d="M276.28,383c-3.62,3.68-2.17,8.17-1.58,12.28a165.93,165.93,0,0,1-.08,49.55,49.33,49.33,0,0,0-.39,6c-.69,22.86-3.86,45.42-7.44,68a660.12,660.12,0,0,1-14.36,69c-.42,1.57-.16,3.32-.22,5-10.84,7.51-23.61,5.37-35.6,7.13-2.88-.27-5.84-.26-8.36-2-3.38-4-1.81-8.1-.38-12.2,19.39-55.56,35.81-111.94,47.82-169.6,2.49-11.91,2.59-24.44,8.52-35.55,3.37-.51,6.75-1.2,10,.5.65,0,1.31,0,2,0,.67.4.9.82.71,1.27S276.49,383,276.28,383Z"/><path class="cls-7" d="M366.2,307l2.06-2c3.76-4.2,9.45-4.48,14.1-6.88,7.94-4.09,16-7.82,22.8-13.91,1.93-1.73,4.09-6.06,8-2.2-.29,3.65,1,7.42-.89,10.93v46c2.33,3-.47,7,2,10,0,1.33,0,2.66,0,4a2.77,2.77,0,0,1,0,4c-4.53,1.55-7.53,5.45-11.56,7.68A147.38,147.38,0,0,1,340.22,383c-5.11,2.55-10.91-.73-16,1.92l-6,.05c-6.25,0-12.49,0-18.74,0-2.57,0-5.33.5-7.29-1.92,4.65-.85,9.81,1.76,14-2.05,2.16-4.32,6.23-4.19,10.22-4.56,24.51-2.27,40.38-16.34,50.67-37.67,3-6.17,3-12.72.92-19.36C366.77,315.43,364.31,311.51,366.2,307Z"/><path class="cls-1" d="M264.25,380.94c.15,10.71-2.95,21-5,31.3-4.77,24-10.22,47.93-16.88,71.53-9.9,35.13-19.76,70.29-32.8,104.43a24,24,0,0,0-1.34,8.78,4.45,4.45,0,0,1-2.24,3.09,10.27,10.27,0,0,1-2.48.8c-2.13.3-4.27.53-6.39.89a3.81,3.81,0,0,1-2.46-.56c-5.14-4.72-.65-9.64.66-13.62,6.1-18.5,11.62-37.17,17.29-55.8C217.71,515,223,498.3,227,481.26c4.63-19.58,9.78-39.14,12.62-59,2.23-15.61,4.93-31.35,4.58-47.29a2.75,2.75,0,0,1,4,0c.64,0,1.28.05,1.92,0,1.09,1.21,3,.74,4.07,1.94.65,0,1.31.06,2,0,1.62,1.87,4.39.19,6,2,.65,0,1.31,0,2,0q1.08.6.75,1.26C264.7,380.71,264.48,380.94,264.25,380.94Z"/><path class="cls-8" d="M464.22,87c6.24-3.86,13.16-4.22,20.2-3.93,1.77,4.73,5.82.07,8.27,2,6.5-1.75,9.36-7.9,14.17-11.7,2.72-2.15,3.17-.31,3.5,1.87a2.52,2.52,0,0,1-.23,3.71l0-.06c-1.13,1.11-.72,3.1-2.27,4l.07-.14c-4.57,10.88-10.94,20.43-20.27,27.84l.2-.13a2.91,2.91,0,0,1-2.08,2.35l.2-.21a4.73,4.73,0,0,1-2,2.34l.1-.11a28.15,28.15,0,0,1-1.88,2.19l0,0c-1.77,1.69-2.25,4.42-4.57,5.66l.13-.17c-1.1,4.45-2.33,8.84-5.38,12.43a1.09,1.09,0,0,0-.4,1.46c-.8,1.44-.6,3.26-1.74,4.56a.71.71,0,0,0-.33,1.15c-.58,1.62-.55,3.48-1.84,4.83l0-.09c-1.07,1.16-.77,2.88-1.73,4.08a1,1,0,0,0-.43,1.39c-.73,1.5-.57,3.36-1.9,4.61l.05-.09c-1.08,1.17-.73,3-1.86,4.12l-.47.4.14.6a5,5,0,0,1-1.56,3,.77.77,0,0,0-.44,1.17c-.64,1.61-.4,3.63-2.16,4.72l.14-.22c-.77,1.38-.45,3.31-2.14,4.21l.14-.21c-.8,1.35-.38,3.39-2.32,4.09l.24-.26c0,1.13-1,1.75-1.52,2.57l0,.08c-.58,5.9-4.87,9.59-8.25,13.82l.06-.1c-1.37,3.74-2.41,7.68-6,10.1l0-.07c-1.07,1.18-.77,3-2,4.11l0,0c-1.19,1-.68,3.19-2.51,3.82l.26-.26a3.38,3.38,0,0,1-2,2.37l.16-.17a5,5,0,0,1-2.12,2.2l.15-.15a5.46,5.46,0,0,1-2.15,2.14l.15-.14a4.17,4.17,0,0,1-2.3,2l.22-.22c-1.21,1.62-2.63,1.63-4.2.58-1.71-3-.6-5.9.77-8.55,16.39-31.66,23.1-66.49,33.12-100.24C458.26,103.83,459,94.64,464.22,87Z"/><path class="cls-9" d="M366.2,307c11,19.54,5.42,36.53-8.76,51.54-11.44,12.13-25,20.71-42.61,20.42a16.61,16.61,0,0,0-8.6,2c.32-3.09-2.71-3.91-4-5.9,3.4-3.71,7.86-1.68,11.84-2.13s7.59-1.32,10.79-3.69c15.5-13.68,14.74-30-2-40.89-7.63-5.12-16.46-.69-24.42-3.13-2.07-7.8-2.07-7.8,5.74-12.28a226.45,226.45,0,0,0,57-5.79A25.53,25.53,0,0,1,366.2,307Z"/><path class="cls-10" d="M144.21,77c1.29,4,6.71,3.94,8,8,2.66,2.76,3.61,6.24,4.45,9.87,9.84,42.75,23,84.2,46.78,121.62,1.71,2.69,5.3,5.79,1.16,9.48-1.56,0-3.19.26-4.29-1.27l.19.17a10.37,10.37,0,0,1-2.34-1.77l-.05,0c-5.77-2.22-10.63-5.35-11.94-12v0a5.94,5.94,0,0,1-1.72-2.44l.22.23c-4.23-2.84-4.6-7.75-6.41-11.89l0,.06a4.18,4.18,0,0,1-1.78-2.47l.24.26c-1.84-.67-1.37-2.78-2.45-3.93l.08.11c-1.36-.92-.89-2.9-2.23-3.83l0-.07c-.59-.8-1.43-1.43-1.66-2.47l.18.13c-5-2.36-4.73-7.59-6.39-11.76l0,0c-1.21-1.13-1-2.94-1.92-4.19l.08.14c-1.42-1-1.11-2.9-2.07-4.15l.07.09c-5.54-3.15-4.54-9.15-6.11-14l.06.12c-1.37-1.36-1.37-3.24-1.9-4.93l.17-.61-.48-.41c-2.11-3.06-4.77-5.92-3.6-10.15-.18-.63-.37-1.26-.56-1.89-.94-1.36-.84-3.09-1.6-4.52A1.09,1.09,0,0,0,146,127c-.92-1.48-1-3.22-1.56-4.82a.69.69,0,0,0-.28-1.15c-4.27-7-5.32-14.75-5.76-22.69a.84.84,0,0,0-.26-1.32c-1.92-2.6-.08-6-1.76-8.63a.85.85,0,0,0-.21-1.36c-1.8-2.61-.58-5.58-1-8.36-.45-2.21-1.27-4.43,0-6.65a4.25,4.25,0,0,1,1.95-1.55,4.35,4.35,0,0,1,2.32.57c.32.22.63.47.95.69a15.26,15.26,0,0,1,1.65,1.57c.25.26.49.55.75.82A9.41,9.41,0,0,1,144,75.91C144.1,76.27,144.15,76.64,144.21,77Z"/><path class="cls-11" d="M298.48,325.26c8.91-2.57,17.8-4.84,26.24,1.41-.15,14.83,1.69,29.58,1.66,44.41-7.17,6.61-15.79,4.59-24.16,4l-.52-.44-.68.08c-5.54-1.68-10.8-3.69-12.48-10.13l.13.17c-3.89-3.81-6.89-7.91-4.48-13.78.12-1.95.25-3.91.37-5.86-1.1-4.25,1.43-7.14,3.75-10.12l0,.06c1.54-1.9,2.25-4.42,4.4-5.87l-.25.25c.63-1.7,2.81-1.15,3.66-2.53l.1-.06c.79-.56,1.47-1.27,2.31-1.75Z"/><path class="cls-9" d="M392.19,8.87,333.55,3.18C347,3.77,360.36,2,373.72.71c2.72-.26,5.92-1.23,7.21,1.23C383.44,6.74,388.72,6.18,392.19,8.87Z"/><path class="cls-9" d="M487.69,110.58,508,82.74c3.86,6.13-2.22,9.79-4.28,13.85C500.46,103,496.1,109.48,487.69,110.58Z"/><path class="cls-9" d="M412.23,293q0-6,0-12c-2.52-2.2-2.86-5.26-2.86-8.24,0-13.65-1-27.31.59-40.93,1.3-4.46,4.2-7,8.9-7.34l1.59.73c-.26,1.28-.15,3.42-.83,3.72-6.85,3-5.33,8.95-5.36,14.3-.07,13.5,0,27-.07,40.5C414.15,286.89,415.26,290.41,412.23,293Z"/><path class="cls-9" d="M290.2,1132.94l42.05,0c4-1.33,8-1.59,12,.19-1.69,2.06-4.05,1.88-6.35,1.88H282.56c-2.3,0-4.66.18-6.34-1.89C280.86,1131.31,285.52,1131.61,290.2,1132.94Z"/><path class="cls-9" d="M422.22,14.87A218.61,218.61,0,0,1,394,9.07c6.53.57,12.85-1.37,19.32-1.63C418.7,7.23,422.35,8.68,422.22,14.87Z"/><path class="cls-9" d="M134,77.19c-5.38-5.09-7.48-16.78-4-22.84a58.09,58.09,0,0,1,4.08-5.48l1,1c1.47,5.13-.92,10.54,1.13,15.65.48,3.61-1.53,6.91-1.25,10.5Z"/><path class="cls-9" d="M226.63,9.13A199.09,199.09,0,0,1,198.22,15c4.48-5,10.09-6.63,16.67-6C218.78,9.29,222.72,9.08,226.63,9.13Z"/><path class="cls-9" d="M186.2,211l11.94,12c-1.3,0-2.6,0-3.9,0-9.54-.3-9.66-.45-8.09-10A12.67,12.67,0,0,0,186.2,211Z"/><path class="cls-9" d="M288.54,364.61,301,374.74,289.48,376C287.28,372.31,288.44,368.41,288.54,364.61Z"/><path class="cls-9" d="M258.23,5.06a41.27,41.27,0,0,1-16,1.83C247.42-.8,251.25-1.24,258.23,5.06Z"/><path class="cls-9" d="M138.44,98.3A128.35,128.35,0,0,1,144.2,121C137.28,114.7,135,107.24,138.44,98.3Z"/><path class="cls-9" d="M624.3,975q0-19,0-37.93a5.27,5.27,0,0,1,1.91,4.29v29.34A5.28,5.28,0,0,1,624.3,975Z"/><path class="cls-9" d="M292.2,2.88c-9.9,1.89-19.92,2-29.95,2,2-2.37,4.74-1.77,7.3-1.84,6.14-.18,12.4.82,18.16-2.57C290-.89,291.22,1.1,292.2,2.88Z"/><path class="cls-9" d="M476,37.39,458.17,27C466.74,25.93,473.05,28.74,476,37.39Z"/><path class="cls-9" d="M554.22,1077c4.91-4,9.79-8.07,15.95-10.11C567.62,1074.62,562.58,1078.42,554.22,1077Z"/><path class="cls-9" d="M234.19,1128.92l5.9.12c.7.35,1,.74.8,1.19s-.35.72-.56.72c-4.6.38-9.22-.36-13.85.83-4.94,1.27-8.33-2.7-12.26-4.71a2.71,2.71,0,0,1,4-.16l5.92.14C227.15,1129.36,231.11,1126.73,234.19,1128.92Z"/><path class="cls-9" d="M164.26,172.93a31.61,31.61,0,0,1,6.39,11.76C161.54,183.75,161.49,183.65,164.26,172.93Z"/><path class="cls-9" d="M154.33,150.82a43.63,43.63,0,0,1,6.11,14c-7-1.45-7.89-2.49-7-8.31C153.71,154.64,154,152.73,154.33,150.82Z"/><path class="cls-9" d="M444.05,194.93a58.09,58.09,0,0,1,8.25-13.82c2.49,4.26,2.54,7.81-2.62,10.21A46.7,46.7,0,0,0,444.05,194.93Z"/><path class="cls-9" d="M183.09,19.25l-6.89,3.68c-2.75,1.83-5.13,4.8-9.09,3l-1-1C169.74,16.92,176.5,18.33,183.09,19.25Z"/><path class="cls-12" d="M290.2,1132.94l-14,.16-13.89-.15c-.68-.35-.95-.75-.79-1.2s.36-.71.56-.71c6.93,0,13.86-.06,20.79,0C285.47,1131,288.24,1130.48,290.2,1132.94Z"/><path class="cls-12" d="M344.22,1133.11l-12-.19c3.29-3.34,7.48-1.68,11.26-1.86,5.58-.26,11.19,0,16.78,0,.62.51.79,1,.52,1.35s-.51.56-.75.56Z"/><path class="cls-9" d="M284.19,351l4.48,13.78C279.56,360.19,279.12,358.83,284.19,351Z"/><path class="cls-9" d="M222.18,361.05c-5.45-1.23-8.81-4.56-10-10C216.58,353.29,221.77,354.77,222.18,361.05Z"/><path class="cls-9" d="M472.42,135c1.09-4.45.93-9.44,5.38-12.43C479.58,130.5,479.58,130.5,472.42,135Z"/><path class="cls-9" d="M148.58,134.84a23,23,0,0,1,3.6,10.15C145.14,140.92,145,140.57,148.58,134.84Z"/><path class="cls-13" d="M2.19,931c-.81,6.65,1.93,13.65-2,20C1.1,944.37-1.84,937.35,2.19,931Z"/><path class="cls-9" d="M288.31,335l-3.75,10.12C281,339.34,281.16,339,288.31,335Z"/><path class="cls-9" d="M178.28,196.9c3.54,3.2,5.37,7.33,6.41,11.89C177.53,207.53,177.93,202.2,178.28,196.9Z"/><path class="cls-9" d="M282.24,311c6.66.8,13.66-1.95,20,2C295.61,312.12,288.58,315.05,282.24,311Z"/><path class="cls-9" d="M438.1,204.93c.27-4.4,3.5-7,6-10.1C444.2,199.44,445,204.48,438.1,204.93Z"/><path class="cls-13" d="M.23,963c3.81,5,1.17,10.69,1.93,16C-1.73,974,1.07,968.27.23,963Z"/><path class="cls-9" d="M184.18,1120.9l3.92.14c.69.35,1,.75.79,1.19s-.35.72-.56.72c-1.86.54-3.71,1.15-5.6,1.6-2.92.7-4.26-.75-4.53-3.52l1-.87C180.9,1120.08,182.67,1119.64,184.18,1120.9Z"/><path class="cls-12" d="M366.22,1130.94c5-3.89,10.73-1.12,16.07-1.92.62.51.79,1,.52,1.35s-.51.56-.75.56l-.91,0-.91,0a2.75,2.75,0,0,1-4,.09l-2,0A7.92,7.92,0,0,1,366.22,1130.94Z"/><path class="cls-9" d="M154.06,30.85c.4-6,4.43-4.64,8.11-4l.37,1.42a6.09,6.09,0,0,1-7.35,3.49Z"/><path class="cls-12" d="M240.33,1131c-.07-.64-.15-1.27-.23-1.91,4.7.63,9.81-1.76,14.12,1.88-1.94,1.5-3.93,1.34-5.95.17Z"/><path class="cls-9" d="M248.27,1131.09l5.95-.17,7.88.12c.08.64.16,1.27.23,1.91C257.65,1132.31,252.56,1134.7,248.27,1131.09Z"/><path class="cls-9" d="M366.22,1130.94l8,.11c-4.31,3.67-9.42,1.26-14.13,1.88.08-.64.16-1.27.23-1.91Z"/><path class="cls-12" d="M4.15,985.1c2-.15,2-.15,4.07,3.89-1.65.91-2,2.47-2.07,4.15-.73.76-1.36.69-1.9-.21a16,16,0,0,0-.09-2A5,5,0,0,1,4.15,985.1Z"/><path class="cls-9" d="M512,69.89a22.75,22.75,0,0,1-7.64-7A8.29,8.29,0,0,1,512,69.89Z"/><path class="cls-9" d="M240.45,7.07c-3.86,2-8,1.95-12.22,1.87C231.86,5.4,236.36,7.55,240.45,7.07Z"/><path class="cls-12" d="M386.22,1128.92c3.57-3.5,8-1.35,12.07-1.9q.93.76.51,1.35c-.25.37-.5.56-.74.56l-5.88.14A4.89,4.89,0,0,1,386.22,1128.92Z"/><path class="cls-9" d="M624.17,931.1c-3.06-2.9-1.59-6.67-1.92-10.09C625.56,923.86,623.75,927.7,624.17,931.1Z"/><path class="cls-9" d="M622.24,989c.38-3.39-1.13-7.16,2-10C623.74,982.33,625.56,986.16,622.24,989Z"/><path class="cls-9" d="M276.28,383c0-.66-.07-1.31-.1-2,3.38.46,7.19-1.35,10,1.94Z"/><path class="cls-9" d="M234.25,296.94a11.56,11.56,0,0,1,8,4C238.82,301.18,235.71,300.69,234.25,296.94Z"/><path class="cls-9" d="M135.86,77.75c.12,3.08.23,6.16.35,9.24-3.34-2.68-1.4-6.55-2.21-9.8l.36-.31C135.31,76.4,135.83,76.65,135.86,77.75Z"/><path class="cls-9" d="M516.17,657.12a11.74,11.74,0,0,1-3.91-8.11C515.93,650.57,516.43,653.66,516.17,657.12Z"/><path class="cls-9" d="M386.22,1128.92l6,.15c-2.89,3.25-6.7,1.47-10.12,1.86.08-.64.16-1.27.23-1.91Z"/><path class="cls-9" d="M414.21,349c-3.31-2.81-1.51-6.63-2-10C415.56,341.81,413.73,345.63,414.21,349Z"/><path class="cls-9" d="M264.25,380.94c0-.65-.05-1.29-.08-1.93,3.39.46,7.23-1.37,10.05,2Z"/><path class="cls-9" d="M270.23,309c2.78.23,5.89-.87,8,2C275.49,310.71,272.36,311.93,270.23,309Z"/><path class="cls-9" d="M620.2,909.05c-2.73-2.18-1.77-5.26-2-8C621.16,903.13,619.94,906.27,620.2,909.05Z"/><path class="cls-9" d="M622.2,919.05c-2.72-2.18-1.76-5.24-1.93-8C623.16,913.15,621.94,916.28,622.2,919.05Z"/><path class="cls-9" d="M292.67,329.21a11,11,0,0,1-4.4,5.87C288.27,332,289.49,329.89,292.67,329.21Z"/><path class="cls-13" d="M4.17,919c-.21,2.78.88,5.87-1.93,8C2.49,924.27,1.29,921.15,4.17,919Z"/><path class="cls-9" d="M414.22,357c0-1.33,0-2.66,0-4,2.94,2.16,1.72,5.31,1.95,8.11C414.66,360.14,414.32,358.62,414.22,357Z"/><path class="cls-9" d="M544.21,1083c1.42-2.18,3.84-2.85,6-3.89C550,1083.12,547.07,1083,544.21,1083Z"/><path class="cls-9" d="M144.16,37a6.32,6.32,0,0,1,6.05-4l.43,1.36c-.8,2.64-2.46,4-5.33,3.52Z"/><path class="cls-9" d="M485.91,45.56a9.4,9.4,0,0,1-5.59-4.62C483.28,41.15,485.45,42.33,485.91,45.56Z"/><path class="cls-9" d="M134.12,48.87a6.52,6.52,0,0,1,4.08-6L139,44c.42,3.34-.9,5.25-4.42,5.34Z"/><path class="cls-12" d="M198.12,1123c2.8.23,5.92-1,8.1,1.89a2.72,2.72,0,0,1-4,.15l-3.91-.13c-.7-.34-1-.74-.8-1.19S197.91,1123,198.12,1123Z"/><path class="cls-9" d="M422.17,1125c2.18-2.72,5.22-1.77,8-1.9C428,1125.92,424.93,1124.71,422.17,1125Z"/><path class="cls-9" d="M202.26,1125.07l4-.14,3.87.12c.7.34,1,.73.8,1.18s-.35.72-.56.72C207.55,1126.72,204.43,1127.93,202.26,1125.07Z"/><path class="cls-12" d="M210.33,1127l-.24-1.9c2.79.21,5.91-1,8.1,1.86l-4,.16Z"/><path class="cls-9" d="M410.14,1127c2.2-2.7,5.24-1.75,8-1.88C416,1127.93,412.91,1126.72,410.14,1127Z"/><path class="cls-9" d="M136.42,88.35C138.2,91,138.33,94,138.18,97,135.21,94.6,136.48,91.34,136.42,88.35Z"/><path class="cls-9" d="M398.06,1128.93c.08-.64.16-1.27.23-1.91l7.9,0C404,1129.94,400.86,1128.73,398.06,1128.93Z"/><path class="cls-9" d="M477.67,122.7a9.58,9.58,0,0,1,4.57-5.66C482.09,120,480.9,122.2,477.67,122.7Z"/><path class="cls-9" d="M422.53,221.86l3.5-1.29c-.63,3.05-2.81,4.22-5.6,4.64l-.31-.32C419.86,223,420.72,222.07,422.53,221.86Z"/><path class="cls-9" d="M432.18,427.1c-2.21-1.54-1.94-3.87-2-6.11C432.61,422.47,432.16,424.86,432.18,427.1Z"/><path class="cls-9" d="M430.21,421c-2.21-1.5-1.93-3.79-1.93-6C430.59,416.48,430.15,418.82,430.21,421Z"/><path class="cls-9" d="M428.19,413.08c-2.22-1.53-1.93-3.85-1.94-6.08C428.6,408.48,428.15,410.86,428.19,413.08Z"/><path class="cls-9" d="M200.19,405c0,2.2.31,4.53-2,6C198.29,408.82,197.85,406.46,200.19,405Z"/><path class="cls-9" d="M202.19,397c0,2.22.32,4.55-1.95,6C200.29,400.83,199.84,398.47,202.19,397Z"/><path class="cls-9" d="M424.16,397.14c-2.19-1.56-1.92-3.9-1.94-6.15C424.62,392.49,424.16,394.89,424.16,397.14Z"/><path class="cls-9" d="M204.2,389c0,2.22.31,4.55-2,6C202.29,392.83,201.84,390.47,204.2,389Z"/><path class="cls-9" d="M422.16,389.14c-2.19-1.56-1.92-3.89-1.91-6.13C422.62,384.51,422.16,386.9,422.16,389.14Z"/><path class="cls-9" d="M206.17,381c0,2.21.33,4.53-1.94,6C204.29,384.84,203.84,382.48,206.17,381Z"/><path class="cls-9" d="M262.21,379c-2.21,0-4.55.31-6-2C258.38,377.06,260.75,376.62,262.21,379Z"/><path class="cls-9" d="M420.19,381.08c-2.18-1.54-1.93-3.83-1.88-6.05C420.61,376.52,420.15,378.88,420.19,381.08Z"/><path class="cls-9" d="M208.18,371c0,2.23.33,4.56-1.92,6.07C206.29,374.86,205.83,372.5,208.18,371Z"/><path class="cls-9" d="M608.22,867c-2.24-1.46-2-3.78-2-6C608.58,862.42,608.15,864.78,608.22,867Z"/><path class="cls-9" d="M418.16,371.14c-2.18-1.56-1.91-3.87-1.85-6.11C418.63,366.55,418.15,368.92,418.16,371.14Z"/><path class="cls-9" d="M612.21,879c-2.24-1.48-2-3.8-2-6C612.58,874.45,612.15,876.81,612.21,879Z"/><path class="cls-9" d="M614.19,885.08c-2.22-1.52-2-3.85-2-6.08C614.6,880.45,614.15,882.84,614.19,885.08Z"/><path class="cls-9" d="M616.21,893c-2.21-1.48-1.93-3.78-1.92-6C616.59,888.48,616.15,890.82,616.21,893Z"/><path class="cls-9" d="M618.16,899.13c-2.2-1.55-1.92-3.89-1.95-6.14C618.61,894.48,618.16,896.88,618.16,899.13Z"/><path class="cls-13" d="M8.2,899c0,2.22.31,4.56-1.95,6.06C6.28,902.84,5.84,900.47,8.2,899Z"/><path class="cls-13" d="M6.16,909c0,2.22.34,4.54-1.92,6C4.29,912.84,3.84,910.49,6.16,909Z"/><path class="cls-13" d="M4.15,985.1c0,1.95,0,3.91,0,5.87-2.32-1.48-1.87-3.83-1.92-6C2.88,985,3.51,985,4.15,985.1Z"/><path class="cls-9" d="M620.24,997c0-2.22-.27-4.55,1.94-6.09C622.16,993.12,622.61,995.5,620.24,997Z"/><path class="cls-13" d="M4.25,992.93c.63.06,1.27.13,1.9.21.07,1.3.13,2.6.2,3.89.5.48.64.93.43,1.35s-.4.61-.58.61C3.84,997.52,4.28,995.15,4.25,992.93Z"/><path class="cls-9" d="M102.23,675c0,1.64-.39,3.13-2,4C97.66,676.09,101,676.07,102.23,675Z"/><path class="cls-9" d="M444.13,21.33c-2.36-.1-4.7-.23-6.46-2.14C440.09,19.11,442.7,18.44,444.13,21.33Z"/><path class="cls-9" d="M190.33,17.06c-1.69,1.74-3.81,2.08-6.1,1.88C185.73,16.6,188.1,17.05,190.33,17.06Z"/><path class="cls-9" d="M430.22,17c-2.39.19-4.65-.06-6.49-1.82C426.09,15.07,428.58,14.52,430.22,17Z"/><path class="cls-9" d="M197,15.23c-1.89,1.87-4.27,2-6.71,1.86C191.92,14.44,194.52,15.11,197,15.23Z"/><path class="cls-9" d="M494.22,1105c1.46-2.25,3.79-2,6-2C498.8,1105.36,496.42,1104.92,494.22,1105Z"/><path class="cls-12" d="M148.18,1111c2.21,0,4.58-.38,6,2a2.76,2.76,0,0,1-4,0,10.21,10.21,0,0,0-1.83-.1c-.74-.34-1-.74-.84-1.19S148,1111,148.18,1111Z"/><path class="cls-13" d="M150.23,1113l4,0a10.27,10.27,0,0,0,1.84.08c.72.35,1,.75.82,1.2s-.39.71-.61.71C154.06,1114.93,151.69,1115.37,150.23,1113Z"/><path class="cls-9" d="M464.21,1115c1.48-2.21,3.78-1.92,6-1.93C468.74,1115.36,466.39,1114.92,464.21,1115Z"/><path class="cls-12" d="M162.15,1115c2.21,0,4.57-.4,6.07,1.91a1.12,1.12,0,0,1-2,.18l-3.89-.18q-1.08-.53-.81-1.2C161.74,1115.26,161.94,1115,162.15,1115Z"/><path class="cls-9" d="M458.11,1117c1.54-2.2,3.87-1.94,6.11-2C462.75,1117.38,460.35,1116.93,458.11,1117Z"/><path class="cls-12" d="M170.14,1117c2.22,0,4.58-.4,6.08,1.91-.59.81-1.24.91-2,.18l-3.89-.18c-.72-.35-1-.74-.82-1.19S169.93,1117,170.14,1117Z"/><path class="cls-9" d="M450.16,1119c1.51-2.21,3.82-2,6-1.94C454.73,1119.37,452.36,1118.92,450.16,1119Z"/><path class="cls-9" d="M442.16,1121c1.51-2.2,3.81-1.93,6-1.91C446.71,1121.38,444.35,1120.92,442.16,1121Z"/><path class="cls-12" d="M188.33,1123c-.07-.64-.15-1.28-.22-1.91,2.22,0,4.58-.43,6.12,1.85-.58.84-1.23.95-2,.21Z"/><path class="cls-9" d="M434.1,1122.94c1.55-2.18,3.86-1.92,6.09-1.88C438.69,1123.39,436.32,1122.93,434.1,1122.94Z"/><path class="cls-9" d="M192.26,1123.1l2-.21,3.89.14c.08.64.15,1.27.23,1.91C196.14,1124.93,193.78,1125.4,192.26,1123.1Z"/><path class="cls-9" d="M466.22,531c-2.25-1.47-2-3.8-2-6C466.59,526.41,466.15,528.79,466.22,531Z"/><path class="cls-9" d="M456.23,503c-2.25-1.46-2-3.78-2-6C456.58,498.42,456.15,500.79,456.23,503Z"/><path class="cls-9" d="M454.21,497c-2.24-1.48-1.95-3.81-2-6C454.59,492.43,454.15,494.8,454.21,497Z"/><path class="cls-9" d="M452.21,491c-2.23-1.48-2-3.8-2-6C452.59,486.42,452.15,488.8,452.21,491Z"/><path class="cls-9" d="M450.21,485c-2.23-1.48-2-3.8-2-6C450.59,480.43,450.15,482.8,450.21,485Z"/><path class="cls-9" d="M448.21,479c-2.23-1.49-1.95-3.81-2-6C448.59,474.42,448.15,476.8,448.21,479Z"/><path class="cls-9" d="M446.21,473c-2.23-1.48-1.95-3.8-2-6C446.59,468.43,446.15,470.8,446.21,473Z"/><path class="cls-9" d="M444.21,467c-2.24-1.49-2-3.8-2-6C444.58,462.43,444.15,464.8,444.21,467Z"/><path class="cls-9" d="M184.21,459c0,2.21.3,4.54-2,6C182.29,462.81,181.86,460.44,184.21,459Z"/><path class="cls-9" d="M192.21,433c-.05,2.2.3,4.54-2,6C190.29,436.81,189.85,434.44,192.21,433Z"/><path class="cls-9" d="M436.18,18.79c-1.82.18-3.52,0-4.8-1.54C433.2,17.06,435,17,436.18,18.79Z"/><path class="cls-9" d="M448.2,22.9c-1.69.11-3.23-.14-4.27-1.69C445.65,21,447.2,21.27,448.2,22.9Z"/><path class="cls-9" d="M454.16,25.21c-1.84-.06-3.58-.38-4.8-1.95C451.29,23.08,453.14,23.13,454.16,25.21Z"/><path class="cls-9" d="M162.17,26.9c.87-1.51,2.34-1.86,3.91-2l.42.47c-.49,2.6-2,3-4.13,1.85Z"/><path class="cls-9" d="M458.2,27c-1.67,0-3.23-.3-4.18-1.91C455.75,25,457.3,25.34,458.2,27Z"/><path class="cls-9" d="M150.21,32.94c.82-1.55,2.29-1.9,3.86-2.09l.34.38c-.1,2.68-1.65,2.94-3.77,2.25Z"/><path class="cls-9" d="M510.13,79c.07-1.23.15-2.47.23-3.71l1.67-.78C512.17,76.3,512,78,510.13,79Z"/><path class="cls-9" d="M507.89,82.88a4.93,4.93,0,0,1,2.27-4C510.16,80.66,509.84,82.23,507.89,82.88Z"/><path class="cls-9" d="M144.48,122.14c1.54,1.28,1.76,3,1.56,4.82C144.28,125.76,144.29,124,144.48,122.14Z"/><path class="cls-9" d="M146.42,128.43A4.62,4.62,0,0,1,148,133C146.34,131.85,146.26,130.18,146.42,128.43Z"/><path class="cls-9" d="M470.28,141a4.75,4.75,0,0,1,1.74-4.56C472.17,138.22,472.06,139.92,470.28,141Z"/><path class="cls-9" d="M468.11,147c-.05-1.86.27-3.58,1.84-4.83C470.14,144.05,470.1,145.87,468.11,147Z"/><path class="cls-9" d="M152.49,146c1.63,1.26,1.9,3,1.9,4.93C152.32,149.85,152.31,148,152.49,146Z"/><path class="cls-9" d="M466.42,151a4.24,4.24,0,0,1,1.73-4.08C468.2,148.5,468,150,466.42,151Z"/><path class="cls-9" d="M464.09,157a5.23,5.23,0,0,1,1.9-4.61C466.16,154.2,466,156,464.09,157Z"/><path class="cls-9" d="M462.28,161a4.37,4.37,0,0,1,1.86-4.12C464.19,158.54,463.9,160.06,462.28,161Z"/><path class="cls-9" d="M160.37,164.77c1.61.92,2,2.46,2.07,4.15C160.53,168.15,160.27,166.55,160.37,164.77Z"/><path class="cls-9" d="M457.79,170.85a6.09,6.09,0,0,1,2.16-4.72C460.12,168.11,460.05,170,457.79,170.85Z"/><path class="cls-9" d="M162.36,168.78c1.62.95,1.89,2.52,1.92,4.19C162.56,172.07,162.26,170.52,162.36,168.78Z"/><path class="cls-9" d="M455.79,174.84c.14-1.7.49-3.28,2.14-4.21C458.15,172.51,457.92,174.16,455.79,174.84Z"/><path class="cls-9" d="M453.61,178.72c.24-1.67.72-3.2,2.32-4.09C456.13,176.55,455.89,178.22,453.61,178.72Z"/><path class="cls-9" d="M172.17,187.1a4.42,4.42,0,0,1,2.23,3.83C172.68,190.22,172.27,188.75,172.17,187.1Z"/><path class="cls-9" d="M174.32,190.82c1.64.8,2.17,2.29,2.45,3.93C174.61,194.28,174.3,192.65,174.32,190.82Z"/><path class="cls-9" d="M436.16,209a4.74,4.74,0,0,1,2-4.11C438.18,206.57,437.85,208.1,436.16,209Z"/><path class="cls-9" d="M433.67,212.75a5.39,5.39,0,0,1,2.51-3.82C436.14,210.72,435.8,212.32,433.67,212.75Z"/><path class="cls-9" d="M200.34,224.67l3.17.64,1.28.71c-.26.41-.52.82-.79,1.23C202.39,227,200.9,226.47,200.34,224.67Z"/><path class="cls-9" d="M248.22,303c1.66,0,3.15.39,4.06,2C250.61,305,249.1,304.63,248.22,303Z"/><path class="cls-9" d="M254.23,305c1.66,0,3.15.36,4.07,1.94C256.63,307,255.12,306.64,254.23,305Z"/><path class="cls-9" d="M262.24,307.05c1.66,0,3.14.35,4.05,1.91C264.64,309,263.13,308.66,262.24,307.05Z"/><path class="cls-9" d="M296.08,326.93a4.61,4.61,0,0,1-3.66,2.52C292.89,327.52,294.38,327.07,296.08,326.93Z"/><path class="cls-9" d="M234.22,369c-1.65,0-3.14-.41-4-2C231.87,367,233.36,367.38,234.22,369Z"/><path class="cls-9" d="M238.22,371c-1.65,0-3.14-.41-4-2C235.86,369,237.36,369.37,238.22,371Z"/><path class="cls-9" d="M242.21,373c-1.65,0-3.12-.38-4-2C239.85,371,241.34,371.36,242.21,373Z"/><path class="cls-9" d="M248.22,375l-4,0c0-.64-.06-1.29-.11-1.93C245.8,373,247.32,373.35,248.22,375Z"/><path class="cls-9" d="M254.21,377c-1.66,0-3.15-.37-4.07-1.94C251.81,375,253.32,375.34,254.21,377Z"/><path class="cls-9" d="M426.16,405.13a4.18,4.18,0,0,1-1.81-4.09C425.93,402,426.19,403.49,426.16,405.13Z"/><path class="cls-9" d="M198.16,413c0,1.66-.35,3.15-1.9,4.07C196.25,415.42,196.55,413.91,198.16,413Z"/><path class="cls-9" d="M196.13,421c0,1.64-.33,3.11-1.89,4C194.25,423.41,194.55,421.91,196.13,421Z"/><path class="cls-9" d="M194.17,427c0,1.66-.36,3.14-1.92,4.07C192.25,429.42,192.56,427.91,194.17,427Z"/><path class="cls-9" d="M434.15,433.16a4.39,4.39,0,0,1-1.88-4.15C433.91,429.94,434.19,431.47,434.15,433.16Z"/><path class="cls-9" d="M436.2,441.05a4,4,0,0,1-1.84-4C435.91,438,436.19,439.44,436.2,441.05Z"/><path class="cls-9" d="M190.15,441c0,1.65-.35,3.12-1.91,4C188.25,443.41,188.56,441.91,190.15,441Z"/><path class="cls-9" d="M438.17,447.11a4.21,4.21,0,0,1-1.85-4.08C437.91,444,438.19,445.46,438.17,447.11Z"/><path class="cls-9" d="M188.18,447c0,1.66-.37,3.14-1.93,4.06C186.25,449.41,186.56,447.9,188.18,447Z"/><path class="cls-9" d="M440.15,453.16a4.4,4.4,0,0,1-1.87-4.15C439.91,449.94,440.19,451.48,440.15,453.16Z"/><path class="cls-9" d="M186.2,453c0,1.66-.38,3.16-1.94,4.08C184.25,455.41,184.57,453.89,186.2,453Z"/><path class="cls-9" d="M442.15,459.16a4.47,4.47,0,0,1-1.91-4.16C441.89,455.92,442.19,457.46,442.15,459.16Z"/><path class="cls-9" d="M182.13,467c0,1.65-.35,3.1-1.91,4C180.25,469.39,180.56,467.9,182.13,467Z"/><path class="cls-9" d="M180.13,473c0,1.65-.35,3.1-1.91,4C178.25,475.39,178.56,473.9,180.13,473Z"/><path class="cls-9" d="M178.13,479c0,1.64-.34,3.09-1.9,4C176.25,481.39,176.56,479.9,178.13,479Z"/><path class="cls-9" d="M176.14,485c0,1.65-.36,3.1-1.92,4C174.25,487.39,174.56,485.9,176.14,485Z"/><path class="cls-9" d="M174.13,491c0,1.65-.35,3.1-1.91,4C172.25,493.39,172.56,491.9,174.13,491Z"/><path class="cls-9" d="M172.13,497c0,1.65-.35,3.1-1.91,4C170.25,499.39,170.56,497.9,172.13,497Z"/><path class="cls-9" d="M458.15,507.17a4.52,4.52,0,0,1-1.92-4.18C457.89,503.92,458.19,505.46,458.15,507.17Z"/><path class="cls-9" d="M168.2,507c0,1.66-.38,3.16-1.94,4.08C166.25,509.41,166.57,507.89,168.2,507Z"/><path class="cls-9" d="M460.17,513.12a4.39,4.39,0,0,1-1.93-4.12C459.88,509.9,460.19,511.43,460.17,513.12Z"/><path class="cls-9" d="M166.19,513c0,1.66-.38,3.15-1.94,4.06C164.25,515.4,164.57,513.89,166.19,513Z"/><path class="cls-9" d="M462.17,519.11a4.3,4.3,0,0,1-1.89-4.1C461.9,515.93,462.19,517.45,462.17,519.11Z"/><path class="cls-9" d="M164.18,519c0,1.65-.38,3.12-2,4C162.25,521.39,162.57,519.89,164.18,519Z"/><path class="cls-9" d="M464.2,525c-1.56-.9-1.92-2.36-1.9-4C463.88,521.91,464.19,523.4,464.2,525Z"/><path class="cls-9" d="M162.16,525c0,1.65-.38,3.11-1.94,4C160.25,527.38,160.57,525.89,162.16,525Z"/><path class="cls-9" d="M468.14,535.17a4.55,4.55,0,0,1-1.92-4.18C467.89,531.91,468.19,533.46,468.14,535.17Z"/><path class="cls-9" d="M158.2,535c0,1.66-.38,3.15-1.95,4.06C156.25,537.4,156.58,535.88,158.2,535Z"/><path class="cls-9" d="M470.17,541.11c-1.54-1-1.91-2.44-1.91-4.1C469.89,537.91,470.19,539.44,470.17,541.11Z"/><path class="cls-9" d="M156.18,541c0,1.65-.38,3.13-1.94,4C154.25,543.39,154.57,541.89,156.18,541Z"/><path class="cls-9" d="M472.2,547c-1.54-.9-1.92-2.35-1.9-4C471.88,543.91,472.19,545.39,472.2,547Z"/><path class="cls-9" d="M154.15,547c0,1.64-.36,3.1-1.93,4C152.25,549.37,152.57,547.89,154.15,547Z"/><path class="cls-9" d="M474.14,551.17a4.56,4.56,0,0,1-1.95-4.17C473.88,547.9,474.19,549.45,474.14,551.17Z"/><path class="cls-9" d="M152.22,551c0,1.66-.39,3.16-2,4.08C150.25,553.39,150.58,551.88,152.22,551Z"/><path class="cls-9" d="M476.17,557.12a4.39,4.39,0,0,1-1.93-4.12C475.88,553.91,476.19,555.43,476.17,557.12Z"/><path class="cls-9" d="M150.18,557c0,1.65-.38,3.13-2,4C148.25,559.39,148.57,557.89,150.18,557Z"/><path class="cls-9" d="M478.2,563c-1.54-.9-1.92-2.35-1.9-4C477.88,559.91,478.19,561.4,478.2,563Z"/><path class="cls-9" d="M480.14,567.17a4.56,4.56,0,0,1-1.95-4.17C479.88,563.9,480.19,565.45,480.14,567.17Z"/><path class="cls-9" d="M146.21,567c0,1.66-.39,3.15-2,4.06C144.25,569.39,144.58,567.88,146.21,567Z"/><path class="cls-9" d="M482.18,573.09c-1.55-.93-1.92-2.42-1.92-4.08C481.88,569.91,482.19,571.43,482.18,573.09Z"/><path class="cls-9" d="M144.17,573c0,1.65-.37,3.12-1.94,4C142.25,575.38,142.57,573.88,144.17,573Z"/><path class="cls-9" d="M484.22,579a4,4,0,0,1-1.89-4C483.89,575.91,484.19,577.39,484.22,579Z"/><path class="cls-9" d="M486.17,583.13a4.45,4.45,0,0,1-1.95-4.14C485.87,579.9,486.19,581.43,486.17,583.13Z"/><path class="cls-9" d="M140.19,583c0,1.65-.38,3.13-2,4C138.25,585.38,138.58,583.88,140.19,583Z"/><path class="cls-9" d="M488.2,589c-1.55-.9-1.93-2.36-1.92-4C487.87,585.9,488.19,587.39,488.2,589Z"/><path class="cls-9" d="M490.16,593.14a4.5,4.5,0,0,1-2-4.14C489.87,589.89,490.19,591.44,490.16,593.14Z"/><path class="cls-9" d="M136.2,593c0,1.65-.38,3.14-2,4C134.25,595.38,134.58,593.88,136.2,593Z"/><path class="cls-9" d="M492.2,599c-1.56-.9-1.93-2.37-1.92-4C491.87,595.9,492.19,597.39,492.2,599Z"/><path class="cls-9" d="M494.14,603.18a4.59,4.59,0,0,1-2-4.18C493.88,599.9,494.19,601.46,494.14,603.18Z"/><path class="cls-9" d="M132.2,603c0,1.65-.39,3.14-2,4C130.25,605.38,130.58,603.88,132.2,603Z"/><path class="cls-9" d="M496.2,609c-1.57-.9-1.93-2.38-1.94-4C495.86,605.88,496.19,607.38,496.2,609Z"/><path class="cls-9" d="M498.14,613.17a4.59,4.59,0,0,1-2-4.17C497.88,609.9,498.19,611.45,498.14,613.17Z"/><path class="cls-9" d="M128.21,613c0,1.65-.39,3.14-2,4C126.25,615.38,126.58,613.88,128.21,613Z"/><path class="cls-9" d="M500.2,619c-1.55-.9-1.93-2.37-1.93-4C499.87,615.89,500.18,617.38,500.2,619Z"/><path class="cls-9" d="M502.16,623.14a4.5,4.5,0,0,1-2-4.14C501.87,619.89,502.19,621.44,502.16,623.14Z"/><path class="cls-9" d="M124.2,623c0,1.65-.39,3.13-2,4C122.25,625.37,122.59,623.87,124.2,623Z"/><path class="cls-9" d="M504.21,629c-1.56-.88-1.94-2.34-1.93-4C503.87,625.89,504.19,627.38,504.21,629Z"/><path class="cls-9" d="M506.17,633.11c-1.54-1-1.93-2.44-2-4.11C505.87,629.89,506.19,631.42,506.17,633.11Z"/><path class="cls-9" d="M120.19,633c0,1.65-.39,3.13-2,4C118.25,635.37,118.58,633.88,120.19,633Z"/><path class="cls-9" d="M508.23,639a4,4,0,0,1-1.93-4C507.87,635.89,508.18,637.37,508.23,639Z"/><path class="cls-9" d="M510.18,643c-1.58-.9-1.93-2.39-1.94-4C509.85,639.88,510.19,641.38,510.18,643Z"/><path class="cls-9" d="M116.17,643c0,1.64-.38,3.11-2,4C114.26,645.36,114.58,643.88,116.17,643Z"/><path class="cls-9" d="M512.14,647.17a4.62,4.62,0,0,1-2-4.16C511.88,643.89,512.19,645.45,512.14,647.17Z"/><path class="cls-9" d="M114.21,647c0,1.66-.39,3.15-2,4C112.25,649.38,112.59,647.87,114.21,647Z"/><path class="cls-9" d="M110.19,657c0,1.65-.39,3.12-2,4C108.26,659.36,108.59,657.87,110.19,657Z"/><path class="cls-9" d="M518.23,663c-1.55-.86-1.94-2.3-1.92-3.93C517.87,659.89,518.18,661.37,518.23,663Z"/><path class="cls-9" d="M108.22,661c0,1.66-.4,3.15-2,4C106.25,663.38,106.59,661.87,108.22,661Z"/><path class="cls-9" d="M520.2,667c-1.56-.91-1.93-2.39-2-4C519.85,663.88,520.19,665.37,520.2,667Z"/><path class="cls-9" d="M522.17,671.11a4.48,4.48,0,0,1-2-4.11C521.86,667.88,522.19,669.41,522.17,671.11Z"/><path class="cls-9" d="M104.18,671c0,1.64-.38,3.12-2,4C102.26,673.36,102.58,671.87,104.18,671Z"/><path class="cls-9" d="M524.24,677c-1.56-.86-2-2.3-1.92-3.93C523.87,673.89,524.18,675.36,524.24,677Z"/><path class="cls-9" d="M526.2,681c-1.56-.91-1.93-2.39-2-4C525.85,677.88,526.19,679.37,526.2,681Z"/><path class="cls-9" d="M528.17,685.12a4.51,4.51,0,0,1-2-4.12C527.86,681.88,528.19,683.42,528.17,685.12Z"/><path class="cls-9" d="M98.19,685c0,1.65-.38,3.12-2,4C96.26,687.36,96.59,685.87,98.19,685Z"/><path class="cls-9" d="M96.22,689c0,1.66-.4,3.15-2,4C94.25,691.37,94.59,689.87,96.22,689Z"/><path class="cls-9" d="M532.22,695c-1.57-.88-2-2.35-2-4C531.86,691.88,532.18,693.37,532.22,695Z"/><path class="cls-9" d="M534.18,699c-1.58-.9-1.93-2.39-2-4C533.85,695.87,534.19,697.37,534.18,699Z"/><path class="cls-13" d="M92.18,699c0,1.65-.38,3.11-2,4C90.25,701.35,90.59,699.87,92.18,699Z"/><path class="cls-9" d="M536.16,703.14c-1.55-.95-1.95-2.45-2-4.13C535.87,699.88,536.19,701.43,536.16,703.14Z"/><path class="cls-13" d="M90.2,703c0,1.65-.38,3.13-2,4C88.25,705.35,88.6,703.86,90.2,703Z"/><path class="cls-13" d="M88.23,707c0,1.65-.4,3.15-2,4C86.25,709.38,86.59,707.87,88.23,707Z"/><path class="cls-9" d="M540.21,713c-1.57-.88-1.94-2.35-2-4C539.85,709.87,540.18,711.37,540.21,713Z"/><path class="cls-9" d="M542.18,717c-1.58-.9-1.93-2.4-2-4C541.85,713.87,542.19,715.37,542.18,717Z"/><path class="cls-13" d="M84.17,717c0,1.64-.37,3.1-2,4C82.25,719.35,82.59,717.87,84.17,717Z"/><path class="cls-9" d="M544.16,721.14a4.56,4.56,0,0,1-2-4.13C543.87,717.88,544.19,719.42,544.16,721.14Z"/><path class="cls-13" d="M82.2,721c0,1.65-.38,3.13-2,4C80.25,723.35,80.6,721.86,82.2,721Z"/><path class="cls-13" d="M80.23,725c0,1.66-.42,3.15-2,4C78.25,727.37,78.59,725.86,80.23,725Z"/><path class="cls-9" d="M550.21,735c-1.57-.89-2-2.36-2-4C549.85,731.86,550.18,733.36,550.21,735Z"/><path class="cls-9" d="M552.18,739.05c-1.58-.9-1.94-2.4-2-4C551.85,735.86,552.19,737.37,552.18,739.05Z"/><path class="cls-13" d="M74.17,739c0,1.64-.37,3.1-2,4C72.25,741.35,72.59,739.87,74.17,739Z"/><path class="cls-9" d="M554.17,743.12a4.55,4.55,0,0,1-2-4.11C553.86,739.87,554.19,741.41,554.17,743.12Z"/><path class="cls-13" d="M72.2,743c0,1.65-.4,3.12-2,4C70.25,745.35,70.6,743.86,72.2,743Z"/><path class="cls-13" d="M70.22,747c0,1.65-.4,3.14-2,4C68.25,749.35,68.6,747.85,70.22,747Z"/><path class="cls-9" d="M558.24,753c-1.57-.86-2-2.3-2-3.94C557.86,749.88,558.18,751.35,558.24,753Z"/><path class="cls-13" d="M68.23,751c0,1.66-.41,3.16-2,4.06C66.25,753.37,66.59,751.87,68.23,751Z"/><path class="cls-9" d="M560.23,757c-1.56-.88-2-2.34-2-4C559.84,753.86,560.18,755.34,560.23,757Z"/><path class="cls-9" d="M562.21,761c-1.57-.88-2-2.36-2-4C561.84,757.86,562.18,759.36,562.21,761Z"/><path class="cls-9" d="M564.19,765c-1.57-.91-1.94-2.39-2-4C563.85,761.86,564.19,763.37,564.19,765Z"/><path class="cls-9" d="M566.18,769.05c-1.57-.9-2-2.39-2-4C565.84,765.85,566.18,767.36,566.18,769.05Z"/><path class="cls-9" d="M568.18,773.1c-1.55-.93-2-2.42-2-4.09C567.86,769.86,568.19,771.4,568.18,773.1Z"/><path class="cls-13" d="M58.2,773c0,1.64-.4,3.11-2,4C56.26,775.34,56.6,773.86,58.2,773Z"/><path class="cls-13" d="M56.2,777c0,1.65-.4,3.13-2,4C54.25,779.35,54.6,777.86,56.2,777Z"/><path class="cls-13" d="M54.22,781c0,1.65-.4,3.14-2,4C52.25,783.35,52.6,781.85,54.22,781Z"/><path class="cls-13" d="M52.23,785c0,1.65-.41,3.14-2,4C50.25,787.35,50.6,785.85,52.23,785Z"/><path class="cls-9" d="M576.24,791c-1.56-.87-2-2.31-2-4C575.85,787.86,576.18,789.34,576.24,791Z"/><path class="cls-13" d="M50.23,789c0,1.66-.42,3.14-2,4C48.25,791.36,48.59,789.86,50.23,789Z"/><path class="cls-9" d="M578.24,795c-1.57-.87-2-2.33-2-4C577.83,791.85,578.18,793.33,578.24,795Z"/><path class="cls-9" d="M580.22,799c-1.56-.89-2-2.36-2-4C579.84,795.87,580.18,797.35,580.22,799Z"/><path class="cls-9" d="M582.21,803c-1.57-.88-2-2.35-2-4C581.84,799.86,582.18,801.35,582.21,803Z"/><path class="cls-9" d="M584.18,807.09c-1.55-.93-1.94-2.43-2-4.09C583.86,803.88,584.19,805.4,584.18,807.09Z"/><path class="cls-13" d="M40.19,811c0,1.65-.39,3.12-2,4C38.25,813.35,38.59,811.86,40.19,811Z"/><path class="cls-13" d="M38.22,815c0,1.66-.41,3.15-2,4C36.25,817.37,36.59,815.87,38.22,815Z"/><path class="cls-9" d="M590.22,821a4.09,4.09,0,0,1-1.94-4C589.86,817.88,590.18,819.37,590.22,821Z"/><path class="cls-9" d="M592.2,825c-1.57-.9-2-2.38-2-4C591.84,821.86,592.19,823.36,592.2,825Z"/><path class="cls-9" d="M594.16,829.14a4.53,4.53,0,0,1-2-4.14C593.87,825.89,594.19,827.43,594.16,829.14Z"/><path class="cls-13" d="M32.2,829c0,1.65-.39,3.14-2,4C30.25,831.38,30.58,829.88,32.2,829Z"/><path class="cls-9" d="M596.22,835a4.11,4.11,0,0,1-1.94-4C595.86,831.88,596.18,833.37,596.22,835Z"/><path class="cls-9" d="M598.17,839.12a4.43,4.43,0,0,1-1.95-4.13C597.87,835.89,598.19,837.42,598.17,839.12Z"/><path class="cls-13" d="M28.18,839c0,1.65-.38,3.13-1.95,4C26.25,841.38,26.58,839.88,28.18,839Z"/><path class="cls-9" d="M600.22,845a4.08,4.08,0,0,1-1.92-4C599.87,841.89,600.18,843.38,600.22,845Z"/><path class="cls-9" d="M602.16,849.14a4.45,4.45,0,0,1-1.94-4.15C601.88,845.9,602.19,847.44,602.16,849.14Z"/><path class="cls-13" d="M24.2,849c0,1.65-.38,3.15-2,4C22.25,851.39,22.58,849.88,24.2,849Z"/><path class="cls-9" d="M604.19,855.07a4.26,4.26,0,0,1-1.91-4.06C603.89,851.91,604.19,853.42,604.19,855.07Z"/><path class="cls-13" d="M22.17,855c0,1.65-.37,3.12-1.94,4C20.25,857.38,20.57,855.89,22.17,855Z"/><path class="cls-9" d="M606.21,861a4,4,0,0,1-1.88-4C605.89,857.92,606.19,859.4,606.21,861Z"/><path class="cls-13" d="M20.14,861c0,1.64-.35,3.1-1.91,4C18.25,863.39,18.56,861.9,20.14,861Z"/><path class="cls-9" d="M610.15,871.16a4.51,4.51,0,0,1-1.92-4.17C609.88,867.91,610.19,869.46,610.15,871.16Z"/><path class="cls-13" d="M16.14,873c0,1.64-.35,3.1-1.91,4C14.25,875.39,14.56,873.9,16.14,873Z"/><path class="cls-13" d="M14.15,879c0,1.66-.34,3.13-1.91,4C12.25,881.4,12.56,879.91,14.15,879Z"/><path class="cls-13" d="M12.18,885c0,1.66-.36,3.14-1.92,4.06C10.25,887.41,10.56,885.9,12.18,885Z"/><path class="cls-13" d="M10.14,893c0,1.65-.34,3.12-1.89,4C8.25,895.41,8.55,893.91,10.14,893Z"/><path class="cls-12" d="M6.2,999c0-.65.08-1.31.14-2,1.56.9,1.85,2.39,1.86,4-.74.88-1.38.81-1.9-.22A9.27,9.27,0,0,0,6.2,999Z"/><path class="cls-9" d="M618.28,1003a4.38,4.38,0,0,1,1.87-4.14C620.19,1000.51,619.91,1002,618.28,1003Z"/><path class="cls-13" d="M6.3,1000.81c.63.09,1.27.16,1.9.22.05.67.09,1.33.14,2,.5.47.65.92.44,1.35s-.4.61-.58.61C6.54,1004.06,6.24,1002.52,6.3,1000.81Z"/><path class="cls-12" d="M8.2,1005c0-.65.08-1.31.13-2,1.55.86,1.87,2.34,1.95,3.92l-1.07.77-.93-.92A9.15,9.15,0,0,0,8.2,1005Z"/><path class="cls-9" d="M616.22,1009a4.44,4.44,0,0,1,1.94-4.14C618.19,1006.55,617.88,1008.08,616.22,1009Z"/><path class="cls-12" d="M10.28,1007c1.58,1,1.91,2.49,1.88,4.17-.73.77-1.37.74-1.91-.21a12.82,12.82,0,0,0-.16-1.95,1.18,1.18,0,0,1-.38-1.33c.17-.42.34-.62.5-.62Z"/><path class="cls-9" d="M614.27,1013c0-1.64.4-3.09,2-4C616.18,1010.62,615.86,1012.11,614.27,1013Z"/><path class="cls-13" d="M10.25,1010.91c.64.06,1.28.14,1.91.21a13.14,13.14,0,0,0,.16,1.89c.25.37.5.73.76,1.09l-.93,1C10.58,1014.11,10.24,1012.59,10.25,1010.91Z"/><path class="cls-13" d="M14.17,1015.17a10.29,10.29,0,0,0,.13,1.84l.77,1.09-.91,1c-1.54-.9-1.9-2.39-2-4l.07-.08A1.19,1.19,0,0,1,14.17,1015.17Z"/><path class="cls-13" d="M16.17,1019.16a9.55,9.55,0,0,0,.14,1.85c.25.36.5.72.76,1.07l-.89,1c-1.56-.89-1.92-2.37-2-4l.07-.08A1.19,1.19,0,0,1,16.17,1019.16Z"/><path class="cls-9" d="M606.15,1029c.08-1.64.49-3.11,2.07-4C608.18,1026.66,607.82,1028.16,606.15,1029Z"/><path class="cls-13" d="M22.15,1029.21a8.5,8.5,0,0,0,.19,1.81l.73,1.06-.87.94c-1.58-.86-2-2.34-2.06-4,.36-.26.72-.52,1.07-.79C21.53,1028.57,21.84,1028.89,22.15,1029.21Z"/><path class="cls-9" d="M602.14,1035c.09-1.64.51-3.1,2.1-3.94C604.17,1032.68,603.81,1034.17,602.14,1035Z"/><path class="cls-9" d="M596.12,1043c.1-1.63.53-3.07,2.14-3.87C598.16,1040.72,597.8,1042.2,596.12,1043Z"/><path class="cls-9" d="M576.35,1061c.77-1.61,2.21-2,3.83-2.15C579.44,1060.56,578,1060.93,576.35,1061Z"/><path class="cls-12" d="M58.27,1067c1.64.07,3.11.43,3.87,2.12a1.09,1.09,0,0,1-1.89.05,8,8,0,0,0-1.82-.21c-.67-.39-.91-.8-.74-1.26S58.06,1067,58.27,1067Z"/><path class="cls-13" d="M66.19,1072.84a9.45,9.45,0,0,0,1.85.21l.92,1-.79,1.06c-1.63-.09-3.11-.46-4-2l.92-.87Z"/><path class="cls-12" d="M70.24,1075c1.65,0,3.13.41,3.94,2.07a1.1,1.1,0,0,1-1.94,0,10.13,10.13,0,0,0-1.83-.17c-.59-.38-.82-.8-.67-1.25S70.06,1075,70.24,1075Z"/><path class="cls-13" d="M76.19,1078.88a9.58,9.58,0,0,0,1.85.17l.92.94-.78,1.06c-1.64-.08-3.12-.45-4-2l.95-.88Z"/><path class="cls-13" d="M80.21,1080.94a8.08,8.08,0,0,0,1.77.13l1,.92-.79,1.08c-1.62-.09-3.09-.48-4-2l0-.07A1.22,1.22,0,0,1,80.21,1080.94Z"/><path class="cls-12" d="M84.24,1083c1.64,0,3.13.4,4,2l-1,.9-1.08-.75a8.56,8.56,0,0,0-1.82-.16c-.6-.38-.82-.8-.68-1.25S84.06,1083,84.24,1083Z"/><path class="cls-9" d="M540.21,1085c.88-1.58,2.36-2,4-2C543.36,1084.61,541.87,1085,540.21,1085Z"/><path class="cls-12" d="M88.28,1084.94c1.62.09,3.1.45,4,2l-1,.91-1.08-.75a10.52,10.52,0,0,0-1.86-.14c-.52-.39-.72-.8-.6-1.25s.26-.69.42-.69Z"/><path class="cls-9" d="M536.26,1087c.86-1.57,2.32-2,4-2C539.38,1086.6,537.89,1087,536.26,1087Z"/><path class="cls-12" d="M92.28,1086.93c1.62.1,3.1.46,4,2l-1,.91c-.37-.24-.73-.5-1.09-.75a10.59,10.59,0,0,0-1.86-.14c-.52-.39-.72-.8-.6-1.25s.26-.69.42-.69Z"/><path class="cls-9" d="M532.25,1089c.87-1.57,2.33-2,4-2C535.36,1088.61,533.88,1089,532.25,1089Z"/><path class="cls-12" d="M96.28,1088.93c1.62.1,3.1.46,4,2l-1,.92-1.09-.78a10.28,10.28,0,0,0-1.84-.12c-.53-.38-.73-.8-.61-1.24s.26-.69.42-.69Z"/><path class="cls-9" d="M528.21,1091c.89-1.58,2.36-2,4-2C531.34,1090.62,529.85,1091,528.21,1091Z"/><path class="cls-12" d="M100.29,1090.92c1.61.11,3.1.47,4,2l-1,.91-1.08-.76a11.2,11.2,0,0,0-1.83-.15c-.54-.38-.75-.79-.63-1.24s.28-.7.44-.7Z"/><path class="cls-9" d="M524.18,1093c.91-1.56,2.39-2,4-2C527.35,1092.62,525.85,1093,524.18,1093Z"/><path class="cls-12" d="M104.28,1092.93c1.62.1,3.1.46,4,2l-1,.9-1.08-.75a10.45,10.45,0,0,0-1.86-.15c-.52-.38-.72-.79-.6-1.24s.26-.69.42-.69Z"/><path class="cls-9" d="M520.12,1095a4.42,4.42,0,0,1,4.09-2C523.34,1094.63,521.81,1095,520.12,1095Z"/><path class="cls-12" d="M108.27,1094.94c1.62.09,3.11.45,4,2l-1,.91-1.08-.73a12.07,12.07,0,0,0-1.89-.17,1.15,1.15,0,0,1-.58-1.24c.12-.46.26-.69.41-.69Z"/><path class="cls-12" d="M112.28,1096.94c1.62.09,3.1.45,4,2l-1,.91c-.37-.24-.73-.5-1.09-.75a10.59,10.59,0,0,0-1.86-.14c-.52-.39-.72-.8-.6-1.25s.26-.68.42-.68Z"/><path class="cls-9" d="M510.19,1099c.9-1.55,2.37-1.93,4-1.93C513.32,1098.64,511.83,1099,510.19,1099Z"/><path class="cls-12" d="M116.28,1098.93c1.61.1,3.09.44,3.94,2a1.14,1.14,0,0,1-2,.1,10.45,10.45,0,0,0-1.85-.11c-.53-.38-.73-.79-.61-1.24s.26-.69.42-.69Z"/><path class="cls-9" d="M506.07,1100.93a4.5,4.5,0,0,1,4.14-2C509.32,1100.64,507.78,1101,506.07,1100.93Z"/><path class="cls-13" d="M118.24,1101.05l2-.1a7.66,7.66,0,0,0,1.79.11l.94.93c-.25.35-.51.71-.78,1.07C120.57,1103,119.09,1102.63,118.24,1101.05Z"/><path class="cls-9" d="M500.18,1103c.9-1.56,2.37-1.92,4-1.91C503.31,1102.65,501.82,1103,500.18,1103Z"/><path class="cls-13" d="M124.2,1102.89a13.54,13.54,0,0,0,1.91.15q1,.53.78,1.2c-.17.47-.36.71-.57.71-1.68,0-3.19-.33-4.15-1.89l0-.07A1.24,1.24,0,0,1,124.2,1102.89Z"/><path class="cls-12" d="M126.32,1105l-.21-1.91c1.68,0,3.2.3,4.11,1.93a1.15,1.15,0,0,1-2,.13A15.53,15.53,0,0,0,126.32,1105Z"/><path class="cls-13" d="M128.25,1105.1c.66,0,1.31-.1,2-.13a8.36,8.36,0,0,0,1.8.08l.93.94-.77,1.06C130.59,1107,129.12,1106.65,128.25,1105.1Z"/><path class="cls-9" d="M490.05,1106.92a4.54,4.54,0,0,1,4.17-1.93C493.3,1106.66,491.76,1107,490.05,1106.92Z"/><path class="cls-13" d="M134.19,1106.86a13.23,13.23,0,0,0,2,.15c.63.35.88.75.73,1.2s-.32.7-.51.7c-1.7,0-3.24-.27-4.22-1.86l0-.07A1.25,1.25,0,0,1,134.19,1106.86Z"/><path class="cls-12" d="M136.4,1108.91c-.09-.63-.16-1.27-.22-1.9,1.63,0,3.13.31,4,1.86-.61.86-1.28,1-2,.14A14,14,0,0,0,136.4,1108.91Z"/><path class="cls-9" d="M484.09,1108.94c1-1.54,2.45-1.91,4.12-1.91C487.3,1108.66,485.77,1109,484.09,1108.94Z"/><path class="cls-13" d="M138.23,1109l2-.14a9.06,9.06,0,0,0,2,.14c.63.35.88.75.73,1.2s-.32.7-.51.7C140.7,1111,139.16,1110.66,138.23,1109Z"/><path class="cls-12" d="M142.4,1110.91c-.09-.63-.16-1.27-.22-1.9,1.63,0,3.12.31,4,1.85-.61.91-1.28.92-2,.15A12.48,12.48,0,0,0,142.4,1110.91Z"/><path class="cls-9" d="M478.14,1111a4.22,4.22,0,0,1,4.05-1.9C481.3,1110.66,479.79,1111,478.14,1111Z"/><path class="cls-13" d="M144.23,1111l2-.14a9.85,9.85,0,0,0,2,.14c.06.63.13,1.27.22,1.9C146.69,1113,145.15,1112.67,144.23,1111Z"/><path class="cls-9" d="M472.09,1112.94a4.25,4.25,0,0,1,4.1-1.87C475.27,1112.68,473.75,1113,472.09,1112.94Z"/><path class="cls-12" d="M156.27,1115c-.06-.64-.13-1.27-.21-1.91,1.68,0,3.22.24,4.16,1.85-.59.82-1.25.92-2,.17A14.6,14.6,0,0,0,156.27,1115Z"/><path class="cls-13" d="M158.25,1115.08l2-.17a11.36,11.36,0,0,0,1.93.11c.07.64.14,1.27.22,1.91C160.7,1117,159.18,1116.69,158.25,1115.08Z"/><path class="cls-13" d="M170.14,1117c.07.64.14,1.28.23,1.91-1.66,0-3.18-.23-4.11-1.82.65-.07,1.3-.13,2-.18A11.23,11.23,0,0,0,170.14,1117Z"/><path class="cls-13" d="M174.26,1119.11c.65-.07,1.3-.13,2-.18a10.4,10.4,0,0,0,1.93.09c.67.37.92.77.74,1.2s-.38.68-.59.68l-.1.13C176.61,1121,175.13,1120.65,174.26,1119.11Z"/><path class="cls-9" d="M376.23,1131l4-.09C379,1133,377.62,1133.09,376.23,1131Z"/><path class="cls-13" d="M116.2,1099c0,.65.11,1.29.19,1.93l-2.15-1.85C114.89,1099.05,115.55,1099,116.2,1099Z"/><path class="cls-13" d="M112.2,1097c0,.64.1,1.28.18,1.93l-2.13-1.84Q111.23,1097,112.2,1097Z"/><path class="cls-9" d="M516,1096.94l2.16-1.83Z"/><path class="cls-13" d="M108.19,1095c0,.65.09,1.29.16,1.93l-2.11-1.86C106.89,1095.05,107.54,1095,108.19,1095Z"/><path class="cls-13" d="M104.2,1093c0,.65.1,1.29.18,1.93l-2.14-1.86C102.89,1093.05,103.55,1093,104.2,1093Z"/><path class="cls-13" d="M100.22,1091c0,.65.11,1.3.19,1.94l-2.18-1.87C98.89,1091,99.56,1091,100.22,1091Z"/><path class="cls-13" d="M96.2,1089c0,.64.11,1.29.19,1.93l-2.15-1.85C94.89,1089.05,95.55,1089,96.2,1089Z"/><path class="cls-13" d="M92.2,1087c0,.65.1,1.29.17,1.94l-2.13-1.86C90.89,1087.05,91.55,1087,92.2,1087Z"/><path class="cls-13" d="M88.2,1085c0,.65.1,1.29.18,1.94l-2.14-1.87C86.89,1085.05,87.55,1085,88.2,1085Z"/><path class="cls-13" d="M84.24,1083q0,1,.18,2l-2.26-1.86,0-.07a1.33,1.33,0,0,1,2,0Z"/><path class="cls-9" d="M552,1078.94l2.2-1.94Z"/><path class="cls-13" d="M72.24,1077.1c.65,0,1.3-.06,1.94,0v0a1.21,1.21,0,0,1,.5,1.26c-.12.44-.25.67-.39.67l-.1.08Z"/><path class="cls-13" d="M70.24,1075c0,.66.09,1.31.17,2l-2.24-1.87,0-.07a1.34,1.34,0,0,1,2,0Z"/><path class="cls-13" d="M64.2,1073l-2.05-2c.34-.27.68-.54,1-.82l1.06.76h0a1.28,1.28,0,0,1,.46,1.24c-.11.43-.23.65-.36.65Z"/><path class="cls-13" d="M60.25,1069.14c.63,0,1.26-.06,1.89-.05v0a1.16,1.16,0,0,1,.53,1.27c-.14.45-.28.68-.44.68l-.07,0Z"/><path class="cls-13" d="M58.27,1067c0,.66.07,1.31.15,2-.74-.64-1.5-1.27-2.25-1.9l1-.81,1.06.73Z"/><path class="cls-9" d="M570.13,1066.94l2.08-2Z"/><path class="cls-13" d="M56.17,1067l-2-2,1-.84,1,.82,0,0a1.22,1.22,0,0,1,.5,1.28c-.13.44-.27.66-.41.66Z"/><path class="cls-9" d="M572.18,1065l2.05-2Z"/><path class="cls-13" d="M52.2,1063.15c.6,0,1.21-.07,1.81-.09.56.38.77.8.64,1.25s-.28.7-.45.7l-.06,0Z"/><path class="cls-9" d="M574.25,1063l2-1.88Z"/><path class="cls-12" d="M50.31,1061l1.93,1.86c-.6,0-1.2.08-1.79.1q-1-.59-.75-1.26C49.89,1061.19,50.09,1061,50.31,1061Z"/><path class="cls-13" d="M50.31,1061a16,16,0,0,0,.13,2c-.74-.64-1.5-1.27-2.25-1.91l1-.8,1,.7Z"/><path class="cls-13" d="M48.19,1061l-2-2,1-.81,1,.76h0a1.24,1.24,0,0,1,.45,1.25c-.11.44-.24.66-.37.66Z"/><path class="cls-9" d="M580.13,1059l2.06-2Z"/><path class="cls-13" d="M46.17,1059l-2-2,1-.82,1,.81,0,0a1.22,1.22,0,0,1,.5,1.28c-.13.45-.27.67-.41.67Z"/><path class="cls-9" d="M582.16,1057l2-2Z"/><path class="cls-13" d="M44.15,1057.05l-2-2,1-.82,1,.83,0,0a1.21,1.21,0,0,1,.51,1.3c-.14.45-.29.67-.44.67Z"/><path class="cls-9" d="M584.16,1055l2-2Z"/><path class="cls-13" d="M42.15,1055.05l-2-2,1-.83,1,.84,0,0a1.19,1.19,0,0,1,.52,1.29c-.14.45-.29.68-.44.68Z"/><path class="cls-9" d="M586.16,1053l2-2Z"/><path class="cls-13" d="M40.13,1053.06l-2-2,1-.85,1,.88-.05,0a1.18,1.18,0,0,1,.54,1.29c-.15.45-.3.67-.46.67Z"/><path class="cls-9" d="M588.16,1051l2-2Z"/><path class="cls-13" d="M38.12,1051.07l-2-2,1-.83,1,.87,0,0a1.19,1.19,0,0,1,.55,1.3c-.15.45-.31.67-.47.67Z"/><path class="cls-9" d="M590.16,1049l2-2Z"/><path class="cls-13" d="M36.13,1049.06l-2-2,1-.82,1,.84,0,0a1.22,1.22,0,0,1,.52,1.31c-.15.45-.3.67-.46.67Z"/><path class="cls-9" d="M592.16,1047l2-2Z"/><path class="cls-13" d="M34.15,1047.05l-2-2,1-.82,1,.83,0,0a1.21,1.21,0,0,1,.51,1.3c-.14.45-.29.68-.44.68Z"/><path class="cls-9" d="M594.15,1045l2-2.06Z"/><path class="cls-13" d="M32.15,1045.05l-2-2,1-.8,1,.82,0,0a1.21,1.21,0,0,1,.49,1.31c-.14.45-.29.67-.44.67Z"/><path class="cls-13" d="M30.17,1043l-2-2,1-.79,1,.76a1.25,1.25,0,0,1,.45,1.31c-.14.44-.28.67-.42.67Z"/><path class="cls-13" d="M28.19,1041l-1.86-2.24a1.5,1.5,0,0,1,1.9.14l.06.06a1.3,1.3,0,0,1,.39,1.29c-.13.43-.25.65-.39.65Z"/><path class="cls-9" d="M598.31,1039l1.91-2Z"/><path class="cls-12" d="M28.23,1038.92a15.34,15.34,0,0,1-1.91-.14c0-.61,0-1.21.08-1.81Z"/><path class="cls-9" d="M600.22,1037c.65-.69,1.31-1.38,2-2.06C601.53,1035.61,600.87,1036.3,600.22,1037Z"/><path class="cls-13" d="M26.16,1035.18c0,.61-.05,1.22-.08,1.83l-1.94-2,1.07-.79Z"/><path class="cls-13" d="M24.14,1035.05c-.65-.67-1.29-1.35-1.94-2l.1-.1a1.27,1.27,0,0,1,1.91.1l0,0a1.24,1.24,0,0,1,.47,1.33c-.15.45-.3.67-.45.67Z"/><path class="cls-9" d="M604.26,1031l1.93-2.07Z"/><path class="cls-13" d="M20.14,1029.05c-.62-.73-1.24-1.47-1.85-2.21a1.36,1.36,0,0,1,1.92.17h0a1.24,1.24,0,0,1,.46,1.33c-.15.45-.3.67-.45.67Z"/><path class="cls-12" d="M20.21,1027c-.64,0-1.28-.09-1.92-.16,0-.63,0-1.25.08-1.88Z"/><path class="cls-9" d="M608.23,1025l1.93-2.21Z"/><path class="cls-13" d="M18.18,1023.14c0,.63-.06,1.25-.12,1.87l-1.88-2,.06-.08A1.21,1.21,0,0,1,18.18,1023.14Z"/><path class="cls-9" d="M610.29,1021l1.89-2.14Z"/><path class="cls-9" d="M612.31,1017l1.86-2.15Z"/><path class="cls-13" d="M10.21,1007q0,1-.12,2c-.61-.71-1.21-1.43-1.81-2.15C8.92,1006.89,9.56,1007,10.21,1007Z"/><path class="cls-13" d="M18.15,867l-1.9,2.08Z"/><path class="cls-13" d="M26.14,845l-1.89,2.08Z"/><path class="cls-13" d="M30.15,835l-1.9,2.07Z"/><path class="cls-13" d="M34.17,825l-1.91,2.1Z"/><path class="cls-13" d="M36.13,821l-1.89,2Z"/><path class="cls-9" d="M588.17,815.16,586.32,813Z"/><path class="cls-9" d="M586.19,811.12c-.61-.69-1.21-1.39-1.81-2.08C585,809.73,585.58,810.43,586.19,811.12Z"/><path class="cls-13" d="M42.17,807l-1.92,2.09Z"/><path class="cls-13" d="M44.15,803l-1.9,2.07Z"/><path class="cls-13" d="M46.13,799l-1.89,2Z"/><path class="cls-13" d="M48.13,795l-1.89,2Z"/><path class="cls-9" d="M574.16,785.19,572.31,783Z"/><path class="cls-9" d="M572.18,781.15,570.31,779Z"/><path class="cls-9" d="M570.17,777.16,568.33,775Z"/><path class="cls-13" d="M60.18,769l-1.92,2.11Z"/><path class="cls-13" d="M62.17,765l-1.92,2.08Z"/><path class="cls-13" d="M64.15,761l-1.9,2.07Z"/><path class="cls-13" d="M66.13,757l-1.9,2Z"/><path class="cls-9" d="M556.18,747.15,554.32,745Z"/><path class="cls-13" d="M76.16,735l-1.91,2.07Z"/><path class="cls-13" d="M78.14,731l-1.9,2Z"/><path class="cls-9" d="M548.15,729.21l-1.88-2.2Z"/><path class="cls-9" d="M546.17,725.18,544.31,723Z"/><path class="cls-13" d="M86.15,713l-1.9,2.07Z"/><path class="cls-9" d="M538.16,707.21c-.63-.73-1.25-1.47-1.87-2.2C536.91,705.75,537.53,706.48,538.16,707.21Z"/><path class="cls-13" d="M94.14,695l-1.9,2.06C92.88,696.39,93.51,695.7,94.14,695Z"/><path class="cls-9" d="M530.17,689.18,528.32,687Z"/><path class="cls-9" d="M100.14,681l-1.89,2.07Z"/><path class="cls-9" d="M106.15,667l-1.9,2.08Z"/><path class="cls-9" d="M112.14,653l-1.89,2.07Z"/><path class="cls-9" d="M118.12,639l-1.88,2.05Z"/><path class="cls-9" d="M122.14,629l-1.89,2.07Z"/><path class="cls-9" d="M126.15,619l-1.9,2.09C124.89,620.41,125.52,619.71,126.15,619Z"/><path class="cls-9" d="M130.15,609l-1.9,2.09Z"/><path class="cls-9" d="M134.15,599c-.63.7-1.26,1.4-1.9,2.09C132.89,600.41,133.52,599.71,134.15,599Z"/><path class="cls-9" d="M138.14,589l-1.89,2.08Z"/><path class="cls-9" d="M142.13,579l-1.88,2.07Z"/><path class="cls-9" d="M148.15,563l-1.9,2.09Z"/><path class="cls-9" d="M160.14,531l-1.89,2.07Z"/><path class="cls-9" d="M170.12,503c-.62.69-1.25,1.38-1.88,2.06C168.87,504.4,169.5,503.71,170.12,503Z"/><path class="cls-9" d="M230.22,367l-2.12-2Z"/><path class="cls-9" d="M226.21,365l-2-1.95Z"/><path class="cls-9" d="M224.21,363l-2-2Z"/><path class="cls-9" d="M212.19,351.05l-2-2Z"/><path class="cls-9" d="M210.19,349.05c-.64,0-1.29,0-1.93.07C208.85,347.68,209.49,347.6,210.19,349.05Z"/><path class="cls-9" d="M298.49,325.12a2.44,2.44,0,0,1-2.31,1.75Z"/><path class="cls-9" d="M244.23,301l2.08,1.92Z"/><path class="cls-9" d="M232.22,295c.68.66,1.36,1.32,2.05,2C233.58,296.31,232.9,295.65,232.22,295Z"/><path class="cls-9" d="M230.24,293.07l2,1.92Z"/><path class="cls-9" d="M226.22,291l2.08,2Z"/><path class="cls-9" d="M224.22,289l2,2Z"/><path class="cls-9" d="M222.21,287l2,2Z"/><path class="cls-9" d="M220.21,285.07l2,1.93Z"/><path class="cls-9" d="M218.21,283.06l1.93,1.94Z"/><path class="cls-9" d="M216.21,281c.65.65,1.3,1.31,1.94,2C217.51,282.34,216.86,281.68,216.21,281Z"/><path class="cls-9" d="M214.22,279c.65.67,1.31,1.33,2,2C215.53,280.33,214.87,279.67,214.22,279Z"/><path class="cls-9" d="M212.23,276.94l2,2.06Z"/><path class="cls-9" d="M208.22,271l1.92,2Z"/><path class="cls-9" d="M208.2,229.3c0,.55-.11,1.1-.19,1.64L206.12,229l1.12-.5Z"/><path class="cls-9" d="M206.12,229,204,227.25l.17-.19c1.73-1,2.15.15,2.4,1.52Z"/><path class="cls-9" d="M198.19,223.07a2.42,2.42,0,0,1,2.34,1.77Z"/><path class="cls-9" d="M425.81,220.79a2.72,2.72,0,0,1,2.3-2A2.8,2.8,0,0,1,425.81,220.79Z"/><path class="cls-9" d="M428,218.88a2.58,2.58,0,0,1,2.15-2.14A2.94,2.94,0,0,1,428,218.88Z"/><path class="cls-9" d="M430,216.89a2.68,2.68,0,0,1,2.12-2.2A2.93,2.93,0,0,1,430,216.89Z"/><path class="cls-9" d="M431.92,214.86a2.67,2.67,0,0,1,2-2.37A2.64,2.64,0,0,1,431.92,214.86Z"/><path class="cls-9" d="M184.47,208.56a2.42,2.42,0,0,1,1.72,2.44A2.93,2.93,0,0,1,184.47,208.56Z"/><path class="cls-9" d="M176.53,194.49a2.47,2.47,0,0,1,1.78,2.47A2.75,2.75,0,0,1,176.53,194.49Z"/><path class="cls-9" d="M170.47,184.56a2.37,2.37,0,0,1,1.66,2.47C171.58,186.2,171,185.38,170.47,184.56Z"/><path class="cls-9" d="M452.33,181a2.32,2.32,0,0,1,1.52-2.57A2.79,2.79,0,0,1,452.33,181Z"/><path class="cls-9" d="M460.39,165a3,3,0,0,1,1.56-3A3.46,3.46,0,0,1,460.39,165Z"/><path class="cls-9" d="M482.27,117a2.41,2.41,0,0,1,1.88-2.19Z"/><path class="cls-9" d="M484.05,114.93a2.58,2.58,0,0,1,2-2.34A2.87,2.87,0,0,1,484.05,114.93Z"/><path class="cls-9" d="M485.81,112.8a2.66,2.66,0,0,1,2.08-2.35A2.52,2.52,0,0,1,485.81,112.8Z"/><path class="cls-9" d="M504.26,62.87a2.14,2.14,0,0,1-2-1.89Z"/><path class="cls-9" d="M502.23,61a2.29,2.29,0,0,1-2-2Z"/><path class="cls-9" d="M500.23,59A2.52,2.52,0,0,1,498.15,57Z"/><path class="cls-9" d="M498.2,57.06a2.43,2.43,0,0,1-2.21-2Z"/><path class="cls-9" d="M496.13,55.22A2.52,2.52,0,0,1,494,53.1,3,3,0,0,1,496.13,55.22Z"/><path class="cls-9" d="M494.11,53.24A2.58,2.58,0,0,1,492,51.1,2.94,2.94,0,0,1,494.11,53.24Z"/><path class="cls-9" d="M492.12,51.25a2.73,2.73,0,0,1-2.3-2.06A2.82,2.82,0,0,1,492.12,51.25Z"/><path class="cls-9" d="M490,49.39a2.61,2.61,0,0,1-2.3-2.13A2.59,2.59,0,0,1,490,49.39Z"/><path class="cls-9" d="M488,47.49a2.77,2.77,0,0,1-2.28-2.18A2.46,2.46,0,0,1,488,47.49Z"/><path class="cls-9" d="M138.2,42.91l2-2,.37,1.17a2.39,2.39,0,0,1-1.87,1.34Z"/><path class="cls-9" d="M480.25,40.89a2.34,2.34,0,0,1-2.2-1.83Z"/><path class="cls-9" d="M140.2,40.92l2-2,.37,1.18a2.39,2.39,0,0,1-1.9,1.35Z"/><path class="cls-9" d="M478.16,39.15a2.56,2.56,0,0,1-2.34-1.95A2.88,2.88,0,0,1,478.16,39.15Z"/><path class="cls-9" d="M142.2,38.92l2-1.94.63.64a1.94,1.94,0,0,1-2.12,1.82Z"/><path class="cls-14" d="M258.19,593.23c33.1-3.58,66.25-3.08,99.41-1.08,7.94.48,15.88.75,23.82,1.11,1.34.33,1.61,1,.82,2.17-10.45,4.24-10.53,4.26-7.14,14.8,5.81,18,10.1,36.45,14.18,54.9,1.61,7.29,4,13.75,9.31,19-2.11,3.65-5.87,3.23-9.24,3.83-33.71,3.57-67.51,4.52-101.4,4.24-18.67-.15-37-2.72-55.55-4.42a12.61,12.61,0,0,1-7.35-2.67c-3.49-4.07-1.17-8.23.07-12.21,7.21-23.13,15.06-46.08,20.66-69.67C247.48,596.05,251.71,593.66,258.19,593.23Z"/><path class="cls-3" d="M382.49,594.87a16.06,16.06,0,0,1-1.07-1.61c6.77-1.49,13.59-2.79,20.29-4.54,6.36-1.66,7.3-3.58,5.31-10.14-5.49-18-11.13-36-16.65-54-9.77-31.92-19.46-63.88-29.28-95.79-1.17-3.81-1.32-7.77-2.33-11.63-1.94-7.45-3.61-14.78-9.39-20.43-.81-.8-.79-2.45-1.15-3.71,11.36-1.32,22.37,2.63,33.73,2.18,5.23-.21,8.93,3.3,12.22,7.5,9.17,11.72,14.64,25.26,19.89,38.88,14.91,38.79,25,79,34.13,119.42,3.12,13.87,5.81,27.85,9,41.71.78,3.46-1,4.05-3.45,4.58-6.08,3.34-11.61-.42-17.28-1.52-4.89-1-9.77-2-14.66-2.91-10-2-20.19-3-30.23-4.75C388.35,597.51,384.87,597.72,382.49,594.87Z"/><path class="cls-15" d="M258.19,593.23c-6.28,1.76-8.62,6.12-10.23,12.36-6.76,26.14-14.47,52-23.73,77.39,1.59,2.47.87,4-1.93,4.59-11-3.71-22.5-5-33.69-7.74-3.51-.87-7.1-1.58-10.12-3.78a5,5,0,0,1-1.53-2.69c-.28-6.25,3-11.46,5.12-17,6.92-18.3,13.29-36.79,20.34-55a10.2,10.2,0,0,1,2.13-2.22,1.54,1.54,0,0,0,1.68-.2c3.14-2.16,7.12.37,10.25-1.83,12-.92,23.9-2.28,35.73-4.36Z"/><path class="cls-16" d="M589.88,1004.89c-2.66,6.77-8.41,11.42-12,17.58l.24,1a3.63,3.63,0,0,1-.87,1.75s-.65.74-.63.75a16.25,16.25,0,0,1-1.35,1.4s-.7.67-.69.69c-.43.48-.89.93-1.36,1.37,0,0-.7.67-.69.68-.43.49-.9,1-1.37,1.4,0,0-.71.68-.7.7-.45.51-.92,1-1.4,1.45-.24.24-.49.47-.73.72a15.49,15.49,0,0,1-1.55,1.37,16.57,16.57,0,0,1-1.71,1.16c-.85.55-1.71,1.11-2.52,1.72-.5.45-1,.87-1.55,1.29s-1,.9-1.48,1.34c0,0-.74.66-.73.67a12.18,12.18,0,0,1-1.47,1.31,7.2,7.2,0,0,1-1.61,1.08c-.53.33-1.1.62-1.65.91s-1,.68-1.55,1-1,.77-1.46,1.14a7.55,7.55,0,0,1-1.57,1c-.53.32-1.08.61-1.62.91s-1,.71-1.54,1.08a19.1,19.1,0,0,1-1.5,1.19,8.27,8.27,0,0,1-1.66,1c-.55.33-1.13.62-1.71.91a15.46,15.46,0,0,1-1.72.88c-.56.32-1.13.6-1.7.89s-1.09.71-1.63,1.08a17.24,17.24,0,0,1-1.58,1.24,13,13,0,0,1-1.75,1.07c-.6.35-1.22.67-1.84,1s-1.24.66-1.88,1-1.25.65-1.89,1-1.25.65-1.89.94-1.25.63-1.88.93a17.87,17.87,0,0,1-1.87.9c-.93.44-1.86.87-2.77,1.37-.58.37-1.19.69-1.8,1a29.74,29.74,0,0,1-2.79,1.34,13.43,13.43,0,0,1-2,.63,29,29,0,0,0-2.88.88c-.6.3-1.22.56-1.84.82-.91.43-1.82.86-2.71,1.34-.59.37-1.19.69-1.81,1-.93.5-1.87.95-2.84,1.36a14.53,14.53,0,0,1-2,.65c-1,.3-2,.61-3,1-.64.33-1.3.62-2,.92-1,.49-2,1-3,1.39a13.93,13.93,0,0,1-2.06.71,31.35,31.35,0,0,0-4.07,1.36,17,17,0,0,1-2,.66c-1,.3-2,.6-3,1a15.3,15.3,0,0,1-2,.74,38.75,38.75,0,0,0-4,1.3,18.29,18.29,0,0,1-2,.75,40.59,40.59,0,0,0-4.17,1.36,17.9,17.9,0,0,1-2.12.77c-1.45.44-2.89.91-4.31,1.45a19.05,19.05,0,0,1-2.21.73c-1.51.42-3,.93-4.47,1.48a17.82,17.82,0,0,1-2.38.65,42,42,0,0,0-6.19,1.68,16.43,16.43,0,0,1-2.77.58,22.89,22.89,0,0,1-6,0c-8.67-2.73-3.91-6.57-.58-9.77,16.3-15.62,29.54-33.45,38.87-54,10.69-23.56,16.22-48.28,18.95-74.13,4.23-39.92-4.08-78.2-11.65-116.74a28.92,28.92,0,0,1-.2-10.33c2.29-17.52,1.42-35.05.33-52.6-2.31-36.84-8.48-73.15-15.18-109.38,2.88-8.43,9.28-10.63,17.39-9.83,10.29,14.11,15.69,30.74,23.17,46.26,17,35.37,33.68,71,48.26,107.47,16.74,41.88,30,84.71,35.75,129.61,2.31,17.91.74,35.9,1,53.86C592.85,997.76,588.82,1000.63,589.88,1004.89Z"/><path class="cls-12" d="M498.17,1073.2a1.1,1.1,0,0,1,1.41-.43c1.49-.75,3.43-.42,4.59-2l-.12.06c1.25-.94,3-.68,4.18-1.84h0c1-1.21,2.8-.79,3.9-1.83a1.07,1.07,0,0,1,1.37-.44c1.5-.76,3.55-.34,4.56-2.14l-.2.13c1.37-.76,3.23-.47,4.24-2l-.14.09c1.27-.92,3.18-.57,4.13-2.12l-.15.1c1.27-.9,3.26-.51,4.09-2.24l-.19.14c1.37-.76,3.36-.37,4.14-2.23l-.24.24c1.08-.18,1.7-1,2.45-1.69l0,0c1-1.22,3-.79,3.87-2.21l-.1.07c1.2-1,3.24-.57,4-2.33l-.22.22a5.65,5.65,0,0,0,2.4-1.75l0,0c1-1.2,3.1-.73,3.8-2.42l-.21.21a5.76,5.76,0,0,0,2.38-1.79h0c1-1.19,3.18-.67,3.74-2.54l-.24.26a3.37,3.37,0,0,0,2.38-2l-.14.14a8.29,8.29,0,0,0,2.25-1.88h0c1.8-1.63,4.47-2.18,5.71-4.52l-.21.25a2.88,2.88,0,0,0,2.27-2.16l-.2.21a3.66,3.66,0,0,0,2.3-2l-.15.16a4.86,4.86,0,0,0,2.16-2.14l-.14.15a5,5,0,0,0,2.14-2.15l-.14.15a4.81,4.81,0,0,0,2.13-2.17l-.15.16c.94-.54,1.85-1.11,2-2.31l-.09-.11c4.35,5.34,2.77,10.84-.46,15.66-8,12-18.39,22-29.21,31.28-5.94,5.1-14.2,7-21.27,10.64-10.46,5.43-21.39,10.92-32.56,14-14.62,4-28.84,9.28-43.49,13.24-23.43,6.33-47.71,7.74-71,13.85-16.13,4.23-32.67,4.8-48.93,7.64a47.11,47.11,0,0,1-8,.21c-16,0-32-.35-48,.13-10.38.31-20.39-2.42-30.74-2.54-5.17-.06-10.92-2.63-15.71-5-9.58-4.79-19.74-6.63-30-8.46-17.59-3.14-35-6.87-51.43-14.13-15.81-7-32.1-12.85-47.32-21.17-16-8.78-31.58-18.35-45.54-30.16-8.59-7.27-16.68-15.27-20-26.65,12.29,9,23.89,18.92,37.34,26.22,2.62,1.43,4.89,5.14,8.64,2,4.11-1.94,6.91,1.09,10,2.73,24.78,13,49.52,26.13,76.81,33.41a351,351,0,0,0,35.41,7.81c7.14,1.14,14.14,3.13,21.44,3.14a606.54,606.54,0,0,0,127.61,4.34c17.63-.18,35-3.22,52.56-4.49,3.61,0,7.26.56,10.82-.55a22.59,22.59,0,0,1,2.83-.6c3.14-.42,6.37-.27,9.44-1.23a21.81,21.81,0,0,1,2.54-.6c2.06-.43,4.23,0,6.24-.78a9,9,0,0,1,2.43-.35c1.95-.24,4.07.61,5.83-.91a1.23,1.23,0,0,1,1.5-.32c2-1.37,4.69,0,6.53-1.8a.78.78,0,0,1,1.2-.27c1.56-.57,3.32-.51,4.75-1.51a1.56,1.56,0,0,1,1.69-.36c1.84-1.54,4.65.07,6.33-2l-.07,0c1.7-1.65,4.48,0,6.08-2l-.05,0c1.65-1.71,4.53,0,6-2.14l-.12.07c1.22-.93,2.93-.65,4.12-1.66a1.24,1.24,0,0,1,1.51-.42c1.42-.81,3.26-.5,4.52-1.72a.81.81,0,0,1,1.2-.35c1.59-.62,3.51-.39,4.79-1.85l-.09,0C495.28,1073.92,497,1074.24,498.17,1073.2Z"/><path class="cls-17" d="M589.88,1004.89c-.49-.85-1.51-1.8-1.37-2.52,3.61-18.12,1.56-36.43,1.42-54.62-.07-10.11-2.93-20.2-4.54-30.29-3.34-21-8.91-41.4-15.47-61.5-7.09-21.71-15.06-43.17-24.28-64.11q-24.66-56-51.28-111.16c-3.71-7.66-8.09-15.23-10.15-23.69a4,4,0,0,1-1.09-2.57c2.88-6.49,7.68-11.76,11.26-17.81,1.93,1.09,2.35,3.21,3.07,5,22.07,53.83,46.87,106.42,71.61,159,14.88,31.64,27.2,64.27,34,98.71,5.21,26.36,6.58,52.76-.91,79-2.28,8-5.11,15.78-10,22.63a5,5,0,0,0-1.66,2.72A1,1,0,0,1,589.88,1004.89Z"/><path class="cls-18" d="M484.22,655c0,.67,0,1.34,0,2a39.76,39.76,0,0,0-16,8c-6.81,7-15.64,8.82-24.82,9.86-3.86-.66-5.62-3.53-6.45-6.83-5.06-20-12.41-39.32-17.7-59.24-.79-3-2.61-7.41,3.36-8,10.78.23,20.61,5,31.11,6.49,3.77,2.87,9,2.4,12.62,5.67C470.64,627.65,478.74,640.76,484.22,655Z"/><path class="cls-19" d="M484.22,655c-4.38-2-5.22-6.55-7.05-10.26-4-8.2-7.66-16.6-11.52-24.89-1.16-2.5-2.24-4.87.68-6.91,7.9,1.93,14.65,6,20.82,11.17,3.93,3.27,7,7.09,7.23,12.52C494.92,644.92,488.08,649.13,484.22,655Z"/><path class="cls-1" d="M324.21,385c5-3.88,10.69-1.15,16-1.92C335.27,386.92,329.53,384.19,324.21,385Z"/><path class="cls-12" d="M234.19,1128.92c-3.43-.28-7.18,1.19-10.09-1.87C227.5,1127.45,231.31,1125.67,234.19,1128.92Z"/><path class="cls-12" d="M178.3,1120.9c0-.63-.08-1.26-.15-1.88,2.2,0,4.55-.41,6,1.88Z"/><path class="cls-12" d="M134.19,1106.86c-.65.06-1.31.1-2,.12,0-.64-.12-1.29-.2-1.93Z"/><path class="cls-12" d="M124.2,1102.89c-.66,0-1.32.08-2,.1,0-.64-.12-1.29-.21-1.93Z"/><path class="cls-12" d="M84.22,1083l-2,0c-.06-.64-.13-1.29-.22-1.93Z"/><path class="cls-12" d="M80.21,1080.94c-.66,0-1.32,0-2,0,0-.64-.11-1.29-.19-1.93Z"/><path class="cls-12" d="M74.28,1078.94c0-.65-.08-1.29-.11-1.93l2,1.87C75.56,1078.92,74.92,1078.94,74.28,1078.94Z"/><path class="cls-12" d="M70.22,1075l-2,0c0-.65-.1-1.3-.18-1.94Z"/><path class="cls-12" d="M64.33,1072.88c0-.63-.08-1.26-.1-1.89.65.62,1.3,1.24,2,1.85l-.93,0Z"/><path class="cls-12" d="M62.22,1071l-.09-2,2.09,1.94h-2Z"/><path class="cls-12" d="M56.26,1067l-.09-1.94,2.06,1.94h-2Z"/><path class="cls-12" d="M54.2,1065c0-.65-.1-1.31-.18-2l2.18,2Z"/><path class="cls-12" d="M48.31,1060.9c0-.64-.06-1.27-.08-1.91l2,1.92h-1Z"/><path class="cls-12" d="M46.26,1059l-.09-2,2,2Z"/><path class="cls-12" d="M44.22,1057c0-.65,0-1.31-.07-2l2.05,2Z"/><path class="cls-12" d="M42.22,1055c0-.66,0-1.32-.08-2,.69.67,1.37,1.35,2,2Z"/><path class="cls-12" d="M40.2,1053c0-.65-.07-1.31-.08-2l2.07,2Z"/><path class="cls-12" d="M38.19,1051c0-.66-.07-1.31-.08-2l2.06,2C39.51,1051.09,38.85,1051.06,38.19,1051Z"/><path class="cls-12" d="M36.2,1049c0-.66,0-1.32-.06-2l2,2.07C37.51,1049.09,36.85,1049.06,36.2,1049Z"/><path class="cls-12" d="M34.22,1047c0-.66,0-1.32-.07-2l2,2Z"/><path class="cls-12" d="M32.22,1045c0-.66,0-1.32,0-2l2,2Z"/><path class="cls-12" d="M30.25,1043l0-2,2,2.06Z"/><path class="cls-12" d="M28.29,1040.92c0-.65,0-1.29,0-1.94l1.93,2Z"/><path class="cls-12" d="M24.21,1035c0-.67,0-1.33,0-2,.66.73,1.32,1.45,2,2.18Q25.19,1035.06,24.21,1035Z"/><path class="cls-12" d="M24.21,1033l-1.92-.1c0-.64,0-1.27.05-1.9Z"/><path class="cls-12" d="M20.21,1029c0-.66,0-1.33,0-2l1.95,2.21C21.51,1029.12,20.86,1029.05,20.21,1029Z"/><path class="cls-12" d="M18.18,1023.14c-.65-.08-1.29-.13-1.94-.17,0-.65,0-1.31.07-2Z"/><path class="cls-12" d="M32.22,1019l2,2Z"/><path class="cls-12" d="M30.22,1017l2,2Z"/><path class="cls-12" d="M16.17,1019.16c-.65-.08-1.29-.14-1.94-.18,0-.66,0-1.31.07-2Z"/><path class="cls-12" d="M28.22,1015l2,2Z"/><path class="cls-12" d="M26.22,1013l2,2Z"/><path class="cls-12" d="M14.17,1015.17c-.65-.08-1.29-.15-1.94-.19,0-.66,0-1.31.09-2Z"/><path class="cls-12" d="M24.23,1011l2,2Z"/><path class="cls-12" d="M18.22,1003l2,2Z"/><path class="cls-16" d="M590.48,1003.69a3,3,0,0,1,1.66-2.72A2.8,2.8,0,0,1,590.48,1003.69Z"/><path class="cls-12" d="M16.22,1001l2,2Z"/><path class="cls-12" d="M14.23,999l2,2Z"/><path class="cls-12" d="M12.22,995l2,2Z"/><path class="cls-12" d="M10.23,993l2,2Z"/><path class="cls-12" d="M8.22,989l2,2Z"/><path class="cls-20" d="M166,1087.09c-15-3.09-29.16-8.63-42.79-15.41-14.49-7.2-28.71-15-43-22.48-10.51-8.12-21.4-15.74-30.5-25.58C23.22,995,15.34,960.7,19.16,923c4.47-44.28,20.11-85.22,38.85-125,24.78-52.61,49.26-105.34,71.61-159a36.07,36.07,0,0,1,2.45-4.24c5.55,17.53,20.85,25.17,34.76,34.24a6.62,6.62,0,0,1,.41,3.05c-8.16,27.1-19.21,53.16-28.5,79.86-16.51,47.47-32.77,95-40.12,145-5.76,39.14,2,76.07,18.27,111.6,12.47,27.23,28.91,51.6,51.53,71.54,1.92,1.69,4.82,3.52,3.6,6.46C170.9,1089.11,168.19,1088.05,166,1087.09Z"/><path class="cls-18" d="M166.2,669c-11.74-4.12-22.21-9.94-29.66-20.42a21.85,21.85,0,0,1-4.47-13.89c.76-7.1,6-10.8,11.27-14.13a117.16,117.16,0,0,1,42.26-15.94c5-.57,4.68,3.37,4,5.85-5.57,19.49-12.21,38.62-20.88,57C168.27,668.31,167.14,668.62,166.2,669Z"/><path class="cls-14" d="M166.2,669q10.1-27.84,20.17-55.69c1-2.93,3.42-6.15-.77-8.69,2.46-2.62,6.59-.79,9.06-3.39a1.31,1.31,0,0,0,1.57-.27c2.56-1.49,5.2-1,7.86-.36-.63,9.4-5.37,17.57-8.29,26.23-5.25,15.6-11.66,30.81-17.59,46.18-4.62,3-8.47,1.48-12-2C166.21,670.3,166.2,669.63,166.2,669Z"/><path class="cls-21" d="M142.67,39.44a2.49,2.49,0,0,0,2.12-1.82,11.65,11.65,0,0,0,5.85-4.14c1.55-.25,3-.71,3.77-2.25a14.41,14.41,0,0,0,8-4c1.62-.09,3.14-.39,4.13-1.85l9.7-2.42c-.42,1.8-1.59,4.82,1.87,3.66,13-4.33,26.61-5.05,40-7,9.15-1.33,18.61-.78,27.91-.55,12.55.31,24.94-1.14,37.35-2.54,1.35-.15,2.66-.57,3.74.37,3.43,3,7.57,1.92,11.48,2.08,5.93.25,12.27-3.29,17.69,1.9.18.18.66.13,1,.06,10.95-2.46,20.86,3.66,31.39,3.85,11.34.21,20.94,6.15,31.65,8.22,5.28,2.68,11,4.53,15.45,8.76,9.49,9,9.77,20.51.59,29.82-13.15,13.33-30.74,16.45-47.78,21-10.6,2.8-21.6,2.32-32.26,4.46-14.89.05-29.61,3-44.58,2.15-6.31-.34-12.46-1.32-18.68-2-5.18-.54-10.6-1-15.74,1.14-2.18.92-5.29,1.52-6.72,0-5.11-5.23-12.19-2.08-17.8-4.84a5.45,5.45,0,0,0-6.41,1.33c-1.4,1.39-3,1.51-4.12-.34-2-3.38-5.42-3.61-8.66-4-10.16-1.19-19.47-5.25-29-8.55-5.28-1.85-11.83-.55-15.8-6.23-.79-1.13-3,.75-4.53,1.24h0a22.21,22.21,0,0,0-2-2h0c-.63-.7-1.3-1.36-2-2h0c-.62-.71-1.33-1.33-2-2h0c-3-.92-2.46-4.17-4-6-3.05-5.3-.44-10.45.43-15.64a14.41,14.41,0,0,0,4.08-5.9,2.36,2.36,0,0,0,2-2A2.57,2.57,0,0,0,142.67,39.44Z"/><path class="cls-22" d="M166.22,91c7.57,1.17,14.32,4.88,21.59,7.06,19,5.71,38.41,8.86,58.09,11.25,12.1,1.47,24.32,1.57,36.33,3.69,3.38,3.92,3.15,8.71,2.63,13.26-3.37,29.57-5.18,59.38-13.49,88.21-3,10.52-6.35,20.9-12,30.36-1,.93-2.13,1.93-3.42,1.8-15.16-1.55-29.86-4.56-42.23-14.35.47-5.18-1.5-9.67-3.75-14.19-17-34.29-29.93-70.21-41.1-106.75C166.85,104.83,164,98.17,166.22,91Z"/><path class="cls-23" d="M422.53,221.86l-2.41,3c-3,.86-5.44,2.69-7.86,4.55-2.3,3.41-5.64,5.37-9.33,7-14,6.19-28.64,9.79-43.6,12.44-3.89.69-7.88,1.24-11.33-1.6-.91-2.92.77-5.12,2.15-7.36C365,215.91,371,189,375.4,161.69c2-12.11,4.18-24.2,4.56-36.57.17-5.47.56-11.36,4.26-16.13,11.83-2.95,23.94-4.54,35.82-7.39,15.2-3.64,29.7-9,44.18-14.61,0,10.47-4.57,19.9-7.05,29.78-4.19,16.65-9.26,33.07-13.69,49.66-4,15.1-10.11,29.35-16.68,43.45C425,213.71,422,217.17,422.53,221.86Z"/><path class="cls-8" d="M258.22,244.88a15.19,15.19,0,0,1,1.86-7.64c9.13-19.39,12.58-40.27,16.26-61.14,2.7-15.3,2.5-30.91,5.54-46.18,1.08-5.45.29-11.27.35-16.92h56c1.9,7.91,1.08,15.91.13,23.76-4.42,36.62-15,71.56-29.28,105.48-1.28,3.06-2.41,6.25-5.49,8.11-13.48,3.59-26.74,1-40-1.47A7.57,7.57,0,0,1,258.22,244.88Z"/><path class="cls-24" d="M304.21,249.31c6.31-18.05,12.68-36.08,18.92-54.15,5.61-16.24,8.18-33.17,11.16-50a108,108,0,0,0,1.92-24.58c-.15-2.78.85-5.18,2-7.58,11.93-2.28,24.21-1,36.14-3.58,3.17-.68,6.57-.31,9.86-.42-1.35,13.77-2.22,27.61-4.15,41.3-3,21.23-6.79,42.34-14.07,62.64-4.38,12.21-9.66,23.93-17.78,34.18-.73,1.53-1.73,3.12-3.39,3.36C331.24,252.44,317.62,254.33,304.21,249.31Z"/><path class="cls-25" d="M316.22,97c4.36-3.86,10.18-2.75,15.1-3.48,14.18-2.11,27.62-6.65,41.29-10.43,8.46-2.34,15.61-7.21,21.84-13.35,8.53-8.4,8.24-17.05-.17-25.81-4.2-4.37-10-6.48-14.06-10.92,18.82,4.38,37.08,10,51.2,24.24,6.85,6.9,6.67,10.86,0,17.61a27.19,27.19,0,0,1-11,6.43,245.16,245.16,0,0,1-53.94,12C349.74,95.05,333.11,97.49,316.22,97Z"/><path class="cls-8" d="M166.22,91c3.1,10.43,5.25,21.1,8.67,31.48,6.51,19.81,13.68,39.35,21.33,58.75,5.85,14.84,12.57,29.24,19.8,43.42,1.31,2.56,3.59,5.7-1.88,6.39-1.41,1.1-2.68,1.17-3.74-.48a1.88,1.88,0,0,0-2.2-1.26,1.6,1.6,0,0,0-1.63-.72,2.39,2.39,0,0,0-2.4-1.52,11.21,11.21,0,0,1-.66-1.75c2.23-1.2,1.21-2.49.22-3.94-17.81-26.31-29.63-55.37-38.91-85.53-5.14-16.71-10.17-33.48-12.58-50.87C157.46,85.67,161.52,89.08,166.22,91Z"/><path class="cls-26" d="M492.69,85.08a33.91,33.91,0,0,0-3.52,1.75c-5.32,3.4-5.19,0-4.75-3.77C487.34,83.07,490.86,80.62,492.69,85.08Z"/><path class="cls-27" d="M210.4,230.56l3.74.48c13.72,7.71,28.55,11.89,44.08,13.84a157.2,157.2,0,0,0,46,4.43c14.74.74,29.46,1,44-2.2,19.24-1,37.4-6.4,55.06-13.74,3-1.25,6-2.62,9-3.93q0,25.77-.05,51.55c-12.29,12.32-26.76,20.68-43.95,24.06-3.5-.05-5-2.51-6.69-5.11-17.13-25.72-42.11-36.85-72.11-39.05-11.81-.86-23.6-2.43-35.28-4.36-14.48-2.39-28.79-2.54-43.5.8C209.75,248.38,210.28,239.46,210.4,230.56Z"/><path class="cls-3" d="M216.48,597.09c-3.14,2.16-6.71,1.95-10.25,1.83l2-1.94Z"/><path class="cls-3" d="M204.09,600.57l-7.86.36c2.27-2.9,5.44-1.71,8.32-1.81A3.73,3.73,0,0,0,204.09,600.57Z"/><path class="cls-28" d="M326.38,371.08c-3.7-5-2.94-11.2-3.83-16.77-1.17-7.36-.29-15.05-.29-22.59a5.55,5.55,0,0,1,2.46-5.05C341.63,333.72,343.33,362.15,326.38,371.08Z"/><path class="cls-4" d="M134.19,65c2.28,1.39,2.85,3.91,4,6-2.53,1.64-1.78,4.42-2.36,6.75q-.78-.41-1.5-.87Z"/><path class="cls-4" d="M142.21,75c.67.67,1.34,1.33,2,2C143.55,76.33,142.88,75.67,142.21,75Z"/><path class="cls-4" d="M140.21,73c.66.67,1.33,1.34,2,2C141.54,74.34,140.87,73.67,140.21,73Z"/><path class="cls-4" d="M138.22,71l2,2Z"/><path class="cls-29" d="M166.21,671l12,2c0,.66,0,1.33,0,2,.87,5.25-1.64,9.73-3.39,14.36-7.5,19.91-15.89,39.48-22.8,59.61-3.15,9.15-2.15,10.71,7.19,13.58,6.35,2,12.84,3.5,19.18,5.47,7.53,2.34,11.75.24,14.48-7.29,7.58-20.94,15.74-41.67,23.31-62.62,1.44-4,2-8.55,6.09-11.08,1.58-.89,1.91-2.39,1.95-4,8.38,3.79,17.56,2.5,26.31,3.7,29.3,4,58.91,2.63,88.37,2,13.09-.28,26.36-.85,39.39-3.27,3.87-.71,7.94-.32,11.92-.43,4.13,2.14,4.65,6.2,5.34,10.14,7.75,43.93,13.49,88,13.76,132.78.26,42.6-.05,85.14-6.23,127.4a474.8,474.8,0,0,1-14.69,68.23,14.51,14.51,0,0,1-2.67,4.47c-20.19,16.49-44.18,25.25-68.56,32.91-32.07,10.07-65.11,15.46-98.51,18.68a80.15,80.15,0,0,0-10.72,2c-3.4-.54-4.92-3.26-6.45-5.79-17.58-29.21-33.22-59.27-40.71-92.92-7.85-35.31-6.86-70.75-1.4-106.18a368.44,368.44,0,0,1,9.87-44.88c2.13-7.43.1-11.35-7.78-12.53-6.25-.94-12.2-3.35-18.33-4.91-9.3-2.36-10.64-1.71-12.9,8.22-4.3,18.86-7.79,38-8.92,57.21-2.36,39.89.79,79.16,16.39,116.7,12.84,30.92,31.56,57.74,54.66,81.71,3.69,3.83,8,7.17,10.72,11.79.92,1.56,4.21,4.83-1.32,5.25-12.19-1.55-24.2-3.86-35.74-8.23,1.57-.37,3.37.24,5.18-1.53-17.6-13.51-31.28-30.54-42.58-49.3C112.22,1009,100.82,979.94,96,948.14c-5-32.72,1-64.06,8.67-95.38,10.49-43,25-84.65,40.61-126,5.85-15.54,11.3-31.23,17-46.82C163.39,676.88,163.54,673.36,166.21,671Z"/><path class="cls-30" d="M386.21,1025c1-13.35,6.51-25.69,8.49-38.79,2.7-18,7.24-35.62,7.69-54,.23-9.54,2.17-19,3.25-28.54a78.9,78.9,0,0,0,.55-9c0-30.33.37-60.66-.15-91-.19-10.85-1.71-21.72-3.29-32.53-1.28-8.82-.76-17.82-2.4-26.72-2.74-14.94-4.33-30.1-7.17-45-.91-4.81.26-10.15-3-14.49,2.76-.29,5.9.92,8-2,14.13-5.09,28.27-10.16,43.71-8.73,3.73,2.33,4.75,6.31,5.8,10.11,11.9,42.87,24.4,85.58,34.48,128.94a87.49,87.49,0,0,1,2,15.68c0,3.33,0,6.66,0,10,3.75,19.27-1.65,37.75-6.19,55.94-10.59,42.44-30.43,80.09-62.05,111-6.45,6.29-13.64,11.7-20.86,17C392.57,1024.81,389.91,1027.46,386.21,1025Z"/><path class="cls-31" d="M442.21,675c-11.49.45-22.07,5.29-33.35,6.94A95.17,95.17,0,0,1,398.23,683c-5.1.76-8.16-1.28-9.19-6.44-5-25-11.48-49.62-18.85-74a17.24,17.24,0,0,0-.37-1.95c-1.68-3.82-.55-5.64,3.69-5.57,3,0,6-.1,9-.16a169.92,169.92,0,0,1,40.11,5.9c-2.45,1.54-2.26,3.55-1.5,6.05,6.16,20.23,13.29,40.17,18.41,60.72.63,2.53,1.11,5.4,4.71,5.46C444.67,674.8,444.05,675.51,442.21,675Z"/><path class="cls-32" d="M222.28,687c-8.13,27-19.27,52.85-28.87,79.3-2.31,6.38-3.71,6.86-10.4,5.22-9-2.2-18-4.38-26.89-6.89-9.53-2.7-10.83-5-7.5-14,9.37-25.42,18.8-50.82,29.6-75.68,13.79,2.77,27.58,5.51,41.37,8.32C221.49,683.67,222,685.32,222.28,687Z"/><path class="cls-33" d="M386.21,1025c9.88-3.69,17.28-11.12,24.62-18a215,215,0,0,0,50.6-71.87c9.93-22.71,16.16-46.33,20.2-70.51,1.39-8.36,3.29-17,2.6-25.65,4.5,10,5.47,21,7.28,31.56,3.74,21.81,7.46,43.78,6.61,66-1.44,37.48-8.25,73.77-27.23,106.77-5.76,10-12,19.79-20.1,28.34-5.63,5.93-10.06,13-17.38,16.73,1.18,3.69,3.71,2,5.29,2.82a1.15,1.15,0,0,1-.85,1.61l-.89-.08-.79.41c-2,1.36-4.54.32-6.53,1.61l-.76-.15-.67.39c-3.11,2.24-7.12-.37-10.23,1.88l-.92-.15-.87.34c-3.19,2.06-7.15-.34-10.34,1.77-16,.75-31.77,4.44-47.86,4.56-1.95,0-3.9-.09-5.85-.14-1.45-2.9.44-5.12,1.65-7.36a330.25,330.25,0,0,0,25.65-60.28c1-3.27,3-5.86,4.78-8.66Z"/><path class="cls-20" d="M442.21,675l2-2c8.35-1.62,15.87-5.73,24-8,4.24,7.31,4.48,15.67,5.93,23.66,2.75,15.21,5.05,30.5,7.58,45.75,1.13,6.83,1.45,13.81,2.06,20.63,1.91,21.71,3.4,43.53,2.5,65.4a19.28,19.28,0,0,1-2.07,8.58c-4.73-8.9-5.21-19-7.69-28.47-9.34-35.9-19-71.71-29.22-107.37C445.57,687.12,443.91,681.05,442.21,675Z"/><path class="cls-2" d="M566,1034.48c-.56,3.21-2.71,4.4-5.71,4.52A9.37,9.37,0,0,1,566,1034.48Z"/><path class="cls-2" d="M478.17,1080.81c-1.34,2.59-3.77,2.12-6,2.14A7.53,7.53,0,0,1,478.17,1080.81Z"/><path class="cls-2" d="M472.2,1082.93c-1.44,2.45-3.83,2-6.08,2A7.44,7.44,0,0,1,472.2,1082.93Z"/><path class="cls-2" d="M466.19,1084.9c-1.52,2.56-4,2-6.33,2C461.6,1085,463.84,1084.77,466.19,1084.9Z"/><path class="cls-2" d="M452.22,1089c-1.66,2.48-4.15,1.92-6.53,1.8C447.51,1088.9,449.85,1088.89,452.22,1089Z"/><path class="cls-2" d="M437.85,1092.85c.29-.53.58-1.07.85-1.61l5.49-.12C442.55,1093.44,440.14,1092.93,437.85,1092.85Z"/><path class="cls-2" d="M556,1042.46c-.4,2.09-2,2.46-3.74,2.54A4.69,4.69,0,0,1,556,1042.46Z"/><path class="cls-2" d="M550.06,1046.59c-.56,1.91-2.07,2.34-3.8,2.42A4.53,4.53,0,0,1,550.06,1046.59Z"/><path class="cls-2" d="M544.05,1050.56c-.57,2.07-2.18,2.37-4,2.33C540.89,1051.25,542.37,1050.73,544.05,1050.56Z"/><path class="cls-2" d="M540.16,1052.82c-.72,1.73-2.2,2.13-3.87,2.21A4.55,4.55,0,0,1,540.16,1052.82Z"/><path class="cls-2" d="M534,1056.5c-.61,2.18-2.25,2.43-4.14,2.23C530.79,1057.09,532.35,1056.7,534,1056.5Z"/><path class="cls-2" d="M530.08,1058.59c-.64,2.06-2.26,2.34-4.09,2.24C526.85,1059.18,528.36,1058.7,530.08,1058.59Z"/><path class="cls-2" d="M526.14,1060.73c-.74,1.94-2.34,2.22-4.13,2.12C522.92,1061.24,524.47,1060.86,526.14,1060.73Z"/><path class="cls-2" d="M522.15,1062.76c-.81,2-2.42,2.19-4.24,2C518.88,1063.14,520.47,1062.85,522.15,1062.76Z"/><path class="cls-2" d="M518.11,1064.62c-.84,2.16-2.63,2.3-4.56,2.14A5.36,5.36,0,0,1,518.11,1064.62Z"/><path class="cls-2" d="M512.18,1067.2c-.89,1.48-2.33,1.78-3.9,1.83A4.27,4.27,0,0,1,512.18,1067.2Z"/><path class="cls-2" d="M508.23,1069c-1,1.62-2.47,1.93-4.18,1.84A4.4,4.4,0,0,1,508.23,1069Z"/><path class="cls-2" d="M504.17,1070.82c-1,2-2.71,2.12-4.59,2A5.36,5.36,0,0,1,504.17,1070.82Z"/><path class="cls-2" d="M498.17,1073.2c-.95,1.53-2.44,1.78-4.07,1.72A4.26,4.26,0,0,1,498.17,1073.2Z"/><path class="cls-2" d="M494.19,1074.88c-1.07,2-2.88,2-4.79,1.85C490.63,1075.18,492.33,1074.84,494.19,1074.88Z"/><path class="cls-2" d="M488.2,1077.08c-1.05,1.76-2.73,1.88-4.52,1.72A4.87,4.87,0,0,1,488.2,1077.08Z"/><path class="cls-2" d="M482.17,1079.22c-1,1.53-2.48,1.76-4.12,1.66A4.16,4.16,0,0,1,482.17,1079.22Z"/><path class="cls-2" d="M458.17,1087.22c-1.19,1.73-2.94,1.72-4.75,1.51A5,5,0,0,1,458.17,1087.22Z"/><path class="cls-2" d="M536.24,1055.05a2.89,2.89,0,0,1-2.45,1.69A2.36,2.36,0,0,1,536.24,1055.05Z"/><path class="cls-2" d="M546.23,1049a2.94,2.94,0,0,1-2.4,1.75A2.43,2.43,0,0,1,546.23,1049Z"/><path class="cls-2" d="M552.23,1045l-2.38,1.79A2.43,2.43,0,0,1,552.23,1045Z"/><path class="cls-2" d="M558.12,1040.75a2.68,2.68,0,0,1-2.37,2A2.58,2.58,0,0,1,558.12,1040.75Z"/><path class="cls-2" d="M560.23,1039l-2.25,1.88A2.5,2.5,0,0,1,560.23,1039Z"/><path class="cls-2" d="M568,1032.57a2.53,2.53,0,0,1-2.27,2.16A2.64,2.64,0,0,1,568,1032.57Z"/><path class="cls-2" d="M570.11,1030.73a2.75,2.75,0,0,1-2.3,2A2.67,2.67,0,0,1,570.11,1030.73Z"/><path class="cls-2" d="M572.12,1028.75a2.94,2.94,0,0,1-2.16,2.14A2.67,2.67,0,0,1,572.12,1028.75Z"/><path class="cls-2" d="M574.12,1026.75a3,3,0,0,1-2.14,2.15A2.61,2.61,0,0,1,574.12,1026.75Z"/><path class="cls-2" d="M576.11,1024.73a3,3,0,0,1-2.13,2.17A2.66,2.66,0,0,1,576.11,1024.73Z"/><path class="cls-2" d="M578,1022.58a2.75,2.75,0,0,1-2,2.31A2.66,2.66,0,0,1,578,1022.58Z"/><path class="cls-32" d="M201.77,1095.32c2.1-1.43,1-2.74-.19-4-3.28-3.31-6.6-6.59-9.89-9.9-29-29.27-50.85-63-63.18-102.46-4.15-13.3-6.4-27-8.54-40.77-3-19.27-2.31-38.59-1.38-57.74,1.06-21.75,5.14-43.34,10.37-64.57,1.85-7.5,2.73-7.52,10.59-5.41,8.95,2.4,17.69,5.52,26.93,7,7.74,1.25,8.08,2.68,6.21,11-4.08,18.09-8.88,36.07-11.82,54.34-2.58,16-2.63,32.36-2.85,48.66-.49,37.38,8.63,72.24,25.14,105.45,7.54,15.17,15.38,30.16,25.05,44.11a50.29,50.29,0,0,1,14,17.84A75.56,75.56,0,0,1,201.77,1095.32Z"/><path class="cls-34" d="M222.21,1098.85c-6.7-4.35-10.6-10.9-14-17.84.37-3.52,2.79-3.94,5.7-4,21.5-.7,42.76-4.17,63.66-8.53,32.1-6.69,63.57-16,92.42-32.39,4.89-2.77,9.49-6,14.23-9.07-6.6,27.16-17.86,52.35-32.08,76.3-8.74,2.81-17.78,1.45-26.68,1.76-31.6,1.08-63.07-.8-94.45-4.47C228.05,1100.23,225.14,1099.44,222.21,1098.85Z"/><path class="cls-2" d="M418,1096.91c3.13-2.14,6.69-2,10.23-1.88C425.29,1098.34,421.44,1096.56,418,1096.91Z"/><path class="cls-2" d="M405.85,1098.87c3.2-2,6.76-1.95,10.34-1.77C413.19,1100.32,409.35,1098.58,405.85,1098.87Z"/><path class="cls-2" d="M429.64,1094.79c1.87-1.76,4.19-1.75,6.53-1.62C434.44,1095.5,432,1094.91,429.64,1094.79Z"/></g></g></svg>