<?xml version="1.0" encoding="utf-8"?>
<!-- Generator: Adobe Illustrator 25.0.0, SVG Export Plug-In . SVG Version: 6.00 Build 0)  -->
<svg version="1.1" id="Слой_1" xmlns="http://www.w3.org/2000/svg" xmlns:xlink="http://www.w3.org/1999/xlink" x="0px" y="0px"
	 viewBox="0 0 640 480" style="enable-background:new 0 0 640 480;" xml:space="preserve">
<style type="text/css">
	.st0{fill:#F7735E;}
	.st1{fill:#F4F2DD;}
	.st2{fill:#E8E5D4;}
	.st3{fill:#FA8562;}
	.st4{fill:#E2665A;}
	.st5{fill:#D8D4C8;}
	.st6{fill:#FF9676;}
	.st7{fill:#FD9575;}
	.st8{fill:#F98764;}
	.st9{fill:#FDFDFD;}
	.st10{fill:#FE9676;}
	.st11{fill:#FBAB94;}
	.st12{fill:#FD9576;}
	.st13{fill:#353A2E;}
	.st14{fill:#FFFFFF;}
	.st15{fill:#FFFFFE;}
	.st16{fill:#FCAC94;}
	.st17{fill:#FBAB93;}
	.st18{fill:#FEB7A1;}
	.st19{fill:#FFFAF6;}
	.st20{fill:#7BBB67;}
	.st21{fill:#FEF0E7;}
	.st22{fill:#FF5F3B;}
	.st23{fill:#E55439;}
	.st24{fill:#70A45D;}
	.st25{fill:#63493B;}
	.st26{fill:#3D3E32;}
	.st27{fill:#614E40;}
</style>
<path class="st0" d="M578.9,381.3c-0.31,0.31-0.35,0.65-0.12,1.02c-0.49,0.86-1.22,1.35-2.2,1.5c-14.02,6.67-28.09,12.97-43.5,16.09
	c-28.34,5.73-57.03,5.76-85.55,4.23c-27.31-1.46-54.56-0.53-81.83-1.18c-2.94-0.07-5.89-0.02-8.83-0.14
	c-6.14-0.24-8.44-3.54-8.02-9.44c3.43-48.81,5.56-97.71,4.07-146.61c-0.85-28-0.44-56.12-4.29-84.01
	c-3.3-23.86-16.4-38.68-39.47-45.3c-18.16-5.21-36.88-6.28-55.47-8.39c-9.77-1.11-19.47-3.16-29.38-2.7
	c-12.61-1.01-24.48-5.47-36.73-8.17c-24.87-5.48-49.8-10.23-75.4-10.17c-13.69,0.03-16.45,2.21-21.03,15.03
	c-1.01,2.84-0.76,7.44-6.09,6.41c-0.8-8.06-0.16-15.97,2.2-23.74c0.32-0.29,0.38-0.63,0.16-1c0.9-2.92,0.51-6.32,3.21-8.56
	l-0.07,0.1c0.79-0.99,0.51-2.54,1.74-3.3l-0.14,0.14c0.31-0.74,0.97-1.22,1.42-1.85l0.03-0.06c1.08-0.72,0.66-2.43,1.97-3
	l-0.17,0.15c0.32-0.83,0.91-1.39,1.69-1.79l-0.12,0.16c0.62-0.69,1.38-1.16,2.27-1.43c6.2-3.42,12.89-3.01,19.55-2.26
	c3.97,0.44,8,0.82,11.89,1.7c9.21,2.07,17.12,1.48,25.33-4.86c9.32-7.2,21.08-10.09,32.84-11.87c31.38-4.75,62.75-9.59,94.5-11.24
	c4.52,0.02,9.03-0.05,13.55,0.04c23.54,5.6,47.34,10.08,70.9,15.65c3.11,0.74,6.24,1.41,9.25,2.49c1.6,0.49,3.16,1.14,4.85,1.33
	c1.26,0.15,2.51,0.38,3.75,0.67c15,4.78,30.25,8.98,44.05,16.86c4.77,2.73,9.06,1.64,13.7-0.36c15.56-6.7,31.7-9.11,48.48-5.75
	c3.59,0.72,7.44,0.98,10.2,4.14c-2.11,4.04-5.94,2.79-9.17,3.22c-11.95-0.83-23.35,1.88-34.5,5.73c-8.08,2.79-8.5,5.24-2.2,10.71
	c3.24,2.81,6.35,5.71,8.86,9.2c10.74,13.42,10.75,13.45,26.91,7.01c7.49-2.99,15.23-5.11,23.07-6.88c2.57-0.58,6.26-1.66,7.21,1.18
	c1.13,3.39-2.97,3.85-5.25,4.57c-8.52,2.7-16.28,6.83-23.68,11.71c-8.07,5.32-12.73,11.92-9.48,22.3c1.72,5.48,0.97,11.59,3.5,17.56
	c13.86-9.1,29.23-10.54,44.86-10.17c12.89,0.3,24.95-2.5,36.5-8.01c0.83-0.22,1.64-0.18,2.44,0.11c0.66,1.13,0.74,2.37,0.66,3.64
	c-0.69,2.51-2.14,4.55-3.88,6.43c-4.81,4.66-10.95,6.45-17.24,7.91c-18.01,4.16-35.47,9.77-51.99,18.31
	c-7.8,4.03-11.37,9.3-10.97,18.35c0.35,8.01,2.27,15.87,1.85,23.9c-0.16,7.21,0.11,14.43-0.16,21.64c-0.19,5.08,1.64,5.36,5.61,3.3
	c7.12-3.7,13.94-7.93,20.99-11.74c10.2-5.51,20.92-9.49,32.52-10.78c2.32-0.26,5.4-0.97,6.08,2.02c0.55,2.41-2.32,3.24-4.19,4.1
	c-5.84,2.68-11.9,4.81-18.04,6.67c-14.8,4.47-26.6,13.42-36.99,24.51c-2.58,2.75-5.09,5.73-5.48,9.59
	c-0.5,4.99-2.52,11.24,0.87,14.64c2.84,2.86,7.67-1.8,11.65-3c13.06-3.91,25.9-8.71,39.17-11.71c12.52-2.83,21.71-9.69,29.35-19.49
	c2.52-3.24,4.64-7.42,9.87-7.06c2.1,2.59,2.17,6.01,0.89,8.34c-4.81,8.78-8.52,18.35-18.14,23.73
	c-16.52,9.25-32.91,18.76-49.54,27.81c-17.99,9.79-22.12,17.82-20.08,38.08c0.8,7.97,1.96,15.86,3.33,23.73
	c0.26,1.85,0.08,3.83,0.78,5.54c1.58,3.82-1.17,9.96,3.57,11.5c6,1.95,12.6,1.64,18.65-1.71c10.22-5.66,17.51-14.86,26.69-21.76
	c2.13-1.6,3.99-3.59,6.34-4.89c1.82-1,4.02-2.78,5.8-0.83c1.88,2.06-0.29,4.03-1.62,5.49c-5.94,6.56-10.92,13.85-16.71,21.44
	c11.69-0.1,21.04-4.46,29.62-11.09c2.16-1.67,3.77-5.89,6.89-4.16c3.36,1.86,1.12,5.8,0.89,8.87c0.2,2.29-0.54,4.67,0.65,6.86
	l-0.12-0.1C579.98,379.13,579.91,380.19,578.9,381.3z"/>
<path class="st1" d="M85.76,109.59c1.93-1.34,2.27-3.49,2.88-5.52c0.76-2.56,1.41-5.16,2.38-7.64c2.72-6.97,7.82-10.64,15.41-10.59
	c6.43,0.04,12.88-0.24,19.27,0.24c16.26,1.21,32.45,3.13,48.36,6.84c15.6,3.63,31.15,7.51,46.73,11.27
	c1.03,0.25,2.09,0.35,3.13,0.52c9.03,0.63,17.86,2.51,26.65,4.46c15.38,3.42,31,5.76,46.23,9.88c10.2,2.75,19.57,7.25,27.5,14.26
	c3.95,3.49,7.99,7.21,8.33,13.12c-1.14,4.79-6.37,3-9.12,5.32c0.69,3.96,4.74,5.15,6.1,8.34c1.1,2.59,2.03,5.15-0.57,7.28
	c-2.72,2.22-5,0.62-7.06-1.28c-2.85-2.64-4.58-6.87-9.43-6.64c-1.06,0.05-2.14,0.21-2.67,1.64c1.86,2.9,5.95,3.18,7.85,6.2
	c1.96,3.12,3.47,6.35,0.47,9.48c-2.85,2.97-5.8,1.74-8.47-0.63c-0.8-0.71-1.55-1.48-2.44-2.07c-2.28-1.5-4.61-1.68-6.51,0.46
	c-2.3,2.59-1.03,4.98,0.96,7.06c2.42,2.53,5.52,2.8,8.86,2.79c9-0.05,13.87,4.35,14.74,13.28c0.55,5.64,0.39,11.27-2.47,16.41
	c-1.82,3.26-4.5,5.38-8.5,4.7c-3.78-0.64-5.12-3.47-5.62-6.89c-0.19-1.32-0.25-2.66-0.51-3.98c-0.48-2.5-1.47-4.73-4.3-5.14
	c-3.17-0.45-4.95,1.58-6.11,4.17c-1.47,3.28-1.13,6.81-1.21,10.28c-0.08,3.48,0,7.01-2.27,9.98c-2.03,2.65-4.49,4.66-8.06,4.49
	c-3.75-0.18-5.5-2.74-6.86-5.86c-2.63-6.03-3.18-12.34-3.11-18.83c0.05-4.76,0.8-9.66-1.53-14.2c-6.83-17.09-15.82-22.18-34.18-20.3
	c-19.05,1.95-37.9,0.87-56.17-5.59c-7.56-2.67-15.21-5.09-22.83-7.62c-3.83-1.27-7.72-2.08-11.78-2.15
	c-11.31-0.22-15.04,3.15-15.26,14.51c-0.42,21.89-0.99,43.82-2.14,65.63c-1.12,21.35,0.02,42.72-2,64.03
	c-1.58,16.71,6.11,28.88,21.52,35.81c2.66,1.2,5.64,1.77,7.85,3.86c1.9,9.21,8.03,13.85,16.84,15.91c4.25,0.99,7.72,3.59,10.58,6.93
	c2.66,3.12,3.6,6.56,1.76,10.38c-1.85,3.81-4.99,5.73-9.17,4.7c-4.38-1.08-6.29,0.1-7.01,4.72c-0.68,4.35-4.29,6-8.43,5.72
	c-4.34-0.29-8.77-1.2-10.97-5.47c-1.92-3.74,1.34-5.84,3.65-7.97c8.88-8.16,8.51-11.85-2.65-17.25c-5.96-2.89-11.4-8.03-19.16-6.54
	c0.72,3.75,3.97,3.76,6.03,5.2c3.79,2.64,7.42,5.38,8.5,10.19c1.9,8.42-5.41,15.51-13.79,13.43c-10.42-2.58-19.61-14.49-19.57-25.46
	c0.01-2.42,0.24-4.83-1.59-6.77c-1.51-0.59-1.82,0.53-2.1,1.5c-1.04,3.56-3.3,5.51-7.07,5.09c-3.92-0.44-6.02-3.06-7.23-6.62
	c-1.42-4.2,0.08-8.57-0.71-12.72c-0.44-2.32,0.57-7.92-5.25-4.31c-0.71,0.41-1.38,0.38-2.01-0.16c-0.01-1.06-0.02-2.12-0.03-3.18
	c-1.86-2.42,0.36-5.65-1.58-8.05c-0.01-2.13-0.02-4.27-0.03-6.4c-1.66-6.75-0.3-13.62-0.78-20.41c-0.2-2.84,0.78-5.8-0.8-8.52
	c-0.01-10.7-0.02-21.4-0.03-32.11c-1.71-14.52-0.26-29.1-0.79-43.64c-0.11-3.13,0.82-6.37-0.78-9.38c0-24.08,0-48.15,0-72.23
	c1.29-3.22,1.31-6.45-0.01-9.67c-0.06-1.63-0.12-3.26-0.17-4.9C84.74,111.76,84.65,110.62,85.76,109.59z"/>
<path class="st2" d="M276.88,193.35c1.43,1.11,1.58,2.68,1.58,4.32c0.01,4.54,0.28,9.09-0.01,13.61
	c-0.37,5.83,1.93,10.97,3.68,16.24c0.76,2.28,3.85,3.51,6.04,2.43c3.46-1.71,6.29-4.11,6.33-8.45c0.04-3.47,0.11-6.94,0-10.41
	c-0.09-3.1,0.97-5.76,2.73-8.18c2.03-2.79,5.28-3.83,8.52-2.86c2.68,0.8,4.57,3.34,4.8,6.67c0.15,2.13-0.05,4.28,0.18,6.4
	c0.39,3.58,3.96,5.37,7.16,3.69c1.71-0.9,2.97-2.26,3.7-4.05c2.4-5.87,2.39-12.01,1.4-18.09c-0.47-2.9-2.24-5.45-4.89-7.07
	c-2.04-1.25-3.98-1.92-6.72-1.3c-6.83,1.53-11.52-1.11-14.28-7.13c-1.26-2.75-0.94-4.42,1.25-6.42c0.39-0.36,0.79-0.73,1.22-1.04
	c3.68-2.65,6.81-2.44,9.93,0.81c1.09,1.14,1.78,2.67,2.9,3.77c1,0.99,2.42,1.09,3.72,0.44c1.56-0.78,2.58-2.1,2.22-3.86
	c-0.67-3.26-2.2-5.99-5.55-7.29c-2.23-0.86-4.47-1.71-6.63-2.72c-1.68-0.78-1.81-3.06-0.21-3.78c2.17-0.97,4.42-1.82,6.71-2.46
	c1.91-0.53,3.74,0.03,5.15,1.48c1.3,1.34,2.54,2.73,3.72,4.16c1.01,1.22,1.82,2.62,2.89,3.79c0.95,1.03,2.18,1.5,3.58,0.67
	c1.37-0.82,1.67-2.4,0.9-4.19c-1.09-2.53-2.73-4.52-5.1-5.99c-1.34-0.83-2.62-1.83-3.73-2.94c-1.7-1.7-0.78-4.43,1.67-4.87
	c1.82-0.32,3.71-0.31,5.57-0.36c1.64-0.05,3.21-0.18,4.25-1.7c4.42,0.54,5.09,4.31,6.15,7.49c2.3,6.88,3.94,14.08,3.92,21.25
	c-0.03,15.27,1.91,30.42,2.07,45.68c0.44,40.12,2.74,80.24,1.35,120.36c-0.87,25.07-0.82,50.36-8.01,74.79
	c-2.16,12.4-5.54,23.97-19.61,28.08c-1.25,0.39-2.49,0.57-3.61-0.36c-0.53-0.04-1.06-0.06-1.6-0.05c-4.09-2.19-8.79,0.54-12.89-1.59
	c-1.06-0.01-2.11-0.01-3.17-0.02c-2.98-2.03-6.67,0.37-9.67-1.55c-1.59-0.02-3.18-0.04-4.77-0.07c-2.43-1.91-5.66,0.3-8.1-1.58
	l-0.78-0.03l-0.78,0.01c-1.31-1.48-3.51-0.17-4.85-1.54c-1.06-0.02-2.12-0.05-3.19-0.07c-1.85-1.77-4.61,0.13-6.48-1.59l-0.77-0.03
	l-0.77,0.01c-0.87-0.96-2.37-0.6-3.26-1.51c-1.06-0.03-2.12-0.06-3.17-0.09c-1.32-1.47-3.55-0.14-4.88-1.57l-0.77-0.04l-0.77,0
	c-0.88-0.96-2.38-0.59-3.27-1.53c-0.53-0.04-1.07-0.06-1.6-0.06c-1.29-1.52-3.52-0.15-4.84-1.58c-0.52-0.04-1.03-0.06-1.55-0.04
	c-0.87-0.97-2.38-0.6-3.26-1.54c-0.53-0.04-1.05-0.06-1.58-0.05c-1.31-1.48-3.53-0.17-4.86-1.6l0,0c-1.29-1.5-3.51-0.19-4.82-1.61
	l0,0c-1.29-1.49-3.51-0.19-4.83-1.6l0,0c-1.28-1.51-3.51-0.19-4.82-1.61l0,0c-1.28-1.51-3.51-0.19-4.82-1.61l0.01,0
	c-0.84-0.98-2.33-0.64-3.21-1.54c-0.53-0.05-1.06-0.07-1.59-0.07c-0.85-0.99-2.36-0.61-3.24-1.55c-0.52-0.05-1.04-0.07-1.57-0.06
	c-0.86-0.98-2.38-0.6-3.26-1.56c-0.51-0.05-1.03-0.06-1.54-0.05c-0.89-0.95-2.39-0.64-3.28-1.57h0c-1.28-1.51-3.52-0.18-4.82-1.63
	l0.01,0.01c-0.85-0.97-2.35-0.63-3.22-1.56c-0.52-0.05-1.03-0.07-1.55-0.06c-0.89-0.95-2.38-0.64-3.28-1.57l0,0
	c-1.28-1.51-3.51-0.18-4.81-1.62l0.01,0.01c-0.85-0.98-2.35-0.63-3.22-1.57c-0.51-0.05-1.03-0.06-1.54-0.05
	c-0.52-0.54-1.14-0.98-1.67-1.51c-0.53-0.05-1.07-0.08-1.6-0.08c-0.84-1.01-2.36-0.61-3.23-1.57c-0.51-0.05-1.02-0.06-1.54-0.05
	c-0.53-0.54-1.15-0.98-1.67-1.52c-0.52-0.05-1.04-0.08-1.57-0.08c-0.88-0.96-2.38-0.65-3.26-1.6l0.01,0.01
	c-0.86-0.96-2.34-0.68-3.23-1.6h0c-0.85-0.98-2.33-0.69-3.21-1.6l0,0c-0.85-0.98-2.33-0.69-3.21-1.61h0
	c-0.85-0.97-2.34-0.68-3.21-1.62l0.01,0.01c-0.86-0.96-2.36-0.66-3.22-1.63l0.02,0.02c-0.56-0.51-1.08-1.06-1.65-1.57l-0.02-0.01
	c-0.83-1-2.33-0.69-3.18-1.64l0.01,0.02c-0.55-0.52-1.07-1.07-1.64-1.57l-0.02-0.01c-0.82-1-2.34-0.69-3.18-1.66l0.02,0.02
	c-0.56-0.52-1.09-1.07-1.64-1.6l0,0c-0.53-0.54-1.05-1.08-1.62-1.57l-0.03-0.02c-1.45-1.29-3.29-2.02-4.77-3.28l0.02,0.03
	c-0.57-0.51-1.11-1.05-1.62-1.62l0.02,0.02c-0.57-0.51-1.11-1.05-1.62-1.62l0.02,0.02c-0.57-0.51-1.11-1.05-1.62-1.63l0.03,0.02
	c-0.99-0.83-0.66-2.35-1.67-3.16l-0.01-0.02c-0.5-0.57-1.04-1.09-1.58-1.62l0,0c-0.53-0.55-1.07-1.08-1.6-1.64l0.02,0.02
	c-0.97-0.85-0.65-2.35-1.65-3.18l-0.01-0.01c-0.51-0.56-1.06-1.09-1.57-1.64l0.02,0.02c-0.97-0.86-0.68-2.35-1.63-3.22l0.01,0.01
	c-0.95-0.87-0.66-2.36-1.62-3.22l0.01,0.01c-0.94-0.88-0.66-2.36-1.6-3.24l0.01,0.02c-1.47-1.29-0.14-3.53-1.63-4.82l0,0.01
	c-1.43-1.31-0.12-3.53-1.61-4.83l0,0.01c-1.73-1.85,0.17-4.6-1.61-6.43l0,0.01c-1.1-1.6-1.13-3.2-0.02-4.8
	c0.02-1.07-0.01-2.14,0.08-3.21c0.08-1.05,0.16-2.18,1.49-2.48c1.22-0.28,2.03,0.51,2.75,1.27c2.51,2.62,3.91,5.72,3.7,9.41
	c-0.1,1.86-0.12,3.75-0.49,5.56c-0.52,2.5,0.4,4.79,0.88,7.07c0.51,2.44,2.41,4.09,4.98,4.67c3.33,0.74,5.78-1.34,5.58-4.8
	c-0.04-0.78-0.57-1.52-0.64-2.3c-0.13-1.41,1.05-2.27,2.62-2.25c2.1,0.03,3.79,0.88,4.39,2.84c0.9,2.96,2.77,5.84,0.9,9.21
	c-0.93,1.67-0.63,3.67,0.29,5.42c3.82,7.19,8.36,13.66,16.43,16.73c5.16,1.97,8.66,1.08,11.9-3.34c2.34-3.2,1.84-8.44-1.12-11.75
	c-2.53-2.83-5.44-5-9.11-6.31c-4.38-1.56-6.34-3.9-5.32-5.77c1.62-2.95,4.55-2.21,7.16-2.27c1.96-0.05,3.61,0.92,5.28,1.73
	c4.8,2.36,9.58,4.75,14.34,7.2c1.41,0.73,2.82,1.56,4.03,2.58c5.13,4.34,5.24,9.12,0.32,13.54c-1.18,1.06-2.67,1.76-3.89,2.78
	c-1.43,1.19-2.79,2.48-4.05,3.85c-0.84,0.92-0.6,1.99,0.28,2.82c3.33,3.11,7.45,4.07,11.8,3.86c3.22-0.15,4.59-2.3,4.43-6.02
	c-0.05-1.06-0.15-2.13-0.02-3.18c0.24-1.99,2.12-3.33,4-2.83c1.8,0.48,3.59,1.05,5.34,1.71c2.79,1.04,4.69-0.44,6.26-2.31
	c2.15-2.56,2.44-5.93,0.69-8.16c-2.67-3.39-5.74-6.35-9.98-7.76c-3.03-1.01-6.05-2.06-9.07-3.12c-6.4-2.25-9.51-6.59-8.59-13.5
	c10.7-3.17,20.71-0.74,30.48,3.71c-0.11,4.19-3.7,2.4-5.53,3.23c6.11,0.51,11.86,2.48,16.61,6.66c5.66,4.98,7.87,11.37,6.38,18.77
	c-1.28,6.37-5.82,9.18-11.9,10.21c-2.61,0.44-5.81,1.01-5.09,4.73c0.62,3.19,3.65,3.69,6.35,3.75c5.51,0.12,11.07-1.3,16.28,2.28
	c2.26,1.55,3.9-0.65,4.31-3.06c0.28-1.65-0.39-3.14-1.28-4.52c-1.69-2.6-4.65-4.97-2.26-8.52c1.63-2.43,4.23-3.19,7.08-2.7
	c4.38,0.76,6.01,4.02,6.9,7.88c1.59,6.91,1.65,13.78-0.71,20.54c-1.77,5.08,0.69,6.91,5.29,7.28c9.08,0.74,13.83-4.96,12.12-13.87
	c-1.34-6.96-2.31-13.59-10.76-15.86c-4-1.07-3.83-5.33-4.38-8.74c-0.81-4.99-3.29-8.33-8.73-8.87c-9.29-0.93-10.24-2.66-6.73-11.87
	c2.88-1.62,5.67-0.54,8.44,0.32c4.55,1.41,9.14,2.74,13.54,4.52c12.99,5.24,25.27,3.44,37.18-3.18c5.01,3.14,6.3,7.89,4.87,13.19
	c-1.39,5.17-5.92,6.42-10.66,6.94c-1.59,0.17-3.22,0.17-4.75,0.68c-1.87,0.62-3.59,1.63-3.21,3.91c0.31,1.88,2.08,2.26,3.71,2.44
	c3.72,0.41,7.49-0.13,11.19,0.61c3.98,0.8,7.14,2.62,7.16,7.25c0.02,4.63-3.09,6.46-7.08,7.31c-2.1,0.44-4.25,0.35-6.38,0.52
	c-3.62,0.29-6.14,1.86-6.48,5.75c-0.31,3.53,1.11,6.2,4.32,7.88c7.93,4.14,22.82-2.52,25.19-11.31c0.52-1.91,1.01-3.81-2.1-3.85
	c-8.19-0.09-4.74-4.04-2.43-7.52c0.59-0.88,1.4-1.61,2.13-2.39c3.37-3.55,3.28-5.98-2.14-6.78c-1.58-0.24-3.15-0.64-4.65-1.2
	c-1.75-0.65-3.72-1.21-4-3.43c-0.33-2.53,1.53-3.76,3.36-4.96c13.41-8.84,13.38-9.19-1.34-16.69c-1.94-0.99-3.82-1.98-4.25-4.42
	c3.2-18.83,1.52-37.82,1.93-56.73c0.08-3.46-0.22-6.96,0.89-10.31c2.31-4.21,4.3-1.71,5.83,0.54c2.04,2.97,2.43,6.44,1.88,10
	c-0.37,2.37-0.9,4.75-0.6,7.16c0.3,2.42,0.69,5.11,3.5,5.72c3.18,0.69,3.96-2.08,4.74-4.33c1.06-3.03,1.85-6.2,4.64-8.22
	c5.33-3.84,12.12-1.03,14.44,7.15c1.91,6.71,6.39,8.52,12.13,9.77c2.38,0.52,3.72-0.01,3.97-2.39c0.92-8.84,0.21-17.34-5.65-26.48
	c-1.67,5.25-0.84,10.91-7.35,10.54c-6.21-0.35-9.69-3.72-11.51-9.4c-0.7-2.18-0.93-5.4-3.91-5.35c-2.84,0.05-3.18,3.2-4.1,5.35
	c-0.84,1.98-1.56,4.3-4.02,4.51c-2.57,0.23-3.55-2.13-4.46-3.99c-4.33-8.87-5.41-17.86-0.33-26.84c3.82-6.75,8.63-9.11,15.98-7.92
	c6.43,1.04,9.68,5.07,10.53,11.36c0.28,2.04,0.24,4.8,3.05,4.91c3.2,0.12,4.59-2.5,5.18-5.2c1.02-4.69,0.28-9.05-3.4-12.53
	c-1.75-1.65-3.79-2.96-5.51-4.65c-3.66-3.58-7.15-10.42-11.11-0.11c-0.9,2.36-3.46,2.1-5.65,1.44c-2.31-0.69-4.45-1.84-6.75-2.54
	c-6.26-1.88-7.67-0.95-7.88,5.65c-0.23,7.21,0.24,14.44-0.24,21.63c-0.15,2.24,1.09,6.46-4.05,5.37c-1.5-2.07-1.89-4.47-1.79-6.87
	c0.94-21.87-1.47-43.66-1.49-65.5C274.61,198.05,274.66,195.37,276.88,193.35z"/>
<path class="st3" d="M567.72,148.34c0.96-1.66,1.45-3.63,3.14-4.81c1.05,0.13,1.77,0.72,2.22,1.65c0.25,1.25,0.4,2.54,0.9,3.73
	c-0.23,0.37-0.19,0.72,0.1,1.04c1.96,2.55-0.12,5.84,1.55,8.44c-0.2,0.43-0.16,0.84,0.12,1.22c1.98,3.06-0.36,6.8,1.54,9.88
	c-0.2,0.48-0.16,0.94,0.12,1.38c1.8,3.19-0.24,6.91,1.41,10.12c0.05,0.91,0.11,1.81,0.16,2.72c2.06,4.77-0.44,10,1.5,14.78
	c-0.24,0.43-0.22,0.85,0.04,1.26c1.82,6.92,0.38,13.97,0.85,20.95c-1.34,6.91,3.1,14.05-0.83,20.86c-2.92,1.54-5.3,3.87-6.95,6.52
	c-3.17,5.11-7.78,8.77-11.81,13.02c-4.03,4.25-9.5,5.95-14.88,7.41c-9.26,2.51-18.44,5.2-27.58,8.14
	c-8.11,2.61-16.47,4.45-24.22,8.13c-1.43,0.68-2.85,1.39-4.28,2.08c-1.95,0.94-3.27,0.37-3.31-1.63
	c-0.11-5.88-0.08-11.76-0.11-17.64c-0.01-1.68,0.77-3.01,1.61-4.42c3.75-6.32,9.13-11.22,14.61-15.83
	c9.05-7.6,19.27-13.25,30.78-16.51c5.88-1.67,11.54-4.11,17.27-6.27c0.68-0.25,1.21-0.9,1.91-1.44c-0.62-0.34-1.06-0.79-1.42-0.74
	c-12.99,1.86-25.4,5.28-36.77,12.23c-7.73,4.73-15.91,8.72-23.96,12.9c-3.27,1.7-4.02,1.11-4.04-2.82c-0.04-8.55-0.01-17.11,0-25.66
	c3.99-8.04,11.69-12.3,18.29-17.61c16.02-12.91,33.61-23.74,49.54-36.79C560.66,160.17,564.94,154.84,567.72,148.34z"/>
<path class="st3" d="M492.18,72.91c2.63,0,5.25,0,7.88,0c0.04-0.31,0.09-0.62,0.13-0.93c-2.07-0.66-4.1-1.65-6.21-1.92
	c-3.68-0.48-7.32-1.2-10.97-1.74c-3.88-0.58-7.95-0.77-11.86,0.58c-1.24,0.43-2.6,0.77-3.89,0.71c-9.11-0.46-17.28,2.93-25.09,6.79
	c-4.61,2.28-8.15,2.45-12.52-0.16c-11.97-7.15-25.29-11.03-38.44-15.31c-2.27-0.74-4.47-1.67-6.71-2.52
	c-0.22-2.57,1.81-3.19,3.55-3.53c10.98-2.2,21.75-5.79,33.16-5.26c2.22,0.2,4.53-0.51,6.66,0.66c0.48,0.27,0.98,0.33,1.5,0.17
	c1.92,1.64,4.56-0.01,6.53,1.4c0.9,0.11,1.81,0.23,2.71,0.34c1.65,0.97,3.74,0.16,5.34,1.31c0.44,0.28,0.91,0.34,1.41,0.19
	c1.97,1.61,4.71-0.15,6.66,1.52c0.35,0.29,0.74,0.34,1.16,0.16c1.59,1.07,3.68,0.17,5.23,1.34c0.43,0.29,0.88,0.35,1.37,0.2
	c1.47,1.23,3.55,0.22,5.04,1.35c0.45,0.29,0.94,0.36,1.45,0.23c1.43,1.3,3.52,0.22,4.98,1.39c0.44,0.29,0.92,0.36,1.43,0.23
	c1.44,1.29,3.55,0.19,5.01,1.41c0.41,0.29,0.85,0.37,1.33,0.22c1.5,1.22,3.64,0.14,5.11,1.44c0.36,0.29,0.76,0.36,1.2,0.21
	c1.13,0.61,2.48,0.56,3.58,1.23c0.48,0.3,1,0.38,1.55,0.27c1.36,1.41,3.53,0.18,4.92,1.49c0.35,0.3,0.75,0.38,1.19,0.23
	c1.14,0.61,2.51,0.54,3.61,1.26c0.43,0.3,0.9,0.39,1.41,0.27c1.44,1.3,3.66,0.11,5.05,1.57l-0.04-0.02
	c1.33,1.43,3.53,0.17,4.88,1.57l0,0c3.05,1.55,6.88,0.81,9.63,3.27l-0.04-0.02c2.62,1.19,5.79,0.92,8.06,3.03
	c0.34,0.31,0.73,0.42,1.18,0.31c2.32,0.91,5.03,0.92,6.88,2.95c0.28,0.32,0.63,0.42,1.04,0.3c2.48,0.72,5.09,1.14,6.92,3.23
	l-0.1-0.08c1,0.76,2.56,0.48,3.29,1.75l-0.14-0.15c0.77,0.29,1.25,0.95,1.86,1.44l0.02,0.01c0.78,1.03,2.44,0.64,3.07,1.91
	l-0.14-0.16c0.8,0.36,1.37,0.94,1.74,1.72l-0.15-0.12c1.58,1.28,2.24,3.22,3.44,4.77l-0.03-0.03c3.5,2.3,3.24,6.46,4.82,9.7
	l-0.05-0.08c1.59,1.26,0.24,3.54,1.68,4.86l-0.02-0.05c1.48,1.34,0.27,3.54,1.57,4.94l-0.06-0.11c1.99,1.78-0.01,4.62,1.72,6.48
	l-0.04-0.07c2.29,4.01,1.93,8.68,3.24,12.93l-0.04-0.08c1.44,2.04,1.08,4.15,0.26,6.28c-6.05,4.73-13.26,6.42-20.52,8.27
	c-8.45,2.15-16.96,1.32-25.45,1.47c-7.48,0.13-14.77,1.39-22,3.13c-5.77,1.39-11.15,3.53-15.24,8.2c-1.4,1.6-3.32,0.97-3.57-0.86
	c-1.17-8.66-2.07-17.37-3.59-25.97c-0.84-4.77,0.62-8.14,3.81-11.44c7.4-7.65,16.52-12.47,26.2-16.39
	c3.42-1.39,6.97-2.44,10.44-3.63c-0.37-1.22-1.2-1.26-1.83-1.12c-12.75,2.81-25.26,6.41-37.07,12.1c-1.2,0.58-2.38,1.23-3.63,1.69
	c-2.8,1.04-4.23,0.59-6.15-1.9c-3.09-3.99-6.14-8-9.21-12c2.34-5.73,7.11-8.4,12.72-9.91c15.1-4.06,30.28-7.73,45.7-10.43
	c1.04-0.25-0.24-1.53,0.2-0.55c0.16,0.35-0.03,0.59-0.57,0.56c-9.58-0.56-18.66-3.5-27.83-6C492.4,75.16,491.98,74.1,492.18,72.91z"
	/>
<path class="st4" d="M334.9,417.84c-0.39-2.17,0.13-4.19,0.68-6.29c3.48-13.49,5.05-27.22,5.77-41.14
	c1.69-32.59,1.62-65.2,0.95-97.79c-0.45-21.9-0.62-43.82-1.61-65.7c-0.46-10.13-0.65-20.29-1.4-30.41
	c-0.57-7.7-1.59-15.4-4.24-22.76c-0.9-2.49-1.36-5.19-3.49-7.07c-3.58-8.94-10.72-14.44-18.72-18.99
	c-9.18-5.21-19.31-7.76-29.55-9.76c-17.55-3.43-35.12-6.77-52.44-11.28c-2.32-0.61-4.63-1.3-6.94-1.95c2.05-2,4.61-1.6,6.8-0.81
	c3.14,1.14,6.32,0.85,9.49,1.18c7.13,0.74,14.23,1.73,21.34,2.63c0.79,0.1,1.59,0.51,2.35,0.42c7.28-0.81,14.36,1.09,21.47,1.91
	c12.44,1.43,24.79,4.07,36.21,9.42c14.36,6.72,23.78,17.89,27.52,33.44c2.05,8.54,3.78,17.16,3.32,26.06
	c-0.15,2.93,0.04,5.81,0.91,8.72c0.68,2.24,0.61,4.75,0.63,7.14c0.07,8.3,0,16.6,0.05,24.89c0.03,4.79-0.33,9.58,1.27,14.3
	c0.66,1.94,0.29,4.24,0.3,6.38c0.01,23.29,0.01,46.57,0.01,69.86c0,3.2-0.01,6.35-1.06,9.51c-0.66,1.96-0.49,4.22-0.5,6.35
	c-0.05,8.83,0,17.67-0.05,26.5c-0.02,4.26-0.03,8.44-1.14,12.71c-0.92,3.53-0.34,7.44-0.45,11.18c-0.17,5.58,0.67,11.24-1.38,16.68
	c-0.36,0.95-0.19,2.12-0.17,3.19c0.05,2.91,0.93,3.95,3.7,4.12c2.14,0.13,4.28,0.08,6.42,0.08c23.57,0.01,47.13,0.01,70.7,0.03
	c3.47,0,6.9-0.09,10.31,1.09c1.94,0.67,4.23,0.47,6.36,0.47c15.27,0.03,30.53,0.03,45.8,0.01c2.67,0,5.36,0.24,7.92-0.85
	c2.03-0.87,4.2-0.66,6.34-0.73c20.83-0.71,40.57-5.72,59.14-15.19c2.61-1.33,4.98-3.13,7.61-4.4c1.85-0.9,2.09,0.79,2.36,2.09
	c0.89,2.12,1.18,4.22-0.19,6.28c-0.34,0.28-0.39,0.6-0.13,0.96c-0.96,1.69-0.08,3.86-1.45,5.44l0.01-0.03
	c-1.46,1.31-0.15,3.55-1.63,4.85l0.02-0.04c-0.95,0.86-0.59,2.49-1.87,3.15l0.16-0.16c-0.36,0.81-0.94,1.4-1.77,1.72l0.04-0.18
	c-0.66,0.78-1.43,1.45-2.28,2.02c-3.13,1.76-6.59,2.38-10.06,2.26c-20.59-0.7-41.09,1.59-61.65,1.78
	c-37.91,0.35-75.78,2.33-113.66,3.51c-13.02,0.41-26.1,1.86-39.02,4.09C340.98,419.21,337.71,420.55,334.9,417.84z"/>
<path class="st5" d="M334.9,417.84c12.1-2.12,24.25-3.65,36.51-4.79c12.03-1.12,24.09-0.59,36.06-1.63
	c17.11-1.48,34.28-0.38,51.34-1.63c17.65-1.29,35.35-0.38,52.95-1.64c15.78-1.12,31.56-0.85,47.33-1.44
	c3.45-0.13,6.88-0.8,10.32-1.22c0.97,1.59,1.04,3.15-0.09,4.7l0.01-0.01c-1.49,1.29-0.16,3.53-1.64,4.82l0.02-0.03
	c-0.93,0.89-0.66,2.37-1.6,3.25l0.01-0.01c-0.96,0.86-0.66,2.37-1.66,3.21l0.04-0.03c-0.49,0.58-1.06,1.09-1.55,1.67l-0.02,0.03
	c-1.02,0.8-0.68,2.35-1.72,3.14l0.05-0.04c-0.48,0.62-1.02,1.16-1.64,1.64l0.03-0.03c-0.48,0.61-1.03,1.16-1.64,1.64l0.04-0.05
	c-0.79,1.04-2.34,0.7-3.14,1.71l-0.03,0.02c-0.58,0.49-1.09,1.05-1.67,1.54l0.03-0.04c-0.87,1.02-2.39,0.71-3.31,1.62
	c-0.51-0.01-1.01,0.03-1.52,0.12c-0.9,0.89-2.35,0.58-3.25,1.49l0.04-0.02c-6.84,2.39-14.11-0.66-20.97,1.63
	c-3.19,0.02-6.37,0.03-9.56,0.05c-10.26,1.71-20.59,0.27-30.88,0.8c-3.13,0.16-6.36-0.8-9.38,0.76c-1.57,0-3.15,0.01-4.72,0.01
	c-11.07,1.81-22.22,0.27-33.32,0.83c-3.93,0.2-7.96-0.88-11.79,0.76c-2.64,0.01-5.28,0.02-7.93,0.03
	c-11.87,1.75-23.81,0.28-35.7,0.83c-3.66,0.17-7.43-0.87-10.99,0.76c-1.04,0-2.08,0-3.13,0.01c-8.5,2.32-17.33-0.7-25.84,1.58
	c-1.57,0.03-3.15,0.05-4.72,0.08c-6.42,1.15-12.83,1.39-19.23-0.12c0.87-1.46,2.46-1.91,3.83-2.64c6.42-3.43,10.09-8.97,12.1-15.75
	C333.73,422.93,334.27,420.38,334.9,417.84z"/>
<path class="st3" d="M577.61,372.07c-0.18-2.82-0.35-5.64-0.57-9.2c-10.97,12.52-24.82,16.79-40.81,18.01
	c7.28-10.32,14.14-20.22,23.21-29.45c-4.71,1.49-6.89,2.55-9.45,5.06c-5.7,5.62-12.25,10.25-17.92,15.96
	c-3.68,3.71-8.66,6.15-13.14,9.04c-1.08,0.7-2.48,1.22-3.75,1.25c-5.08,0.13-10.16,0.08-15.24-0.02c-1.46-0.03-2.78-1.03-2.66-2.46
	c0.46-5.69-1.94-11.01-1.89-16.62c13.29-17.95,23.17-38.35,39.26-54.3c5.15-5.11,10.69-9.56,16.97-13.23
	c10.21-5.97,19.79-12.71,24.99-23.97c0.64-1.39,1.45-3.32,3.22-3.07c2.38,0.34,2.19,2.68,2.29,4.49c0.72,13.06-1,26.07-0.76,39.13
	c-0.46,11.63,0.97,23.28-0.81,34.87c-0.03,1.47-0.06,2.93-0.1,4.4c-1.95,5.91,0.63,12.19-1.48,18.08c-0.26,0.42-0.3,0.86-0.1,1.32
	C578.67,371.98,578.24,372.2,577.61,372.07z"/>
<path class="st6" d="M580.81,310.97c-0.08-11.47-0.15-22.93-0.23-34.4c-0.01-1.99-0.03-3.97-0.05-5.97
	c-1.64,0.17-1.57,1.11-1.82,1.78c-3.14,8.34-9.27,14.15-16.29,19.18c-4.11,2.95-8.35,5.67-12.8,8.12c-3.95,2.18-7.4,5.11-10.7,8.28
	c-7.73,7.41-14.56,15.46-20.15,24.64c-4.7,7.72-10.12,14.99-15.07,22.56c-2.23,3.4-4.89,6.28-8.3,8.47
	c-1.45-7.29-3.27-14.52-3.24-22.04c0.01-1.33,0.05-2.75-0.37-3.97c-3.68-10.58,1.86-19.2,5.95-28.1c0.62-1.35,2.09-2.46,3.41-3.29
	c3.38-2.14,6.87-4.1,10.36-6.06c17.44-9.82,34.88-19.63,52.33-29.42c3.83-2.15,6.78-5.12,8.98-8.91c2.26-3.9,3.8-8.16,6.86-11.7
	c1.97-2.28,0.66-5.69,0.86-8.59c0.09-7.09,0.18-14.17,0.27-21.26c0.67-0.21,1.08,0.04,1.27,0.69c0.08,3.11,0.16,6.22,0.24,9.34
	c1.08,22.46,1.13,44.93-0.03,67.39c-0.07,4.18-0.14,8.36-0.21,12.54C581.89,310.93,581.45,311.15,580.81,310.97z"/>
<path class="st3" d="M283.63,37.35c-3.94,0.6-7.9,1.11-11.82,1.83c-9.69,1.78-19.64,1.52-29.26,3.42
	c-9.66,1.91-19.45,2.8-29.15,4.13c-8.67,1.19-17.33,2.58-26,3.8c-11.48,1.61-22.09,6-32.14,11.73c-0.23,0.13-0.44,0.3-0.65,0.46
	c-2.77,2.07-4.49,6.26-7.92,6.44c-4.67,0.25-9.42-1.15-14.14-1.77c-7.37-0.97-14.63-2.53-22.14-2.67c-4.14-0.08-7.8,1.79-11.82,1.78
	c-0.45-0.38-0.59-0.73-0.4-1.07c0.18-0.32,0.35-0.48,0.51-0.48l-0.14,0.1c0.45-0.7,0.97-1.33,1.75-1.69l-0.12,0.14
	c3.07-2.43,5.52-5.77,9.71-6.54l-0.11,0.08c0.77-1.19,2.32-0.9,3.28-1.74l-0.09,0.06c0.83-1.1,2.34-0.84,3.3-1.66l-0.09,0.06
	c0.84-1.1,2.34-0.85,3.32-1.64l-0.11,0.07c0.96-1.17,2.5-1.01,3.71-1.59c0.42,0.11,0.79,0.01,1.09-0.3c0.99-0.85,2.42-0.6,3.43-1.4
	c0.52,0.1,0.99-0.01,1.42-0.33c0.98-0.68,2.32-0.45,3.21-1.33l-0.05,0.02c1.35-1.49,3.59-0.23,4.97-1.61
	c0.54,0.11,1.04,0.01,1.51-0.28c1.09-0.67,2.45-0.6,3.55-1.23c0.45,0.15,0.86,0.07,1.23-0.22c1.52-1.24,3.64-0.26,5.19-1.39
	c0.96-0.13,1.93-0.26,2.89-0.39c1.51-0.99,3.53-0.03,4.97-1.28c0.5,0.16,0.97,0.1,1.42-0.17c2.1-1.43,4.76-0.01,6.87-1.35
	c1.47-0.12,2.94-0.25,4.41-0.37c3.17-1.49,6.77,0.41,9.91-1.29c0.96-0.05,1.93-0.09,2.89-0.14c7.52-2.08,15.35,0.53,22.87-1.45
	c7.39-0.11,14.79-0.22,22.18-0.34c9.6-0.91,19.2-0.97,28.81,0.02c8.98,0.11,17.96,0.23,26.94,0.34
	C283.53,36.25,283.79,36.67,283.63,37.35z"/>
<path class="st7" d="M421.91,50.15c-12.08,2.41-24.16,4.81-36.23,7.26c-0.44,0.09-0.78,0.67-1.17,1.02c-1.06,0-2.13-0.01-3.19-0.01
	c-0.85-1-2.36-0.61-3.24-1.54c-10.63-2.39-21.25-4.84-31.9-7.15c-11.69-2.53-23.43-4.8-35.09-7.43c-4.59-1.04-9.65-0.95-13.41-4.53
	c2.59-1.74,5.31-1.08,8.02-0.42c3.63,0.12,7.25,0.25,10.88,0.37c0.68,0.38,1.34,0.78,2.01,1.19c8.77,0.74,17.41,2.33,25.77,4.85
	c20.33,6.14,40.98,4.07,61.62,3.2c0.85-0.31,1.71-0.31,2.56,0c1.05,0.1,2.09,0.19,3.14,0.29c1.94,1.58,4.49,0.08,6.51,1.29
	c1.04,0.11,2.08,0.21,3.12,0.32C421.89,49.11,422.08,49.55,421.91,50.15z"/>
<path class="st8" d="M406.99,47.44c-0.94,0.43-1.86,1.18-2.83,1.24c-5.55,0.35-11.12-0.18-16.62,1.54c-2.43,0.76-5.3,0.02-7.96,0.21
	c-11.83,0.85-23.2-1.75-34.59-4.39c-9.25-2.14-18.39-4.81-27.9-5.65c-0.11-0.01-0.18-0.43-0.26-0.66c0.96,0.47-0.01-1.66,0.42-0.68
	c4.19-1.08,8.38-0.95,12.58-0.08c2.58,0.11,5.16,0.21,7.74,0.32c4.25,1.82,8.9-0.36,13.17,1.32c2.01,0.1,4.03,0.21,6.04,0.31
	c3.19,1.59,6.8-0.19,10.02,1.24c2.04,0.11,4.09,0.23,6.13,0.34c3.7,1.79,7.87-0.37,11.58,1.37c0.99,0.07,1.99,0.14,2.98,0.21
	c3.11,1.78,6.74-0.25,9.86,1.36c1.01,0.08,2.02,0.16,3.03,0.24C402.27,47.4,405.21,45.24,406.99,47.44z"/>
<path class="st9" d="M582.27,297.73c0-14.17-0.01-28.35-0.01-42.52c0-8.29,0.03-16.58,0.04-24.87c1.39,1.13,1.49,2.7,1.49,4.32
	c0,19.59,0,39.18,0,58.77C583.79,295.05,583.68,296.61,582.27,297.73z"/>
<path class="st9" d="M85.62,199.76c2.2,1.84,1.54,4.39,1.55,6.71c0.05,15.44,0.03,30.88,0.03,46.32c-2.24-1.82-1.56-4.38-1.57-6.69
	C85.59,230.64,85.61,215.2,85.62,199.76z"/>
<path class="st9" d="M369.98,442.29c1.92-2.05,4.44-1.45,6.77-1.46c13.31-0.08,26.61-0.09,39.92-0.12c-1.81,2.27-4.37,1.59-6.69,1.6
	C396.65,442.33,383.32,442.3,369.98,442.29z"/>
<path class="st9" d="M424.6,440.67c1.92-2.03,4.44-1.45,6.77-1.47c12.78-0.08,25.56-0.09,38.34-0.12c-1.81,2.27-4.37,1.6-6.69,1.6
	C450.21,440.72,437.4,440.68,424.6,440.67z"/>
<path class="st9" d="M474.43,439.07c1.66-1.82,3.87-1.47,5.96-1.47c11.43-0.05,22.86-0.06,34.29-0.09
	c-1.56,2.01-3.81,1.58-5.89,1.58C497.34,439.11,485.89,439.08,474.43,439.07z"/>
<path class="st9" d="M580.81,310.97c0.42-0.23,0.84-0.47,1.26-0.7c0.04,10.77,0.09,21.54,0.12,32.31c0.01,1.84,0.09,3.72-1.64,4.99
	c0.09-9.28,0.19-18.56,0.27-27.85C580.85,316.8,580.81,313.89,580.81,310.97z"/>
<path class="st9" d="M87.22,284.88c1.69,1.33,1.57,3.23,1.57,5.08c0.01,7.95,0.01,15.9,0.01,23.85c-1.73-1.31-1.59-3.22-1.59-5.07
	C87.22,300.79,87.22,292.84,87.22,284.88z"/>
<path class="st9" d="M255.9,35.76c-9.6-0.01-19.2-0.02-28.81-0.02c0.93-0.45,1.86-1.27,2.8-1.28c7.74-0.1,15.47-0.1,23.21,0
	C254.04,34.48,254.97,35.31,255.9,35.76z"/>
<path class="st9" d="M85.76,109.59c-0.11,1.12-0.21,2.25-0.32,3.37c-0.18-0.2-0.48-0.37-0.52-0.59c-1.53-9.08-2.11-18.09,2.33-26.65
	C86.39,93.66,85.38,101.58,85.76,109.59z"/>
<path class="st9" d="M341.02,443.88c1.4-1.58,3.29-1.51,5.15-1.51c6.9-0.03,13.79-0.05,20.69-0.07c-1.3,1.75-3.21,1.63-5.07,1.63
	C354.86,443.91,347.94,443.89,341.02,443.88z"/>
<path class="st9" d="M204.91,36.07c-1.26,0.36-2.5,0.98-3.77,1.03c-6.36,0.22-12.73,0.3-19.1,0.42c1.29-1.68,3.14-1.59,4.96-1.58
	C192.97,35.98,198.94,36.03,204.91,36.07z"/>
<path class="st9" d="M305.7,37.34c-2.67,0.14-5.35,0.28-8.02,0.42c-4.69-0.13-9.37-0.27-14.05-0.4c-0.26-0.42-0.52-0.84-0.78-1.25
	c6.15-0.05,12.3-0.1,18.45-0.15C302.91,35.94,304.51,35.98,305.7,37.34z"/>
<path class="st9" d="M317.06,443.83c6.41,0.04,12.82,0.08,19.23,0.12c-0.88,0.49-1.75,1.4-2.64,1.42c-5.73,0.13-11.46,0.13-17.19,0
	c-0.89-0.02-1.76-0.92-2.64-1.41C314.91,443.92,315.98,443.87,317.06,443.83z"/>
<path class="st9" d="M582.06,221c-0.42-0.23-0.85-0.46-1.27-0.69c-0.09-6.85-0.19-13.71-0.28-20.56c1.73,1.24,1.69,3.08,1.67,4.91
	C582.15,210.11,582.11,215.56,582.06,221z"/>
<path class="st9" d="M524.25,437.46c1.4-1.57,3.28-1.46,5.13-1.48c5.28-0.05,10.56-0.1,15.84-0.16c-1.04,1.5-2.6,1.67-4.23,1.66
	C535.4,437.48,529.82,437.47,524.25,437.46z"/>
<path class="st9" d="M578.97,370.04c0.27-6.04-0.64-12.18,1.48-18.08c0.04,4.64,0.08,9.29,0.12,13.94
	C580.59,367.5,580.37,369,578.97,370.04z"/>
<path class="st9" d="M562.84,105.12c-2.18-2.95-3.73-6.21-4.82-9.7c3.19,0.13,4.79,1.83,4.85,4.98
	C562.9,101.97,562.85,103.54,562.84,105.12z"/>
<path class="st9" d="M570.88,134.02c-1.99-4.08-3.07-8.39-3.24-12.93c2.28,1.66,3.15,4.04,3.26,6.71
	C570.99,129.88,570.89,131.95,570.88,134.02z"/>
<path class="st9" d="M580.47,198.5c-2.01-4.77-1.43-9.81-1.5-14.78c1.39,1.02,1.61,2.5,1.6,4.08
	C580.54,191.36,580.51,194.93,580.47,198.5z"/>
<path class="st9" d="M109.89,56.97c-2.96,2.58-6.01,5.05-9.71,6.54C102.26,59.61,104.74,56.32,109.89,56.97z"/>
<path class="st9" d="M521.11,74.55c-3.47-0.33-6.73-1.28-9.63-3.27c1.57,0.01,3.15,0.02,4.72,0.02
	C518.55,71.31,520.18,72.4,521.11,74.55z"/>
<path class="st9" d="M299.35,442.32c2.88,0,5.77,0.01,8.65,0.01c1.61,0,3.15,0.18,4.23,1.59c-2.89,0-5.78,0-8.67,0.01
	C301.95,443.92,300.4,443.77,299.35,442.32z"/>
<path class="st9" d="M329.82,38.96c-4.19,0.03-8.39,0.06-12.58,0.08c-0.2-0.45-0.42-0.89-0.65-1.33c3.21-0.05,6.42-0.1,9.63-0.15
	C327.6,37.54,328.85,37.89,329.82,38.96z"/>
<path class="st9" d="M350.72,40.6c-4.43-0.03-8.94,0.76-13.16-1.32c3.2-0.04,6.4-0.08,9.59-0.11
	C348.54,39.16,349.77,39.52,350.72,40.6z"/>
<path class="st9" d="M384.48,43.86c-3.91-0.02-7.9,0.62-11.58-1.37c2.67-0.04,5.35-0.08,8.02-0.11
	C382.32,42.37,383.56,42.75,384.48,43.86z"/>
<path class="st9" d="M537.19,80.82c-2.63-0.2-4.9-1.23-6.88-2.95c1.05-0.04,2.09-0.08,3.14-0.12
	C535.61,77.67,536.95,78.57,537.19,80.82z"/>
<path class="st9" d="M90.62,76.17c-0.51,3.06-1.6,5.9-3.21,8.55C87.27,81.42,86.33,77.81,90.62,76.17z"/>
<path class="st9" d="M529.13,77.56c-2.88-0.5-5.67-1.23-8.06-3.03C524.14,74.5,527.42,73.94,529.13,77.56z"/>
<path class="st9" d="M286.51,440.75c2.08,0,4.17,0,6.25,0.02c1.36,0.01,2.54,0.44,3.42,1.53c-2.09,0-4.18,0-6.26,0
	C288.55,442.3,287.37,441.87,286.51,440.75z"/>
<path class="st9" d="M397.33,45.43c-3.35,0.04-6.78,0.56-9.86-1.36c2.11-0.03,4.23-0.06,6.34-0.08
	C395.18,43.97,396.41,44.34,397.33,45.43z"/>
<path class="st9" d="M366.78,42.15c-3.4,0.08-6.86,0.64-10.01-1.24c2.14-0.05,4.27-0.1,6.41-0.14
	C364.56,40.74,365.81,41.07,366.78,42.15z"/>
<path class="st9" d="M179.15,37.67c-3.12,1.84-6.55,1.34-9.91,1.29c0.95-1.08,2.18-1.42,3.56-1.39
	C174.91,37.59,177.03,37.63,179.15,37.67z"/>
<path class="st9" d="M85.61,117.86c2.38,3.22,2.35,6.44,0.01,9.67C85.61,124.3,85.61,121.08,85.61,117.86z"/>
<path class="st9" d="M577.29,169.5c-1.92-3.07-1.49-6.51-1.54-9.88c1.16,0.87,1.61,2.07,1.6,3.47
	C577.34,165.23,577.31,167.36,577.29,169.5z"/>
<path class="st9" d="M578.82,181c-1.91-3.17-1.4-6.68-1.41-10.12c1.07,0.84,1.55,1.97,1.54,3.29
	C578.93,176.45,578.86,178.72,578.82,181z"/>
<path class="st9" d="M406.99,47.44c-2.18-0.68-4.71-0.08-6.62-1.78c2.76,0.23,5.75-1.03,8.18,1.29
	C408.03,47.12,407.51,47.28,406.99,47.44z"/>
<path class="st9" d="M545.15,84.35c-2.63-0.39-4.93-1.48-6.92-3.23C541.21,80.76,543.97,80.86,545.15,84.35z"/>
<path class="st9" d="M575.63,158.4c-1.82-2.58-1.51-5.54-1.55-8.44C576.9,152.35,575.4,155.53,575.63,158.4z"/>
<path class="st9" d="M88.83,320.22c2.59,2.28,1.24,5.33,1.58,8.05C87.78,326,89.19,322.94,88.83,320.22z"/>
<path class="st9" d="M273.63,439.11c2.74,0.32,5.79-0.95,8.1,1.58C278.99,440.35,275.92,441.76,273.63,439.11z"/>
<path class="st9" d="M164.83,39.32c-2.05,1.66-4.48,1.45-6.87,1.35C159.88,38.37,162.46,39.35,164.83,39.32z"/>
<path class="st9" d="M418.19,48.54c-2.28,0.12-4.59,0.4-6.5-1.29C413.91,47.38,416.34,46.48,418.19,48.54z"/>
<path class="st9" d="M558.04,95.45c-1.77-1.14-2.96-2.7-3.44-4.77C557.05,91.33,558.07,93.01,558.04,95.45z"/>
<path class="st9" d="M435.9,51.86c-2.3,0.13-4.6,0.23-6.53-1.4C431.62,50.6,434.1,49.67,435.9,51.86z"/>
<path class="st9" d="M452.02,55.22c-2.34,0.04-4.71,0.19-6.66-1.53C447.67,53.82,450.23,52.83,452.02,55.22z"/>
<path class="st9" d="M577.3,389.34c0.06-2.09,0.12-4.18,0.19-6.28c0.43-0.24,0.86-0.49,1.29-0.74
	C578.78,384.76,579.82,387.42,577.3,389.34z"/>
<path class="st9" d="M114.56,378.02c2.28,0.08,3.88,1.16,4.77,3.28C117.01,381.25,115.39,380.21,114.56,378.02z"/>
<path class="st9" d="M577.61,372.07c0.42-0.23,0.84-0.47,1.26-0.71c-0.02,2.3-0.04,4.61-0.06,6.91
	C576.39,376.59,578.26,374.09,577.61,372.07z"/>
<path class="st9" d="M421.91,50.15c-0.2-0.43-0.4-0.86-0.6-1.29c2.26,0.14,4.76-0.81,6.56,1.42
	C425.88,50.24,423.9,50.19,421.91,50.15z"/>
<path class="st9" d="M257.56,435.89c2.24,0.2,4.74-0.67,6.48,1.59C261.8,437.28,259.27,438.26,257.56,435.89z"/>
<path class="st9" d="M92.04,336.3c2.27,1.71,1.41,4.2,1.61,6.43C91.27,341.05,92.26,338.52,92.04,336.3z"/>
<path class="st9" d="M573.97,148.91c-0.55-1.25-1.1-2.5-1.65-3.75c-0.64-1.14-0.73-2.23,0.32-3.21
	C574.94,143.92,573.97,146.51,573.97,148.91z"/>
<path class="st9" d="M571.09,140.22c-0.08-2.09-0.17-4.18-0.25-6.28c2.54,1.71,1.49,4.3,1.63,6.6c-0.64,0.51-1.09,0.41-1.32-0.41
	L571.09,140.22z"/>
<path class="st9" d="M567.67,121.16c-1.78-1.84-1.65-4.19-1.72-6.48C568.57,116.3,567.5,118.9,567.67,121.16z"/>
<path class="st9" d="M464.83,58.28c-1.85,0.17-3.62,0.07-5.04-1.35C461.6,56.88,463.51,56.47,464.83,58.28z"/>
<path class="st9" d="M458.42,56.72c-1.9,0.16-3.74,0.1-5.23-1.34C455.06,55.28,457.04,54.82,458.42,56.72z"/>
<path class="st9" d="M443.95,53.51c-1.92,0.15-3.81,0.15-5.34-1.31C440.53,52.08,442.54,51.58,443.95,53.51z"/>
<path class="st9" d="M207.74,421.44c1.77,0.05,3.65-0.23,4.82,1.61C210.8,422.99,208.9,423.33,207.74,421.44z"/>
<path class="st9" d="M137.19,45.64c-1.34,1.5-3.13,1.62-4.97,1.61C133.4,45.25,135.36,45.63,137.19,45.64z"/>
<path class="st9" d="M148.68,42.51c-1.47,1.45-3.31,1.52-5.2,1.39C144.82,41.98,146.8,42.43,148.68,42.51z"/>
<path class="st9" d="M156.54,40.84c-1.42,1.36-3.15,1.49-4.97,1.28C152.89,40.41,154.76,40.81,156.54,40.84z"/>
<path class="st9" d="M95.26,347.54c1.84,1.17,1.58,3.05,1.63,4.82C94.95,351.23,95.31,349.32,95.26,347.54z"/>
<path class="st9" d="M93.65,342.72c1.84,1.17,1.56,3.06,1.61,4.83C93.35,346.4,93.69,344.49,93.65,342.72z"/>
<path class="st9" d="M92.03,331.5c0.01,1.6,0.01,3.2,0.02,4.8c-1.92-1.16-1.57-3.07-1.6-4.85C90.97,331.47,91.5,331.49,92.03,331.5z
	"/>
<path class="st9" d="M233.46,429.48c1.78,0.03,3.65-0.24,4.84,1.58C236.53,431.02,234.63,431.37,233.46,429.48z"/>
<path class="st9" d="M212.57,423.05c1.77,0.05,3.65-0.24,4.83,1.6C215.62,424.6,213.72,424.94,212.57,423.05z"/>
<path class="st9" d="M244.71,432.69c1.79,0.03,3.67-0.24,4.88,1.57C247.8,434.24,245.89,434.59,244.71,432.69z"/>
<path class="st6" d="M571.15,140.13c0.45,0.09,0.89,0.23,1.32,0.41c-0.12,0.49-0.06,0.96,0.18,1.41c-0.11,1.07-0.21,2.14-0.32,3.21
	c-0.49-0.54-0.98-1.09-1.47-1.63C570.95,142.4,571.05,141.27,571.15,140.13z"/>
<path class="st9" d="M566.02,114.79c-1.57-1.32-1.56-3.13-1.57-4.94C566.45,111.02,566.08,112.96,566.02,114.79z"/>
<path class="st9" d="M267.22,437.55c1.78-0.01,3.65-0.28,4.85,1.54C270.3,439.05,268.41,439.41,267.22,437.55z"/>
<path class="st9" d="M564.47,109.9c-1.5-1.29-1.65-3.05-1.68-4.86C564.84,106.14,564.46,108.09,564.47,109.9z"/>
<path class="st9" d="M222.21,426.25c1.78,0.05,3.66-0.23,4.86,1.6C225.28,427.81,223.37,428.16,222.21,426.25z"/>
<path class="st9" d="M167.57,406.96c1.77,0.06,3.65-0.22,4.81,1.62C170.62,408.53,168.71,408.88,167.57,406.96z"/>
<path class="st9" d="M180.43,411.78c1.77,0.06,3.65-0.22,4.82,1.63C183.48,413.35,181.57,413.7,180.43,411.78z"/>
<path class="st9" d="M569.32,410.19c0.03-1.57,0.06-3.13,0.09-4.7c0.37-0.32,0.8-0.47,1.29-0.45
	C570.91,406.94,571.32,408.89,569.32,410.19z"/>
<path class="st9" d="M217.39,424.64c1.77,0.05,3.65-0.23,4.82,1.61C220.44,426.2,218.54,426.55,217.39,424.64z"/>
<path class="st9" d="M567.68,415c0.07-1.77-0.14-3.64,1.64-4.82C569.28,411.96,569.64,413.87,567.68,415z"/>
<path class="st9" d="M574.11,400.55c0.03-1.79,0.26-3.51,1.63-4.85C575.72,397.49,576.07,399.41,574.11,400.55z"/>
<path class="st9" d="M575.72,395.73c-0.07-1.96,0-3.88,1.45-5.43C577.28,392.26,577.82,394.35,575.72,395.73z"/>
<path class="st9" d="M202.93,419.82c1.77,0.05,3.65-0.22,4.82,1.61C205.98,421.38,204.07,421.73,202.93,419.82z"/>
<path class="st9" d="M511.48,71.28c-1.81,0.05-3.57-0.08-4.88-1.57C508.4,69.72,510.3,69.38,511.48,71.28z"/>
<path class="st9" d="M506.65,69.73c-1.86,0.04-3.67-0.07-5.05-1.57C503.45,68.13,505.43,67.71,506.65,69.73z"/>
<path class="st9" d="M495.39,66.39c-1.83,0.12-3.57-0.04-4.92-1.49C492.26,64.91,494.16,64.54,495.39,66.39z"/>
<path class="st9" d="M484.14,63.2c-1.87,0.12-3.69,0.03-5.11-1.44C480.89,61.7,482.84,61.28,484.14,63.2z"/>
<path class="st9" d="M477.7,61.54c-1.84,0.15-3.61,0.03-5.01-1.41C474.5,60.09,476.42,59.69,477.7,61.54z"/>
<path class="st9" d="M471.26,59.89c-1.83,0.17-3.59,0.05-4.98-1.39C468.08,58.48,469.98,58.09,471.26,59.89z"/>
<path class="st9" d="M500.18,67.89c-1.4,0.15-2.65-0.14-3.61-1.26C497.97,66.49,499.3,66.54,500.18,67.89z"/>
<path class="st9" d="M228.65,427.9c1.33-0.01,2.52,0.29,3.26,1.54C230.58,429.45,229.37,429.19,228.65,427.9z"/>
<path class="st9" d="M190.07,415.04c1.33,0.01,2.53,0.3,3.26,1.56C192,416.6,190.79,416.33,190.07,415.04z"/>
<path class="st9" d="M95.57,68.21c-0.15,1.34-0.77,2.36-1.97,3C93.7,69.84,94.04,68.63,95.57,68.21z"/>
<path class="st9" d="M549.94,434.24c0.76-1.23,1.97-1.56,3.31-1.62C552.56,434.01,551.31,434.26,549.94,434.24z"/>
<path class="st9" d="M172.39,408.59c1.34,0.02,2.54,0.31,3.28,1.57C174.32,410.17,173.1,409.91,172.39,408.59z"/>
<path class="st9" d="M199.73,418.28c1.32-0.01,2.5,0.28,3.2,1.54C201.62,419.81,200.43,419.55,199.73,418.28z"/>
<path class="st9" d="M564.45,421.42c0.07-1.32,0.39-2.51,1.66-3.21C566.09,419.55,565.81,420.76,564.45,421.42z"/>
<path class="st9" d="M164.36,405.4c1.32,0.01,2.51,0.3,3.22,1.57C166.26,406.96,165.06,406.69,164.36,405.4z"/>
<path class="st9" d="M156.33,402.19c1.33,0.01,2.51,0.31,3.23,1.57C158.23,403.74,157.03,403.48,156.33,402.19z"/>
<path class="st9" d="M572.26,403.66c0.18-1.31,0.73-2.41,1.87-3.15C574.11,401.92,573.8,403.15,572.26,403.66z"/>
<path class="st9" d="M148.29,398.94c1.33,0.03,2.53,0.33,3.26,1.6C150.2,400.53,148.98,400.26,148.29,398.94z"/>
<path class="st9" d="M145.07,397.35c1.33,0.03,2.52,0.32,3.23,1.6C146.96,398.92,145.76,398.65,145.07,397.35z"/>
<path class="st9" d="M141.85,395.74c1.32,0.03,2.51,0.32,3.21,1.6C143.74,397.32,142.55,397.04,141.85,395.74z"/>
<path class="st9" d="M138.64,394.13c1.32,0.04,2.51,0.33,3.21,1.61C140.53,395.71,139.33,395.43,138.64,394.13z"/>
<path class="st9" d="M135.43,392.51c1.32,0.04,2.51,0.34,3.21,1.62C137.31,394.1,136.11,393.82,135.43,392.51z"/>
<path class="st9" d="M132.23,390.88c1.32,0.05,2.52,0.35,3.22,1.63C134.1,392.49,132.89,392.22,132.23,390.88z"/>
<path class="st9" d="M127.4,387.68c1.32,0.05,2.5,0.36,3.18,1.64C129.26,389.28,128.06,389,127.4,387.68z"/>
<path class="st9" d="M132.27,47.23c-0.81,1.08-1.9,1.47-3.21,1.33C129.83,47.39,131.01,47.2,132.27,47.23z"/>
<path class="st9" d="M122.58,384.46c1.32,0.06,2.5,0.37,3.18,1.66C124.44,386.07,123.24,385.78,122.58,384.46z"/>
<path class="st9" d="M578.9,381.3c-0.07-1.04-0.14-2.09-0.21-3.13C580.69,379.09,580.61,380.14,578.9,381.3z"/>
<path class="st9" d="M252.76,434.35c1.33-0.02,2.52,0.27,3.26,1.51C254.7,435.87,253.49,435.63,252.76,434.35z"/>
<path class="st9" d="M108.09,370.06c1.3,0.66,1.61,1.85,1.67,3.16C108.42,372.59,108.14,371.39,108.09,370.06z"/>
<path class="st9" d="M103.28,363.63c1.29,0.68,1.6,1.86,1.65,3.18C103.6,366.15,103.32,364.96,103.28,363.63z"/>
<path class="st9" d="M100.09,358.78c1.28,0.7,1.59,1.89,1.63,3.22C100.38,361.32,100.1,360.12,100.09,358.78z"/>
<path class="st9" d="M119.51,52.12c-0.75,1.28-1.98,1.57-3.32,1.64C116.82,52.26,118.09,52.04,119.51,52.12z"/>
<path class="st9" d="M98.47,355.57c1.28,0.7,1.58,1.89,1.62,3.22C98.77,358.11,98.49,356.9,98.47,355.57z"/>
<path class="st9" d="M96.88,352.34c1.28,0.71,1.57,1.91,1.6,3.24C97.16,354.89,96.88,353.68,96.88,352.34z"/>
<path class="st9" d="M545.17,435.85c0.74-1.25,1.93-1.51,3.25-1.49C547.69,435.63,546.49,435.87,545.17,435.85z"/>
<path class="st9" d="M92.29,72.97c-0.1,1.35-0.47,2.56-1.74,3.3C90.47,74.82,90.69,73.53,92.29,72.97z"/>
<path class="st9" d="M194.9,416.66c1.33,0,2.52,0.29,3.24,1.55C196.82,418.2,195.61,417.94,194.9,416.66z"/>
<path class="st9" d="M561.2,426.21c0.08-1.32,0.44-2.48,1.72-3.14C562.87,424.41,562.58,425.61,561.2,426.21z"/>
<path class="st9" d="M185.25,413.41c1.34,0.02,2.54,0.31,3.28,1.57C187.18,414.99,185.96,414.72,185.25,413.41z"/>
<path class="st9" d="M116.27,53.7c-0.74,1.26-1.96,1.58-3.3,1.66C113.62,53.92,114.86,53.65,116.27,53.7z"/>
<path class="st9" d="M177.22,410.22c1.32,0.01,2.51,0.29,3.22,1.56C179.12,411.77,177.92,411.51,177.22,410.22z"/>
<path class="st9" d="M113.06,55.31c-0.72,1.27-1.93,1.64-3.28,1.73C110.35,55.49,111.63,55.26,113.06,55.31z"/>
<path class="st9" d="M142.25,44.12c-0.95,1.1-2.17,1.39-3.55,1.24C139.59,44.1,140.88,44,142.25,44.12z"/>
<path class="st9" d="M127.64,48.89c-0.87,1.13-2.06,1.48-3.43,1.4C125.01,49,126.27,48.81,127.64,48.89z"/>
<path class="st9" d="M548.34,86.02c-1.36-0.09-2.59-0.43-3.29-1.75C546.51,84.18,547.8,84.39,548.34,86.02z"/>
<path class="st9" d="M554.91,431.09c0.66-1.27,1.82-1.64,3.14-1.71C557.44,430.75,556.24,431.04,554.91,431.09z"/>
<path class="st9" d="M123.12,50.6c-0.93,1.24-2.27,1.54-3.71,1.59C120.16,50.54,121.59,50.45,123.12,50.6z"/>
<path class="st9" d="M553.15,89.24c-1.34-0.14-2.4-0.71-3.07-1.91C551.46,87.4,552.68,87.72,553.15,89.24z"/>
<path class="st9" d="M566.1,418.22c0.04-1.32,0.34-2.52,1.6-3.25C567.7,416.32,567.43,417.53,566.1,418.22z"/>
<path class="st9" d="M239.9,431.12c1.33-0.01,2.53,0.27,3.27,1.53C241.84,432.66,240.62,432.41,239.9,431.12z"/>
<path class="st9" d="M488.92,64.63c-1.39,0.17-2.63-0.12-3.58-1.23C486.72,63.27,488.04,63.32,488.92,64.63z"/>
<path class="st9" d="M570.65,405.22c0.19-0.98,0.83-1.51,1.77-1.72C572.19,404.45,571.6,405.02,570.65,405.22z"/>
<path class="st9" d="M161.16,403.84c0.55,0.5,1.11,1.01,1.66,1.51C162.27,404.85,161.71,404.34,161.16,403.84z"/>
<path class="st9" d="M153.12,400.61c0.56,0.51,1.11,1.02,1.67,1.52C154.23,401.63,153.67,401.12,153.12,400.61z"/>
<path class="st9" d="M130.6,389.33c0.55,0.52,1.1,1.04,1.65,1.57C131.7,390.38,131.15,389.86,130.6,389.33z"/>
<path class="st9" d="M125.78,386.12c0.54,0.52,1.09,1.05,1.63,1.57C126.87,387.17,126.32,386.65,125.78,386.12z"/>
<path class="st9" d="M120.96,382.88c0.55,0.53,1.09,1.06,1.64,1.6C122.06,383.95,121.51,383.41,120.96,382.88z"/>
<path class="st9" d="M119.35,381.31c0.54,0.52,1.08,1.05,1.62,1.57C120.43,382.36,119.89,381.84,119.35,381.31z"/>
<path class="st9" d="M112.95,376.42c0.54,0.54,1.08,1.08,1.62,1.62C114.03,377.5,113.49,376.96,112.95,376.42z"/>
<path class="st9" d="M111.34,374.82c0.54,0.54,1.08,1.08,1.62,1.62C112.43,375.9,111.89,375.36,111.34,374.82z"/>
<path class="st9" d="M109.74,373.21c0.54,0.54,1.08,1.08,1.62,1.63C110.82,374.29,110.28,373.75,109.74,373.21z"/>
<path class="st9" d="M106.5,368.43c0.53,0.54,1.05,1.08,1.58,1.62C107.55,369.51,107.03,368.97,106.5,368.43z"/>
<path class="st9" d="M104.91,366.8c0.53,0.55,1.06,1.09,1.6,1.64C105.97,367.89,105.44,367.34,104.91,366.8z"/>
<path class="st9" d="M562.94,423.05c0.52-0.56,1.03-1.11,1.55-1.67C563.97,421.94,563.46,422.49,562.94,423.05z"/>
<path class="st9" d="M101.69,361.97c0.52,0.55,1.05,1.09,1.57,1.64C102.74,363.07,102.22,362.52,101.69,361.97z"/>
<path class="st9" d="M559.62,427.82c0.55-0.55,1.09-1.09,1.64-1.64C560.71,426.72,560.16,427.27,559.62,427.82z"/>
<path class="st9" d="M554.75,90.8c-0.95-0.2-1.53-0.77-1.74-1.72C553.94,89.3,554.52,89.87,554.75,90.8z"/>
<path class="st9" d="M553.21,432.65c0.56-0.51,1.11-1.03,1.67-1.54C554.32,431.62,553.76,432.14,553.21,432.65z"/>
<path class="st9" d="M97.09,66.57c-0.2,0.94-0.72,1.57-1.69,1.79C95.6,67.41,96.16,66.82,97.09,66.57z"/>
<path class="st9" d="M93.57,71.26c-0.1,0.9-0.51,1.57-1.42,1.85C92.62,72.49,93.09,71.88,93.57,71.26z"/>
<path class="st9" d="M558.01,429.42c0.55-0.54,1.09-1.09,1.64-1.63C559.1,428.33,558.55,428.88,558.01,429.42z"/>
<path class="st9" d="M100.3,63.36c-0.22,0.94-0.83,1.48-1.75,1.69C98.81,64.16,99.39,63.59,100.3,63.36z"/>
<path class="st9" d="M98.69,64.95c-0.03,0.52-0.07,1.03-0.11,1.55c-0.54,0.08-1.07,0.15-1.61,0.23
	C97.19,65.8,97.77,65.21,98.69,64.95z"/>
<path class="st9" d="M550.06,87.31c-0.91-0.11-1.59-0.51-1.85-1.44C548.82,86.35,549.44,86.83,550.06,87.31z"/>
<path class="st3" d="M370.06,270.46c0.2-2.93-2.95-4.48-3.07-7.2c-0.18-3.98-0.14-7.98-0.14-11.96c-0.01-16.49,0-32.99-0.01-49.48
	c0-3.18-0.12-6.29-1.01-9.45c-0.76-2.74-0.46-5.79-0.58-8.7c-0.07-1.59,0.04-3.2-0.07-4.79c-0.21-3.1-0.8-3.52-4.58-3.44
	c-0.78,0.02-1.82,0.31-2.05-0.62c-0.13-0.51,0.46-1.52,0.99-1.81c4.25-2.29,8.7-3.96,13.64-3.85c0.33,0.32,0.66,0.64,0.99,0.96
	c3.57,11.45,0.07,22.73-0.89,34.06c-0.72,8.5-2.4,16.91-2.45,25.47c-0.01,1.87-0.02,3.77,0.46,5.57c0.73,2.71,0.78,6.73,4.56,6.4
	c3.28-0.29,2.97-4.06,2.98-6.59c0.1-17.08,0.48-34.16-0.19-51.23c-0.11-2.88-1.16-5.86,1.07-8.43c17.17-3.37,32.94,0.11,46.35,11.23
	c6.79,5.63,13.73,9.7,22.4,11.55c12.83,2.74,21.71,10.9,27.6,22.44c-1.48,2.68-1.61,5.57-1.58,8.55c0.07,6.15,0.05,12.3-0.05,18.44
	c-0.04,2.57-0.91,3.17-3.57,2.56c-4.41-1.02-8.76-2.27-13.17-3.24c-9.61-2.13-19.27-4-29.19-3.74c-0.74,0.02-1.47,0.26-2.24,0.4
	c0.55,2.01,2.21,2.33,3.72,2.64c5.72,1.18,11.52,1.98,17.17,3.43c7.75,1.98,15.21,4.73,22,9.19c2.88,1.89,3.84,4.08,3.77,7.28
	c-0.12,5.61-0.03,11.23-0.03,16.84c0,5.76,0,11.51,0,17.28c-1.64,0.36-2.38-1.02-3.46-1.68c-6.91-4.22-14.47-6.79-22.31-8.55
	c-9.07-2.04-18.18-3.93-27.27-5.89c-3.37-0.73-6.73-1.5-10.1-2.18c-1.17-0.24-2.02,0.46-2.72,1.32
	c-11.67-3.63-24.96-1.33-35.36-9.64c-0.6-0.56-1.07-1.22-1.41-1.96C370.2,271.26,370.13,270.86,370.06,270.46z"/>
<path class="st3" d="M474.49,347.5c0.01,8.82,0.03,17.63,0.03,26.45c0,1.34,0.04,2.68-0.08,4c-0.21,2.5-1.94,3.82-4.48,3.04
	c-3.3-1.01-6.53-2.29-9.71-3.65c-7.34-3.15-14.56-6.77-22.53-7.97c-11.17-1.69-21.34-6.47-32.02-9.64c-1.01-0.3-2.04-0.51-3.07-0.69
	c-0.19-0.03-0.63,0.26-0.63,0.41c-0.02,0.46-0.04,1.19,0.22,1.35c7.47,4.64,15.04,9.03,23.16,12.52c7.88,3.38,16.25,5.07,24.26,7.95
	c1.47,0.53,3.08,0.77,3.94,2.4c-0.85,1.46-2.27,0.69-3.41,0.8c-1.59,0.15-3.3-0.25-4.79,0.17c-9.2,2.6-18.58,1.02-27.87,1.45
	c-0.53,0.02-1.1,0.1-1.6-0.04c-9.98-2.65-20.18-1.56-30.27-1.42c-6.34,0.09-11.29-2.75-16.4-5.54c-1.07-0.58-1.96-1.85-2.49-3.01
	c-1.66-3.63-3.15-7.31-3.14-11.46c0.05-20.84,0.02-41.67,0.02-62.51c0-0.53-0.1-1.1,0.03-1.6c2.24-8.38,1.41-16.94,1.6-25.45
	c0.08-3.75,0.16-3.75,4.8-4.62c0,0-0.01-0.01-0.01-0.01c0.46,0.59,0.69,1.26,0.7,2.01c11.24,6.51,21.73,14.46,35.84,14.27
	c6.17-0.08,10.89,3.94,13.88,9.55c1.76,3.3,3.62,6.59,4.66,10.18c3.52,12.25,11.96,19.8,23.14,24.98c6.3,2.92,12.41,6.23,18.65,9.27
	C470.12,342.28,472.9,344.2,474.49,347.5z"/>
<path class="st3" d="M325.03,50.42c11.01,3.03,22.19,5.34,33.28,8.03c13.17,3.19,26.27,6.76,39.27,10.63
	c6.53,1.94,12.75,4.9,18.92,8.5c-3.84,0.04-7.68,0.25-11.51,0.09c-7.38-0.32-14.39,1.46-20.91,4.47
	c-6.85,3.16-13.89,5.31-21.18,6.96c-2.53,0.57-5.29,0.89-7.28,2.95c-0.31,0.26-0.62,0.52-0.93,0.78c-9.26-0.1-17.4-4.55-26.11-6.82
	c-9.02-2.35-17.93-5.17-26.9-7.72c-3.22-0.92-7.79-3.07-9.23,1.02c-1.7,4.79,3.76,5.65,6.91,6.96c8.64,3.6,17.63,6.04,26.99,7.07
	c2.59,0.28,6.2-0.69,6.82,3.6c-0.48,0.22-0.99,0.42-1.45,0.68c-5.07,2.87-10.08,2.42-15.16-0.09c-7.72-3.81-16.16-5.25-24.48-6.91
	c-7.78-1.56-15.76-2.2-23.56-3.55c-12.26-2.11-24.76-2.81-36.85-5.91c-5.91,0.38-11.48-2.03-17.4-1.95c-4.75,0.06-9.58-0.99-14.13-2
	c-5.22-1.16-10.53-0.92-15.74-2.36c-5.55-1.53-11.54-1.44-17.34-2.04c-1.13-0.12-1.98-0.68-2.69-1.52c0.73-4.06,4.15-4.22,7.18-4.92
	c16.99-3.92,34.38-4.98,51.62-6.97c26.3-3.03,52.66-5.61,78.92-8.9C309.86,49.52,317.4,51.99,325.03,50.42z"/>
<path class="st3" d="M451.99,101.82c3.23,4.85,6.56,9.64,9.66,14.57c1.91,3.05,1.1,4.51-2.29,4.65c-2.13,0.09-4.27,0.03-6.41,0.04
	c-2.67,0.02-5.29,0.02-7.9,0.91c-1.72,0.58-3.66,0.59-5.51,0.66c-3.19,0.12-6.37-0.09-9.48,1.12c-1.43,0.56-3.15,0.45-4.74,0.49
	c-4.78,0.11-9.5,0.1-14.27,1.31c-3.74,0.94-7.85,0.41-12.06,0.54c1.01,1.93,2.41,1.35,3.5,1.35c11.49,0.05,22.97-0.11,34.46,0.1
	c4.9,0.09,9.37-1.93,14.16-2.17c0.51-0.03,0.99-0.42,1.51-0.52c11.33-2.08,14.34,0.87,17.05,10.32c1.02,3.58,1.99,7.17,3.15,10.71
	c1.84,5.6,1.41,11.5,2.61,17.09c-1.3,1.52-2.55,0.53-3.71,0.14c-3.81-1.28-7.85-1.36-11.7-2.13c-6.9-1.39-13.93-0.38-20.63-1.66
	c-8-1.52-15.92-1.09-23.88-1.31c-2.4-0.07-4.76,0.03-7.12,0.8c-1.73,0.56-3.69,0.9-5.49,0.72c-5.7-0.57-11,1.78-16.61,2.02
	c-3.04,0.13-5.46,2.19-4.97,5.96c-0.48,0.01-0.96,0.01-1.44,0.02c-1.83-1.46-2.36-3.56-2.33-5.67c0.27-17.97-0.59-35.84-3.81-53.56
	c0.88-2.7,3.2-3.51,5.6-3.88c15.83-2.4,31.41-6.46,47.59-6.67C435.59,97.66,443.96,98.49,451.99,101.82z"/>
<path class="st6" d="M476.08,220.6c-2.71-1.38-4.47-3.7-6.27-6.05c-6.02-7.89-13.59-13.27-23.68-14.84
	c-6.68-1.04-13.11-3.17-17.76-8.39c-7.12-7.99-16.27-12.05-26.47-13.68c-6.79-1.08-13.62-2.78-20.63-1.97
	c-2.26-2.65-2.27-5.29,0.01-7.93c0,0,0.03-0.2,0.03-0.2c0.53,0.06,1.06,0.09,1.59,0.08c3.55-1.98,7.73,0.55,11.27-1.54
	c1.06,0,2.12,0,3.18,0c2.42,1.9,5.62-0.27,8.05,1.54c5,0.68,10.11,0.97,14.97,2.19c3.46,0.87,6.84,1,10.3,1.03
	c4.82,0.03,9.65,0.28,14.45-0.07c5.97-0.43,11.68,0.95,17.44,1.91c3.43,0.57,6.51,2.4,9.31,4.49c2.93,2.19,4.43,4.98,4.35,8.91
	C475.99,197.59,476.1,209.1,476.08,220.6z"/>
<path class="st6" d="M567.72,148.34c0.99,0.65,1.56,1.64,1.02,2.69c-2.6,4.98-5.69,9.74-9.97,13.32c-6.09,5.1-12.6,9.72-19.02,14.42
	c-13.06,9.57-26.32,18.85-39,28.95c-4.58,3.65-8.34,8.22-13.35,11.31c-0.11-4.53-0.58-8.99-1.2-13.5
	c-0.9-6.57-0.36-13.35-0.37-20.04c0-3.03,1.98-4.81,4.28-6.35c6.91-4.64,14.4-8.16,22.02-11.46c12.8-5.53,26.21-9.07,39.75-12.08
	C557.76,154.31,562.95,151.89,567.72,148.34z"/>
<path class="st6" d="M474.49,347.5c-7.97-5.42-16.93-9-25.42-13.45c-4.95-2.59-9.82-5.18-14.35-8.59c-4.07-3.06-6.56-6.82-8.5-11.23
	c-2.35-5.36-4.63-10.75-6.95-16.12c-3-6.96-8.64-10.11-15.86-9.9c-7.86,0.23-14.57-2.19-20.86-6.65c-4.11-2.91-8.52-5.41-12.75-8.16
	c-0.51-0.33-0.29-0.99,0.27-1.37c0.54-0.6,1.08-0.59,1.6,0.01c3.37,1.58,6.68,3.35,10.14,4.7c3.19,1.25,6.43,2.52,9.99,0.64
	c2.14-1.13,4.35,0.11,5.95,1.39c2.8,2.24,6.19,3.01,9.3,4.46c4.85,1.37,9.73,2.64,14.54,4.13c12.28,3.81,23.61,9.66,34.52,16.38
	c4.42,2.72,7.74,6.1,9.58,11.22c1.22,3.41,3.51,6.62,5.95,9.36c2.37,2.67,2.97,5.46,2.89,8.76
	C474.42,337.91,474.49,342.71,474.49,347.5z"/>
<path class="st6" d="M451.99,101.82c-0.71,0.92-1.61,1.39-2.76,0.96c-10.33-3.9-21.09-2.38-31.71-2.5c-3.71-0.04-7.29,1.3-11,1.76
	c-9.99,1.24-19.9,3.15-29.83,4.88c-0.69,0.12-1.27,0.9-1.9,1.37c-2.33,0.55-3.12-1.46-4.44-2.62c-4.02-4.97-9.33-8.27-14.78-11.4
	c-0.48-0.67-0.48-1.35,0-2.02c0,0,0.03-0.19,0.03-0.2c2.94,0.14,5.77-0.23,8.7-0.8c8.07-1.57,16.15-3.14,24.35-4.11
	c5.29-0.62,10.51-1.39,15.87-1.45c10.78-0.12,21.15,2.06,31.4,5.05c4.14,1.21,7.96,2.93,10.79,6.44c0.98,1.21,2.45,2.02,3.69,3.01
	C450.93,100.75,451.4,101.34,451.99,101.82L451.99,101.82z"/>
<path class="st10" d="M325.03,50.42c-0.89,1.14-2.11,1.56-3.5,1.57c-2.94,0.01-5.87,0-8.81,0.03c-3.19,0.03-6.34-0.06-9.49,1.02
	c-1.95,0.67-4.21,0.49-6.33,0.55c-2.67,0.08-5.32-0.04-7.88,1.03c-0.96,0.4-2.08,0.52-3.13,0.54c-4.53,0.09-9.09-0.2-13.41,1.57
	c-7.25-0.79-14.29,1.28-21.39,2c-6.8,0.7-13.8,0.52-20.49,2.5c-1.5,0.44-3.17,0.35-4.76,0.39c-3.19,0.09-6.4-0.19-9.47,1.13
	c-0.94,0.41-2.09,0.44-3.14,0.45c-8.53,0.08-16.88,1.53-25.24,3.01c-1.82,0.32-3.73,0.32-5.59,0.21c-4.88-0.27-9.38,1.71-14.13,2.27
	c-1.48,0.17-3.02,1.09-3.91,2.58c-0.54,0.01-1.08,0.01-1.61,0.02c-0.44-0.36-0.59-0.72-0.45-1.08c0.14-0.36,0.29-0.55,0.43-0.55
	c1.39-3.01,4.25-3.95,7.05-4.75c5.87-1.68,11.76-3.35,17.71-4.68c11.38-2.54,22.8-4.97,34.25-7.21c5.97-1.17,11.93-2.35,18.06-2.76
	c6.85-0.46,13.64-1.76,20.47-2.62c2.11-0.27,4.24-0.41,6.36-0.43c5.6-0.07,11.21-0.04,16.81-0.06c2.93-0.01,5.78-0.15,8.69-0.95
	c3.87-1.07,7.86-0.79,11.85,0.07C310.96,47.79,318.01,49.06,325.03,50.42z"/>
<path class="st6" d="M492.18,72.91c3.63,2.49,7.99,2.29,12.04,3.12c6.45,1.33,12.75,3,19.3,5.63c-3.95,3.12-8.39,2.98-12.4,3.99
	c-11.78,2.96-23.65,5.58-35.44,8.49c-3.89,0.96-7.55,2.45-9.65,6.37c-0.38,0.71-1.81,0.86-2.75,1.27c-2.55-3.82-5.84-6.9-9.53-9.58
	c-1.07-0.78-2.23-1.49-3.15-2.43c-2.81-2.87-2.37-6.98,1.25-8.64c4.1-1.88,8.38-3.53,12.75-4.64
	C473.62,74.19,482.73,72.11,492.18,72.91z"/>
<path class="st3" d="M373.18,169.17c0.02-0.8,0.05-1.6,0.05-2.4c-0.02-2.08-0.69-3.49-3.07-3.88c-7.22-1.16-7.14-1.46-8.19-8.05
	c-1.68-10.53-4.37-20.71-10.61-29.74c-3.5-5.06-6.99-10.01-11.52-14.2c-2.41-2.23-5.03-3.91-8.35-4.31
	c0.55-4.14,4.02-3.58,6.64-3.79c5.47-0.43,10.98-0.34,16.45,0.32c1.94,0.37,3.63,1.25,5.11,2.53c9.39,10.88,13.22,24.13,15.41,37.87
	c0.95,5.99,2.31,12.05,1.89,18.2c-0.2,2.88,0.8,6.65-3.71,7.52L373.18,169.17z"/>
<path class="st11" d="M355.57,92.25c0.04,0.49,0.06,0.98,0.09,1.47c-4.12,3.8-9.63,3.12-14.5,4.53c-1.8,0.27-3.48,0.07-4.87-1.26
	c-1.05-0.02-2.1-0.04-3.14-0.06c-0.94-1.06-2.16-1.52-3.55-1.5c-10.85,0.17-20.85-3.53-30.87-6.98c-2.73-0.94-5.29-2.5-7.73-4.09
	c-1.8-1.18-3.33-2.97-2.5-5.38c0.82-2.38,2.58-4.09,5.22-4.33c1.55-0.14,3.22-0.05,4.72,0.37c8.68,2.44,17.34,4.95,25.96,7.56
	C334.82,85.75,345.19,89.03,355.57,92.25z"/>
<path class="st12" d="M336.3,96.99c1.6,0,3.2,0.01,4.8,0.01c0.37,0.01,0.75,0.01,1.12,0.02c0.75,0.01,1.51,0.06,2.26,0.13
	c4.43,1.59,9.92,1.71,11.04,7.9c-6.33-0.02-12.66-0.04-18.99-0.04c-1.85,0-3.73-0.11-5.05,1.59c-1.27-0.09-2.64,0.33-3.89-0.99
	C329.54,101.82,333.29,99.77,336.3,96.99z"/>
<path class="st3" d="M394.18,166.08c-0.88,1.1-2.06,1.54-3.43,1.54c-2.61,0.01-5.23,0-7.84,0c0.88-1.1,2.06-1.54,3.43-1.54
	C388.95,166.07,391.57,166.08,394.18,166.08z"/>
<path class="st3" d="M405.42,167.62c-2.72-0.31-5.76,1.02-8.05-1.54C400.09,166.39,403.13,165.04,405.42,167.62z"/>
<path class="st3" d="M162.72,69.67c0.01,0.54,0.01,1.09,0.01,1.63c-0.51,0.57-1.16,1.03-1.23-0.16
	C161.48,70.68,162.29,70.16,162.72,69.67z"/>
<path class="st3" d="M378.08,56.87c1.33-0.01,2.52,0.27,3.24,1.54C380,58.41,378.8,58.14,378.08,56.87z"/>
<path class="st3" d="M452,101.81c-0.53-0.54-1.06-1.08-1.59-1.61C450.94,100.74,451.47,101.27,452,101.81z"/>
<path class="st13" d="M190.57,347.22c-2.48-1.87-5.53-1.48-8.31-1.91c-7.5-1.16-15.05-1.97-22.59-2.91c-2.49-0.87-5-1.71-7.48-2.61
	c-13.85-5.03-21.94-14.7-23.58-29.46c-0.38-3.44-0.52-6.93-0.43-10.39c0.83-30.18,1.72-60.37,2.63-90.55
	c0.41-13.62,0.91-27.24,1.37-40.86c0.05-1.33,0.03-2.69,0.26-4c0.94-5.54,4.45-9.04,10.01-9.98c5.11-0.86,10.15-0.27,15.06,1.17
	c4.86,1.43,9.68,3.04,14.45,4.74c9.82,3.49,19.75,6.58,29.96,8.72c12.71,2.67,25.52,2.28,38.33,1.04c4.56-0.44,9.05-0.43,13.58,0.28
	c12.78,1.99,18.87,7.4,22.09,19.79c0.27,1.03,0.63,2.04,0.95,3.06c0.09,6.94,0.09,13.88,0.29,20.81c0.5,17.09,1.07,34.17,1.68,51.25
	c0.1,2.91-0.23,5.9,0.97,8.7c2.1,1.92,1.87,3.92,0.2,5.97c-0.04,2.92-0.14,5.84-0.11,8.76c0.12,11.98,0.23,23.95,0.43,35.93
	c0.15,8.84-0.85,17.5-3.71,25.91c0.18,2.36-0.6,4.08-3.09,4.68c-8.75,8.19-19.01,9.69-30.36,7.22c-6.27-1.36-12.16-3.76-18.2-5.79
	c-3.51-1.18-6.83-2.97-10.61-3.29C205.87,353.54,197.99,351.24,190.57,347.22z"/>
<path class="st14" d="M118,100.61c2.96-0.03,4.46-1.28,6.15-2.03c6.93-3.07,9.48-1.58,9.65,5.77c0.09,4.01,0,8.03,0.1,12.04
	c0.05,2.01,0.87,3.69,2.98,4.24c0.67,0.17,1.61-0.01,2.19-0.39c0.68-0.45,0.77-1.34,0.24-2.09c-1.82-2.56-4.28-4.63-4-8.42
	c0.24-3.25,1.25-5.7,3.98-7.36c3.24-1.96,6.82-3.1,10.52-3.68c4.44-0.7,8.53,0.01,11.47,3.97c0.79,1.06,1.93,1.86,2.78,2.89
	c3.03,3.66,6.28,4.81,11.25,3.2c6.15-1.98,9.86,0.83,11.5,7.52c0.72,2.94,1.74,5.58,3.86,7.76c1.38,1.42,3.07,1.73,4.26,0.74
	c1.52-1.26,1.95-3.55,0.72-5.01c-1.02-1.21-2.29-2.22-3.49-3.25c-0.8-0.69-1.81-1.17-2.52-1.93c-1.99-2.13-1.13-5.23,1.58-6.43
	c3.55-1.59,7.34-2.13,10.98-1.26c5.17,1.24,10.43,2,15.51,3.76c7.8,2.7,15.54,5.66,23.63,7.56c3.16,0.74,6.24,1.39,9.46,1.25
	c3.39-0.15,6.31,0.98,8.88,3.08c0.81,0.66,1.67,1.5,2.02,2.43c1.71,4.58,0.61,7.55-4.01,8.59c-3.64,0.82-7.38,0.76-10.97-1.01
	c-4.1-2.03-7.79-4.64-11.54-7.19c-5.98-4.06-12.16-7.73-19.17-9.83c-4.49-1.34-8.97-1.08-13.47-0.42c-0.61,0.09-1.49,1-1.53,1.59
	c-0.04,0.51,0.84,1.23,1.46,1.63c1.92,1.22,4.11,1.56,6.14,0.57c2.79-1.36,5.11-0.41,7.62,0.71c2.87,1.28,4.49,3.47,6.03,6.11
	c1.94,3.29,1.36,6.09-0.49,8.99c-1.7,2.66-3.97,4.23-7.29,4.08c-2.4-0.11-4.77-0.06-7.11-0.92c-1.45-0.54-3.14-0.64-4.71-0.61
	c-2.39,0.04-4.09,1.56-4.34,3.89c-0.23,2.12-0.25,4.27-0.19,6.41c0.07,2.54-1.22,4.22-3.45,4.8c-3.85,1.01-7.78,1.72-11.71,2.38
	c-1.92,0.32-4.16-0.1-5.02-1.83c-2.12-4.27-6.31-4.7-10.01-5.7c-4.13-1.11-6.3-3.76-7.76-7.39c-0.93-2.31-0.88-4.78-0.39-7.12
	c0.58-2.78,2.75-4.55,5.04-5.96c1.96-1.2,3.61,0.38,5.15,1.27c2.07,1.19,3.81,2.79,6.49,2.77c3.68-0.03,6.73,1.53,8.84,4.65
	c0.85,1.26,2.02,1.77,3.43,1.31c1.67-0.54,2.57-1.84,2.8-3.56c0.23-1.66-0.1-3.19-1.2-4.5c-1.74-2.06-3.73-3.75-6.19-4.99
	c-8.12-4.13-16.65-7.23-25.27-10.08c-1-0.33-2.09-0.41-3.14-0.56c-5.66-0.81-7.78,3.36-7.16,7.89c0.18,1.3,0.89,2.53,1.1,3.83
	c1.08,6.56-0.89,9.93-6.91,12.72c-3.88,1.8-7.86,1.38-11.82,0.96c-2.54-0.27-4.74-2.93-5.05-5.56c-0.25-2.13-0.38-4.32,0.46-6.34
	c0.96-2.3,0.79-4.71,1.11-7.07c0.77-5.74-2.82-8.87-6.67-11.89c-1.59-1.25-3.57-1.13-5.41-0.83c-2.7,0.44-5.02,1.73-7,3.65
	c-1.93,1.88-1.84,3.55,0.43,5.29c0.84,0.65,1.88,1.05,2.69,1.74c3.01,2.54,4.05,7.41,2.41,10.92c-1.44,3.1-4.8,4.62-8.04,3.49
	c-3.11-1.08-5.78-2.8-7.34-5.86c-2.61-5.12-3.89-10.54-3.2-16.26c0.43-3.56,1.75-6.81,5.47-8.24c3.47-1.34,5.65-3.84,7.15-7.14
	c1.11-2.44,3.39-2.32,5.55-2.09c2.42,0.25,3.56,1.4,4.14,4.14C117.9,97.67,117.87,99,118,100.61z"/>
<path class="st15" d="M122.04,166.23c-1.42-1.05-2.74-2.3-4.3-3.07c-1.16-0.57-2.66-0.43-3.76,0.52c-1.14,0.99-1.17,2.4-0.81,3.7
	c0.28,0.99,0.83,1.96,1.46,2.79c3.9,5.15,5.07,10.93,4.82,17.31c-0.17,4.31-0.38,8.51-2.04,12.52c-0.29,0.71-0.82,1.37-1.4,1.89
	c-0.89,0.82-1.97,0.7-2.93,0.09c-0.43-0.28-0.73-0.76-1.07-1.16c-0.96-1.12-0.39-3.6-2.59-3.52c-2.36,0.08-2.51,2.31-3.18,4.03
	c-1.51,3.87-1.74,7.65-0.47,11.7c1.67,5.32,2.6,10.88,4.4,16.15c1.54,4.49,1.2,8.98,1.03,13.47c-0.15,4.09-2.15,7.65-4.9,10.67
	c-0.75,0.82-2.04,0.78-2.91-0.02c-2.05-1.88-3.15-4.31-3.28-7.07c-0.2-4.27-0.38-8.55,2.16-12.4c0.87-1.32,1.71-2.81,2.02-4.34
	c0.8-3.91,1.57-7.87-1.21-11.49c-3.17-4.12-4.67-8.99-5.57-13.98c-1.28-7.03,0.49-13.1,6.53-17.54c1.49-1.1,2.95-2.34,4.12-3.77
	c2.84-3.45,2.12-7.79-1.91-9.99c-1.89-1.03-3.05-2.03-2.96-4.16c0.12-2.64-1.11-4.58-2.96-6.29c-0.78-0.72-1.55-1.49-2.19-2.34
	c-1.96-2.63-1.74-5.65,0.79-7.88c3.95-3.49,8.81-5.1,13.95-5.12c3.57-0.02,6.5,1.78,8.39,5.22
	C124.76,158.52,124.98,160.16,122.04,166.23z"/>
<path class="st15" d="M98.34,279.11c0.14-1.85,0.09-3.75,0.5-5.54c0.28-1.24,1.02-2.47,1.85-3.46c1.07-1.28,2.44-0.4,3.68-0.05
	c1.88,0.52,3.64,0.19,5.46-0.42c4.31-1.46,4.57-1.68,4.71-6.1c0.04-1.33,0.15-2.68-0.01-3.99c-0.45-3.63,1.4-6.07,3.98-8.2
	c1.47-1.21,3.24-0.73,3.65,1.12c0.63,2.84,1.24,5.68,1.7,8.55c0.37,2.31-0.92,4.12-2.33,5.72c-0.9,1.02-2.03,1.92-1.41,3.4
	c1.99,4.71-0.86,8.79-1.68,13.12c-0.43,2.29-1.62,2.52-3.65,0.49c-1.44-1.43-2.25-0.81-3.21,0.19c-2.58,2.7-2.31,5.86-0.99,8.93
	c0.83,1.93,2.21,3.62,3.3,5.44c1.39,2.31,2.48,4.7,2.22,7.52c-0.25,2.67-2.56,5.93-4.57,5.82c-2.45-0.13-4.87-1.09-5.94-3.4
	c-1.1-2.38-2.05-5.02-2.17-7.59c-0.22-4.38-1.38-8.4-3.29-12.22C98.64,285.42,98.29,282.35,98.34,279.11z"/>
<path class="st1" d="M280.02,280.09c-0.61-1.97-0.68-3.96-0.2-5.97c0.08-9.61,0.19-19.23,0.24-28.84c0.05-9.32,1.2-10.15,10.34-6.95
	c3.24,1.14,6.37,2.62,9.46,3.91c1.76-1.39,2.27-3.16,2.78-4.98c0.58-2.07,1.38-4.07,2.94-5.6c0.78-0.77,2.17-1.33,2.7-0.11
	c2.47,5.63,6.96,9.18,11.82,12.6c4.72,3.33,6.78,12.56,4.33,17.52c-0.46,0.93-1.25,1.73-1.97,2.51c-1.84,1.95-3.93,4.31-6.72,3.47
	c-3.28-0.99-3.73-4.2-3.53-7.31c0.2-3.06-0.34-5.76-2.79-7.97c-1.87-1.69-3.75-2.96-6.37-2.79c-3.39,0.22-6.95-0.77-9.85,2.11
	c-3.53,3.51-5.98,7.62-6.62,12.49c-0.93,7.1,0.72,13.78,4.4,19.95c0.42,0.7,0.91,1.48,1.76,1.05c0.63-0.32,1.35-1.08,1.43-1.73
	c0.5-3.81,1.61-7.28,4.62-9.91c1.41-1.23,2.89-1.26,4.28-0.02c1.21,1.08,2.22,2.26,2.58,3.93c0.39,1.81,1.05,3.57,1.38,5.4
	c0.88,4.86,4.4,6.33,8.65,6.82c1.59,0.18,3.31,0.18,4.51-1.1c1.58-1.7-0.31-2.8-0.86-4.16c-0.88-2.17-0.44-3.88,1.08-4.99
	c1.54-1.12,3.54-0.97,5.11,0.51c0.77,0.72,1.64,1.49,2.05,2.42c3.1,7,6.54,24.09,1.38,32.2c-3.11-2.45-6.36-4.37-10.7-4.13
	c-3.21,0.18-5.18-2.31-5.99-5.48c-0.66-2.57-1.15-5.23-2.17-7.66c-1.08-2.59-3.15-4.18-6.21-4.31c-3-0.12-5.23,0.83-6.37,3.74
	c-0.48,1.23-0.95,2.48-1.33,3.75c-0.38,1.27-0.52,2.62-1,3.84c-1.37,3.47-3.06,4.72-5.76,4.63c-3.33-0.11-4.55-2.6-5.43-5.12
	c-1.26-3.62-0.97-7.31,0.11-11C285.61,287.69,284.25,283.4,280.02,280.09z"/>
<path class="st1" d="M281.94,318.64c3.83,0,7.23-0.16,10.62,0.04c3.62,0.22,6.18-1.22,8.03-4.19c0.42-0.68,0.74-1.44,1.25-2.05
	c1.77-2.12,4.24-2.23,6.25-0.23c0.93,0.93,1.82,1.98,2.43,3.14c2.76,5.2,5.36,10.49,4.89,16.63c-0.25,3.23,0.67,5.43,3.78,7.13
	c4.52,2.47,5.44,6.44,3.48,11.49c-0.99,2.56-2.76,4.51-4.66,6.42c-1.88,1.89-3.72,3.83-5.37,5.91c-0.59,0.75-1.03,2.16-0.72,2.95
	c0.41,1.06,1.82,0.9,2.78,0.42c3.7-1.85,7.2-0.87,10.83,0.34c2.15,0.71,3.75,1.94,5.25,3.47c2.81,2.86,3.62,5.83,2.64,10.07
	c-1.57,6.8-5.2,12.22-9.48,17.3c-2.54,3.02-5.19,6.11-8.85,8.01c-2.9,1.51-5.06,0.97-6.71-1.83c-1.47-2.51-1.29-5.13-0.25-7.69
	c0.81-1.97,1.9-3.82,2.75-5.78c2.74-6.3,1.23-10.22-5-12.8c-1.45-0.6-3.14-0.61-4.61-1.17c-4.77-1.81-6.38-5.18-3.53-9.29
	c2.45-3.54,4.47-7.2,5.67-11.37c0.62-2.15,0.91-4.14,0.02-6.22c-0.11-0.25-0.24-0.48-0.3-0.74c-2.12-9.19-7.69-14.82-16.94-17
	c-4.37-1.03-4.38-1.26-4.44-5.09C281.71,323.9,281.87,321.28,281.94,318.64z"/>
<path class="st1" d="M190.57,347.22c8.24,0.92,16.14,3.14,23.79,6.28c0,3.44,0,6.88,0,10.48c1.17-0.13,2.11,0.04,2.69-0.34
	c3.21-2.08,6.25-0.68,9.11,0.56c3.17,1.38,4.41,4.5,5.47,7.58c0.17,0.49,0.26,1.08,0.16,1.59c-1.04,5.6,1.45,8.57,6.9,9.41
	c2.89,0.45,4.57,2.62,6.34,4.61c0.94,1.06,1.56,2.49,0.92,3.69c-1.51,2.85-0.12,5.1,0.94,7.56c2.76,6.45,0.45,12.4-7.08,15.1
	c-5.54,1.99-10.47,1.08-15.46-1.14c-1.04-0.46-1.42-1.56-1.01-2.71c0.36-1,0.82-1.97,1.25-2.95c3.52-7.98,3.1-16.1,0.79-24.26
	c-0.69-2.44-2.73-4.2-5.08-4.36c-2.31-0.17-4.18,0.88-5.55,2.62c-0.38,0.48-0.37,1.75,0.01,2.24c0.78,1.04,2.06,1.69,2.9,2.7
	c4.18,5.01,3.82,8.75-1.18,13.05c-1.42,1.22-2.73,1.46-4.01-0.31c-2.44-3.37-5.41-4.63-9.72-3.25c-2.44,0.78-5.3,0.3-7.98,0.28
	c-1.95-0.01-3.7-0.82-5.12-2.06c-1.64-1.44-2.73-3.32-2.51-5.63c0.19-1.98,2.54-4.43,4.81-4.85c1.56-0.29,3.22-0.08,4.8-0.32
	c5.76-0.85,8.93-4.36,9.36-10.24c0.7-9.7-4.76-16.57-14.95-20.02c-2.76-0.94-5.71-1.3-8.55-2.01c-0.35-0.09-0.83-0.73-0.79-1.06
	c0.05-0.44,0.47-0.98,0.88-1.21C185.17,346.91,188,347.98,190.57,347.22z"/>
<path class="st1" d="M273.53,355.36c0.75-1.75,1.6-3.43,3.09-4.68c4.28,1.28,8.95,1.46,12.55,4.61c0.59,0.52,1.48,0.73,2.01,1.29
	c3.61,3.79,4.25,7.59-0.89,11.4c-2.3,1.7-5.28,2.48-7.93,3.73c-0.94,0.44-1.85,0.98-2.71,1.57c-0.78,0.55-0.55,2.48,0.35,2.68
	c3.61,0.8,7.05,2.22,10.88,2.25c3.12,0.02,4.54,2.95,2.99,5.6c-0.53,0.91-1.26,1.72-1.99,2.49c-1.28,1.36-2.73,2.57-3.91,4.01
	c-1.05,1.29-3.76,2.39-1.92,4.41c1.37,1.5,2.69-0.81,4.04-1.41c2.55-1.13,4.26-0.1,4.38,2.53c0.09,1.91-0.36,3.64-1.11,5.41
	c-4.09,9.71-15.4,14.85-23.98,13.73c-1.55-0.2-3.15-0.59-4.57-1.24c-5.33-2.44-7.61-8.95-4.92-14.13c1.15-2.23,3.04-3.73,5.71-3.8
	c2.4-0.07,4.81-0.08,7.21-0.06c1.94,0.02,3.67-0.54,5.28-1.58c2.69-1.73,2.6-6.41-0.11-8.14c-1.88-1.2-3.93-1.55-6.11-1.52
	c-3.47,0.04-6.95,0.09-10.41-0.04c-3.31-0.12-4.95-1.38-5.33-3.74c-0.47-2.91,1.29-5.94,4.19-6.95c0.98-0.34,2.08-0.42,3.13-0.47
	c1.87-0.09,3.78,0.19,5.6-0.13c6.85-1.2,9.79-4.67,6.63-12.74C275.04,358.73,273.62,357.33,273.53,355.36z"/>
<path class="st0" d="M525.87,101.08c0.05-0.12,0.07-0.39,0.2-0.46c0.95-0.51,1.94-0.49,2.9-0.04c0.16,0.07,0.22,0.36,0.33,0.54
	c-0.45,0.21-0.88,0.55-1.34,0.59C527.23,101.78,526.4,101.91,525.87,101.08z"/>
<path class="st16" d="M373.27,169.26c1.45-1.09,1.54-2.66,1.61-4.3c0.21-5.35-0.88-10.57-1.37-15.85
	c-0.49-5.35-1.49-10.49-2.78-15.65c-2.09-8.33-5.09-16.23-10.11-23.28c-0.77-1.08-1.3-2.32-1.95-3.49
	c3.96-3.48,8.56-2.16,13.04-1.72c1.02,1.11,2.05,2.21,3.07,3.32c3.71,10.9,5.06,22.14,4.93,33.61c-0.08,6.91,0,13.83,0,20.74
	c0,1.86-0.14,3.76,1.57,5.1c0,2.64,0,5.29-0.01,7.93c-1.14,0.93-1.71,2.19-1.17,3.54c1.36,3.34,1.12,6.81,1.13,10.27
	c0.03,14.96,0.06,29.92,0.08,44.88c0,1.87-0.02,3.74-0.06,5.61c-0.04,2.01-1.04,3.53-2.46,4.85c-2.03,1.88-4.45,1.85-6.39-0.13
	c-2.79-2.85-3.7-6.58-3.8-10.27c-0.15-5.56-0.95-11.21,1.02-16.68c0.44-1.21,0.32-2.64,0.38-3.97c0.37-7.97,1.87-15.8,2.85-23.7
	c0.66-5.27,0.31-10.66,0.39-16C373.29,172.47,373.27,170.86,373.27,169.26z"/>
<path class="st6" d="M387.69,276.48c-0.19-0.15-0.37-0.3-0.56-0.45c0.21-0.12,0.44-0.33,0.64-0.32c0.2,0.02,0.38,0.27,0.56,0.43
	C388.12,276.25,387.9,276.37,387.69,276.48z"/>
<path class="st0" d="M371.67,272.06c-0.54,0-1.07,0-1.6-0.01c-0.01-0.53-0.01-1.06-0.01-1.6
	C370.59,270.99,371.13,271.52,371.67,272.06z"/>
<path class="st17" d="M273.1,76.16c-5.25-0.7-10.82-1.18-16.26-2.28c-2.63-0.53-5.25-0.74-7.87-1.13c-4.73-0.7-7.72-3.33-7.19-6.03
	c0.51-2.61,4.38-4.92,8.31-5.03c1.93-0.05,3.75,0.35,5.36,1.35c5.99,3.72,12.68,5.39,19.51,6.52c2.24,0.37,4.13,1.08,5.35,3.04
	c0.65,1.04,0.34,2.02-0.69,2.71C277.68,76.61,275.48,75.98,273.1,76.16z"/>
<path class="st18" d="M371.72,104.97c-1.06,1.47-2.62,1.64-4.26,1.65c-2.93,0.01-5.85,0.05-8.78,0.07
	c-1.05-0.54-2.11-1.09-3.16-1.63c-3.4-3.86-7.93-5.49-12.77-6.54c-0.54-0.51-1.09-1.02-1.64-1.52c0,0-0.01,0.01-0.01,0.01
	c4.58-2.33,9.54-2.92,14.56-3.28c4.39-0.38,7.19,2.74,10.28,4.95C368.23,100.31,370.36,102.35,371.72,104.97z"/>
<path class="st11" d="M341.11,97c0.55,0.51,1.09,1.01,1.64,1.52C342.21,98.01,341.66,97.5,341.11,97z"/>
<path class="st19" d="M135.47,312.22c-1.46-6.04-1.17-12.2-0.99-18.3c1.18-40.23,2.49-80.46,3.78-120.69
	c0.07-2.13,0.14-4.29,0.56-6.36c0.98-4.88,3.72-6.69,8.62-5.97c0.26,0.04,0.53,0.08,0.78,0.16c9.17,2.71,18.56,4.74,27.46,8.35
	c11.23,13.71,18.41,29.16,18.82,47.05c0.13,5.55-3.62,10.54-5.27,15.9c-3.12,10.17-0.58,16.22,8.98,20.97
	c1.2,0.59,2.46,1.05,3.68,1.59c15.09,6.74,21.9,20.56,18.04,36.61c-4.44,18.51-16.71,28.48-33.89,27.57
	c-1.87-0.1-3.77-0.15-5.56-0.7c-8.98-2.74-17.19-0.99-25.53,3.08C144.28,326.69,138.68,323.7,135.47,312.22z"/>
<path class="st20" d="M199.57,226.85c0.01-15.18,0.03-30.36,0.04-45.54c0-0.53,0-1.07,0.03-1.6c0.31-6.46,1.56-7.58,7.78-5.91
	c8.94,2.4,17.93,1.6,26.98,1.31c9.08-0.29,18.09,0.34,26.19,5.27c1.38,0.84,2.69,1.72,3.51,3.16c9.47,14.53,9.72,30.73,7.65,47
	c-1.33,10.45-5.13,12.48-15.45,10.75c-5.53-0.93-10.95-2.38-16.44-3.49c-10.04-2.03-20.04-2.2-30.23-0.8
	C200.95,238.18,198.68,235.45,199.57,226.85z"/>
<path class="st21" d="M135.47,312.22c1.6,0.92,1.38,2.8,2.19,4.12c3.17,5.19,8.04,6.86,13.73,4.68c1.74-0.67,3.43-1.52,5.04-2.45
	c3.51-2.03,7.31-3.14,11.23-4.04c1.63-0.37,3.05-0.35,4.67,0.01c6.22,1.38,12.41,2.7,18.91,2.61c6.01-0.09,10.76-2.4,15.23-6.03
	c4.73-3.85,7.52-8.99,9.77-14.44c4.77-11.51,2.74-22.33-3.65-32.66c-1.04-1.68-2.37-2.83-4.12-3.62c-3.15-1.44-6.19-3.2-9.46-4.29
	c-3.69-1.23-6.61-3.3-9.28-6.02c-4.38-4.45-5.65-9.5-3.5-15.39c1.37-3.75,2.37-7.68,4.11-11.25c3.93-8.06,3.66-15.81-0.26-23.81
	c-3.51-7.17-6.44-14.62-9.78-21.88c-1.33-2.89-3.07-5.58-4.62-8.36c4.82,0.19,9.42,1.39,13.94,2.98c3.68,1.29,5.67,3.82,5.76,7.72
	c0.05,2.38,0.14,4.79-0.08,7.16c-0.65,6.92-0.49,13.82,0.2,20.7c0.71,7.16,0.78,14.33,0.48,21.51c-0.11,2.65-0.12,5.32,0.12,7.96
	c0.55,6.1,1.35,7.08,7.51,8.41c4.41,0.95,8.9,1.53,13.38,2.13c2.65,0.36,5.27,0.71,7.75,1.77c1.02,4.7,6.09,5.62,8.48,9.06
	c1.61,5.76,0.55,11.65,0.9,17.47c-0.76,10.63-1.99,21.25-2.12,31.92c-0.13,10.38,0.09,20.8,5.13,30.33c1.88,3.52,5.1,5.95,7.48,9.06
	c0.19,0.34,0.36,0.69,0.54,1.04c0.23,0.81,0,1.48-0.66,2c-6.22,0.99-12.22-0.19-18.15-1.9c-3.58-1.04-7.13-2.2-10.66-3.41
	c-9.14-3.12-18.59-4.67-28.14-5.78c-9.27-1.07-18.53-2.19-27.54-4.78c-5.67-1.64-11.12-3.78-15.95-7.2
	C138.77,323.82,135.27,319.03,135.47,312.22z"/>
<path class="st22" d="M231.29,257.2c-0.79,0.04-1.58,0.17-2.35,0.1c-3.91-0.33-5.05-1.53-4.96-5.35c0.02-0.75,0.48-1.48,0.73-2.22
	c2-1.06,3.99-2.12,5.98-3.18c7.68-3.37,14.55,0.67,21.68,2.32c11.76,0.58,16,15.09,13.3,23.78c-0.66,2.13-1.19,3.86-0.23,6.06
	c2.15,4.96,1.6,9.67-3.45,12.4c-3.85,2.08-1,5.43-2.3,7.69c-2.3,4.01,1.11,3.85,3.08,5.24c4.12,2.91,4.2,8.64-0.39,12.32
	c-5.31,4.25-9.22,8.85-11.73,15.45c-2.97,7.78-9.29,7.69-15.23,0.72c-0.94-6.27-1.72-12.6-3.95-18.57
	c-0.91-2.44-0.81-4.61,0.03-6.92c3.83-10.48,1.94-21.36,2.2-32.08C232.89,269.05,234.67,262.78,231.29,257.2z"/>
<path class="st23" d="M236.77,333.07c1.09,0.77,2.11,1.67,3.28,2.28c3.22,1.67,5.67,1.22,7.53-1.84c1.41-2.31,4.32-4.21,2.52-7.83
	c-0.78-1.57,0.83-3,2.1-3.96c2.96-2.26,5.95-4.5,9.08-6.52c2.38-1.55,2.85-3.69,2.68-6.22c-0.23-3.36-1.45-4.24-5.28-3.77
	c-0.78,0.1-1.57,0.27-2.34,0.24c-1.2-0.04-1.98-1.9-1.7-3.1c0.53-2.29,3.93-2.48,3.76-4.81c-0.12-1.71-1.53-3.29-2.09-5.01
	c-0.36-1.12,0.41-2.12,1.5-2.46c1-0.32,2.11-0.32,3.17-0.42c1.49-0.14,2.5-0.84,2.86-2.32c0.25-1.04,0.23-2.18,0.66-3.12
	c1.09-2.36,0.34-3.87-1.52-5.54c-2.76-2.48-2.92-3.68-0.2-5.7c2.79-2.07,2.99-3.98,1.63-6.81c-0.67-1.41-1.37-3.22-1.03-4.6
	c0.7-2.89-0.75-4.52-2.48-6.28c-2.28-2.32-4.51-4.67-8.22-4.12c5.42-5.73,10.29-4.53,14.67,3.62c0.18,2.57,2.09,4.27,3.26,6.33
	c1.87,3.32,3.03,6.73,3.05,10.61c0.06,16.8,0.3,33.61,0.36,50.41c0.02,6.13-0.29,12.26-2.06,18.21c-1,3.35-2.32,6.54-4.2,9.47
	c-4.01,6.21-10.25,7.71-16.58,3.97c-1.6-0.94-3.05-2.13-4.57-3.21c-0.8-0.25-1.41-0.79-1.97-1.39l0.07,0.07
	c-2.09-3.63-5.58-6.15-7.71-9.75C235.79,337.39,234.44,335.29,236.77,333.07z"/>
<path class="st24" d="M267.34,254.77c-0.96-0.83-1.97-1.62-2.88-2.51c-3.64-3.57-7.58-3.76-11.79-1.1
	c-0.79-0.03-1.76,0.23-2.34-0.14c-6.03-3.83-13.06-3.18-19.64-4.47c-8.18-2.47-16.6-3.69-25.01-5.07c-1.82-0.3-3.63-0.77-5.39-1.34
	c-1.03-0.34-1.86-1.21-1.85-2.37c0.04-3.67-1.05-7.46,1.13-10.91c0.08,1.06,0.07,2.14,0.24,3.19c0.61,3.78,1.59,4.85,4.95,5
	c2.12,0.1,4.34,0.18,6.38-0.31c7.93-1.87,15.72-1.37,23.74-0.11c8.17,1.29,16.11,3.38,24.18,4.99c1.3,0.26,2.66,0.2,3.99,0.29
	c2.49,0.17,4.28-1.03,4.87-3.3c1-3.84,2.53-7.58,2.49-11.66c-0.04-5.61,0.37-11.26-0.11-16.83c-0.56-6.61-1.73-13.18-4.57-19.3
	c-0.78-1.69-1.82-3.3-1.64-5.29c4.32,2.4,6.08,6.69,7.41,10.97c1.17,3.76,1.79,7.72,2.33,11.69c1.13,8.21,1.42,16.4,1.25,24.65
	c-0.14,7.17-1.76,14.23-1.57,21.45c0.09,3.33-0.82,3.73-4.66,2.96C268.34,255.15,267.85,254.94,267.34,254.77z"/>
<path class="st25" d="M244.61,349.17c1.01-0.03,1.58,0.55,1.97,1.39c-0.71,0.02-1.41,0.03-2.12,0.05
	C244.45,350.13,244.5,349.65,244.61,349.17z"/>
<path class="st14" d="M141.78,273.39c0.86-4.88,1.45-9.64,2.57-14.27c2.57-10.65,4.54-21.34,3.95-32.37c-0.14-2.67-0.13-5.35,0-8.02
	c0.53-10.76-1.23-21.23-4.01-31.55c-0.57-2.11-0.92-4.17-0.78-6.31c0.24-3.88,2.74-6.31,6.56-6.76c4.92-0.59,8.92,1.7,12.63,4.27
	c3.48,2.41,6.51,5.42,9.21,8.79c2.31,2.88,3.08,6.11,1.31,8.9c-3.4,5.33-1.89,9.53,1.67,13.76c0.51,0.6,0.69,1.5,1.22,2.06
	c5.44,5.71,4.99,11.99,1.8,18.5c-1.17,2.39-2.44,4.75-3.89,6.98c-0.9,1.38-2.24,2.37-4,1c-1.25-0.97-2.36-0.83-3.52,0.25
	c-3.03,2.82-4.84,6.06-5.46,10.34c-1.4,9.7-2,19.52-4.52,29.09c-0.91,3.45-2.78,5.67-5.33,7.62c-1.4,1.07-3.1,0.95-4.46-0.17
	c-1.01-0.83-2.2-1.82-2.58-2.97C143.13,279.5,142.52,276.35,141.78,273.39z"/>
<path class="st26" d="M236.77,333.07c-0.54,2.4,0.75,4.37,1.52,6.47c0.59,1.62-0.16,2-1.61,1.73c-2.75-2.73-3.8-6.31-4.83-9.86
	c-2.1-7.2-2.72-14.65-2.37-22.06c0.51-10.85,1.68-21.68,2.57-32.51c1.17-0.88-0.13-4.04,2.93-3.17c0.38,0.99,1.18,2.03,1.08,2.96
	c-0.59,5.57-0.79,11.04,0.92,16.52c0.63,2.01-0.1,4.22-1.04,6.19c-0.79,1.68-1.6,3.37-2.31,5.09c-1.49,3.61-1.91,7.47-0.03,10.85
	C236.75,320.94,236.76,326.96,236.77,333.07z"/>
<path class="st27" d="M234.99,273.67c-0.98,1.06-1.95,2.12-2.93,3.17c-0.25-6.55-0.51-13.09-0.76-19.64
	c2.96-1.07,3.63-0.8,3.28,1.42c-0.12,0.74-1,1.71-0.76,2.11C236.29,264.89,234.37,269.39,234.99,273.67z"/>
<path class="st25" d="M236.68,341.27c0.54-0.58,1.07-1.15,1.61-1.73c1.85,2.24,3.79,4.43,5.52,6.76c0.57,0.77,0.6,1.95,0.88,2.94
	C240.81,347.79,238.44,344.84,236.68,341.27z"/>
</svg>
