<svg xmlns="http://www.w3.org/2000/svg" viewBox="0 0 489 208"><defs><style>.cls-1{fill:#4d4d4d;}.cls-2{fill:#cfcfcf;}.cls-3{fill:#464646;}.cls-4{fill:#3b3b3b;}.cls-5{fill:#cdcdcd;}.cls-6{fill:#4a4a4a;}.cls-7{fill:#2f2f2f;}.cls-8{fill:#303030;}.cls-9{fill:#3c3c3c;}.cls-10{fill:#2c2c2c;}.cls-11{fill:#c6c6c6;}.cls-12{fill:#1f1f1f;}.cls-13{fill:#252525;}.cls-14{fill:#b6b6b6;}.cls-15{fill:#424242;}.cls-16{fill:#3f3f3f;}.cls-17{fill:#bdbdbd;}</style></defs><g id="Слой_2" data-name="Слой 2"><g id="Слой_1-2" data-name="Слой 1"><path class="cls-1" d="M22,100.55c.19-4.59,1.89-9,3-13.46,5.1-20.46,10.35-40.9,15.55-61.35.8-3.14,1.58-6.27,2.43-9.4a21.1,21.1,0,0,1,3.62-7.23A20,20,0,0,1,57.26,1.93c1-.28,1.85-.62,2.78-.93,2.1-.9,4.4-.46,6.6-.46q179.06,0,358.11,0c2.2,0,4.5-.41,6.61.43a.64.64,0,0,0,.75.12,1.7,1.7,0,0,0,.94.38q.54,0,1.08,0a2.54,2.54,0,0,1,.9.45h0a7.26,7.26,0,0,1,1.08.88,16.1,16.1,0,0,0,3.71,3.08,6.16,6.16,0,0,1,1,.84,12,12,0,0,1,1.05,1.44,6,6,0,0,1,.68.93c.31.48.6,1,1,1.43a4.55,4.55,0,0,1,.65,1,3.9,3.9,0,0,1,.73,2.4,2.61,2.61,0,0,1-1.21,1.84c-2.64,1-4.58-.18-6.77-1-5.43-2.08-10.24-4.88-15.94-6.7-10.67-3.41-21.22-1.33-31.89-.47-21.66,1.76-43.3,3.6-65.09,4.55-15.55.68-31.22.53-46.55,4.25-11.29,2.75-19.22,8.36-27.81,13.62-15,9.17-30,18.56-48.23,23.91-22.37,6.55-45,12.75-69.19,14.68-5.07.4-10.11,1-15.08,1.86-22,3.64-44.41,4.37-66.67,6.23a51.83,51.83,0,0,1-10.34-.61c-4.77-.56-7.68.61-8.55,4.57C30.37,86.19,30,91.88,26.71,97.07,25.73,98.65,25.27,100.69,22,100.55Z"/><path class="cls-2" d="M431.36,1q-54.75,0-109.5-.06Q202,.9,82.06.92C74.72.92,67.38,1,60,1A5.64,5.64,0,0,1,63.39.08l5.51,0H263.47c2.85,0,5.71,0,8.56,0l64.83,0q43.74,0,87.47,0C426.71.08,429.27-.4,431.36,1Z"/><path class="cls-3" d="M14.6,129.56a.51.51,0,0,1,.15-.72c1.22-1.11,0-2.62,1.06-3.76l-.05,0c3.8.34,3.76,2.63,3.43,4.45a194.84,194.84,0,0,1-5.83,25.07,4,4,0,0,1-2.82,2.79c-2.81-.48-2.44-2.34-3-3.81.68-1.17-.13-2.59,1-3.7.27-.15.3-.34.1-.55,1-1.24-.13-2.79,1.07-4,.27-.19.32-.41.14-.65,1.25-1.48-.43-3.39,1.23-4.81,1.64-2,.85-4.45,2.4-6.43C14.72,132.25,13.52,130.73,14.6,129.56Z"/><path class="cls-4" d="M449.56,23a.55.55,0,0,0,.19.79l-.08,2.76c-1.28.73.6,2.64-1.94,2.9-4.93-4.39-4.92-9.53-4.09-14.8l-.06-1.83c-.72-.48-.44-1.34-1.19-1.81h0c-.72-.49-.49-1.33-1.22-1.82s-.48-1.34-1.23-1.82h0c-.45-.78.17-1.11,1-1.34a1.81,1.81,0,0,1,1.4.5l0,0c.53.29,1,.6,1.18,1.12l-.2-.15c1.14.33.88,1.28,1.47,1.86l-.07-.08c.93.46.76,1.32,1.24,1.95l-.09-.12c1.5.71.41,2.09,1.36,2.94a.46.46,0,0,0,.2.69c1.14,1.14-.1,2.65,1.07,3.79a.53.53,0,0,0,.14.78c1.16,1.13-.06,2.62,1,3.76Z"/><path class="cls-2" d="M442.34,6.53c-.33,0-.66-.09-1-.15-1.48-.35-2.89-.76-3-2.18l.43-.59C441,3.93,442.26,4.83,442.34,6.53Z"/><path class="cls-2" d="M11.15,139.84c0,1.66,0,3.32-1.23,4.81-.06-.7-.13-1.41-.19-2.11C9.82,141.52,9.86,140.5,11.15,139.84Z"/><path class="cls-5" d="M7.28,154.41c0-.6,0-1.21,0-1.81.13-1,.16-2,1.37-2.75l-.09,3.65c.35.19.5.4.48.65s-.1.39-.19.39l-.8.16Z"/><path class="cls-2" d="M9.78,145.3a4.86,4.86,0,0,1-1.07,4C8.65,147.91,8.23,146.46,9.78,145.3Z"/><path class="cls-2" d="M448.46,18.48a5,5,0,0,1-1.07-3.79C448.82,15.79,448.46,17.16,448.46,18.48Z"/><path class="cls-2" d="M449.63,23c-1.19-1.13-1.11-2.44-1-3.76C450,20.35,449.7,21.7,449.63,23Z"/><path class="cls-2" d="M447.19,14a3.84,3.84,0,0,1-1.36-2.94C447.29,11.78,447.27,12.88,447.19,14Z"/><path class="cls-2" d="M435,1.92l-2.39-.08h0c-.19-.24-.38-.49-.55-.75A3.87,3.87,0,0,1,435,1.92Z"/><path class="cls-2" d="M435.38,2.65a7.39,7.39,0,0,0-.38-.74,3.89,3.89,0,0,1,2.55.89l-.72.34A1.76,1.76,0,0,1,435.38,2.65Z"/><path class="cls-2" d="M444.75,9.31a2.42,2.42,0,0,1-1.47-1.86A1.88,1.88,0,0,1,444.75,9.31Z"/><path class="cls-2" d="M445.92,11.18a2.18,2.18,0,0,1-1.24-1.95A1.87,1.87,0,0,1,445.92,11.18Z"/><path class="cls-2" d="M1.23,164.48,0,165.39Z"/><path class="cls-2" d="M437.55,2.8l1.28.81-.09.09c-1.05.31-1.38-.08-1.37-.79Z"/><path class="cls-2" d="M443.48,7.6a1.4,1.4,0,0,1-1.18-1.12Z"/><path class="cls-6" d="M443.64,14.67a3.38,3.38,0,0,1,1.19,2q1.32,5.74,2.75,11.48c.1.42.59.78.89,1.16a2.77,2.77,0,0,1,1.85,2.16c.19.88.76,1.67,1,2.53.25,1.11.14,2.24.42,3.34a15.32,15.32,0,0,1,1,2.73c3.69,14.34,6.83,28.75,10.87,43,1.36,7.73,4.3,15.26,5.14,23a10.49,10.49,0,0,0,.94,3.6,3.56,3.56,0,0,1-.56,2.86c-4.6,2.39-6.39-.62-7.74-2.7-3.9-6-7.3-12.17-9.25-18.78-3.52-12-6.15-24.25-14.8-35.06-3.88-4.86-8-9.58-15-12.32a13.07,13.07,0,0,0-7-1c-17.93,2.53-35.6,6.08-51.52,12.64-18.19,7.51-35.78,16-47,29.83-3.61,4.46-8.88,7.92-13.45,11.8-1.94,1.65-4.59,2.45-7.33,3.16-38.91,10.13-79.24,15.41-119.91,19.52-6.26.64-12.46,1.55-18.71,2.25A38.59,38.59,0,0,0,144.07,126c-10.65,5.39-22.51,9.23-33.47,14.25-3.16,1.45-6.32,2.75-8,5.39a5.12,5.12,0,0,1-2.29,2.11c-8.76,3.57-12.82,10.22-17.37,16.08-5.69,7.32-11.29,15-13.14,23.61-.39,1.82-.76,3.65-3.39,4.56-14.21.75-28.43.06-42.63.39-8.49.36-13.95-3-18-8.14a14.33,14.33,0,0,0-1-1.94A4,4,0,0,1,4.39,181a16.28,16.28,0,0,0-.65-3.19,5.5,5.5,0,0,1,.17-1.93c1.33-2.68,1-5.62,2.19-8.31a25.71,25.71,0,0,0,.7-2.53,10,10,0,0,0,.62-3.18,24.12,24.12,0,0,0,.76-3.21,2.61,2.61,0,0,1,1.62-1.52c2.11-1.9,1.47-4.34,2.09-6.5,2-7.07,3.48-14.23,5.09-21.36.34-1.5.44-3-1.22-4.26.27-4.87,2.07-9.56,3.26-14.32.85-3.41,1.19-6.92,3-10.18.37-.36.9-.68,1.09-1.08,2.35-5.14,4.94-10.23,5.22-15.78a23.43,23.43,0,0,1,1.54-6.25c.84-2.44,2.31-3.26,5.65-3.36a33.12,33.12,0,0,1,7.89.5,25.33,25.33,0,0,0,9.7.06A40.78,40.78,0,0,1,61,74.05a29.41,29.41,0,0,0,7.26-.6,11.69,11.69,0,0,1,3-.28c6.77.13,13.36-.82,20-1.72a7.16,7.16,0,0,1,1.22-.09c9.31.28,18-2.14,27.09-3.13,4.82-.53,9.6-1.19,14.47-1.59A150.89,150.89,0,0,0,157.85,63c8.69-2.14,17.32-4.5,26.18-6.14,11.07-2.06,20.87-6.12,30.75-10a121.43,121.43,0,0,0,15.09-7.69c7.78-4.4,15.42-8.93,23-13.52,3-1.81,5.81-3.8,8.74-5.68,3.38-2.18,7.24-3.3,11.27-4.33,2.7-.68,5.47-1.2,8.18-1.85a99.92,99.92,0,0,1,12.46-2.05c6.32-.69,12.59-.65,18.89-.73a13.13,13.13,0,0,0,2.44-.08c5.6-1.21,11.34-.75,17-.83a31.05,31.05,0,0,0,6.67-.5,12.93,12.93,0,0,1,3.61-.37c6,.41,11.78-.59,17.62-1.08,8.28-.7,16.59-1.09,24.86-1.8,6.85-.59,13.66-1.51,20.47-2.36a17.31,17.31,0,0,1,7.21.33,8.78,8.78,0,0,0,1.76.39c8.85.72,15.67,4.81,23.16,7.76A27.17,27.17,0,0,1,441,14.84,2.22,2.22,0,0,0,443.64,14.67Z"/><path class="cls-6" d="M14.6,129.56c.09,1.35.42,2.73-1,3.85A4.49,4.49,0,0,1,14.6,129.56Z"/><path class="cls-6" d="M15.81,125.08c.12,1.33.42,2.69-1.06,3.76C14.63,127.52,14.59,126.2,15.81,125.08Z"/><path class="cls-6" d="M437.37,2.91a1.59,1.59,0,0,0,1.37.79c.87.89,1.75,1.78,2.62,2.68l-1.44,1a17.68,17.68,0,0,1-4.76-3.21c-.61-.51-.49-1.06.22-1.51Z"/><path class="cls-6" d="M439.94,7.38a2.23,2.23,0,0,1,1.23,1.82A2.26,2.26,0,0,1,439.94,7.38Z"/><path class="cls-6" d="M441.17,9.2A2.24,2.24,0,0,1,442.39,11,2.24,2.24,0,0,1,441.17,9.2Z"/><path class="cls-6" d="M442.39,11a2.14,2.14,0,0,1,1.19,1.81A2.26,2.26,0,0,1,442.39,11Z"/><polygon class="cls-6" points="432.64 1.84 432.32 2.1 432.66 1.84 432.64 1.84"/><path class="cls-7" d="M9.94,192.4c-1.73-2.2-4.6-3.9-5.22-6.59-.39-.71-.27-1.55-1.07-2.15v0a21.57,21.57,0,0,1-.14-10.38c-.19-.23-.14-.44.14-.61,3.31.67,1.74,2.27,1.25,3.66v1.82c1.14.75.08,2,1.17,2.76l.06.89c.4.31.79.62,1.16.94,2.92,4.73,7.85,7.46,14.75,8.23,15.79.57,31.59,1,47.36-.28,1.83-.16,3.65-.19,5.48-.19q55.86,0,111.74,0c2.42,0,4.91-.23,7.17.7,2.55,3.32,6.85,3.28,11.18,3.28h99.48c3.05,0,6.1-.11,9.15.13,28.94-.27,57.9.44,86.81-.3,20.34-.53,40.7-.28,61-1.14,5.43-.24,10.74-1.3,16.07-2.1,3.68,1.1,1.79,2.52.11,3.55a35.87,35.87,0,0,1-7.34,2.9,36.37,36.37,0,0,0-5.81,1,19.4,19.4,0,0,1-2,.15c-1.76,0-3.51,0-5.27,0H25.35c-1,0-2,0-3.05-.05C16.94,198,12.78,195.89,9.94,192.4Z"/><path class="cls-8" d="M450.83,31.11l.29,1.56a19.67,19.67,0,0,1,1.36,3.52c.45.74.13,1.64.88,2.31l0,0a3.29,3.29,0,0,1,1,1.24,30.53,30.53,0,0,1,3.76,9.78c.53,6.42,3.79,12.46,4.71,18.82-.35,2.87,1.41,5.6,1.06,8.47a12,12,0,0,0,.6,3.33,3.57,3.57,0,0,1-.18,1.33,3.16,3.16,0,0,1-2.34,1.86c-.21-.26-.55-.5-.62-.77-1.4-5.32-2.81-10.64-4.13-16-1.47-5.92-2.87-11.86-4.25-17.8-.72-3.11-1.34-6.24-2-9.36-.69-.52-.4-1.36-1.11-1.87l-.12-3.61c-.68-.52-.39-1.36-1.12-1.87l-.09-2.69c.07-1,0-2,1.2-2.76L450,28C450.53,29,450,30.14,450.83,31.11Z"/><path class="cls-4" d="M4.91,176.35c-.1-1.28.27-2.65-1.25-3.66a9.07,9.07,0,0,1,1.28-5.48c1.22-1.16,0-2.69,1.06-3.88a.47.47,0,0,1,.14-.68c1.15-1.13.37-2.43.61-3.65A3.11,3.11,0,0,1,7,157.75c.39-1.24.36-2.56,1.35-3.68-.16-.22-.12-.41.14-.57,1.56,1,1.21,2.38,1.28,3.67V159c-1.15.73-.06,2-1.2,2.75l0,3.64c-.75.48-.43,1.35-1.19,1.84A22.2,22.2,0,0,1,4.91,176.35Z"/><path class="cls-4" d="M3.52,173.3l.14,10.38a9.47,9.47,0,0,0-1-.37A50,50,0,0,1,2.24,178C2.27,176.4,2.17,174.73,3.52,173.3Z"/><path class="cls-3" d="M7.18,158.75c.21,1.38.47,2.77-1,3.9,0-1.2.07-2.39.1-3.58l0,0C6.36,158.7,6.67,158.57,7.18,158.75Z"/><path class="cls-3" d="M6,163.33c.17,1.37.43,2.76-1.06,3.88A4.47,4.47,0,0,1,6,163.33Z"/><path class="cls-4" d="M450.83,31.11A2.76,2.76,0,0,1,450,28l1.12,1.32Z"/><path class="cls-5" d="M7.18,158.75c-.33.11-.65.22-1,.35,0-1.61-.61-3.29,1.06-4.69l.15.07a2.82,2.82,0,0,1-.1,3.61A.45.45,0,0,0,7.18,158.75Z"/><path class="cls-3" d="M7.33,158.09c0-1.21.07-2.41.1-3.61a7.35,7.35,0,0,1,1-.41C8.61,155.49,8.91,156.93,7.33,158.09Z"/><path class="cls-3" d="M67.39,191l0-4.57a4,4,0,0,1,1.1-3A8.26,8.26,0,0,0,71.14,177c0-2.07,1-3.89,3.45-5.07,2.64-1.28,3.85-3.15,3.79-5.4-.06-2,1.21-3.49,3.12-4.73,3-2,5.19-4.28,6.08-7.22.52-1.74,2-2.95,3.93-3.89,1.55-.73,2.92-1.66,4.47-2.39,2.86-1.34,5.12-3,5.92-5.54.35-1.13,1.59-1.73,2.91-2.2,9-3.21,17.21-7.57,26.25-10.8a108.25,108.25,0,0,0,14.06-6.43,21.77,21.77,0,0,1,7.72-2.55c8.23-1,16.4-2.22,24.7-3,7.87-.7,15.66-1.87,23.49-2.84,4.21-.52,8.41-1.07,12.63-1.57,6.82-.8,13.64-1.67,20.5-2.32,10.18-1,19.77-3.62,29.59-5.61,10.82-2.2,21.52-4.7,32.28-7.06,2.8-.61,5.41-1.36,6.83-3.5a6.88,6.88,0,0,1,1.89-1.78c6.61-4.42,11.08-10.08,16.31-15.31a65.84,65.84,0,0,1,14.65-11c7.36-4.08,15.43-7.4,22.67-11.63a10.88,10.88,0,0,1,2.15-.88c6.91-2.21,13.5-5,20.87-6.41a36.68,36.68,0,0,0,5.23-1.3c6.34-2.22,13.12-3.29,19.93-4.26a56.27,56.27,0,0,0,8.3-1.51c2.75-.85,5.05-.25,7.56.67,7.07,2.6,11.78,7,15.64,11.8s7.23,9.56,9.25,14.88c.66,1.74.93,3.58,1.64,5.31,2.9,7.14,4.85,14.43,7,21.7,1.55,5.23,5.44,9.82,7.78,14.85a5.5,5.5,0,0,0,3.32,2.56c.27.09.74-.15,1.11-.24,2.61-.12,2.67,1.43,3.11,2.69a46.06,46.06,0,0,1,2.45,11,15.19,15.19,0,0,0,.89,2.88,3.61,3.61,0,0,1-.54,2.85c-4.64,2.46-6.23-.83-7.89-2.69-5-5.59-7.91-12-12-17.94-6.27-9.06-14.32-17.38-19.83-26.74-1.56-2.65-4.11-2.51-7.05-1.34-6.89,2.76-12.83,6.53-18.68,10.29-5.07,3.25-10.72,5.39-16.76,7.36-46.31,15.14-95.39,23-144.52,30.78a482.83,482.83,0,0,0-47.6,10.29c-9,2.37-16.49,7.24-24.68,11-6.28,2.85-12.4,5.94-19.17,8.1-14.89,4.73-23.23,14.52-32.91,23.28-1.17,1.06-1.39,2.5-1.77,3.85-.46,1.63-.93,3.4-4,3.42-14.62,0-29.23,0-43.83,0C71.36,191.39,69.28,191.8,67.39,191Z"/><path class="cls-9" d="M67.39,191h51.47a9.17,9.17,0,0,1,6-1.87c15.61,0,31.22-.35,46.82.19,11-.38,22-.18,33-.17,4.1,0,7.21-.43,7.63-4.2.25-2.2,2.19-3.91,4.68-5.12a209,209,0,0,1,19.45-8.6c8.13-3,17.16-2.4,25.81-3,22.68-1.56,45.45-2.76,68.19-3.44,21.66-.64,42.95-3.14,64.37-5,15.79-1.37,31.14-4.66,46.57-7.44,8.49-1.53,15.11-1.07,21.43,4.11a99,99,0,0,0,17.56,11.8c1.89.28,2.85-1.68,4.85-1.14,3.38,2.26,3,5.29,3,8.25-1.89,4.44-2.65,9.28-7.58,12.67-4,2.74-8.39,4.83-14.2,4.32q-110.69,0-221.35,0a81.7,81.7,0,0,0-16.94,1.35c-8.91.29-17.83.14-26.76.14-2.88,0-5.71-.08-7.79-1.9q-82,0-163.92,0c-2.58,0-5.34.55-7.66-.86Z"/><path class="cls-10" d="M471.82,127c-.6-5-1.27-9.91-3.67-14.62l-.12-2.73c-1-.78,0-2-1.11-2.74a45.14,45.14,0,0,0-.64-4.48c-1.32-5.34-2.76-10.66-4.08-16a18.67,18.67,0,0,1-.27-3.17,2.55,2.55,0,0,1,1.24-1.91c4.07,1.41,4,4.5,4.6,7,3.84,17,8.07,33.86,12.17,50.78,1.8,7.44,4.21,14.81,5.37,22.34a31.13,31.13,0,0,1-.14,3.61,2.53,2.53,0,0,1-.72,1.29,5.1,5.1,0,0,1-1.73.49,3.71,3.71,0,0,1-1.71-.49,5.21,5.21,0,0,1-1.68-2.44c-.34-.87-.62-1.75-.89-2.63-.76-3.1-1.65-6.2-2.19-9.33a16.66,16.66,0,0,0-.39-2.72,17.51,17.51,0,0,1-1.18-2.67c-.61-5-3.64-9.86-1.64-15l-.13-2.76C472.26,128.31,472.56,127.49,471.82,127Z"/><path class="cls-3" d="M8.59,161.74A2.74,2.74,0,0,1,9.79,159,2.71,2.71,0,0,1,8.59,161.74Z"/><path class="cls-4" d="M6.08,180.93a2.74,2.74,0,0,1-1.17-2.76A2.67,2.67,0,0,1,6.08,180.93Z"/><path class="cls-4" d="M448.56,32a2.13,2.13,0,0,1,1.12,1.87A2.26,2.26,0,0,1,448.56,32Z"/><path class="cls-4" d="M449.8,37.5a2.14,2.14,0,0,1,1.11,1.87A2.22,2.22,0,0,1,449.8,37.5Z"/><path class="cls-3" d="M7.37,167.22a2.21,2.21,0,0,1,1.19-1.84A2.21,2.21,0,0,1,7.37,167.22Z"/><path class="cls-4" d="M7.3,182.76c-.39-.31-.78-.62-1.16-.94C6.52,182.14,6.91,182.45,7.3,182.76Z"/><path class="cls-11" d="M453.36,38.5l-1.2-1.91a1.8,1.8,0,0,1,.06-2.73,2.36,2.36,0,0,1,1.25,1.81C453.43,36.62,453.4,37.56,453.36,38.5Z"/><path class="cls-4" d="M3.65,183.66a2,2,0,0,1,1.07,2.15A2,2,0,0,1,3.65,183.66Z"/><path class="cls-11" d="M454.65,39.34H453.5c-.06-.3-.11-.59-.17-.89Z"/><path class="cls-12" d="M468.14,191c8.24-1.25,13.72-4.75,16.17-10.85.62-1.56.54-3.32,2.05-4.68,5.68,5.85,1.67,15.15-7.08,16.46a93.64,93.64,0,0,1-25.73,2.71,36.23,36.23,0,0,0-6.66.48,39.22,39.22,0,0,1-6.06.4c-6.51.05-13,0-19.55,0-4.67,0-9.37-.28-14,.7a15.32,15.32,0,0,1-3,.12l-90.43-.05c-1.29-2.13-1.34-4,2.21-4.87q72.74-.09,145.48,0C463.74,191.4,466,191.81,468.14,191Z"/><path class="cls-13" d="M315,191.91a6.64,6.64,0,0,1-1.12,4.41c-1.42,0-2.85.09-4.28.09H199.33c-4.21,0-6.13.14-5.7-4.51l34.3,0c1.29-.65,2.75-.44,4.15-.44q39.37,0,78.75,0C312.23,191.43,313.7,191.2,315,191.91Z"/><path class="cls-14" d="M463.27,197.27c-1.33,1.21-3.19,1-4.94,1,0-.32,0-.64,0-1A14.69,14.69,0,0,1,463.27,197.27Z"/><path class="cls-4" d="M452.22,33.86l-.06,2.73c-1.49-1.14-1.23-2.53-1-3.92Z"/><path class="cls-15" d="M473,131.59c2,1.63,1.17,3.78,1.78,5.66,1,3.21,2.28,6.46,1.9,9.85.74.49.44,1.33,1.12,1.83,0,.92.07,1.84.11,2.76-2.3,1.16-3.82,0-5.31-1.05a11.63,11.63,0,0,1-3.7-3.61c-4.67-8.32-13.82-14.21-20.63-21.37-3.44-3.61-7.35-4.79-13.58-3.44-28.2,6.09-56.4,12.19-84.69,18.05-13.76,2.85-28.06,3.82-42.07,5.79-21.43,3-43,5.37-64.41,8.61A79.87,79.87,0,0,0,218,163.09a41.81,41.81,0,0,1-7.25,3.39C198.32,170.37,189,177.72,177.91,183a4,4,0,0,0-2.61,3.42,5.59,5.59,0,0,1-2.51,4.51H118.86c0-1.22,0-2.44,0-3.65a6,6,0,0,1,2.16-4.65c2.71-2.46,5.59-4.82,8.3-7.28a137.88,137.88,0,0,1,11.87-9.79,27.63,27.63,0,0,1,7.38-4c12.67-4.29,24.35-9.86,36-15.48,3.42-1.65,6.91-3.21,10.33-4.87a31.09,31.09,0,0,1,6.77-2.06q17-3.81,34-7.54c2.53-.55,5.14-.92,7.73-1.33,7.16-1.13,14.42-2,21.49-3.42,10.83-2.15,22-3.29,32.71-5.7,4.86-1.09,9.92-1.69,14.94-2.32a62.25,62.25,0,0,0,7.07-1.4c7-1.68,13.91-3.49,21.18-4.38a11.47,11.47,0,0,0,1.75-.43c10-3,20.68-4.64,30.28-8.51a108.66,108.66,0,0,1,11.37-3.34c4.19-1.17,8.45-2.24,12.61-3.47a18.86,18.86,0,0,0,6.75-3.06c4.69-3.87,10.88-6.37,16.05-9.8a41.07,41.07,0,0,1,10.06-4.3c2.79-.9,4-.62,5.49,1.43,2,2.82,3.89,5.7,5.81,8.55,2.72,4.08,5.29,8.21,9.15,11.81a24.56,24.56,0,0,1,3.72,4.7c4,6.15,7.89,12.33,11.83,18.5a31.64,31.64,0,0,0,5.25,6.13A1.68,1.68,0,0,0,473,131.59Z"/><path class="cls-16" d="M172.79,191c0-2,0-4,0-5.93,0-1.51,1-2.54,2.72-3.3,2.63-1.15,5.17-2.43,7.78-3.61a29.47,29.47,0,0,0,6.59-4,26.54,26.54,0,0,1,7.79-4.32c5.09-1.91,10-4,15-6.05a8.67,8.67,0,0,0,2.05-1c4.24-3.28,9.94-4.61,15.2-6.59,6.68-2.52,13.84-3.45,21.05-4.38,12.41-1.6,24.85-3.11,37.25-4.73,7.21-.95,14.37-2.08,21.57-3.06,6-.82,12-1.54,18-2.31,3.21-.41,6.44-.73,9.61-1.26a36.25,36.25,0,0,1,5.42-.61,15.09,15.09,0,0,0,3-.28c9.16-2,18.3-4.13,27.47-6.13,7.43-1.62,14.9-3.12,22.34-4.7,9.59-2.05,19.17-4.14,28.76-6.19,5.28-1.13,10.59-2.2,15.87-3.33a4.71,4.71,0,0,1,3.94.7c2.33,1.7,4.93,3.22,6.63,5.34a36.4,36.4,0,0,0,8.53,7.69,22.84,22.84,0,0,1,7.37,7.74,41.39,41.39,0,0,0,8.54,9.94,4.73,4.73,0,0,0,2.56,1.12,23.4,23.4,0,0,1,2.44,10c.75.48.44,1.33,1.13,1.82,0,.92.07,1.84.1,2.76,1.17.73,1.22,1.83,1.7,2.8a1.57,1.57,0,0,1-.45,1.76c-4.48-.5-8.05-2-10.31-5.05a6.37,6.37,0,0,0-2.56-1.9c-3.94-1.7-6.39-4.68-10.26-6.47-1.46-.67-2.28-2.1-3.47-3.13a6.79,6.79,0,0,0-6-1.4c-7.71,1.38-15.46,2.67-23.2,4q-14.31,2.37-28.63,4.64c-3.38.53-6.86.34-10.29.9-4.54.73-9.28.76-13.91,1.18-4.84.44-9.64,1.14-14.48,1.43-5.88.36-11.63,1.43-17.58,1.32a94.11,94.11,0,0,0-16.43.74c-3.13.5-6.5.13-9.76.14a30.45,30.45,0,0,0-7.87.61,6.78,6.78,0,0,1-1.8.23c-7.34,0-14.62.36-21.92.93-4.83.38-9.75-.14-14.58.84a33.25,33.25,0,0,1-6.09.13,38.12,38.12,0,0,0-6.67.49,27.46,27.46,0,0,1-5.45.41,39.57,39.57,0,0,0-19,4.08c-4.71,2.39-9.71,4.47-14.71,6.51-2.48,1-3.52,2.36-3.4,4.41.33,5.45-1,5.12-7.39,5.11Z"/><path class="cls-7" d="M315,191.91l-87,0a5.24,5.24,0,0,1,2.77-.85c1.22,0,2.44,0,3.67,0H468.14a6,6,0,0,1-3.37.87l-5.51,0Z"/><path class="cls-17" d="M318.62,207.41h2.45A1.56,1.56,0,0,1,318.62,207.41Z"/></g></g></svg>