<svg xmlns="http://www.w3.org/2000/svg" viewBox="0 0 704.3 382.28"><defs><style>.cls-1{fill:#33392f;}.cls-2{fill:#3d433a;}.cls-3{fill:#e4e4e4;}.cls-4{fill:#ddd;}.cls-5{fill:#da7a7b;}.cls-6{fill:#ed8586;}.cls-7{fill:#df7d7e;}.cls-8{fill:#ccc;}.cls-9{fill:#bdbdbd;}.cls-10{fill:#d98081;}.cls-11{fill:#ee9495;}.cls-12{fill:#d2d2d2;}.cls-13{fill:#e78283;}.cls-14{fill:#ed8687;}.cls-15{fill:#e17e7f;}.cls-16{fill:#ec9495;}.cls-17{fill:#fefefe;}.cls-18{fill:#cbcbcb;}.cls-19{fill:#fdfdfd;}.cls-20{fill:#474d44;}.cls-21{fill:#4f554d;}.cls-22{fill:#464c43;}.cls-23{fill:#fff;}.cls-24{fill:#e88283;}.cls-25{fill:#ef8687;}.cls-26{fill:#f78a8b;}.cls-27{fill:#efefef;}.cls-28{fill:#f0f0f0;}.cls-29{fill:#f69091;}.cls-30{fill:#f68a8b;}.cls-31{fill:#f69b9c;}.cls-32{fill:#d1cfcf;}.cls-33{fill:#ea8384;}.cls-34{fill:#f7a3a4;}.cls-35{fill:#e2e2e2;}.cls-36{fill:#f68d8e;}.cls-37{fill:#f79596;}.cls-38{fill:#e8e8e8;}.cls-39{fill:#ebebeb;}.cls-40{fill:#e89293;}.cls-41{fill:#da8788;}.cls-42{fill:#cf7475;}.cls-43{fill:#f48e8f;}.cls-44{fill:#f79b9c;}.cls-45{fill:#db7b7c;}.cls-46{fill:#ee9596;}.cls-47{fill:#ec9394;}.cls-48{fill:#e08a8b;}.cls-49{fill:#d9d9d9;}.cls-50{fill:#e68182;}.cls-51{fill:#ee8687;}.cls-52{fill:#50564e;}.cls-53{fill:#f7f7f7;}.cls-54{fill:#dc8889;}.cls-55{fill:#f6f6f6;}.cls-56{fill:#e89091;}.cls-57{fill:#f08e8f;}.cls-58{fill:#f79697;}.cls-59{fill:#f7999b;}</style></defs><g id="Слой_2" data-name="Слой 2"><g id="Слой_1-2" data-name="Слой 1"><path class="cls-1" d="M289,2.59l3.15-.44a192.29,192.29,0,0,1,37.93,0,8.45,8.45,0,0,0,5.23.44c3.41,1.81,7.45-.29,10.83,1.72l.55.55c1.61.76,3.49.63,5.07,1.53a123.92,123.92,0,0,1,27.56,20.83c2.29,2.34,6.66,6,5.26,7.72-4.69,5.69,1.77,13.33-5.19,18.92-8.19,6.57-5.38,14,5.13,16.69,3.53.9,7.13,1.38,10.72,2,9.89,2.78,19.72,5.74,29.33,9.36,3.41,1.28,6.62,3.1,8.8,6.23,2.38,3.18,1.48,10.37,9.53,6.35,2.92-1.46,6.56,2.52,9.05,5.25,8.79,9.66,14.19,20.84,14.73,34.08.22,5.65.18,11.31.07,17a35.53,35.53,0,0,0,8.2,24c9.54,11.83,10.82,24.61,3,38-6.76,11.55-9.79,23.77-7.66,37.29,1.39,8.8-1.8,17.13-5,25.19-2.93,7.43-7.58,14.23-10.18,21.64-8.24,23.43-27.49,26.08-47.7,25.77-14.14-.22-19.73-11.71-24.39-23.12a10.42,10.42,0,0,1-.2-3c4.16-15.12,10.53-29.41,16.56-43.84C402.58,245,410.85,241.87,416,234c-10.59-.21-13.67-5.35-13.68-14.9,0-6.22-6.57-10.43-10.93-15-8.54-8.92-8.26-13,1.33-21.17a53.61,53.61,0,0,1,11.92-7.18c9.24-4.41,11.1-9.95,5.35-18.16-3.27-4.67-2.48-7.16,1.28-10.92,6.67-6.66,15.25-9.2,23.5-12.68,2.83-1.2,7.3-2.28,6.15-6.5-.93-3.41-5.08-2.69-7.9-2.54-7.85.43-15.48-5.07-23.44-.81a21.1,21.1,0,0,1-9.12,0c-27.07-5.7-50.2-20.79-75.09-31.68-5.8-2.54-9.08-7.63-10-14-.25-1.64-.75-3.24-1-4.88-2.62-15.93-7.92-29.3-27.6-29a21.71,21.71,0,0,1-5.5-2.62c-5.69-4.52-13.84-7.79-9.05-17.68,1.11-1.89,2.46-3.63,3.62-5.5.36-.57,1.54-1.29.68-1.86-.56-.37-1.7.52-2.59.86a16.13,16.13,0,0,1-4,.83c-5-.51-9.79,2.35-14.79.68a3.89,3.89,0,0,1-1.48-2.06c.29-2,2-2.41,3.46-3.18a13.69,13.69,0,0,0,3.1-1.68h0c1.22-1.16,2.95-1,4.35-1.73l-.21.13c1.32-2.45,4.39-.51,5.94-2.37l-.06,0c1.44-1.22,3.28-1.32,5-1.79l.62.15.38-.51c1.45-1.06,3.24-1.11,4.87-1.66l.65.21.47-.5C284.15,2.72,286.84,3.73,289,2.59Z"/><path class="cls-2" d="M384.11,298.34c2.18,3.65,4.17,7.43,6.56,10.94,5.38,7.89,12.21,13.06,22.53,11.08,1.94-.38,4-.29,5.91-.7,33-7,20.47-3.56,38.73-33.8,3-5.05,4.88-10.9,6.76-16.55,2.72-8.18,4.19-16.21,2.23-25.27-1.53-7.11.58-15.06,3.54-22.16a116.3,116.3,0,0,1,5.38-10.7c7.48-13.75,6.38-24.37-4.12-36.29-5.35-6.07-7.33-13.14-7.56-21-.31-10.58,1.15-21.21-1.88-31.7C459,111,450.78,100.06,441.46,95.77c-3.21,2,.62,5.57-2.15,8.39-4-4.72-7.18-9.48-7.22-15.81-7.71-17.07-22-27.94-36.38-38.78-2.72-2-4.81-2.12-6.06,1.51-1.19,3.47-4.39,5.75-5.86,9.05,4.57,4.89,12.95-3.54,15.69,4.87,1.45,4.45-1.06,7.66-5.37,9.34-5.41.74-10.25-2.29-15.58-2.35a4,4,0,0,1-4-3.8c.09-4.22-3.6-5.92-5.64-9.09,2.92-2.42,5.8-4.55,8.37-7,5.72-5.46,5.9-7.2,1.71-13.54A52.16,52.16,0,0,0,375.2,34c2-2.08,3-.09,4.19.65s1.83,2.86,4.51,1.6c-6.64-9.39-15.53-15.91-24.53-22.41-3.16-2.28-7.19-3.52-9.32-7.17,6.85-2.79,12.22,1.38,17.95,3.81,17.37,9,32.25,21.38,46.83,34.2C418,48,421.36,51.15,423.93,55c3.17,5,8.06,8.41,11.54,13.09,6.67,9.06,14.33,17.4,19.76,27.35a94.06,94.06,0,0,0,6.16,9.87,73.72,73.72,0,0,1,4,6.62c.82,1.51,1.59,3.06,2.38,4.59,1.9,3.95,3.85,7.88,5.95,11.74,3,5.67,5,11.8,7.74,17.6a25,25,0,0,1,1.09,2.75c.65,2,1.53,3.88,2.23,5.86,7.6,18.73,5.95,38.44,6.28,57.95-1.21,11-2,22-2.76,33.05-2.2,5.93-.85,12.28-2.14,18.32-1.94,5.22-.86,10.84-2.08,16.16-2.14,9.93-3.09,20.11-6.06,29.87-1.15,3.75-2,7.66-5.06,10.52a1.82,1.82,0,0,1-2.84-.12,4.9,4.9,0,0,0-4,.36c-1.77,1.4-4.35,0-6,1.73h0c-1.77,1.77-4.51.37-6.35,1.91l-.9-.12-.77.48c-1.38.91-3.1.83-4.53,1.57l-.82-.12-.64.52c-1.37,1-3.11.85-4.54,1.6l-.82-.12-.64.52c-1.36,1-3.1.85-4.54,1.6l-.81-.11-.65.51c-1.37,1-3.11.85-4.54,1.6l-.82-.12-.64.52c-1.37,1-3.11.85-4.54,1.6l-.82-.12-.64.52c-1.37,1-3.11.85-4.54,1.6l-.82-.12-.64.52c-1.36,1-3.1.85-4.54,1.6l-.81-.11-.65.51c-1.37,1-3.11.85-4.54,1.6l-.82-.12-.64.52c-1.37,1-3.11.85-4.54,1.6l-.82-.12-.64.52c-1.45.91-3.18,1-4.73,1.55l-.71-.16-.54.49c-1.46,1.06-3.25,1.12-4.88,1.65l-.64-.2-.47.48c-1.71,1.76-4.43.23-6.16,1.89l.11,0c-1.94,1.86-4.71.74-6.85,1.88l-.64-.21-.46.48c-2,1.66-4.67.53-6.75,1.75l-.7-.2-.56.48c-2.39,2.06-5.79-.19-8.18,1.9l-1-.18-.88.42c-2.69,1-5.37,1.62-7.9-.41l.28-.13c-3.08-3.2-.74-6.26.51-9.09a91.46,91.46,0,0,0,7-27.77c1-15.78,3.12-31.5,1.94-47.36-1.26-7.69-.72-15.44-.82-23.16.06-23.17,2.27-46.49-4.8-69.14-2.27-10.87-8.79-19.73-14-29.18-4.33-6.47-8.79-12.85-13.54-19-6.05-8-11.53-16.41-17.78-24.26-3.3-5.4-7.08-10.49-10.19-16-3.38-5.7-6.67-11.45-10.29-17a33.12,33.12,0,0,0-6-6.93c-6.94-7.27-15.74-12-24-17.43-11.09-5.47-22.75-9.41-34.47-13.24-3.33-1.18-6.64-2.39-8.49-5.75-.37-2.64,1.27-3.55,3.45-4l.65.16.45-.5c2-1.58,4.65-.49,6.72-1.72a.76.76,0,0,0,1.27-.23c2.54-2,5.93-.05,8.52-1.82a1,1,0,0,0,1.49-.25c1.93-1.57,4.57-.39,6.55-1.73a1,1,0,0,0,1.46-.31c1.73-1.59,4.39-.09,6.07-1.84l-.07,0c1.73-1.46,3.61-1.15,5.52-.49a4.36,4.36,0,0,0,5.94,1.61c3.41-1.59,7-1.08,10.53-1.17-3.36,7.86-13.88,4.48-18.06,11.58-1.25,2.12-4.13-.44-6.21-1.31,4.66,3.21,10.25,4.83,14.75,8.32,12.65,9.91,25,20.19,35.27,32.63,4.89,15.27,13.79,28,24.83,39.4.92.89,1.83,1.8,2.74,2.69s-.45,0,.65.69a8.31,8.31,0,0,0-.71-.75c-.91-.94-1.84-1.86-2.75-2.8-10.49-11.21-15.3-25.62-22.1-38.91a29.86,29.86,0,0,1-1-5.79c-.79-6.7-.79-13.8-9.54-15.83a2.91,2.91,0,0,1-1.87-4c5-.09,9.59,2.22,14.69,2.31,4.69.09,7.09,4.35,9.45,8,4.8,7.49,6.38,16.16,7.4,24.58.9,7.46,4.73,11.36,10.7,14.19,7.8,3.7,15.58,7.48,23.57,10.73,8.9,3.62,17.15,8.55,25.94,12.44,7.29,3.23,15.16,4.27,22.25,7.72-12.18,7.94-25.77,4.12-38.79,4.34-6.23.1-12.53-1.34-18.45-2.76a56.83,56.83,0,0,1,16,15.35c4.48,6.5,5.42,14.15,6,21.84,1.2,14.93,3.87,29.67,6.45,44.38,2.47,14.09.95,27.8-1.2,41.61-.46,3-1.56,6-1.05,8.88,4.06,22.69-.56,45.07-2.78,67.43-1.19,12,6.07,13,14,9.41,3.05-1.36,5.9-3.07,8.82-4.65s6.25-1.19,10.08-2.26c-22.29-6.09-20.71-2.15-19.63-21.7C380.27,301.63,380,298.29,384.11,298.34Z"/><path class="cls-3" d="M481.91,279.79c.15-5.33-.23-10.72,2-15.77,2.72,2.41,2.35,5,.9,7.55,6.67-9.37,15.19-1.2,23-1.76a17.6,17.6,0,0,1,5.82,1.27c18.87,8.07,25.64,6.29,38.23-10.08.81-1.05,1.57-2.15,2.35-3.22,3.46-4.75,6.44-5.74,10.85-.38,6.95,8.43,10.44,7.78,16.32-1.78,5.73-9.31,5.74-9.32,14.33-2.34A57.84,57.84,0,0,0,610,262.35c14,5.77,22.36,4.63,32.08-6.94,7.2-8.57,18.5-15.09,17.63-28.76a17.59,17.59,0,0,1,.84-4.25c3-7.4,6.22-14.71,8.7-22.31,2.27-6.92.73-12.49-5.45-16.49-5.67-3.66-10-8.68-14.45-13.62,1.94-10-4.89-18.58-4.86-28.3,20.87-1.63,40.61,7.08,46.41,21.62,4.14,10.4,7.74,21.14,9.08,32.4.28,2.31.18,4.65,1.9,6.51l.18,4.09c-1.22,1.07-.82,2.93-2,4v0c-1.24,1-.87,2.89-2,4h0a26.57,26.57,0,0,0-2,2l0,0a18.69,18.69,0,0,0-1.92,2l-.08.08a18.69,18.69,0,0,0-2,1.92l0,0a26.57,26.57,0,0,0-2,2h0c-5.41,2.65-1.42,8.38-3.92,12,0,1.33-.07,2.65-.1,4a1.84,1.84,0,0,1-2.64-.11c-5.29-2.1-15.44,3.45-17,9.3-4.71,17.83-15.87,27.65-34.16,29.18a41.88,41.88,0,0,0-17.8,5.55c-10.52,6-21.62,10.37-34.22,8-3.36-.62-6.53.68-9.79,1.31-9.53,1.85-19.1,3-28.15-2.06-3.11-1.75-6.42-1.32-9.74-.93-8.22,1-16.07-.47-22.89-5.08-4.94-3.34-9.12-3.12-13.63.34a26.33,26.33,0,0,1-5.24,2.87C482,290.71,480.93,289.91,481.91,279.79Z"/><path class="cls-4" d="M322.13,346.42a14.74,14.74,0,0,0-1.88-.15,1.43,1.43,0,0,0-2.15.06h0c-1.2,1.07-.85,2.91-2,4h0c-1.23,1-.84,2.92-2.06,4l0,0c-.64.71-1.32,1.38-2,2l0,0c-.64.72-1.39,1.34-2.09,2a15.54,15.54,0,0,0-1.92.16,19,19,0,0,0-1.93,1.88l0,0c-.71.64-1.42,1.27-2.12,1.92a15,15,0,0,0-1.9.09c-.65.7-1.43,1.25-2.12,1.9H299l-.93.06c-1.1,1.21-3,.75-4.11,1.94l-3.91.1a44.3,44.3,0,0,1-20,0,17.15,17.15,0,0,0-1.9-.08,2.9,2.9,0,0,0-4.15,0h0c-.65.7-1.33,1.38-2,2l0,0c-.65.69-1.32,1.37-2,2l0,0c-1,1.23-2.93.85-4,2.07h0c-.68.68-1.41,1.31-2.11,2l-2.08-.18a129.73,129.73,0,0,1-29.33-8.92c-7.24-3.14-13.25-7.4-15.38-15.62-2.07-8-10.41-9.66-15.38-14.75a3.75,3.75,0,0,1-.22-2.9c4.12-5.07,10.77-6.35,15.63-10.44,3.62-3.06,6.12-.79,7.26,3.08a136.81,136.81,0,0,0,6.71,17.73C223.75,348,228,350,234,349.79s10.12-3.08,12-8.71c2.26-6.64,3.75-13.29,2.75-20.54-1.21-8.74.4-9.87,8.26-6.31,11.13,5,20.63,2.78,29.3-5.31,7.46-7,8.12-6.82,14,2,1.85,2.77,3.43,5.78,6.29,7.66,5.34,3.53,9.75,2.88,13.68-2.58,7.16-9.93,7.3-9.82,17.56-3.63,2.84,1.71,5.92,3.12,7.6,6.26A17.35,17.35,0,0,1,346.8,325c-.93,9.38.28,19.23-5.87,27.49a4,4,0,0,1-4.79,0l-3.92-.12c-1.13-1.15-3-.77-4.1-2h0c-1.08-1.19-2.93-.83-4-2h0C323.48,347.68,322.81,347,322.13,346.42Z"/><path class="cls-5" d="M2.33,275.68,2,272.31a105,105,0,0,1,0-29.94c.09-1.17.18-2.35.28-3.52,1-1.61.74-3.52,1.36-5.22.54-2.79,1.57-5.46,1.66-8.34A1.82,1.82,0,0,1,7.53,224c3.51,2.36,3.21,6.37,4.17,9.8,1.08,3.87,2.12,7.72,4.83,10.84,1.54,1.76,3.27,3.8,5.87,2.68,2.83-1.22,2-4,1.46-6.14-2.62-9.45-2.52-19.09-2.39-28.74a36.89,36.89,0,0,1,.43-7c.39-1.93.61-4.33,2.82-4.85,2.94-.69,3.74,2,4.93,4,1.85,9.36,2.85,18.86,4.73,28.21a55.48,55.48,0,0,1,.73,9.1c-3.12,5.8-2.23,11.32.91,16.86,10.9,19.18,24.6,34.29,48.89,34.42,4.25.54,8.19,1.52,9,6.66.26,3.23-.93,6.09-2.24,8.92-4.78,8.62-9.25,17.44-16,24.79-2.68,2.93-5.25,6-9.59,6.38C61,337.8,55,343.48,50.29,338.05l0,.13c-1.75-1.59-4.55,0-6.16-2l.13.08c-1.22-1-3-.73-4.16-1.92h0c-9.49-1.86-15.93-7.42-19.71-16.22v.14c-1.52-.79-1-2.87-2.38-3.75l-.06-.1c-.52-.81-1.31-1.4-1.78-2.25l.14.07C8,304.62,5.28,294.64,4.25,283.94A1.78,1.78,0,0,0,4,282.3C2.53,280.32,3.58,277.71,2.33,275.68Z"/><path class="cls-6" d="M172.51,44.6a2.11,2.11,0,0,0,1.63-.43c.88-.71,2.08-.83,2.91-1.61a8.76,8.76,0,0,1,1.71-1.45,15.78,15.78,0,0,1,2.92-1.7,13.16,13.16,0,0,1,2.11-.73A29.3,29.3,0,0,0,187,37.62c.68-.36,1.38-.67,2.07-1a30.53,30.53,0,0,1,3.26-1.45,7.21,7.21,0,0,1,2.44-.3c1.22.3,2.42.5,3.46-.5l-.05,0c1.13-1.22,2.92-1,4.21-1.87v.13a5.07,5.07,0,0,1,2.29-1.8,6.42,6.42,0,0,1,4.35.51c3.75,4,.45,7.45-1.35,10.61a164.17,164.17,0,0,0-8.26,15.7c-18.58,34.63-30.52,71.53-37.57,110.09a14.77,14.77,0,0,1-3.14,5.37c-7.67,7.55-4.4,17.21-3.24,25.39,1.46,10.29-1.94,16.64-9.79,21.8-10,6.56-19,14.54-29.07,20.95a6.68,6.68,0,0,1-4.7-.09c-5.53-4.42-7.39-10.38-7.25-17.19,7.19-9,9.52-19.83,11.75-30.79,1.15-5.66,1.6-11.82,6.44-16.09,6.19-3.42,13.28-4.1,19.83-6.48,3.71-1.35,6.37-3.16,6.92-7.47,4.45-35.1,16.43-67.59,34.27-98,.35-.6.36-1.26-.08-3.09a110.16,110.16,0,0,0-23.11,10.2c-8.36,4.75-15.82,11-24.71,14.86-5.89-.27-9.86,2.75-13,7.38-1.63,2.39-2.67,5.4-5.91,6.31a3,3,0,0,1-2.11-1.71c0-11.25,8.29-19.39,11.18-29.57,4.36-6.52,11.4-8.63,18.24-11.07l-.1.09c4.38-4.62,9.9-7,16-8.13l-.08,0c1-1.06,2.5-1.52,3.36-2.76a18.35,18.35,0,0,1,3.78-2.15,14.5,14.5,0,0,1,2-.8,7.76,7.76,0,0,1,2.14-.27Z"/><path class="cls-4" d="M481.91,279.79c.21,2.28.43,4.56.7,7.42,5.92-1.59,11-3.86,15.18-7.7,3.57-3.3,6.37-3.72,10.29-.34,8.12,7,17.69,8.77,28,6.09,2.42-.62,4.51-.92,6.54.78,8.81,7.42,18.77,4.83,28.32,2.59,3.94-.93,7.2-1.68,11.41-.76,11.46,2.48,21.63-2.49,31.07-8.05,5.92-3.48,11.48-5.52,18.5-5.72,12.32-.36,22.07-6.67,29.4-16.5,1.77-2.39,3.43-5.32,2.67-8.36-1.29-5.2.53-8.1,5.47-9.58,5.6-1.68,8.5-7.17,13.33-10.31,2.14,3.21,1,6.24,1.36,9.05,1.2,1.32,1,2.63,0,3.94h0c-1.24,1.05-.87,2.89-2,4h0c-1.24,1-.86,2.91-2,4l0,0c-.65.68-1.34,1.32-1.94,2l0,0c-1.27,1-.86,2.9-2.09,3.92l0,0a25.68,25.68,0,0,1-2,2l0,0c-.64.7-1.32,1.38-2,2l0,0c-.64.7-1.31,1.38-2,2l0,0a25.68,25.68,0,0,1-2,2l0,0c-1,1.25-2.92.85-3.94,2.09h0c-.7.63-1.35,1.31-2,2l0,0c-1.07,1.19-2.94.82-4,2h0c-1.1,1.16-3,.76-4.05,2-.65,0-1.31,0-2,.08-1.07,1.14-2.94.68-4,2h0c-1.26,1-.85,2.91-2.1,3.93l0,0a22.76,22.76,0,0,1-2,2l0,0c-.64.72-1.32,1.39-2,2l0,0c-.65.69-1.32,1.37-2,2l0,0a22.78,22.78,0,0,1-2,2l0,0c-1,1.25-2.91.82-3.9,2.11l0,0c-.7.62-1.37,1.26-2,1.94s-1.35,1.33-2,2l0,0c-1.05,1.21-2.93.82-4,2.06h0c-.69.67-1.41,1.3-2.12,1.95a15,15,0,0,0-1.89.09c-1.09,1.15-3,.71-4,1.95h0a28,28,0,0,1-16,0h0a7.39,7.39,0,0,0-8,0h-1l-1,0c-2.32,2.1-5.73-.26-8,2a19,19,0,0,0-2,.05c-2.32,2.07-5.72-.27-8,1.95h-1l-1,0a43.55,43.55,0,0,1-20,0h0c-1.35-1.3-2.72-1.18-4.11-.07a15,15,0,0,0-1.9.15c-.69.61-1.35,1.25-2,1.9h0c-1.09,1.19-3,.79-4.06,2a17.88,17.88,0,0,0-1.94.07,8.13,8.13,0,0,1-8,0,17.69,17.69,0,0,0-1.93-.07c-1.1-1.18-3-.79-4.07-2l0,0c-.69-.65-1.34-1.33-2-2v0c-.62-.67-1.28-1.31-2-1.92a15,15,0,0,0-1.89-.15,1.4,1.4,0,0,0-2.13.07h0c-.67.63-1.3,1.29-1.91,2a13.34,13.34,0,0,0-.13,1.89,23.54,23.54,0,0,1-2,2.11l0,0c-.65.69-1.33,1.37-2,2l0,0c-.65.69-1.33,1.37-2,2l0,0a24.93,24.93,0,0,1-2.11,2,15.2,15.2,0,0,0-1.9.15,20.35,20.35,0,0,0-1.93,1.9l0,0c-.72.61-1.36,1.3-2.05,1.94l0,0c-1.08,1.19-2.94.83-4,2h0c-1.09,1.19-3,.79-4.05,2a18.25,18.25,0,0,0-2,.08c-1.65,1.73-4.4.06-6,1.94h-7.94c-1.18-1.58-3.83-.33-4.72-2.46,5.52-10.12,6.57-21.43,8.59-32.47C480.49,284.81,480.17,282.05,481.91,279.79Z"/><path class="cls-7" d="M471.89,128.24a36.43,36.43,0,0,1-6-11.83,6.29,6.29,0,0,1,6.27-2.29c24.85,4.58,46.95-6.37,69.9-12.32,28-7.24,54.83-17.93,84-27.32-13.49-8.65-22.16-21.2-32.79-31.89-2.29-2.31-5.55-3.88-5.65-7.77,1-1.64,2.54-1.45,4.07-1.45s3.16-.21,4.34,1.16l-.11-.08c1.21,1,3,.74,4.14,2l0,0c1.11,1.15,3,.8,4,2l0,0c1.1,1.16,3,.79,4,2.1l-.09-.06c1.16,1.08,3.07.73,4.07,2.12l-.12-.11q1,.81,2.1,1.56a1.69,1.69,0,0,0,1.48.53,9.23,9.23,0,0,1,2.64,1.67l.12.07c.89,1.39,2.85.91,3.81,2.19L622,48.4c1.12,1.13,3.09.73,4,2.23l-.15-.16a13.17,13.17,0,0,1,2.27,1.81l0,0c1,1.3,3,.84,3.86,2.26l-.13-.13a17,17,0,0,1,2.23,1.84l0,0c1,1.3,3,.82,3.83,2.33l-.15-.16a7.07,7.07,0,0,1,2.23,2l-.06,0c1.93,1.49,4.34,2.31,5.94,4.27l-.13-.18a5.54,5.54,0,0,1,2.2,2l-.11-.11a10.51,10.51,0,0,1,2.17,2l-.05,0c.71.61,1.33,1.32,2.1,1.87l.06.05c2.18,2,5.49,3.24,4.64,7.18-2.53,3.92-6.91,3.89-10.68,4.39-31.27,4.19-59.37,16.58-86,32.86a93.35,93.35,0,0,1-9.66,5.18,38,38,0,0,1-4.1,1.76,18,18,0,0,1-4.24.9c-2.81.19-5.63.38-8.23,1.68a32.3,32.3,0,0,1-5.72,2.15c-7.71.86-15.27,2.89-23.09,2.76-6.53-.15-12.93,1-19.37,1.75C480.93,131.45,476,131.84,471.89,128.24Z"/><path class="cls-8" d="M192.14,334.32c8.61,3,16.7,6.22,18.2,17.06.69,5,5,7.56,9.23,9.65a105.12,105.12,0,0,0,26,9.17c2.76.54,5.16,1.12,6.35,3.94l.18.23c-1.12,1.1-2.94.77-4,2h0c-1.16,1.19-3,.88-4.24,1.91l-.87,0-.87.12c-2.33,2.15-5.77-.21-8.09,2l-3.95.11a5.24,5.24,0,0,1-5.93,0l-3.88-.18c-1.15-1.12-3.07-.72-4.1-2.07l.08.06a12.65,12.65,0,0,0-4.12-3.82,8.41,8.41,0,0,0-1.94-.13c-1.65-1.83-4.43-.2-6.07-2v0c-1-1.21-2.88-.79-4-1.89a6.59,6.59,0,0,0-1.82-.19c-1.21-1.07-3.09-.72-4.2-2l.06.06c-.67-.63-1.35-1.24-2-1.84a6,6,0,0,0-1.79-.2,21.44,21.44,0,0,1-2.26-1.9h0c-1-1.27-2.93-.85-3.92-2.14l.06.07a15.8,15.8,0,0,1-2.07-2l0,0a20.68,20.68,0,0,1-2-2l0,0a11.72,11.72,0,0,1-2-2.22,6,6,0,0,0-.14-1.75c-3.65-2.57-8.19.41-11.89-1.91a8.37,8.37,0,0,0-1.94-.13c-1.12-1.17-3-.8-4.1-2h0a16.51,16.51,0,0,1-4.05-3.86l-.09-.12a14.69,14.69,0,0,0-1.87-2l0,0a15.44,15.44,0,0,1-1.89-2.29,4.92,4.92,0,0,0-.14-1.71,1.53,1.53,0,0,0-2.22-.12,5.16,5.16,0,0,0-1.75.21,2.14,2.14,0,0,1-2.65.14c-4.26-3.12-9.38-5-13.34-8.49-3.24-2.87-8.13-5.35-5.42-11.27,7.72-5.56,15.48-5.6,24.31-1.95C164.52,324.44,177.87,330.64,192.14,334.32Z"/><path class="cls-9" d="M126.13,322.32a31.24,31.24,0,0,0,14,12.09c2.58,1.21,5.83,2,5.93,5.85-.18,1.26-1.39,1.4-2.18,2a4.94,4.94,0,0,0-1.86.27c-1.18,1-2.95.63-4.08,1.75a5,5,0,0,0-1.92.25c-1.24,1-3,.7-4.22,1.7l-3.79.3c-2.5,1.73-5.75-.21-8.22,1.69h-9.37c-1.83-1.54-4.46-.21-6.28-1.76l-.87-.19h-.89a24.52,24.52,0,0,1-2.23-1.72,3.31,3.31,0,0,0-1.61-.33,5.69,5.69,0,0,1-2.37-2l.1.09c-1.37-1-1-2.9-2.16-4h0a1.5,1.5,0,0,0-2.21,0,5.27,5.27,0,0,0-1.89.21c-2.47,1.83-5.76-.2-8.21,1.76l-9.68-.11a3.85,3.85,0,0,1-4-1.77c9.35-8.53,14.75-19.93,21.88-30.07,3.93.95,6.83-1.28,10-3,11-6,11.2-5.89,17.94,5.36a38.55,38.55,0,0,0,2.8,4c.56.6,1.07,1.25,1.58,1.89s1,1.2,1.53,1.81c.25.29.49.6.74.9a9.6,9.6,0,0,1,1.25,1.94C126,321.56,126.06,321.94,126.13,322.32Z"/><path class="cls-10" d="M688.36,138.26l-.51,2c-2.61,4.8-6.3,2.32-9.5,1.17-22.08-7.93-45.26-9.69-68.27-12.26a159.5,159.5,0,0,1-16.63-2.67,28,28,0,0,0-9-1.64,30.2,30.2,0,0,1-5.9-.85c-2.8-1-5.78-1.15-8.59-2a4.85,4.85,0,0,1-2.3-1.89c4-7.55,11.38-9.32,18.88-10.83,6.89,2.59,13.92,4,21.29,2.55a3.76,3.76,0,0,1,2,0c13.37,5,26.49,4,40.3.76,6.34-1.47,12.63-3,18.84-5,3.43-1.09,6.62-3.14,10.46-2.65a5.44,5.44,0,0,1,2.59,1.6l-.06-.12c1.38,1.12,1.07,3,2,4.35a2.23,2.23,0,0,0,.42,1.69c.87,1.21.61,2.89,1.65,4l0-.09c2.33,2.29-.08,5.79,2.07,8.13.1,1.3.2,2.61.31,3.92A15.08,15.08,0,0,1,688.36,138.26Z"/><path class="cls-11" d="M463.69,112.55a13.07,13.07,0,0,1-3.59-6.24c-2.59-4.84,1.2-7.49,3.87-10.13,27.63-27.3,58.22-50.45,94.11-66a80.41,80.41,0,0,0,11.4-6.1,2.14,2.14,0,0,1,2.63.21l0,0c1.53,2,4.43.15,5.93,2.18l-.09-.06c1.19,1,3,.77,4.13,1.88h0c1,1.22,2.76.84,3.91,1.78a2.57,2.57,0,0,0,1.63.36l1.12.88a3.69,3.69,0,0,1-1.57,2.23c-5.64,6.2-14.37,6.15-21,10.38-30.22,13.95-57,32.88-81.17,55.71a124.7,124.7,0,0,0-12,10C470.5,112,467.86,115.05,463.69,112.55Z"/><path class="cls-12" d="M568.09,120.34a6.9,6.9,0,0,0,1.87.1c2.39,2,5.69-.12,8.1,1.8l5.77.27c2.48,1.83,5.73-.11,8.22,1.68,26.1,4,52.73,4.5,78.37,11.74a50.5,50.5,0,0,1,11.09,4.23c2.15,1.19,4.19,2.05,6.34.12l.51,4.12a10.08,10.08,0,0,0,1.76,1.87l0,.06c.59.73,1.28,1.36,1.93,2l0,0c1.19,1.05.79,2.93,2.06,3.94l0,0c.64.72,1.3,1.43,1.89,2.21a7.42,7.42,0,0,0,.14,1.82c.68.67,1.25,1.44,1.86,2.17a8.05,8.05,0,0,0,.12,1.83c1.14,1.1.72,2.94,1.92,4v0c1.8,1.66.18,4.43,2,6.08a10.47,10.47,0,0,0,.1,1.94,12.27,12.27,0,0,1,0,9.95,11.88,11.88,0,0,0-.13,1.88,11.85,11.85,0,0,0,0,10.22c-.06,2.6-.11,5.2-.17,7.8-2.29-.2-3.56-1.34-3.75-3.73-.9-11.29-5.63-21.61-8.68-32.32-2.52-8.84-9.55-14.66-18.49-17.91-8.72-3.18-18-3.48-26.89-5.85a3.71,3.71,0,0,1-3.22.42c-18.94-11.51-40.17-11.16-61.2-11.77-4.28-.13-8.56,0-12.84,0-1.67,0-3.34,0-5,.09a45.81,45.81,0,0,1-10.05-.85c-6.51-4.89-15.5-.91-21.92-6.11,1.09-1.41,2.72-1.66,4.31-2,2.49-1.82,5.77.17,8.25-1.73l3.7-.2a6.71,6.71,0,0,1,3.3-1.06C555.75,117.81,562.13,115.68,568.09,120.34Z"/><path class="cls-13" d="M570.05,24.67c-.6,4.67-4.83,5.34-8,6.52-23.64,8.82-44,23.12-63.89,38.13a255.29,255.29,0,0,0-32.89,28.83c-2.24,2.39-5.19,4.34-5.18,8.16a27.08,27.08,0,0,1-6.28-9.92c9.76-6.5,16.82-16,25.8-23.35,20.12-16.54,42.17-29.91,68.17-41.1-17-8.79-32.86-14.12-50.13-15.07-4.31-.24-8.65.19-13-.22-3.21-.31-6.95-.17-7.47-4.83,2.69-6.4,8.21-7.72,14.29-8.06,2.57,0,5.13,0,7.7.15a21.49,21.49,0,0,1,4.36.74c2.69.94,5.56,1.19,8.28,2a9.31,9.31,0,0,1,2.24,1.71,1.35,1.35,0,0,0,1.42.15c2,1.28,4.54.25,6.52,1.6l3.48.4c2,1.34,4.67.12,6.57,1.78a1.57,1.57,0,0,0,1.48.21c2,1.38,4.64.12,6.52,1.78a1.55,1.55,0,0,0,1.48.22c1.94,1.4,4.7.06,6.5,1.92l-.08-.05c1.69,1.75,4.44.15,6.11,1.94a1.32,1.32,0,0,0,1.37.22c1.48.73,3.3.57,4.62,1.74a1.38,1.38,0,0,0,1.39.26c1.48.74,3.29.56,4.61,1.73a1.28,1.28,0,0,0,1.32.3C568.54,23,569.91,23,570.05,24.67Z"/><path class="cls-14" d="M368.06,12.43c-6.22-1.25-11.38-5.79-18-5.76l-3.38-1.86,7.48-.57c6.44-1.9,13-.39,19.53-.87,31.44.13,62.92-2.89,96.05,1.19-9,11.28-21.3,16.33-31,24.54a12.11,12.11,0,0,1-6.12,2.28C412.24,21.22,391.68,11.61,368.06,12.43Z"/><path class="cls-15" d="M28.1,204.34l-4.19-3c.8,13.65-1.39,26.46,2.51,39,.39,1.26,1,2.47,1.28,3.76.62,2.73.49,5.34-2.09,7.12s-5.19.42-7.4-1c-4.4-2.76-6.41-7.18-8.21-11.91s-.57-9.94-3.89-14c-1.3-2.7-1.76-5.37.27-8l-.11.14c1.5-4,1-8.58,3.78-12.17a1.32,1.32,0,0,0,.28-1.39c.74-1.48.58-3.29,1.73-4.61a1.32,1.32,0,0,0,.27-1.39c.74-1.49.59-3.34,1.87-4.61l0,.07c1.11-1.12.78-2.86,1.76-4a1.68,1.68,0,0,0,.38-1.53c.84-1.42.58-3.32,2-4.49l-.07.12c1-1.2.73-3.05,2-4.14l0,.07c1.14-4.48,2.47-8.85,6.2-12l-.07.17a2.89,2.89,0,0,1,3.2-.74c5.5,8,4.59,16.13.71,24.36-3.34-3-3.34-3-2.79-8.43,1.23,3.83-5,10.31,1.87,15.56C30.25,199.93,30.22,202.31,28.1,204.34Z"/><path class="cls-16" d="M436.12,28.35c8.86-9,20.53-14.26,31.47-23.82l-93.9-.43a1.08,1.08,0,0,1,.74-1.64L404.2,2.1A221.6,221.6,0,0,1,444,2.1l25.73.37c4.56,1.84,9.3.54,13.95.82,2.62-.78,5.23-1.3,7.82.1a2.22,2.22,0,0,1,.82,2.82c-5.83-.49-10.39,2-14.24,6.13-4.26,6.89-12.06,9.79-17.37,15.5-2.85,2.22-6,3.71-9.67,3.5C446.07,30.4,440.49,32.34,436.12,28.35Z"/><path class="cls-17" d="M43.92,140.19c-.76-2.11-2.4-4.25-.14-6.37,3.41-3.21,4.86-8.37,7.88-11,6-5.2,9.42-12.8,16.66-16.67,5.07-2.71,6.39-8.76,10.84-12.54,5-4.25,9.19-5.61,14.94-3.29l.47,1.32c-.72,3.93-3.66,6.26-6.47,8.55-14.76,12-27.72,25.81-40.38,39.93a4.48,4.48,0,0,1-2.62.85Z"/><path class="cls-18" d="M340.15,352.27a111.26,111.26,0,0,0,4-27.93c1.56-6.91,4.55-11,12-6,.22,9.78-2.74,18.79-6.85,27.47-1.25,2.64-3.42,4.9-2.85,8.16l-2.31.35C343.16,353,341.07,353.77,340.15,352.27Z"/><path class="cls-17" d="M20.43,318.09c6.24,5.8,12.4,11.72,19.71,16.22-8.77,3.08-18-.83-21.39-9C17.55,322.43,19.29,320.36,20.43,318.09Z"/><path class="cls-17" d="M4.25,283.94q6,14.13,12.08,28.26c-2.21,0-4.63.56-5.9-2.15-.68-1.45-1.12-3.38-2.29-4.17-7-4.79-7-11-4.29-18.07A15.27,15.27,0,0,0,4.25,283.94Z"/><path class="cls-17" d="M491.62,4.53l-7.51-.38c-.7-.4-.93-.8-.7-1.21s.46-.6.7-.6c8.95-3.9,17.8-2.38,26.59.56,2.48.83,3.28,3,3.41,5.5L512,8.16c-2.54-1.83-5.81,0-8.37-1.66l-3.62-.33C497.5,4.26,494.19,6.29,491.62,4.53Z"/><path class="cls-17" d="M144.29,58.47c-4.62,5-11.82,6.17-16.38,11.23-1.75,2.15-3.61,4.07-6.77,3.48l-1.07-.85c1.87-2.19,3.88-4.29,5.6-6.6C130.4,59.41,136.58,57,144.29,58.47Z"/><path class="cls-17" d="M68.2,338.36c1.45.32,3,.43,4,1.77-.37,3.36-2.3,5.35-5.25,3.23-3.56-2.55-6-2.24-9.66,0-4.25,2.53-5.66,1.09-7-5.27Z"/><path class="cls-17" d="M194.16,36.1a2.52,2.52,0,0,1-1.71.37c-1.31.94-3.16.6-4.35,1.84h0c-1,1.16-2.76.77-3.89,1.74a2.58,2.58,0,0,1-1.75.41,5,5,0,0,1-3.45.7l-.88-.83c4-8.16,8.35-9.63,18-6.08A3.82,3.82,0,0,1,194.16,36.1Z"/><path class="cls-17" d="M160.23,50.43a52.33,52.33,0,0,1-16,8.13c.37-.91.76-1.8,1.12-2.71,3.22-8.21,3.48-8.34,12-6C158.29,50.11,159.27,50.24,160.23,50.43Z"/><path class="cls-19" d="M444,2.1H404.2c1.76-2,4.15-1.75,6.46-1.76q13.44,0,26.9,0C439.86.35,442.26.07,444,2.1Z"/><path class="cls-19" d="M330.07,2.11c-12.64-.21-25.29-.84-37.93,0,1.15-.58,2.34-1.71,3.46-1.65C307.09,1.11,318.74-1.73,330.07,2.11Z"/><path class="cls-17" d="M105.93,82.16c1-9.25,1-9.25,12-8,.17.44.35.88.53,1.32-2.42,4.55-6.29,6.89-11.35,7.42Z"/><path class="cls-17" d="M2,242.37q0,15,0,29.94C-.67,265-.68,249.75,2,242.37Z"/><path class="cls-19" d="M656.51,75.82l-4.31-5.53c7.67,3,12.79,8.51,16.11,15.89l-1.31.65A14.26,14.26,0,0,1,656.51,75.82Z"/><path class="cls-17" d="M170.18,46a2.49,2.49,0,0,1-1.72.43c-1.31,1-3.31.54-4.29,2.15a4.39,4.39,0,0,1-4,1.86c3.27-9,2.83-9.72,12.36-5.88l-.17-.13A15.07,15.07,0,0,0,170.18,46Z"/><path class="cls-17" d="M26.37,166.44c-1.05,4.52-3.43,8.36-6.2,12C18.25,170.34,18.25,170.34,26.37,166.44Z"/><path class="cls-19" d="M374.43,2.46c-.24.55-.48,1.1-.73,1.64l-19.55.14C360.62.4,367.67,3.08,374.43,2.46Z"/><path class="cls-19" d="M552.11,302.35h20A22.61,22.61,0,0,1,552.11,302.35Z"/><path class="cls-19" d="M270.12,366.36l20,0A22.77,22.77,0,0,1,270.12,366.36Z"/><path class="cls-17" d="M204.12,32.31a2.46,2.46,0,0,1-1.79.36c-1.11-6.63,3.32-6.48,7.75-6.33,1.16,1,1.07,2.27.88,3.58a2.61,2.61,0,0,1-2,1.35C207.28,31.45,205.48,30.87,204.12,32.31Z"/><path class="cls-17" d="M10.05,204.36c-.41,4.32-1.17,8.53-3.78,12.17C6.4,212.12,4.53,207.1,10.05,204.36Z"/><path class="cls-19" d="M602.11,298.35h16A15.18,15.18,0,0,1,602.11,298.35Z"/><path class="cls-19" d="M686.19,234.31c0-2.53,0-5.07,0-7.6s1.33-4.09,4-4.38C687.07,225.76,689.63,231,686.19,234.31Z"/><path class="cls-19" d="M484.11,2.34V4.15c-4.83-.17-9.83,1.13-14.36-1.68Z"/><path class="cls-17" d="M166.15,352.43c4,.56,8.44-1.89,11.89,1.91C174.07,353.74,169.66,355.9,166.15,352.43Z"/><path class="cls-19" d="M702.17,182.31v-9.95Q706.45,177.34,702.17,182.31Z"/><path class="cls-17" d="M28.09,162.34c0-2.92,0-5.81,4-6.05l.83,1.15c.48,2.84-.86,4.5-3.48,5.31Z"/><path class="cls-17" d="M6.38,216.39l-.27,8a1.45,1.45,0,0,0-.21,1.47c-.2,1-.76,1.28-1.67.81C4.63,223.14,2.57,219.15,6.38,216.39Z"/><path class="cls-19" d="M688.36,138.26v-9.84Q692.2,133.34,688.36,138.26Z"/><path class="cls-17" d="M4.26,234.29l-2,4.55c.24-3.55-1.5-7.44,1.74-10.5C5.57,230.27,5.33,232.26,4.26,234.29Z"/><path class="cls-19" d="M346.13,4.27c-3.72.16-7.39-.07-10.83-1.72C339,2.73,343,1,346.13,4.27Z"/><path class="cls-19" d="M702.08,194.41c-2.7-3.4-3-6.8,0-10.21Q702.07,189.3,702.08,194.41Z"/><path class="cls-15" d="M4.26,234.29,4,228.34a2.09,2.09,0,0,0,.21-1.72l1.67-.81C5.91,228.74,7.07,231.9,4.26,234.29Z"/><path class="cls-17" d="M119.81,348.22c2.36-2.41,5.36-1.72,8.22-1.69C125.74,349.28,122.64,348.09,119.81,348.22Z"/><path class="cls-17" d="M81.84,340.24c2.35-2.4,5.36-1.74,8.21-1.77C87.79,341.29,84.67,340.08,81.84,340.24Z"/><path class="cls-19" d="M646,64.67A8.19,8.19,0,0,1,640,60.4C643.05,60.36,645.15,61.62,646,64.67Z"/><path class="cls-19" d="M232.63,20.52c-2.53,2.07-5.52,1.95-8.52,1.82C226.44,19.35,229.67,20.57,232.63,20.52Z"/><path class="cls-19" d="M210.1,30.18c0-1.28,0-2.56,0-3.84,1.19-1.88,3-1.94,4.94-1.71-.71,1.43-3.38,1.64-2.54,4.05C212.3,30.15,211.71,31,210.1,30.18Z"/><path class="cls-17" d="M100.05,86.33a6.7,6.7,0,0,1,5.88-4.17l.2.19a2.22,2.22,0,0,1,.52,2.36c-1.34,2-3.09,3.08-5.59,2.45Z"/><path class="cls-19" d="M688.05,124.5c-2.14-2.34-1.89-5.29-2.07-8.13C689.13,118.45,687.83,121.67,688.05,124.5Z"/><path class="cls-19" d="M530.12,306.37h8Q534.11,310.57,530.12,306.37Z"/><path class="cls-19" d="M234,380.31c2.21-2.65,5.28-1.79,8.09-2C240,381.29,236.83,380.07,234,380.31Z"/><path class="cls-19" d="M574.08,302.33c2.15-2.81,5.23-1.75,8-1.95C580,303.27,576.84,302.06,574.08,302.33Z"/><path class="cls-19" d="M584.08,300.33c2.15-2.81,5.24-1.75,8-2C590,301.28,586.85,300.06,584.08,300.33Z"/><path class="cls-19" d="M676.18,96.22a6.53,6.53,0,0,1,4,6.1l-1.37.43c-2.66-.83-4-2.5-3.49-5.39Z"/><path class="cls-19" d="M594.06,298.32c2.69-2.72,5.37-2.83,8,0Z"/><path class="cls-19" d="M346.18,354.1l7.9.41C351.31,357.07,348.65,357.36,346.18,354.1Z"/><path class="cls-19" d="M355.92,354.27c2.45-1.86,5.27-2.06,8.18-1.9C361.91,355.29,358.76,354.1,355.92,354.27Z"/><path class="cls-19" d="M340.15,352.27c1.59.19,3.09.55,4,2.05-2.76-.25-5.88.95-8-1.92Z"/><path class="cls-19" d="M702.07,170.42c-2.19-1.52-2-3.85-2-6.08C702.49,165.8,702.05,168.19,702.07,170.42Z"/><path class="cls-19" d="M260.14,12.36l-2,2a3.83,3.83,0,0,1-3.54.7l-.71-1C255.58,12.12,257.88,12.32,260.14,12.36Z"/><path class="cls-19" d="M532.1,12.33c-2.38.11-4.71.06-6.57-1.78C527.92,10.41,530.42,9.83,532.1,12.33Z"/><path class="cls-19" d="M540.1,14.32c-2.37.12-4.69.09-6.52-1.78C536,12.41,538.44,11.84,540.1,14.32Z"/><path class="cls-19" d="M222.84,22.57c-2,1.67-4.31,1.83-6.72,1.72C217.87,21.81,220.41,22.42,222.84,22.57Z"/><path class="cls-17" d="M2.33,275.68c1.77,1.9,1.8,4.24,1.66,6.62C1.58,280.56,2.21,278.05,2.33,275.68Z"/><path class="cls-19" d="M554.11,18.35c-2.26.06-4.48,0-6.11-1.94C550.25,16.38,552.63,16,554.11,18.35Z"/><path class="cls-19" d="M248.2,16.39a6.64,6.64,0,0,1-6.07,1.84C243.65,16,246,16.38,248.2,16.39Z"/><path class="cls-19" d="M253.65,15.92l-5.52.49c1.25-2.39,3.65-2,5.72-2.36l.32.36c.59.59.71,1,.35,1.28a1.47,1.47,0,0,1-.89.26Z"/><path class="cls-19" d="M548.08,16.46c-2.36,0-4.7,0-6.5-1.92C544,14.42,546.51,13.82,548.08,16.46Z"/><path class="cls-19" d="M460.05,322.3a6.83,6.83,0,0,1,6-1.73C464.52,322.73,462.22,322.3,460.05,322.3Z"/><path class="cls-19" d="M471.42,319.87c1.72.55,3.65.68,4.72,2.46-2.25-.05-4.66.36-6.06-2.12A1,1,0,0,1,471.42,319.87Z"/><path class="cls-19" d="M484.08,322.33c1.49-2.26,3.8-1.93,6-1.94C488.63,322.71,486.28,322.27,484.08,322.33Z"/><path class="cls-19" d="M224.15,380.45l5.93,0Q227.14,384.11,224.15,380.45Z"/><path class="cls-19" d="M578.07,26.5c-2.21-.09-4.43-.15-5.93-2.18C574.35,24.41,576.76,24,578.07,26.5Z"/><path class="cls-19" d="M453.74,324.2c1.75-1.86,4-2.06,6.35-1.91C458.53,324.79,456.07,324.28,453.74,324.2Z"/><path class="cls-17" d="M44.15,336.14c2.23.15,4.56,0,6.16,2C48,338.27,45.55,338.79,44.15,336.14Z"/><path class="cls-17" d="M104.16,346.45c2.27-.05,4.58-.23,6.28,1.76C108.16,348.27,105.76,348.79,104.16,346.45Z"/><path class="cls-17" d="M156.06,346.48a6.94,6.94,0,0,1,4.05,3.86Q156.3,350.28,156.06,346.48Z"/><path class="cls-19" d="M380,348.23c1.71-1.75,3.86-2.07,6.16-1.89C384.6,348.73,382.22,348.31,380,348.23Z"/><path class="cls-19" d="M373.21,350.07c1.93-1.91,4.39-1.9,6.85-1.88C378.36,350.93,375.7,350.21,373.21,350.07Z"/><path class="cls-19" d="M240.67,18.54c-1.83,1.92-4.15,2-6.55,1.73C235.82,17.86,238.3,18.41,240.67,18.54Z"/><path class="cls-19" d="M522.05,10.15c-2.36.23-4.66.24-6.52-1.6C517.86,8.42,520.31,7.82,522.05,10.15Z"/><path class="cls-19" d="M212.13,374.44c2.64-.1,3.93,1.27,4.12,3.82A6.35,6.35,0,0,1,212.13,374.44Z"/><path class="cls-19" d="M289,2.59c-2,1.72-4.4,1.89-6.88,1.73C283.91,1.78,286.51,2.44,289,2.59Z"/><path class="cls-19" d="M204.12,372.3c2.23,0,4.53-.15,6.07,2C208,374.28,205.56,374.72,204.12,372.3Z"/><path class="cls-19" d="M270.2,8.39c-1.56,1.84-3.66,2.33-5.94,2.37C265.41,7.89,267.92,8.42,270.2,8.39Z"/><path class="cls-19" d="M365.36,352.09c1.92-1.84,4.32-1.87,6.75-1.75C370.36,352.86,367.8,352.25,365.36,352.09Z"/><path class="cls-19" d="M281,4.61c-1.29,1.54-3,1.77-4.87,1.66C277.3,4.42,279.1,4.4,281,4.61Z"/><path class="cls-19" d="M275.12,6.63c-1.3,1.59-3.07,1.88-5,1.79C271.3,6.43,273.17,6.42,275.12,6.63Z"/><path class="cls-19" d="M264.47,10.63c-1,1.65-2.62,1.86-4.35,1.73C261.09,10.57,262.69,10.37,264.47,10.63Z"/><path class="cls-19" d="M560.1,20.31a5.2,5.2,0,0,1-4.61-1.74C557.31,18.37,559,18.47,560.1,20.31Z"/><path class="cls-19" d="M566.1,22.3a5.25,5.25,0,0,1-4.6-1.73C563.32,20.37,565,20.47,566.1,22.3Z"/><path class="cls-19" d="M570.05,24.67l-2.63-2.08c1.85-.22,3.59-.12,4.69,1.71Z"/><path class="cls-19" d="M582.11,28.32c-1.65,0-3.17-.35-4.13-1.88C579.67,26.36,581.19,26.68,582.11,28.32Z"/><path class="cls-19" d="M586,30.11a4,4,0,0,1-3.91-1.78C583.69,28.36,585.14,28.63,586,30.11Z"/><path class="cls-19" d="M202.34,32.54c-1,1.66-2.52,1.9-4.21,1.87C199,32.68,200.58,32.37,202.34,32.54Z"/><path class="cls-11" d="M592.48,34.1l-4.37.22a1.11,1.11,0,0,1-.55-1.07c.07-.42.17-.63.29-.63l.41-.45a1.36,1.36,0,0,1,1.76-.25l2,.47c.57.24.84.58.8,1S592.63,34.1,592.48,34.1Z"/><path class="cls-19" d="M592.48,34.1,592,32.39c1.74,0,3.29.33,4.09,2.14Z"/><path class="cls-19" d="M194.16,36.1l2-1.84,2.06.12A4.2,4.2,0,0,1,194.16,36.1Z"/><path class="cls-19" d="M600.09,36.41c-1.67,0-3.19-.38-4.14-2C597.68,34.37,599.21,34.69,600.09,36.41Z"/><path class="cls-19" d="M604.09,38.4a4.53,4.53,0,0,1-4-2C601.74,36.37,603.25,36.72,604.09,38.4Z"/><path class="cls-19" d="M608.07,40.48a4.72,4.72,0,0,1-4-2.1C605.76,38.38,607.28,38.74,608.07,40.48Z"/><path class="cls-19" d="M612.05,42.54c-1.68-.08-3.18-.51-4.07-2.12C609.73,40.38,611.27,40.73,612.05,42.54Z"/><path class="cls-19" d="M178.12,42.34a4.21,4.21,0,0,1-4,1.83l2-1.92A1.18,1.18,0,0,1,178.12,42.34Z"/><path class="cls-19" d="M622.08,48.45a4.38,4.38,0,0,1-3.81-2.19C619.89,46.38,621.34,46.79,622.08,48.45Z"/><path class="cls-19" d="M626,50.63a4.55,4.55,0,0,1-4-2.23C623.77,48.39,625.31,48.76,626,50.63Z"/><path class="cls-19" d="M632,54.57a4.52,4.52,0,0,1-3.86-2.26C629.86,52.39,631.35,52.8,632,54.57Z"/><path class="cls-19" d="M638,58.64a4.32,4.32,0,0,1-3.83-2.33C635.86,56.4,637.37,56.8,638,58.64Z"/><path class="cls-17" d="M94.1,90.32c.82-1.57,2.29-2,3.87-2.16l.55,1.11c-.73,1.92-2.07,2.37-3.91,1.67Z"/><path class="cls-19" d="M672.14,90.28c1.53.83,2,2.29,2.2,3.87l-1.26.56a2.78,2.78,0,0,1-1.74-3.31Z"/><path class="cls-19" d="M682,106.5c-.53-.09-1.06-.19-1.6-.27-1.49-1-1.47-2.21-.67-3.6l.42-.31C681.77,103.27,682.09,104.8,682,106.5Z"/><path class="cls-19" d="M684,110.73a5.46,5.46,0,0,1-2-4.35C683.87,107.25,684.08,108.91,684,110.73Z"/><path class="cls-19" d="M686,116.46a4.14,4.14,0,0,1-1.65-4C685.87,113.38,686.1,114.86,686,116.46Z"/><path class="cls-17" d="M37.94,148.21c.19-1.6.59-3.07,2.16-3.9l.78,1.11a2.75,2.75,0,0,1-1.67,3.27Z"/><path class="cls-19" d="M694.13,152.29c-1.57-.85-2-2.31-2.06-3.94C693.71,149.17,694.07,150.65,694.13,152.29Z"/><path class="cls-17" d="M33.92,154.19c.21-1.59.62-3.07,2.18-3.9l.78,1.12a2.79,2.79,0,0,1-1.7,3.29Z"/><path class="cls-19" d="M700.09,164.37a4.18,4.18,0,0,1-1.92-4C699.76,161.24,700.08,162.73,700.09,164.37Z"/><path class="cls-17" d="M28,166.21a5.6,5.6,0,0,1-1.66.4c-.15-1.74.13-3.3,1.8-4.27l.42.33C29.29,164,29.33,165.22,28,166.21Z"/><path class="cls-17" d="M20.21,178.36c0,1.69-.41,3.2-2,4.13C18.15,180.77,18.47,179.22,20.21,178.36Z"/><path class="cls-17" d="M18.29,182.38a5.51,5.51,0,0,1-2,4.48C16.15,185,16.31,183.3,18.29,182.38Z"/><path class="cls-17" d="M15.92,188.4a4.21,4.21,0,0,1-1.76,4C14.14,190.82,14.39,189.33,15.92,188.4Z"/><path class="cls-17" d="M14.2,192.36A5.61,5.61,0,0,1,12.33,197C12.15,195.11,12.27,193.37,14.2,192.36Z"/><path class="cls-17" d="M12.06,198.36a5.21,5.21,0,0,1-1.73,4.6C10.15,201.15,10.24,199.43,12.06,198.36Z"/><path class="cls-19" d="M700.13,210.34c0-1.64.39-3.14,2-4C702.08,208,701.74,209.46,700.13,210.34Z"/><path class="cls-19" d="M698.1,214.34c.06-1.64.42-3.12,2-4C700.07,212,699.72,213.49,698.1,214.34Z"/><path class="cls-19" d="M684.13,242.34c0-1.31,0-2.62,0-3.94l1.94-.11C686.08,240,685.74,241.46,684.13,242.34Z"/><path class="cls-19" d="M682.12,246.34c0-1.65.42-3.12,2-4C684.08,244,683.72,245.48,682.12,246.34Z"/><path class="cls-19" d="M680.08,250.33c.06-1.64.45-3.12,2-4C682.07,248,681.72,249.5,680.08,250.33Z"/><path class="cls-19" d="M676,256.31c.08-1.64.49-3.1,2.09-3.92C678.06,254,677.71,255.52,676,256.31Z"/><path class="cls-19" d="M664.13,266.35c.83-1.6,2.3-2,3.94-2.09C667.28,266,665.78,266.29,664.13,266.35Z"/><path class="cls-19" d="M658.11,270.34c.86-1.6,2.34-2,4-2C661.27,270,659.77,270.3,658.11,270.34Z"/><path class="cls-19" d="M654.06,272.32c.91-1.57,2.4-1.94,4.05-2C657.24,272,655.73,272.31,654.06,272.32Z"/><path class="cls-19" d="M648.14,274.36c.82-1.66,2.3-2,4-2C651.23,274,649.76,274.3,648.14,274.36Z"/><path class="cls-19" d="M646,278.3c.08-1.64.49-3.1,2.1-3.93C648.06,276,647.71,277.52,646,278.3Z"/><path class="cls-19" d="M634.17,288.37c.81-1.61,2.27-2,3.9-2.11C637.3,287.93,635.81,288.29,634.17,288.37Z"/><path class="cls-19" d="M626.12,294.35c.85-1.61,2.33-2,4-2.06C629.27,294,627.78,294.3,626.12,294.35Z"/><path class="cls-19" d="M618.11,298.34c.88-1.57,2.34-1.95,4-1.95C621.23,298,619.74,298.31,618.11,298.34Z"/><path class="cls-19" d="M548,302.28c1.4-2,2.77-2,4.11.07Z"/><path class="cls-19" d="M524.12,304.3c1.66.06,3.16.43,4.07,2C526.51,306.31,525,306,524.12,304.3Z"/><path class="cls-19" d="M540,306.31c.92-1.56,2.41-1.95,4.06-2C543.23,306,541.72,306.31,540,306.31Z"/><path class="cls-17" d="M18,314.48a4.44,4.44,0,0,1,2.38,3.75C18.61,317.63,18.18,316.15,18,314.48Z"/><path class="cls-19" d="M496.09,318.33c.87-1.59,2.36-2,4-2C499.26,318,497.76,318.3,496.09,318.33Z"/><path class="cls-19" d="M492.05,320.31c.91-1.56,2.4-1.95,4.05-2C495.24,320,493.72,320.31,492.05,320.31Z"/><path class="cls-19" d="M447.54,326.13a4.42,4.42,0,0,1,4.53-1.57C451,326.23,449.29,326.31,447.54,326.13Z"/><path class="cls-19" d="M441.54,328.13c1.16-1.54,2.77-1.8,4.54-1.6C445,328.22,443.3,328.31,441.54,328.13Z"/><path class="cls-19" d="M435.54,330.13c1.16-1.54,2.77-1.8,4.54-1.6C439,330.22,437.31,330.31,435.54,330.13Z"/><path class="cls-19" d="M429.54,332.13c1.16-1.54,2.77-1.8,4.54-1.6C433,332.22,431.3,332.31,429.54,332.13Z"/><path class="cls-19" d="M423.54,334.13c1.16-1.54,2.77-1.8,4.54-1.6C427,334.22,425.3,334.31,423.54,334.13Z"/><path class="cls-17" d="M40.12,334.3c1.66,0,3.2.36,4.16,1.92C42.56,336.3,41,336,40.12,334.3Z"/><path class="cls-19" d="M417.54,336.13c1.16-1.54,2.77-1.8,4.54-1.6C421,336.22,419.3,336.31,417.54,336.13Z"/><path class="cls-19" d="M411.54,338.13c1.16-1.54,2.77-1.8,4.54-1.6C415,338.22,413.31,338.31,411.54,338.13Z"/><path class="cls-17" d="M94.13,338.3c1.64.82,2.05,2.32,2.16,4C94.51,341.52,94.16,340,94.13,338.3Z"/><path class="cls-19" d="M405.54,340.13c1.16-1.54,2.77-1.8,4.54-1.6C409,340.22,407.3,340.31,405.54,340.13Z"/><path class="cls-17" d="M143.9,342.26l2.18-2,2,.17C147.13,342.05,145.58,342.31,143.9,342.26Z"/><path class="cls-19" d="M399.54,342.13c1.16-1.54,2.77-1.8,4.54-1.6C403,342.22,401.3,342.31,399.54,342.13Z"/><path class="cls-17" d="M138,344.28a4.23,4.23,0,0,1,4.08-1.75C141.1,344.08,139.59,344.31,138,344.28Z"/><path class="cls-19" d="M393.35,344.08a5.07,5.07,0,0,1,4.73-1.55C396.9,344.26,395.17,344.3,393.35,344.08Z"/><path class="cls-17" d="M131.82,346.23a4.45,4.45,0,0,1,4.22-1.7C135,346.11,133.49,346.32,131.82,346.23Z"/><path class="cls-19" d="M387.22,346.06a5.24,5.24,0,0,1,4.88-1.65C390.91,346.26,389.11,346.28,387.22,346.06Z"/><path class="cls-19" d="M316.12,350.34c0-1.65.4-3.13,2-4C318.08,348,317.73,349.47,316.12,350.34Z"/><path class="cls-19" d="M324.11,348.32c1.65.05,3.14.42,4,2C326.47,350.3,325,350,324.11,348.32Z"/><path class="cls-17" d="M160.11,350.34a4.56,4.56,0,0,1,4.1,2C162.53,352.31,161,352,160.11,350.34Z"/><path class="cls-19" d="M314.05,354.31c.08-1.63.48-3.11,2.06-4C316.07,352,315.72,353.5,314.05,354.31Z"/><path class="cls-19" d="M328.12,350.31c1.66,0,3.16.42,4.1,2C330.53,352.31,329,352,328.12,350.31Z"/><path class="cls-17" d="M184.15,362.22a4.29,4.29,0,0,1,3.92,2.14C186.42,364.29,184.92,363.93,184.15,362.22Z"/><path class="cls-19" d="M264.07,366.3c1.37-2.12,2.76-2,4.15,0Z"/><path class="cls-19" d="M294,366.29c.94-1.56,2.44-1.92,4.11-1.94C297.21,366,295.69,366.31,294,366.29Z"/><path class="cls-17" d="M194.13,368.25c1.69.07,3.21.47,4.19,2C196.58,370.31,195,370.07,194.13,368.25Z"/><path class="cls-17" d="M200.15,370.44a4.12,4.12,0,0,1,4,1.89C202.51,372.31,201,372,200.15,370.44Z"/><path class="cls-19" d="M256.11,372.34c.85-1.6,2.33-2,4-2.07C259.27,372,257.77,372.3,256.11,372.34Z"/><path class="cls-19" d="M248.09,376.33a4.27,4.27,0,0,1,4-2C251.23,376,249.74,376.31,248.09,376.33Z"/><path class="cls-19" d="M243.86,378.23a4.73,4.73,0,0,1,4.24-1.91C247.17,378,245.61,378.32,243.86,378.23Z"/><path class="cls-19" d="M216.17,378.2a4.83,4.83,0,0,1,4.1,2.07C218.54,380.3,217,380,216.17,378.2Z"/><path class="cls-19" d="M522.1,302.36l2,2Z"/><path class="cls-19" d="M544.09,304.33l2-1.9Z"/><path class="cls-19" d="M512.06,306.32l2-2.11Z"/><path class="cls-17" d="M98,88.16l2.08-1.83.3.29c0,1.51-.58,2.31-2.22,1.74Z"/><path class="cls-19" d="M668.31,86.18l2,2-1.34.41a1.79,1.79,0,0,1-.81-2.3Z"/><path class="cls-19" d="M510.06,308.32l2-2Z"/><path class="cls-17" d="M178.12,42.34c-.66,0-1.33,0-2-.09l2-1.91h0c.65.44.87.89.65,1.34s-.43.67-.65.67Z"/><path class="cls-19" d="M508.06,310.32l2-2Z"/><path class="cls-19" d="M506,312.3l2.11-2Z"/><path class="cls-17" d="M16.2,312.13A2.52,2.52,0,0,1,18,314.38Z"/><path class="cls-19" d="M502.15,314.35l1.93-1.9Z"/><path class="cls-19" d="M670.27,88.22l1.87,2.06-.39.43a1.89,1.89,0,0,1-2.09-.31,1.61,1.61,0,0,1,.39-2Z"/><path class="cls-19" d="M500.07,316.32l2.05-1.94Z"/><path class="cls-19" d="M674.34,94.15l1.84,2.07-.25.27c-1.61.09-2.42-.46-1.78-2.19Z"/><path class="cls-19" d="M590,31.92a8.12,8.12,0,0,1-1.76.25c-.2-.56-.4-1.13-.59-1.7Z"/><path class="cls-17" d="M91.94,338.27c.76-1.18,1.5-1.49,2.21,0Z"/><path class="cls-17" d="M149.83,340.22c.81-1.2,1.57-1.54,2.22.12Z"/><path class="cls-19" d="M614,44a2.13,2.13,0,0,1-2.1-1.56Z"/><path class="cls-17" d="M96.19,342.18l2.37,2A2.93,2.93,0,0,1,96.19,342.18Z"/><path class="cls-17" d="M152.19,342.05l1.89,2.29Z"/><path class="cls-17" d="M100.17,344.54l2.23,1.72Z"/><path class="cls-17" d="M154.1,344.37c.63.66,1.25,1.33,1.87,2Z"/><path class="cls-19" d="M318.1,346.33c.67-1.52,1.39-1.38,2.15-.06Z"/><path class="cls-19" d="M322.13,346.42l2,1.91Z"/><path class="cls-19" d="M312.07,356.32l2-2Z"/><path class="cls-17" d="M178.18,356.09l2,2.22Z"/><path class="cls-19" d="M310,358.31l2.09-2Z"/><path class="cls-17" d="M180.14,358.27l2,2Z"/><path class="cls-19" d="M306.15,360.35l1.93-1.88Z"/><path class="cls-17" d="M182.14,360.27l2.07,2Z"/><path class="cls-19" d="M304,362.3l2.12-1.92Z"/><path class="cls-19" d="M300,364.29l2.12-1.9Z"/><path class="cls-17" d="M188.1,364.37l2.25,1.9Z"/><path class="cls-17" d="M192.15,366.47l2,1.84Z"/><path class="cls-19" d="M262.06,368.32l2-2Z"/><path class="cls-19" d="M260.05,370.3l2-2Z"/><path class="cls-19" d="M254,374.31l2.11-2Z"/><path class="cls-19" d="M618.15,46.19l-2.63-1.67Z"/><path class="cls-17" d="M42,142.29l1.89-2.1.18.14a1.48,1.48,0,0,1,.65,1.4c-.09.53-.21.79-.35.79l-1.24.39Z"/><path class="cls-17" d="M40.1,144.31c.65-.67,1.29-1.35,1.93-2l.23.22c.4,1.5-.33,2.1-1.71,2.2Z"/><path class="cls-19" d="M690.12,146.27l-1.76-1.87Z"/><path class="cls-19" d="M692.1,148.37l-1.93-2Z"/><path class="cls-17" d="M36.1,150.29l1.84-2.08.17.13c.61,1.65-.2,2.21-1.71,2.25Z"/><path class="cls-19" d="M696.05,154.54l-1.89-2.21Z"/><path class="cls-17" d="M32.1,156.29l1.82-2.1.16.12c.67,1.68-.17,2.22-1.69,2.27Z"/><path class="cls-19" d="M698.05,158.53l-1.86-2.17Z"/><path class="cls-19" d="M628.13,52.28a2.49,2.49,0,0,1-2.27-1.81Z"/><path class="cls-19" d="M634.13,56.28a2.6,2.6,0,0,1-2.23-1.84Z"/><path class="cls-19" d="M640.08,60.43a2.63,2.63,0,0,1-2.23-2Z"/><path class="cls-19" d="M696.16,216.35l2-2Z"/><path class="cls-19" d="M694.2,218.35l1.92-2Z"/><path class="cls-19" d="M692.16,220.35l2-1.92Z"/><path class="cls-19" d="M690.1,222.34l2-2Z"/><path class="cls-19" d="M648,66.53a2.63,2.63,0,0,1-2.2-2A2.86,2.86,0,0,1,648,66.53Z"/><path class="cls-19" d="M650.09,68.41a2.75,2.75,0,0,1-2.17-2Z"/><path class="cls-19" d="M652.14,70.24a2.46,2.46,0,0,1-2.1-1.87Z"/><path class="cls-19" d="M678.16,252.35l1.94-2Z"/><path class="cls-19" d="M674.06,258.31l2-2Z"/><path class="cls-19" d="M672.06,260.31l2-2Z"/><path class="cls-17" d="M118,74.16l2.1-1.83.36.39c-.15,1.44-.71,2.28-2.33,1.61Z"/><path class="cls-19" d="M670.06,262.31l2-2Z"/><path class="cls-19" d="M668,264.3l2-2Z"/><path class="cls-19" d="M662.07,268.32l2-2Z"/><path class="cls-19" d="M644.05,280.31l2-2C645.39,279,644.72,279.63,644.05,280.31Z"/><path class="cls-19" d="M642.07,282.32l2-2Z"/><path class="cls-19" d="M640.06,284.31l2-2Z"/><path class="cls-19" d="M638,286.3l2-2Z"/><path class="cls-19" d="M632.11,290.34l2-1.94Z"/><path class="cls-19" d="M630.07,292.32l2-2Z"/><path class="cls-19" d="M624,296.3l2.12-1.95Z"/><path class="cls-19" d="M516.11,300.34c.67-1.49,1.38-1.38,2.13-.07Z"/><path class="cls-19" d="M514.2,302.32l1.91-2Z"/><path class="cls-19" d="M520.13,300.42l2,1.92Z"/><path class="cls-20" d="M382.09,304.33c1.37,4.81-3.22,10.11.11,14.25,3.08,3.82,8.81,1.27,13.24,3,4,1.6,8.7,1.43,9.17,7.06-.49.53-1,1.42-1.29,1.35-7.16-2-13.08-.3-19.32,4-4.92,3.38-11.12,6.38-17.73,2.4-2.91-1.75-4.09-3.7-3.6-7.29,1.53-11.45,3.4-22.87,3.46-34.47,0-5.65,2.52-10.93,2.11-16.73a103.42,103.42,0,0,0-1.85-14.75c-1.87-8.63.4-17.41,2.24-25.58,3.13-13.86.39-27-1.33-40.42-1.68-13.09-4.95-26-5.23-39.25-.28-14-8.81-23.14-19.07-31-2.87-2.21-6.06-3.89-8.18-8.53,16.95,6.87,33.82,5.84,50.59,6,5,.05,9.61-2.82,14.71-2h10c1.71-1.43,3.77-.85,5.69-.94s4.12-.46,5,2c.74,2.16-.43,3.85-1.78,5.33-2,2.18-4.33,4.11-5.65,6.84-1.19,2.48-5.42,4.66-.73,7.81.7.47.51,2.1-.27,2.71-11.51,8.88-18.57,22.33-31,30.26a3.59,3.59,0,0,1-3.75.16c-3.27-6.91-.82-13,3.08-18.61,4.74-6.83,13.34-10.66,15.08-20,.42-2.3,4.26-2.46,6.51-4.58-10.17-.84-18.49,3.41-26.92,7.12-2.78,1.23-4.13,3.71-2.83,6.56,3.85,8.45,4.41,17.29,3.57,26.33-.26,2.77,1.56,4.15,3.24,5.72,3.9,8.82,7.57,17.15,4.06,27.64-2.75,8.25,2.37,14.67,10.59,17.88,5.66,2.22,10.4,4.73,3.71,11.08-2.66,2.52-1.43,4.72.57,6.87,2.67,2.89,4.52,6.25,2.05,9.9-6.84,10.15-9.31,22-13.15,33.25-.67,2-1,4.12-3.83,2.26-2.53-4-1.37-8.29-.84-12.54a136.17,136.17,0,0,0-.38-36.3c-1.46,18.47-1.53,37-4.79,55.31C376.58,298.52,375.68,303.35,382.09,304.33Z"/><path class="cls-2" d="M378.13,176.36c5.42-3.38,9.2-8.51,13.73-12.83,3.55-3.39,7-6.91,11.06-9.19-.53-2.39-3.36-1.6-3.38-4,3.1-3,8-2.51,11.49-5.17.22-3.78-3.32-2.07-5.48-3.71,6-3.84,6-12.36,13.19-15.52,1.42-.63.43-3.1-1.7-3.34-2.3-.25-4.63-.18-6.94-.25,4.67-2.46,9.18-4.8,14.32-.56,1.25,1,3.85.5,5.83.56,2.66.09,5.34-.11,8,.13,3,.27,6.31,1,7.3,4.19,1.07,3.52-1.9,5.44-4.39,7s-5.19,3.35-8,3.94c-9.77,2-17.14,7.77-24.43,14.9,2.2,3,6.51,4.43,7.34,8.78,1.35,7.16-2,14.2-9.4,16.51S394,184.61,389,190.12c-2.77,3.09-2.94,5.57.25,8.43,3,2.66,5.72,5.57,8.48,8.45,8.2,8.55,8.89,10.64,7.52,22.14,3.33,2.16,7.12.72,10.65,1.27,4,.62,5.09,3,2.6,6.17A24.78,24.78,0,0,1,412.7,242c-6.32,4.16-10.1,9.74-13.26,16.77-5.56,12.38-8.84,25.65-15.3,37.63-2.33-2.66-2.32-5.33,0-8,3.73-5.66,3.86-12.46,5.61-18.71a43.37,43.37,0,0,1,7.11-15.07c4.24-5.56,4-6.92-1.21-11.31-.75-.63-1.74-1-2.54-1.55-2.89-2.06-3.09-4,.16-6,2.18-1.38,4.12-3.15,6.16-4.74-1.26-3.48-4.43-3.19-6.65-4.08-10.95-4.39-15.78-13.81-11.34-24.62,2.08-5.08,3.13-9-1-13.52-2.53-2.77-2.61-6.7-2.37-10.41a1.23,1.23,0,0,1-.42-1.32C377.83,176.57,378,176.36,378.13,176.36Z"/><path class="cls-20" d="M394.11,74.34c1.1-1.64,2.5-3.16,3.24-5,1.83-4.45.29-6.06-4.86-5.47-4.49.51-9,1.14-14-.77,2.75-7.43,12.51-10.52,9.67-20.68,7.75,3,12.61,7.89,17.9,11.93A109.84,109.84,0,0,1,434.91,86.6c2.19,3.79-1.32,2-2.82,1.75C420.25,81.47,406.6,79.48,394.11,74.34Z"/><path class="cls-21" d="M384.13,288.36c0,2.67,0,5.33,0,8q0,1,0,2c-2.34,1.43-1.92,3.8-2,6-2.34.89-1.31,4.52-4.45,5.12-5.21-4.61-4.07-10.92-3.13-16.49a250.85,250.85,0,0,0,3.76-41.32c0-7.36,1.65-14.72,3.46-22.13a57.49,57.49,0,0,1,4.42,19.3C386.91,262.08,385,275.19,384.13,288.36Z"/><path class="cls-21" d="M286.12,42.33c.42.48.78,1.3,1.28,1.4C299.93,46.12,300,55.8,300.11,65.41c0,1,0,2,0,2.92-1.19,3.25-1.83,3.25-6,0-8.94-10.42-20.06-18.51-30-27.87-1.4-1.33-3.18-2.24-4-4.11-4.2-5-1-5.56,3-4.65,6.86,1.55,12.41,6.21,18.94,8.66Z"/><path class="cls-22" d="M282.08,40.36c-7.43-.33-13.6-4.2-20.19-7-3.82-1.63-2.1,1.42-1.79,3-7.38-2.38-13.15-8.2-21.69-9,4.81-7.58,8.58-2.75,12.89.55.9-5.66,4.19-7.16,8.83-8.08,3.3-.66,7.33-.4,10-3.41h4c2.1,2.65,1.36,5.31,0,8-3,4.37-1.83,7.94,2,11.05C278.14,37,280.1,38.7,282.08,40.36Z"/><path class="cls-2" d="M274.1,24.33v-8c1.49-2.31,3.78-3,7-3.75C280.12,18,276.79,21,274.1,24.33Z"/><path class="cls-2" d="M253.63,16a3.89,3.89,0,0,1,.54-1.54h3.93C257.05,16.19,255.45,16.38,253.63,16Z"/><path class="cls-23" d="M485.91,245.86c-.22-11.25,1.3-22.37,2.3-33.52,2.44-9.73-.72-19.92,2.48-29.58,6.86-8.39,17.12-9.52,26.58-12.17,3-.83,6,.73,8.21,2.89,5.62,5.61,11.82,5.71,19.29,4.14,14.09-2.94,28.48-5.29,40.3,6.75,2.29,2.33,5.64,2.3,8.54,1.55,16.19-4.16,28.53,4.49,41.1,12.21,3.81,2.34,3.48,6.07,2.08,9.79-2.78,7.38-11,13.29-18.79,12-6-1-10.14.37-14,4.81-3.23,3.66-7.9,4.73-12.69,5-4.64-2.54-8.51-5.47-14.9-2.33-5.17,2.54-10-2.33-13.44-6.51-4.32-5.17-7.63-5.52-11,1-5.33,10.25-17.22,15-22,26-1.69,3.92-6.56,5.29-10,1.32-4-4.61-6.47-2.54-9.47.91-3.15,3.62-7.43,5.56-12,7C487.17,260.55,484.44,258.11,485.91,245.86Z"/><path class="cls-24" d="M587.85,32.62a6.54,6.54,0,0,1,.26,1.7c15.29,13,26.23,30.39,43,42.41-17.61,2.83-33.29,9.36-48.88,16.33-4.75,2.13-10.25,2.53-15.32,4-16.81,4.89-33.72,9.5-50.31,15.07-9.2,3.09-18.73,3.91-28.05,6a17.05,17.05,0,0,1-8.86-.39c-4.59-1.58-9.16-1.31-13.79-1.32a4.87,4.87,0,0,1-2.2-3.86c4-.1,6.33-3,8.77-5.6,3.39-3.56,7-6.82,11.63-8.62,18.5-10.17,38.53-17.48,55.3-30.87,9.63-7.68,17.26-17.35,26.71-25.13C572.37,36.89,581,36.67,587.85,32.62Z"/><path class="cls-12" d="M337.41,146.42c6.2,8.6,11.79,17.53,14.48,28-4.29,4.41-10.11,4.74-15.63,5.64-2.63.43-6.4.08-6.26-3.21.41-9.34-5.7-6.23-10-5.43C300.92,175,282.93,182,265.26,189.83c-15.18,5.59-28.52,14.48-41.78,23.5a46.78,46.78,0,0,0-5.83,3.62,24.73,24.73,0,0,1-2.28,1.55C198.85,228.43,184,240.82,168,251.44c-7.82,5.17-13.76,12.37-19.59,19.62-8.69,4.1-16.75,9.12-23.51,16.06-5,6.21-8.46,14.56-18.71,13.68-3.91-.34-8.12.09-9.48-5-.23-4.6,3-7.25,5.72-10.22,6.87-5.93,13.52-12.1,18.51-19.8a96.23,96.23,0,0,1,12.63-12.58c10.05-5.55,17.49-14.09,25.42-22.09A78.16,78.16,0,0,1,172,220.85c20.19-9.49,38.18-22.41,55.78-35.93a101.65,101.65,0,0,1,18.9-8.38c26.16-7.63,51.88-16.46,76.77-27.63C327.82,147,332.09,143.37,337.41,146.42Z"/><path class="cls-25" d="M460.11,26.34c4.64-6.4,11.33-10.18,18-14,2.6,3.06,6.2,2.16,9.34,1.92,20.21-1.59,38.56,5.12,56.77,12.42,2.4.95,4.42,2.84,7,4.53-2.41,4-6.45,5-9.88,6.45-22.46,9.53-42.5,23-61.33,38.2-6.68,5.42-12.41,12-18.51,18.17-2.17,2.18-4.18,4.46-7.63,2.36L433.48,68.57c7.2-5.34,15.83-8.33,22.85-14,3.38-2.73,6.83-5.36,9.46-8.84,3.78-5,4.78-9.57-2.13-13C461.15,31.53,457.51,30.56,460.11,26.34Z"/><path class="cls-26" d="M256.08,46.48c9.16,4.41,17.67,9.69,24,17.87,1.38,3.7-.73,6.37-2.81,8.92-13.18,16.26-22.81,34.59-31.39,53.55a10.46,10.46,0,0,1-2.88,3.36c-19.79,10.59-37.65,24.46-57.9,34.29-3.45,1.68-6.82,4.4-11.12,2.36-2.65-4.16.63-6.82,2.57-9.75,12-18.1,26.67-34.09,40.87-50.42A241.67,241.67,0,0,0,256.08,46.48Z"/><path class="cls-27" d="M357.93,246.32l.38,23.75c.5.92.37,2.61-.09,2.57-6.65-.48-6.89,6.45-10.75,9.13-12.94,1.43-25.69,6.05-39,2.43-2.12-.58-2.87,1.09-3.83,2.37-8.58,11.39-20.12,12.5-32.27,8.07-9.72-3.54-18.65-6.3-28.19.42-3.17,2.23-7.64,2.12-11.69,1.2a6.63,6.63,0,0,1-2.64-1.47,3.89,3.89,0,0,1-.36-2.93,13.65,13.65,0,0,1,1.38-2.62c.27-.4.58-.79.85-1.18a50.11,50.11,0,0,0,5.06-7.31c3.56-6.61,7.46-10.47,13.91-2.85a4.27,4.27,0,0,0,3.55,1.44c6.08-.32,18.57-11.64,19.48-18.06,1-6.75,4.32-12.41,7.56-18.14,1.53-2.71,3.63-4.82,7.24-3.36,4.88,5.44,11.26,6,18.09,6.16,10.48.18,11.3,1.47,9.35,11.8-.48,2.56-2.16,6.17.23,7.4,4.09,2.1,7,5.72,10.93,7.56,2,.94,3.63-2.31,4.89-4.2,2.37-3.54,4.17-7.58,8.36-9.54,4.35-1,7.09-3.26,7-8.22-.15-10.94,1.2-22-4.09-32.33-1.48-2.89-3.11-6-1-9.46a8.74,8.74,0,0,1,1.31-1.52c3.28-2.71,6.46-7.34,11-5.54,5.13,2.06,2.09,7.65,2.38,11.62C357.79,224.42,356,235.42,357.93,246.32Z"/><path class="cls-28" d="M485.91,245.86c.83,11.64,1.93,12.26,13.17,8.55a24.85,24.85,0,0,0,13.12-10c3.27-4.74,3.76-4.56,6.85-.12,5,7.18,7.09,7.26,11.17-.64,1.71-3.31,5.68-5.86,4.49-10.53-.29-1.13.68-1.93,1.74-1.16,4.49,3.26,5.67-.9,7.51-3.32,2.79-3.68,5.38-7.51,8.14-11.23,3.38-4.56,7.41-4.86,11.07-.37,2.09,2.56,3.55,5.62,6.67,7.17,2.65,1.31,5,2.65,8.37,1,7.78-4,7.89-3.78,11.9,3.19,3.29,1,5.6,3.39,8.08,5.61,7.12,6.38,8.66,6.3,13.31-1.91,2-3.62,4.15-5.37,8.5-5.19,16.2.7,24.81-5.42,29.92-20.74,9.2,1.55,11,8.67,12.2,16.23,0,1.33,0,2.66,0,4-8.58,11.59-20.13,16.74-34.43,15.72-2.28-.16-4.6-1.39-6.77,0-12.77,8.33-26,5-39.31,1.83a18.45,18.45,0,0,1-7.83-4.12c-9.41-8.06-20.89-5.11-24.59,6.71-2.74,8.75-5.73,15.84-17.14,12.26-3.68-1.16-6.28,1.56-8.32,4.29a22.68,22.68,0,0,1-15.6,9.29c-3,0-5.93,0-8.77-1.3-5-2.38-9.95-2.56-13.95,2.39-2-3.49-.69-6.58-1.43-9.41C484.08,257.91,483.6,251.73,485.91,245.86Z"/><path class="cls-29" d="M256.08,46.48c-1.12,13.16-8.76,23.52-15.52,34-9.88,15.25-21.91,29-34,42.52a370.91,370.91,0,0,0-32.1,41.44,5,5,0,0,0-.31,2,1.78,1.78,0,0,1-1.2,2.36,3.13,3.13,0,0,1-2.2-1.89c-.77-9.81,2-18.93,5.47-27.92a12.22,12.22,0,0,1,1.75-2.42,15.47,15.47,0,0,1,2.22-1.9C205.21,118.52,233,75.7,232.43,53c-6.31,2-9.45,7.08-13,11.65C211.55,75,207.2,87.45,199.29,97.75c-2.39,3.11-3.87,8.23-9.7,6a5.78,5.78,0,0,1-1-3.76,11.53,11.53,0,0,1,1.15-3.47,19.81,19.81,0,0,1,1-2c.51-.91,1.07-1.82,1.54-2.77.25-.62.55-1.22.85-1.81a16.38,16.38,0,0,0,1.05-2.73,15.88,15.88,0,0,1,.85-2.8c.39-.89.85-1.75,1.27-2.63a11.08,11.08,0,0,1,.87-1.76c.49-.88,1-1.76,1.37-2.68a19.13,19.13,0,0,1,.89-1.89c.29-.65.61-1.28.93-1.91s.62-1.31,1-2,.64-1.3,1-1.94.62-1.3,1-1.93.64-1.26,1-1.89.61-1.25.95-1.86c.48-.9,1-1.81,1.38-2.76.25-.65.53-1.28.81-1.91.38-1,.72-2,1.05-3a13.24,13.24,0,0,1,2-3.9c.62-.9,1.25-1.8,1.79-2.76.31-.69.67-1.34,1-2,.51-1,1-2.1,1.49-3.18.31-.79.68-1.54,1.06-2.3,1.89-3.06,2.39-6.73,4.34-9.75C232.79,35.39,245,39.47,256.08,46.48Z"/><path class="cls-7" d="M337.41,146.42c-15.13,6-30.14,12.33-45.43,17.9-15,5.44-29.7,11.75-45.62,14.17-6,1.74-6-2.24-5-5.94a79,79,0,0,1,7.28-18.35,10.65,10.65,0,0,1,3.57-3.17c22.21-5.72,44.08-12.49,65.19-21.53a16,16,0,0,1,6.8-1.28C329.46,133.65,333.56,139.94,337.41,146.42Z"/><path class="cls-24" d="M324.17,128.22c-7,5.94-16.1,7.59-24.27,11-13.8,5.68-28.25,9.61-42.81,13a25.72,25.72,0,0,1-5,.17c-1.8-2.08-1.26-4.37-.25-6.44,5-10.25,9.24-21,18.06-28.86,11.73-5.72,23.05-12.61,36.61-13.3A204.72,204.72,0,0,1,324.17,128.22Z"/><path class="cls-3" d="M357.93,246.32c-2.66-2.37-1.79-5.55-1.82-8.45-.1-9,0-18-.12-27,0-2.51,1-5.34-1.59-7.76-5.18.46-6.73,7.48-12.3,7.21-2.4.86-4-.45-5.62-1.95-4.94-6.44-11.76-11.65-12.79-20.65-.44-3.84-3.75-3.12-6.26-2.42-14.13,3.91-28.8,2.95-43.13,5-3.57.5-7.27,1.07-10.2-2,20.28-11.07,42.12-17.39,64.75-21.29,4.37-.75,5.49.44,4.42,4.72-.46,1.88-2,3.47-1.46,6.14,7,.94,13.19-3.63,20.08-3.53,4.23,8.17,5.4,17.17,5.75,26.06C358.25,215.71,357.89,231,357.93,246.32Z"/><path class="cls-29" d="M460.11,26.34c.17,2.88,2.14,3.34,4.53,4.17,7.82,2.72,10,7.87,5,14.26-9.24,11.92-21,20.6-36.19,23.8a62.17,62.17,0,0,1-10.89-12.35c6.81-10,16.77-16.84,25.47-24.95a8.52,8.52,0,0,1,2.65-.83l1.4-.1Z"/><path class="cls-30" d="M368.06,12.43c5.75-3.9,12.2-2.41,18.18-1.58,15.5,2.16,29.08,10.09,43.43,15.69,1.14.44,1.64,2.5,2.43,3.81-3.39,8.57-9.47,14.08-18.51,16.2C399.28,34,384.51,22.11,368.06,12.43Z"/><path class="cls-31" d="M285.65,70.51c4.72,5.09,7.88,11.13,10.64,17.41,2.17,4.64-1,7.41-3.68,10.27-7.43,8-16.23,14.31-24.71,21-4.91,2.32-9.63,5.42-15.5,3.71-2.33-3.46,0-6.36,1.41-9.12,7.08-13.78,15.87-26.49,24.68-39.19C280.14,72.25,282,69.72,285.65,70.51Z"/><path class="cls-12" d="M348.12,280.34a15.11,15.11,0,0,0,1.56-3.54c.53-3.23.4-6.67,5.41-3.64,1.2.73,2.38-1.73,3.22-3.09,2.64,11.54-.69,23.05-.23,34.59.18,4.59.23,9.34-1.92,13.68-5.39-.77-9.91.21-12,6l0-6C341.79,305.27,343.8,292.68,348.12,280.34Z"/><path class="cls-32" d="M471.89,128.24c11.46.69,22.72-2.64,34.19-1.66a212,212,0,0,1-7.78,21.12c-6.55,5-12.58,2.43-18.53-1.27A91.37,91.37,0,0,1,471.89,128.24Z"/><path class="cls-33" d="M285.65,70.51c-9,8.4-14.36,19.44-21.14,29.42-4.77,7-8.3,14.9-12.38,22.39.71,1.67-.24,2.71-1.38,3.69-2.15,1.26-4.31,2.45-6.63.34A198.57,198.57,0,0,1,274.2,73.4a47.51,47.51,0,0,0,5.9-9.05A12.05,12.05,0,0,1,285.65,70.51Z"/><path class="cls-34" d="M413.59,46.55c6.82-4.66,12.24-10.92,18.51-16.2l4-2c5.3.86,11.07-2,16,2h0a15.51,15.51,0,0,0-2,2c-9.55,7.54-17.23,17.22-27.53,23.89C419.41,53.16,415.84,50.46,413.59,46.55Z"/><path class="cls-35" d="M479.77,146.43c3-.07,6-.23,8.82,1.09,3.37,1.56,6.5.44,9.51-1.19a5.23,5.23,0,0,1,1.36,3c-1.82,11.15-.7,23-7.35,33.05-1.82,7.77-2.07,15.68-2,23.61,0,2.31.19,4.69-1.89,6.39a24.89,24.89,0,0,1-.24-3.94,144.91,144.91,0,0,0-6.08-55.63c-.81-1.37-.5-3.16-1.61-4.42Z"/><path class="cls-36" d="M268.09,118.33c5.62-9.19,15.92-13.45,22.61-21.53,2.27-2.74,5.51-4.79,5.59-8.88a84.68,84.68,0,0,1,10.24,15.83c-1,.8-1.84,2-3,2.34-9.64,2.82-19.43,5.15-27.8,11.23-1.4,1-3.75.72-5.66,1C269.43,119.21,268.75,119.16,268.09,118.33Z"/><path class="cls-22" d="M294.12,68.33c2-.65,4,2.33,6,0,2.78,2.07,3.77,5.32,5,8.26,4.74,11.08,12,20.81,17,31.75h0c-4.23,0-6.5-3.2-8.77-5.89C304.81,92.3,297.25,81.55,294.12,68.33Z"/><path class="cls-37" d="M220.13,32.45c2.16,5.14-1.14,8.44-4,11.89-3.38,2.33-4,6.53-6.55,9.49-3.25,3.84-6.65,6.22-11.47,2.5,1-5.2,3.93-9.44,6.57-13.91,1.78-3,5.35-5.8,3.26-10.17-.67-.89-.42-1.45.61-1.74a2.09,2.09,0,0,0,1.56-.33l2.37-1.51Z"/><path class="cls-32" d="M480.28,148.35c1.69,1.05,1.92,2.64,1.61,4.42A4.48,4.48,0,0,1,480.28,148.35Z"/><path class="cls-22" d="M324.11,110.34c-.67-.67-1.34-1.33-2-2h0Z"/><polygon class="cls-22" points="324.11 110.34 324.95 110.8 324.57 111.18 324.11 110.34"/><path class="cls-38" d="M508.11,272.34c6.21-3.21,11.9-7.25,15.47-13.29,2.39-4.06,4.94-4.64,8.92-3,1.79.75,3.89.72,5.77,1.32,2.87.93,4.47-.45,5.46-2.81.89-2.13,2-4.35,2.13-6.58.69-13.51,12-13.6,20.87-16.84,2.71-1,4.79.87,5.74,2.85,4.51,9.43,14,8.13,21.76,10.16,3.73,1,7.94-.12,11.89.24,6.47.58,11.84-.83,15.08-7.32,8.79,5.44,17,3.35,24.92-.84,5.52-2.94,10.67-6.59,16-9.92,1,7.43-1,13.54-7.19,18.34-4.72,3.66-7.52,9.15-11.49,13.62C632.09,271,621.8,269.86,607.59,264c-3.94-1.62-7.45-4.29-11.08-6.6-3.33-2.12-5.23-6-9.44-7.91-1.84,3.86-3.3,7.78-5.87,11.19-5.51,7.29-10.81,7.64-16.85,1-1.8-2-1.38-5.19-4.59-6.66-4.81,4.79-7.92,11.08-13,15.8-9.89,9.22-20.76,10.6-32.07,3.17A11.39,11.39,0,0,0,508.11,272.34Z"/><path class="cls-39" d="M642.11,142.31c.67,0,1.33.05,2,.09,6.16,8.42,10.26,17.27,6,27.93l-1.28.93c-16.63-.91-33,1.31-49.26,4.46-5.93,1.15-10.09.81-10.47-7.29-.8-17.26-18.35-30.93-35.86-28.75-9.22,1.15-9.22,1.15-6.6-8.63,1.18-2.19,3.66-1.76,5.46-2.7l10,.08c1.88,1.52,4.11.74,6.2.94C593.2,132.08,618.07,134.82,642.11,142.31Z"/><path class="cls-39" d="M662.12,222.34c-4.56-4.92-5.26-12.73-12-16-11.74-2.49-18.45-12-16.77-23.38.55-3.71,3.44-4.43,5.9-5.9,3.64-2.2,7-4.8,10.86-6.71l0,0c2.51,0,4.33,1.3,6,3,3.13,3.23,6.06,6.43,10.24,8.74,6.15,3.41,8.08,10.15,5.76,17C669.39,207.07,667.29,215.38,662.12,222.34Z"/><path class="cls-38" d="M348.12,280.34c.32,12.84-1.52,25.44-4,38-5.46-3-11.52-4.84-15.82-9.4-3.52,2.45-4.16,5.9-5.82,8.69-4.93,8.29-14.08,8.82-20.13,1-1.62-2.09-2.88-4.44-4.37-6.63s-1.71-5.11-5-6.72c-5.07,6.11-10.52,11.54-19.09,13.76-9,2.33-15.79-1.19-23.5-5.79,0,2.18-.41,3.64.07,4.7,4.07,9.18.08,17.63-2.61,26-1.88,5.83-6.45,8.62-13.06,8.54s-12.51-.34-15.47-7.77-6.53-14.82-8-24.3c-5.72,6.68-12.23,9.68-19.16,11.94-18.94-1.32-34.33-9.89-47.28-23.31a7.43,7.43,0,0,1-2-7.38,3.16,3.16,0,0,1,2.06-2c3.43-.46,6.57.77,9.67,1.9,5.63,2.05,10.87,2.36,16-1.6,4.54-3.5,8.7-3.73,12.82,1.46,4.92,6.2,11.89,4.6,18.47,3.33a50.53,50.53,0,0,0,11.36-3.65c6.26-.65,10.23-7,16.87-6.73,7.77.29,15.28-.18,21.32-6.11,2.41-2.37,5.39-2.19,8.38-1,3.69,1.5,7.34,3.11,11.11,4.39,17.42,5.91,25.31,3.26,35.71-12.34,4.52,6.37,9.84,4.74,16.38,3C331,280.28,339.71,280.89,348.12,280.34Z"/><path class="cls-12" d="M144.07,300.35c-.25,8,6.08,11.56,11.19,15.33,11,8.14,23.72,13,36.85,16.66q0,1,0,2c-5.23-.3-11.58,2.06-15.45-1.17-6.92-5.78-16.21-5.19-22.77-9.62-9.73-6.58-18.36-5.14-27.79-1.21h0c-.61-.71-1.34-1.31-2-2h0c-.65-.67-1.32-1.34-2-2h0c-4.12-7.73-7.32-15.54-2.13-24.09C129.28,291.27,138.11,290.15,144.07,300.35Z"/><path class="cls-40" d="M32.39,156.58l1.69-2.27a4.88,4.88,0,0,0,2.32-3.72l1.71-2.25c1.54-.72,2.08-2.12,2.43-3.63.58-.73,1.15-1.46,1.72-2.2l1.79-.31c3.71,3.79,2.62,8.42,2.27,12.92-.67,17.34-2.59,34.64-2.8,52-.11,9.49,3,18.83,4.63,28.23.67,5.51,3.71,10.54,3.42,16.26-1.33,4.15-3.41,2.82-5.9,1-6.41-4.71-9.43-11.88-13.53-18.27-2.13-9.89-4.49-19.75-4-30,0-2.67,0-5.33,0-8-1.66-2-1.72-4,.05-6,3.05-8.08,3.37-16.14-.19-24.17.18-1.18.37-2.36.56-3.54A9.61,9.61,0,0,0,32.39,156.58Z"/><path class="cls-41" d="M32.14,234.32c7.33,4,9.46,12.67,15.72,17.67.85.68,1.33,1.29,2.26.34,1.42-.79,2.43,0,3.43.87a13.31,13.31,0,0,0,5.38,3.4,13.63,13.63,0,0,1,2.41,1.22c3.44,3,7.66,5.14,10.46,8.91,2.82,8.48,9.49,12.06,17.51,14.34,5,1.41,10.53,1.46,14.7,5.23l-5.94,8c-2.1,2-1.28,6.58-5.79,6.34-.32-5.23-5.49-4.13-8.19-6.25-20.59-2.55-34.59-14.59-44.4-31.89-3.42-6-8.69-12-5.63-20.08C32.79,239.85,31.77,237.25,32.14,234.32Z"/><path class="cls-42" d="M34.06,242.39c6.88,26.76,24.13,43.52,50,52a4,4,0,0,1-4.33,1.83c-8.36-2.17-17.12-4-23.89-9.5-10.39-8.46-19.11-18.52-24.16-31.26C29.79,250.6,28.21,245.82,34.06,242.39Z"/><path class="cls-8" d="M92.28,300.61c2.33-1.75,2.74-5.25,5.79-6.34,4.88,6.14,14.77,5.79,19.34-.73,2.18-3.12,2.64-7.5,6.76-9.2a3.62,3.62,0,0,1,1.15,3.4,25.64,25.64,0,0,1-1.59,4.74,4.74,4.74,0,0,1-1.61,1.86c-3.65,4.8-2.23,10.13-1.16,15.18a41.26,41.26,0,0,1,1.16,8.81c-6.69-2.9-6.91-10.76-11.89-15.7-4.51,3.06-9.9,4.26-14.07,8.21-2.76,2.6-5.45,1.68-6.08-2.55Q91.19,304.45,92.28,300.61Z"/><path class="cls-26" d="M134.11,86.34c14.7-9.65,28.95-20.09,45.81-25.95,3-1.06,5.89-3.4,9.74-.28-2.34,4.18-4.71,8.45-7.13,12.69A236.34,236.34,0,0,0,154,152a20.43,20.43,0,0,1-1.15,4.82c-1.87,4.35,1.3,10.07-2.46,13.38-4.23,3.72-10.51,3.52-15.71,5.61-3.34,1.34-7.06,1.74-10.61,2.56-5.08-6.35.33-13-.56-19.44,3.77-12.31,8.1-24.48,10.65-37.15,2-8.55,1.6-17.12.33-25.7C134.05,92.83,132.46,89.66,134.11,86.34Z"/><path class="cls-43" d="M126.11,158.34c1,6.83-3,13.17-2,20-5.5,7.93-5.47,17.54-7.54,26.42-1.79,7.7-4.46,14.39-10.48,19.57-5.26-.51-5.52-5.08-6.45-8.6-3.13-11.76-5-23.74-4.38-36-.27-22.2,4.52-43.59,10.88-64.69,1.77-5.88.19-6.63-4.71-3.86a5.35,5.35,0,0,1-2.86-.22c-2.77-6.07,2.09-10.5,3.43-15.68,1-3.81,3.34-7.18,3.79-11.19.1-.59.21-1.18.34-1.77a41.35,41.35,0,0,0,12-8l2.32-1.61,7.49-3c-1.62,7-5.14,13.29-8.3,19.68-1.72,3.48-3.93,6.8-3.5,11h0c3.85-4.29,5.74-10.07,10.6-13.62,2.51-1.84,4.75-3.65,7.4-.38,5.27,11.74,5.62,23.76,2,36-3.1-2.88-2.15-6.74-2.54-10.3-.23-2.16.88-5.24-2-6-2.6-.66-3.86,2.13-5.35,3.83-5.15,5.89-8.65,12.59-9.68,20.43-2,15.41-4.8,30.69-8.45,47.16,5.75-1.81,6.27-6.17,8.38-9.13C119.16,164.55,119.73,158.62,126.11,158.34Z"/><path class="cls-44" d="M198.1,56.33c6.6,1,10.47-2.27,13.15-8,.85-1.8.78-5.75,4.87-4l0,2c-.72.6-1.31,1.34-2,2l0,2c-.72.62-1.31,1.35-2,2-.84,1.94-2.13,3.73-2,6-.75.58-1.27,1.38-2,2,0,.67,0,1.33,0,2-.75.58-1.27,1.38-2,2,0,.67,0,1.33,0,2-.75.58-1.27,1.38-2,2,0,.67,0,1.33,0,2-.75.58-1.27,1.38-2,2,0,.67,0,1.33,0,2-.75.58-1.27,1.38-2,2,0,.67,0,1.33,0,2-.76.58-1.28,1.38-2,2,0,.66,0,1.33,0,2-.76.58-1.28,1.38-2,2,0,1.33,0,2.66,0,4-.74.59-1.27,1.39-2,2,0,.67,0,1.33,0,2-.75.58-1.27,1.38-2,2,0,.66,0,1.33,0,2-.76.58-1.28,1.38-2,2,0,1.33,0,2.66,0,4-1.41,11.9-3.64,23.56-10,34-.71.63-1.3,1.36-2,2-2.31,9.93-5.4,19.7-6,30a10,10,0,0,1-8,4.94c-3.43.38-6-.61-4-4.93-.38-9.74,2.24-19.18,4.7-28.29,7.54-27.87,16.85-55.2,30.87-80.65A22.13,22.13,0,0,1,198.1,56.33Z"/><path class="cls-45" d="M160.13,232.37c-7.22,9-14.58,17.81-25.83,22.08-11.13,1-18.2-4.51-18.2-14.1,5.82-7.91,14.92-11.8,22.14-18,2.23-1.92,5.1-3.11,7.41-5,5.56-4.44,9.84-8.61,7.12-17.5-2.14-7-.52-15.13-.62-22.76-.06-4.19,2.62-4.84,5.93-4.75a5.51,5.51,0,0,1,1.42,4.5c-1,4.83-.66,9.73-.65,14.61-.49,10.25,1.68,20.28,2.53,30.41C161.69,225.49,162.43,229.1,160.13,232.37Z"/><path class="cls-46" d="M98.16,110.34h2c3.32,4.1.89,8.19-.19,12.17-4.13,15.29-7.72,30.6-5.08,46.63.54,3.3,1.3,6.43,3.25,9.19-.74,12.27,1.21,24.25,4,36.12.82,3.47,1.3,7.12,4,9.88a56.11,56.11,0,0,0,6,16c-2.1,6.64-7,4-11.36,3.5-5.4-3.14-7.1-8.75-9.35-14-13.17-33.79-9.16-67.78-1-101.74C92,121.84,92.07,114.72,98.16,110.34Z"/><path class="cls-41" d="M100.12,242.32c4-.58,8.49,1.64,12-2h4c2.56,9.22,10.41,11.61,18.2,14.1a86.63,86.63,0,0,1-12,12.25C113.68,259.72,103.41,254.19,100.12,242.32Z"/><path class="cls-47" d="M158.08,176.32v-3.95c.08-1.64.4-3.16,2-4,.36,2.08.8,4.09,3.68,3.06s5.2-3,8.32-3.07l0,0c3.61,10.58-.7,20.26-3.41,30.13-8.21,3.3-10.83-1.19-11.56-8.3C157.59,185.58,156.11,180.84,158.08,176.32Z"/><path class="cls-19" d="M208.54,30.51c-.21.57-.42,1.15-.61,1.74l-3.81.06C205.11,30.53,206.76,30.36,208.54,30.51Z"/><path class="cls-19" d="M188.1,38.31c1-1.75,2.59-2,4.35-1.84A4.82,4.82,0,0,1,188.1,38.31Z"/><path class="cls-19" d="M184.19,40.06c.91-1.45,2.35-1.7,3.89-1.74A4,4,0,0,1,184.19,40.06Z"/><path class="cls-19" d="M178.11,42.35v-2l4.33.13A4.82,4.82,0,0,1,178.11,42.35Z"/><path class="cls-19" d="M164.17,48.62c.79-2,2.46-2.24,4.29-2.15A5.52,5.52,0,0,1,164.17,48.62Z"/><path class="cls-19" d="M170.18,46l2.16-1.57A2,2,0,0,1,170.18,46Z"/><path class="cls-48" d="M670.05,88.39c0,.65.05,1.3,0,2-2.23,2.51-5.28,2.61-8.25,2.66-21.62.36-41.8,6.71-61.63,14.62-4.51,1.8-8.87,4.53-14.09,2.73-6,3.43-12.79,5.27-18,10l-20,0a1.25,1.25,0,0,1-.44-1.32c.15-.43.31-.65.46-.65,5.76-3.23,11.69-6.19,17.23-9.75,9.24-5.92,19.14-10.35,29.23-14.52,12.2-5,24.42-10,37.39-12.62,6.43-1.3,12.95-2.17,19.46-3.08,2-.29,3.88-.68,5.07-2.55l11.61,10.51Z"/><path class="cls-3" d="M552.11,128.35c-.87,1.61-2.37,2-4,2a260.39,260.39,0,0,1-29.41,17.5c-6.17,3.11-13.61,5.46-20.57.52,0-.68,0-1.36,0-2,.18-7.58,1.69-14.63,8-19.75,8-.4,15.73-2.86,23.78-2.39,3.24,0,6.52.42,9.72.07C544.48,123.73,548.42,125.49,552.11,128.35Z"/><path class="cls-10" d="M542.42,120.47c-2.37,2.4-5.37,1.78-8.26,1.73C536.45,119.39,539.57,120.58,542.42,120.47Z"/><path class="cls-10" d="M548.13,118.34c0,.66,0,1.31,0,2l-2,0Z"/><path class="cls-8" d="M122.12,318.33l2,2Z"/><path class="cls-8" d="M124.12,320.33l2,2Z"/><path class="cls-15" d="M586.12,110.35c6.32-1,11.6-4.71,17.43-7,21.45-8.38,43.26-14.27,66.54-13,.55.14,1.1.26,1.66.37a5.16,5.16,0,0,0,2.4,3.59l1.78,2.19a10.19,10.19,0,0,0,3.81,6.14c.22,1.2.45,2.4.67,3.6-5,1.79-10,3.38-14.88,5.42-5.3,2.23-10.14,5.76-16.48,2.86-1.89-.87-4.33.29-6.58,1.3-7.81,3.51-15.74,6.72-23.86.27-4-3.19-9.36-2.6-13.45-1.43C597.61,116.79,591.8,114.71,586.12,110.35Z"/><path class="cls-48" d="M592.05,124.19c-2.87.1-5.86.73-8.22-1.68C586.68,122.55,589.76,121.41,592.05,124.19Z"/><path class="cls-48" d="M578.06,122.24c-2.84,0-5.83.75-8.1-1.8C572.76,120.57,575.85,119.42,578.06,122.24Z"/><path class="cls-25" d="M566.1,42.33C561.63,52.46,553,59.17,545.05,66c-16.77,14.37-36.52,24-57,32-1.18.46-2.63.24-4,.33C490.87,88.62,501,82.7,510,75.49a251.69,251.69,0,0,1,49.59-30.9C561.67,43.6,563.67,42.32,566.1,42.33Z"/><path class="cls-49" d="M642.11,142.31c-12.18-.66-24.13-3.05-36.13-5-13.3-2.21-26.56-4.63-39.84-7-.67-.4-.9-.83-.7-1.26s.41-.67.63-.67a293.61,293.61,0,0,1,49.52,2.16C625.38,131.8,635.05,134.39,642.11,142.31Z"/><path class="cls-3" d="M566.07,128.38c0,.64,0,1.29.07,1.93-1.64,0-3.12-.33-4-1.88Z"/><path class="cls-19" d="M503.67,6.5c2.88.08,6-1.12,8.37,1.66C509.1,8.35,506.16,8.56,503.67,6.5Z"/><path class="cls-19" d="M491.62,4.53c2.91,0,6.06-1.15,8.43,1.64l-7.71,0Z"/><path class="cls-5" d="M28.14,190.38c0,2,0,4-.05,6-2,.62-3.81,1.4-4-2-.39-6.07,3-11.5,2.07-17.61l2,0Z"/><path class="cls-50" d="M98.16,110.34a232,232,0,0,0-11.69,55.27c-1.77,21.17-1.37,42.58,7.34,62.75a7.45,7.45,0,0,1,.31,2c-3.51,1.67-2.67,3.93-.9,6.37,2.14,3,3.9,6.16,6.11,9.05,2,2.64,2.94,5.8.45,8.14A76.69,76.69,0,0,1,77,269.31c-2.77,1.16-5-1.05-6.88-3-3.94-1.91-8-3.63-10-8,5.65-4.25,2.62-9.65,1.84-14.66-2-13.19-2.11-13.21,11-15,4.4-.61,7.87-1.64,6.36-7.46-8.5-32.77-3.51-64.51,7.44-95.79a21.62,21.62,0,0,0,1.13-4.29c-8.38,8.62-16.25,16.06-23.62,24-2.81,3.05-5,8.6-9.89,6.82s-8.85-5.76-8.45-12C56.27,124.83,70,112.9,83.46,100.72c3.66-3.32,7.43-6.53,11.15-9.78,1.47-.46,2.83-1.06,3.52-2.58a2.68,2.68,0,0,0,2.22-1.74l5.44-2.5c2.24,1.36,1.8,3.12,1,5.13C103.84,96.26,101,103.31,98.16,110.34Z"/><path class="cls-51" d="M45.91,140l9.76,11.85C66.13,137.9,78.85,127.07,90.39,115l1.66,1.2c-3,10.07-5.78,20.2-9,30.19-6.53,20.06-5.15,40.74-4.64,61.26.14,5.76,3.12,11.46,4.92,17.15,1,3.28.15,5.13-3.44,5.44-5.42.47-10.67,3.59-17.51-1.75,1.94,12.17,3.43,21.43,4.89,30.59-2.85,1.14-4.82-1.07-7.14-.78h-2c-1.86-1.53-4.08-2.52-6-4l-2-2c-.68-5.49-4.28-10.26-4-16,1-2.62-.14-5.23,0-7.86.22-5.55.23-11,8.24-6.48,3.59,2,5,.17,5-3.2-.19-17.17,3.63-34.45-1.72-51.51-1.44-4.62-2.06-8.3-8.43-6-3.39,1.23-6.92.33-5.08-4.94q0-7.08-.05-14.15c0-.62,0-1.24.05-1.87C44.71,140.23,45.31,140.11,45.91,140Z"/><path class="cls-52" d="M378.13,176.36c0,.66,0,1.31,0,2-1.46.23-3.4,1.66-3.85-1.06a27.14,27.14,0,0,1-.11-6c.52-8.44-.43-16.57-4.56-24.13-2.14-3.93-1.61-7,3-8.67,6.87-2.48,13.64-5.22,20.58-7.45a14.49,14.49,0,0,1,13.39,1.79c-1.51,3.14-4.91,3.25-7.23,4.93-2,1.44-6.82,2-1.09,5.36,1.83,1.08-.72,2.9-1.86,3.68a107.31,107.31,0,0,0-8.59,6.73C380.61,159.58,377.35,167.06,378.13,176.36Z"/><path class="cls-53" d="M498.12,148.37c12,.68,22.62-2.07,31.88-10.46,4.87-4.41,11.54-6.26,18.1-7.56.4,2.73-.82,5.18-1.51,8.43,12.25-5.61,22.89-1.32,32.19,5.63s17.05,15.39,12.43,28.34c2.66,2.32,4.8,1.1,7,.58,11.59-2.7,23.39-4,35.21-4.94a38.81,38.81,0,0,1,16.65,2c-3.48,5.34-7.63,9.82-14.21,10.78-.54,11.58,3.64,20.24,14.22,25.21,2.4,5.4,1.49,9.59-4.26,12.21a6.77,6.77,0,0,0-2.93,2.59c-5.37,9.57-13.6,10.78-23.15,8-3.21-.93-5.26-.37-5.6,3.27a9.53,9.53,0,0,1-2.48,5.31c-4.49,5.39-7.18,5.75-12.2.87-3.32-3.22-7.12-6.06-9.37-10.27,6.7-2,13.41-3.72,16.71-11,1.41-3.14,4-2.32,6.8-1.28,9.52,3.54,17.91-.38,21.43-9.67,1.92-5.06.35-7.41-5.32-6.69-3.3.42-4.66-.14-6-3.23-2.61-6.21-7.57-8.84-14.4-8.14-6.57.67-13.33-1.14-19.78,1.3-3.21,1.2-4.8-.55-6.5-2.92-4.66-6.52-11.09-8.67-19.08-8.5s-16,.43-23.55,3.11c-5.81,2.05-10.41,1-14.19-3.79-4.11-5.2-8.72-6.29-14.82-3s-13.31,4.19-19.35,7.84C494.53,171.09,494.39,159.39,498.12,148.37Z"/><path class="cls-53" d="M264.1,188.33c20.79-2.2,41.93-1.42,64-8.75-4.15,10.77.41,17.15,6.95,22.76a7.9,7.9,0,0,1,3.12,6c-2.5,2.79-5.92,2.81-9.22,2.82-38.51.15-75.94,7.15-112.79,17.84-2.56.75-5.12,1.45-7.82.89-4.52-1.87-2.72-4.56-.5-6.67a53.73,53.73,0,0,1,8.28-6.82h0c1.9-1.49,4.14-2.47,6-4.06C234.78,202,248.32,193.2,264.1,188.33Z"/><path class="cls-45" d="M228.29,186.67c-17,14.49-34.94,27.59-55.91,35.92-9.15-4.72-6.48-12.93-6.09-20.48,2.68-4.91,7.6-7.19,12-10.19,16.72-11.5,34.2-21.77,51.57-32.23,1.71-1,3.35-2.36,5.23-.3C238,169.78,232.69,178.11,228.29,186.67Z"/><path class="cls-5" d="M70.1,266.34c4.23,1.38,8,1.44,11.81-1.78a80.31,80.31,0,0,1,14-9.42c3.58-1.93,5-4.71,1.45-8.82-4.21-4.93-7.51-10.64-11.09-15.85,3.33-3.39,5.55-.9,7.9-.14l6,12c5.51,7.41,12.31,13.58,19.24,19.58a7.55,7.55,0,0,1,3,4.8c-4,8.55-10.7,14.49-18.32,19.6-7.06.32-13.49-2.4-20-4.31C76.21,279.73,70.62,275.19,70.1,266.34Z"/><path class="cls-38" d="M216.12,216.36l-10,12c-5.26,8.24-13.42,13.6-20.46,20a155.51,155.51,0,0,0-14.17,13.95c-6.24,6-13.37,9.73-22.32,8.95l-1.14-.93c3-9.47,10.78-14.95,18-20.37,14.82-11.1,30.31-21.31,45.5-31.92A8.37,8.37,0,0,1,216.12,216.36Z"/><path class="cls-3" d="M124.11,288.34l.06-4c7.12-6.09,13.77-13,23.85-14.06l.12.08c1.2,6.4-2.51,12.46-1.31,18.86-.07,3.91.4,7.95-2.69,11.11l-.07,0c-6.37-5.45-14.11-5.9-21.95-6,0-.66,0-1.31,0-2C123.38,291.32,122.88,289.41,124.11,288.34Z"/><path class="cls-54" d="M168.13,200.34c0,7.69-.57,15.48,4.24,22.25l-12.25,9.78c-2-13.94-4.68-27.82-4-42,.66-.9,1.32-.94,2,0,.84,5.8,4.36,8.22,10,8,.62.44.83.89.63,1.34S168.33,200.34,168.13,200.34Z"/><path class="cls-54" d="M228.28,186.67c-.5-5.1,2-9.44,3.53-14s2.79-9.33,2.31-14.3l1-.78a19,19,0,0,1,2.48-.59c4.15-1,7.76-4.59,12.52-2.62-1,7-4.91,12.91-6.87,19.55-1,3.29.42,4.19,3.12,4.59Z"/><path class="cls-38" d="M222.09,212.3a6,6,0,0,1-6,4.06A6.08,6.08,0,0,1,222.09,212.3Z"/><path class="cls-24" d="M168.13,200.34l0-2c-.42-10.23,2.83-20,4-30l2-2c9.22-2.81,17.59-7.42,25.64-12.59,13.87-8.9,27.68-17.88,42.37-25.41,2,11.25-4,20.36-8,30h0c-2.5,1.64-3.33,4.77-6.28,6.21-18,8.72-34.25,20.25-50.84,31.25C174.25,197.62,171.09,198.84,168.13,200.34Z"/><path class="cls-45" d="M234.11,158.35c-.53-7.12,3.15-13.2,4.91-19.74.93-3.45,2.06-6.84,3.1-10.25l2-2c2.25.1,4-1.17,6-2,2.89,3.74.14,6.89-1.36,9.91-3,6.17-5.72,12.48-8.39,18.8a15.75,15.75,0,0,1-2.25,3.45,12.79,12.79,0,0,1-2,1.83Z"/><path class="cls-23" d="M170.11,260.34c11-11.73,22.76-22.73,36-32,8.41-.3,15.73-4.61,23.78-6.43a652.17,652.17,0,0,1,67.81-12c13.57-1.6,27-.84,40.48-1.6l3.93,2c9.69,13.83,8.13,29.66,8,45.23,0,3.94-1.23,6.57-6,5a16.24,16.24,0,0,0-4-.29c-8.62,3.77-14-1.56-16.51-8s-6.31-7.38-12.12-7.38c-7.94,0-16-.08-22.86-5.18-8.2-2.17-14.09-6.14-11.88-17.44-5.74,8.08-4.39,15.45-2.62,22.78,3.32,13.67.56,21.38-10.68,29-4.79,3.23-9.67,2.59-13.88-.76-6-4.75-8.68-2-10.82,3.74a67.71,67.71,0,0,1-6.63,13.34h0c-.69.65-1.35,1.32-2,2h0c-7.81-.6-9.29-5.63-9.17-12.16-2.43,1.24-5.11,3.21-8.07,4.69-11.65,5.82-14.91,5-20.87-6.93-2.48-5-6.77-4.47-10.7-5.84C175.68,270.14,168.13,269.65,170.11,260.34Z"/><path class="cls-55" d="M170.11,260.34c1.53,8.72,8.83,9.4,15.22,9.74,6,.33,8.54,1.51,9.37,8.18,1,8,5.56,9.61,13,6.22,4.51-2.05,8.85-4.44,13.53-6.81,1.55,5.79,2.79,11.74,8.86,14.66v2c-5,3.27-9,8.66-16,8-3.47.21-6.77-.52-9.17-3.08a34.67,34.67,0,0,0-17.89-10.15c-2.92-.69-6-2.62-6.85-5.42-2.88-9.4-7.72-5.55-13.53-3.18-7.34,3-13.22,10.62-22.57,7.83-.66-6.45.42-12.51,4-18C156.05,268.31,164.46,267.34,170.11,260.34Z"/><path class="cls-55" d="M232.1,290.34c2.34-8.62,4.78-17.2,10-25.08,3.93.67,5.46,4,8,5.84,6.63,4.66,9.55,4.25,14.25-2.47a13,13,0,0,1,3.65-3.22c6.64-4.7,7.73-7,5.05-14.92A58.83,58.83,0,0,1,270,231c0-6.32,2.83-9.81,8.88-11.37-1.62,12.5-1.45,12.83,9.22,18.76.61.45.81.89.61,1.33s-.41.67-.61.67c-8,4.95-11.19,13.16-11.65,21.49-.47,8.65-4.13,12.76-11.86,14.45a8.69,8.69,0,0,0-4.33,2c-7.14,6.47-7.2,6.41-13.28-.41-.84-.94-1.21-2.4-3.56-2.55C239.16,279.52,237.91,286.77,232.1,290.34Z"/><path class="cls-53" d="M288.11,240.34v-2c11.53,5,23.87,3.72,36.31,4.18,1.8,3.89-1.74,8.54,2.56,11.9,4,3.13,7.73,6.17,13.12,5.91-3,4.68-5.64,9.69-9.15,14-4.25,5.19-6.54,4.81-8.63-1.43-1.13-3.37-2.17-4.19-5.46-3.17-3.6,1.12-4.47-1.22-4.76-4.31-.41-4.48,1.55-8.37,2.76-12.43.91-3.05-.07-4.46-3.06-4.54-4.28-.12-8.61.25-12.85-.19C294,247.71,288.91,246.81,288.11,240.34Z"/><path class="cls-55" d="M230.1,292.33l2-2Z"/><path class="cls-37" d="M180.11,136.34c2.16-11.68,4.88-23.19,10-34,3.26,2.27,4.14-1.11,5.11-2.62,4.45-7,9.24-13.68,12.91-21.17a87.58,87.58,0,0,1,15.61-22.84c.93-1,1.86-1.9,2.84-2.79,2.22-2,5-4.7,7.69-3.39,3.5,1.75,2.15,6,1.39,9-3.28,13-9.61,24.69-15.91,36.33a124.19,124.19,0,0,1-26.39,33.27C189.43,131.63,185.51,135.17,180.11,136.34Z"/><path class="cls-37" d="M194.11,90.34l2-2Z"/><path class="cls-37" d="M192.12,94.35l2-2Z"/><path class="cls-37" d="M190.13,98.35l2-2Z"/><path class="cls-37" d="M178.12,138.35l2-2Z"/><path class="cls-37" d="M214.12,48.34c.66-.67,1.31-1.34,2-2C215.43,47,214.78,47.67,214.12,48.34Z"/><path class="cls-37" d="M212.12,52.34l2-2Z"/><path class="cls-37" d="M208.12,60.34l2-2Z"/><path class="cls-37" d="M206.12,64.34l2-2Z"/><path class="cls-37" d="M204.12,68.34l2-2Z"/><path class="cls-37" d="M202.12,72.34l2-2Z"/><path class="cls-37" d="M200.12,76.34l2-2Z"/><path class="cls-37" d="M198.12,80.35l2-2Z"/><path class="cls-37" d="M196.12,84.35l2-2Z"/><path class="cls-56" d="M238.08,154.32c1.33-7.2,4.85-13.52,8-20,1.56-3.22,3.83-6.18,4-10l2-2c5.49-.64,10.25-4.22,16-4l2,0c-6.66,11-14.3,21.44-18,34l-2,2c-4.65,1.37-8.69,4.93-14,4l0-2C236.87,155.75,237.39,155,238.08,154.32Z"/><path class="cls-16" d="M450.12,32.33l2-2Z"/><path class="cls-27" d="M144.1,288.35c10-2.91,18.75-8.51,27.89-13.21,6.55-3.36,6.78-3.68,8,3.15,1.11,6,5.36,9.14,10.17,9.46,6.47.43,10.62,3.59,14.18,8,2.65,3.3,6.81,3.92,9.72,6.58-7.58,5.92-16.43,6.69-25.46,5.65-3.52-.41-7.23-2-8.38-6.13s-3.71-2.79-6.09-1.48a17.61,17.61,0,0,0-4,2.93c-3.54,3.63-7.6,3.6-12,2.05l-14.06-5Q144.13,294.34,144.1,288.35Z"/><path class="cls-57" d="M44.1,156.35c.26,2.82,1.66,4.6,4.54,3.42,2.07-.85,3.77-2.59,6-4.22,3.72,3,5.79,6.65,5.52,11.66a19.71,19.71,0,0,0,.82,4.86c2,9.33,4,18.37,1.51,28.28-1.76,6.86-.36,14.52-.44,21.82,0,1.92.42,4.16-1.71,5.32-2.62,1.44-4.33-.47-6.07-2-1.46-1.28-2.9-2.57-4.73-4.2-3.46,4.88.89,11-3.45,15C44.25,223.85,39,212,41.62,198.63c1.31-6.74-.08-14.28.48-21.45.23-2.94-.82-6.22,1.3-8.66,2.39-2.75,1-4.68-.5-7C41.68,159.59,42.16,157.71,44.1,156.35Z"/><path class="cls-50" d="M52.13,254.35a6,6,0,0,1,6,4A6,6,0,0,1,52.13,254.35Z"/><path class="cls-12" d="M124.11,288.34c0,1.66-.39,3.14-2,4C122.14,290.71,122.48,289.21,124.11,288.34Z"/><path class="cls-58" d="M126.11,158.34c-3.78,3.82-6.31,8.44-8.61,13.23a38.55,38.55,0,0,1-3.79,7c-1.59,2.05-3.87,4.05-6.78,2.78-3.13-1.37-1-4-.92-6.13.14-6.71,3.14-12.82,4.08-19.36,1.31-9.13,2.57-18.27,4.09-27.36,2.17-13,9.94-23.44,21-27.62,2,7.19.46,14.42,1,21.47C135,135,130.27,146.57,126.11,158.34Z"/><path class="cls-59" d="M98.1,178.33c-8.38-5.33-7.17-13.85-7-21.84.32-15.89,5.62-30.84,9-46.15a56.73,56.73,0,0,1,3.86-4.45,4.93,4.93,0,0,1,6.39-.73c2.19,1.52.48,3.65-.12,5.37-5.69,16.23-8.76,33.09-11.68,49.95C97.56,166.28,98.21,172.37,98.1,178.33Z"/><path class="cls-6" d="M116.11,100.34c-.16.28-.37.81-.45.79-.67-.15-.51-.46.45-.79Z"/><path class="cls-6" d="M158.09,190.34l-2,0c.72-4.67-1.74-9.79,2-14Z"/><path class="cls-54" d="M238.08,154.32l-2,2Z"/></g></g></svg>