<svg xmlns="http://www.w3.org/2000/svg" viewBox="0 0 650.22 470.33"><defs><style>.cls-1{fill:#d4d1cc;}.cls-2{fill:#e6e3de;}.cls-3{fill:#bfbcb8;}.cls-4{fill:#c9c6c2;}.cls-5{fill:#dcdad5;}.cls-6{fill:#e3e1dc;}.cls-7{fill:#dfdcd7;}.cls-8{fill:#ccc9c6;}.cls-9{fill:#fdfdfd;}.cls-10{fill:#dedbd6;}.cls-11{fill:#42494a;}.cls-12{fill:#464e4f;}.cls-13{fill:#e2d9c7;}.cls-14{fill:#404749;}.cls-15{fill:#e5e1da;}.cls-16{fill:#e5e1db;}.cls-17{fill:#5d6264;}.cls-18{fill:#3c4344;}.cls-19{fill:#e2d8c4;}.cls-20{fill:#e5e2dd;}.cls-21{fill:#4e5557;}.cls-22{fill:#5b6162;}.cls-23{fill:#494f51;}.cls-24{fill:#e4dac6;}.cls-25{fill:#4a5052;}.cls-26{fill:#414748;}.cls-27{fill:#3d4445;}.cls-28{fill:#515758;}.cls-29{fill:#606566;}.cls-30{fill:#626769;}.cls-31{fill:#606567;}.cls-32{fill:#4f5556;}.cls-33{fill:#616769;}.cls-34{fill:#4d5455;}.cls-35{fill:#3f4547;}.cls-36{fill:#404748;}.cls-37{fill:#676c6d;}.cls-38{fill:#666a6b;}.cls-39{fill:#373e40;}.cls-40{fill:#5e6365;}.cls-41{fill:#f8f2e4;}.cls-42{fill:#f7f1e4;}.cls-43{fill:#f7efdd;}.cls-44{fill:#495152;}.cls-45{fill:#f7eeda;}.cls-46{fill:#444b4d;}.cls-47{fill:#f9f4ed;}.cls-48{fill:#f9f4ec;}.cls-49{fill:#f6ecd7;}.cls-50{fill:#464e50;}.cls-51{fill:#f9f5ee;}.cls-52{fill:#5f6667;}.cls-53{fill:#474f50;}.cls-54{fill:#656b6c;}.cls-55{fill:#f7ecd5;}.cls-56{fill:#444c4d;}.cls-57{fill:#f6ebd4;}.cls-58{fill:#646a6c;}.cls-59{fill:#f9f6f0;}.cls-60{fill:#4f5658;}.cls-61{fill:#f9f6f2;}.cls-62{fill:#656b6d;}.cls-63{fill:#414849;}.cls-64{fill:#f6ecd6;}.cls-65{fill:#686e70;}.cls-66{fill:#585e60;}.cls-67{fill:#696f71;}.cls-68{fill:#5b6163;}.cls-69{fill:#3e4648;}.cls-70{fill:#595f61;}.cls-71{fill:#6b7173;}.cls-72{fill:#cdc7bb;}.cls-73{fill:#444a4c;}.cls-74{fill:#cbc5b9;}.cls-75{fill:#3b4142;}.cls-76{fill:#3c4243;}.cls-77{fill:#cec6b6;}.cls-78{fill:#393f41;}.cls-79{fill:#f8f5ef;}.cls-80{fill:#54595a;}.cls-81{fill:#545a5b;}.cls-82{fill:#525759;}.cls-83{fill:#484e4f;}.cls-84{fill:#5c6162;}.cls-85{fill:#363c3d;}.cls-86{fill:#5b6061;}.cls-87{fill:#d8d2c5;}.cls-88{fill:#42484a;}.cls-89{fill:#d7cfbf;}.cls-90{fill:#3e4546;}.cls-91{fill:#d8d0bf;}.cls-92{fill:#d9d6d3;}.cls-93{fill:#565c5d;}.cls-94{fill:#d9d6d2;}.cls-95{fill:#d8d6d1;}.cls-96{fill:#595f60;}.cls-97{fill:#eae8e3;}.cls-98{fill:#f2efea;}.cls-99{fill:#f1ece3;}.cls-100{fill:#f1ece5;}.cls-101{fill:#f0e6d2;}.cls-102{fill:#eee4ce;}.cls-103{fill:#f1eee9;}.cls-104{fill:#eee4cd;}.cls-105{fill:#676c6e;}.cls-106{fill:#f78a8b;}.cls-107{fill:#ffde84;}.cls-108{fill:#c1da7c;}.cls-109{fill:#f7999a;}.cls-110{fill:#474137;}.cls-111{fill:#f78b8c;}.cls-112{fill:#f79899;}.cls-113{fill:#e8c878;}.cls-114{fill:#f6999a;}.cls-115{fill:#f68b8c;}.cls-116{fill:#f59899;}.cls-117{fill:#534f46;}.cls-118{fill:#f69a9b;}.cls-119{fill:#59614c;}.cls-120{fill:#d0c49d;}.cls-121{fill:#95746f;}.cls-122{fill:#5c534b;}.cls-123{fill:#776d65;}.cls-124{fill:#d6c8a0;}.cls-125{fill:#9d6b67;}.cls-126{fill:#dd3f36;}.cls-127{fill:#afc470;}.cls-128{fill:#c93931;}.cls-129{fill:#f68a8b;}.cls-130{fill:#f58b8c;}.cls-131{fill:#f69898;}.cls-132{fill:#f48a8b;}</style></defs><g id="Слой_2" data-name="Слой 2"><g id="Слой_1-2" data-name="Слой 1"><path class="cls-1" d="M280.1,458.05a10.37,10.37,0,0,0-1.93-.1c-1.65-1.82-4.4-.19-6.08-1.93h-2c-.65.69-1.36,1.31-2.07,1.94l.06-.05a15.64,15.64,0,0,1-12,.09c-1-1.23-2.88-.8-4-1.91a7.43,7.43,0,0,0-1.82-.16,22.43,22.43,0,0,1-2.21-1.91h0c-1-1.24-2.92-.85-4-2.08l0,0c-.71-.62-1.34-1.32-2.07-1.92l0,0c-1-1.28-2.92-.86-3.91-2.14l0,.06a23,23,0,0,1-2.08-2l0,0c-.66-.64-1.33-1.27-2-1.88l-2-.07a75.07,75.07,0,0,1-26,0,8.8,8.8,0,0,0-1.85-.1c-1.15-1.14-3-.71-4.15-1.9l-.89-.11h-.89a18.43,18.43,0,0,1-2.21-1.84,7.65,7.65,0,0,0-1.79-.16,16.43,16.43,0,0,1-2.23-1.93h0c-1-1.21-3-.81-4-2.12l.05.06a14.52,14.52,0,0,1-2.08-2l0,0a7.73,7.73,0,0,0-8.12,0h-1l-1,.09a63.93,63.93,0,0,1-24,0,7.4,7.4,0,0,0-1.82-.11c-.77-.59-1.48-1.25-2.21-1.88l0,0c-1-1.29-2.91-.86-3.89-2.15l.05.06a12.3,12.3,0,0,1-2-2l0,0a13.12,13.12,0,0,1-2.05-2h0a3.17,3.17,0,0,0-4.28,0l-3.85.21c-1.14,1.09-3,.67-4.08,1.83H127l-.94.09a5,5,0,0,1-6,0l-.91-.09h-.93c-1.16-1.12-3-.74-4.13-2l0,.06c-.73-.61-1.38-1.31-2.09-1.94v0a20.16,20.16,0,0,0-2-1.92l-.07,0a2.12,2.12,0,0,1,.21-2.79c17.19-8.85,34.53-10.47,51.79-.42,6.82,4,13,4.13,19-1.26,3.85-1.1,7.71-1.55,11.62-.29,3.77,2.84,7.26,2,11-.34,7.45-4.62,15.23-4.4,22.83-.35,4.3,2.29,8.34,3.2,13.32,1.83,10.15-2.79,19,1.83,27.49,6.51,6.27,3.47,9.85,3.43,12.36-4.42,2.39-7.46,9.1-11.36,16.26-13.7,4.71-1.53,5.84-3.92,5.38-8.85-1.36-14.59,3.87-23.23,17.72-28.84,6.38-2.58,10.76-5.6,12-12.95.89-5.45,5.63-8.74,9.68-12.31,6.15-5.43,13.67-9.51,18-16.91-2.17-3.68-5.54-2.26-8.27-2.53a50,50,0,0,1-43.65-36.73c-.82-3.06-1.61-5.63-4.88-6.91-10.58-4.11-15.06-12.75-16.21-23.29-.91-8.33-3-14.06-13.21-14.66-8.73-.52-15.39-6-18.93-15.53-5.6,6.5-9.88,13.25-17.06,17.07-9.51,5.07-13.7-3.54-19.81-7.29-2.54-2.27-1.59-4.87-.69-7.45.29-.76.63-1.51,1-2.23.73-1.72,1.28-3.47.26-5.28-2.73-2.28-5.06-.21-7.49.66-.74.41-1.51.78-2.27,1.15-1.12.65-2.23,1.32-3.29,2.06-4.61,2.26-6.91,6.74-10,10.44-4.49-.33-7.73-3.16-11.18-5.59a11.33,11.33,0,0,1-2.45-3.6c-3.6-12.95-3.57-12.72-17.49-11.18-7.79.87-15.53,1.41-23-3.08-4.92-2.95-11.81.33-17-3.46-4-2.91-.78-8.58-4.45-11.6-2.53-1.95-5.42-1.52-8.27-1.27-5.61,0-8.62,6.75-14.65,5.56-4-11-11.3-15.15-23-12-4.12,1.12-8.53-.49-12-3.48-2-1.73-4-2.24-6.11-.27-6.9,6.21-13.66,12.82-24.23,8.43a7.57,7.57,0,0,1-2.3-3.81,13.61,13.61,0,0,0-4.47-7.35,29.1,29.1,0,0,1-7.71-19.05c-.15-5.27,2.11-8.37,8-7,5.19,1.22,11.48,1.53,14.94,5.17,8.8,9.26,19.67,9.13,30.56,8.16a80.75,80.75,0,0,1,31.4,2.93c7.56,2.3,15.72,2.66,23.68,3.44,7.68.76,15.13,2,21,8,3.35,3.41,8.08,4.48,12.6,5.72,10.89,3,21.92,5.15,32.23,10.38,8,4.08,16.57.13,24-3.21,8.43-3.77,16.29-4.61,25-1.66,9.93,3.34,20.43,2.44,30.73,2.87a9.85,9.85,0,0,1,5.6,1.83c.82,3.7,3.2,5.58,6.85,6.67,4.25,1.27,8.73,2.25,12.22,5.36,3.07,5,4.35,11,8.65,15.25,2.89,4.14,7.48,6.22,11.23,9.31.34,1.78-.66,3.05-1.63,4.33-2,2.63-4,5.46-1.78,8.72,2.52,3.61,6.08,2.74,9.5,1.33,3.9-2.87,6.05-7,8-11.24,1.21-3.77,1-6.48-4.11-5.84-1.94.24-3.86.12-5.32-1.51a9.39,9.39,0,0,1-1.2-5.86,7.12,7.12,0,0,1,2-4.24c.94-.31,2-.76,2.87-.41a74.27,74.27,0,0,0,41.28,3.41c6,3.19,12.69,2.53,19.14,3.15,12.28,2.69,25.2,2.27,36.91,7.91,5.14,2.47,10.19,5,14.43,8.79,7.24,6.46,6.64,12.29-1.61,17.64-4.5,2.91-9.68,4.25-14.86,6.23,3.18,2.66,6.94,4.2,9.13,7.58,2.54,3.91,3.73,8,.49,12s-7.06,4.5-11.56,2.06c-1.85-1-3.78-3.78-6.09-1.47-1.85,1.86-.48,4.42.14,6.62a23,23,0,0,0,8.31,12.16c4.21,3.29,5.23,6.66.58,10.5-8.12,6.71-7.63,14.8-3.61,23.44,2.35,5.05,5.74,9.94,2,16.5,5.13-2.85,9.16-6.31,14.46-3.17a7.1,7.1,0,0,1,1.69,2.37c1.18,3.76.14,7.24-1.56,10.54-2.88,5.58-8.3,10.18-3.93,17.85,1.46,2.55-2.49,5.83-4.89,8.07-7.86,7.33-13.45,15.37-11.42,27,1,5.45-2.77,7.86-7.81,7.92-6.3.09-12.55.79-18.83,1.1-3.59-.66-6.73-3-10.52-2.87-6.94-.46-11,4.26-15.36,8.49a18.88,18.88,0,0,1-3.27,2.5c-11.4,4.13-21.71,10.32-31.75,17a5.45,5.45,0,0,1-2.75,0c-10.1-5.29-18.56.38-27.31,4.09-1.42.35-2.82.49-4.05-.54l-3.88-.16C284.53,458.19,281.83,459.72,280.1,458.05Z"/><path class="cls-2" d="M29.92,193.93C40.31,196.28,47.15,190,54.09,184c6.26.51,9.78,3.7,9.94,10.17-4.71,3.69-11.81,1.66-16,6.69-1.65,2-4.34,3.8-2.8,6.69,1.25,2.34,4,1.65,6.28,1.41,10.19-1.07,12-3.1,12.22-13.86,0-1,.92-1.67,1.81-2.18,3.9-.91,7.78.31,11.69,0,13.69-1,13.69-.93,19.22,11.81,4.35,8.59,12.25,2.9,18.34,4.52,15.76-1,29.91,7.55,45.38,7.66,9.42.07,16.76,3.08,21.9,11.05l2,2c7.7,11.17,16.87,18,31.83,14.62,6.08-1.39,13.2-.14,19.55,1.45a9.15,9.15,0,0,1,7.1,7.58c-3.38,4-9.31,2.53-13,6-2.31,2.18-5.92,3.89-5.11,7.59.68,3.11,4.35,2,6.7,2.78a8.3,8.3,0,0,1,3.4,1.78c1.52,7.16-4.57,7.16-8.46,8.17-9.92,2.58-17.07,8-20.78,17.63-1.65,2.28-4.65,2.29-6.62,4-2,4.06,2.77,8.11,0,12.16-10.23,5-15.14,13.06-14.31,24.58a6.15,6.15,0,0,1-2.8,6c-4.14.17-4-6-8.31-5.57-7.77-1.19-13,2.78-17.48,8.41-1.94,6.34,3.11,4,5.5,4.12,4.35.27,8.83-3,13.09.54.75,2,0,3.95-.88,5.67-3.64,7-2.73,12.46,4.43,16.66,3.44,2,5.63,5.49,7.42,9.05A34,34,0,0,0,195.86,396c5,3.57,4.16,7-1.55,9.15-8.21-2.14-14.53-9.75-24-8.28-12.58-6.49-26.27-3.18-39.42-4.61-8.29-.9-16.41-2.72-24.66.21-2.31.82-4.57-.58-6.62-1.67-6.32-3.37-12-4-18.51.7-5.49,4-11.24-.28-13.41-8.85a22.28,22.28,0,0,1,2.44-5.09c1.83-3,1.25-5.85-.49-8.65-3.52-5-8.58-7.33-14.35-8.41a6.65,6.65,0,0,0-4.11.71,4.17,4.17,0,0,0-.57,1.84,9.21,9.21,0,0,0,1.57,4c1.68,3,4.1,5.72,3.1,9.56-8,6.6-10.88,6.42-15.29-1.75-3.06-5.69-5.74-11.17-13.25-12.09-3.06-.37-4.57-3.65-6.57-5.85-2.66-2.92-5-6.48-9.73-6a2.92,2.92,0,0,1-2.35-1q0-11,0-21.95a2.79,2.79,0,0,1,0-4q0-13,0-25.95c1.23-1.07.75-3,2-4.06a17.34,17.34,0,0,0,0-1.91c.68-.66,1.23-1.44,1.93-2.08.05-.65.07-1.3.07-1.95,1.2-1.09.81-3,2-4.06h0c1.23-1.05.8-2.9,1.93-4a17.6,17.6,0,0,0,0-12c-1.17-1.08-.68-3-1.94-4,0-.66,0-1.32-.07-2-1.16-1.09-.68-3-1.92-4,0-.65,0-1.3,0-2-1.77-1.65-.11-4.42-2-6.06L10.05,246c-2.09-2.33.25-5.73-2-8l0-4c-2.29-3,.46-7-2-10q0-1-.09-2c-.62-.68-1.26-1.35-1.92-2h0c-1.19-1.1-.8-3-2-4.07V202.07a1.91,1.91,0,0,1,2.14-.74c2.57,1.32,3.88,4.23,6.68,5.27,2.29.9,4.33.15,6.3-.95C23,203.42,23.39,195.33,29.92,193.93Z"/><path class="cls-3" d="M356.12,468.09l-3.86-.17c-2.39-2.07-5.76.13-8.16-1.88l-.88-.17-.89,0c-1.33-.73-2.8-1.34-2.72-3.25,6.74-13.39,18.65-16.13,31.17-12.16,14.36,4.54,26.58-3.43,39.94-4.06,5.29-.25,12.87-17.24,10.91-23.7-3.69-12.19-1.29-22.22,8.52-30.38,2.2-1.83,3.89-4,2.66-6.88-3.11-7.22-2.66-14.08.9-21,1.16-2.25-.13-4.51-1.6-6.44l-.05-.05c-3.94-4.29-7.34-9.13-6.36-15.13,1.85-11.19,1.59-22.48,2.55-33.7a18.13,18.13,0,0,1,2-7.7c6.42-10.83,12.14-21.86,14.92-34.33,1-4.44,5-6.85,9.7-7.56,3.29-.5,6.64-1,9.6-2.6,2.62-1.45,5.74-3.05,4.5-6.73-1.1-3.24-4.22-2.59-6.88-2.21-2.94.42-6.75,1.6-7.45-2.47-1.36-7.87-6-6-11.07-4.76-15.28,3.59-28.28-1.41-34.35-13.09-1.66-3.2-3.69-6.5-1.29-10.29,3.21-2.32,6.95-1.93,10.58-2.11a16,16,0,0,0,7.25-1.29c10.4-2,21.23,1.12,31.55-3.24,7.71-3.25,15.5-6.12,21.62-12.1a17,17,0,0,1,11.58-5.16c3.36-.14,6.78-.62,9.6-2.45,14.68-9.52,30.64-17.19,43.55-29.29,4.47-4.19,9-7.48,15.2-8.93,8-1.85,14.87-5.78,19-13.44,1.78-3.31,4.85-5.44,7.9-7.51,2.75-1.87,6.39-3.38,7.57-6.35,4.89-12.27,16.4-18.85,24-28.77C623.18,89.13,632.21,85,640.88,81a2.78,2.78,0,0,1,2,1.9,8,8,0,0,0,1.84,5.47,8.26,8.26,0,0,1-.41,2.92c-2.21,10.5-8.3,18.73-16.5,25-5.68,4.34-7.61,9.15-7.35,16,.25,6.17,1.15,12.51-1.23,18.56a5.12,5.12,0,0,1-2.19,1.82,24.61,24.61,0,0,1-5.62-.3,41.6,41.6,0,0,1-5.34-.76c-2.55-.43-4.66-.34-3.81,3.23.67,2.77,1.82,5.5.33,8.36-3.4,4.92-6.66,9.95-11.82,13.3-2.82,1.83-6.25,4.66-9.07,3.34-14-6.6-16.8,9.07-25.68,12.48-2.67,1-1.58,4.71-1.62,7.33-.16,9.66-.09,20-4.23,28.35-7.36,14.9-16.78,28.87-26.16,42.61-5.74,8.42-16.69,8.48-27,7.73,1.58,8.59,10.67,14,7.93,23.25-4.95,5.08-10.57-2.86-15.57.83,1.22,11.81,10,16.37,19.37,20.44.45,5.29-.22,10.56-.38,15.83-.15,4.77-1.27,10.18-5.05,12.54-13.59,8.51-18,24-27.91,35.16a2.52,2.52,0,0,1-2.43-1.06c-1.22-4.87-3.92-6.41-8.47-3.72a40.61,40.61,0,0,0-8.91,5.77c-3.81,3.27-4.7,6.83-.66,10.62,2.6,2,5.21,1.24,7.81,0,3.59-1.59,5.17-5.7,8.92-7.07,4.76-1.17,7.62-5.24,11.58-7.58,4.13-2.44,8.09-6.31,13.64-3.43,12.33,8.34,23.16,3,24.94-12.22,9.34,2.79,17-1.65,24.82-5.64,7.45-3.8,15.65-3.1,23.4-2.25,8.93,1,12.83-2.83,14.55-10.78.84-3.87,2.6-7.6,3.14-11.46,1.43-10.26,10.21-14.93,15.85-22a11.65,11.65,0,0,1,5.28-2c6.19-.29,7.95-7.37,13.39-8.82,12.62,1.58,16.81-7.51,19.92-18.08,4.82,5.09,2.43,9.87,3.48,14a18.51,18.51,0,0,1,2.2,3.71c0,2.45,0,4.89,0,7.34-1,1.28-.68,3.13-1.91,4.31l0,0a19.16,19.16,0,0,0-1.73,2,3.33,3.33,0,0,0-.4,1.6,5.41,5.41,0,0,1-2,2.38l.07-.07a7,7,0,0,1-2.07,2.06l.08-.09c-.9,1.38-2.89.91-3.82,2.24l-.08,0c-.76.55-1.38,1.28-2.14,1.84l.08-.08c-1,1.31-2.92.95-4,2.09l0,0c-1.17,1.27-3,1-4.35,1.92l-.82,0-.81.18c-2.27,2.16-5.7-.25-8,2a4,4,0,0,0-.15,1.76c-1.05,1.21-.7,3-1.77,4.2a3.6,3.6,0,0,0-.23,1.69A12.54,12.54,0,0,1,612.2,344a3,3,0,0,0-.27,1.55A7,7,0,0,1,610,348l0,0a19,19,0,0,0-1.8,2.1l-.1.14c-1.4.86-.9,2.86-2.24,3.76l.09-.08a10.63,10.63,0,0,1-2,2.1l.06-.06a27.94,27.94,0,0,1-2,2.09h0c-.67.67-1.34,1.33-2,2h0c-.69.66-1.35,1.36-2.08,2l0,0a11.48,11.48,0,0,1-2.11,2l.08-.09c-.92,1.34-2.9.86-3.8,2.22l-.11.07c-.79.52-1.39,1.26-2.15,1.81l.08-.08c-1.08,1.34-3,1-4.19,2a4.85,4.85,0,0,0-1.81.23c-.69.6-1.37,1.2-2,1.83l0,0c-1.82,1.61-.12,4.46-2.11,6l.08-.09c-.54.78-1.28,1.4-1.88,2.14l0,0c-1.29,1-.84,2.95-2.22,3.87l.09-.08a7,7,0,0,1-2.06,2.07l.07-.07a7.29,7.29,0,0,1-2.07,2.07l.07-.07a7.29,7.29,0,0,1-2.07,2.07l.08-.1c-.88,1.38-2.89.88-3.76,2.26l-.13.08a20,20,0,0,0-2.06,1.84l0,0a14.66,14.66,0,0,1-2.14,2l.09-.09c-1,1.36-2.91.94-3.95,2.16h0c-1.07,1.16-2.94.76-3.94,2l0,0c-1.14,1.07-3,.74-4,1.93h0c-.65.64-1.28,1.31-1.89,2l-.21,3.64a12,12,0,0,1-1.86,2.39l0,0a26.56,26.56,0,0,0-2,2h0a21.7,21.7,0,0,1-2.14,1.92l.09-.09c-1.06,1.37-3,1-4.18,2.06a5.16,5.16,0,0,0-1.83.29c-1.13,1-2.91.59-3.92,1.82h0c-1.2,1.14-3,.86-4.28,1.86a4.22,4.22,0,0,0-1.76.23c-1.16,1.1-3,.71-4.14,1.82a4.82,4.82,0,0,0-1.88.26c-1.15,1-2.91.61-4,1.8h0c-1.13,1.16-2.94.87-4.12,1.92l.06-.05c-4.59,2.1-1.74,7.12-4,10.14l0,0c-1.17,1.09-.8,3-2.08,4l.07-.07c-.59.74-1.31,1.36-1.87,2.12l-.06.08a8.17,8.17,0,0,0-1.74,1.83,3.37,3.37,0,0,0-.43,1.61,5.48,5.48,0,0,1-2,2.37l.07-.1c-.89,1.38-2.88.91-3.81,2.24l-.08,0c-.76.56-1.38,1.28-2.12,1.87l.07-.07c-1.05,1.28-2.93.92-4,2.07l.06,0c-2.88,2.41-8.08-.82-9.93,4.08l0,.05a16.24,16.24,0,0,0-1.93,2l-.07.07c-.76.56-1.38,1.29-2.14,1.85l.08-.07c-1.1,1.33-3,1-4.24,2a4.22,4.22,0,0,0-1.76.23c-1.24,1.07-3,.79-4.31,1.73l-3.7.27a95.42,95.42,0,0,1-27.88,0l-3.87-.24a8.28,8.28,0,0,0-8.27,0l.05,0c-1,1.25-2.93.86-4,2.09h0a102.25,102.25,0,0,1-29.95.12l-1-.17h-1c-1.63-1.83-4.48-.13-6.07-2.09l.08,0a1.66,1.66,0,0,0-2.25,0l.09,0c-1.1,1.38-3,1.05-4.29,2l-3.73.31A25.13,25.13,0,0,1,356.12,468.09Z"/><path class="cls-4" d="M474.35,386c2.14-5.08,4-10.11,8.31-14.17a18.67,18.67,0,0,0,5.53-9.26c.91-4.26,3.69-6.86,7.61-8.49,7.86-3.26,10.21-9.76,10.3-17.62,0-4.93-.78-10,1.95-14.58-1.09-1.74,0-3.18.62-4.69a6.07,6.07,0,0,0,0-4.68c-.4-.75-.77-1.5-1.19-2.23-1.26-2.66-4.42-4.5-3.51-8.1.48-5.74-2.64-10.21-5.55-14.58A101.2,101.2,0,0,1,492.23,276c4.21,0,7.7,0,11.18,0,13.84-.09,22.49-6.1,26.65-19.36,2-6.37,4.12-11.92,10.06-16.11a20,20,0,0,0,8.26-14.22c1.18-10.74,5.6-21.2,2.71-32.25-.69-2.64.6-3.55,2.75-4.22,8.4-2.62,12.75-9,15.16-16.9,1,0,1.85-.26,2.27,0,10.07,7.12,16.65,6.17,24.16-4,2-2.69,3.55-5.6,6.78-7,4-1.15,5.86,2.14,8.32,4.05,2.68,2.08,5.58,4.39,8.82,2.3s2.33-5.68,1-8.82c-1.09-2.7-5.17-3.71-4.3-7.52,2.15-1.63,2-4,2-6.29,0-5.93.2-11.87-.05-17.78-.23-5.23.8-8.53,6.1-11.7,9.79-5.88,14.52-16.51,19.9-26.24,1.19.22,1.36,1.4,2,2.13a6.81,6.81,0,0,0,.12,1.91c2.46,5.81-.76,12.22,1.9,18l0,0a7.68,7.68,0,0,1,0,8,4.1,4.1,0,0,0-.1,1.67,12.69,12.69,0,0,1-1.77,2.3,5.13,5.13,0,0,0-.21,1.74,22.63,22.63,0,0,1-1.83,2.31l0,.06c-1.31,1-.88,2.89-2.13,3.89l0,0c-2.58,5.81.57,12.21-1.87,18a6.81,6.81,0,0,0-.12,1.91c-1.16,1.11-.75,2.92-1.8,4.07a5.89,5.89,0,0,0-.25,1.82c-2.56,5.87.69,12.34-1.86,18.21a6.79,6.79,0,0,0-.08,1.91c-2.15,2.34.15,5.75-1.94,8.1a5.86,5.86,0,0,0-.1,1.82c-1.71,1.73-.16,4.46-1.9,6.18a4.92,4.92,0,0,0-.13,1.75c-1,1.22-.69,3-1.78,4.22,0,1.36,0,2.71,0,4.07,1.12,1.14.7,3,1.85,4.11a6.75,6.75,0,0,0,.19,1.9c1.08,1.16.68,3,1.81,4.11a6.66,6.66,0,0,0,.16,1.89c1.62,1.71.07,4.4,1.86,6.06a6.58,6.58,0,0,0,.11,1.93,42.75,42.75,0,0,1-.13,20l0,0c-1.15,1.11-.81,3-2,4l0,0a2.79,2.79,0,0,0,0,4.08v0c1.22,1.17.92,3,1.91,4.28a4.55,4.55,0,0,0,.18,1.72c1.15,1.11.75,2.95,1.9,4.06l0-.05c1.89,1.58.19,4.4,2.08,6h0c1.16,1.2.89,3,1.87,4.3a4.26,4.26,0,0,0,.14,1.7c1.78,1.64.12,4.41,2,6l0,0c1.78,1.73.3,4.46,1.93,6.25.1,1.93.19,3.87.29,5.8a5.7,5.7,0,0,1,0,5.88c0,.7,0,1.4,0,2.1.54.56.66,1,.37,1.45s-.51.55-.74.55c-3.4-3.46-.67-8.27-2.65-12.83-1.09,3.41-2.12,6.07-2.8,8.82-1.89,7.66-1.84,8-9,7.82-3.15-.07-6.33,2.17-9.44,0-2.21-2.4-.49-5.16-.75-7.74-4.64-7.17-8.29,0-11.93,1.23-4.31,1.42-7.91,4.74-7.14,10.3.32,2.24,2,4.13,1.88,6.5,2.41,4.34-.6,6.63-3.78,7.4-5.15,1.26-6.77,4.95-8.1,9.13-2.51,7.9-4.74,15.89-7.42,23.73-1.55,4.52-3.41,7.15-10,6.1-13.22-2.1-26.66-1.27-38.14,7.32-4,3-7.36,3.56-10.85-.67-.69-.84-2.45-.78-3.71-1.13a6.22,6.22,0,0,1-3.52,2c-7.87-.4-12.87,5.06-18.56,9.12a7.15,7.15,0,0,1-3.92.87,31.22,31.22,0,0,0-15.27,8.16c-2.38,2.25-4.47,5.84-8.8,3.65a1.77,1.77,0,0,1-.67-1.8,12.83,12.83,0,0,1,1.39-2.8A3,3,0,0,1,474.35,386Z"/><path class="cls-5" d="M420,218l-12,0a4.49,4.49,0,0,1-2.38,1.3,11.6,11.6,0,0,1-2.82-.22,51.7,51.7,0,0,0-7.25-.8c-9.9-2.65-19.92-4.23-30.21-3.45-10.28-.15-20.86,1.52-30.74-.37-16.42-3.14-32.49-7.12-49.45-5.05-3.33.4-8.06-.32-9.15-5.4-2.6-3.08-6.17-2-9.34-1.93-12.35.4-24.52-.54-36.16-5-3.21-1.22-5.77-.58-8.49.89-5.89,3.16-12.17,5-18.67,6.62-7.12,1.76-13.19,2.31-19.41-3.07-4.49-3.88-11.21-3.63-16.88-5.36-5.37-1.65-10.88-2.81-16.31-4.27-2.91-.78-6.09-1.75-7.76-4.2-4.8-7.05-12.34-6.91-19.33-7.59a274.49,274.49,0,0,1-27.38-4,30.78,30.78,0,0,1-7.45-2.68c-2.16-1.06-4.41-1.83-6.72-1.06-9.1,3-18.46,1.51-27.68,1.46-5.77,0-12.25-.23-14.75-7.45-.5-1.43-1.69-1.9-3-2.27C31,162.48,25.32,160.83,19,159c-2.46,10,1.91,17.47,7.06,24.76-.61,2.95-3.16,3.59-5.41,4.58-.71.33-1.46.6-2.19.88a17.46,17.46,0,0,0-3.05,1.62c-.59.54-1.19,1-1.78,1.57s-1.19,1.15-1.82,1.69c-2.07,1.12-3.84,4.11-6.59,1.11,0-1.78-.5-3.63.79-5.22v-2c-.69-.66-1.25-1.43-1.87-2.14A11.55,11.55,0,0,0,4,184c-.69-.66-1.25-1.43-1.87-2.15-.06-1.29-.11-2.58-.17-3.88-2.12-3.06.48-7-1.85-10,0-1.94,0-3.87,0-5.8C1.9,160.43.34,157.73,2,156a16.26,16.26,0,0,0,.11-2c1.2-1.09.81-3,2-4.06h0c1.28-1.37,1.15-2.76.07-4.16v-7.69c.61-.75,1.26-1.47,1.92-2.17h0A18,18,0,0,0,7.93,134c.06-1.31.12-2.63.19-4,1.81-1.65.2-4.42,2-6.08h0c1.2-1.07.85-2.9,2-4v0c1.24-1,.86-2.91,2.06-4l0,0c.64-.69,1.33-1.34,2-2l0,0A21.6,21.6,0,0,0,18,112a9.59,9.59,0,0,0,.18-1.85,12.35,12.35,0,0,1,2-2.13l0,0a12.06,12.06,0,0,1,2.14-2,10.2,10.2,0,0,0,1.83-.16c.69-.6,1.34-1.24,2-1.9h0c.7-.64,1.34-1.34,2.07-2l0,0c1.08-1.27,3-.89,4.12-2l3.87-.14c2.13-1.12,4.93-1.21,6-3.91l0,0c.64-.7,1.33-1.35,2-2.06v0c1.25-1,.84-2.92,2.1-3.93l0,0a15,15,0,0,1,2-2l0,0a15,15,0,0,1,2-2l0,0c1-1.26,2.91-.84,3.89-2.12l0,0c.73-.59,1.37-1.28,2-1.93l0,0c1.06-1.18,2.93-.79,3.95-2l0,0c.71-.64,1.43-1.29,2.16-1.91A11.59,11.59,0,0,0,64.09,78c1.11-1.18,3-.73,4.09-1.92l3.92-.11a2.85,2.85,0,0,1,4,0l4,.06c.64-.7,1.37-1.32,2-2l0,0a17.56,17.56,0,0,1,2.13-2,10.68,10.68,0,0,0,1.87-.19A16,16,0,0,0,88,70l.06-.06c.73-.58,1.37-1.27,2-1.92l0,0a20.1,20.1,0,0,1,2.16-2,10.41,10.41,0,0,0,1.85-.14c.68-.62,1.36-1.26,2-1.9l0,0c1.07-1.19,2.94-.83,4-2h0c1.1-1.17,2.94-.81,4-2h0c1.12-1.2,3-.84,4.13-2a11.48,11.48,0,0,0,1.86-.08c3.07-2.3,7.08.38,10.15-1.92l3.87-2.15c.66-.67,1.42-1.23,2.1-1.89a12.13,12.13,0,0,0,1.9-.08c1.11-1.17,3-.72,4.09-1.9l3.92-.12c3-2.21,7,.47,10-1.91H162a4.78,4.78,0,0,0,6.08,0h0c1.2-1.07.78-2.92,1.92-4a10.78,10.78,0,0,0,.1-1.88c.64-.73,1.28-1.44,1.92-2.15l0,0c1.26-1,.85-2.91,2.11-3.92l0,0a15,15,0,0,1,2-2l0,0c1-1.26,2.92-.85,3.92-2.11l0,0c.71-.64,1.42-1.27,2.12-1.93a12.4,12.4,0,0,0,1.92-.14c.66-.65,1.42-1.2,2.09-1.85a13.27,13.27,0,0,0,1.89-.07c3.59-2.59,9.36,1.45,12-4h0c.65-.69,1.39-1.29,2-2,5.15-3.09,10.85-2,16.34-2,4.43,0,5.8-2.11,5.7-6,7.31.61,8.22,7.74,11.6,12.09,1.88,2.41-2,3.78-4.11,3.84-10.91.33-20.16,6.29-30.45,8.75-7,1.69-14,4.82-17.65,11.87-2.32,4.44-8.46,4-10.37,8.7-4.94,8.46-12,5.85-19.17,3.9-12.57-3.42-24.27-2.62-33.66,7.83a9.48,9.48,0,0,1-6,3.21c-7.25.87-12.85,4.85-18.2,9.34C89.84,86.92,85,92.79,76.93,93.3c-4.35.28-3.85,3.76-1.59,6.6,1.47,1.84,3.76,2.73,5.43,4.34,5.48,5.3,5.5,13.08-.22,18.2-3.2,2.86-6.1,6.11-9.8,8.41a8.82,8.82,0,0,1-2.71.75c-3.07.08-4.63-1.81-6.18-4.19C54.28,115.83,43.52,115,33.71,125a11.51,11.51,0,0,1-1.34,1.45c-11,9.56-11.09,11-1.85,23.07,2.75,5.52,8.15,5.45,13,5.55,14.66.3,29.18,1.24,43.32,5.55a21.26,21.26,0,0,0,10.91.28c13.31-3.15,25.68.74,38.12,4.44,12.52-.53,20.37,10.41,31.66,12.9,8.43,4.86,18.15,6.07,27.18,9.24,10.33,3.61,18.07-2.93,24.6-10.43,7.74,1.3,15.38,5.42,23.34.85,7.87-1.25,14.77-.63,17.18,8.82a5,5,0,0,0,1.85,2.31c5.64,4.67,33.66,3.38,38.45-2.36,4.59-5.5,8.46-6.08,14.2-1.58,6.14,4.8,13,8.35,21,2.9,3.84-2.62,7-.05,9.76,2.42a23.28,23.28,0,0,0,20.29,5.94,12.43,12.43,0,0,1,3,.2c9.9,2.71,19.64,6.93,30.24,3.1a5.58,5.58,0,0,1,4.86.41c7.34,4.64,13.44,1.58,19-3.22,4.08-3.49,8-4,12.78-1.46,6.15,3.23,11.79,1.86,16.05-3.52,3.76-4.74,8.15-6.21,14.05-4.94,4.65,1,9.28-.57,13.75-1.87,6.11-1.77,12.09-3.32,18.64-2.29,5.59.88,10.68-1.43,14.38-5.59,7.36-8.29,16.32-15.5,15-28.87-.67-6.8,17.49-23.15,24.6-23.41,5.09-.18,9.68-2.29,14.67-2.81,4.17-.44,6-3.44,6.54-7.62,1.32-11,5.68-19.36,18-21.65,6.77-1.26,10.84-6.21,12.3-13,.62-2.93,1-5.89,2.11-8.72C609.39,61,609.33,61,599.21,55.94c-5.38-2.68-8.16-12.55-6.39-22.79,3.1.11,6.3-.93,9.25.81a11.66,11.66,0,0,0,1.87.08c.7.64,1.47,1.2,2.13,1.89a11.3,11.3,0,0,0,1.84.12,17.6,17.6,0,0,1,2.15,2l0,0c.7.65,1.38,1.32,2,2l0,0c1.23,1.05.84,2.93,2.07,4h0c1,3.31,2.61,5.36,6.72,5.16,3.72-.18,7.66-1.13,11.28.85h0c1.07,1.2,2.92.84,4,2h0a24.64,24.64,0,0,0,2,1.94l0,0a21.11,21.11,0,0,0,2,2l0,0a24.64,24.64,0,0,0,1.94,2h0c2.13,2.3-.22,5.73,2,8h0a11.53,11.53,0,0,1,0,10v0c-2,1.6,0,4.54-2.1,6.1-7.15,3.28-12.18,9.89-20,12.33-3.13,1-3.23,5.63-5.5,8a97.55,97.55,0,0,1-12.77,10.77c-4.12,3.09-4.17,10.29-8.33,14.35a45.53,45.53,0,0,1-6.22,4.91,35.35,35.35,0,0,0-11.54,11.84c-4.22,7.29-12.19,10-20.11,11.45a14.88,14.88,0,0,0-8.56,4.35c-7.7,7.75-15,16.14-26.56,18.37-1.32.26-2.22,2.3-3.47,3.34-8.71,7.27-17.57,14.33-29.78,14.18-3.33,0-5.53,1.59-7.81,3.7-13.69,12.73-30.07,17.64-48.49,16.07-2.32-.2-4.52-1-6.74.23C424.43,217.78,421.67,216.11,420,218Z"/><path class="cls-6" d="M592.11,34.08a60.67,60.67,0,0,1,3.38,7.23,24.11,24.11,0,0,0,11.37,14.18c4.71,2.66,6.26,6.87,3.42,11.72a36.87,36.87,0,0,0-4.61,13.86,16.75,16.75,0,0,1-14.54,14.56c-6.16,1-10.11,2.27-12.19,9.13-1.1,3.65-4.15,6.27-3.21,11.14s-3.84,9.52-7.3,9.2c-6.57-.62-12.16,5.43-18.77,1.84-1.75-1-2.88.62-4,1.93-3.09,3.48-6.27,6.9-9.62,10.14-4.57,4.42-9.39,8.34-6.12,16.06,1.24,2.94-.18,6.19-3.15,8.77-5,4.34-7.47,10.8-12.58,15.28-5.9,5.17-12.06,8.43-19.86,5.83-3.27-1.1-5.79.16-8.65.87-8.25,2-16.23,6.44-25.16,2.69-2.17-.91-3.44.85-4.91,2.38C445,201.94,444.91,202,431.2,196c-2.45-1.08-3.74-.41-5.14,1.09a31,31,0,0,1-8.82,6.42c-4.75,2.45-9.26,4.08-13.51-.79-1.54-1.77-3.3-1.71-5.38-.82-10.84,4.68-20.62.86-30.27-3.89-.57-4.92,3-5.67,6.23-5.1,8.26,1.43,14.71-1.84,20.73-6.79.77-.62,1.54-1.6,2.41-1.67a77.68,77.68,0,0,0,32.11-10.35c10.59,5.66,22.82,1,33.87,5.63,5.31,2.24,6.9-4.71,9.05-8.64,1.74-3.76,3.71-7.68,8.81-5.56,7.5,3.11,14.27,1.08,21-2.08,8.31-3,12.86-10.22,18.45-16.31,3.9-4.25,0-7.43-1.37-10.78-3.91-9.49-3.83-10.09,5.61-13.83,3.68-1.46,7.26-4.36,11.26-3.58,7.22,1.41,9.46-3.19,11.49-8.29s3-10.27-1.5-14.86c-1.71-1.77-5.3-2.67-4-6.07,1.37-3.58,5-4,8.27-4.72,7.94-1.79,13.72,3.36,20.35,6.63-.81-1.4-2.12-1.89-2.78-2.91-6.9-10.52-15.6-10.9-26.68-6.51-10.49,4.16-20.17-3.69-19.39-15,.54-8-3.74-11.41-10.18-12.06-8.93-.91-17-2.1-25.22-7.11-6.66-4.06-16.19-2.65-24.16.8-3.17,1.37-6.5,2.88-9.31.1-8.29-8.18-17.89-9-28.4-5.73-5.92-5.81-12.46-8.13-20.35-3.87-3.65,2-6.88,1.35-9.66-1.92-2.42-2.85-5.22-5.12-9.4-3.72a8.17,8.17,0,0,1-5.5-.94c-7.83-9.77-19.73-7.54-30-9.7-3.38-.71-5.1,4.63-7.64,7.12-3.55,3.48-6.69,5.54-12.05,2.39-10.91-6.41-20.12-4.43-28.56,5.13-3.41,2.9-6.69,7.28-11.77,4.61C284.42,39.4,287,33.47,286,28.91c-2.38-9.49-13.53-14.27-22.85-9.76-3.61,1.75-6.37,4.58-9.3,7.21a20.79,20.79,0,0,1-2.24,1.72c-4.79,3.87-9.78,6.09-16.37,4.69C227,31,220.5,34.68,215.72,41.49c-1.53,1.73-3.3,3.88-5.39,4-10.61.6-17.43,7.16-24,14.38-5,.92-10,1.92-14.29-1.88.37-1.26.56-3.51,1.14-3.61,6.45-1.17,8.88-6.66,12.5-10.94s9.25-5.68,14.07-6.93c7.61-2,14.66-5.3,22.12-7.56,4-1.21,7.93-.42,13.09-1.48C229,24.24,229.26,17.23,224.13,14l2-4a5,5,0,0,1,6-.06c.66.05,1.32.07,2,.06a2.57,2.57,0,0,0,4,0l0,0a23.13,23.13,0,0,0,2-1.95h0c.69-.65,1.35-1.33,2-2l0,0c1.06-1.21,2.93-.84,4-2h0c1.1-1.18,3-.78,4-2,.66,0,1.31,0,2-.06,1.66-1.74,4.41-.07,6-1.95H272c1.62,1.86,4.37.2,6,1.94.65.05,1.3.07,2,.06,1.08,1.21,2.94.82,4.05,2h0c1.05,1.23,2.91.86,4,2h0c.67.66,1.32,1.34,2,2l0,0c.63.69,1.29,1.34,2,2l0,0a1.19,1.19,0,0,0,1.95,0h0c1.09-1.15,2.94-.79,4-2h0c1.11-1.15,3-.75,4.05-2,.65,0,1.31,0,2-.06a36.72,36.72,0,0,1,18,0c.65,0,1.3.06,2,0,1.06,1.24,3,.76,4,2,.64,0,1.28.07,1.93.06.64.68,1.41,1.22,2.06,1.9.65.06,1.31.09,2,.1a2.66,2.66,0,0,0,4,0h0c.7-.65,1.42-1.28,2.12-1.93l3.91-.09a8.19,8.19,0,0,1,8,0L356,8c1.12,1.16,3,.78,4.1,2h0c1.08,1.2,2.92.84,4,2h0c1.06,1.2,2.92.84,4,2l0,0c.66.66,1.33,1.29,2,1.92l2,0c.65-.7,1.43-1.25,2.1-1.91L384,14c1.62,1.87,4.39.19,6,2,.64,0,1.29.07,1.93.06,1.1,1.18,3,.79,4.08,2h0c1.07,1.2,2.9.85,4,2h0c1.05,1.23,2.89.87,4,2h0c1.05,1.23,2.9.87,4,2h0c1,1.25,2.94.79,4,2l2-.07A23.68,23.68,0,0,0,416,24l0,0c.72-.6,1.36-1.28,2-2l0,0c1.1-1.19,3-.78,4-2,.66,0,1.32,0,2-.07a36.72,36.72,0,0,1,18,0c.64,0,1.28.06,1.92.05,1.09,1.21,3,.73,4.08,1.95A17,17,0,0,0,450,22c.7.65,1.42,1.28,2.12,1.93l0,0c1,1.27,2.93.8,4,2a14.83,14.83,0,0,0,2,0c1.64-1.81,4.43-.11,6.05-2,.65,0,1.31,0,2-.05,2.34-2.08,5.74.24,8.06-1.94H488c1.09,1.2,3,.74,4.07,1.92.64.05,1.28.07,1.93.07.65.69,1.43,1.23,2.07,1.94h4a85,85,0,0,1,28,0l4,.06c1.62,1.85,4.36.21,6,1.92L542,28c.66.67,1.43,1.22,2.09,1.9.64.06,1.28.1,1.92.1.69.67,1.43,1.29,2.07,2l0,0c2.68,4.09,6.25,3.7,10.07,2l4,0c3.72-2.41,8.32.61,12-2H582c1.08,1.21,3,.81,4.05,2h0a1.32,1.32,0,0,0,2.1,0c.65,0,1.3,0,1.94-.07C590.82,33.17,591.49,33.25,592.11,34.08Z"/><path class="cls-7" d="M70,381.78c-3,6,3.17,6.11,5.6,8.48s3.87,0,5.43-1.76c6.06-7,12.7-3.61,18.85-.42,3.42,1.77,5.72,2.84,9.75.74,3.18-1.66,8-1.47,11.69-.6,6.86,1.61,13.75,1.62,20.66,2.1,1.3.09,3.15,1.25,3.76.74,7.64-6.47,13.45-1.36,19.28,2.95,2,1.49,3.79.33,5.68.3a9.54,9.54,0,0,1,1.29,2.42c.56,5.07,3.32,9,6.27,13,1.83,2.45,5.17,4.34,3.81,8.3-7.28,10.24-8,8.56-19,4.4-3.39-1.27-6.14-3.67-9.63-5-10.77-4.19-21.29-3.5-32-.15-3.76,1.18-7.38,3.14-11.53,2.81a2.48,2.48,0,0,1-3.79-.13l0,0a16.76,16.76,0,0,1-2-2l0,0a13.46,13.46,0,0,1-2-2.12A11.44,11.44,0,0,0,102,414c-.67-.66-1.22-1.42-1.89-2.07A12.19,12.19,0,0,0,100,410c-1-1.29-2.85-.8-3.88-2l-1-.05h-1A4.77,4.77,0,0,0,88,408l-6,.07a36.72,36.72,0,0,1-18-.05l-.93-.06h-.93c-.73-.63-1.44-1.27-2.15-1.92l0,0c-3-2.47-6.94.29-9.95-1.95a16.47,16.47,0,0,0-2-.07c-1-1.25-2.89-.78-4-1.89a16.32,16.32,0,0,0-2-.12c-1.08-1.22-3-.82-4.05-2h0c-1.07-1.2-2.94-.84-4-2l0,0c-.69-.64-1.33-1.33-2-1.94l0,0a16.87,16.87,0,0,0-1.92-1.86,13.57,13.57,0,0,0-1.92-.19c-.7-.66-1.45-1.28-2.09-2l0,0c-.69-.65-1.35-1.33-2-2h0c-1-1.24-2.88-.8-4-1.92a11.31,11.31,0,0,0-1.84-.13c-1.35-1-1-2.91-2.18-3.94h0c-1.15-1.11-.75-3-2-4a18.62,18.62,0,0,0-.1-2c-1.14-1.11-.67-3-1.9-4a18.13,18.13,0,0,0,0-1.95c-2.09-2.34.23-5.74-2-8.06,0-1.31,0-2.63-.08-3.95a12,12,0,0,1,0-9.9c.41-2.73,1.48-4.86,4.37-2.45,3.53,2.93,7,6,9.47,10,1.22,2,2.24,4.25,5.12,3.76,5.78-1,8.28,2.66,10.34,7.07.69,1.49,1.45,2.95,2.21,4.41,4.23,8.16,4.23,8.16,12.9,2.42A97.74,97.74,0,0,1,70,381.78Z"/><path class="cls-4" d="M432.11,358c3.33,1.35,6,2.79,3.46,7.21-3.75,6.51-3.62,13.26.11,19.76,2.23,3.89,1.92,6.08-2.41,8.63C423,399.7,419.88,408.45,424,420c2.11,6,.22,10.23-1.95,15.74-4.14,10.53-9.62,16.67-21.71,14.7a10.14,10.14,0,0,0-6.65,1.73c-7.53,5.14-14.94,3-22.64.58-5.46-1.69-11.25-.55-16.89-.65a5.74,5.74,0,0,0-5.65,3.42c-1.76,3.87-5.49,5.66-8.35,8.37a1.13,1.13,0,0,1-2,.28,6.62,6.62,0,0,0-1.88-.21c-1.16-1.12-3-.76-4.15-2l0,0c-1.08-1.19-3-.82-4-2.07l.05.06c-.73-.61-1.35-1.32-2.1-1.9l-.05,0c-.57-.75-1.82-.86-1.93-2,8.27-10.05,19.78-14.38,31.69-18,12.35,6.74,20.4,4.49,28.68-8,6.33-2.63,13-1.71,19.6-2,5.53-.25,6.85-1.55,5.38-6.65-2.65-9.18,1.09-16.15,6.89-22.41,3.58-3.86,7.78-7.14,11.11-10.14-1.27-4.91-4.91-6.31-6.26-9.46C428.09,373.7,432.39,367,432.11,358Z"/><path class="cls-8" d="M294.1,459.88c6.43-6.86,14.45-8.84,23.54-7.89,2.8.29,4.21,1.58,4.58,4.24.59.44.76.85.53,1.22s-.45.54-.67.54h0a17.15,17.15,0,0,1-2.24,1.93,6.06,6.06,0,0,0-1.8.19c-1.19,1.08-3,.72-4.19,1.78l-15.6,0C297.14,460.69,295.06,461.42,294.1,459.88Z"/><path class="cls-9" d="M388.13,468.11l29.95-.12C411,470.76,395.66,470.82,388.13,468.11Z"/><path class="cls-9" d="M434.15,466.15l27.88,0A44.24,44.24,0,0,1,434.15,466.15Z"/><path class="cls-9" d="M528.06,26l-28,0A42.19,42.19,0,0,1,528.06,26Z"/><path class="cls-9" d="M206.09,444h26C224.85,446.77,213.31,446.77,206.09,444Z"/><path class="cls-9" d="M152.1,434h24A31.88,31.88,0,0,1,152.1,434Z"/><path class="cls-9" d="M632.08,50c-4.2,0-8.4-.21-12.58,0-4.46.21-5.61-2.2-5.42-6,2.43,2.68,5.08,4.45,9.09,4.11C626.17,47.84,629.64,47,632.08,50Z"/><path class="cls-9" d="M636,244q.06-10,.13-20C639.12,230.69,639.31,237.35,636,244Z"/><path class="cls-9" d="M322.07,6l-18,0A18.26,18.26,0,0,1,322.07,6Z"/><path class="cls-9" d="M648.05,112c-3.92-5.66-1.17-12-1.9-18C649.87,99.7,647.34,106,648.05,112Z"/><path class="cls-9" d="M64.08,408l18,.05A18.26,18.26,0,0,1,64.08,408Z"/><path class="cls-9" d="M636.12,176c.7-6.06-1.72-12.44,1.86-18.21C637.41,163.83,639.87,170.22,636.12,176Z"/><path class="cls-9" d="M640.15,150c.58-6-1.63-12.33,1.87-18C641.38,137.93,643.86,144.27,640.15,150Z"/><path class="cls-9" d="M442.08,20l-18,0A18.26,18.26,0,0,1,442.08,20Z"/><path class="cls-9" d="M200.1,24c-.3,2.61-1.75,3.92-4.41,3.91s-5.06,0-7.6.05C191.37,24.44,196.66,27,200.1,24Z"/><path class="cls-9" d="M356.12,468.09l13.89.07C365.37,471,360.74,471.1,356.12,468.09Z"/><path class="cls-9" d="M508,436c1.19-3.43-2.54-8.81,4-10.14C509.56,428.78,511.36,433.39,508,436Z"/><path class="cls-9" d="M256.08,458l12-.09C264.09,461.07,260.09,461,256.08,458Z"/><path class="cls-9" d="M592.11,34.08l-2-.13q6-4.41,12,0Z"/><path class="cls-9" d="M480.14,458c1.27-6.31,6.5-3,9.93-4.08C487.6,457.32,482.91,455.34,480.14,458Z"/><path class="cls-9" d="M574.11,32c-3.55,3.47-8,1.43-12,2C565.63,30.39,570.1,32.58,574.11,32Z"/><path class="cls-9" d="M558.11,34c-6.18,3-7.21,2.85-10.07-2C551.16,33.87,554.58,34.2,558.11,34Z"/><path class="cls-9" d="M50.1,404.05c3.37.42,7.16-1.35,9.95,1.95C56.71,405.5,52.91,407.31,50.1,404.05Z"/><path class="cls-9" d="M.12,167.91c3,2.89,1.53,6.63,1.85,10C-1.23,175.07.53,171.29.12,167.91Z"/><path class="cls-9" d="M10,350.07V360c-3.28-2.84-1.48-6.65-1.93-10C8.75,350,9.39,350,10,350.07Z"/><path class="cls-9" d="M146.14,48c-2.87,3.12-6.63,1.55-10,1.91C139,46.67,142.76,48.45,146.14,48Z"/><path class="cls-9" d="M120.23,56.06c-2.91,3.14-6.73,1.48-10.15,1.92C113,54.64,116.8,56.44,120.23,56.06Z"/><path class="cls-9" d="M6.1,224c3.22,2.84,1.55,6.64,2,10C4.75,231.15,6.55,227.33,6.1,224Z"/><path class="cls-9" d="M644.06,76q0-5,0-10C647,69.33,647,72.66,644.06,76Z"/><path class="cls-9" d="M10.11,363.92c2.77,2.18,1.75,5.27,2,8.06C9.14,369.84,10.35,366.71,10.11,363.92Z"/><path class="cls-9" d="M178,434c2.7-2.57,5.41-2.76,8.12,0Z"/><path class="cls-9" d="M294.1,459.88c1.59.25,3.14.59,4.15,2-2.81-.17-5.93,1-8.13-1.83Z"/><path class="cls-9" d="M422,465.94c2.74-3.08,5.5-2.31,8.27,0Z"/><path class="cls-9" d="M344.1,466c2.84.11,5.86-.58,8.16,1.88C349.44,467.73,346.3,468.94,344.1,466Z"/><path class="cls-9" d="M352.07,8h-8Q348.09,3.77,352.07,8Z"/><path class="cls-9" d="M474.15,22c-2.17,2.8-5.27,1.73-8.06,1.94C468.23,21.05,471.36,22.26,474.15,22Z"/><path class="cls-9" d="M644.08,66c-2.79-2.14-1.67-5.26-2-8C645,60.09,643.8,63.23,644.08,66Z"/><path class="cls-9" d="M642,82.07c.2-2.2-.24-4.63,2.1-6.1L644,84.25c-.76.63-1.37.51-1.83-.37A7.35,7.35,0,0,0,642,82.07Z"/><path class="cls-9" d="M42.14,96c-.28,4-3.06,4.1-6,3.91C37.54,97.73,40,97.13,42.14,96Z"/><path class="cls-9" d="M648.07,120c0-2.66,0-5.33,0-8C651,114.65,650.92,117.32,648.07,120Z"/><path class="cls-9" d="M634.1,186c.13-2.82-.65-5.86,1.94-8.1C635.82,180.68,637,183.83,634.1,186Z"/><path class="cls-9" d="M6,190c0,1.87,0,3.73-.07,5.6,1.61,1.43.29,2-.76,2.75L4,197.91C4.39,195.21,3.17,192.08,6,190Z"/><path class="cls-9" d="M8.1,238c2.83,2.14,1.74,5.25,2,8C7.14,243.85,8.36,240.72,8.1,238Z"/><path class="cls-9" d="M616.13,334c2-3.18,5.23-1.65,8-2C622,334.92,618.88,333.71,616.13,334Z"/><path class="cls-9" d="M280.1,458.05c2.24,0,4.56-.28,6.13,1.87C284,459.93,281.62,460.39,280.1,458.05Z"/><path class="cls-9" d="M272.09,456c2.23,0,4.54-.25,6.08,1.93C276,457.93,273.57,458.37,272.09,456Z"/><path class="cls-9" d="M120.08,428l6,0Q123.06,431.83,120.08,428Z"/><path class="cls-9" d="M88,408c2-2.45,4.06-2.44,6.08,0Z"/><path class="cls-9" d="M579.93,378c.19-2.19,0-4.5,2.11-6C582,374.17,582.49,376.59,579.93,378Z"/><path class="cls-9" d="M646.26,297.93v-5.88Q649.79,295,646.26,297.93Z"/><path class="cls-9" d="M646,286.25c-2.08-1.65-1.92-4-1.93-6.25C646.51,281.52,646,284,646,286.25Z"/><path class="cls-9" d="M644.06,280c-2.14-1.53-1.94-3.81-2-6C644.45,275.44,644,277.81,644.06,280Z"/><path class="cls-9" d="M640.08,268c-2.18-1.48-2-3.77-2.08-6C640.46,263.39,640,265.78,640.08,268Z"/><path class="cls-9" d="M10.11,249.92c2.27,1.5,1.93,3.84,2,6.06C9.7,254.51,10.14,252.14,10.11,249.92Z"/><path class="cls-9" d="M636,222.09c-2.09-1.57-1.92-3.84-1.86-6.06C636.48,217.54,636,219.89,636,222.09Z"/><path class="cls-9" d="M632.1,194c0-2.26-.21-4.57,1.9-6.17C634,190.06,634.49,192.46,632.1,194Z"/><path class="cls-9" d="M2,156c0,2.22.33,4.54-1.86,6.09C.14,159.89-.32,157.53,2,156Z"/><path class="cls-9" d="M10.1,124c-.07,2.22.23,4.56-2,6.08C8.14,127.84,7.7,125.45,10.1,124Z"/><path class="cls-9" d="M646,92.11,644,90c-.06-.67-.11-1.35-.17-2q-.71-.79-.33-1.41c.24-.38.45-.57.65-.57C646.47,87.53,646,89.89,646,92.11Z"/><path class="cls-9" d="M168.11,48c-2,2.63-4.05,2.35-6.08,0Z"/><path class="cls-9" d="M538.06,27.93c-2.21,0-4.54.34-6-1.92C534.23,26.05,536.58,25.61,538.06,27.93Z"/><path class="cls-9" d="M464.13,24c-1.49,2.28-3.83,1.93-6.05,2C459.53,23.62,461.91,24.05,464.13,24Z"/><path class="cls-9" d="M390.07,16c-2.21,0-4.54.31-6-2C386.25,14.05,388.61,13.62,390.07,16Z"/><path class="cls-9" d="M232.06,9.94l-6,.06Q229,6.15,232.06,9.94Z"/><path class="cls-9" d="M278.07,2c-2.22,0-4.55.32-6-1.94C274.24.05,276.6-.39,278.07,2Z"/><path class="cls-9" d="M258.11,0c-1.48,2.27-3.81,1.93-6,2C253.56-.38,255.91.05,258.11,0Z"/><path class="cls-9" d="M380.11,465.86c2.21.14,4.5.09,6.07,2.09C383.93,467.92,381.5,468.4,380.11,465.86Z"/><path class="cls-9" d="M250.13,2c-.9,1.57-2.39,2-4,2C247,2.36,248.46,2,250.13,2Z"/><path class="cls-9" d="M284.08,4c-1.66,0-3.15-.39-4.05-2C281.69,2,283.2,2.36,284.08,4Z"/><path class="cls-9" d="M246.09,4c-.86,1.59-2.35,2-4,2C242.93,4.37,244.43,4,246.09,4Z"/><path class="cls-9" d="M288.07,6c-1.64,0-3.12-.44-4-2C285.74,4,287.23,4.38,288.07,6Z"/><path class="cls-9" d="M302.13,6c-.91,1.57-2.4,1.94-4.05,2C299,6.36,300.46,6,302.13,6Z"/><path class="cls-9" d="M328.07,8c-1.66,0-3.14-.38-4-1.95C325.68,6,327.19,6.34,328.07,8Z"/><path class="cls-9" d="M298.07,8c-.87,1.59-2.34,2-4,2C294.93,8.38,296.42,8,298.07,8Z"/><path class="cls-9" d="M360.08,10c-1.67,0-3.17-.41-4.1-2C357.67,8,359.19,8.35,360.08,10Z"/><path class="cls-9" d="M238,10c-1.31,2.09-2.64,2-4,0Z"/><path class="cls-9" d="M338.05,10c-1.32,2-2.66,2-4,0Z"/><path class="cls-9" d="M364.08,12c-1.65,0-3.14-.41-4-2C361.72,10,363.22,10.37,364.08,12Z"/><path class="cls-9" d="M368.07,14c-1.65-.06-3.13-.43-4-2C365.73,12,367.23,12.37,368.07,14Z"/><path class="cls-9" d="M396.08,18c-1.67,0-3.16-.4-4.08-2C393.68,16,395.2,16.35,396.08,18Z"/><path class="cls-9" d="M400.08,20c-1.65,0-3.13-.4-4-2C397.72,18,399.21,18.37,400.08,20Z"/><path class="cls-9" d="M404.08,22c-1.65,0-3.12-.41-4-2C401.73,20,403.22,20.37,404.08,22Z"/><path class="cls-9" d="M422.12,20c-.89,1.57-2.38,1.95-4,2C419,20.36,420.45,20,422.12,20Z"/><path class="cls-9" d="M448.08,22c-1.66,0-3.16-.38-4.08-1.95C445.68,20,447.19,20.35,448.08,22Z"/><path class="cls-9" d="M408.08,24c-1.65,0-3.12-.42-4-2C405.73,22,407.22,22.37,408.08,24Z"/><path class="cls-9" d="M492.07,24c-1.66,0-3.15-.37-4.07-1.92C489.66,22,491.17,22.33,492.07,24Z"/><path class="cls-9" d="M412.08,26c-1.65,0-3.13-.4-4-2C409.73,24,411.22,24.37,412.08,26Z"/><path class="cls-9" d="M456.08,26c-1.65,0-3.12-.43-4-2C453.75,24,455.24,24.39,456.08,26Z"/><path class="cls-9" d="M180,32c-.82,1.6-2.28,2-3.92,2.11C176.9,32.39,178.39,32,180,32Z"/><path class="cls-9" d="M586.07,34c-1.65-.05-3.14-.45-4.05-2C583.7,32,585.21,32.36,586.07,34Z"/><path class="cls-9" d="M174.17,36c-.09,1.64-.51,3.1-2.11,3.92C172.13,38.3,172.48,36.81,174.17,36Z"/><path class="cls-9" d="M614.08,44c-1.57-.87-2-2.34-2.06-4C613.69,40.82,614,42.32,614.08,44Z"/><path class="cls-9" d="M170,44c0,1.64-.33,3.12-1.92,4C168.11,46.38,168.43,44.89,170,44Z"/><path class="cls-9" d="M132.19,50c-.94,1.54-2.43,1.91-4.1,1.9C129,50.32,130.52,50,132.19,50Z"/><path class="cls-9" d="M636.08,52c-1.65,0-3.12-.44-4-2C633.73,50,635.22,50.37,636.08,52Z"/><path class="cls-9" d="M108.22,58.06c-1,1.54-2.46,1.92-4.13,2C105,58.34,106.52,58,108.22,58.06Z"/><path class="cls-9" d="M104.1,60c-.88,1.57-2.36,2-4,2C100.94,60.37,102.44,60,104.1,60Z"/><path class="cls-9" d="M100.1,62c-.88,1.58-2.36,2-4,2C96.93,62.37,98.43,62,100.1,62Z"/><path class="cls-9" d="M76.06,75.93h-4Q74.08,72.95,76.06,75.93Z"/><path class="cls-9" d="M68.18,76A4.32,4.32,0,0,1,64.09,78C65,76.33,66.51,76,68.18,76Z"/><path class="cls-9" d="M60,80c-.85,1.59-2.31,2-3.95,2C56.91,80.39,58.4,80,60,80Z"/><path class="cls-9" d="M54,84c-.81,1.61-2.26,2-3.89,2.12C50.89,84.4,52.38,84,54,84Z"/><path class="cls-4" d="M644.18,86c-.1.66-.21,1.32-.31,2-1.51-1-1.8-2.45-1.74-4.07q.92.17,1.83.36A5.59,5.59,0,0,0,644.18,86Z"/><path class="cls-9" d="M46.17,90c-.08,1.64-.51,3.1-2.1,3.93C44.13,92.31,44.48,90.81,46.17,90Z"/><path class="cls-9" d="M32.23,100.06a4.59,4.59,0,0,1-4.12,2C29,100.34,30.51,100,32.23,100.06Z"/><path class="cls-9" d="M14.13,116c-.07,1.64-.48,3.11-2.06,4C12.12,118.32,12.47,116.82,14.13,116Z"/><path class="cls-9" d="M12.06,120c0,1.64-.4,3.12-2,4C10.11,122.35,10.45,120.86,12.06,120Z"/><path class="cls-9" d="M642,132a4.2,4.2,0,0,1,2.13-3.89C644,129.71,643.66,131.19,642,132Z"/><path class="cls-9" d="M4.15,145.84c1.93,1.42,2,2.81-.07,4.16C4.11,148.61,4.13,147.23,4.15,145.84Z"/><path class="cls-9" d="M4.09,150c0,1.66-.43,3.15-2,4.06C2.11,152.38,2.45,150.87,4.09,150Z"/><path class="cls-9" d="M638.23,155.94a4.29,4.29,0,0,1,1.8-4.07C640.06,153.5,639.79,155,638.23,155.94Z"/><path class="cls-9" d="M630.19,200a4.48,4.48,0,0,1,1.78-4.21C632.06,197.43,631.82,199,630.19,200Z"/><path class="cls-9" d="M3.9,202l-1.79.1c0-1.65.31-3.17,1.84-4.15l.29.21A2.64,2.64,0,0,1,3.9,202Z"/><path class="cls-9" d="M632,208.13a4.35,4.35,0,0,1-1.85-4.11C631.77,204.94,632.06,206.47,632,208.13Z"/><path class="cls-9" d="M634,214.14a4.26,4.26,0,0,1-1.81-4.11C633.79,211,634.06,212.49,634,214.14Z"/><path class="cls-9" d="M2.12,215.91c1.57.92,1.94,2.42,2,4.07C2.44,219.11,2.11,217.59,2.12,215.91Z"/><path class="cls-9" d="M634,248a4.46,4.46,0,0,1,2-4C636.05,245.62,635.7,247.13,634,248Z"/><path class="cls-9" d="M634.05,252c-1.83-1.36-2-2.72,0-4.08Z"/><path class="cls-9" d="M636,256.28A4.85,4.85,0,0,1,634,252C635.83,252.91,636.06,254.52,636,256.28Z"/><path class="cls-9" d="M12.1,257.94c1.57.9,1.93,2.38,1.92,4C12.42,261.08,12.11,259.58,12.1,257.94Z"/><path class="cls-9" d="M638,262.06c-1.54-.93-1.91-2.4-1.9-4.06C637.74,258.9,638.05,260.4,638,262.06Z"/><path class="cls-9" d="M14.09,264c1.57.89,1.94,2.36,1.94,4C14.43,267.1,14.11,265.6,14.09,264Z"/><path class="cls-9" d="M642,272.29a4.85,4.85,0,0,1-1.87-4.3C641.84,268.93,642.06,270.53,642,272.29Z"/><path class="cls-9" d="M16,280c0,1.65-.34,3.11-1.93,4C14.11,282.37,14.43,280.89,16,280Z"/><path class="cls-9" d="M14.09,284c0,1.66-.4,3.16-2,4.06C12.11,286.38,12.45,284.86,14.09,284Z"/><path class="cls-9" d="M10.06,294c0,1.66-.38,3.15-2,4.06C8.11,296.38,8.44,294.88,10.06,294Z"/><path class="cls-9" d="M645.85,302l.36-2c1.63,1,1.85,2.59,1.73,4.3C647.24,303.57,646.54,302.8,645.85,302Z"/><path class="cls-9" d="M646,316a5.13,5.13,0,0,1,1.92-4.31C648.06,313.44,647.84,315.06,646,316Z"/><path class="cls-9" d="M8.06,324c0,1.32,0,2.65,0,4C6,326.65,6,325.32,8.06,324Z"/><path class="cls-9" d="M636.18,326A4.18,4.18,0,0,1,640,323.8C639.31,325.54,637.83,325.93,636.18,326Z"/><path class="cls-9" d="M630,329.94a4.56,4.56,0,0,1,4-2.08C633.24,329.6,631.72,330,630,329.94Z"/><path class="cls-9" d="M625.71,331.83a5.17,5.17,0,0,1,4.35-1.92C629.15,331.76,627.5,332,625.71,331.83Z"/><path class="cls-9" d="M614.21,340a4.58,4.58,0,0,1,1.77-4.2C616.06,337.43,615.82,339,614.21,340Z"/><path class="cls-9" d="M605.92,353.93a4.11,4.11,0,0,1,2.24-3.76C608,351.79,607.61,353.24,605.92,353.93Z"/><path class="cls-9" d="M592.22,366.05a4.26,4.26,0,0,1,3.8-2.22C595.32,365.54,593.85,365.93,592.22,366.05Z"/><path class="cls-9" d="M585.85,369.9a4.91,4.91,0,0,1,4.19-2C589.22,369.71,587.61,370,585.85,369.9Z"/><path class="cls-9" d="M12.1,373.93a4.14,4.14,0,0,1,1.9,4C12.41,377.07,12.11,375.57,12.1,373.93Z"/><path class="cls-9" d="M14.1,380c1.55.91,1.94,2.39,2,4C14.45,383.11,14.11,381.61,14.1,380Z"/><path class="cls-9" d="M575.89,383.91a4.25,4.25,0,0,1,2.22-3.87C578,381.71,577.65,383.2,575.89,383.91Z"/><path class="cls-9" d="M16.08,384c1.58.84,2,2.32,2.18,3.94C16.49,387.2,16.13,385.68,16.08,384Z"/><path class="cls-9" d="M20.1,388.07c1.64,0,3.1.35,4,1.92C22.46,390,21,389.64,20.1,388.07Z"/><path class="cls-9" d="M566.24,392.06A4.06,4.06,0,0,1,570,389.8C569.33,391.53,567.86,391.93,566.24,392.06Z"/><path class="cls-9" d="M558.07,398a4.36,4.36,0,0,1,3.95-2.16C561.27,397.58,559.76,397.94,558.07,398Z"/><path class="cls-9" d="M34.09,398c1.65.06,3.13.44,4,2C36.43,400,34.93,399.61,34.09,398Z"/><path class="cls-9" d="M554.14,400a4.35,4.35,0,0,1,3.94-2C557.25,399.59,555.77,400,554.14,400Z"/><path class="cls-9" d="M38.08,400c1.66,0,3.15.43,4.05,2C40.46,402,39,401.62,38.08,400Z"/><path class="cls-9" d="M550.06,402a4.32,4.32,0,0,1,4-1.93C553.19,401.62,551.71,402,550.06,402Z"/><path class="cls-9" d="M44.11,402.09c1.65,0,3.1.34,4,1.89C46.49,404,45,403.66,44.11,402.09Z"/><path class="cls-9" d="M96.09,408c1.63,0,3.09.34,3.88,2C98.36,410,96.92,409.58,96.09,408Z"/><path class="cls-9" d="M537.85,415.89a4.88,4.88,0,0,1,4.18-2.05C541.22,415.71,539.61,416,537.85,415.89Z"/><path class="cls-9" d="M532.1,418a4,4,0,0,1,3.92-1.82C535.13,417.69,533.67,418,532.1,418Z"/><path class="cls-9" d="M527.8,419.87a4.8,4.8,0,0,1,4.28-1.86C531.14,419.75,529.54,420,527.8,419.87Z"/><path class="cls-9" d="M106.12,419.9l3.79.13c0,.66.06,1.33.08,2C108.36,421.94,106.88,421.57,106.12,419.9Z"/><path class="cls-9" d="M521.9,421.92A4.42,4.42,0,0,1,526,420.1C525.1,421.7,523.57,422,521.9,421.92Z"/><path class="cls-9" d="M516.06,424a4,4,0,0,1,4-1.8C519.11,423.69,517.65,424,516.06,424Z"/><path class="cls-9" d="M135.89,425.9c1.43-1.82,2.85-2,4.27,0Z"/><path class="cls-9" d="M512,425.89c.93-1.57,2.45-1.91,4.12-1.92C515.18,425.63,513.66,426,512,425.89Z"/><path class="cls-9" d="M114.11,425.89a4.7,4.7,0,0,1,4.13,2C116.52,428,115,427.64,114.11,425.89Z"/><path class="cls-9" d="M128,427.94a4.18,4.18,0,0,1,4.08-1.83C131.12,427.69,129.61,428,128,427.94Z"/><path class="cls-9" d="M144.13,429.87A4.24,4.24,0,0,1,148,432C146.37,431.94,144.88,431.57,144.13,429.87Z"/><path class="cls-9" d="M188.14,435.86c1.65.1,3.1.55,4,2.12C190.41,437.94,188.9,437.59,188.14,435.86Z"/><path class="cls-9" d="M506,440a4.62,4.62,0,0,1,2.08-4C508.05,437.64,507.69,439.15,506,440Z"/><path class="cls-9" d="M200.09,442a4.47,4.47,0,0,1,4.15,1.9C202.54,444,201,443.66,200.09,442Z"/><path class="cls-9" d="M238.12,447.88c1.64.1,3.09.54,3.91,2.14C240.38,449.94,238.89,449.58,238.12,447.88Z"/><path class="cls-9" d="M496.18,450A4.11,4.11,0,0,1,500,447.8C499.31,449.55,497.83,449.93,496.18,450Z"/><path class="cls-9" d="M244.1,451.92c1.64.08,3.11.49,4,2.08C246.4,454,244.91,453.59,244.1,451.92Z"/><path class="cls-9" d="M490,454a4.67,4.67,0,0,1,4-2.07C493.23,453.61,491.72,454,490,454Z"/><path class="cls-9" d="M252.11,456.08a4.08,4.08,0,0,1,4,1.91C254.46,458,253,457.65,252.11,456.08Z"/><path class="cls-9" d="M322.08,458c0-.59.07-1.18.13-1.76.63-.09,1.25-.18,1.87-.25l1.93,2Z"/><path class="cls-9" d="M313.85,461.89a4.52,4.52,0,0,1,4.19-1.78C317.08,461.72,315.53,462,313.85,461.89Z"/><path class="cls-9" d="M328.11,459.9c1.64.1,3.11.53,4,2.07C330.43,462,328.92,461.6,328.11,459.9Z"/><path class="cls-9" d="M332.09,462a4.69,4.69,0,0,1,4.15,2C334.52,464,333,463.64,332.09,462Z"/><path class="cls-9" d="M471.8,463.88a5,5,0,0,1,4.24-2C475.2,463.73,473.58,464,471.8,463.88Z"/><path class="cls-9" d="M338.12,464.13l2-.28,2.21,2C340.64,466,339.1,465.73,338.12,464.13Z"/><path class="cls-9" d="M465.73,465.84a4.75,4.75,0,0,1,4.31-1.73C469,465.75,467.45,466,465.73,465.84Z"/><path class="cls-9" d="M373.74,467.85a5.19,5.19,0,0,1,4.29-2C377.18,467.75,375.54,468,373.74,467.85Z"/><path class="cls-9" d="M418.09,468a4.76,4.76,0,0,1,4-2.09C421.25,467.59,419.76,468,418.09,468Z"/><path class="cls-9" d="M242.12,6l-2,2Z"/><path class="cls-9" d="M290.09,8l-2-2Z"/><path class="cls-9" d="M240.08,8l-2,1.95Z"/><path class="cls-9" d="M292.09,9.94l-2-2Z"/><path class="cls-9" d="M332.06,9.92c-.68-.64-1.37-1.27-2.06-1.9Z"/><path class="cls-9" d="M377.94,465.87c.77-1.47,1.52-1.34,2.25,0Z"/><path class="cls-9" d="M476,461.93l2.14-1.85C477.39,460.7,476.68,461.32,476,461.93Z"/><path class="cls-9" d="M478.17,460l1.93-2C479.46,458.71,478.81,459.36,478.17,460Z"/><path class="cls-9" d="M326.06,458.06l2.1,1.9Z"/><path class="cls-9" d="M319.84,459.92l2.24-1.93Z"/><path class="cls-9" d="M268,458l2.07-1.94Z"/><path class="cls-9" d="M248.08,454l2.21,1.91Z"/><path class="cls-9" d="M494,452l2.12-1.87Z"/><path class="cls-9" d="M242.07,450l2.07,1.92Z"/><path class="cls-9" d="M499.92,447.9l2-2.37A2.89,2.89,0,0,1,499.92,447.9Z"/><path class="cls-9" d="M236.09,446l2.08,2Z"/><path class="cls-9" d="M234.11,444.09l2,1.88Z"/><path class="cls-9" d="M502.37,443.92l1.74-1.83Z"/><path class="cls-9" d="M504.17,442c.63-.7,1.25-1.41,1.87-2.12C505.42,440.6,504.8,441.31,504.17,442Z"/><path class="cls-9" d="M196.1,440.07l2.21,1.85Z"/><path class="cls-9" d="M192.08,438l2.23,1.93Z"/><path class="cls-9" d="M186.11,433.93l2.07,2Z"/><path class="cls-9" d="M148.07,432.05l2.21,1.88Z"/><path class="cls-9" d="M142.14,427.89l2,2Z"/><path class="cls-9" d="M140.13,425.9l2.05,2Z"/><path class="cls-9" d="M112.07,424l2.09,1.94Z"/><path class="cls-9" d="M110.06,422.07l2,1.92Z"/><path class="cls-9" d="M104.13,417.92l2,2Z"/><path class="cls-9" d="M102.14,415.82l2,2.12Z"/><path class="cls-9" d="M541.94,413.92l2.14-1.92Z"/><path class="cls-9" d="M100.11,411.9,102,414Z"/><path class="cls-9" d="M544.09,412l2-2Z"/><path class="cls-9" d="M546.11,410l1.86-2.38Z"/><path class="cls-9" d="M60.07,406l2.15,1.92Z"/><path class="cls-9" d="M548.18,404a2.13,2.13,0,0,1,1.89-2Z"/><path class="cls-9" d="M32.07,396c.68.65,1.36,1.3,2,1.94Z"/><path class="cls-9" d="M561.93,395.91l2.14-2Z"/><path class="cls-9" d="M30.11,394.14,32,396Z"/><path class="cls-9" d="M564.05,394l2.06-1.84C565.43,392.76,564.74,393.37,564.05,394Z"/><path class="cls-9" d="M26.1,391.94l2.09,2Z"/><path class="cls-9" d="M24.08,390l2,2Z"/><path class="cls-9" d="M569.92,389.9a2.86,2.86,0,0,1,2.07-2.07Z"/><path class="cls-9" d="M571.92,387.9a2.84,2.84,0,0,1,2.07-2.07Z"/><path class="cls-9" d="M573.92,385.9a2.81,2.81,0,0,1,2.06-2.07Z"/><path class="cls-9" d="M578.13,380l1.88-2.14Z"/><path class="cls-9" d="M582,372a2.19,2.19,0,0,1,2-1.83Z"/><path class="cls-9" d="M590,367.93l2.15-1.81Z"/><path class="cls-9" d="M595.94,363.92l2.11-2Z"/><path class="cls-9" d="M598,362l2.08-2Z"/><path class="cls-9" d="M600.07,360l2-2Z"/><path class="cls-9" d="M602.06,358l2-2.09Z"/><path class="cls-9" d="M604,356l2-2.1Z"/><path class="cls-9" d="M608.26,350l1.8-2.1Z"/><path class="cls-9" d="M610,348l1.91-2.46A3,3,0,0,1,610,348Z"/><path class="cls-9" d="M612.2,344l1.78-2.31C613.39,342.41,612.79,343.18,612.2,344Z"/><path class="cls-9" d="M634,327.93l2.14-1.84Z"/><path class="cls-9" d="M639.92,323.89a2.8,2.8,0,0,1,2.07-2.06Z"/><path class="cls-9" d="M641.92,321.9l2-2.37A2.86,2.86,0,0,1,641.92,321.9Z"/><path class="cls-9" d="M644.33,317.92l1.73-2Z"/><path class="cls-9" d="M12,290c-.64.69-1.29,1.38-1.93,2.08C10.75,291.38,11.4,290.69,12,290Z"/><path class="cls-9" d="M4.09,220,6,222Z"/><path class="cls-9" d="M4.14,185.83,6,188Z"/><path class="cls-9" d="M2.14,181.82c.62.72,1.25,1.44,1.88,2.15C3.39,183.26,2.76,182.54,2.14,181.82Z"/><path class="cls-9" d="M6.06,136l-1.92,2.17Z"/><path class="cls-9" d="M7.93,134,6.08,136Z"/><path class="cls-9" d="M644.16,128,646,125.7Z"/><path class="cls-9" d="M646.2,124l1.77-2.3Z"/><path class="cls-9" d="M16.05,114l-2,2Z"/><path class="cls-9" d="M18,112,16.07,114Z"/><path class="cls-9" d="M20.16,108l-2,2.13Z"/><path class="cls-9" d="M22.27,106.05l-2.14,2Z"/><path class="cls-9" d="M26.07,104l-2,1.9Z"/><path class="cls-9" d="M28.15,102l-2.07,2Z"/><path class="cls-9" d="M44.06,94,42.1,96Z"/><path class="cls-9" d="M48.16,88l-2,2Z"/><path class="cls-9" d="M50.16,86l-2,2Z"/><path class="cls-9" d="M56.11,82l-2,1.93Z"/><path class="cls-9" d="M62.23,78,60.07,80Z"/><path class="cls-9" d="M82.13,74l-2,2Z"/><path class="cls-9" d="M84.24,72l-2.13,2Z"/><path class="cls-9" d="M88,70l-1.9,1.87Z"/><path class="cls-9" d="M90.11,68l-2,1.92Z"/><path class="cls-9" d="M92.25,66.05l-2.16,2Z"/><path class="cls-9" d="M96.12,64l-2,1.9Z"/><path class="cls-9" d="M642.08,58l-1.94-2Z"/><path class="cls-9" d="M640.09,55.93l-2-2Z"/><path class="cls-9" d="M638.09,53.93l-2-1.94Z"/><path class="cls-9" d="M126.2,52l-2.1,1.89Z"/><path class="cls-9" d="M172,40l-1.92,2.15Z"/><path class="cls-9" d="M612.05,40.05l-2-2Z"/><path class="cls-9" d="M610.06,38c-.72-.66-1.43-1.33-2.14-2C608.63,36.71,609.34,37.38,610.06,38Z"/><path class="cls-9" d="M606.07,35.93,603.94,34Z"/><path class="cls-9" d="M588.15,34c-.71,1.32-1.41,1.39-2.1,0Z"/><path class="cls-9" d="M176.16,34c-.68.67-1.35,1.35-2,2C174.81,35.39,175.48,34.71,176.16,34Z"/><path class="cls-9" d="M548.06,32,546,30Z"/><path class="cls-9" d="M182.19,30,180.07,32Z"/><path class="cls-9" d="M544.07,29.92,542,28C542.67,28.66,543.37,29.29,544.07,29.92Z"/><path class="cls-9" d="M186.2,28l-2.09,1.85Z"/><path class="cls-9" d="M496.07,26,494,24Z"/><path class="cls-9" d="M416,24c-.64.65-1.29,1.3-1.94,1.94C414.74,25.27,415.39,24.63,416,24Z"/><path class="cls-9" d="M452.09,24,450,22Z"/><path class="cls-9" d="M418.1,22l-2,1.94Z"/><path class="cls-9" d="M202.1,22l-2,2Z"/><path class="cls-9" d="M374.19,14l-2.1,1.91Z"/><path class="cls-9" d="M370.06,15.92l-2-1.92Z"/><path class="cls-9" d="M294.08,10c-.66,1.14-1.32,1.17-1.95,0Z"/><path class="cls-9" d="M340.19,8,338.07,10Z"/><path class="cls-7" d="M242.08,254c-2.26-1.9-4.54-3.78-6.78-5.7-1.28-1.1-3-2.69-4.32-1.91-6.56,3.76-13.33-.71-20.27,1.18-11.29,3.07-22.8-3.2-26.64-17.54,3.45,1.69,7.52,2.39,9.79,6,2.27.1,3.74,1.72,5.46,2.85a6.81,6.81,0,0,0,6.76.95c3.35-.89,5.58-4.36,9.42-4.07,3.32-1.43,5.5-.06,7.65,2.56,5.77,7,9.17,7.23,16.2,1.34,4.62-3.87,8.22-8.64,11.57-13.62.69-1,1.13-2.43,2.71-2.56C263.06,239.67,269,243,285.18,241c1,5.75,1.95,11.54,2.89,17.33,1.59,9.76,5.48,17.66,15.93,20.7,2.1.62,4.23.65,4.68,4.77,2.14,19.81,22,37.38,42.07,38.15,3.95.15,7.91,0,12.33,0a13.63,13.63,0,0,1-5.94,11.52c-5.45,3.87-9.73,9-15.33,12.65-5.88,3.8-10.06,8.79-9.7,16.28.17,3.77-1.78,5.31-5.05,6.19a56.22,56.22,0,0,0-7.49,2.69c-13.65,5.86-18.37,14.84-15.44,29.25.4,1.92.83,3.83,1.2,5.54-1.85,2.58-4.51,1.37-6.59,2.1-9.48,3.32-17.82,7.8-18.73,19.41-.34,4.43-2.8,4.8-6.18,3.17-4.8-2.31-9.45-5-14.35-7-7.66-3.18-15.44-6.78-23.56-1-1.61,1.14-3.09.45-4.55-.55-1.65-1.12-3.35-2.15-5.1-3.11-8.35-4.59-16.28-4.74-24,1.64-5.09,4.18-5.71,3.81-10.15-2.75-1.05-4,1.91-7.69.72-11.68a3.91,3.91,0,0,1,1.26-2.32c2.14-1.7,6.47-3.43.94-5.87-5.26-2.32-8.16-6.38-10.45-11.19-2.72-5.69-5.67-10.85-12.15-13.45-4.1-1.64-4.9-5.9-3.81-10.1A31.55,31.55,0,0,1,174.06,352c-.23-4.37,2.71-6.34,6.06-8,2.46-1.91,2-4.67,1.92-7.2-.58-11.49,2.38-20.66,15-23.82.51-.12.83-.94,1.24-1.44,4.29-.41,6.22,3.2,9.05,5.27,6.23,4.57,7.87,3.84,10-4.44-.86-8.12-10.77-7.55-13.39-14,.69-12.59,9.49-17.22,19.87-20.42,3.83-1.18,8.93-.39,10.19-6-1.11-3.84,1.87-5.43,4.34-6.45C244.49,263,244.5,259,242.08,254Z"/><path class="cls-4" d="M406.09,218c.66,0,1.32,0,2,0,2.71,10.17,7.8,18.22,18.67,21.27,10,2.79,18.8-2.6,28.15-3.94,2.49,3.36.08,7.38,1.86,10.77,2.89,1.26,4.85-1.34,7.31-1.82,4.21-.81,7.18,1,9.13,4.49s-.55,5.56-2.64,7.75A17.75,17.75,0,0,1,457,261.79c-6.33-.17-9,3.07-10.72,8.28a13.52,13.52,0,0,0-.75,2.89c-.73,9.43-4.9,16.91-10.7,24.48s-5.29,17.54-4.7,26.93c.13,2,1.21,4.35.45,5.8-5.09,9.65-1.92,18.69,1.45,27.79-7.5-3-11.42,3.05-16,6.65-2.74-.85-2.35-3.26-1.67-4.08,4.49-5.43,2.18-10.29-.65-15.32-1.29-2.31-2.85-4.71-3.24-7.23-1.08-7-1.44-13.92,5.35-18.93,1.71-1.26,4.08-2.18,5.06-5.26-7.5-3.62-11.95-9.84-14-18a17.42,17.42,0,0,1-.7-6.85c.51-3.35,2.35-4.82,5.55-3a40.88,40.88,0,0,1,5.53,4.17c2.82,2.33,5.38,2,7.95-.42s3.16-4.74,1.69-8c-2.4-5.35-7.21-7.46-12-9.59-1.11-.48-2.61-.08-3.34-1.61,1.76-3.82,5.83-2.33,8.73-3.47,4.64-1.82,9.42-3.35,13.53-6.18,5.19-3.58,5.41-6.88.72-11.3-7.67-7.23-17.28-10.62-27.17-13.68-7.66-2.38-15.93-.39-23.32-3.9C389.24,223.89,398.32,222,406.09,218Z"/><path class="cls-4" d="M276.08,204c4.35,5,10.11,4.19,15.72,3.65,1.62-.15,3.18-1.29,4.77-1.32,8.47-.12,17.13-4.19,25.18,3,3.17,2.83,8.6,2.87,13.4,2.75,10.31-.26,20.62-.06,30.93,0-.79,5.24-5.14,4-8.37,4.37-3.94.47-7.94-.05-11.64.19,4.65,5.72,14.94,2.75,18,11.41-1.31.1-2.78-.16-3.91.35-11.37,5.11-22.29,3.12-33.13-1.75a67.75,67.75,0,0,0-7.51-2.41c-.45.13-.9.25-1.35.39-.44-.14-.89-.29-1.34-.42-5.27-3.59-10.34-7.62-17.15-7.88a7.78,7.78,0,0,1-5.09-2.11c-6.71-1.75-13.45-3.53-19.56-6.86C272.21,205.77,273.3,204.34,276.08,204Z"/><path class="cls-3" d="M364.07,228c-5.43-3.93-12.42-4.36-18-8-2.16-1.41-5-1.87-7.1-5.33,5.59-1.28,10.74-.32,15.74-.75,3.82-.33,8,1.48,11.36-1.91,11-1.46,21.48,1.5,32,4,1.64,1.84,4.38.19,6.06,1.91.65,0,1.31,0,2,0-6,6.72-14.5,9.61-22,14-3.93,0-7.86-.07-11.79,0C368.82,232.08,365.72,231.58,364.07,228Z"/><path class="cls-10" d="M182.08,228c-.33,0-.78.06-1-.12-7.38-7-16.55-8.08-26.19-8.79-6.13-.46-12.41-1.89-17.84-5.49-3.56-2.36-7.72-1.47-11.66-1.59s-8-.22-12-.32a2.79,2.79,0,0,1,.7-2.42c2.34-1.43,4.77-2.41,7.56-1.41,5.15-.33,10,4,15.4.88a3.11,3.11,0,0,1,2.76.52c10.79,9.15,22.35,4,33.73,1.86.95-.18,1.79-.86,2.73-1.14a25.61,25.61,0,0,1,3.17-.5C180.39,215.74,181.24,221.86,182.08,228Z"/><path class="cls-7" d="M64.07,194a31,31,0,0,0-10-10c1.18-2.22,2.67-4.53,5.13-1.71,7.47,8.55,16.71,6.56,25.62,4.05,4.67-1.31,6.53-1.13,7.42,4,.73,4.16,2.69,8.1,4.11,12.14a3.19,3.19,0,0,1,.51,2.36c-.65,1.13-1.36,2.1-2.83,1.06a15.2,15.2,0,0,0-1.33-6.67c-1.91-4.27-5-6.4-9.4-4.65-6.62,2.62-12.88,1.09-19.24-.59Z"/><path class="cls-11" d="M384.45,430c-.15,9.63-1.46,11.45-10.2,13.55-4.47,1.08-9,.91-13.61.91s-5.33-2.74-4.87-6.46l2.35-1.93c7-.65,14.08-1.17,16-10C378.42,425,381.6,427.06,384.45,430Z"/><path class="cls-12" d="M193.86,406.1c2.94,4.49,1,8.26-1.78,11.9-3.33,1.09-6.67,1.7-10,0-3.09-4.09-7.2-7.36-9.59-12-1.6-3.12-3.85-6.09-2.08-9.91,2.15-1.72,5.23-1.75,5.88.48C179,406,187,404.76,193.86,406.1Z"/><path class="cls-13" d="M358.08,360c2.25-2.89,5.44-2,8.31-1.86,3.71.16,6.15,2.48,7.27,5.84,1.2,3.63-.38,6.7-3.43,8.56-6.32,3.86-13.3,6.19-20.7,4.84-5.94-1.08-6.21-4-1.44-9.37,2.51,1.55,5,2.94,8.16,1.86,2.76-1,6.14-1.6,6.81-4.75C363.77,361.76,359.25,362.24,358.08,360Z"/><path class="cls-14" d="M342.06,315.75l-2-.09c-1.15-.73-2.72-.59-3.67-1.76-3.52-7.06-3.55-8.74,1-12.9s9.92-7.83,16.24-9.06c5.22-1,6.82,1.35,4.71,6.21C348,299.48,347,309.45,342.06,315.75Z"/><path class="cls-15" d="M336.08,408c-1.7,7.06-4.95,12.95-12,16a4.76,4.76,0,0,1-4.69.7c-3.14-1.16-3.12-3.87-2.62-6.61,1.44-7.75,7.2-11.66,13.69-14.43C333.73,402.27,336.14,404,336.08,408Z"/><path class="cls-16" d="M330.11,242a20.4,20.4,0,0,1-8,12c-3.19,1.33-6.59,2.15-8.87-1.15-2.08-3-1.15-6.43.51-9.43,2.12-3.84,4.85-7.12,9.42-8.24C329.13,233.7,332.47,234.92,330.11,242Z"/><path class="cls-17" d="M306,414.23c4.44,3.21.83,6.69,0,9.73a22.21,22.21,0,0,1-9.43,12.45c-3.53,2.32-7.33,2.9-10.94-.12,1.23-1.8,3.06-2.87,3.58-5.55C291,421.6,298.27,417.59,306,414.23Z"/><path class="cls-18" d="M306,414.23a4.23,4.23,0,0,1-2.57,3.69c-6.61,3.21-12.12,7.48-12.68,15.64-.25,3.78-3.37,1.95-5.15,2.73-4.68-6.28-4.85-8.63-.29-13.1,3.47-3.39,7.39-6.25,12.21-7.55,1-.05,1.73-.85,2.61-1.24C302.07,413.74,304,413.36,306,414.23Z"/><path class="cls-19" d="M330.11,242c-.16-2.58.22-5.5-3.57-5.84-5.64-.51-14,10-12.06,15.23,1.39,3.82,4.9,2.2,7.6,2.62-1.3,1.9-3.29,2-5.3,2-3.4.06-6.59-.05-8.5-3.68s-.75-7.14,1.2-10.21c1-1.56,3-2.45,4.6-3.64.07-2.52,1.64-4,3.65-5.13a2.16,2.16,0,0,1,2.33.65,30.67,30.67,0,0,0,3.73-.88c2.45-.89,5.3-2.17,7.1.24A6.12,6.12,0,0,1,330.11,242Z"/><path class="cls-20" d="M358.08,360a5.55,5.55,0,0,1,1,0c3,.6,7.59-1.79,8.45,2.78.76,4-3.17,6.41-6.23,8.23-2.17,1.31-5.08,1.32-7.58,2.16-5.14,1.73-5.65-1.39-5.63-5.17C350.07,363.64,354.14,361.89,358.08,360Z"/><path class="cls-21" d="M94.05,205.91l2.33-1.76c7.09.08,10.93-4.3,13.75-10.06,3.52-.34,7.2-1.56,10,1.86a13.47,13.47,0,0,1-6.55,11.32c-1.32.83-3,.92-4.41,1.53,1.9-.08,3.93-.66,5.26,1.38a7.49,7.49,0,0,0-1,1.5c-4.87.2-9.73.45-14.6.6C94.34,212.42,93.43,209.72,94.05,205.91Z"/><path class="cls-22" d="M342.06,315.75c-.32-7.31,3.17-12.62,8.45-17.33,2.86-2.53,5.16-1.77,7.81-.27C355.75,309.9,351.58,314.4,342.06,315.75Z"/><path class="cls-23" d="M320.06,234a10,10,0,0,1-1.62.55c-6.11,1-11.14-2.62-16.69-4-4.48-4.52-8.22-9.38-7.16-16.34H300c4.39,6.18,9.36,11.31,17.93,9.92l0,0c1.44.9.8,2.76,1.81,3.85Q319.93,231,320.06,234Z"/><path class="cls-24" d="M336.08,408c-1.58-3.06-3.25-4.34-7-2.21-4.91,2.81-7.65,6.91-9.83,11.81-2.33,5.25.23,6.51,4.81,6.41-4.41,3.83-7.89,1.73-10.64-2.05-2.49-3.44-1.34-6.66,1.35-9.73a32,32,0,0,1,15.51-9.88C335.06,401,336.73,402.91,336.08,408Z"/><path class="cls-25" d="M206.07,242c-3.24,1.32-6.24,1.19-8.8-1.48.06-8.11,6.16-12.93,10.28-18.82,2-2.22,4.82-3,7.57-3.56,2.93-.62,5,.28,4.65,3.9-1.39,1.75,0,4.31-1.72,5.95h0C209.36,228.61,208.52,236,206.07,242Z"/><path class="cls-26" d="M368.2,235.82c8,5.49,8,11.3.05,15.08-1.72.82-3.79.89-5.7,1.3a37.19,37.19,0,0,1-16.66,0l0,0a4.07,4.07,0,0,1-.07-4.43l-.06-.06C355.8,248.51,363.14,244.32,368.2,235.82Z"/><path class="cls-27" d="M378.71,332c-.9-2.29-2.11-4.62,1-6.32,2.25-1,2.86.69,3.48,2.19,2.91,7.06,7.65,11.46,15.75,11.39,3.35,0,5.16,1.31,3.31,4.94-6.27,7.36-8.71,7.15-16.44-1.47a3.16,3.16,0,0,0-1.94-2.63l.1.13a8.55,8.55,0,0,0-1.75-2.3l0-.07a3.21,3.21,0,0,1-1.31-1.85c-.27-.62-.53-1.25-.8-1.88A8,8,0,0,1,378.71,332Z"/><path class="cls-28" d="M18.08,188c2-2.65,5.54-2.38,8-4.21,3.58.66,4.6,2.88,3.79,6.22-4.85,5.33-12,9.14-11.85,17.8-2.68,1.77-5.39,2.92-8.31.46C7.78,199.55,14.47,194.41,18.08,188Z"/><path class="cls-29" d="M374.11,426c1.37,6.18-1.63,11-7.47,11.88a12.74,12.74,0,0,1-8.52-1.9C361.82,430.08,366.66,426,374.11,426Z"/><path class="cls-30" d="M206.07,242c-1.43-6.28,2.52-14.56,8.21-16.57,1.76-.62,2.24,2.05,3.76,2.56.48,3-2.2,5-2.54,7.79C212.33,237.78,210.71,242.16,206.07,242Z"/><path class="cls-31" d="M386.1,325.94c7.07.56,12.54,3.61,15.79,10.13-5.42,7.13-10.53,2.37-15.15-.82C383.33,332.9,380.75,329.41,386.1,325.94Z"/><path class="cls-32" d="M368.2,235.82c-2.47,12.05-10.75,16.44-22.4,11.87a4.16,4.16,0,0,1,2.33-3.66c4.66-1.24,9.49-2.05,12.43-6.65,1.91-3,4.82-2.73,7.76-1.7Z"/><path class="cls-33" d="M18,207.8c-2.1-7-.19-12.41,5.54-15.35A64.88,64.88,0,0,1,29.85,190c0,1.31,0,2.62.07,3.93C26.14,198.71,24.8,205.6,18,207.8Z"/><path class="cls-34" d="M386.1,325.94c-2.06,3.21-2,6.31,1.46,8.25,4.43,2.47,9,5.34,14.33,1.88,1.48,2.66,2.67,5.34.31,8.15-.29-1.25-.57-3.13-2-2.9-12.51,2.13-16.85-6.3-20.58-15.62C381.88,323.77,384,324.9,386.1,325.94Z"/><path class="cls-35" d="M207.55,221.66a13.93,13.93,0,0,1,1.18,1.37c-4.75,5.21-7.33,11.84-11.46,17.45-1.78-1-2.51-2.8-3.41-4.47.26-6.46,4.52-9.72,9.76-12.2a8.29,8.29,0,0,0,2.44-1.57A1.72,1.72,0,0,1,207.55,221.66Z"/><path class="cls-36" d="M114.46,210.18c-2.13-.59-4.51.46-7.51-1.6,7.17-1.85,9.29-8.07,13.21-12.63,5.15,3.35,2.72,7.71,1.57,11.9C119.36,208.79,117.24,210.51,114.46,210.18Z"/><path class="cls-37" d="M110.13,194.09c1.51,2.72,1.14,5.51-1.31,7.06-3,1.94-4.92,5.76-8.8,6-1.14.08-2.42-2-3.64-3a5.44,5.44,0,0,1,0-1.66C100.68,199.23,104,194.33,110.13,194.09Z"/><path class="cls-38" d="M368.32,235.68c-3.07.29-5.07,1.18-6.81,4.5-2.92,5.58-6.21,6-13.38,3.85C353.33,237.54,359,232.15,368.32,235.68Z"/><path class="cls-39" d="M301.75,230.51c.7-.62,1.87-1.89,2-1.78,4.39,3.26,10.54,2,14.68,5.8-.68,2.16-2.63,2.93-4.36,3.93C308.23,238.51,304.5,235.28,301.75,230.51Z"/><path class="cls-32" d="M345.89,252.15l16.66,0C357,254.4,351.44,255.42,345.89,252.15Z"/><path class="cls-30" d="M218.05,228c-.12-2.19-.26-4.38,1.73-5.95C220.33,224.31,220,226.37,218.05,228Z"/><path class="cls-40" d="M319.8,228a4.08,4.08,0,0,1-1.81-3.85q.76,0,1.53.06C319.62,225.45,319.71,226.72,319.8,228Z"/><path class="cls-32" d="M345.86,247.75c0,1.47.05,2.95.07,4.43C343.42,250.74,343.86,249.26,345.86,247.75Z"/><path class="cls-22" d="M336.41,313.9a4,4,0,0,1,3.67,1.76A3.05,3.05,0,0,1,336.41,313.9Z"/><path class="cls-17" d="M300.13,414.4a2.48,2.48,0,0,1-2.6,1.24A2.42,2.42,0,0,1,300.13,414.4Z"/><path class="cls-34" d="M383.82,340.12a2.78,2.78,0,0,1,1.94,2.63A3.42,3.42,0,0,1,383.82,340.12Z"/><path class="cls-34" d="M382.17,338c.58.77,1.17,1.53,1.75,2.29A2.41,2.41,0,0,1,382.17,338Z"/><path class="cls-34" d="M380.82,336l1.31,1.85Z"/><path class="cls-34" d="M378.71,332c.43.71.87,1.42,1.31,2.13A2.12,2.12,0,0,1,378.71,332Z"/><path class="cls-25" d="M206.06,222.24l-2.44,1.57A2.64,2.64,0,0,1,206.06,222.24Z"/><path class="cls-41" d="M64.08,194c1.23,2,2.85,3.79,3.57,5.92,1,3.1.24,6.2-3,7.61-6.06,2.69-12.35,5-19.14,4.29-4.88-.5-6-3.14-3.48-7.71,4.81-8.79,12.69-11,22-10.12Z"/><path class="cls-42" d="M242.08,254a30.41,30.41,0,0,1,3.88,3c3,3.2,2.37,5.67-1.49,7.83-3.66,2.06-8.33,2.76-10.42,7.13-2.65,0-5.3,0-7.94,0-2.29,0-4.86.23-5.68-2.73-.67-2.42.27-4.45,1.84-6.37C227.41,256.56,233.65,252.86,242.08,254Z"/><path class="cls-43" d="M92.07,340c3.09,3.6,3.19,7.75-.3,10.48a9.7,9.7,0,0,1-12.08-.21c-5.12-3.89-8.24-9.48-10.86-15.24-1.2-2.64-.09-4.81,2.92-4.86,3.5-.06,7.37-1.46,10.33,1.81-5.34,2.37-6,4.9-.35,7.82C85.18,341.55,88.6,341.23,92.07,340Z"/><path class="cls-44" d="M122,381.72c-5.06,1.36-9.3.52-11.3-4.86-1.85-5,1.13-8.2,4.76-10.8,5.57-4,11.07-8.34,18.58-7.78,1.64,2.13,1.78,5.22-.4,5.88C124.63,366.89,123.63,374.43,122,381.72Z"/><path class="cls-45" d="M180.09,306c-.78.58-1.53,1.61-2.36,1.67-3.85.27-8.14,1.64-10.8-2.66-2.21-3.58-.89-8.57,3.53-12.26,3.53-2.94,7.2-5.72,11.78-7.11,6.92-2.1,8.12-1.28,7.83,6a5.29,5.29,0,0,1-2,4.33c-2.35-2.3-4.51-4.89-7.89-1.15S176.84,302.24,180.09,306Z"/><path class="cls-46" d="M220,312c.87,4.16.47,7.93-3.86,10-4.6,2.17-8.16.15-11.24-3.27-2.18-2.41-4.38-4.79-6.58-7.19-.17-4.08-5.71-7-2.6-11.77,1.55-.69,3.56-1.32,4.37.4C204.08,308.66,212,310.28,220,312Z"/><path class="cls-47" d="M164.07,238c6,.28,9.42,5.19,14,8,1.42,3.55,2.33,7.3-1.88,9.38-3.46,1.72-7.1.91-10.14-1.67s-6-5.36-7.71-8.94C155.31,238.58,157,235.87,164.07,238Z"/><path class="cls-48" d="M154.07,346c4.53-7.58,11.18-11,20-10,3.12,1.87,3.73,4.35,2.12,7.61-2.72,5.5-14.41,10.18-20.11,7.85C153.57,350.42,152.38,348.66,154.07,346Z"/><path class="cls-49" d="M126.07,252c-3.95,3.47-8.06,3.89-12.29.55-4.68-3.7-5.08-8.71-.49-12.48a58.71,58.71,0,0,1,15.07-9.12c2.18-.89,4.66-1.69,6.44.23,2.06,2.24,1.67,4.78-.7,6.86-5.61-1.07-9.83.92-12.27,6C119.79,248.35,124.12,249.61,126.07,252Z"/><path class="cls-50" d="M20.15,326c-4-6.7-4-8.49.32-12.62a39.41,39.41,0,0,1,16.11-9.22c5.14-1.51,6.64,1,5.32,5.8-11.41.53-11.95,10.7-15.85,17.88l-2-.06C23,326.73,21.15,327.23,20.15,326Z"/><path class="cls-51" d="M126.07,252c-2.71-.37-6.3,1.21-7.57-2.62a8.51,8.51,0,0,1,2.22-9,20.57,20.57,0,0,1,8.89-5.88c2.9-.87,4.22.8,4.49,3.55C133.8,244,128.91,247.41,126.07,252Z"/><path class="cls-52" d="M220,312c-10.22,2.18-15.76-.19-20.79-9.65a4.43,4.43,0,0,0-3.49-2.61c2.36-3,5.5-1.11,8.3-1.36,3.44,1.72,7.08,3.16,10.27,5.26C217.16,305.57,220.17,307.81,220,312Z"/><path class="cls-53" d="M60,266c-3.35-4.63-8.22-8.19-9.89-14-1.2-1.06-.76-2.81-1.68-4,0-.68-.08-1.35-.11-2,.57-.71,1.17-1.39,1.79-2.07a4.71,4.71,0,0,1,4,0l.87,1c.13.43.26.86.42,1.28C57,252.84,62,255.63,68,256.73c4.58.83,6.44,2.57,4,7.07l-4.13,4.09c-1.42,1.74-3.26,1.77-5.23,1.28A4.41,4.41,0,0,1,60,266Z"/><path class="cls-54" d="M122,381.72c-2.57-9.07-.25-15.2,8-18.29,3.06-1.13,4.58-1.9,4-5.15a2.19,2.19,0,0,1,1.95,1.89C136.48,368.62,130.32,378.06,122,381.72Z"/><path class="cls-55" d="M164.07,238c-6.52,1.7-7.21,2.84-3.87,7,1.84,2.29,4.15,4.19,6.19,6.33a8.27,8.27,0,0,0,9,2.29c3.88-1.26,2.28-4.86,2.67-7.58,1.9,1.31,2,3.3,2,5.33,0,3,.34,6.33-3,7.81-3.54,1.55-7.15,1.44-10.18-1.44-4.1-3.89-8.41-7.62-10.51-13.11-.9-2.35-3.23-4.83-.23-7.13C158.75,235.43,161.59,235.19,164.07,238Z"/><path class="cls-56" d="M70,381.78c-7.18,2.59-11.1-2.61-15.57-6.51-.82-3.33-4.25-5.34-4.53-8.94-.89-1.31-.57-3.07-1.59-4.33l.18-1.93c.77-.63,2-1.36,2.57-.67,5.45,6.54,11.52,12,20.23,13.9,2,.43,2.09,3,1,5Z"/><path class="cls-57" d="M154.07,346c.26,1.66.73,3.24,2.59,3.72,6.4,1.67,15.51-2.42,18.48-8.23,1.11-2.15-.49-3.7-1.08-5.48,5.2.26,6.19,3.71,6.06,8-1.17,3.31-3.69,5.59-6.06,8-6.2-.52-11.94,3.08-18.23,2-2.37-.42-4.65-1-5-3.68C150.47,348,152.28,346.89,154.07,346Z"/><path class="cls-58" d="M193.86,406.1c-4,2.23-8,2.76-12.18.62-3.79-2-7.64-3.73-7-9.35.16-1.55-2.67-1.15-4.23-1.29a6.7,6.7,0,0,1,.3-1.77c9.3-.44,16.69,3.75,23.35,9.69C194,404.7,193.92,405.4,193.86,406.1Z"/><path class="cls-59" d="M180.09,306c-4.78.3-7-1.76-5.51-6.54a14.79,14.79,0,0,1,4.65-7.48c2.05-1.64,4.36-3.86,7-3,3.24,1.12,1.41,4.57,1.91,7C186.19,299.94,184.43,304,180.09,306Z"/><path class="cls-59" d="M62.5,267.75l5.38.14c1.52.38,3.22.4,2.8,2.88-.88,5.32-4.25,8.62-8.59,11.23-4.51,1.95-8.6.94-8.91-4.05C52.82,272.27,55.58,267.66,62.5,267.75Z"/><path class="cls-60" d="M112.64,302.3c-4.11,2.64-8.76,2-13.19,1.77-5.82-.26-6.18-1.44-3.31-8,9.13,1.2,13.59-6.76,20.3-10.32,1.66.06,3.18.37,4,2.09-.25,6.15-2.76,10.62-9.06,12.34-.7.19-1.56.09-2.07.82A3.22,3.22,0,0,1,112.64,302.3Z"/><path class="cls-61" d="M92.07,340c-.22,2.78-1.78,3.9-4.51,4-6.51.19-10.92-3.22-13.94-11,2.65-1.82,5.65-.62,8.46-1,2.93,1.66,6.52,2.43,8,6,.7.64,1.23,1.44,2,2Z"/><path class="cls-62" d="M116.44,285.71c-1.47.93-1.85,2.51-2.61,4-4,7.58-9,9.29-17.69,6.37C101.07,289,106.93,283.76,116.44,285.71Z"/><path class="cls-63" d="M18.08,188c1.15.25,3.4,1,2.47,1.76-5.92,4.92-8,11.87-10.86,18.51-3.57-.59-4.3-3.8-5.79-6.3l.34-3.84,1.7-2.51,5.65-3.82a6.57,6.57,0,0,0,2.52-1.74l0,0c1-1.24,2.92-.78,3.93-2.05Z"/><path class="cls-64" d="M62.5,267.75a12.63,12.63,0,0,0-5.29,4.38c-4.42,6.18-3.4,8.2,4.88,9.87-7,2.7-10.84,1.9-13.15-2.74-1.91-3.82-.18-7.95,4.58-11.62,2-1.53,4.17-1.63,6.45-1.64Z"/><path class="cls-65" d="M54,358.22c7.43.59,13.66,3.31,17.76,9.87-2.73,5.27-6.94,4.44-10.73,2C57,367.37,50.91,365.38,54,358.22Z"/><path class="cls-66" d="M54,358.22c2.24,9.53,8.33,12.91,17.76,9.87,2.27,3.31,3.51,6.67.45,10.22-.39-2-1-4-3.43-4.12-8.87-.36-14.54-4.91-17.73-13-.24-.61-1.7-.74-2.59-1.1C49.49,356.89,51.9,358,54,358.22Z"/><path class="cls-67" d="M56.06,244.05c7.09.49,12.67,3.4,16,9.94-8.33,4.43-13.54,2.11-18-8h0A13.89,13.89,0,0,1,56.06,244.05Z"/><path class="cls-68" d="M26.05,327.8c-.49-6.19.82-11.65,5.41-16.3,3.29-3.33,6.46-4.31,10.44-1.58,0,.67-.1,1.34-.16,2-5.38,3.21-8.92,7.68-9.65,14.08C30.52,328.09,28.41,328.36,26.05,327.8Z"/><path class="cls-69" d="M112.64,302.3l-6.66-.72c7.2-2.26,11.37-7.42,14.41-13.78C125.36,296.81,123.85,299.63,112.64,302.3Z"/><path class="cls-70" d="M54.1,246c4.07,7,9.88,10.05,18,8,2.18,3.29,3.24,6.56-.06,9.81-.4-1.93,1.13-4.66-3.14-4.51-6.87.24-11.43-4.24-15.46-9.19C52.16,248.58,52.37,247.12,54.1,246Z"/><path class="cls-71" d="M32.09,326c-2.7-8.43-.4-11.77,9.65-14.08C40.14,317.73,37.73,323,32.09,326Z"/><path class="cls-70" d="M48.4,248a4,4,0,0,1,1.68,4A4,4,0,0,1,48.4,248Z"/><path class="cls-68" d="M20.15,326a4.15,4.15,0,0,1,3.92,1.78A3.27,3.27,0,0,1,20.15,326Z"/><path class="cls-66" d="M48.32,362a4.09,4.09,0,0,1,1.59,4.33A4,4,0,0,1,48.32,362Z"/><path class="cls-43" d="M92.08,340l-2-2Z"/><path class="cls-70" d="M56.06,244.05l-2,1.95c0-.68,0-1.36,0-2Z"/><path class="cls-70" d="M50.08,243.92,48.29,246C48.08,244.6,48.72,244,50.08,243.92Z"/><path class="cls-72" d="M446.53,320.08a23,23,0,0,1,15.75,9.3,9.31,9.31,0,0,1-1.22,12.54c-4,3.67-7.65,1.24-10.68-1.11-4.51-3.48-7.37-8.5-9.51-13.69S441.05,319.57,446.53,320.08Z"/><path class="cls-72" d="M444.3,424c-6.79.11-18.32-12.62-17-18.94.47-2.29,2.48-2.81,4.55-3,5.57-.54,16.72,5.51,19.3,10.48C454.27,418.6,451.14,423.86,444.3,424Z"/><path class="cls-73" d="M604.06,316.11c-7.11-7.31-7.1-11.11.31-16.83a39.26,39.26,0,0,1,14-7.31c5.08-1.31,6.75,1.12,5.48,6-8.12,3.19-10.62,10.76-13.86,17.76Z"/><path class="cls-74" d="M514,240.26c-3.45,7.17-5.46,8.37-11.81,7.73a8.54,8.54,0,0,1-7.58-5.58c-1.19-3,1-5,2.94-6.85,2.9-2.71,5.17-6.15,9-7.74C511.9,230.27,514.66,234.24,514,240.26Z"/><path class="cls-75" d="M540,195.92c-5,2.41-9.27,1.2-11.63-3.62-2.2-4.47,0-8.31,3.75-11.17,4.21-3.18,8.56-6.14,13.66-7.8,6.44-2.08,7.4-1.06,6.17,6.61C542.37,181.88,540,185.07,540,195.92Z"/><path class="cls-76" d="M514,240.26q-3.72-6.21-7.43-12.44c.21-1.39,0-2.94,1.47-3.85,1.55-1.24,3.56-1.24,4.39.22,4.34,7.7,11.75,10,19.56,11.83.92,4.18.52,7.85-3.79,10.11s-7.52.4-10.51-2.63C516.54,242.34,515.23,241.34,514,240.26Z"/><path class="cls-77" d="M518,368h4a17.94,17.94,0,0,1,2.07,7.58c.13,3.8-1.2,6.24-4.8,7.73-6,2.47-12.15,2.92-18.51,2.7-4.19-.15-4.8-2.71-4.76-6l2-2c3.9,3.21,7.35,1.87,10.6-1.1S514.8,370.84,518,368Z"/><path class="cls-78" d="M510.21,318.2l-2.16,3.7c-5.84,2.26-10.4.19-13.82-4.51-3.8-5.21-9.16-9.79-8-17.32,4.75-2.58,6.41,1.81,8.4,4.2,4.12,4.93,8.86,7.25,15.23,5.83a1.88,1.88,0,0,1,.36,1.59A6.73,6.73,0,0,1,510.21,318.2Z"/><path class="cls-79" d="M616.08,152c1.51,2.49,5.09,2.94,6,6.06,1.43,3.14,2.2,6.47-1,8.76-3,2.1-6.35,1.12-9.32-.47a19.4,19.4,0,0,1-9.12-9.92c-1.39-3.45-1.68-6.63,3.62-6.53l5.8.15c1.11,1.16,3,.8,4.08,2Z"/><path class="cls-80" d="M532,236c-9.13,1.92-15.21-.55-19.69-8.61-1.1-2-2-3.25-4.26-3.44C517.62,220.76,527.92,225.94,532,236Z"/><path class="cls-49" d="M606.2,149.89c-3.51,4.42-3.24,6.16,1.69,10.89s10.55,6.5,13.05,3.92c1.8-1.85.93-4.39,1.1-6.65,2.88,7.13,2.73,11.3-.91,13-4.83,2.29-8.84.6-12.32-3.21a82.27,82.27,0,0,0-6.6-5.89c-.9-2.44-1.69-4.93-2.74-7.31-.89-2-1.16-3.81.68-5.28C602.25,147.7,604.34,147.81,606.2,149.89Z"/><path class="cls-81" d="M509.91,310.1c-6.15,5-6.86,4.86-12.37.49-4.06-3.22-5.81-8.86-11.26-10.52,1.71-3,4.4-2.21,6.81-1.53,3.69,1,7.28,2.42,10.91,3.66C505.51,305.18,509.72,306.13,509.91,310.1Z"/><path class="cls-82" d="M540,195.92c-3.61-2.72-5.09-5.56-1.51-9.65,2.31-2.64,3.74-5.93,6.9-8s4.67,0,6.56,1.68C550.55,187.17,548.11,193.65,540,195.92Z"/><path class="cls-83" d="M463.71,379.79A14.86,14.86,0,0,1,467,377.9c6.94-2,6.95-1.95,6.94,6.05-6.91,3-8.9,9.06-10,15.74-3.31,2.26-6.67,3.37-10.28.61C452.78,391.39,459.09,386,463.71,379.79Z"/><path class="cls-84" d="M610,315.69a45.58,45.58,0,0,1,.17-5.85c1.23-8.09,4.76-11.11,13.69-11.91.56,2.91-1.8,5.13-1.86,7.89C618.25,309.41,616.55,315.5,610,315.69Z"/><path class="cls-85" d="M463.71,379.79c1,.42,3.41,1,2.44,1.61-6.92,4.6-8.61,12.44-12.5,18.9-5.62-6-5.95-9.13-.8-13.82C456,383.61,459.39,380.88,463.71,379.79Z"/><path class="cls-86" d="M463.93,399.69c-2.9-10.4-.1-14.81,10-15.74l.45,2.07a2.69,2.69,0,0,0-.36,1.71,10.86,10.86,0,0,0-1.37,2.19c-.2.63-.41,1.27-.62,1.9C469.12,394.25,468.13,398.62,463.93,399.69Z"/><path class="cls-4" d="M420,218c1.49-2.28,3.83-1.91,6-1.94C424.61,218.35,422.26,217.94,420,218Z"/><path class="cls-4" d="M616.08,152a4.41,4.41,0,0,1-4.08-2C613.69,150,615.19,150.35,616.08,152Z"/><path class="cls-87" d="M593.07,255.94c6.75.87,13.15,3,16.88,9.85,1.62,3,3,5.89.17,9.07-3.1,3.43-7.14,4.37-10.77,2.35-6.62-3.69-10.45-10.23-12.65-17.14C585.29,255.66,589.84,256.23,593.07,255.94Z"/><path class="cls-88" d="M594.19,189.92c7.12,6.26,6.67,12.45-1.45,15.42a37.79,37.79,0,0,1-17.58,2.44c-5.2-.62-5.53-1.53-3.19-7.87,6.95-.72,13.44-2.14,17.14-9.17C590,189,592.21,188.47,594.19,189.92Z"/><path class="cls-89" d="M556.08,250c7-2.52,12.9-.38,13.85,5.2.75,4.44-.67,7.93-5.21,9.38-5.3,1.69-10.58,3.6-16.3,3.43-2.63-.08-5.67.35-7.09-2.41-1.64-3.19.47-5.54,2.76-7.58,2.92,2.37,6,3.44,9.73,1.75C559,257.41,561.23,254.6,556.08,250Z"/><path class="cls-90" d="M564.43,323.69c4.26,1.09,5.77,4.24,5.58,8.19-.21,4.26-3.31,6.5-7,7.37-6.92,1.63-13.87,4.74-21.08,1-1.1-1.57-.84-3.19-.21-4.84a1.43,1.43,0,0,1,.62-1.24c7.51.11,14.23-1.33,18.14-8.76C561.24,324,562.49,322.8,564.43,323.69Z"/><path class="cls-91" d="M528.09,314c-4,3.21-8,3.22-11.1-1-2.6-3.61-.82-10.13,3.27-13a110.21,110.21,0,0,1,10.18-6.12c2.61-1.43,5.82-3.27,8.23-.7s2.24,6.05-.58,8.82c-3.66-2.78-6.42-1.38-9.13,1.67C526,307,525.09,310.27,528.09,314Z"/><path class="cls-92" d="M556.08,250c2.94.05,6.33-.2,7.21,3.43.73,3-2.22,4.43-4,6.23-2.65,2.72-6.38,3.17-9.78,4-4.53,1.12-5.62-1.84-5.45-5.66h0c.74-.59,1.27-1.39,2-2C548.69,252.78,552.74,252,556.08,250Z"/><path class="cls-93" d="M564.43,323.69c-3.14,6.84-8,11.25-15.6,13.2-3.62.93-4.55-1.34-6.48-2.73C549.29,324.31,555.76,321.24,564.43,323.69Z"/><path class="cls-94" d="M528.09,314c-4.43.09-7.14-1-4.86-6.28,1.74-4,4.77-7,8-9.68,4-3.33,5.22-2.54,6.86,4C537.09,307.94,532.4,310.8,528.09,314Z"/><path class="cls-95" d="M518,368c-1.64,7.07-7.23,10.74-12.75,14.25-4.58,2.9-6.61.25-7.19-4.26C504.26,373.7,509,366.5,518,368Z"/><path class="cls-96" d="M594.19,189.92c-2.81.18-3.39,2.32-4.6,4.41-4.17,7.17-9.12,8.54-17.62,5.58,2.76-5.61,7.79-8.39,13.26-10.61C588.32,188.05,591.39,187.09,594.19,189.92Z"/><path class="cls-81" d="M510.21,318.2l.06-6.51C512.32,313.88,512.1,316.05,510.21,318.2Z"/><path class="cls-93" d="M541.73,335.4l.21,4.84C539,338.75,540,337.1,541.73,335.4Z"/><path class="cls-3" d="M472.62,389.92l1.37-2.19Z"/><path class="cls-89" d="M546.08,256l-2,2Z"/><path class="cls-97" d="M28.08,148a4.73,4.73,0,0,1-.87-.44c-3.4-2.93-9.23-4.38-5.6-11.17,2-3.8,1.64-9.11,7.67-9.86,1-.13,1.87-1.65,2.8-2.53,4.72-3.21,9.65-1.38,12.72,1.64,7.08,7,14.91,6.32,23.29,4.38l2,0c8-4.64,15.71-1.89,23.32,1.23,2.48,1,4.87,3.92,7.23-.14,8.37-1.23,16.58-2.91,19.81,8.62,1,3.7,5.57,3,8.81,1.78,5.73-2.13,10.29-.51,14.51,3.57,9.32,9,19.65,14.75,33.27,10.25,4.66-1.54,6.8,1.36,7.31,5.66.44,3.63.68,7.28.78,11a5.68,5.68,0,0,1-.93,2.88c-4.66,3.91-9.11,8.51-16.1,5.22-6.61.59-12.5-.79-15.94-7-1.38-2.52-3.22-3-5.6-2.94-3.65.11-7.22-.05-10.45-2.06-2.44-2.88-2.83-5.84-.19-9.27-8.14.06-15.67,4-23.93,2.44-4.59-.84-9.21-.72-12.8-4.31-1.19-1.2-2.89-2.45-4.41-1.89-13.51,5-27.33.36-41,1.42C44.43,157.08,35.86,153.21,28.08,148Z"/><path class="cls-97" d="M172.08,58h16a5.34,5.34,0,0,1,1.43,2.59c.5,3.37,5,6.53,1.61,9.95-2.75,2.78-6.9,1.91-10.48,1.08-5.09-1.19-10-2.7-10.8,5.19-.26,2.61-2.27,3.88-4.92,4.06s-5.47.51-7.54,2.24c-6.81,5.71-13.25,7.59-21.26,1.4-4.27-3.31-9.42-.86-14.77,2.94,6.66,3.16,13.13,3.41,18.77,5.93,1.73.77,4,1.53,3.73,4-.22,1.83-2.2,2.36-3.75,2.87-7,2.34-10.38,11-19.6,10-3.52-.38-5,4.83-5.8,8.43-1.25,5.74-4.5,7-9.43,4.5s-10.21-2.59-15.56-2.29c-6.4-6.27-8.84-15.75-4.12-21.63C89.82,94,91.89,88.05,94.08,82c6.09-5,12-10.4,20.72-10.19,3,.08,4.43-2.18,5.37-5,1.53-4.48,4-7.63,9.57-5.32,2.58,1.06,5,0,7.44-1.51,5.19-3.17,10.83-3.34,15.83.09,3.6,2.48,7.68,1.46,11.4,2.86C168.62,64.55,168.69,58.45,172.08,58Z"/><path class="cls-6" d="M366.08,198c-8.75,3.51-16.08,1.05-22.41-5.41-2.93-3-5.44-6-9.24-.51-2.1,3-6,2.16-9.32,1.3-6.89-1.77-13.06-4.83-17-10.39-3.71.67-3.91,3.49-5.37,5.17-4.21,4.82-7.95,9-15.94,6.33-5.4-1.82-11.88-.34-17.88-.51-8.66-.23-10.27-1.39-12.9-10.18-.85-2.83-2.37-3.74-5-3.75l-9-.05a2.49,2.49,0,0,1-.3-2.79c4.38-4.92,9.78-8.94,12.88-15,1.22-2.39,4.55-5.52,6-4.32,8.49,6.84,19.45.76,28,6a17.7,17.7,0,0,0,15.38,1.48c5.8-2,10.16-1.21,13.75,4.2,4.56,6.86,11.75,8,19.36,7.94,7-.06,14.12-.49,19.44,5.46C358.18,189,365,191.69,366.08,198Z"/><path class="cls-97" d="M242.09,178c0,.66,0,1.31,0,2-7.89,5.47-15.06,3-22-2-8.73,2.52-18.79-1.16-26.6,6a5.74,5.74,0,0,1-8.13-.34c-2.69-2.67-4.24-6-1.29-9.62l0,0A27,27,0,0,0,193.22,160a16.22,16.22,0,0,1,6.78-9.6c1.74-1.14,4.93-2.18,5.41-.67,2.68,8.41,10,7.17,16.14,8.82,4.54,1.21,2.8,5.27,2.64,8.39.61.57,1.12.38,1.84.07,4.54-1.95,8.78-9.09,13.62-4.36C242.85,165.81,240.83,172.85,242.09,178Z"/><path class="cls-6" d="M28.08,148c6.74,2.13,14.31,1.53,20.12,6.85,2.6,2.39,5.84.51,8.27-1.15,3-2,5.15-2.7,8.72-.5,8.13,5,16.69,1.06,24.94-.4,4.68-.83,8.07-3.42,11.83,3.08,3.38,5.83,11.05,4.69,17.42,3.38,5.42-1.11,10.58-3.8,16.71-3.05V168c-4.78-1.24-9.53-2.58-14.34-3.71-6.73-1.59-13.17-2.43-20.41-.91a36.06,36.06,0,0,1-22.18-2c-7.23-3.11-16.09-2.62-24.27-3.28-5.26-.43-10.61.15-15.89-.16C31.73,157.48,29.64,155.39,28.08,148Z"/><path class="cls-6" d="M94.08,82c1.34,6.5.18,11.73-5.24,16.6-5.68,5.11-4.7,12.34,1.24,21.39,5.09,2.53,10,5.23,10,12-.52,2.25,2.13,4,.68,7.06-8.7-8.53-19.44-9.75-30.69-9.07,1.9-3.63,5.09-6.07,8-8.74,2-1.84,5.71-2.11,4.56-6.52-1.06-4-.34-8.73-5.74-10.41a10.25,10.25,0,0,1-5.94-5c-2-3.66-.15-9.23,3.18-8.65C83.07,92.16,87.7,85.37,94.08,82Z"/><path class="cls-6" d="M184.07,174a12.08,12.08,0,0,0,.15,3c2.43,8,4.7,8.82,10.56,3.22,3.42-3.28,6-6.49,11.43-2.66,2.79,2,6.3-.74,9.24-2.19s4.33-.4,4.64,2.64c-2.36,1.55-3,4.25-4.27,6.49-2.16,3.71-5.13,5.63-9.62,5.59-6.63-.06-13.34,2.44-19.42-3.16-1.95-1.8-6.41-.59-9.45-1.59-3.35-1.1-6.88-2.32-9.25-5.3C174.55,181,178.28,174.77,184.07,174Z"/><path class="cls-6" d="M68.09,130c-.15,1.31-.44,3-2,2.64-2.36-.47-4.56-.71-6.61.71-4.31,3-7.76,2.08-10.94-1.9-4.17-5.21-10-7.18-16.42-7.47,1.24-2.82,3.72-4.57,5.74-6.71a16.48,16.48,0,0,1,2.22-2c1.54-1.12,3-.76,4.51.22,5.53,3.51,15-3,18.08,7.29C63.45,125.53,63.38,129.87,68.09,130Z"/><path class="cls-97" d="M366.08,198c-4-4.19-10.78-6.38-10-14a15.58,15.58,0,0,1,14.73-3.94c8.52,2.23,17.35,3.75,25.28,7.95-6.49,5.93-13.35,10.39-22.76,6.77-2.67-1-4.14,1.07-5.25,3.21Z"/><path class="cls-4" d="M404.13,217.94c-2.22,0-4.57.41-6.06-1.91C400.29,216,402.63,215.66,404.13,217.94Z"/><path class="cls-28" d="M18.08,188A3.91,3.91,0,0,1,14.15,190,4.52,4.52,0,0,1,18.08,188Z"/><path class="cls-28" d="M14.11,190.05a3,3,0,0,1-2.52,1.74A2.84,2.84,0,0,1,14.11,190.05Z"/><path class="cls-98" d="M396.09,188c-6,.4-12,0-17.25-2.85-5.92-3.18-11.61-4-17.88-1.37-1.41.59-3.24.17-4.88.21-5.8-4-12.35-4.33-19.08-4-9.46.43-17.84-1.46-22.52-10.95-1.7-3.44-4.73-3.79-7.58-2.13-8.19,4.79-15.34,3.43-22-2.92-1.61-1.54-3.48-2-5.31-.38-4.84,4.28-9.24,1.95-13.57-.87-6.6-4.29-6.86-4.48-10.53,2.65A25.85,25.85,0,0,1,242.09,178c-6.7-3.69-3.23-9.91-3.42-15.45-6.5,1.72-10.27,7.83-17.1,8.83.36-3.78.68-7.26,1.08-11.4-3.23,0-5.85,0-8.48,0-9-.19-9-.21-9.65-9.58a13,13,0,0,0-8.55,9c-.86,2.86-1.87,5.68-2.88,8.49-1.5,4.22-4.21,6.72-9,6.13a16.75,16.75,0,0,1-2.06-8.57c0-2.59.6-5.3-.72-7.74-.64-.32-1.38-1-1.74-.83-14.67,6.89-26.32,1-36.56-9.12-4.49-4.43-8.09-6.66-14.54-3.23s-11.08.88-12.13-6.37c-.82-5.68-2.61-6.85-7.63-4.66-3,1.32-5.63-1.6-8.63-1.47l-10-12c7.57-5.52,13.69.72,20.24,2.77,2.88-2,1.36-5,2.16-7.33,2.38-7,5.64-9.41,13.15-8.54,2.37.28,3.29,0,4.59-2.13,3.8-6.16,4-6,12.57-7.49-8.49-4.8-18.17-3.88-25.84-8.73,9.64-10.13,14.89-10.89,25.42-3.1,3.1,2.29,5,2.1,7.67-.31,4.9-4.37,10.05-8.53,17.2-6.77,1.84-3.8-.34-7.78,2.07-11.29,7.05-.55,13.64,4.77,21.49,2.16-.8-3.79-7.07-6.48-2.73-11.25,2.28-9.41,8-14,17.93-13.26,3.51.25,5.77-2.48,8.08-4.73,5-3.65,10.08-1.7,15,.16,4.19,1.6,6.93,1.49,9.75-3,3.07-4.9,9.1-7.1,13.27-11.18h0c9.79,1.48,19.06-3.2,28.8-2.39,3.15.27,5.68,1.5,7.2,4.4a7.41,7.41,0,0,1,.52,7.47,4.17,4.17,0,0,0,1.64,5.24c2.06,1.53,3.67.2,5.25-1.06s3.06-2.43,4.6-3.64c6.17-4.11,11.58-1.51,16.33,2.44,4.59,3.82,7.84,2.8,13.16.46,6.73-3,13.67-5.72,20.52-8.59,3.34-1.39,7.91-1.76,10.64.42,6.45,5.15,12.71,3.78,19.34,1.26h6c6.45,4.28,4.42,9.1.89,14.82,6-7.12,15.37-5.11,22.17-9.78,2.31-1.58,5.25.11,6.48,2.86,1.63,3.65,5,2.5,7.69,3.12a9,9,0,0,1,2.31,1.41c12.36,3.13,16.65,13,19.71,25.5,7.91-8.44,22.45-6.74,24.07-21.05,5.2-5.44,9.32-3.63,15.4,0,9.6,5.8,15.36,17,27.63,19,3.12.5,6.59,3.73,5.56,7.16-1.34,4.43-6.73,3.16-10.23,4.72-9.87,1.2-19.94,2.15-29.5-.74-12.58-3.81-24.59-4.18-36.47,1.87a9.29,9.29,0,0,1-2.93.14c-7.09-3-10.57-10.44-17.32-13.84-5.62-4.1-11.56-7-18.8-5.18-2.71.63-4.7,2.4-6.65,4.23-5.73,5.93-12.47,2.77-18.93,2.12-3.53-.52-7-1.32-10.64-.59a15.53,15.53,0,0,1-2.64.15c-3-.27-6-1.07-9-.15A115.81,115.81,0,0,0,341.5,70.1c-1.8.37-3.61.74-5.43,1a11.92,11.92,0,0,1-2.8,0c-3.22-.66-6.53-.66-9.77-1.21-3.74-1-7.6-1.37-11.37-2.22-6.25-1.57-12.43-3.37-18.53-5.45-2.88-1-5.81-1.85-8.73-2.74a102.56,102.56,0,0,0-65.65,5.13,35.3,35.3,0,0,0-7.6,6.06,46.15,46.15,0,0,1-5,4.3c-2.49,1.55-4.94,3.16-7.38,4.78-1.76,1.12-3.4,2.43-5.15,3.56-3,1.66-6,3.1-9.07,4.64-2.32,1.1-4.6,2.28-6.85,3.51a98,98,0,0,1-9.37,4.32c-3.09,1.09-6.33,1.81-9.18,3.53a10.12,10.12,0,0,0-2.42,2.71c-1.51,3.81-2.11,7.88-3.63,11.65-.74,2-1.44,4.09-2.06,6.17s-1.13,4.18-.29,6.3A20.22,20.22,0,0,0,152.5,128c.28.25.53.53.81.78.61.41,1.22.85,1.86,1.24s1.39.65,2.1.94a17.24,17.24,0,0,0,4.79.7,32.11,32.11,0,0,1,6.84.79c5,1.52,9.94.76,14.84-.68a137.82,137.82,0,0,1,27,0,33.41,33.41,0,0,0,9.78,1.53c14.49,2.68,28.5,8,43.49,7.92,30.17,2.14,60.07,5.93,89.93,11,20.58,3.49,41.88.93,62.86.83,3.59,0,6.23-2.32,8.93-4.16a188.29,188.29,0,0,1,43.37-22.43c14.12-5,24.69-14.12,34.31-24.91,5-4.61,6.33-12.27,12.94-15.53,2.82-1,5.76-1.52,8.6-2.48,3.55-1.21,7.41-2.26,10,1.41a9.42,9.42,0,0,1,.18,10.46c-3.3,5.19-5.39,10.39-5.14,16.71a8.18,8.18,0,0,1-6.19,8.24c-9.27,2.39-8.24,7.73-5,14.24,1.49,3,2.87,6,2.47,9.5-.33,2.85-2,5.78-4.42,6.15-9.27,1.41-10.17,9.15-12.81,15.67-2.76,0-5,1.59-7.36,2.65-4.43,2-9.72,2.83-13.31.42-5.38-3.61-7.12-.84-9.31,2.95-9.33,1-18.11,8.22-28.45.84-2-1.44-10.25,1.83-15.56,3.14-3.56-.22-6.37.71-8.15,4.21-2.85,5.59-7.68,7.37-13.25,4.89C403.4,182.74,399.89,185.37,396.09,188Z"/><path class="cls-97" d="M424.08,46V44c-.52-.45-.69-.9-.51-1.34s.34-.67.51-.67a2.78,2.78,0,0,0,1-.12c10.85-6.21,20.34-4,28.63,4.78,2.3,2.45,4,2.24,6.77.43,8.49-5.62,18.09-2.45,27.24-2.75A4.44,4.44,0,0,1,491,46.25c3.66,6.38,9.63,6.09,15.66,5.73,5.12-.31,10,.3,14.05,3.81,3.63,3.15,6.44,6.07,3.74,11.87s6.72,15.13,13.24,13.42c4.17-1.09,8.17-2.81,12.31-4,8-2.34,9.23-1.72,14.57,5.08,1.6,2.05,4,3.44,5.86,5.32,2.34,2.34,4.53,4.84,6.67,7.36.29.33-.06,1.2-.21,2.85-4.21-2.22-8.48-3.8-11.95-6.44-6.88-5.23-13.76-5.34-22.64-1,6,2.6,10,5.58,9.9,12.17-.16,7.58-3.85,13.23-7.94,18.91-.58.81-1.36,1.87-2.39,1.18-6.41-4.24-11.29.44-16.53,2.77-2.07.92-4.77,0-6.7,2.7,1.05,4.54,4,8.65,6,13.14,1,2.19,2.17,4.47-.17,6.33-7.21,5.73-11.26,14.93-20.4,18.51,0-2.33,0-4.66,0-7,.13-7.53.14-7.53,7.85-9,6.65-1.3,8.13-3.78,6.28-10.38-1.7-6.06-4.63-11.8-4.65-18.33,1.45-1.8,3.65-.93,5.5-1.39,8.07-2,10.2-4.8,8.23-12.77-.95-3.85-.85-6.18,2.67-8.32a8.74,8.74,0,0,0,4.14-7.54c.29-6.46-1.39-8-7.32-5.45A22.47,22.47,0,0,1,516.2,88c-3.5-1.74,1.73-6.21-2.47-7.71-2.15-.35-4.35-.48-5.68-2.54,2.08-2.93,5.7-.89,8.85-2.88-3.14-5.5-8-7-13.79-6.9-3.94.09-7.22.25-5.85-5.77.8-3.53-3.58-4.14-6-5.63-3.73-2.3-8-3-10.51-7.94-3.06-6-7.15-.24-10.67,1.34-1.75,1.54-2.91,3.57-4.56,5.21-9.51,9.47-14.17,8.94-20.43-2.86-2.58-4.86-6.72-5.76-11.5-6.21C430.41,45.83,427.2,48.51,424.08,46Z"/><path class="cls-97" d="M380.08,32c-2.34,1.82-4.59,3.76-7,5.43s-4.41,1.7-7.08-.39c-10.52-8.25-18.59-6.86-26.53,4.06a10.72,10.72,0,0,1-1.53,1.41c-3.33-.26-.62-4.34-3.26-5.14-4.31,1.69-6,7.46-10.77,8.18-5.47.83-7.24-5.16-11.23-7.34s-8.23-2.32-12.56-2.2c4.25-5.2,7.43-12.54,16.45-8.32,7.52-3.36,13.28-.45,18.09,5.72A31.81,31.81,0,0,0,345,22.53c2.09-3.34,4.3-4.5,8.94-2.35,5.47,2.53,12,2.75,18.14,3.83C376.7,24.81,380.55,26.19,380.08,32Z"/><path class="cls-97" d="M430.08,176c1.58-1.82,1.37-6.83,5.95-3.3,2.05,1.58,3.65.4,5.27-.93s2.88-3.68,5.37-4.3c2.32,1.23,1.62,4.1,3.14,5.78.92,1,1.95,2.4,3.19,1.44,6.56-5.06,14.08-1.72,21.09-2.67,0,2.75-1.38,5.06-2.78,7.25-2.62,4.09-5.92,5.87-10.71,3-4.52-2.7-9-4.35-14.75-2.52C440.31,181.53,435,178.8,430.08,176Z"/><path class="cls-97" d="M288.08,28c-7.61-2.5-15.18-4.24-22.31,1.3-1.37,1.06-2.72,2.11-4,0-2.32-3.87-6.12-3.22-9.69-3.28,2.64-4.86,7-7.68,11.83-9.95,3.06-1.44,5.94-2.92,9.11-.17a6.47,6.47,0,0,0,3.49,1.45C286.41,18.13,286.41,18.09,288.08,28Z"/><path class="cls-97" d="M424.08,42v2c-3.28-.46-5,3.13-7.88,3.18-1.89-.53-1.81-2-2.08-3.24-1.38-6.43-2.15-7-7.51-4.13-7.7,4.1-16.53,5.39-24.25,10.14,1.27-3.41,4.83-4.93,5.5-8.36A13.65,13.65,0,0,0,386.08,32c4-4.23,6.93-.76,8.73,2,3.3,5,6.37,4.57,11.27,2.21C415.26,31.76,419.37,33.45,424.08,42Z"/><path class="cls-97" d="M252.08,26c-2.43,3.44-4.19,7.38-8.9,8.75-3,.87-2.77,4.12-3.37,6.7-.85,3.66-3.06,4.82-6.65,3.07-6-2.94-12.2-5.18-19.08-4.52,4.72-8.13,12-11.41,21-9.82,5.59,1,10.16.77,14.17-3.54C249.77,26,251.11,26.18,252.08,26Z"/><path class="cls-99" d="M270.1,384c13.47.93,18,4.55,20,16-9.8,4.1-21.7-2.24-22.84-12.25C267,385.8,267,383.53,270.1,384Z"/><path class="cls-100" d="M290.07,284c7.44,0,12.24,4.18,16,10,1.62,7.56-3.19,8.55-8.51,7.45-6.57-1.36-10.93-6.06-13.07-12.29C282.79,284.16,285.35,282.62,290.07,284Z"/><path class="cls-101" d="M230.07,362c2.71,2.63,5,5.47,3,9.52-3.26,6.71-8.59,7.69-14,2.41-3.28-3.21-7-6.08-9.17-10.32-3.66-7.14-2-9.9,5.84-9.61a5.37,5.37,0,0,1,4.34,1.93c-2,2.29-5.41,4.14-1.16,7.63C223.42,367.24,226.93,366.64,230.07,362Z"/><path class="cls-102" d="M290.07,284c-4.35.38-6.07,2.23-3.72,6.48,2.74,5,7.64,7.36,12.44,9.15,4,1.5,6.94-1,7.29-5.6,3.57,3.95,2.06,7.4-1.42,10.17s-7.49,2.74-11.08.1c-5.25-3.85-8.53-9.26-10.83-15.25-.85-2.22-1.33-4.8,1.1-6.26A4.46,4.46,0,0,1,290.07,284Z"/><path class="cls-103" d="M230.07,362c-.9,9-2.45,9.86-9.68,5.43-1.11-.68-2.28-1.27-3.32-2-2.34-1.73-5.34-3.5-4.46-6.86,1-3.94,4.84-2,7.48-2.6C224.7,355.84,226.42,360.5,230.07,362Z"/><path class="cls-104" d="M270.1,384c-4.31,4.8-.25,8.12,2.52,10.93,4.7,4.77,10.88,6,17.46,5-4,9.07-9.49,10.58-14.94,3.36-4-5.31-10.25-10-8.93-18C266.64,382.62,268,381.88,270.1,384Z"/><path class="cls-34" d="M288.42,337.7c1.64.11,3.12.48,3.81,2.21-1.51,10.47-10.67,12.19-18.13,15.87-9.28,0-9.56-.41-6.18-7.91C276.87,348.74,281,339.82,288.42,337.7Z"/><path class="cls-105" d="M288.42,337.7a99.85,99.85,0,0,1-7.21,8c-3.84,3.5-8.17,5.7-13.29,2.16C273,340.84,278.68,335.23,288.42,337.7Z"/><path class="cls-11" d="M274.1,355.78c.23-1.28.38-2.92,1.74-3.21,7.5-1.64,11.87-7.22,16.39-12.66,5.09,8.69,3.49,11.63-7.71,14.27-2.6,1.62-5.8-.1-8.4,1.53Z"/><path class="cls-34" d="M276.12,355.71c2.42-2.62,5.5-1.59,8.4-1.54C282,356,279.09,356.11,276.12,355.71Z"/><path class="cls-40" d="M318,224.09c-4.46,3.38-8.24,3.45-12.67,0-3.16-2.48-5.79-5.39-5.26-9.89C307.43,214.92,314.1,217,318,224.09Z"/><path class="cls-106" d="M364.08,65.9l2,0c7,6.78,3.92,13.2-.92,19.28-7,8.85-17.59,11.3-27.6,14.69-9,1.89-18,3.61-27.28,3.79-4.28-1.09-8.51-.5-12.78.25-37.53,6.56-74.6,15-110.54,27.9-5.88-.12-12,2.73-17.53-1.49A75.56,75.56,0,0,1,168.05,94c3.21-1.68,6.28-3.67,10-4.14,5.94,4.72,5.24,11.93,6.34,18.24,1.2,6.86,4.29,8.23,10.32,5.9,5.26-2,10.62-3.89,15.72-6.27,31-14.5,64-18.91,97.68-20.36,16.12-.7,30.3-6.84,43.91-14.64C356,70.4,360.09,68.24,364.08,65.9Z"/><path class="cls-107" d="M376.14,66.15c2.31.19,4.89-.24,6.86.67,5.15,2.38,9,.36,12.69-2.82a65,65,0,0,0,6.56-4c7.77-2.4,14.24,0,19.89,5.42,5.48,4.66,9.78,10.64,16,14.48a11.08,11.08,0,0,1,1.73.07c3.34,9.14,1,14.49-9.43,21.79-8.08,3.59-16.2.49-24.32.15-9.61-2.36-19.45-3.66-29.05-6-10.29-2.52-12.11-6.22-7.28-15.31C372.29,75.86,372.5,70.26,376.14,66.15Z"/><path class="cls-108" d="M430.07,100.25c6-5.44,10.75-11.52,9.81-20.33,10.89-6.92,22.17-9,34.74-4.34,10.76,4,22.21,2.45,33.43,2.19l8,.23c1.76,2.18.52,3.82-1,5.4-11.9,10.76-25.15,18.91-41.38,21.3-10.12.48-20.24.37-30.35.19C438.5,104.8,433.45,104.8,430.07,100.25Z"/><path class="cls-109" d="M364.08,65.9c-6.74,9.46-17.48,12.84-27.25,17.45-10.9,5.15-22.57,7-34.74,6.77-13.23-.23-26.17,3.17-39.29,4.55-21.77,2.3-41.24,11.6-61.19,19.51-3.38,1.34-6.8,2.63-10.28,3.72-6.5,2-8.51,1-9.08-5.71-.66-7.64-2.64-14.94-4.22-22.36,1.57-2.07,3.87-2.83,6.23-3.47,5.65,1.65,5.8,6.5,6.64,11.11,1.57,8.63,3.16,9.58,11.36,6.19,7-2.91,14.05-5.93,21-9.16a99.92,99.92,0,0,1,40.42-9.31c32-.72,63.39-4.42,92.34-19.56C358.79,62.89,361.37,66.2,364.08,65.9Z"/><path class="cls-106" d="M356,65.63c-9.92,8.91-22.41,12.45-34.7,16.06C310.18,85,298.61,85.48,287,86.33c-18.67,1.37-37.88.1-55.72,7.64-9.47,4-18.8,8.32-28.2,12.47-12,5.29-14.34,4-14.86-9.19a18,18,0,0,0-4-10.9,33.45,33.45,0,0,1,9.64-4.75c4.12,1,5.84,4.28,6.94,7.76,2,6.23,5.77,6.64,10.67,3.75,23.45-13.82,49-16.67,75.69-16,15.89.37,31.25-5.17,47-7.32a3.7,3.7,0,0,1,1.59.07c1.3-.88,3-.56,4.28-1.56C345.16,66.23,350.54,65.71,356,65.63Z"/><path class="cls-110" d="M506.13,102.08a65.35,65.35,0,0,1-30.62,24.37c-18.19,7.32-36.22,15-51.53,27.65-3.23,2.66-6.9,2.18-10.42,2.23-30.88.42-61.74.59-92.08-6.66-17.54-4.19-35.55-4.08-53.41-5.29-1.31-.09-2.61-.37-3.92-.57,2.09-6.2,7.52-3.8,11.72-4.56a176.38,176.38,0,0,1,52.45,4.69c27.56,6.72,55.48,5.05,83.35,5.18,4.41,0,8.71-.71,12.35-3.28,18.36-12.93,39.33-20.77,59.3-30.53,8.75-2.92,12.74-12.09,20.8-15.93C505.7,99.59,507,100,506.13,102.08Z"/><path class="cls-111" d="M198.32,78.41c2.34-1.92,4.5-4.13,7.53-5,3.66,3.35,7,4.64,12.32,2a82.4,82.4,0,0,1,39.65-8.22c14.28.47,28.58.34,42.79-2,3.8-.63,8-.86,11.84.58,4,.15,8,.24,11.6,2.3.2,5.42-4.24,5.3-7.56,5.9C303.76,76.25,291,78.66,278,78a131.77,131.77,0,0,0-60.11,11.09C204.66,94.76,202.14,93.21,198.32,78.41Z"/><path class="cls-112" d="M198.32,78.41c4.61,2.75,5.5,7.94,7.32,13.09,15.06-7.71,30.28-11.59,45.9-14.46,8.65-1.6,17.22-1,25.8-.94a209.66,209.66,0,0,0,40.39-4c2.81-.55,5.1-1.34,6.32-4.08,3.44.15,7.1-1,10.11,1.69-8.45,6-18.75,5.77-28.25,8.07-12,2.91-24.4,2.25-36.67,2.18a101.16,101.16,0,0,0-47.89,11.33c-6.15,3.18-12.18,6.81-19.74,8.07-2.68-5.9-3.29-12.74-7.71-17.79A6.27,6.27,0,0,1,198.32,78.41Z"/><path class="cls-113" d="M376.14,66.15c.72,7-1.84,13-5.81,18.45-2.84,3.88-1.62,6.29,2.49,7.25,9.58,2.23,19.24,4.15,28.89,6.08,1.65.33,3.24.49,4.43,1.82-2.09,2.62-5.1,3-8.11,3.17-18.35,1.18-36.58-.76-54.81-2.39a7.09,7.09,0,0,1-5.15-2.76c2.54-2.4,6-2.5,9-3.85,3.62-1.63,7.48-3,10.74-5.13,9.15-6.13,11-11.83,8.27-22.91C369.52,63.38,372.81,65.68,376.14,66.15Z"/><path class="cls-114" d="M312.45,65.75c-21.85,4.46-44,4.16-66.12,4.5-10.87.16-21.37,4-30.94,9.57-2,1.16-3.73,2.75-6.69,2.8-.92-3-1.89-6.12-2.85-9.24l3.81-3.69c26-8.13,53.21-5.09,79.75-8.2,1.64-.2,3.32-.17,4.68-1.32A116.38,116.38,0,0,1,312.45,65.75Z"/><path class="cls-97" d="M424.08,46c4.91.79,8.69-4.17,14.18-2.16,5.28,1.94,9.53,3.27,10.09,10.19.51,6.3,5.48,7.71,10.73,3.86,3.64-2.67,5.64-7.63,11-7.89.78,4.24-3.49,8.11.92,13.65-6.27-1.27-10.71-1.93-14.64,1.26-3.52,2.88-7.38,5.34-11.26,8.1-3.15-4-3.56-8.78-5.3-13-2.71-6.47-5.68-12.81-14.63-11.61C424.93,48.46,424.45,46.84,424.08,46Z"/><path class="cls-115" d="M294.09,60.17c.76,2.09,1,3.31-2.1,3.93-11.43,2.32-22.95,2-34.45,1.82-14-.26-27.74.34-40.5,6.67-4.12,2-5-1.73-7.38-2.9A13.43,13.43,0,0,1,216,63.81C235.57,56.42,256.52,61,276.5,57a15,15,0,0,1,9.63,1A14.36,14.36,0,0,1,294.09,60.17Z"/><path class="cls-116" d="M286.13,58c-4.07-.46-7.84,1-11.65,2-10.4,2.74-21,2-31.56,2-6.62,0-13.32-.48-19.49,2.54-2.77,1.36-5.08.8-7.45-.69,7.67-5.65,16.8-7,25.79-8.73,11.4-2.17,22.94-1.56,34.41-.89A16.52,16.52,0,0,1,286.13,58Z"/><path class="cls-117" d="M276.5,141.82c-4.06,1-8.67-1.39-12.35,2-15.21-.14-29.67-4.23-44.16-8.21-2.76-1.31-5.92,0-8.69-1.35l-28.2,0a35.66,35.66,0,0,1-15.59,0,15,15,0,0,1-7.52-.67c-1.29-.74-2.92-.46-4.12-1.45l-1.86-.6a19.06,19.06,0,0,1-2-1.42l0,0c-1-1.47-.12-2.29,1.05-3a6.55,6.55,0,0,1,2.57-.22c1.3.27,2.56.66,3.85,1s2.77.55,4.17.87c1,.26,2,.52,3,.73,6.62,2.87,13.73,2.25,20.3,1.2,8.82-1.41,17.55-1.21,26.34-1.42,6.21-.1,12.34.38,18.22,2.57,3.54,1.6,7.44,1.54,11.14,2.42,10.68,3.11,22,1.75,32.7,4.68A2.59,2.59,0,0,1,276.5,141.82Z"/><path class="cls-118" d="M168.05,94c3,11.89,1.87,24,2,36.06-2.63,1.47-5.3,1.18-8,.21l.16-.62c-5.61-9.45-1.49-20.24-4.14-30.1l0-1.63C161,95.49,164.52,94.71,168.05,94Z"/><path class="cls-119" d="M506.13,102.08c-.59-.67-1.18-1.33-1.76-2-1.24-8.47,7.08-11.74,9.82-18,1.37-1,1.66-2.51,1.9-4,1.46,0,3.53-.65,2.82,2s-1.79,5.33-2.71,8C512.41,92.4,510.8,98.34,506.13,102.08Z"/><path class="cls-120" d="M438.15,79.85c-7.86-2-11.78-8.42-16-14.47C429.13,68.37,433.27,74.51,438.15,79.85Z"/><path class="cls-121" d="M151.68,113.67c.84-4.88,1.55-9.8,4.24-14.13a5.16,5.16,0,0,1,1.78,2.29c1,4.62.44,8.84-3.36,12.16A2.37,2.37,0,0,1,151.68,113.67Z"/><path class="cls-122" d="M167.51,134.2l15.58,0A22.79,22.79,0,0,1,167.51,134.2Z"/><path class="cls-123" d="M149.89,128.3c-3-2.85-2.8-5.75-.14-8.7l1.12.57a6.84,6.84,0,0,1,1.87,5.79A6.1,6.1,0,0,1,149.89,128.3Z"/><path class="cls-124" d="M402.25,60a6.61,6.61,0,0,1-6.56,4C397.21,61.58,399.22,59.93,402.25,60Z"/><path class="cls-122" d="M211.3,134.25c3-.07,6.12-1.19,8.69,1.35C217,135.56,214,135.85,211.3,134.25Z"/><path class="cls-122" d="M149.89,128.3,152,126c1.84-.6,2.43.2,2.19,2-.74.71-1.48,1.42-2.21,2.14A2.29,2.29,0,0,1,149.89,128.3Z"/><path class="cls-121" d="M149.75,119.6c-.08-2.21,0-4.36,1.93-5.93l.47.36c1.49,2.77,2.35,5.31-2.1,6Z"/><path class="cls-112" d="M340,68.25c-1.06,1.54-2.59,1.76-4.28,1.56A4.43,4.43,0,0,1,340,68.25Z"/><path class="cls-125" d="M156.26,102.22c-.12-.89-.23-1.78-.34-2.68a2,2,0,0,1,2.2-1.65l-.06.38C159.45,100.5,159.41,102.07,156.26,102.22Z"/><path class="cls-122" d="M155.87,132.08c1.58-.11,3.07.06,4.12,1.45A4.68,4.68,0,0,1,155.87,132.08Z"/><path class="cls-122" d="M152,130.06l2,1.42A1.92,1.92,0,0,1,152,130.06Z"/><path class="cls-126" d="M338.07,97.77c22.69.62,45.33,3.11,68.07,2,8,0,15.92,2.14,23.93.5,15.14,2.86,30.45,1.33,45.68,1.93a2.55,2.55,0,0,1,.43,3.09c-4.59,6.37-11.15,10.44-17.74,14.17-12.66,7.19-26.5,12.14-38.63,20.45-4.48,3.07-10.18,3.55-15.43,2.44-15-3.17-29.74.23-44.52,1.65-9.36.91-18.5,1.17-27.53-1.9-7.95-2.71-16.15-3.46-24.53-3.39-6.6.06-13.28.86-19.79-1-3.47-1.58-2.58-4-1-6.32,2.16-3.23,4.79-6.11,6.93-9.35a51.39,51.39,0,0,0,2.89-4.64c2-3.47,3.6-7.13,5.92-10.4,1.93-2.39,3.18-5.71,7.16-5.34Z"/><path class="cls-109" d="M309.88,101.66,304.06,108c-8,5.34-17.44,6.21-26.49,7.89-21.82,4.06-42.67,12.24-64.76,15.09-8.24-.55-16.56,1.14-24.74-.92,7.48-6,16.86-7.37,25.63-9.89,23.78-6.85,47.88-12.47,72.18-17.2,5.17-1,10.49-.84,15.6-2.66C304,99.38,307.44,99.09,309.88,101.66Z"/><path class="cls-122" d="M188.07,130l25.65.11a1.11,1.11,0,0,1,1,1.45l-47.25.39c-2,0-4-.14-5.42-1.75l8-.21Z"/><path class="cls-127" d="M476.42,103.78a10.62,10.62,0,0,0-.67-1.6c12.94-2.83,23.92-9.58,34.42-17.27,1.33-1,2.68-1.92,4-2.88-1.41,7-6.94,11.82-9.82,18-5.52,5.87-10.21,12.69-18.06,15.9C482.81,112.08,480.59,107.14,476.42,103.78Z"/><path class="cls-128" d="M476.42,103.78c9.1-.64,8.4,6.66,9.88,12.2-4.42,4.27-10.18,6.17-15.65,8.44-16.31,6.75-32.22,14.22-46.39,24.88a14.19,14.19,0,0,1-9.24,2.8c-18.94-.12-37.92.61-56.81-.49-12.81-.74-25.56-3.61-38.19-6.24a181.36,181.36,0,0,0-43.52-3.55l-.24-.92c2.16-4.21,5.4-6.17,10.19-4.84,6.66,0,13.34.21,20-.14a75.28,75.28,0,0,1,30.31,4.58,25.32,25.32,0,0,0,8.77,1.5c11.95,0,23.71-1.95,35.52-3.37,6.3-.76,12.61-1.39,18.79.31,9.77,2.7,18.47.83,26-5.81a31,31,0,0,1,10.26-6C451,121.87,463.85,113.07,476.42,103.78Z"/><path class="cls-129" d="M214.74,131.6a5.63,5.63,0,0,1-1-1.45c27.15-9.7,55.53-14.69,83.43-21.53a45,45,0,0,1,6.9-.64c-1.66,3.57-3,7.32-5.77,10.26-21.8,6.5-43.61,12.91-66.26,15.86C226.2,133.73,220.75,130.75,214.74,131.6Z"/><path class="cls-130" d="M286.45,136.06c-3.28,1.86-6.11,4.67-10.19,4.84-11.64-1-23.46-.81-34.73-4.63,10.44-8,23.6-8.1,35.5-11.8,6-1.86,12.26-5.47,19.08-2.47C294.3,127.65,289.22,131.07,286.45,136.06Z"/><path class="cls-131" d="M296.11,122l-54.58,14.27c-3.25-.37-6.69.1-9.5-2.17,9.7-5.15,20.76-5.76,31-9.23,9.3-3.15,19.15-4.75,28.82-6.71,2-.4,4.35-2.31,6.44.08A4.67,4.67,0,0,1,296.11,122Z"/><path class="cls-132" d="M156.26,102.22a4.3,4.3,0,0,0,1.8-4c3.17,3.64,4,8,4,12.66,0,6.23.1,12.46.15,18.69l-3.6.16c-.8-.4-1.6-.78-2.42-1.13l-2-.71L152,126c-.66-2-1.31-4-2-6,2.55-1.35,2.07-3.76,2.1-6C155.73,110.86,156.38,106.67,156.26,102.22Z"/><path class="cls-122" d="M156.21,128.65l2.41,1.13Z"/></g></g></svg>