<svg xmlns="http://www.w3.org/2000/svg" viewBox="0 0 735.36 403.38"><defs><style>.cls-1{fill:#33392f;}.cls-2{fill:#dd3f36;}.cls-3{fill:#ddd;}.cls-4{fill:#c43830;}.cls-5{fill:#3d433a;}.cls-6{fill:#b8352d;}.cls-7{fill:#e4e4e4;}.cls-8{fill:#c53830;}.cls-9{fill:#d03b33;}.cls-10{fill:#c9c8c8;}.cls-11{fill:#f7675f;}.cls-12{fill:#d03d35;}.cls-13{fill:#d6d6d6;}.cls-14{fill:#f5665e;}.cls-15{fill:#d14139;}.cls-16{fill:#c9c9c9;}.cls-17{fill:#f86961;}.cls-18{fill:#f5675f;}.cls-19{fill:#f96961;}.cls-20{fill:#fefefe;}.cls-21{fill:#fdfdfd;}.cls-22{fill:#b6342c;}.cls-23{fill:#ce3b33;}.cls-24{fill:#484d45;}.cls-25{fill:#474d44;}.cls-26{fill:#464c43;}.cls-27{fill:#40463d;}.cls-28{fill:#3e433a;}.cls-29{fill:#3e443b;}.cls-30{fill:#3c4239;}.cls-31{fill:#f7665e;}.cls-32{fill:#d23c34;}.cls-33{fill:#e8e8e8;}.cls-34{fill:#e2e2e2;}.cls-35{fill:#d4d4d4;}.cls-36{fill:#d3d3d3;}.cls-37{fill:#bc362e;}.cls-38{fill:#e44941;}.cls-39{fill:#ec554d;}.cls-40{fill:#b9352d;}.cls-41{fill:#ed574f;}.cls-42{fill:#b7362f;}.cls-43{fill:#f4635b;}.cls-44{fill:#d03c34;}.cls-45{fill:#eee;}.cls-46{fill:#dc3f36;}.cls-47{fill:#cb3a32;}.cls-48{fill:#d7d6d6;}.cls-49{fill:#cf3b33;}.cls-50{fill:#e5e5e5;}.cls-51{fill:#ad322a;}.cls-52{fill:#ca3931;}.cls-53{fill:#dedcdb;}.cls-54{fill:#dedddd;}.cls-55{fill:#f0f0f0;}.cls-56{fill:#ececec;}.cls-57{fill:#e44a42;}.cls-58{fill:#bb362e;}.cls-59{fill:#cecaca;}.cls-60{fill:#4f554d;}.cls-61{fill:#fff;}.cls-62{fill:#e54b43;}.cls-63{fill:#efefef;}.cls-64{fill:#f7f7f7;}.cls-65{fill:#f5635b;}.cls-66{fill:#f8665e;}.cls-67{fill:#f05c54;}.cls-68{fill:#ef5a53;}.cls-69{fill:#f86860;}.cls-70{fill:#b8372f;}.cls-71{fill:#f6f6f6;}.cls-72{fill:#ef5b53;}.cls-73{fill:#c33830;}</style></defs><g id="Слой_2" data-name="Слой 2"><g id="Слой_1-2" data-name="Слой 1"><path class="cls-1" d="M472.2,352.87l-3.15.4c-2.71,1.63-6,.06-8.72,1.59l-.69-.24-.57.48c-2.44,2.07-5.84-.09-8.31,1.88l-.92-.16-.8.48a21.55,21.55,0,0,1-4.9,1.51l-.64-.19-.43.5c-1.24,1.1-2.85.87-4.3,1.19a107.2,107.2,0,0,1-13.63,2.54c-2.32.25-5.05.12-5.9-2.46s1-4.5,3-5.82c6.9-4.76,15-6.91,22.69-9.82,5.77-2.17,12.16-3.17,17-8.73-6.68-5.22-15.8.91-21.44-5.56.24-8.76,7.77-13.43,11.6-20.19,2.24-4,5.5-7.46,7.7-11.57,6-8.28,13.74-15.52,15.4-26.32A34.48,34.48,0,0,0,476.38,260c-2.86-9.68-1.24-17.37,9-21.78,5.9-2.53,5.22-5.8.39-9.16-3-2-5.89-4.23-7.42-7.7a5.73,5.73,0,0,1,.07-2.79c5-6.76,8.94-15.05,21.14-13.92-10.61-5.37-10.87-7.94-3-13.41a45.85,45.85,0,0,1,12.52-5.74,20,20,0,0,1,4.13-.76c4.22-.36,8.53.28,14.37-1.23-6.37-2.89-11.79-3.44-17.08-4.47-9.16-2.5-17.91-6.65-27.75-6.27-3.85.15-6.77-2.21-9.43-4.78a24.24,24.24,0,0,1-6.88-14.06c-.38-2.65-.85-5.5-2.62-7.45-8-8.72-7.88-19.28-7.35-30,.91-7-1.86-11.7-8.1-15.41-6.82-4-11.18-11.08-16.9-16.51-2.09-4.72-4.61-9-2.37-14.89C431.14,64.21,424.71,65,422,63a27.93,27.93,0,0,1-2.69-.84c-6.5-2.49-12.86-5.32-20.19-3.94-3,.55-5.26-.7-5-4.37a5.66,5.66,0,0,1,1.66-2.4c8-4.65,15.23-11,25.16-11.35,1.44.12,3-.15,3.92,1.43l-.2-.13c1.24.46,2.46,1,3.7,1.47A34.11,34.11,0,0,1,438,47.68c2.29,1.59,4.69,3,6.38,5.33,4.42,10,11.19,17.58,21.43,22.14,5.47,2.43,9.05,7.54,13.31,11.65,7,6.73,14.65,12.22,24.27,14.51,8.41,4,12.1,12.15,17.09,19.16,2.9,5,5.94,9.94,8.62,15.07,5.84,11.53,9.3,23.83,11.9,36.42a57.44,57.44,0,0,1,.86,11.34c.75,15.74-1.28,31-7.93,45.43-1.82,4-2.23,8.27-2.47,12.56a17.27,17.27,0,0,1-3.24,8.18c-7.47,9.57-14.11,19.5-15.61,32-4.89,4.94-11.31,7.64-17.18,11.5,2.23,2.54,6.52,1.47,8,4.86a2.58,2.58,0,0,1-1.05,2.38c-4.1,2.51-9.5,1.69-13.45,5.14,2.68,2.33,5.8.87,8.52,1.6a9,9,0,0,1,4.06,1.56,19.4,19.4,0,0,1,5.22,12,11,11,0,0,1-2.11,6.36c-4.95,6.17-6.32,12.69-2.88,20-1.26,1.66-3.57.88-5,2.15l-.92-.19-.82.45c-3.17,2-7.09-.43-10.23,1.76l-.91-.23-.85.4C479.66,353.14,475.64,351.12,472.2,352.87Z"/><path class="cls-2" d="M518.79,121.18c-5.55-5.73-8.7-13.5-15.48-18.18-5.24-3.43-12.27-5.54-10.47-14.19,13.29-8.72,28-14,43.73-14.25,33.15-.49,66.34.5,98.89-7.67,6.12-1.54,12.57,0,18.85-.57,1.65,0,3.48-.75,4.62,1.2l-.24-.2c1,.2,1.55,1,2.35,1.53a.72.72,0,0,0,1.06.5,5.21,5.21,0,0,1,3,1.66l.07,0c1,1.32,2.88.88,3.87,2.14l-.06,0c1.1,1.14,3.13.71,3.95,2.33l-.21-.18c1,.26,1.55,1.15,2.41,1.6l.17.09c.81,1.45,2.85.92,3.71,2.29l-.1-.07c1.12,1.08,3.29.57,3.86,2.51l-.25-.26A3.22,3.22,0,0,1,685,83.35l-.15-.14A17.92,17.92,0,0,1,687.11,85l.09,0c.85,1.37,3.06.82,3.64,2.57l-.23-.23A4,4,0,0,1,693,89.28l-.12-.1a18.77,18.77,0,0,1,2.21,1.88l0,0c1.71,1.75,4.42,2.25,5.68,4.55l-.23-.24a2.77,2.77,0,0,1,2.24,2.2l-.22-.22a2.82,2.82,0,0,1,2.22,2.22l-.22-.22a2.82,2.82,0,0,1,2.22,2.22l-.22-.22a2.82,2.82,0,0,1,2.22,2.22l-.22-.22a2.82,2.82,0,0,1,2.22,2.22l-.24-.22c2.27,1.25,2.7,4,4.58,5.58l.07.1c.51.81,1.29,1.41,1.78,2.24l-.1-.12a3.85,3.85,0,0,1,1.89,2.41l-.24-.25c1.82.67,1.33,2.79,2.46,3.89l-.06-.08c1.32,1.25,1,3,1.45,4.55,3.32,14.95.26,28.35-9.76,40.06a9.48,9.48,0,0,1-5.86,2.8c-9.65-7.2-20.82-7.18-32.1-6.84-5.69.17-11.26-.64-16.29-3.66-7.4-6.56-6.14-15.22-5.61-23.65.22-3.52,1.92-7,.4-10.54a23.92,23.92,0,0,0-13.56-17.44c-22.7-10.73-46.4-15.32-71.39-10.15-4.13.86-8.65,1.54-10.61,6.26-2,8.06,4.29,11.17,9.25,14.48,8,5.31,17,8.68,26.27,11a174.41,174.41,0,0,1,21.57,6.86,24.93,24.93,0,0,1,2.53.83c2.86,1.26,6,1.21,9,1.79a20.71,20.71,0,0,1,2.69.78c4.56,1.83,9.5,2.95,12.79,7.09-.08,9.38-1.84,10.58-14.07,9.67-13.55-6.64-27.56-9-42.52-5.5-4.49,1.06-9.22-.4-13.84-.94-10.35-1.22-16.34-6.42-17.51-17-.71-6.42-3.33-12.51-3.53-19.16C533.62,128.84,528.2,130.69,518.79,121.18Z"/><path class="cls-3" d="M223.1,387.19a15.79,15.79,0,0,0-1.94-.12c-.67-.67-1.39-1.3-2.1-1.94h0a3.41,3.41,0,0,0-1.95-1.05,3.91,3.91,0,0,1-2-1l0,0c-.71-.64-1.38-1.32-2-2l0,0c-.69-.66-1.37-1.33-2-2l0,0c-1.21-1.06-.84-2.94-2-4h0c-4.38-2.68-9.61.58-14-2h0c-1-1.23-2.9-.87-4-2h0c-.64-.68-1.3-1.33-2-2l0,0a22.89,22.89,0,0,0-2-2l0,0c-.62-.71-1.3-1.36-1.95-2l0,0c-1.19-1.07-.8-2.94-2.05-4h0a1.21,1.21,0,0,0-2,0h0c-1.1,1.16-3,.76-4.06,2a18.38,18.38,0,0,0-2,.1c-1.1,1.14-3,.67-4,1.91a16.4,16.4,0,0,0-2,.09c-1.1,1.14-3,.67-4,1.9-.65,0-1.31,0-2,.06-2.33,2.08-5.73-.26-8,1.95l-17.87,0a1.73,1.73,0,0,1-.58-1.59c.12-.56.26-.85.4-.85,2.09-2.11,6.42-1.23,7-5.31,1.15-9-.89-18.57,5.41-26.45,6.06,4.14,11.83,6.53,17.7-.71,2.32-2.87,5.51-1.12,8,.78,7,5.26,14.12,10,23.46,9.44a4.55,4.55,0,0,1,3.65,1.31c10.93,11.62,22,5,32.54-.24,10-4.93,10.46-5.13,13.41,5.44,1.34,4.83,2.87,9.58,5.81,13.68,6.74,9.4,16.65,9.26,23.16-.27,1.12-1.65,2.17-3.34,4-4.39,8.61-2.22,17.48-3.75,24.07-10.7a8.12,8.12,0,0,1,7.46-2c6.77,1.3,13.07-.55,19.5-2.2,8.75-2.26,18.05-2.16,24.7-10.42,3-3.74,8.78-1.79,13.1.14,6,2.69,12,3.48,18.27,1a12.52,12.52,0,0,1,3-.36,28.21,28.21,0,0,0,15-2.29c3-1.25,6-2.63,9-.11,2.7,5.5-1,9.88-2.61,14.6-1.27,3.65-2.65,7.26-3.09,11.13-1,4-1.72,8.1-6.11,10l-12.26.3a1.31,1.31,0,0,0-2.09.07h0c-1.25,1-.86,2.94-2.16,3.94a14.83,14.83,0,0,0-1.88.12c-1.1,1.13-3,.65-4,1.9l-9.89,0c-1.65-1.82-4.39-.19-6.06-1.92a18.16,18.16,0,0,0-1.95-.07c-1.08-1.23-3-.75-4.06-1.95a14.7,14.7,0,0,0-1.88-.07c-.72-.64-1.44-1.27-2.13-1.94h0c-2-1.3-4-2.09-6,0h0c-1.21,1.06-.85,2.91-2,4h0c-.67.65-1.32,1.33-1.93,2l-.05.05a16.92,16.92,0,0,0-1.93,1.95l-.07.07a16.24,16.24,0,0,0-2,1.93l-.05,0a24.52,24.52,0,0,0-2,1.94h0c-.68.69-1.41,1.32-2.12,2a12,12,0,0,0-1.89.09c-.65.69-1.43,1.25-2.11,1.9a16.79,16.79,0,0,0-1.88.07c-1.1,1.2-3,.72-4.07,1.94-.64,0-1.29,0-1.94.06-2.34,2.09-5.74-.23-8.05,1.94l-9.9,0c-1.61-1.86-4.34-.22-6-1.91a18.21,18.21,0,0,0-2-.11c-1.34-1.13-2.68-1.28-4,0l-2.1,2.08a23.43,23.43,0,0,0-1.93,1.93l0,0c-.72.6-1.36,1.29-2,1.94v0c-1.06,1.19-2.93.81-4,2h0c-1.11,1.12-2.95.78-4,2h0c-1.11,1.18-3,.8-4.09,2a17.33,17.33,0,0,0-1.91.07c-1.66,1.76-4.42.09-6.05,1.95h-1l-1,.05a28.07,28.07,0,0,1-16,0h0a3.76,3.76,0,0,0-2-1,3.49,3.49,0,0,1-1.94-1.14,13.78,13.78,0,0,0-.1-1.82c-1.57-1.91-4.33-.21-5.95-2-.64-.05-1.29-.07-1.94-.06-1.08-1.22-3-.74-4.06-1.94a15,15,0,0,0-1.9-.06c-.66-.66-1.43-1.21-2.09-1.88a18.21,18.21,0,0,0-2-.11c-1.09-1.21-3-.81-4.06-2l0,0C224.45,388.43,223.78,387.8,223.1,387.19Z"/><path class="cls-4" d="M327.85,55.33a.73.73,0,0,0,1.22-.28c.85-1,1.32-2.48,2.92-2.71,4.73.59,8.79,2.4,11.57,6.45-.17,4.78,4.47,3.39,6.68,5.13s6.63,1.67,4,6.32c-10.37.39-17.16,6-23.81,13.7-8.71,10.11-20.81,16.39-32.07,23.57-22.58,14.4-47.71,19.65-73.75,22.1-3.65.34-7.2,1.33-10.87,1.45a14.87,14.87,0,0,1-3.12-.3c-12.61-.45-25.13,1.74-37.75,1.27a5.89,5.89,0,0,0-6.27,5.39c-2.66,19-12.43,35-21,51.49-9.32,14.78-15.15,31.83-28.47,44a36.54,36.54,0,0,1-25.56,8.73c-6-.18-11.6,2.43-17.56,2.19-5.07-7.64-4.61-9.36,3.31-13,12-5.48,24.87-8.82,36.26-15.51,4.81-2.82,11.34-4.78,10.6-12.54,0-5.49,4.23-8.84,6.71-13.07,3.36-5.72,5.78-11.59.82-17.54-5.43-6.51-2.1-9.69,3.9-12.88,8.27-4.39,9.48-8.5,5.67-16-6.17-12.15-11.86-12.71-19.87-1.93-9.45,12.71-16.38,27.48-31.07,35.84-6.94,3.95-14,7.72-21,11.49a27.87,27.87,0,0,1-7.12,2.53c-4.74.48-9.49,1-14.09-.84a2.92,2.92,0,0,1-1.62-2.5,3.83,3.83,0,0,1,1.92-2.29c4.63-1.7,9.39-3,14.1-4.44,22.88-6.49,39.11-20.56,48.43-42.49,2.07-7.27,5.37-14.44,1.51-22.12-.11-.46-.19-.92-.28-1.38a4.16,4.16,0,0,1,.89-2.6,10.58,10.58,0,0,1,4.18-.48c1.39,0,2.87-.16,3.73,1.35l-.24-.2a7.57,7.57,0,0,1,2.37,1.79h0c2.25,1.76,5.37.9,7.66,2.55,10.72,1.68,19-2.9,28.34-8,14.26-7.72,28.81-16.34,45.56-18.09,6.57-.68,6,4.44,5,8.94-3.33,14.17-.76,17.51,13.35,17.83a296.62,296.62,0,0,0,40.31-2.25c1.32-.2-.62-2,0-.85.24.51.08.91-.44.87-8.06-.6-16.75,5.32-24.13-2.33,2.59-4.11,6.88-3,10.63-3.37,6-.55,11.69-1.51,15.93-6.33,5.16-4.56,11.58-7.87,14.17-15,1.07-2.94,3.75-3.46,6.63-3.11s5.87,1.3,8.87,1.16c6.54-.32,12.64-1.74,15.93-8.24,1.87-3.69-1.13-19-4-21.9-2.65-2.67-5.43-1.86-8.19-.34-4.36,2.4-8.47,5.23-12.74,7.79C269.27,74.44,251,78.67,232,81.06c-4.72.74-9.43,1.31-14-.73-2.31-7.23,4.37-4.49,7-6.3a19.76,19.76,0,0,1,2.83-.78c3.64-.7,7.53-.2,10.9-2.28,10.67-4.39,22.37-5.65,32.78-10.85,4.42-2.21,8.81-4.48,12.57-7.75a67.66,67.66,0,0,0,5.23-5.87c.73-1,1.42-2.12,2.06-3.23.38-.78.8-1.53,1.21-2.29,2.23-3.28,1.57-7.95,5.1-10.59a5.17,5.17,0,0,1,2.7-.23l1.2.69c.44.82.9,1.62,1.37,2.42l-.12-.05c1.23.92,1.35,2.54,2.27,3.65a11.08,11.08,0,0,1,1,1.84c.41.93.81,1.87,1.31,2.76.4.53.78,1.07,1.18,1.6a9.27,9.27,0,0,1,1.13,1.65c.13.31.26.62.38.93a5.85,5.85,0,0,1,.5,1.93l-.09-.16a2.55,2.55,0,0,1,2.21,2.21l-.21-.21a2.64,2.64,0,0,1,2.25,2.17l-.2-.2a3.42,3.42,0,0,1,2.35,2l-.16-.15A6.94,6.94,0,0,1,319,55.15h0C321.93,57,324.89,56.14,327.85,55.33Z"/><path class="cls-5" d="M343.06,59.11l-11.25-5.5A3.25,3.25,0,0,1,329,53.2l-.09,0c-.88-1.38-2.94-.87-3.75-2.36l.19.19c-1.76-2.51.82-2.79,2-3.81a1.52,1.52,0,0,0,1.78-.31c7.42-2.14,15.19.69,22.6-1.6l5.38-.31c4.76-2.12,10,.38,14.8-1.66l3.2-.32c3.25-2,7.21.27,10.45-1.73a1.07,1.07,0,0,0,1.54-.21c2.54-1.95,5.9,0,8.46-1.79a1.07,1.07,0,0,0,1.55-.28c1.77-1.56,4.4-.15,6.15-1.78l-.12,0c1.88-1.9,4.65-.66,6.71-1.91l4.67,0c1.43.82,3.42.48,4.44,2.15l-.22-.16c1,.27,1.57,1.15,2.4,1.66l.11.06a1.2,1.2,0,0,1,.51,1.74c-8.91,2.73-16.72,7.69-24.69,12.3-5.93-5.45-13.21-3.3-19.82-2.82C369.08,50.83,361,52,351.69,52c11.8,2.76,22.44.23,33.11-.34,3.55-.19,7.23-1.63,10.3,1.46.32,1.62.69,3.9,2.79,3.14,8.82-3.19,16,.68,23.17,4.85-4.63,4.4-10,4.39-15.79,2.9-3.6-.92-7.37-3.6-11.25.32C411.41,72.54,421.42,89,436,100.39c7.33,5.72,16.57,8,23.08,14.69a83.3,83.3,0,0,1,0,8.94c-.76,7.25.68,13.56,5.89,19.08,1.9,2,4.38,4.46,4,7.72-.65,6.51,2.55,11.43,6.11,16.28-3.61,2.81-3.14,6.16-1.33,9.73,4.51,8.93,3.2,17.4,0,26.78-4.51,13.27-1.88,27.46-2.3,37.43-.74-5.18-1.79-14.16,7.64-20,4,3,8.09,5.78,11.85,9,4.12,3.52,3.9,5.29-.69,8.3-2.21,1.46-4.76,2.39-7,3.83-6.74,4.32-7,5.26-5.12,13,.32,1.29.61,2.58.91,3.87-9.47,1-13.27,7.69-17.25,15.39-12,23.16-25.71,45.42-35.58,68.26,4.56-3.77,5.74-12.88,14.85-13.66,1.63,2.17,4,2,6.32,2h11.93c2.7,0,5.82,0,6.75,3,1.13,3.6-2.06,5.33-4.59,6.73a75.61,75.61,0,0,1-9.95,4.41c-7.41,2.79-14.9,5.37-22.33,8.12-3.39,1.25-6.79,2.55-9.24,6.9,6.93,1.52,13.06-2.74,19.28-1.05.52.59.61,1,.26,1.32a1.27,1.27,0,0,1-.84.31l.24-.12c-.91,1.68-2.83,1.37-4.21,2.12l.19-.13c-.65,1.65-2.82,1.1-3.64,2.51l-.12.08A24.87,24.87,0,0,0,429,367L429,367a4.31,4.31,0,0,1-2.41,1.84l.24-.21c-.69,1.75-2.79,1.27-3.85,2.44l.05,0c-1.13,1.23-2.94,1-4.19,1.93l.15-.07c-4,1.73-7.91,2.2-11.78-.27l.3.21a4.88,4.88,0,0,1-2.44-1.77l0,0a8.72,8.72,0,0,1-1.91-2.28l.24-.06,3.63-9.64c9.12-23.75,22.16-45.68,32-69.09,7.42-16.2,15.89-32,18.33-50,1.69-7,.36-14.2.82-21.28-1.72-14.64-1.61-29.39-2.79-44.05-1-5.59-1.65-11.27-3.86-16.58a148,148,0,0,0-7.84-20,189.79,189.79,0,0,0-10-16.51,112,112,0,0,0-42.21-39.17c-12.67-7.71-26.94-11.88-40.21-18.27C348.39,62.72,345.19,61.83,343.06,59.11Z"/><path class="cls-6" d="M1.29,286.4a.82.82,0,0,0-.23-1.31c-2-5.17-.48-10.55-1-15.8,2.6-4.93,4.46-1.31,5.62.83,2.66,4.9,4.76,10.11,7.07,15.2,5.24,11.58,13.29,20.26,25,25.43a17.69,17.69,0,0,1,2.39,1.54c4,3.93,8.54,7.1,13,10.45,11.87,11.47,26.75,12,41.16,8.92,17.32-3.69,33.08-12,46.84-23.42,3.43-2.84,8.73-5.9,7.5-10.93-1.42-5.78-8.12-2.65-12.09-4.6a7,7,0,0,1-2.38-1.65c-3.38-7.44-6.1-15.1-12.16-21.21-4.83-4.88-3.93-10.83.35-16.11,2.3-2.83,5.22-5,7.79-7.55.5-.73,1-1.46,1.51-2.21a17.56,17.56,0,0,0,1.51-5.12c1.2-4.63,1.3-9.43,2.31-14.08a23.94,23.94,0,0,1,1.57-4.69c.67-1.42,1.25-3.31,3.39-2.85,1.86.41,2.42,2.2,2.67,3.78a172.67,172.67,0,0,0,3.5,17.45c3.58,13.47,6.8,15.17,19.61,10.17q4.14-1.62,8.24-3.38c9.42-2.95,13.86-11,18.63-18.53,5.34-8.49,6.26-8.71,12.89-1.94,8.22,8.41,11.2,9,21.9,4.06,7.66-3.56,15.26-6.76,23.53-1.79,0,3.63-3,3.92-5.4,4.84-18.63,7.2-36.93,15.15-55.26,23.06-17.73,7.65-36.24,5.34-54.7,2.8,1.18,2.34,3.37,3.29,5.52,4.12,12.64,4.87,25.87,5.88,39.22,5.46,7.86-.24,14.93-2.84,20.52-8.86,2.27-2.43,5.17-4.23,8.82-4,5,5.81-1.94,8.43-3.32,12.54-2.51,3.4-5.81,6.1-8.38,9.46C189,290,175.12,298.83,163,309.51a27.19,27.19,0,0,1-2.05,1.82,21.31,21.31,0,0,1-2.2,1.56c-5,2.85-9.55,6.37-14.59,9.14a42.26,42.26,0,0,0-4.68,3,27.75,27.75,0,0,1-2.45,1.73c-22.34,12-45.62,19.82-71.49,16.27-5.21-1-10.44-1.94-14.48-5.83l-.46-.47-.64.16c-6-1.8-12.81-1.91-16.52-8.25l.13.2A4.24,4.24,0,0,1,31.11,327l.06,0c-1.06-1.16-3.23-.65-3.83-2.52l.27.25a3.31,3.31,0,0,1-2.42-2l.17.16A7.27,7.27,0,0,1,23.1,321l0,0c-.71-.62-1.36-1.32-2.08-1.94l0,0c-.63-.7-1.29-1.35-2-2l0,0q-.95-1-2-2l0,0a21.89,21.89,0,0,0-2-2h0a16,16,0,0,1-1.91-2.19l.1.11a4,4,0,0,1-1.9-2.4l.24.25c-1.78-.63-1.26-2.8-2.52-3.77h0c-5.22-2.46-4.72-7.71-5.92-12.12l0,.08C1.35,291.18,2.59,288.43,1.29,286.4Z"/><path class="cls-7" d="M733.05,211.15l.06,4a12.27,12.27,0,0,1,0,9.95c0,1.33-.07,2.66-.11,4-1.21,1.08-.82,2.94-2,4h0c-1.23,1-.86,2.91-2,4v0c-.66.68-1.34,1.34-2,2h0q-1,1-2,2h0c-.68.66-1.34,1.34-2,2l0,0c-1.06,1.19-2.93.81-4,2h0a1.24,1.24,0,0,0-.53,1.36c.16.46.32.69.49.69,0,2,0,3.92,0,5.87a5.51,5.51,0,0,1-2.51,1.33c-9.28,5.62-17.37,10.81-21,23.15-4.38,14.79-19.61,19-33.62,21.43a56.48,56.48,0,0,0-18.67,6.25c-8.58,4.81-17.87,7.35-27.84,6.24-4.39-.49-8.53.4-12.83,1.11-9.86,1.62-19.85,2.82-29.36-1.92-1.2-.6-2.56-1.4-3.78-1.14-14.86,3.12-27.07-4.55-39.93-9.63a3.85,3.85,0,0,1-1.44-2.61c.72-4.31-.58-9.22,3.65-12.5,4.32.36,3.24,6.25,7.19,7a18.18,18.18,0,0,1,8.66,1.67c14.28,7,23.76,4.84,33.81-7.49,1.26-1.55,2.32-3.23,3.51-4.83,5.95-8,6.51-8,12.79-.75,5.54,6.41,9.15,5.95,14.57-1.87,6.95-10,7-10.11,16.84-2.4,6.08,4.77,12.38,8.73,20.25,10,10,1.59,18.5-.69,24.87-8.83,7.82-10,19-18.1,18.59-32.8,1.09-6.29,3.66-12,6.32-17.78,5-10.91,4-14.2-5.27-22-2.38-2-4.74-3.86-3.18-7.48,10,.12,19.8.38,29.74-3.14,7-2.5,8.54,6.72,12.84,10.32a1.9,1.9,0,0,1-.15,2.73h0A2.71,2.71,0,0,0,733.05,211.15Z"/><path class="cls-2" d="M20.75,249.83c.18,1.1.35,2.2.53,3.31.91,1.3.84,2.93,1.46,4.33l-.14-.05c3.4,2.42,6.44,5.35,10.33,7.05,1,2.44-1.35,6,2.51,7.44,19.59,11.77,40.46,7.85,56.64-10.5,3.61-4.09,5.86-9.82,12.21-10.9a3.94,3.94,0,0,1,2.43,1.77c3.21,5.52,1.37,10-2.48,14.46-4.8,5.5-9.82,10.91-13.36,17.33-3.88,7.05-1.59,10.71,6.43,10.78,5,0,9.85-1.6,14.82-1.73,7.46-.19,9.58,3.2,6.54,10.08a22,22,0,0,1-13.85,12.15c-18.4,6-37.23,5.62-56.12,2.78-3.75-.56-6.56-3.07-9.62-5h0C16.39,297.89,2.27,278,4.19,249.35c.21-11,5.6-18.85,15-24.16l-.07.05c2.6-2.21,5.8-2.91,7.81-.06,3.34,4.73-2.57,6.58-3.95,9.9l0,0A42.46,42.46,0,0,0,20.75,249.83Z"/><path class="cls-3" d="M529,299.1c4.2-1.18,7.68-1.51,11.58,2.11,7.41,6.88,17,6.6,26.39,5.54,1.9-.21,3.65-1.54,5.64-.05,10.22,7.59,21.31,4.94,32.24,2.36,2.61-.62,4.8-1.15,7.6-.59,10.9,2.17,21-.64,30.45-6.05a40.67,40.67,0,0,1,18.16-5.85c10.52-.72,20.43-5.41,28.43-13,3.81-3.6,6.07-8,5.49-13.33-.51-4.78,1.66-7.51,5.88-9.09,5.15-1.92,8.91-5.67,12.64-9.49,2.15-2.19,3.33-1.35,3.57,1.46a5,5,0,0,1,0,5.93,18.16,18.16,0,0,0-.07,1.95c-1.21,1.09-.82,3-2,4.07h0c-1.23,1-.86,2.89-2,4h0c-1.22,1-.84,2.92-2.05,4l0,0c-.64.7-1.33,1.36-2,2h0c-.67.65-1.35,1.3-2,2l0,0a21.33,21.33,0,0,0-2,2l0,0a20.15,20.15,0,0,0-2,2l0,0a20.15,20.15,0,0,0-2,2l0,0c-.69.62-1.35,1.27-2,2l0,0c-.71.61-1.36,1.3-2,2l0,0c-.67.71-1.4,1.34-2.13,2a13.34,13.34,0,0,0-1.89.13c-.68.61-1.35,1.25-2,1.91v0c-1.09,1.17-2.94.82-4,2h0c-1.64,1.79-4.41.17-6,2h0c-.65.69-1.33,1.35-2,2h0c-.67.66-1.35,1.31-2,2l0,0a22.78,22.78,0,0,0-2,2l0,0a20.15,20.15,0,0,0-2,2l0,0a20.15,20.15,0,0,0-2,2l0,0a25.89,25.89,0,0,0-2,2l0,0c-.71.61-1.36,1.29-2,2s-1.35,1.32-2,2h0a28.37,28.37,0,0,1-2.12,2,12,12,0,0,0-1.89.13c-.68.61-1.34,1.25-2,1.91h0c-1.07,1.15-2.94.76-4,2l0,0c-1.12,1.09-3,.73-4,2h0c-1.14,1.14-3,.78-4.11,1.93l-9.87,0c-1-1.25-2.93-.76-4-1.95a13.9,13.9,0,0,0-1.93-.07,1.39,1.39,0,0,0-2.16,0l-4,.1c-1.67,1.7-4.4.07-6,1.91a16,16,0,0,0-2,.06c-2.32,2.08-5.73-.27-8,1.95h-1l-1,.05c-3.72,2.42-8.33-.61-12,1.95h-7.89c-1.08-1.22-2.95-.75-4-1.92a12.73,12.73,0,0,0-2-.09,1.23,1.23,0,0,0-2,.06l0,0c-.72.6-1.36,1.28-2,1.93v0c-1.08,1.2-3,.8-4,2a18.75,18.75,0,0,0-2,.1,16.77,16.77,0,0,1-12-.09h0c-1.06-1.21-2.92-.85-4-2l0,0c-.67-.66-1.32-1.35-2-1.95l0,0a25.12,25.12,0,0,0-1.94-1.92l-2-.11c-.63.72-1.37,1.33-2,2l0,0c-.65.68-1.34,1.33-1.95,2l0,0a23.57,23.57,0,0,0-1.92,1.95A13,13,0,0,0,543,329a16,16,0,0,1-2,2.1l0,0c-1,1.24-2.91.83-3.91,2.1l0,0a26.43,26.43,0,0,0-2,1.95h0c-.68.69-1.41,1.32-2.12,2a13.31,13.31,0,0,0-1.89.11q-1,.93-2,1.92l0,0c-1.1,1.19-3,.8-4.06,2-.66,0-1.31,0-2,.1-1.1,1.15-3,.68-4,1.91h-1l-1,.05c-1.93,1.43-4,1-6,.42.27-12.68,8.13-22.86,11.56-34.52C523.63,305.48,523.19,299.93,529,299.1Z"/><path class="cls-8" d="M443.07,53.38q-2.9-2.18-5.8-4.34c11.8-5.72,23.23-7.88,33.58,3a16.07,16.07,0,0,0,8.79,4.35,43.08,43.08,0,0,0,13.81,1.94c5,.1,10,.23,14.79-1.52a26.61,26.61,0,0,1,18.47.06c8.57,2.88,16.06-.38,20.62-7.76,3.54-5.73,2.28-8.8-4.44-9.12-10.63-.5-21.29-.3-31.94-.11a85.07,85.07,0,0,1-23.24-4c-3.28-1-8.42-1.66-5.52-7.6a8.13,8.13,0,0,1,4.84-.85c20.85,3.67,41.59,4.3,62-2.71.89-.31,1.8-.59,2.69-.92a16.4,16.4,0,0,0,4.68-2.42c3.84-2,3.64-8,8.65-8.81a8.44,8.44,0,0,1,3.81,5.26.92.92,0,0,0,.38,1.31c2,3.11-.42,7,1.78,10.09l0-.08c1.94,1.6.31,4.4,2,6.06l0-.06c1.27,1.13,1.06,2.92,1.86,4.26l-.09-.12a9.21,9.21,0,0,1,2.3,1.6l3.58.37c2.57,1.77,5.82,0,8.41,1.64l3.18.47c2.15,1.1,4.78.18,6.84,1.64a1.09,1.09,0,0,0,1.49.29c2,1.36,4.59.18,6.51,1.71a1.05,1.05,0,0,0,1.43.31c2,1.39,4.78,0,6.53,2l-.13-.07c1.73,1.62,4.55,0,6.13,2.07l-.13-.07c1.71,1.64,4.59-.05,6.11,2.13l-.16-.09c1.28.9,3,.63,4.23,1.76a.69.69,0,0,0,1.11.34c1.64.57,3.57.46,4.82,2l-.16-.09c1.29.89,3.08.66,4.22,1.88l0,0a20.21,20.21,0,0,1,3.41,2.48,3.8,3.8,0,0,1,1.1,2.63,4.08,4.08,0,0,1-2.11,2.08c-16.37-1.89-32.89-2.84-48.9-7.09-4-1.05-7.35-2.08-11,1.07C573.27,69,561.05,73,548,74.37c-8.84.92-17.73,1.51-26.58,2.34C505.93,72.05,491,64.79,474,67.52c-5.64.9-11-2.2-16.45-3.62C451.28,62.41,446.71,58.53,443.07,53.38Z"/><path class="cls-9" d="M521.08,75.1c18.69-2.15,37.78-2.51,54.73-12.35,2-1.16,5.08-2,5.69-3.74,2.49-7,6.34-5.86,11.39-3.13,7.81,4.21,16.78,3.78,25.21,4.86,7.23.93,14.49,1.34,21.47,3.59,2.54.82,4.55.45,6.16-1.72a3,3,0,0,1,3.31.29,1,1,0,0,0,1.34.44c1.51.75,3.53.42,4.55,2.19l-.28-.13c.88.15,1.24.44,1.08.88s-.39.76-.63.76c-.77,1.5-1.71,3.32-3.59,2.85-12.85-3.17-24.81,2.22-37.15,3.81C604.24,75,594.23,77.16,584,77.11c-14.28-.06-28.57.26-42.84-.11a68,68,0,0,0-30.77,6.51c-5.66,2.63-12.4,2.7-17.19,7.32-6.18,1.15-7.83-3.76-10.27-7.65a6.35,6.35,0,0,1-.34-3.23l.93-1.38C495.84,75.58,508.26,73.2,521.08,75.1Z"/><path class="cls-10" d="M65.13,340.85c26.75,2.83,50.8-5.64,74-17.67,6.34.33,8.32,4.87,8.95,10s-3.17,7.52-6.9,9.92c-4.13,2.66-9,1.73-14,3.05,2.38,11.08,13,13.14,19.9,18.94-2.8,3.4-6.73,1.4-10.1,2.08a2.68,2.68,0,0,1-3.87-.15l0,0c-1.07-1.18-3-.79-4-2.12l.07.08a9.32,9.32,0,0,1-2-2.06l.07,0c-2.17-3.24-5-3.88-8.39-2l-19.62,0c-2.36-2.12-5.78.17-8.13-2h0c-1.08-1.2-2.9-.86-4-2l0,0c-1-1.26-2.94-.84-3.91-2.16l.09.09c-1.35-1-.93-3-2.11-4.05a2.42,2.42,0,0,0-2-1.92c-1.63-1.84-4.37-.21-6-1.92l-.84-.16h-.85a12.58,12.58,0,0,1-2.34-1.89h0C68.19,343.28,63.53,345,65.13,340.85Z"/><path class="cls-11" d="M243.8,27.36l3.34-.52c2.05-1.21,4.57-.35,6.64-1.51l5.29-.48c4.64-3.64,9.67.39,14.42-.73,4,1,4.47,4.58,5.18,7.69,1.72,7.53-.36,9.17-7.95,8-.92-.15-3.89-3.8-6.1.74-1,2.12-4.1-1-4.2-2.63.06-2.72-2.1-.7-1-1.4.48-.29.61,0,.65.76.08,1.94.9,4.13-.94,5.56-3,2.35-4.29-.06-6.29-2-1.82-1.82-1.37,1.66-2.7,2.26-2.91,1.31-5,1.63-6.05-2-.53-1.15.18.46-.36-.75a3.68,3.68,0,0,1,.23.4c-.1,2.2.79,5.07-3,4.42-1.11-.73-.81.11-.64.86-3.14,4.46-3.14,4.46-8.08-1.16a1.73,1.73,0,0,1-.68-1.64c0-.1-.41-.14-.43,0-.11.92,1.13,1,1.17,1.85,1.59,2.22,2.84,4.49.55,7-1.92,2.06-3.93,1.79-5.84,0,0,.06-.37-.72-.37-.72s-.67.57-.67.61a2.22,2.22,0,0,1-2.67,1.37A8.69,8.69,0,0,0,221.74,52s0-1,0-1,.2,1,.21,1a11.41,11.41,0,0,0,2.68,2,5.17,5.17,0,0,1,1.24,3.6c.37,4.49-6.69-3.46-6.6,4.57.05,4.63-9,1.34-13.88,0-.88.28-1.17-1-2.06-.78.36.87,1.44.15,1.9.84,2.7,1.07,5.66,1.51,8.42,3.73-4.09,5.1-10.74,3.18-15.21,6.25-2.25.15-4.46-.4-6.71-.51-1.78-1.34-2.32-2.8-.41-4.48l-.09.1c1-1.25.74-3,1.79-4.2l0-.06c1.31-1,.85-3,2.23-3.86l-.07.11C199,51.59,204.68,45.92,212.89,43l.14-.1c.82-.48,1.41-1.26,2.24-1.74l-.13.12c.83-1.39,2.89-.84,3.66-2.31l.22-.13c.86-.42,1.43-1.22,2.27-1.66l-.14.13c.91-1.43,2.89-1,3.9-2.24l0,0c.77-.74,1.48-1.53,2.32-2.2a12.3,12.3,0,0,1,1.88-1c1-.46,1.94-.91,2.89-1.42.62-.39,1.27-.72,1.92-1.05A25.44,25.44,0,0,1,237.14,28a7.56,7.56,0,0,1,2.25-.36A6.38,6.38,0,0,0,243.8,27.36Z"/><path class="cls-11" d="M95.77,113.3A1.14,1.14,0,0,0,97.1,113a1.87,1.87,0,0,1,2.16-.45,9.9,9.9,0,0,1,2.2,2.86,20,20,0,0,1,1.13,2.15c.56,1.1,1.09,2.21,1.62,3.33a18.07,18.07,0,0,1,1,2.39c.46,2.74,2.74,6.26-1,7.76-2.59,1-3.61-2-4.13-4.29-.74-.31-.21-1.17-.68-1.61-.36.94.88,1.37.72,2.26,0,1.88,1.8,5.24.82,5.2-5.74-.22-10.7,4.72-16.57,2.45a1.3,1.3,0,0,1-.44-1.47c-.47.38-.42.81.17,1.36,0,2.21-1.2,3.2-3.28,3.16-.18-.05-.29-.36-.57-.24,1.31.23-.51.21.79.63,2.43,2.13,4.39,5.12,2.39,7.74C81,149.36,79,145.66,77,144.4c-.85,0-.79-1.31-1.73-1.17.15.89,1.35.51,1.59,1.33-5.32,3.61-3,8-1.21,12.3a2.9,2.9,0,0,1-2,3.13,5.2,5.2,0,0,1-4.31-1.42c.13.08-.4,0-.4,0s.2.62.25.73c-2.51,5.77-5.67,2.66-8.74.73-1.12-.71.39.11-.78-.54-.79-.43-1.36-1.47-2.51-.95,1-.3,1.66.4,2.4.88,2,1.51,2.72,3,.17,4.55-.62-.34-1-.1-1,.7,0,.47.2.7.45.75-1.68,5.07-5.85,3.63-9.47,3.7a10.82,10.82,0,0,1-2.71-.91,6,6,0,0,1-2.6-3.33c3.31-10.72,10.1-18.89,18.79-25.68l-.1.07a11.55,11.55,0,0,1,2-2.16h0c1.35-2.56,3.61-4.27,5.7-6.14l.21-.2A4.55,4.55,0,0,0,72.82,129l.17-.15c2.17-3.22,4.23-6.57,8.48-7.42v.11c1.84-4.61,6.1-5.28,10.17-6.27a1.58,1.58,0,0,0,1.5-.57A8.49,8.49,0,0,1,95.77,113.3Z"/><path class="cls-12" d="M192.86,71.2c1.37-2.19,2.78-.39,4.18,0,2.53,1,5.23-.45,7.77.51,7.24,2.32,15.47-1.78,22.25,3.43-2.32,3.83-7.65.19-10,4-3.47,3.8-8.13,1.52-12.44,2.27,11.25,4.84,18.18,14.21,18,24.06-6,1-11.39.81-13.57-6.32-.28-2.5-.64-5-3.36-6.13-1.42,6-5.27-.36-7.82,1.52-2,1.5-5,1.75-7.33,2.88-8.63,4.14-16.85,9.18-26.39,11.19-1.52.32-3.06.62-4.26,2.12-6.67,8.35-20.24,12.08-30.84,8.66,1.5-3.47,5.65-2.12,7.85-4.32l.1,0c3.29-5.92,9.44-6.2,15-7.61a.65.65,0,0,0,1-.42c5.17-6.51,13.23-5.6,20.06-7.82l0,0c4.67-3.94,10.33-5.73,16-7.61,9.68-3.21,9.82-3.71,5.84-13.27a15.87,15.87,0,0,1-1.38-3.7l.17.17C191.65,74,192,72.65,192.86,71.2Z"/><path class="cls-13" d="M733,205c-3.54,0-5.32-2.22-6.45-5.14-1.91-4.92-5-5.42-9.3-2.92-8.64,5-17.42,4.94-26.16.13a10.2,10.2,0,0,1-3.93-1.15c-2.2-1-4.61-1.75-5.59-4.33-.72-2.75-.5-5.29,1.63-7.42,3.91-2.43,8.3-1.9,12.52-1.76a87.31,87.31,0,0,0,30.16-4.17,4.27,4.27,0,0,1,3.2.84v0c1.19,1.1.8,3,2,4.08a12.78,12.78,0,0,0,.13,1.95c1.12,1.12.67,3,1.87,4.05a12.6,12.6,0,0,0,.09,1.94C734.46,195.78,734.75,200.42,733,205Z"/><path class="cls-14" d="M479.7,5.32A1.27,1.27,0,0,0,481.11,5c1.84-1.5,4.45-.17,6.26-1.74a2,2,0,0,0,1.76-.32c2.62-1.62,5.87.06,8.49-1.6l7.54-.52C508-.41,511,.31,513.88.18a3.14,3.14,0,0,0,4.44,0,90.34,90.34,0,0,1,10.41.17c2.5,1.2,3.86,3,3.28,5.91a3.35,3.35,0,0,1-3.19,2c-2-.13-3.47-1.58-5.39-1.87-.7-.05-1.39-.14-2.08-.18C520,6.69,520.15,8,519.69,9c-3.15,8-11.3,5.28-14.8,3.75-9.87-4.33-16.82,2.53-21.31,6.79-4.26,4.05-8.77,1.37-11.88,4.47a6.56,6.56,0,0,1-5-1.57,12.81,12.81,0,0,1-4.09-5.1,1.8,1.8,0,0,1,.77-2.2l-.18.2a6.15,6.15,0,0,1,2.05-2.19l-.11.1a5.46,5.46,0,0,1,2.25-2l-.18.19c.78-1.57,2.85-1.08,3.8-2.39l.05,0c1.13-1.06,2.95-.71,4-1.94h0C476.41,6,478.21,6,479.7,5.32Z"/><path class="cls-12" d="M463.56,17.17a7.8,7.8,0,0,1,3.49,4c2.58,5.81,5.09,11.82,4.39,18.19-.9,8.16,7.85,12.15,7.64,19.76a15.16,15.16,0,0,1-10.86-6c-5.18-6.87-12.23-7-19.4-5.46A46.73,46.73,0,0,1,437.27,49c-3.5-1.58-7.08-3-9.87-5.81,1.84-1.88,4.54-.74,6.6-1.88,3.76,1,7.43,0,11.13-.5,3.78-2.06,9.25,1.41,12.1-3.7l-.05.1c1.69-1.69.05-4.52,2.08-6.1l-.06.12c1.6-1.76.18-4.4,1.79-6.16a1.23,1.23,0,0,0,.22-1.62C463,21.76,460.82,18.55,463.56,17.17Z"/><path class="cls-9" d="M5.11,249.08C8.33,252,7.06,255.89,7,259.34c-.24,14.24,4.1,26.25,15.06,36,6.11,5.42,12.32,10.94,17,17.79C27,310.17,19.35,302,13.33,291.75c-4.66-7.93-6.91-17-12.11-24.66C-.46,265.22,0,263.2.81,261.15l.49-3.38c1.29-2,.09-4.75,1.83-6.66v0C3.61,250.3,3.87,249.22,5.11,249.08Z"/><path class="cls-15" d="M711.07,163.08c9.44-12.08,10.53-26.29,10.39-40.8a1.56,1.56,0,0,1,1.69.66l.05.12c.67.92,1.55,1.74,1.61,3a.66.66,0,0,0,.35,1.06c1.11,1.3.89,3.1,1.73,4.49a1.29,1.29,0,0,0,.4,1.55c1.26,2.07.41,4.62,1.55,6.72q0,4.31,0,8.62c-1.93,3.31.35,7.31-1.76,10.59a1,1,0,0,0-.28,1.38,1.23,1.23,0,0,1-1.73,1.17c-2.1-1.73-4-1.14-6.16.19C716.58,163.31,714.13,165.45,711.07,163.08Z"/><path class="cls-16" d="M529,299.1c-3.85,9.78-7.94,19.48-11.43,29.4A116.46,116.46,0,0,1,511,342.94c-1.19,1.34-2.49,1.27-3.85.29l-2.09,1a4.93,4.93,0,0,1-1.28-2.54c2.13-9.93,8.47-18.13,11.42-27.73,4.62-7.38,3.6-17.52,11.4-23.35,2.59,1.47,3.13,3.73,2.5,6.46Z"/><path class="cls-17" d="M531.07,7.11c.13-2.21-1.06-3.95-2-5.78,2.58-2,5.26-1.47,8-.35l3.35.35c2.05,1.23,4.68.17,6.66,1.68a1.18,1.18,0,0,0,1.39.31c1.47.71,3.23.62,4.6,1.63a1.18,1.18,0,0,0,1.32.37,1.52,1.52,0,0,1,1.17,1.9,24.68,24.68,0,0,1-5.11,5.91c-.37.22-.76.43-1.13.64a6.61,6.61,0,0,1-2.58.12c-5.17-1.72-9.72,4.73-15.05,1.17C529.4,12.56,528.74,9.94,531.07,7.11Z"/><path class="cls-18" d="M549.1,13.15c1.39-2.63,2-6,6-6.07A1.22,1.22,0,0,1,557,6.83a1.26,1.26,0,0,0,1.35.48A6.3,6.3,0,0,1,561.09,9l0,0c.91,1.32,3.07.78,3.7,2.51l-.32-.2c1.45.63,1.45,1.25,0,1.85-1.65,3.91-3,8-7.42,9.87-1.05,1.22-3,.73-4,2h0c-2.38.82-3.38-.92-2.83-2.45C551.55,19.16,549.67,16.29,549.1,13.15Z"/><path class="cls-19" d="M117.27,112.85l-4.14.33c-1,1-2.18.87-3.39.74,1.16.26,2.46.13,3.35,1.16h0c2.86,6.61-1.52,11-4.37,16.55-4.18-2.89-3.33-7.57-5.65-10.55l0,0c-1.15-1.1-.8-3-2-4h0c-1-1.81,0-3.32.65-4.91.86-1.07,1.84-1.86,3.34-1.31l11.57.38c.68.14,1,.42,1,.85S117.45,112.85,117.27,112.85Z"/><path class="cls-20" d="M173.13,99.13A131.05,131.05,0,0,1,153.07,107"/><path class="cls-20" d="M91.65,115.31c-3.21,2.38-6.31,4.94-10.18,6.26"/><path class="cls-20" d="M81.47,121.47A25.52,25.52,0,0,1,73,128.89"/><path class="cls-21" d="M251.07,401.09l16,0A15.18,15.18,0,0,1,251.07,401.09Z"/><path class="cls-21" d="M733,205l.15-13.92c2.94,5.34,3,10.66-.07,16C733,206.41,733,205.73,733,205Z"/><path class="cls-20" d="M191.31,67.18c.35,1.4.17,3,1.55,4,.28,1.18.57,2.36.85,3.54"/><path class="cls-21" d="M195.07,373.1c4.65.8,9.78-1.78,14,2C204.42,374.36,199.3,376.87,195.07,373.1Z"/><path class="cls-20" d="M267,23l-8,.11"/><path class="cls-21" d="M595,325.08c3.56-3.44,8-1.44,12-1.95C603.53,326.7,599.06,324.5,595,325.08Z"/><path class="cls-21" d="M407.23,372.61l11.78.27C415,376.1,411.07,376.42,407.23,372.61Z"/><path class="cls-21" d="M559.08,327.08l12,.09C567,330.06,563,330.09,559.08,327.08Z"/><path class="cls-21" d="M733.16,225.06c0-3.31,0-6.63,0-9.95C736,218.41,736,221.73,733.16,225.06Z"/><path class="cls-21" d="M507.13,343.23l3.85-.29,6.09.18C513.79,346,510.47,346,507.13,343.23Z"/><path class="cls-20" d="M118.83,361c3.49-2.19,6.9-4.05,8.39,2A16.9,16.9,0,0,0,118.83,361Z"/><path class="cls-21" d="M609,323.08c2.15-2.81,5.24-1.74,8-1.95C614.94,324,611.81,322.82,609,323.08Z"/><path class="cls-21" d="M317,389.06c2.17-2.77,5.27-1.71,8.05-1.94C322.92,390,319.79,388.83,317,389.06Z"/><path class="cls-20" d="M91.08,359.08c2.81.22,5.88-.59,8.13,2C96.4,360.82,93.23,362.06,91.08,359.08Z"/><path class="cls-21" d="M349.07,369.09c2-6,4-1.48,6,0Z"/><path class="cls-21" d="M155,369.08c2.15-2.81,5.24-1.74,8-1.95C160.93,370,157.81,368.82,155,369.08Z"/><path class="cls-21" d="M269,401.07c1.5-2.26,3.83-1.92,6.05-1.95C273.6,401.47,271.23,401,269,401.07Z"/><path class="cls-21" d="M717.12,259.08c0-2,0-3.95,0-5.93l1.94-.11C719,255.24,719.45,257.61,717.12,259.08Z"/><path class="cls-20" d="M73.1,347.15c2.2,0,4.49-.18,6,1.92C76.93,349,74.57,349.48,73.1,347.15Z"/><path class="cls-21" d="M619,321.07c1.5-2.25,3.82-1.92,6-1.91C623.57,321.47,621.22,321,619,321.07Z"/><path class="cls-21" d="M241.08,395.12c2.18.06,4.54-.4,5.95,2C244.85,397,242.51,397.45,241.08,395.12Z"/><path class="cls-21" d="M725.31,165.27l-.21,5.81-1.2.39a3.5,3.5,0,0,1-2.16-2.87c0-1.83.44-3.37,2.45-3.93Z"/><path class="cls-21" d="M547.05,3c-2.39.14-4.74.07-6.66-1.68C542.79,1.18,545.31.57,547.05,3Z"/><path class="cls-21" d="M365.09,373.14c2.22,0,4.54-.31,6.06,1.92C368.93,375,366.57,375.48,365.09,373.14Z"/><path class="cls-21" d="M301.1,387.17c2.2,0,4.52-.33,6,1.91C304.92,389,302.57,389.47,301.1,387.17Z"/><path class="cls-21" d="M681,295.06c1.46-2.31,3.83-1.88,6-2C685.63,295.47,683.26,295,681,295.06Z"/><path class="cls-21" d="M553,5a5.06,5.06,0,0,1-4.6-1.63C550.23,3.13,551.93,3.2,553,5Z"/><path class="cls-21" d="M471,9.06a4.58,4.58,0,0,1-3.8,2.39C467.8,9.58,469.3,9.16,471,9.06Z"/><path class="cls-21" d="M564.84,11.57a4.92,4.92,0,0,1-3.7-2.51C562.87,9.17,564.38,9.59,564.84,11.57Z"/><path class="cls-21" d="M239.12,28.76l2-1.72,2.71.31C242.52,28.77,240.88,29,239.12,28.76Z"/><path class="cls-21" d="M225.07,33.09,228.9,33a4.61,4.61,0,0,1-3.83,2Z"/><path class="cls-21" d="M225.05,35.09c-.82,1.58-2.27,2.06-3.9,2.24C221.85,35.54,223.35,35.14,225.05,35.09Z"/><path class="cls-21" d="M418.94,37.46a5.84,5.84,0,0,1-4.44-2.15C416.4,35.16,418.14,35.34,418.94,37.46Z"/><path class="cls-20" d="M218.8,39a4.41,4.41,0,0,1-3.66,2.31C215.78,39.6,217.2,39.16,218.8,39Z"/><path class="cls-21" d="M421.74,40.76a13.32,13.32,0,0,0-.51-1.74c1.7.13,3.16.6,3.68,2.48Z"/><path class="cls-21" d="M631.06,55c-1.71.12-3.24-.16-4.23-1.76C628.55,53.12,630.09,53.39,631.06,55Z"/><path class="cls-20" d="M195.27,59.16A5.12,5.12,0,0,1,193,63C193.13,61.35,193.53,59.86,195.27,59.16Z"/><path class="cls-20" d="M193,63.08a4.71,4.71,0,0,1-1.79,4.19C191.1,65.58,191.4,64.05,193,63.08Z"/><path class="cls-21" d="M669,73.19a4.4,4.4,0,0,1-3.87-2.14C666.81,71.12,668.28,71.52,669,73.19Z"/><path class="cls-21" d="M679,79.28A4.59,4.59,0,0,1,675.3,77C676.92,77.13,678.35,77.58,679,79.28Z"/><path class="cls-21" d="M682.77,81.72a4.6,4.6,0,0,1-3.86-2.51C680.75,79.18,682.39,79.49,682.77,81.72Z"/><path class="cls-21" d="M690.84,87.6A4.62,4.62,0,0,1,687.2,85C688.92,85.17,690.41,85.63,690.84,87.6Z"/><path class="cls-21" d="M655.11,317.12c.85-1.6,2.32-2,4-2C658.23,316.7,656.75,317.06,655.11,317.12Z"/><path class="cls-21" d="M651.08,319.1c.88-1.58,2.36-1.94,4-2C654.2,318.72,652.72,319.06,651.08,319.1Z"/><path class="cls-21" d="M633.09,319.13c1.64,0,3.11.4,4,1.95C635.46,321.07,634,320.74,633.09,319.13Z"/><path class="cls-21" d="M647,321c.94-1.55,2.44-1.92,4.11-1.93C650.17,320.74,648.65,321.07,647,321Z"/><path class="cls-21" d="M583.09,323.15c1.65,0,3.13.37,4,1.92C585.48,325.07,584,324.75,583.09,323.15Z"/><path class="cls-20" d="M27.34,324.52A4.76,4.76,0,0,1,31.17,327C29.36,327,27.75,326.68,27.34,324.52Z"/><path class="cls-21" d="M555.08,325.07c1.65.06,3.12.45,4,2C557.42,327.06,555.93,326.71,555.08,325.07Z"/><path class="cls-21" d="M573,327.07c.9-1.56,2.39-1.95,4-2C576.21,326.72,574.69,327.06,573,327.07Z"/><path class="cls-21" d="M537.12,333.12c.81-1.62,2.28-2,3.91-2.1C540.25,332.69,538.76,333.05,537.12,333.12Z"/><path class="cls-21" d="M525,341.06c.91-1.56,2.4-1.94,4.06-2C528.2,340.73,526.69,341.06,525,341.06Z"/><path class="cls-21" d="M519,343.07c.91-1.55,2.38-1.92,4-1.91C522.16,342.76,520.66,343.07,519,343.07Z"/><path class="cls-21" d="M505,344.26a3.11,3.11,0,0,1-1.87,2.87l-.58-.52c-.65-2.17-.54-3.86,2.39-3.76A1.24,1.24,0,0,0,505,344.26Z"/><path class="cls-20" d="M81.11,351A4.79,4.79,0,0,1,83.22,355C81.45,354.25,81.12,352.7,81.11,351Z"/><path class="cls-20" d="M83.13,355A4.36,4.36,0,0,1,87,357.11C85.38,357,83.88,356.68,83.13,355Z"/><path class="cls-20" d="M87.07,357.13a4.38,4.38,0,0,1,4,2C89.44,359.06,88,358.72,87.07,357.13Z"/><path class="cls-21" d="M444.14,358.81c1.31-1.56,3-1.77,4.9-1.51C447.8,359.06,446,359,444.14,358.81Z"/><path class="cls-21" d="M177,363.07c.91-1.57,2.4-1.95,4.06-2C180.19,362.73,178.68,363.07,177,363.07Z"/><path class="cls-21" d="M183.06,361.11c1.64.83,2,2.34,2.05,4C183.47,364.25,183.11,362.76,183.06,361.11Z"/><path class="cls-21" d="M434.7,362.8c.91-1.68,2.5-2,4.21-2.12C438.22,362.8,436.58,363,434.7,362.8Z"/><path class="cls-21" d="M171,365.08c.91-1.55,2.37-1.93,4-1.91C174.16,364.76,172.67,365.07,171,365.08Z"/><path class="cls-21" d="M431.25,365.18a4.13,4.13,0,0,1,3.64-2.51C434.4,364.56,432.94,365,431.25,365.18Z"/><path class="cls-20" d="M129.13,365a4.54,4.54,0,0,1,4,2.12C131.42,367.05,129.9,366.7,129.13,365Z"/><path class="cls-21" d="M165,367.07c.91-1.55,2.38-1.92,4-1.9C168.16,366.76,166.66,367.07,165,367.07Z"/><path class="cls-20" d="M133.08,367.05l3.87.15c.09.62.16,1.24.22,1.86C135.48,369.06,134,368.73,133.08,367.05Z"/><path class="cls-21" d="M347.06,373.09c.05-1.64.44-3.12,2-4C349,370.75,348.69,372.24,347.06,373.09Z"/><path class="cls-21" d="M386.93,373.06c.17-1.61.56-3.11,2.16-3.94C389,370.79,388.66,372.3,386.93,373.06Z"/><path class="cls-21" d="M423,371.05a5.08,5.08,0,0,1,3.85-2.44C426.37,370.68,424.79,371,423,371.05Z"/><path class="cls-21" d="M191.07,371.11c1.64,0,3.12.41,4,2C193.42,373.06,191.93,372.71,191.07,371.11Z"/><path class="cls-21" d="M359.08,371.12c1.66,0,3.14.39,4.06,1.95C361.48,373.07,360,372.74,359.08,371.12Z"/><path class="cls-21" d="M418.86,373a4.74,4.74,0,0,1,4.19-1.93C422.15,372.75,420.61,373.07,418.86,373Z"/><path class="cls-21" d="M381,375.08c.9-1.55,2.37-1.92,4-1.9C384.16,374.76,382.67,375.07,381,375.08Z"/><path class="cls-21" d="M209.08,375.08c1.58.88,2,2.36,2,4C209.46,378.25,209.11,376.75,209.08,375.08Z"/><path class="cls-21" d="M295.15,387.1c1.31-2.14,2.65-2,4,0Z"/><path class="cls-21" d="M327,387.06c.92-1.55,2.41-1.93,4.07-1.94C330.18,386.74,328.67,387.07,327,387.06Z"/><path class="cls-21" d="M225.08,389.07c1.66.05,3.15.43,4.06,2C227.46,391.06,225.94,390.73,225.08,389.07Z"/><path class="cls-21" d="M235.08,393.12c1.66,0,3.14.39,4.06,1.94C237.48,395.07,236,394.74,235.08,393.12Z"/><path class="cls-21" d="M285.09,395.1c.86-1.58,2.33-2,4-2C288.23,394.7,286.74,395.06,285.09,395.1Z"/><path class="cls-21" d="M281.06,397.09c.89-1.58,2.37-1.95,4-2C284.2,396.72,282.71,397.06,281.06,397.09Z"/><path class="cls-21" d="M277,399.05c.93-1.56,2.42-1.94,4.09-2C280.19,398.74,278.67,399.07,277,399.05Z"/><path class="cls-21" d="M687.05,293.08c.88-1.59,2.37-2,4-2C690.21,292.72,688.71,293.06,687.05,293.08Z"/><path class="cls-21" d="M711,273.07c.07-1.64.46-3.12,2.05-4C713,270.76,712.68,272.26,711,273.07Z"/><path class="cls-21" d="M713.07,269.1c0-1.65.42-3.13,2-4C715,266.75,714.69,268.24,713.07,269.1Z"/><path class="cls-21" d="M715.09,265.1c0-1.66.39-3.15,2-4.07C717.05,262.7,716.71,264.21,715.09,265.1Z"/><path class="cls-20" d="M22.74,257.47c-1.57-1.08-1.68-2.65-1.46-4.33C22.87,254.21,23,255.76,22.74,257.47Z"/><path class="cls-21" d="M719.09,245.1c.84-1.61,2.33-2,4-2C722.23,244.7,720.74,245.06,719.09,245.1Z"/><path class="cls-20" d="M48.91,240.93c.2-1.56.56-3,2-3.91l.28.2c1.17,2.22.87,3.74-1.94,4.05Z"/><path class="cls-21" d="M729.05,237.09c.07-1.64.44-3.12,2-4C731,234.76,730.68,236.25,729.05,237.09Z"/><path class="cls-21" d="M731.09,233.1c0-1.65.39-3.15,2-4C733,230.71,732.7,232.22,731.09,233.1Z"/><path class="cls-21" d="M733.05,211.15c-2-1.36-2-2.72,0-4.07C733.06,208.44,733.05,209.79,733.05,211.15Z"/><path class="cls-21" d="M733,189.18a4.15,4.15,0,0,1-1.87-4.05C732.75,186,733.05,187.53,733,189.18Z"/><path class="cls-21" d="M731,183.18c-1.55-.93-1.94-2.42-2-4.08C730.71,180,731,181.5,731,183.18Z"/><path class="cls-21" d="M729.06,179.12c-.61-.07-1.23-.13-1.84-.18a2.53,2.53,0,0,1-.9-3.05l.8-.85C728.7,176,729.05,177.46,729.06,179.12Z"/><path class="cls-21" d="M725.1,171.08c1.58.86,1.93,2.34,2,4l-.16.12c-3-.09-3.12-1.69-2.08-3.92Z"/><path class="cls-21" d="M725.21,161.38c.53-.32,1.08-.63,1.64-.92.21,1.84,0,3.56-1.54,4.81l-.19-.14C723.82,163.85,724.08,162.6,725.21,161.38Z"/><path class="cls-20" d="M117.27,112.85a15.45,15.45,0,0,0-.63-1.59c1.87-.11,3.58.11,4.31,2.22Z"/><path class="cls-21" d="M291.12,391.11c.64-.65,1.29-1.29,1.93-1.93Z"/><path class="cls-21" d="M725.06,241.09l2-2Z"/><path class="cls-21" d="M465.25,13.17a2.8,2.8,0,0,1-2.05,2.19A2.91,2.91,0,0,1,465.25,13.17Z"/><path class="cls-21" d="M467.39,11.26a2.76,2.76,0,0,1-2.25,2A2.87,2.87,0,0,1,467.39,11.26Z"/><path class="cls-21" d="M727.06,239.09l2-2Z"/><path class="cls-21" d="M561.09,9a3.36,3.36,0,0,1-2.72-1.72A3.23,3.23,0,0,1,561.09,9Z"/><path class="cls-21" d="M709.07,275.09l2-2Z"/><path class="cls-21" d="M223.1,387.19l2,1.9Z"/><path class="cls-21" d="M219.06,385.13l2.1,1.94Z"/><path class="cls-21" d="M557,6.83c-.63.11-1.27.2-1.92.25-.25-.58-.5-1.17-.74-1.76A3.08,3.08,0,0,1,557,6.83Z"/><path class="cls-21" d="M333,385.05l2.11-1.9Z"/><path class="cls-21" d="M217.06,383.24l2,1.88-2,0a1.15,1.15,0,0,1-.44-1.23C216.78,383.44,216.92,383.24,217.06,383.24Z"/><path class="cls-20" d="M217.06,383.24c0,.62,0,1.23,0,1.85l-2-2A10.77,10.77,0,0,1,217.06,383.24Z"/><path class="cls-21" d="M337,383.06l2.12-2Z"/><path class="cls-21" d="M213.09,381.05l2,2Z"/><path class="cls-21" d="M339.07,381.09l2-1.94Z"/><path class="cls-21" d="M211.1,379.05l2,2Z"/><path class="cls-21" d="M341.13,379.11l2-1.93Z"/><path class="cls-21" d="M343.16,377.11l1.93-1.95Z"/><path class="cls-21" d="M345.14,375.11l1.93-2Z"/><path class="cls-21" d="M405.09,371.05a2.73,2.73,0,0,1,2.43,1.77A2.79,2.79,0,0,1,405.09,371.05Z"/><path class="cls-21" d="M403.21,368.8a2.63,2.63,0,0,1,1.91,2.28Z"/><path class="cls-21" d="M355.07,369.11l2.13,1.94Z"/><path class="cls-21" d="M189.06,369.15l2,2Z"/><path class="cls-21" d="M426.61,368.82A2.52,2.52,0,0,1,429,367,2.76,2.76,0,0,1,426.61,368.82Z"/><path class="cls-21" d="M389.1,369.11c.65-1.48,1.35-1.35,2.08-.07Z"/><path class="cls-21" d="M187.06,367.13l2,2Z"/><path class="cls-21" d="M429,367a2.24,2.24,0,0,1,2.18-1.78Z"/><path class="cls-21" d="M185.09,365.07l1.95,2Z"/><path class="cls-21" d="M667.07,309.1l2-2Z"/><path class="cls-20" d="M127.15,363l2,2.06Z"/><path class="cls-21" d="M181.07,361.1c.67-1.13,1.33-1.17,2,0Z"/><path class="cls-21" d="M679.06,297.09l2-2Z"/><path class="cls-20" d="M69.07,345.11,71.4,347Z"/><path class="cls-21" d="M703.13,281.11c.65-.65,1.3-1.31,2-2Z"/><path class="cls-21" d="M699.11,285.1l2-2Z"/><path class="cls-21" d="M677.11,299.1c.65-.67,1.3-1.35,2-2C678.41,297.75,677.76,298.43,677.11,299.1Z"/><path class="cls-21" d="M529.05,339.08l2-1.91Z"/><path class="cls-21" d="M533,337.06l2.12-2Z"/><path class="cls-21" d="M535.07,335.09l2-1.95Z"/><path class="cls-20" d="M11.35,308.62a2.54,2.54,0,0,1,1.9,2.4A2.74,2.74,0,0,1,11.35,308.62Z"/><path class="cls-21" d="M705.13,279.11l2-2Z"/><path class="cls-21" d="M665,311.08l2-2Z"/><path class="cls-21" d="M541,331.05l2-2.1Z"/><path class="cls-20" d="M31.11,327a2.48,2.48,0,0,1,2.46,1.79A2.78,2.78,0,0,1,31.11,327Z"/><path class="cls-21" d="M694.94,289.05l2.13-2Z"/><path class="cls-21" d="M697.05,287.09l2-2Z"/><path class="cls-21" d="M543.16,327.08l1.92-1.95Z"/><path class="cls-21" d="M701.13,283.11c.65-.65,1.3-1.31,2-2Z"/><path class="cls-21" d="M577.05,325.08l2-1.93Z"/><path class="cls-21" d="M553.06,323.14l2,1.95Z"/><path class="cls-21" d="M545.11,325.1l1.95-2Z"/><path class="cls-20" d="M25.19,322.81a2.67,2.67,0,0,1,2.41,2A2.62,2.62,0,0,1,25.19,322.81Z"/><path class="cls-21" d="M675.13,301.11l2-2Z"/><path class="cls-21" d="M579.13,323.12c.63-1.41,1.3-1.34,2-.06Z"/><path class="cls-21" d="M551.09,321.18,553,323.1Z"/><path class="cls-21" d="M547,323.08l2-2Z"/><path class="cls-20" d="M65.12,137.12a2.8,2.8,0,0,1-2,2.16Z"/><path class="cls-20" d="M23.1,321A2.48,2.48,0,0,1,25.35,323Z"/><path class="cls-20" d="M21.06,319.13a2.49,2.49,0,0,1,2.08,1.94Z"/><path class="cls-21" d="M629,319.06c.72-1.32,1.43-1.32,2.16,0Z"/><path class="cls-20" d="M19.06,317.13a2.29,2.29,0,0,1,2,2Z"/><path class="cls-20" d="M17.06,315.13a2.29,2.29,0,0,1,2,2Z"/><path class="cls-21" d="M673.13,303.11c.65-.65,1.3-1.31,2-2Z"/><path class="cls-20" d="M39.06,257l2-2,.42,1.17a2.49,2.49,0,0,1-1.84,1.42Z"/><path class="cls-21" d="M659.07,315.09l2-1.91Z"/><path class="cls-20" d="M15.07,313.11a2.34,2.34,0,0,1,2,2C16.38,314.44,15.72,313.78,15.07,313.11Z"/><path class="cls-21" d="M662.94,313.05l2.12-2Z"/><path class="cls-20" d="M123.08,115.07a2.38,2.38,0,0,1-2.37-1.79Z"/><path class="cls-21" d="M693,89.28a2.56,2.56,0,0,1-2.39-1.91A2.73,2.73,0,0,1,693,89.28Z"/><path class="cls-20" d="M95.77,113.3a2.82,2.82,0,0,1-2.62,1.44Z"/><path class="cls-21" d="M687.11,85a2.33,2.33,0,0,1-2.29-1.77Z"/><path class="cls-20" d="M41,255l1.8-2.1.2.18c.69,1.72-.17,2.25-1.73,2.25Z"/><path class="cls-21" d="M707.11,277.1l2-2Z"/><path class="cls-21" d="M685,83.35a2.63,2.63,0,0,1-2.45-1.89A2.56,2.56,0,0,1,685,83.35Z"/><path class="cls-21" d="M708.8,103.59a2.72,2.72,0,0,1-2.22-2.22A2.47,2.47,0,0,1,708.8,103.59Z"/><path class="cls-21" d="M706.8,101.59a2.72,2.72,0,0,1-2.22-2.22A2.47,2.47,0,0,1,706.8,101.59Z"/><path class="cls-21" d="M704.8,99.59a2.72,2.72,0,0,1-2.22-2.22A2.47,2.47,0,0,1,704.8,99.59Z"/><path class="cls-21" d="M702.8,97.59a2.72,2.72,0,0,1-2.24-2.2A2.44,2.44,0,0,1,702.8,97.59Z"/><path class="cls-21" d="M675.13,76.9a2.31,2.31,0,0,1-2.41-1.6Z"/><path class="cls-21" d="M665.1,71a3.34,3.34,0,0,1-3-1.65A3.48,3.48,0,0,1,665.1,71Z"/><path class="cls-21" d="M661,68.85a2.19,2.19,0,0,1-2.35-1.53A2.62,2.62,0,0,1,661,68.85Z"/><path class="cls-21" d="M671.13,305.11l2-2Z"/><path class="cls-21" d="M669.11,307.1l2-2Z"/><path class="cls-21" d="M316.94,53.39a2.58,2.58,0,0,1-2.35-2A2.61,2.61,0,0,1,316.94,53.39Z"/><path class="cls-21" d="M312.75,49.63a2.68,2.68,0,0,1-2.21-2.21A2.35,2.35,0,0,1,312.75,49.63Z"/><path class="cls-21" d="M719,247.16c-1.31-.71-1.39-1.39,0-2C719.07,245.79,719.06,246.48,719,247.16Z"/><path class="cls-20" d="M215.27,41.18A2.49,2.49,0,0,1,213,42.92Z"/><path class="cls-21" d="M577,40.88a1.75,1.75,0,0,1-2.3-1.6Z"/><path class="cls-21" d="M421.12,39a2.32,2.32,0,0,1-2.4-1.66Z"/><path class="cls-20" d="M221.29,37.2A2.37,2.37,0,0,1,219,38.86Z"/><path class="cls-21" d="M249.07,399.21l2,1.89h-2a1.16,1.16,0,0,1-.44-1.25C248.78,399.42,248.92,399.21,249.07,399.21Z"/><path class="cls-20" d="M249.07,399.21v1.88l-1.95-2.17C247.78,399,248.42,399.09,249.07,399.21Z"/><path class="cls-21" d="M695.09,91.06a2.53,2.53,0,0,1-2.21-1.88Z"/><path class="cls-21" d="M691.06,291.09l2-1.91Z"/><path class="cls-21" d="M301,31.16l2.09-.07L303,33.26A2.36,2.36,0,0,1,301,31.16Z"/><path class="cls-21" d="M723,243.08l2-2Z"/><path class="cls-21" d="M289.05,393.08l2-1.94Z"/><path class="cls-21" d="M231.09,391.18l2.09,1.88Z"/><path class="cls-4" d="M725.21,161.38l-.09,3.75-2.4,3.63c-5.51,8.64-13.58,13.12-23.58,14.26-12.42,1.42-24.91,2.22-37.26,4.28-13.25,1-26.47-.63-39.62-.77-25.3-.26-51.2-4.8-75.83,5.49a7,7,0,0,1-3.94.18c-4.45-1.91-.91-6.66-3.3-9.31L539,171.3c-2.1-5.57.2-8.7,5.34-5.77,21.84,12.41,45,8.24,68.25,7.34,14.89-.57,29.85,1.3,44.79,1.74a69.44,69.44,0,0,0,9.13-.27c-5.4,2.12-13.21-.71-20.93-.45-14.29.48-28.52-1.35-42.76-2.36-4.86-.34-10.06-.67-13.83-4.68,1-5.23,5.41-4.43,8.4-3.8,10.62,2.24,19,.08,24.56-9.93a4.27,4.27,0,0,1,5.15-2c3.19-.07,6.53.44,9.52-.36,4-1.07,5.91-3.72,2.49-7.65-2.66-4.7-7.81-4.39-12-6h0c-3-2.46-7,.34-10-2h0c-4.44-3.67-1.81-5.09,2-5.07,5.27,0,10.54.5,15.83.45,4,0,7.93-.12,11.56-2a12.86,12.86,0,0,0,4.45-2.8c1.42-1.54,2.27-3.62,4.32-4.54,2.77,2.48,1.5,5.26.87,8.2-1.93,8.88-2.18,17.66,3,25.76,6.9,11.42,16.56,14.9,29.73,12.23,5.87-1.18,12.17-1.49,18.26-2.22l4-2c5.3-.22,8-5.88,13.7-6.42C724.92,158.3,725.06,159.84,725.21,161.38Z"/><path class="cls-22" d="M589.08,165.09c3.77,3.25,8.9,3.37,13.06,3.51,10.62.34,20.94,3.29,31.66,2.59a125.21,125.21,0,0,1,37.9,3.05c-13.49,4.33-26.72,3.54-39.78,2a111.86,111.86,0,0,0-23.64,0c-16.82,1.47-33.78,2.67-50.49-1.27-5.23-1.23-9.58-4.41-14-7.33-4.62-3-4.7.54-4.77,3.75-3.44-12.24-7.37-24.32-12-36.19,14.18-8.61,17.74-8.84,26.09,4,7.39,11.36,17,18,29.54,21.67C585.19,161.5,587.67,162.56,589.08,165.09Z"/><path class="cls-23" d="M589.08,165.09c-5.05-1.55-10.29-2.68-15.11-4.76-7.84-3.39-16-6.4-19.37-15.78-1.53-4.27-6.13-6.79-8.56-10.85-2-3.39-5.83-3.51-8.74-1.33-3.22,2.39-6.57,2.88-10.27,2.74a59.82,59.82,0,0,1-8.24-13.93c8.18,4.77,16.67,3.27,22.3-4.3,2.57-3.45,5.9-6.3,8.06-11.74,5.12,8.88,6,17.64,7.8,26.05,2,9.37,2.72,10.06,11.67,12a57.82,57.82,0,0,0,25.52.27c11.84-2.61,22.89,1,32.94,7.6-2.73,1-3.65,3.58-5,5.86-4.85,8.5-11.25,11.66-20.37,9.26C597.49,165.09,593.32,165.29,589.08,165.09Z"/><path class="cls-24" d="M441.08,329.1c-7.34,5.76-11.84,14-19.35,21.46.92-6.1,3.26-10.59,5.25-15.07,11.34-25.57,26.68-49.05,39.25-74,2-4.06,7.95-4.64,12.83-2.38-.13,4.73.79,9.62-2,14-8.1,7-11,17.11-16,26a12.59,12.59,0,0,1-3.44,8.05C451.16,313.77,447.61,322.56,441.08,329.1Z"/><path class="cls-25" d="M459,115.08c-2.46,1.27-4.43,2.22-6.71-1-1.88-2.68-3.54-7.91-9-3.87-1.32,1-2.69-1.16-3.88-2.33-12.25-12.13-24.6-24.18-36.9-36.26-3.25-3.2-8-2.92-11.66-5.27,2.33-7.13,3.73-8.71,8.94-6.52a31.3,31.3,0,0,0,21.23,1.29h0c9.06,6.87,9.16,8.17.5,13.35,3.44,3.55,8,5.41,11.49,8.65,7.8,5.61,12.08,15,21.5,19C460.05,104.5,459.15,110.19,459,115.08Z"/><path class="cls-26" d="M505,342.85a5.82,5.82,0,0,0-2.39,3.76,7,7,0,0,1-1.59-.1c-.18-2.26-1.92-3.21-3.48-4.43-2.88-2.25-3.11-5.1-.58-7.62,3.84-3.82,5.68-8.76,8.15-13.36,4.5-10.35,4.5-10.35-4-12l-4,0c-1.81-5.6,2.52-7.54,6-10h0c1.62-6.47,4.69-12.29,8-18,.71-1.84,2.45-3.62,1.69-5.6-2.62-6.8,1.33-11.59,5.14-16a76.82,76.82,0,0,0,11.18-16.38c2.17-2.25-.15-5.9,2.62-8.54,6.81,4.09,4.59,9.22,2.3,14.39-9.32,21.1-11.39,44.07-17.07,66.1C514.57,325,508.52,333.39,505,342.85Z"/><path class="cls-25" d="M479.1,221.08c-3.9,7.35-8.28,14.43-4.32,23.45,1.3,2.95-1.19,5.5-4.34,7.29-2.09-2-1.32-4.44-1.33-6.53-.09-9-.05-18,0-27,0-6.93-.49-13.75,3.78-20.13,3.06-4.55,2.65-9.95.55-15.33-2-5.22-5-10.15-5.67-16,2.55-2.61,4.91.79,7.34.23,3.52,2.35,6.85,3.15,11.57,3.07,8.37-.13,16.56,3.53,24.42,6.94-1.06,3.66,4,6.11,2,10l-4,.06c-7,.79-13.11,6.82-20.75,3.35-.35-6.07-.35-6.07,9.12-7.61.57.12.33-.41-.59-.33-18.48,1.75-19.08,2.65-16.29,23.85.89,4.4-.14,8.58-1.49,12.72C479.09,219.76,479.09,220.42,479.1,221.08Z"/><path class="cls-27" d="M516.94,315.05c-3.1-3.5-2.11-7.51-1.05-11.3,2.32-8.3,4.89-16.54,7.52-24.75.92-2.87,2.66-5.94,1.41-8.67-3-6.64.13-11.35,3.68-16.39,2.08-3,3.25-6.55,5-9.75,1.53-2.74,1.11-5-1.3-7.52-2,1.7-.43,5.28-3.14,6.43,0-5-.4-10,1.91-14.68,7.1-14.39,8.93-29.73,8.19-45.53,2.28,2.39,1.36,5.56,2,8.34,4,5.14,2.06,11.21,2.64,16.89,0,1.14.07,2.29.14,3.43-.17,5.65.2,11.32-.86,16.92-1.81,11.68-3.32,23.41-5.92,35-.61,2.47-1.47,4.88-1.89,7.41a23.93,23.93,0,0,1-.76,2.88c-2.14,5.94-4,12-7.48,17.37C522.52,298.58,521.75,307.67,516.94,315.05Z"/><path class="cls-28" d="M485,83.22a24.3,24.3,0,0,0,8.11,7.61c2.51,4.79,7.82,7.25,10.17,12.17-9.62-.28-16.53-6.15-23.12-12-7.62-6.75-14.35-14.21-24-18.74-7.29-3.44-11.24-10.85-13.15-18.89,5,2,8.49,6.46,13.79,7.8,9.36,5.79,20.05,9.85,26,20l.05,0A10.36,10.36,0,0,1,485,83.22Z"/><path class="cls-5" d="M479.09,219.11c-3.2-4,.66-8,0-12A23.92,23.92,0,0,0,481.52,196c-.11-3.49.19-7.44,5.54-6.91,7.51,1.31,14.62-2,22-1.93-5.74,3.46-12.49,5.43-17,10.7,2.76,5.47,8.31,1.68,11.95,4.53-.34,3.84-3.69,4.59-6.25,4.48-5.95-.26-9.92,1.82-12.81,7.1C483.76,216.08,481.09,217.41,479.09,219.11Z"/><path class="cls-26" d="M395.1,53.12c-9.7,2.2-19.71,1.45-29.49,3.34-6.55,1.27-12.69-1.88-19-3.21.62-2.53,2-3.22,3.1-3.27,14.2-.68,28.24-3.59,42.55-2.9,4.18.2,4.86,2.65,4.77,6Z"/><path class="cls-5" d="M433.06,83.11c-10.88-3.57-11.22-3.8-16.36-11,1.21-1.53,2.93-.94,4.46-1.05s3.29.08,4.95-1.22c.77-4.19-4.13-5.42-5-8.77,6.15-1.29,9.19,5.76,15.34,4.72-1,4.3-6,2.94-6.43,6.22C429.51,76.05,431.58,79.54,433.06,83.11Z"/><path class="cls-29" d="M511.08,281.11c.16,7.25-2.76,13.14-8,18-2.64-3.4-7.86-1.11-10.82-5.37C497.11,287.61,504.71,285.22,511.08,281.11Z"/><path class="cls-30" d="M513.05,187.07c-.51-3.35-4.17-6.08-2-10a50,50,0,0,1,22.08,5.82C526.65,189.14,519.5,186.43,513.05,187.07Z"/><path class="cls-5" d="M461.1,299.11c.26-7.13,3.25-13.39,6.83-19.27,2-3.28,4.59-6.56,9.14-6.75C475.87,284.3,468.81,291.91,461.1,299.11Z"/><path class="cls-29" d="M503.05,299.07q-3,5-6,10c-2.95,0-5.91,0-8.86-.11-1.73-.07-3.45-.79-3.8-2.54s1.06-3.26,2.51-3.84C492.1,300.54,497.4,298.92,503.05,299.07Z"/><path class="cls-29" d="M501.06,309.11a34.29,34.29,0,0,1,5.53-1.87c1.88-.32,4.19-.57,5.49,1.18,1.72,2.32.09,4.27-1.37,6.11-1.79,2.26-2.5,5.44-5.62,6.57Q503.08,315.12,501.06,309.11Z"/><path class="cls-31" d="M655.21,121.13,653.05,127c-1.06,1.13-2.57,1-3.91,1.37-7.39.11-6.25,0-6.84-6-.3-3.06-2.82-8-6.93-9.6-17.68-6.92-36.37-9.21-55-11.49a2.38,2.38,0,0,1-1.66-.9c-3.93,11-13.31,3.12-19.69,5.66-2.61-.6-4.5-1.78-4-4.91-.5-4.56,2.24-6.75,6.07-7.8,11.53-3.15,22.93-5.26,35.22-3.15,11.41,2,23,2.73,33.93,6.92,6.51,2.5,13,5.11,18.13,10.14C652.26,111.12,655.16,115.38,655.21,121.13Z"/><path class="cls-32" d="M555,101.16a9,9,0,0,0,4.09,4c21.47,8.64,42.81,17.74,66.17,20.17,7.55.78,15,2.37,22.55,2.9l1.34.88c-2.81,3.25-6.52,4.22-10.6,3.94-6.79-.49-13.62,1-20.44-1.22-2.68-.88-1.09,2-1,3.24-9.64-.71-18-5.83-27.4-7.66-8.56-1.67-16.19-5.92-23.8-10a27,27,0,0,1-11.6-12C553.44,103.82,553.25,102.36,555,101.16Z"/><path class="cls-9" d="M707.07,165.1c-6,3.46-11.91,6.38-19.24,4.21-3.86-1.14-7.69.78-11.55,1.48-5,.92-9.84,1.47-11.13-6.11-.57-3.37-6.08-5-6.07-9.59,8.44,2.45,17.11,2.37,25.72,1.91S701.26,158,707.07,165.1Z"/><path class="cls-32" d="M627.07,137.1c5,0,10.25-.5,12,6C635.36,140.54,630.56,140.14,627.07,137.1Z"/><path class="cls-32" d="M617.08,135.09c3.36.49,7.2-1.33,10,2C623.7,136.61,619.87,138.44,617.08,135.09Z"/><path class="cls-33" d="M281.08,361.1a16.24,16.24,0,0,0-1.27,2.71c-1.45,5.46-4.22,10.77-10.08,10.87-6.46.1-13.4-1.29-17.42-7.64a47.39,47.39,0,0,1-7.21-18.43c-.23-1.58.15-3.35-1.75-4.64-3.13-.28-5.25,2.35-7.45,4-7.09,5.23-15.62,5.05-23.55,7.05-1.19.3-3.34.18-3.79-.54-5.25-8.36-14.81-6.56-22.21-9.77-5.77-2.51-11.53-5.24-14.95-10.44-4.81.39-4.74,4.92-7.65,6.62-6.39,3.74-10.56,2.06-12.66-5.76.58-3.22,3.25-5,5.13-7.28.58-.68,1.2-1.31,1.84-1.93.32-.33.66-.62,1-.95,5-2.9,8.22-9.28,15.42-7.86,10,5.51,19.86,11.59,30.95,2.12,1.84-1.58,4.62-1.95,6.29.23,8.86,11.55,19.86,7.23,30.67,4.33a35.35,35.35,0,0,0,5.54-2.17c5-2,8.91-5.85,13.79-8,7.57-1.1,15.05-2.26,21.66-6.71,4.08-2.73,8.32-1.12,12.34.79,6.06,2.88,12.29,4.87,19.14,4.92,7.12.06,13.17-1.9,17.25-8,2.84-4.27,5.64-7.17,11.19-3.54,4.12,2.69,8.36.16,12.43-1.15a11.19,11.19,0,0,1,2.89-.18c1.64.16,3.24.61,4.91.64,11.39.23,23-7.13,34.15,1,11-5.21,22.95,4.17,33.86-2.26,1.17,9.58-4.81,16.59-8.7,24.37a14.16,14.16,0,0,1-2.11,2.13,15.22,15.22,0,0,1-2.45,1.61c-2.67,1.38-5.61,2.52-8.52,2.13-7.86-1.06-14.28.76-18.67,7.76h-2c-6.47-2.92-5.82-9-6.59-15.32-2.78,2.62-4.88,5.34-7.3,7.69-3.52,3.41-7,5.13-12.43,4.18-6.25-1.09-12.52-.81-17,6-4.34,6.55-10.09,6.25-15.2-1.32-4.85-7.18-7.67-6.36-13.91-1.36-9.2,7.36-20.15,8.15-31.36,1.67C285.07,346.76,285.56,354.45,281.08,361.1Z"/><path class="cls-34" d="M281.08,361.1c0-2-.47-4.16.16-5.94a28.68,28.68,0,0,0-.47-20.8c21.46,10.68,30.79,6.69,44.79-9.06,2.31,5.33,4.42,10.43,8.75,14.11,4.78,4.07,6.77,4.07,10.08-1.24a71.64,71.64,0,0,0,3.74-8c3.25-1.81,6.87,6.23,10-.61,1-2.13,2.52-.77,3.66.73,3,4,6.13,3,9.16-.08,4.37-4.39,9-8.51,13.48-15.92.93,9.3-.05,16.79,4.66,22.79-5.92,5.41-12.1,3.42-18.41.79-10-4.17-10-4.05-17.4,3.83-3,3.19-6.18,5.26-11.33,4.16-6.33-1.35-11.89,3.34-18.14,4.07-2.26.26-4.64,1.8-6.76.74-6.32-3.15-10.51-.44-14.79,4.1C296.54,360.82,288.72,360.91,281.08,361.1Z"/><path class="cls-35" d="M157.07,329.1a13,13,0,0,1-6,6c-4.87,9.53-3.94,19.84-4,30-13.75-2.39-23-11.23-23.13-22.41,5.68-.34,11.53,2,17-2.13,6-4.47,7.05-7.71,2.64-13.58-1.15-1.52-2.94-2.56-4.44-3.82l.06,0c1-1.23,2.91-.85,3.85-2.19a80.08,80.08,0,0,1,15.42-10.21c8.45,3.43,9.14,5.21,4.25,11.62-1.21,1.57-2.55,3.05-3.62,4.73h0C158.37,327.72,157.77,328.46,157.07,329.1Z"/><path class="cls-36" d="M421.08,323.1a141.66,141.66,0,0,0,10-24c.14-6.61,1.93-11.18,9.95-8-3.23,10.11-8.53,19.27-13.37,28.6-6.83,13.16-12.47,26.95-20.61,39.41.26-9.4,6.66-16.93,8-26,0-.34,0-.68,0-1a11.2,11.2,0,0,1,.55-2,11.61,11.61,0,0,1,.86-1.86,13,13,0,0,1,1.15-1.7,12.41,12.41,0,0,1,1.44-1.46h0C419.78,324.46,420.37,323.73,421.08,323.1Z"/><path class="cls-34" d="M417.08,329.1c0,.67,0,1.33,0,2a24.93,24.93,0,0,0-2,2h0c-5.88-.52-9.93,4.46-15.62,5.12-3.17.36-5.71.25-8.38-1.14a43.86,43.86,0,0,0,2.07-5.45c1-4.21,3.22-5.44,7.68-4.74a38,38,0,0,0,18.27-1.78c0,.66,0,1.32,0,2C418.26,327.63,417.81,328.51,417.08,329.1Z"/><path class="cls-2" d="M211.08,129.09h2c22,.3,43.06-4.65,64-10.85a146.34,146.34,0,0,0,53.88-29c13.25-11.22,30.51-9.62,46.69-10.54a14.13,14.13,0,0,1,3.06.7c10,5.1,19.11,11.58,27.9,18.48,2.31,1.81,7.05,3.7,2.73,8.13-9.69-.61-18.19-5.61-27.6-7.43a172.91,172.91,0,0,0-38.45-2.68c-8-.68-9.42,5.34-11.17,11-2.58,7,3.15,9.61,7.25,12.38,14.56,9.86,31.48,14.11,48,19.17a100.23,100.23,0,0,0,22.49,4.43c2,.14,4.26.56,5.08,2.6,1,2.57-.82,4.48-2.57,6-8.6,7.27-18.72,11.37-29.68,13.39-4.27.79-7.68-1.66-10.88-4.13-10.32-8-22.13-12-35-13.21-9.79-.93-17.45-4.38-18.76-15.61-.58-4.93-3.09-5.12-6.81-2.57-4.39,3-8.72,6.13-13.33,8.79a14.14,14.14,0,0,1-2.72,1c-9.83,1.8-18.88,6.4-28.82,7.92-3.09.47-6.16,2.19-5.12,6,2.06,7.64-3.31,8.1-8.19,9.26-3.63,1.63-1.35,4.57-1.5,7-.2,12.24-3.92,23.63-9.08,34.47-5.34,11.21-16,14.37-27.23,15.75a67.5,67.5,0,0,1-16.92-.22,7.64,7.64,0,0,0-2.66.65,18,18,0,0,0-2.23,1.33c-.31.26-.65.53-1,.81-.59.55-1.22,1.09-1.8,1.67-.25.33-.52.63-.77,1-.43.73-.9,1.44-1.35,2.17a20.86,20.86,0,0,1-1.49,2.25,20.3,20.3,0,0,1-1.89,2.16c-.37.35-.75.66-1.12,1-12.19,7.14-22.23-.69-32.7-4.86-6.42-2.57-11.16-7.18-12.68-14.23-.65-3-2.51-6.57,1.8-8.67,9.34,5.58,18.48,11.77,30.25,9.93,18.95-1.66,34.94-10.61,50.52-20.53a58.25,58.25,0,0,0,18.6-18.56,15,15,0,0,0,2.41-11.2,14.4,14.4,0,0,0-1.22-2.07,20.51,20.51,0,0,0-1.9-1.47,26.48,26.48,0,0,0-5.87-2.32c-12.4-2.13-24.11,1-35.76,4.61-7.56,1.35-13.5,8.3-22,6.43-1.75-4.84,2.13-6.39,5.06-8.13,5.65-3.37,11.65-6.14,17.38-9.37,11-6.17,11.54-9.56,4-19.52a3.25,3.25,0,0,1-.74-3C205.62,127.36,208.32,127.72,211.08,129.09Z"/><path class="cls-37" d="M41.29,255.31A2.38,2.38,0,0,0,43,253.06c2.88-3.51,5.31-7.26,6.27-11.79a4.21,4.21,0,0,0,1.94-4.05c3.21-3.44,3.06-8.5,5.89-12.13a6,6,0,0,1,2.29-1.32c3.19-.56,2.89-3.21,3.07-5.4.32-4-.09-7.93.22-11.87.27-3.44-.91-8.11,3.51-9.33,3.52-1,5.7,2.61,7.79,5.11a61.31,61.31,0,0,0,5.12,6c9.41,8.74,16,9.4,27.45,2.7a20.5,20.5,0,0,1,2.35-1.47c5.6-1.58,9.66-7.06,16.14-6.46,2,.37,4.58,1,2.82,3.54a30.69,30.69,0,0,1-7.59,7.66,80.72,80.72,0,0,1-18.22,9.43c-8.6,3.14-17,6.87-25.68,9.74-6,2-2.82,6.26-3.29,9.66,3.89,5.3,4,11.83,5.31,17.85,1.24,5.59-3.14,9.13-7.44,11.84-12.52,7.92-25.21,5.89-37.88.27a12.3,12.3,0,0,0-2.13-2c-4.1-2.26-2.84-3.53.71-4.59.54-.16.91-.89,1.35-1.37,2.06-2.64,5.65-3.95,6.58-7.57A2.4,2.4,0,0,0,41.29,255.31Z"/><path class="cls-9" d="M211.08,129.09h-6c.15,1,0,1.78.33,2,11.37,7.48,9.88,13.57-2,21.68-5.93,4.06-12.57,7.18-19.14,10.16-3.2,1.45-5.71,3.11-7.16,6.28l-.69,1.15a17.64,17.64,0,0,1-4.26,3.27,6.92,6.92,0,0,1-2.65.64c-8.11-2.8-12.12,3.2-16.78,7.82-2.87,2.84-4.06,8-9.7,7,.26-3.44,2.28-6.07,3.9-9,7.4-13.22,14.76-26.41,16.36-42,.83-8,2.52-8.82,11-9.1,10.17-.34,20.44,1.32,30.49-1.79A5.4,5.4,0,0,1,211.08,129.09Z"/><path class="cls-9" d="M125.06,203.08c-5,3.3-9.83,7-16,8-1.14-4.41,2.36-6.55,4.64-9.16,3.71-4.24,7.52-8.44,9.51-13.77,1.81-4.84,2.21-9.9-2.18-13.71-4.82-4.19-9.51-1.68-13.38,1.58a60.54,60.54,0,0,1-22.59,11.9c-5.33,1.53-10.88,3.31-16-.85,9.18-6.41,19.73-10.63,28.31-18a42.35,42.35,0,0,0,8.1-8.59c5.81-8.82,11.87-17.49,18-26.09,4.63-6.47,6.85-6.6,12.56-1.29,4.16,3.87,7.87,7.94,9.28,13.79,1.49,6.11-.31,11.24-6,13.8-3.25,1.47-7.09,1.77-9.43,5.66,5.18,5.25,9.94,10.89,6,19-1.59,3.26-2.77,6.81-5.49,9.39C127.89,197.1,126.54,200.12,125.06,203.08Z"/><path class="cls-2" d="M69.07,187.09c13.41.58,25.34-3.11,35.43-12.22a31.45,31.45,0,0,1,5-3.26c9-5.47,17.11-.78,17.68,9.86.46,8.55-5,14.05-9.54,20-2.6,3.39-6.5,5.67-8.53,9.61h0c-15,5.25-41.38-7.37-46-22C65,188.26,66.81,187,69.07,187.09Z"/><path class="cls-9" d="M233.07,79.09c4.67-4.15,10.79-2.28,16.1-3.3,15.65-3,29.42-9.74,42.68-18,1.69-1.05,3.3-2.21,5-3.27,8.5-5.37,11.82-4,14.46,6.11.84,3.2,1.66,6.39,2.44,9.6,2.11,8.61-1.07,15.3-9.25,18-4.57,1.49-9.32,3.24-14.41,1.12-2.33-1-5.06-1-8.18-1.49-.48,9.75-8.42,12.82-14.81,17.3a5.58,5.58,0,0,1-1.77-2.39c-1.28-4.92-1.06-9.92-.47-14.88.62-5.17,3.18-8.38,7.91-8.17-5.78-2.44-12.61-.47-19.5.64S239.53,83.72,233.07,79.09Z"/><path class="cls-2" d="M233.07,79.09a78.43,78.43,0,0,0,27.58-3c8.17-2.31,13.72,2.05,20.23,5.33-1,1.35-1.46,2.24-1.64,2.19-11.21-3.37-12.05-2.8-12.16,8.45,0,3.67,0,7.33,0,11a8.51,8.51,0,0,1-7.26,4.52c-11.82.21-23.7,2-35.39-1.24-.46-.42-.91-.85-1.36-1.28-3.21-10.43-12.51-16.4-19.94-26h29.94Z"/><path class="cls-9" d="M379.08,81.09c-10-.73-19.77,1.76-29.65,2.56-10.15.82-18.78,7.12-25.73,14.18-11.8,12-26.83,16.86-42.16,21.1-15.6,4.31-31.4,8-47.25,11.27-6.95,1.44-14.34,2.77-21.22-1.1,12-2,24-4.13,36-5.87,11.06-1.61,21.37-4.15,31.56-9.77,13.9-7.66,28.1-14.6,40.67-24.43,5.24-4.1,10.55-8.29,13.69-14.14,2.4-4.47,5.27-6.3,10.17-5.85,3.29.31,6.63,0,9.94,0C363.59,67.56,374.35,72.94,379.08,81.09Z"/><path class="cls-9" d="M33.09,273.07a83.62,83.62,0,0,0,23.5,2c7.36-.26,13.21-3.59,18.18-8.77,1.72-1.79,3.16-4.2,1.51-6.18-4.37-5.21-3-11.22-3.18-17A38.19,38.19,0,0,1,91.29,239c8.06.29,15.8-.84,22.07-6.77.85-.8,2.45-.8,3.71-1.17.21,9.19-6.24,14.39-12,20-3.55,2-5.86,5.09-8.25,8.32-10.39,14.08-23.9,22.4-42,21.67C46.72,280.76,39.35,278.42,33.09,273.07Z"/><path class="cls-38" d="M227.06,75.09H209.33c-2.3,0-4.65.13-6.34-1.89,12.09-1.57,19.8-9,28.59-17.16,11.86-11,28-15.54,45.06-13.13C282.91,43.8,286,47.12,287,53,275.61,63.61,261,67,246.62,70.8c-2.55.68-5.17,1-7.55,2.29-3.69,2.51-8.32-.6-12,2Z"/><path class="cls-38" d="M73.09,159.12c.65-.68,1.31-1.35,2-2,6.79-11,15.24-20,28.85-22,3.67-.54,7.3-.17,9.14,3.93-9.17,23.18-25.77,37.94-50,44.06C61.2,172.94,66.39,165.71,73.09,159.12Z"/><path class="cls-2" d="M105.07,251.1c2.28-7.71,9.39-12.51,12-20,10.51-12.86,16.94-28.24,26-42,3.19-1.48,4.79-4.34,6.72-7.09a38.39,38.39,0,0,1,11-9.94c4.22-2.73,7.1-1.05,10.37,1.06.91,3.85-2.06,5.26-4.51,6.72-9.18,5.47-16.89,12.4-22.38,21.67-6.76,6.55-3.15,16.22-7.12,23.6a41.81,41.81,0,0,1-2,16c-1.24,1-.82,2.93-2,4h0c-3.78,4.64-9.64,2.5-14.26,4.41-4.68-.37-8.72,4.86-13.73,1.61Z"/><path class="cls-39" d="M287,53c-5.7-8.42-13.23-10.45-23.14-8.25C253,47.19,243,50.81,233.6,56.71c-4.26,2.68-7.44,6-8.16,10.74-.75,4.9-3.27,5.84-7.48,5.69-5-.17-10,0-15,0-2.17-.13-4.51.22-6-2,3.87-3.89,9-4.3,14.88-4.33-3.19-2.83-7-2.67-8.84-5.72v0c5.31-.52,10.71,4.68,16.11-.5-.23-3.38-6-3.57-5.13-8.14,3.88.84,5.52,5.89,10,5.05,1-1.77-.64-3-1-4.43v0c1.62-.87,2-2.37,2-4h0a27.31,27.31,0,0,1,2.43,1.5c1.29,1,2.51,2.12,4.11.6a3.2,3.2,0,0,0,.7-3.52c-.44-1.52-.82-3.06-1.23-4.59h0c1.29.95,2.65,1.81,3.85,2.86,5.27,4.63,3.73-.52,4.15-2.86,4.93,2.25,3.84-1.51,4-4l0,0c5.07,4,5.07,4,8.75-2.24,2.81.66,2.28,4.61,5.39,5.3,3.57-2,.81-6,2.57-9.22,2.4,1.71.46,6.07,3.63,6.64,2.3.8.68-9.25,5.06-1.47a1,1,0,0,0,.92.05c4.32-6.92,3.39,2.8,6.71,1.4,3.48-4.54-1.82-9.44-1-14.38l2,0c4.14,2.64,3.55,7.55,5.2,11.32,3-.05,4-5.61,7.66-2.46,2.7,2.34,6,4.74,3.21,9.12l.06-.07a6.56,6.56,0,0,0-2,4Z"/><path class="cls-9" d="M63.08,189.1c12.11,14.06,27,22.38,46,22-11.77,13.57-24.12,7-34.55-3.91-2.67-2.79-3.92-6.93-9.44-9.11,0,7,0,13.41,0,19.84,0,2,.29,4.1-.24,6-1,3.59-3.2,3.86-5.77,1.22-2.28-2.23.48-5.85-2.2-8l.07.16c-1.66-1.73.16-4.61-2-6.17l.06.12c-.93-1.22-.65-2.95-1.69-4.13a1,1,0,0,1-.44-1.33c-1-1.4-.19-3.65-2.19-4.56l.13.28c-.88-1.33-.18-3.5-2.25-4.19l.26.26a3.61,3.61,0,0,0-1.84-2.44l.06.07c-.09-2-4.73-4.15.08-6.12Z"/><path class="cls-40" d="M209.07,99.1c3.76,4.11,9.09,4.57,14,6h0c4.82,3.68,11.57,3.51,16,8,2.59,3,6.12,1.86,9.29,1.94,6.22.15,12.44,0,20.46,0-18.84,6.83-36.55,6-54.21,6.06-4.87,0-7.2-2.59-8.7-6.6C203.75,108.73,205.07,102.39,209.07,99.1Z"/><path class="cls-41" d="M113,139.05c-9.15-4.5-16.7-.31-23.63,4.92-5.16,3.88-9.6,8.71-14.36,13.13-2.27-1.85-6.48-2.57-3.45-7.31.5-.78-2.15-3.56-3.42-5.54,3.09-1.64,3.95,2.24,6,2.18,3.39-.11.76-2.16.86-3.34v0c2.75-.43,4.38,2.22,7.51,2.68-.21-3.49-2.42-5.9-3.5-8.7h0c2.61-.06,4-1.39,4-4h0l5,3c-.24-7.35.28-7.5,11.17-3.61,1.17-2.49-.75-4.93-.12-7.37h0c2.19.82,2,4,5.17,4.69-.41-3-.79-5.88-1.17-8.71,2.82,2,3.38,5.37,5.26,8.3-1.08-5.86,5.36-8.85,4.76-14.3,4,3.44,4.83,8,3.37,12.63C115.28,131.48,115.37,135.65,113,139.05Z"/><path class="cls-41" d="M73.09,159.12c-3.38,8-8.45,15.25-10,24-4.51,1.86-8.92,4.09-14,3.87-.52-.89-.92-2.14-.33-2.78,5.15-5.64,3.66-11.33.34-17.1,1.86,0,3.72-.08,5.57,0,3.46.2,3.46-1.58,2.43-4h0c3.55.11,3-1.84,2-4h0c1.82.53,3.63,1.12,5.47,1.59,3.92,1,3.5-1.12,2.54-3.6h0C69.35,157,71.15,158.26,73.09,159.12Z"/><path class="cls-9" d="M239.07,113.11c-6.25-.84-12.65-1.38-16-8,11.17,0,22.35-.06,33.53,0,3.66,0,7.23-.08,10.48-2v2c-3.38,6.63-9.8,7.31-16.07,7.91C247.06,113.39,243.05,113.1,239.07,113.11Z"/><path class="cls-42" d="M379.08,81.09c-7.78-4.44-14.4-11.2-24-12-3.53-2.94-8-4.07-12.1-5.65-5.12-2,.44-2.92.08-4.33,17.18,6.14,34.51,11.91,49.94,22-4,3.54-8,1.38-11.93,0Z"/><path class="cls-43" d="M49.08,167.1c8.22,6.65,8.23,6.8,1.83,16.45-.72,1.08-1.23,2.29-1.84,3.44-.65.1-1.31.19-2,.27-2.72,2.39-5.46.62-8.19,0-2.88-3.86-.31-7.51.64-11.11.81-3.1,2.37-6,3.6-9a8.44,8.44,0,0,1,1.51-.2,1.65,1.65,0,0,1,2.44.13Z"/><path class="cls-11" d="M293.13,43.19c1.49-4.54-4.1-5-4.79-8.25-.63-.34-1,0-1.48.65-1.83,2.37-2,7.46-6.14,6.14-3.06-1-1.13-5.23-1.69-8s-1.31-5.7-2-8.55l10-.22a2.09,2.09,0,0,0,1.86.31c1.69,1.68,3.87,1.82,6.07,1.89a5,5,0,0,0,3.9,2.07l0-.08a1.1,1.1,0,0,1,.64,1.12c-.07.45-.18.67-.32.67C295.61,34.27,297.75,40.41,293.13,43.19Z"/><path class="cls-44" d="M38.92,187.3c2.71-2.3,5.46.72,8.19,0,0,.61,0,1.22,0,1.84-2.32,2,.71,4.09-.08,6.12C44.49,192.39,40.71,190.86,38.92,187.3Z"/><path class="cls-12" d="M227.07,75.09c3.51-3.59,8-1.41,12-2C235.57,76.72,231.08,74.5,227.07,75.09Z"/><path class="cls-11" d="M291.15,47.16c-2.33-2.87.5-3.12,2-4A4.27,4.27,0,0,1,291.15,47.16Z"/><path class="cls-41" d="M113.09,115.08c-1-.06-2.51.06-2.49-1s1.54-.91,2.53-.9C113.11,113.81,113.09,114.45,113.09,115.08Z"/><path class="cls-4" d="M189.06,227.07c0-.66,0-1.31,0-2,.72-.61,1.32-1.34,2-2h0c.69-.64,1.36-1.31,2-2h0c.67-.66,1.4-1.26,2-2l2,0c10.61-2.54,20.95.19,31.34,1.69,3.59.52,7.12,1.54,10.82,1,15-2.08,20.8-9.85,17.55-24.67-2.19-10-3.19-20.14-5.68-30,.74-2-3.36-5.55,2-6,6.5,2.54,8.11,9.31,12.15,14a23.62,23.62,0,0,1,1.3,2.15c.44.67.87,1.37,1.33,2,.29.27.55.58.84.86a26.4,26.4,0,0,0,3.11,2c.79.41,1.53.87,2.27,1.35,3.06,2.2,6.71,2.67,10.19,3.74,8.12,2.49,10.28,7.72,6.47,15.3-2.4,4.76-5.66,9-10.47,13.86,5.22-.64,9.22-1.85,13.3-1.81,1.52-.08,3-.1,4.54-.1,7.63,0,15.26-.18,22.89,0,10.41.22,19.61-2.61,27.13-10.13a12,12,0,0,1,3.2-1.39c15.55-1.55,31.12-.74,46.67-.46,18.23,5.15,34.69-1.14,51.16-7.77,4.25-1.7,4.87-4.86,5.13-8.7.3-4.51-1-9.45,3-13.15.36.54,1,1.07,1,1.63.76,15,1.45,29.93,2.15,44.89-4.28,4.69-10,4.35-15.61,4.56-11.18.43-22.44-1.29-33.54,1.21-4.74,1-9.55.66-14.33.78-31,0-61.75,3.36-92.44,7.15-4.08-.19-8.63-1.34-11-4-6.26-7.2-12.73-4.7-19.57-2.05-6.67,2.59-13.72-1.91-20.36,1.16a3.45,3.45,0,0,1-2.51-1c-8.36-.42-16.48,0-23.82,4.85-10,6.64-17.7,1.85-23.25-5.28-1.37-1.75-1.82-4.37-4.6-4.74-7.51,9-10.5,22.31-24.33,25.17.13-8.58,8.6-11.6,12-18h0C187.78,228.46,188.38,227.73,189.06,227.07Z"/><path class="cls-45" d="M441.06,291.09c-6.54-1.34-7.33,4.48-9.95,8-7.3,5.69-14.8,9-23.17,1.94-1.63-1.38-3.19-.77-4.31.59-4.42,5.34-9.18,3.36-12.84-.25s-6.39-2.4-10.44-1.14c-6.85,2.12-14,4.69-21.28.85.13-7.19,5.08-11.94,9.24-16.74s9.23-3.38,12.78,1.12c4.16,5.29,7.82,4.23,13.6,2.14,9.51-3.43,19.92-2.8,30-1.51,3.18.4,6.53,2.38,8.44-2.06,5-11.36,5.58-23.59,7.21-35.59.62-4.6.95-9.21,5.06-12.34a18.26,18.26,0,0,1,7.35-2.18c6-.78,8.68,1.37,6.55,7.63.35,7.11-2.15,13.64-4.67,20C450.67,271.66,446.74,281.79,441.06,291.09Z"/><path class="cls-46" d="M457.24,172.81c-.06,6-.22,11.93-.14,17.9.06,3.86-.93,6.25-5.43,6.46-8.17.4-14.65,5.86-22.3,8a54.72,54.72,0,0,1-30.29,0c-2.12-1.69-6.84-1.2-5.84-5.39.68-2.83,4.2-3.07,6.81-3,17.37.43,29.69-12.49,45.21-17,3.29-1,5.13-4.27,4.45-8.07-.81-4.48-4.43-5.59-8.19-5.87-9.25-.67-14.79-5.23-16.14-14.55-2-7.15,1.73-13.49,2.85-20.18,1-3.9-2.74-4.73-4.46-6.88-1.25-3.55-2.92-7-1.18-10.92,6.87-1.71,8.84,4.68,12.82,7.75,4.53,4.54,7.39,10.1,9.73,16,2.36,5-1.68,5.33-4.67,6.45-2,.76-5,.65-4.64,4,.31,2.57,2.6,3.63,4.7,4.62,4.14,1.95,9.12,1.75,12.74,5C456.4,161.82,457.31,167.19,457.24,172.81Z"/><path class="cls-47" d="M435.41,121l-12.47-7.84c-4.23,1.08-5.77-2.64-8.3-4.62a9,9,0,0,1-1.39-2.12c-.08-.42-.15-.84-.22-1.26-6.19-7.42-15-11.43-22.46-17.17-3.1-2.38-6.33-4.59-9.5-6.87H393C411.5,89.77,425.38,103.33,435.41,121Z"/><path class="cls-48" d="M459.31,241.56c-.69-2.91.18-7.1-5.5-5.13-2.66.92-5.8.47-8.72.65-.3-.32-.61-.63-.93-.94-1.6-3,.88-7.16-2.85-9.51-6.57-1.58-13.21-.42-19.78-.83-3.86-.24-8.07.67-11-3,9.69-2.22,19.56-1.33,29.35-1.59a117.61,117.61,0,0,0,20.53-1.87C461.23,226.8,461.88,234.26,459.31,241.56Z"/><path class="cls-49" d="M453.27,157c-6.93-.24-13.85-.49-19.17-5.92-1.63-1.66-3.32-3.37-2.59-6,.85-3.07,3.27-3.82,6.1-3.95,3.17-.15,7,.75,7.53-4.16A50.34,50.34,0,0,1,453.27,157Z"/><path class="cls-9" d="M105.07,251.1c5-.27,8.72-4.83,14-4-4.51,7.83-3.84,15.11,2,22.09a8.63,8.63,0,0,1,1.93,6.54c-1.64,9.73,2.12,14.9,12.07,15.36h0c3.15,10.21-3.89,16.08-9.91,22-4.31,4.25-10.16,6.41-16.06,7.69-15.66,3.4-31.66,4-47.58,5.06a16.69,16.69,0,0,1-10.45-2.75c-5-2.18-9.33-5.08-12-10C58.56,319,78.31,318.44,98,314.83c10.19-1.88,18.46-6.84,20.34-18.72-7.11-2.66-13.23,1.93-19.78,1.62-2.17-.1-4.31.69-6.7-.06-6.61-2.08-7.89-4.5-5.58-10.94,2.77-7.74,8.52-13.59,13.88-19.18C105.14,262.38,107.07,257.68,105.07,251.1Z"/><path class="cls-50" d="M197.19,275.42a32.14,32.14,0,0,1,7.29-8.51c31.74-25.09,69.38-31.68,108.22-34.49,1.11,5.38-3.53,5.53-6.46,6.37a218,218,0,0,0-22.29,8c-5.48,2.35-12,2.32-16.95,5.21-17,9.91-36.67,15-51.82,28.18-4.4,3-8.26,5.83-7.32,12.42.5,3.54-2.42,6.92-5.59,8.78-6.74,3.95-13,8.93-20.75,11-1.31.27.3.14-1,.07-4.44-.26-10.09,5.32-12.8.41-2.85-5.15,4-8.08,7-11.67a31.94,31.94,0,0,1,10.08-8C192.27,289.41,197.44,284.38,197.19,275.42Z"/><path class="cls-4" d="M51.07,323.11c18.23.48,36.32-1.57,54.25-4.26,15.75-2.36,26.58-11.28,29.75-27.75,4.28.23,8.65-.68,12.84.64,5.25,1.65,6.87,5.73,3.34,9.83-4.09,4.74-8.47,9.51-13.58,13-11.21,7.66-23.34,14.06-36.31,18-14.45,4.35-29.2,5.24-43.15-2.85C55.27,328,52.6,326.23,51.07,323.11Z"/><path class="cls-51" d="M251.08,227.1h2c2.13-1.21,4.55-2,5.89.6,1,2-.9,3.65-2.42,4.86-4.49,3.55-10,4.92-15.26,6.81-4,1.45-8.26,2.36-11.72,5.06-6.23,3.22-10.7,9.39-18,10.84-2.35,1.18-5.5,1.76-6.92,3.64-6.41,8.49-15.69,11.67-25.21,11.49-14.39-.26-29.09-.8-42.47-7.44-4-2-6.88-5.06-5.2-10.58,17.17,7.28,34.45,5.7,51.74,2.65,6.63-1.17,12-5.49,18.17-7.91C218.22,240.64,234.62,233.8,251.08,227.1Z"/><path class="cls-52" d="M187.08,229.1c-1.52,7.66-8.1,11.94-12,18a66.18,66.18,0,0,1-14.32,6.34c-7.62,2.31-13.31-.14-15.07-7.88-2-8.62-5.68-17-4.46-26.89-3.13,1.7-1.58,5.41-4.13,6.44,1.13-8.87,0-18.25,6-26,1.67,2,1.72,4,0,6-.8,7-.62,13.43,6.69,17.4a101.43,101.43,0,0,0,21.74,9.25C177.52,233.39,182.4,233.23,187.08,229.1Z"/><path class="cls-53" d="M211.56,255.26c4.52-4.87,9.93-8.59,15.54-12,23.84-8.93,49-9.81,73.91-12.42,28.23-4,56.63-6.13,85.08-7.58,3.63-.19,7.29.06,10.93.1-.58,4.94-4.68,4-7.66,4.22a31.45,31.45,0,0,0-11.52,2.93,18.47,18.47,0,0,1-3.15.89,24.49,24.49,0,0,1-3.29.43c-7.2.19-14.4.12-21.6.15-5.3-.09-10.62-.7-15.85.78a25.67,25.67,0,0,1-4.61.78c-4,.21-8.08.06-12.06,1a5.07,5.07,0,0,1-4.2-1.37,365.54,365.54,0,0,0-60.93,12.58c-14,4.2-27.77,8.66-39.35,18.16-2.15,1.78-5.51,2.08-8.32,3.06Z"/><path class="cls-4" d="M135.07,291.1c-3.72-.41-7.14.94-10.69,1.69-3,.63-5.25-.18-4.11-4.3a28.69,28.69,0,0,0,0-14.72c-1.25-5.08-2-10.41-8.23-12.36-3.06-1-2.78-3.19-.85-5.41,2.59-3,6-5.22,7.86-8.89,4.39-2.52,9.45-.45,14-2-.27,4.81-5.09,5.61-7.6,8.44-5.84,6.57-6.38,10.61,0,16.76A31.63,31.63,0,0,1,135.07,291.1Z"/><path class="cls-54" d="M197.19,275.42c-1.08,4,2.58,6.51,3.38,10.33-11.84,7.46-24.08,14.37-32.46,26.14,5,3.27,8.36-5.23,12.95-.81-1.17,4-3.95,5.85-8,6l-14,10a9.3,9.3,0,0,1,1.52-4.46c4.08-6.63,4-6.65-2.15-11.89l.18.07c1.27-.1,1.75-1.12,2.35-2C173.31,298,185.86,287.36,197.19,275.42Z"/><path class="cls-10" d="M143,321c-.74,1.69-2.18,2.15-3.85,2.19A4.42,4.42,0,0,1,143,321Z"/><path class="cls-4" d="M133.06,245.08c0-1.64.41-3.13,2-4C135,242.74,134.7,244.24,133.06,245.08Z"/><path class="cls-35" d="M161,308.82a2.63,2.63,0,0,1-2.35,2A2.69,2.69,0,0,1,161,308.82Z"/><path class="cls-33" d="M695.07,245.09c-.72,9.85-3.4,18.64-11.83,25-4.25,3.19-6.25,8.46-10.13,12.21a24,24,0,0,1-16,6.84c-12.82.78-23-4.94-32.12-13.11-1.71-1.53-3.07-3.5-6.23-4.51-2.81,4.88-4.56,10.64-9.37,14.41-5,3.92-6.39,4.15-10.85-.41a31.39,31.39,0,0,1-3.56-4.74c-.9-1.36-1.59-2.86-2.64-4.77-3.86,2.39-5,6.37-7.34,9.33-5.4,6.85-11,12.63-20.45,14.58-6.62,1.37-12.24.67-16.59-3.37-3.87-3.6-7.14-2.06-10.88-1.42-.88-4.08,2.32-5.08,5-6.26,3.41-1.53,6.78-3.27,8.66-6.46,4-6.81,8.81-10.37,17.1-7.17,5.09,2,6.63-2.32,7-5.95,1.22-12.51,10.15-16,20.36-18.33,2.63-.59,5.75-1.47,7.6.7,9.27,10.95,22.14,10.6,34.64,11.55,2.48.55,4.89,1.66,7.52,1a10,10,0,0,0,2.87-1.73,29,29,0,0,0,2-2.68,5.22,5.22,0,0,1,1.69-1.55,6.18,6.18,0,0,1,2.29-.4,11.49,11.49,0,0,1,2.32.46,22.77,22.77,0,0,0,3.5.55c2.86.1,5.71,0,8.56-.11a17.29,17.29,0,0,0,4.8-1.12c2.72-1.12,5.34-2.48,8-3.72,1.05-.56,2.1-1.1,3.1-1.72,1.23-.85,2.49-1.66,3.76-2.42.58-.42,1.17-.83,1.73-1.26.24-.27.5-.51.74-.77.42-.6.86-1.17,1.3-1.76a5.73,5.73,0,0,1,1.64-1.5A1.62,1.62,0,0,1,695.07,245.09Z"/><path class="cls-55" d="M669.07,261.09h-12c-.61-.73-1.34-1.33-2-2a2.61,2.61,0,0,0-4,0c0,.67,0,1.33,0,2-.75.57-1.28,1.38-2,2l-2,2a7.92,7.92,0,0,1-8,0c-9.56.78-18.84-.82-28.1-3.06-3.41-.83-4.83-3-6.24-5.64-2-3.78-5-5-9-3.22a12.28,12.28,0,0,1-2.81,1c-9.42,1.61-15.46,6.35-15.84,16.63a15.18,15.18,0,0,1-1.3,4.72c-1.34,3.5-2.89,5.85-7.18,2.74-2-1.43-5-1.32-7.51-2.12-1.9-.61-3.32-.2-4.1,1.53-3.64,8-9.59,13.08-18.2,15.11-.71.17-1.15,1.53-1.71,2.34-4.69-2-4-6.15-4-10-3.91-3.88,1.68-8.21-.58-12.17a1.93,1.93,0,0,1,.57-1.82c1.86-1.89.56-4.59,1.71-6.67q3-18,6-36c4.83,5.47,2.76,12,2.22,18-.51,5.58-1.58,11.13-2.27,18.1,4.27-4.06,7.54-8.24,12.2-.86,3.84,6.07,7,.05,8.1-3.16,2.07-6.17,2.51-12.46,11.76-12.51,3.23,0,5.07-5.71,7.45-8.89,7.11-9.54,11.85-9.6,18.56,0,3.13,4.51,7.08,6.43,11.87,3.59,6.91-4.09,10.33-1.27,12.55,5.21a41,41,0,0,0,6.68,7.37c6.61,6.1,9.2,6,13.85-1.65,2.4-4,5-5.35,9.55-5.31,16.32.16,23.22-5.4,27.85-21.63,8.95,3.43,12.49,8.86,12,18.36,0,.66,0,1.32,0,2-.72.61-1.32,1.34-2,2h0c-.66.67-1.4,1.27-2,2l-4,2c-.61.71-1.41,1.24-2,2-3.32,1.35-6.19,3.84-10,4C672,260.32,670.1,259.81,669.07,261.09Z"/><path class="cls-56" d="M693.07,245.1a30.82,30.82,0,0,0-12-18c-5.26.89-8.07-3.79-12.27-5.37a8.21,8.21,0,0,1-1.5-2.51c-.4-1.26-.4-2.62-.81-3.84-3-9.09-1-15.92,8.47-19.54a8.62,8.62,0,0,1,5.43-2.44,9.6,9.6,0,0,1,2.94.63c1.9.35,4-.49,5.73,1.08l2,2c.14,3.51,2.35,4.79,5.36,6.23,8.54,4.07,9.24,7.06,7.39,16.71-1.7,8.85-8,16-8.75,25Z"/><path class="cls-3" d="M532.48,272.92c2.53,1.25,2.84,3.29,1.8,5.63a15.19,15.19,0,0,0-1.22,6.54c-2.18,1.5-2,3.8-2,6s.21,4.51-2,6l-2-6A85.93,85.93,0,0,1,532.48,272.92Z"/><path class="cls-2" d="M479.08,59.08c-1.69-2-3.46-4-5.05-6.09-1.38-1.84-3.46-3.76-3.65-5.78-.82-8.74-3.84-17.19-3.33-26.08l4,2c4,2,10.52-1.05,12,6-1.66,2-.08,3.21,1.39,3.47,8.85,1.58,17.42,4.85,26.59,4.55,3.7,2.15,7.8.28,11.59,1.12,4.56,1,10.68.06,11.35,7.05.49,5-6.71,11.31-13.12,10.66-9.91-1-18.89,1.64-27.82,5.16C488.23,61.64,483.65,60.38,479.08,59.08Z"/><path class="cls-57" d="M549.1,13.15c4.14,2.36,6.53,5.14,2.6,9.72-.17.21.9,1.48,1.39,2.26-15.5,8-32.15,9.49-48.91,7-5.65-.86-12.06,1.3-17.14-3-4.11-7.5.76-12.9,6.38-13.78,13.05-2,26.45-5,39.68-.29,4-1.53,8-3.24,12.17-4.51C547.1,10,546.79,12,547,13.09c.68,1.15,1.37,1.21,2.08,0Z"/><path class="cls-9" d="M493.07,61.09c7-6.33,14.56-9.84,24.43-6.41,5,1.75,12.39-3,14.54-8.07a3.32,3.32,0,0,0-2.11-4.79c-3.7-1.37-7.36-3-11.52-2.78-2.57.14-5.41.64-7.34-1.94,11.31,0,22.62-.09,33.92,0,8.15.09,10,3.06,6.75,10.49-5.17,11.92-16.37,16.23-28.59,10.76a12.46,12.46,0,0,0-10.56-.06C506.32,61,499.76,61.48,493.07,61.09Z"/><path class="cls-58" d="M482.89,81.2c-8.93-6.33-17.87-12.66-26-20,9.84,2.6,19.57,6.35,30,2.43,1.08-.41,2.62,0,3.84.39,9.13,2.84,18.25,5.71,27.33,8.71,1.15.38,2,1.57,3.05,2.39-9.92,1.85-19.79,4.06-30,4C488.23,79.11,485.1,78.43,482.89,81.2Z"/><path class="cls-41" d="M533.1,15.06q-12.3,0-24.62,0a37.87,37.87,0,0,0-10.64,1.37C488,19.28,487.66,19.38,487,29.13l-4-.05c-3.3-3.4-9.25-1.49-12-6,1.75-.53.52-5.4,4.42-2.92a6,6,0,0,0,5.68.46c.78-2.41-4.68-2.59-2.12-5.25,2.77-2.87,5.35-.09,7.51,1.58,2.48-2.73-1.6-3.46-.12-6a11.69,11.69,0,0,0,9.51-.81,8.44,8.44,0,0,1,8.46.53c2.54,1.83,3.7,2.53,4.88-.93.42-1.22,1.48-.75,2.2,0,4.54,4.88,5.45-.63,7.58-2.64,1.29,0,1.11-1.57,2-2h2c1.41.54,2.34,2,4,2h4A13.2,13.2,0,0,0,533.1,15.06Z"/><path class="cls-57" d="M553.09,25.12c.84-1.64,2.32-2,4-2C556.24,24.72,554.76,25.1,553.09,25.12Z"/><path class="cls-58" d="M485,83.22l-2.09-2Z"/><path class="cls-39" d="M221.08,51.09a11.8,11.8,0,0,1-2.36-1.64c-.8-.88-2-2.05-.17-3,.28-.14,1.5,1.07,1.92,1.85a10.1,10.1,0,0,1,.59,2.8Z"/><path class="cls-21" d="M233.05,31c1-1.56,2.55-1.84,4.24-1.77A5,5,0,0,1,233.05,31Z"/><path class="cls-21" d="M229.05,33c.86-1.47,2.28-1.83,3.84-1.94A4.26,4.26,0,0,1,229.05,33Z"/><path class="cls-39" d="M243.08,39.09c-.87-.43-1.89-1.78-1.45-2,2.27-.92.91,1.29,1.43,2Z"/><path class="cls-39" d="M237.68,41.91c-.36-.75-.14-1.27.66-1.38.14,0,.45.44.51.72a14.16,14.16,0,0,1,.22,1.85Z"/><path class="cls-39" d="M203.08,61.09c-.28-.15-.81-.36-.8-.45.16-.67.46-.5.79.47Z"/><path class="cls-39" d="M221.06,51.1l2,2v0l-2-2Z"/><path class="cls-39" d="M225.08,49.09c-.28-.15-.83-.36-.81-.45.16-.68.47-.51.8.46Z"/><path class="cls-39" d="M231.08,43.09c-.28-.15-.82-.36-.8-.44.15-.68.46-.52.79.45Z"/><path class="cls-41" d="M57.08,163.09l-2.59-.73c1.45-1.83,1.87,0,2.58.74Z"/><path class="cls-41" d="M59.08,159.09l-2.6-.73c1.46-1.84,1.88,0,2.59.74Z"/><path class="cls-41" d="M67.08,157.09l-2.61-.73c1.47-1.84,1.89-.06,2.6.74Z"/><path class="cls-41" d="M101.07,117.09c1.61.87,2,2.37,2,4C101.45,120.25,101.12,118.74,101.07,117.09Z"/><path class="cls-41" d="M47.11,167.1,44.67,167a2.65,2.65,0,0,1,.8-1.79Z"/><path class="cls-41" d="M75.08,143.09c-.28-.15-.81-.36-.79-.45.15-.66.45-.5.78.47Z"/><path class="cls-41" d="M79.08,137.09c-.28-.15-.82-.36-.8-.45.15-.67.46-.5.79.46Z"/><path class="cls-41" d="M83.08,133.09c-.28-.15-.82-.36-.8-.44.15-.67.46-.51.79.45Z"/><path class="cls-41" d="M99.08,125.09c-.28-.15-.82-.36-.8-.44.15-.67.46-.51.79.45Z"/><path class="cls-54" d="M683.06,195.08h-2c-12.76-6.44-25.72,0-38.58-.46-3.2-.1-6.42,1.23-9.69,1.48a11.48,11.48,0,0,1-2.81,0c-1.35-.37-2.69,0-4,.19a5.62,5.62,0,0,1-2.65-.74c-1.89-6.54-5.61-8.57-12.44-6.37-12.9,4.14-25.91,8-38.84,12-5.35,1.67-10,1.72-15.11-1.21-8.47-4.81-9.82-3.82-11.85,6.49a8,8,0,0,1-1.29,2.59,2.05,2.05,0,0,1-2.6.11l0-17.87c17.7-9.38,36.68-9.45,56.08-8.62,21.82.93,43.6,3.53,65.5,2.33,6.77-1.21,13.53-1.57,20.27.19q0,4,0,8c.7.45.93.9.7,1.34S683.3,195.08,683.06,195.08Z"/><path class="cls-59" d="M683.05,185.13l-20.27-.19c3.94-2.41,8.39-1.52,12.63-1.83,4.63-.34,9.32,0,13.93-.46,9.31-1,18.38-2.61,25.74-9.29,2.16-2,5.07-3.09,7.64-4.6l2.16,2.49c.17,1.58.58,3.05,2.08,3.92.09,1.26.17,2.52.26,3.78-5.78,5.32-13.09,5.79-20.31,6.08C699,185.35,691,185.12,683.05,185.13Z"/><path class="cls-7" d="M683.06,195.08c0-.66,0-1.33,0-2,2.2.09,4.57-.35,6,2Z"/><path class="cls-17" d="M527.08,7.11c-.15,1.14-.13,2.89-1.66,2.53-2.12-.5-2.19-2.68-2.37-4.52C526.25,2,526.67,4.55,527.08,7.11Z"/><path class="cls-17" d="M521.09,5.11c-.52.81,1,3.7-2,2C519.59,6.27,518.08,3.4,521.09,5.11Z"/><path class="cls-41" d="M515.12,1.25l1.93-.07C516.44,2.26,515.8,2.33,515.12,1.25Z"/><path class="cls-18" d="M549.11,13.13c-.29,1.52-.36,3.76-2.59,2.88-1.65-.65-.63-2.08.51-2.92Z"/><path class="cls-44" d="M48.52,197.33c2.26.58,2.47,2.27,2.25,4.19a8.7,8.7,0,0,1-1.66-.46C48.91,199.82,48.72,198.57,48.52,197.33Z"/><path class="cls-44" d="M46.94,195.15a2.71,2.71,0,0,1,1.84,2.44A2.56,2.56,0,0,1,46.94,195.15Z"/><path class="cls-44" d="M56.87,217.15c3.24,2,1.89,5.19,2.2,8l-2,0Q57,221.13,56.87,217.15Z"/><path class="cls-44" d="M54.9,211.14c2.61,1.42,2.11,3.86,2,6.17-.52-.19-1-.35-1.56-.5Z"/><path class="cls-44" d="M53.27,207.13c1.54,1,1.78,2.49,1.69,4.13A4.18,4.18,0,0,1,53.27,207.13Z"/><path class="cls-32" d="M649.14,127.19l3.91-.18c-.79,1.68-2.29,2-3.94,2.12l-.05,0c-.65-.45-.86-.88-.62-1.29S648.91,127.19,649.14,127.19Z"/><path class="cls-60" d="M487.06,189.06c-3.56,1.7-4,4.27-3.33,8.08s1,8.58-4.64,10c-3.78-8-2.46-16-.25-24.09.72-2.63,2.23-4.47,5-3.31,5.49,2.31,11.24.74,17.51,1.72C497.15,185.82,490.35,184.36,487.06,189.06Z"/><path class="cls-61" d="M621.07,249.1c-2.74-1.39-1.23-5-3.48-7-1.58.77-3.1,1.4-4.51,2.21-8.18,4.64-13.82,3-17.67-5.18-3.08-6.54-7.47-7.06-11.67-1.13-3.24,4.57-6.07,9.38-10,13.56-3.3,3.55-5.44,1.86-8.72-1.82.4,7.21-.52,12.87-5,17.37-4.68,4.71-6.35,4.61-9.51-1.17-.91-1.66-1.56-3.48-2.43-5.46-3.37,3.25-5.58,7.56-10.89,9.62,1.19-14.39,5.48-27.82,3.46-41.68-.84-5.81.18-11.56.43-17.34a13.58,13.58,0,0,1,1.94-2h0c2.88-3.58,7-6.06,11.18-5.75,11,.82,20.71-3.65,30.89-6.24,11.54-1.75,22.44-.68,31.65,7.44,3.07,2.71,6.65,2.26,10.32,2.08,11.9-.58,23.92-1.84,32.29,9.87,2,2.86,7,1.84,9.67,4.59h0c.92,10.87-9.11,21.55-20,19.82-6.47-1-10.51.66-14.83,5C630.85,249.36,626.56,252.58,621.07,249.1Z"/><path class="cls-3" d="M534.76,264.43c.4,2.47.78,4.94-1.71,6.67C532.88,268.68,532.91,266.32,534.76,264.43Z"/><path class="cls-7" d="M543.08,209.1l-1.94,2,0-2Z"/><path class="cls-62" d="M649.14,127.19c0,.63-.06,1.26-.08,1.9-29,1.3-56.08-6.42-82.23-18.15-2.94-1.32-6.31-2.33-7.78-5.76,2.21-.84,1.5-3.61,3.28-4.92.79.51,1.62,1,2.42,1.57,1.83,1.25,3.61,5,5.2,3.57,2.2-1.9,6.68-3.12,6.62-4.71-.24-6.64,3.61-1.39,5-1.77,3.35-.9,7,2.62,10.6-.09,2.56,5.41,6.46,3.69,10.36,1.94,3.67,6.51,11,.61,16,4.94,3.4,3,8.14.21,10.71-4.18,2.61,3.77-1.66,5.52-.46,8.46a5.93,5.93,0,0,0,1.06.91c3.21,2,7.37-4.07,8.06-1.17.88,3.69,2.52,4.43,5.07,6,1.7,1.05-.79,4.05,1.82,6.88C647,125,645.18,126.75,649.14,127.19Z"/><path class="cls-63" d="M357.08,301.08c-9.07,5.75-12,5.71-19.06-.24-9.5,16.71-20.53,16.84-38.17,11.53a9.64,9.64,0,0,1-2.7-1.26c-5.74-4-11.12-4.76-17,.27-5.44,4.66-12.43,3.83-19.07,3.73a2.88,2.88,0,0,1-.55-2.39,12.24,12.24,0,0,1,2.14-3.24c.55-.69,1.14-1.34,1.75-2,.29-.34.61-.66.9-1,2.39-2.34,3.93-5.26,5.72-8,2.27-3.49,4.82-4.75,9-2.36,10.6,6,23.66-1.75,25-14.55a15.46,15.46,0,0,1,.72-2.75c4.12-6.15,4.45-14.9,12.54-18.35a5.65,5.65,0,0,1,2.58,1.24c4.9,5.76,11.8,5.41,18.34,5.8,9.56.56,10.67,1.51,8.39,10.55-1.35,5.36-1.88,9.28,4.37,12.14C355.91,292,358,296.23,357.08,301.08Z"/><path class="cls-63" d="M173.06,317.08l8-6c6.08-3.37,12.37-6.42,18.18-10.22,4.64-3,9.62-6.55,5.39-13.5-1.13-1.87.37-3,1.81-3.94,2.22-1.44,4.45-2.86,6.67-4.29,2.36,2.75.49,5.42-.11,8.13-1,14.32,1.72,17.81,15.76,19.89a9.73,9.73,0,0,1,2.57,1.1c4.58,6.53,11.64,10.12,17.75,14.85-8.8,6.71-19,6.48-29.27,5.92-5.26-.3-5.71-.95-10.35-9.06-2.39-.48-3.76,1.27-4.88,2.74a11.63,11.63,0,0,1-13.39,4.1C184.74,324.64,176.5,325.08,173.06,317.08Z"/><path class="cls-64" d="M357.08,301.08c-3.54-3.69-3.65-10.78-11.31-10.5-2.92.1-2.95-3.35-2.52-5.52.69-3.53,2.08-6.92,3-10.42,1.11-4.38-.05-6.09-4.16-4.73-5.85,1.94-10.93-1.3-16.46-1.27-3.73,0-6.21-3.39-6.51-7.55,11.74-3.08,23.45,0,35.15.48,4.25.18,3.75,4.58,4.42,7.82,1.59,7.61,5,9.17,11.8,5.66,1.14-.59,2.85-2.37,3.23-1.86,5.44,7.25,14.93-.09,20.63,5.88.91.95,2.64,2.21,3.45,1.59,7.63-5.74,14.66-1.76,22.49-.18,5.87,1.19,10.59,2.74,14.81,6.61-1.53,3.37-3.78,4.05-7.25,2.57-5.58-2.4-11.35-3.68-17.29-.85a3.89,3.89,0,0,1-2.93.17c-6.75-3.23-12.15-.42-17.09,3.83-3.71,3.2-5.92,1-8.2-1.71-8.88-10.66-9.9-10.55-16.91,1.15-1.86,3.09-4.2,5.9-6.33,8.84h-2Z"/><path class="cls-64" d="M249.08,323.1c-8.34-1.66-15.13-5.31-18-14,4.46-6.3,12.05-7.36,18.24-10.72,2.73-1.49,5,.74,6.32,3.23,1.92,3.77,4.56,7.22,5.46,11.49v2A20.2,20.2,0,0,1,249.08,323.1Z"/><path class="cls-54" d="M157.07,329.1l2-2Z"/><path class="cls-3" d="M421.08,323.1l-2,2Z"/><path class="cls-3" d="M415.07,333.1l2-2Z"/><path class="cls-3" d="M417.08,329.1l2-2Z"/><path class="cls-9" d="M425.1,125.11c4.38-2.24,5.7.1,6,4-3.39,7.39-6.57,14.5-6.26,23.28.35,10.08-4.14,18.59-14.57,22.49-18.74,1.25-36.1-3.87-52.93-11.42-6.08-5.31-13.1-8.54-20.94-10.68-8.14-2.23-17.08-3.51-22.29-11.59-2-3.05-3.78-1-5.8-.06-4.54,2.18-7.6.65-9.2-4,5.83-6.49,13.66-10.06,21-15.16,1.09,3.85,2.16,6.93,2.82,10.09,1.95,9.28,4.1,12.17,13.39,12.78,15.77,1,29.86,5.7,41.81,16.22,1.58,1.39,3.43,2.42,5.44,1.9,11.85-3.06,23.39-6.81,33.42-17.24-19-.62-35.35-6.59-51.72-12.32-9.39-3.29-18.77-6.62-26.92-12.63-4.14-3-7.62-6.61-8.89-11.64-.85-3.34,1.39-2.86,3.44-2,6.5,1.94,9.95,8.39,16.11,10.82,15.74,7.67,32.07,13.58,49.4,16.41,7.49.5,15.05,1.41,21.26-4.31.58-.59,1.2-1.16,1.81-1.73s1.1-1.22,1.67-1.81A5.87,5.87,0,0,1,425.1,125.11Z"/><path class="cls-65" d="M143,205.08c0-2,0-4,0-6,5.75-10.25,14.5-17.17,24.74-22.52,1.34-.7,2.21-2.28,3.29-3.45h0c1.9-1.49,4.1-2.54,6-4v0c7.61-1.86,14-7.08,21.89-8.11,6.26-2.23,6.61,3,7.23,6.45.81,4.45,1.2,10-4.75,11.24-3.32.66-1.71,2.86-2.79,4-3.18,5.44-9.83,4.68-14.22,8a19.74,19.74,0,0,1-5,3.07c-5.37,1.93-7,7-8.59,11.37-2.54,7.09,7.57,3.54,8.14,9.46-.47,3-4.57.2-6,2.34C161.28,217.4,150.11,216.35,143,205.08Z"/><path class="cls-38" d="M173,217c.86-1.63,2.72-1.67,4.29-2.68-.84-2.23-3.22-1.84-4.7-2.29-5.89-1.81-7.47-4.34-3.92-9,2.23-3,3-8.36,4.63-8.92,7.76-2.62,13.47-9.74,22.18-10,.54,0,1.06-.65,1.59-1,4.44-4.31,10-4.84,15.77-4.66,11.84.37,15.27,5.12,12.22,16.63C209.46,206.54,192.54,214.88,173,217Z"/><path class="cls-66" d="M425.1,125.11a10.16,10.16,0,0,0-.09,1.83c-.6.74-1.25,1.44-1.86,2.17L423,129c-5.05,1.52-9.77,4.7-15.46,3a3.69,3.69,0,0,1-1.47-2.19c.39-5.84,5.53-4,8.29-5-3.69-5.56-8.75-1.08-13.29-1.69-1-.12-2.28-.14-2.8-.85-6.95-9.41-18-8.88-27.72-11.65-.22-1.32-.17.4-.32-.92a20.12,20.12,0,0,1,0-2.33,12.9,12.9,0,0,0-.7,1.82,4.33,4.33,0,0,1-2.5,1c-5.2-3-9.94-4.31-16.34-1.58-5.77,2.46-10.27-6.92-7.56-15.42,24.29-1.75,47.54,2.54,69.91,12v0c.62.71,1.39,1.24,2.05,1.9l7.86,6.13C423.87,117.1,425.69,120.88,425.1,125.11Z"/><path class="cls-9" d="M265.07,177.1c-5.64-4.11-7.81-10.81-12-16,1.94-3.17,5.64-1.11,8.09-2.68.14-.64.55-1.32.38-1.8-3.25-9.54-3.37-10.18,6.06-11.78,10.11-1.72,19.11-7.32,29.48-7.73.45,9.35-5,15.49-11.4,21.15-4.53,3.06-9.72,3.2-15.2,3.21a20.42,20.42,0,0,1,4.18,2.73,116.66,116.66,0,0,0,40.84,19.85c3.89,1.06,9.06.43,10,6.33a5.12,5.12,0,0,1-5,2.75C301,191.26,281.39,189.89,265.07,177.1Z"/><path class="cls-67" d="M225.07,195.08c-.48-.8-1.43-1.63-1.37-2.39.8-9.73-.59-11.32-10.18-11.62a44.63,44.63,0,0,0-16.44,2c.56-3.59-1.49-7.83,2.32-10.65,2.6.93.72,4,2.9,4.89,3.51-9.49,3.1-11.55-3.26-16.28,11-5,22.71-6.45,34.69-5.77,1.16.06,2.26,1.15,3.39,1.76-3.74,3.57-3.77,9.1-6.48,12.77,6.87,1,8.43-7.6,14.5-8.78,4.12,5.92,1.91,11.3-1.62,16.41C238.6,184.59,233,191,225.07,195.08Z"/><path class="cls-9" d="M251.09,167.09c5.09,8,5.66,17.46,7.75,26.36,1,4.1,2.43,8.19,2.35,12.64-.11,5.89-2.3,9.57-7.4,12.91-10.43,6.82-21.07,6.79-32.25,3.24a66,66,0,0,0-24.48-3.16c2.6-3,6.13-1.79,9.31-2,4.94-.25,10,.44,14.81-.55C233.65,214,243,207.51,245.7,194,247.53,185,252.14,176.64,251.09,167.09Z"/><path class="cls-4" d="M285.07,157.09c5.19-6,8.69-12.91,12-20l2,0c6.65,4.06,6.65,4.06,14.95-3.56.65,10.36,8.43,12.43,16,15,8,2.73,16.89,3.26,23.85,8.94a10.22,10.22,0,0,1,3.22,3.64c-2.91,2.77-6.27,1.46-9.43.84-13.76-2.71-26.85-7.24-39.11-14.81,1.25,2.28,4.8,5.7,1.07,6.53C301.59,155.45,293.93,161.29,285.07,157.09Z"/><path class="cls-68" d="M343.12,93.19A16.19,16.19,0,0,0,349.18,108c2.62-.94.83-8.69,6.91-3.35,4,3.55,1.74-3.29,4.11-3.89.93,4.89,4.49,7.11,8.89,8.4.43,1.52-.33,3.1-1.57,3-7.89-.63-13.79,4.26-20.45,7a31.36,31.36,0,0,1-14.21-12C333.34,96.17,333.34,96.17,343.12,93.19Z"/><path class="cls-69" d="M245.14,161.05c-3.78,7.58-10.63,10.92-19.12,13.42,2.44-4.72,5.39-8.65,5.27-13.79-.08-3.72,3.22-3.45,5.83-3.62,2.24-.08,4,1.15,6,2a12.61,12.61,0,0,0,2,2Z"/><path class="cls-52" d="M189.06,227.07l-2,2Z"/><path class="cls-52" d="M191.07,223.09l-2,2Z"/><path class="cls-52" d="M193.07,221.09c-.67.67-1.33,1.34-2,2C191.74,222.43,192.4,221.76,193.07,221.09Z"/><path class="cls-52" d="M195.07,219.11l-2,2Z"/><path class="cls-67" d="M245.11,161.06l-2-2Z"/><path class="cls-2" d="M177.14,169.16a6.37,6.37,0,0,1-6,4A5.81,5.81,0,0,1,177.14,169.16Z"/><path class="cls-9" d="M427.08,151.09c2.46,8.72,7.8,13.06,17.24,12.13,4.57-.45,7.43,2.42,8.54,6.77,1.37,5.34-.18,8.9-4.9,11.61a26.28,26.28,0,0,1-5.36,2.61A78.65,78.65,0,0,0,421,194c-5.93,4-12.51,6-19.81,5.1a51.63,51.63,0,0,0-6.46,0c0,4,3.54,3.78,4.32,6l-50,0c-1-5.58-4.41-10.55-4.15-16.44a6.52,6.52,0,0,1,2.53-1.21,11.84,11.84,0,0,1,4.24.16c7.25,2.26,15.34-.81,22.31,3.55,1,.61.38,1,.76.22,6-12.41,19.87-6.09,28.52-12.06,3.85-1,7.67-2,11.59-2.6,13.15-1.33,13.62-2,11-14.44C425.05,158.44,423.89,154.52,427.08,151.09Z"/><path class="cls-2" d="M345.07,189.11c2.86,4.95,7.42,9.47,4,16h0c-3.34,2.07-6.59,4.58-10.74,4.42C324,209,310.72,214,297.07,217.09h-4c-1.39-3.61,1.09-6.39,2.14-9.42,4.22-12.21,1.84-16.68-11.28-19.53-4.63-1-9-2.31-12.88-5h0c-1.05-1.23-2.9-.85-4-2h0c-.7-.63-1.22-1.43-2-2,0-.66,0-1.32,0-2,10.95,4.28,21.77,9,33.5,10.77C306,189,313.38,190,320.8,191a4.49,4.49,0,0,0,4.28-1.91C331.74,184.85,338.4,184.83,345.07,189.11Z"/><path class="cls-70" d="M301,230.8a175.56,175.56,0,0,1-42.69,7.82,192.69,192.69,0,0,0-31.22,4.6c3.67-4.54,9.42-4.49,14.26-6.42,5.74-2.29,11.9-3.73,16.72-8.05-1.64-2.07-3.42-1.49-5-1.66,5.36-2.83,5.35-2.73,14-.79,1.1.24,2.46-.5,3.67-.89,4.37-1.39,8.68-3,13.1-4.19,2.89-.78,7.43-4.23,6.59,3.29-.18,1.64,2.14,2.18,3.75,2.62C296.74,227.83,299.2,228.73,301,230.8Z"/><path class="cls-9" d="M271.07,183.1c7.62,2.18,15.34,4.05,22.82,6.62,7.14,2.46,8,4.8,5.89,12-1.59,5.38-3.09,10.81-6.69,15.32-5.56-1.09-10.67,3.63-17.1,1.1,3.95-5.51,8.92-9.87,12.2-15.48,4.66-8,2.94-11.93-6.42-13.56C277.4,188.37,273.4,187.32,271.07,183.1Z"/><path class="cls-9" d="M297.07,217.09c11.63-6.52,23.94-10.75,37.44-9.9,5.11.32,9.6-2.28,14.57-2.08-4.82,9.71-14.1,11.21-23.3,11.84C316.25,217.6,306.64,217.09,297.07,217.09Z"/><path class="cls-50" d="M377.06,229.08c2.79-3.34,6.56-3.91,10.63-4,3.16-.09,6.65,1.12,9.33-1.73l13.51-.53c9.28.11,18.56.24,27.84.33,3,0,6.2-.27,6.71,4-3.1,3.21-7.21,3-11.14,3.07-17.16.37-34.36-1.6-51.5,1A6.13,6.13,0,0,1,377.06,229.08Z"/><path class="cls-9" d="M267.09,181.08c1.64,0,3.13.4,4,2C269.42,183.06,267.93,182.71,267.09,181.08Z"/><path class="cls-9" d="M265.09,179.08l2,2Z"/><path class="cls-61" d="M435.07,287.09a9.11,9.11,0,0,1-8.05-3c-1.41-1.57-3-2.58-5.1-.86-4.41,3.61-7.53.95-9.85-2.58s-4.14-3.08-7-.61c-6.74,5.74-7,5.72-13.87-.67-2-1.81-3.1-1.23-5.09-.37-7.5,3.2-7.55,3.08-12.46-4.72-2.17,4.56-4.5,8.57-10.52,5.86s-8-6.5-7-16.76c-12.36-.72-24.92.61-37.05-2.28h0c-10.9-3.7-13-7.26-10-16.74,4.49-2.68,9.19-1.69,13.39.2,11.51,5.19,21.32,2.29,31.9-3.69,29.36-16.61,59.89-16.24,90.71-3.76h0c-2.82,8.17-2.48,16.86-3.72,25.27A105,105,0,0,1,435.07,287.09Z"/><path class="cls-8" d="M427.08,151.09c-.55,5,.86,9.76,2.35,14.5,2.73,8.68.53,12.16-8.42,13.41a45.22,45.22,0,0,1-5.94.1c4-5.55-5-2.44-4-6,8.7-6.59,13.63-14.77,10.95-26.11-.32-1.35-.54-2.69.31-3.73a28.27,28.27,0,0,0,5.46-12.42c.3-1.41,2-1.46,3.28-1.71C431,136.65,425.68,143.26,427.08,151.09Z"/><path class="cls-2" d="M415.08,107l-2.05-1.9Z"/><path class="cls-63" d="M445.09,237.09c-9.21.75-17.71-2.2-26.19-5.09-12.77-4.36-25.09-3.83-37.9.87-11.54,4.25-23,8.18-33.53,14.79A20.47,20.47,0,0,1,327.41,249c-5.74-2.54-11.76-4.73-18.31-3.9a10.62,10.62,0,0,1-6.68,2.62c-6.54-.19-13.43,2.05-19.36-2.67a71.39,71.39,0,0,1,20.08-8c3.5-.82,7.16-1.31,9.94-4l4,0c3.7-2.49,8.32.61,12-2l4,0c5.09-2.62,10.93.76,16-2h24a1.2,1.2,0,0,0,2,0l2,0c22.59-3.63,45.35-1.34,68-2C448.63,230.42,443.8,233.75,445.09,237.09Z"/><path class="cls-61" d="M283.06,245.08l20,0c-.05,11.49,4,22.5,4,34,0,.66,0,1.32,0,2-1.84,3.54-4.5,6.46-7.08,9.46-6.26,7.29-11.16,8.9-18.7,3.67-6-4.2-8.53-2.72-10.66,3.31a53.53,53.53,0,0,1-5.55,11.57h0c-.7.62-1.3,1.36-2,2l-2,2c-6.28-2.14-5.4-9.45-9.82-13.75-6.25,4.25-13.16,7.15-20.2,9.75l-2,0c-1.64-1.61-3.58-3.18-3.8-5.56-.59-6.52-3.74-9.92-10.5-10.46-2.87-.23-5.94-1.84-3.73-6,.68-2.66,1.37-5.31,2.05-8,2.15-2.5,4.27-5,6.44-7.5A12.54,12.54,0,0,1,229,267c7.83-.35,15-2.92,20.25-9.11,4.38-5.14,10.44-6.86,16.51-8.54C271.47,247.74,277.29,246.48,283.06,245.08Z"/><path class="cls-50" d="M349.08,229.11c-4.93,4-10.7,1.13-16,2C338,227.12,343.76,229.94,349.08,229.11Z"/><path class="cls-50" d="M329.08,231.1c-3.52,3.6-8,1.39-12,2C320.58,229.48,325.06,231.7,329.08,231.1Z"/><path class="cls-50" d="M375.08,229.1q-1,2.06-2,0Z"/><path class="cls-56" d="M639.07,265.1h8C644.41,267.94,641.74,267.93,639.07,265.1Z"/><path class="cls-56" d="M669.07,261.09c.86-1.61,2.36-2,4-2C672.22,260.71,670.72,261.06,669.07,261.09Z"/><path class="cls-56" d="M651.08,259.1q2-3.09,4,0Z"/><path class="cls-56" d="M649.08,263.1l2-2Z"/><path class="cls-56" d="M655.07,259.1l2,2Z"/><path class="cls-56" d="M683.07,255.09l2-2Z"/><path class="cls-56" d="M689.07,251.09l2-2Z"/><path class="cls-56" d="M691.07,249.09l2-2Z"/><path class="cls-64" d="M621.07,249.1c9.68.23,14-7.42,19.67-13.39a22.38,22.38,0,0,1,2.76,1c8.17,4,11.2,3.57,17.47-2.46,3.83-3.69,7.55-7.42,8.11-13.12,5.6-1.19,8,4.06,12,6,1.2,4.94,4.3,10.48-4,12.45a2.24,2.24,0,0,0-1.44,1.24c-3.35,11.65-12.77,10.93-21.66,10.12-4.63-.43-6.58.53-8.59,4.91-4.07,8.89-8.91,9.5-15.79,2.77C626.6,255.62,623.09,253,621.07,249.1Z"/><path class="cls-71" d="M669.08,221.09c-3,0-6,0-8.93-.05-2,0-4.34-.26-4.67-2.68-1.17-8.7-8.19-8.7-14.18-9.08-6.18-.39-12.57-1.24-18.67,1-2.41.9-4.86.81-6.26-1.39-5.83-9.14-14.92-9.87-24.38-9.83-2.31,0-4.63,0-7,0,6.67-7.55,24.62-10.88,34-6.27,2,1,3.36,3.38,6.09,2.34.66,0,1.31,0,2-.06a1.35,1.35,0,0,1,2,0h0c10.56,5.16,21.11,6.55,32.6,2.2,4.54-1.72,10.24-3.12,15.38-.19-1,5.5-9.56,1.8-9.72,7.72-.13,4.45,2.47,8.71,1.75,13.36A19,19,0,0,0,669.08,221.09Z"/><path class="cls-7" d="M677.07,197.09c-8.08,2.76-16.68,2.73-25,5.4s-17,.36-23-7.41c6.88-2.29,13.86-4,21.2-4a62.7,62.7,0,0,0,14.7-1.38c6-1.38,12.45-1.47,16.09,5.39C679.44,195.14,677.93,195.47,677.07,197.09Z"/><path class="cls-7" d="M625.1,195.13c-1.76,2.3-3.7,1.87-6,.76-11.93-5.67-23.17-3.1-34,3.17-9.25,3.53-18.42,6.78-28.7,6.38-4.37-.16-8.84,2.36-13.26,3.66,0-3-.18-6,.07-8.94.43-4.94,3.2-7,7.91-6,2.21.52,5,1.05,6.27,2.61,4.36,5.4,9.17,3.52,14.3,1.93,13.55-4.2,27.15-8.24,40.73-12.34a25.71,25.71,0,0,1,3.8-1.1c6.85-1,7.88.11,7.54,7.42C623.67,193.49,624.61,194.32,625.1,195.13Z"/><path class="cls-7" d="M629.08,195.08h-2C627.74,193.71,628.41,193.73,629.08,195.08Z"/><path class="cls-64" d="M265.07,309.1c.44-8.6,4.85-15.59,8.58-22.91,4.19,1.39,5.81,5.19,9.14,6.79,2.73,1.32,5.44,2.34,8.57,2.07,3.6-.3,4.5-2.91,6.14-5.56,2.22-3.58,5.93-6.09,9.56-8.4a59.4,59.4,0,0,0,0,6c.55,5.36-2.65,7.8-7,9.43-2.46.91-5.26.39-7.53,2.22s-3.77,5.73-6.86,4.88c-2.57-.7-4.5-3.67-6.75-5.6-.74-.64-1.56-1.17-2.81-2.09C271.13,299.2,271.24,307,265.07,309.1Z"/><path class="cls-64" d="M307.07,279.1a72.09,72.09,0,0,1-5.91-21.6c-.46-4.2-.52-8.54,1.9-12.39l6,0c-1.63,8.42,5.15,11.57,10,15.95-3.69,1.54-4.35,5.31-6.13,8.26C311,272.59,310.25,276.58,307.07,279.1Z"/><path class="cls-64" d="M263.09,311.11l2-2Z"/><path class="cls-64" d="M211.06,287.09c.92,5.54,5.36,4.05,8.63,3.9,5.57-.25,8.1,1.9,7.36,7.48-.5,3.79,1.66,7,2,10.61a47.33,47.33,0,0,1-6-.07c-7.54-1-11-4.18-12-11.91C210.77,293.86,206.89,290.42,211.06,287.09Z"/><path class="cls-6" d="M411.06,173.08c1.24.3,2.49.56,3.72.9,5,1.41,1.52,3.33.29,5.12-4,.63-7.77,2.66-12,2-18.77,4-36.3-.79-53.54-7.64-1.26-.42-.21,2-.32.7,0-.48.27-.62.92-.38,6.8,2.59,13.47,5.43,19,10.35,1.26,1.13,2.38,2.67,1.81,4.34-.64,1.87-2.65,1.69-4.24,1.56-5.2-.44-10.52,1.15-15.62-.93l-4,0C331,176.71,311,177.06,292.6,172c-6.71-1.84-13.63-2.85-19.53-6.9-2.23-1.32-5-1.84-6.93-5,6.37-1.87,13.12-.07,18.93-3,2.29-.19,5,.34,6.8-.71,5.42-3.16,11.28-3.43,17.66-3.41-.37-4.9-7-4.31-6.84-9,2.51-1.63,4.75-.59,7.08.91,14.42,9.3,30.59,13.59,47.3,16.25C374.45,167.89,392.14,173.25,411.06,173.08Z"/><path class="cls-38" d="M347.07,119.11c1.68-2,3.14-4.25,5.09-5.92,2.74-2.33,5.64-4.56,9.78-2.8,2.48,1.06,5.16,1.34,7.15-1.27h0c.65-.9,1.3-1,1.94,0,5.39.12,10.29,4.18,16.24,1,4.26-2.28,1,3.55,3.23,4.07s4.57-.18,5.58,2.79c.76,2.22,2.16,4.15,5,4.13,4.19,2,5,6,6,10h0c.93,6.81-5.63,3.61-8,6C380.8,133.9,363.16,128.75,347.07,119.11Z"/><path class="cls-72" d="M399.12,137.06c2.05-2.81,7-1.82,8-6,5.48.85,10.15-4.63,15.86-2-3.21,6.15-8.6,8.25-15.19,8.13C404.91,137.1,402,137.09,399.12,137.06Z"/><path class="cls-46" d="M423.15,129.11l1.86-2.17Z"/><path class="cls-72" d="M407.1,131.06c-2.08-3.28-4.91-6.1-6-10,4.53.7,8-2.6,12.15-3.66-.67,6.18-.67,6.18,7.4,3.38-1.41,4.74-4.62,6.28-8.89,6.29C409,127.12,407.3,128.18,407.1,131.06Z"/><path class="cls-68" d="M371,109.14l-1,0h-1c.06-1-.07-2.51,1-2.5S371,108.16,371,109.14Z"/><path class="cls-4" d="M273.07,165.11q29.79,6.4,59.59,12.83c6.56,1.42,11,5.69,14.42,11.14l-2,0h-20a23.34,23.34,0,0,0-7.54-2.13c-15.09-2.14-27.54-10.64-40.68-17.42C275.26,168.73,274.32,166.62,273.07,165.11Z"/><path class="cls-73" d="M351.07,189.1h18.3c-6.73-7.62-15.94-10.55-22.45-17.47,18.49,5.09,36.95,9.53,56.16,9.47-7.81,5.6-17.73,3.89-26.06,7.33-1.73,3.25,3.31,3.1,2.33,6.41a50.94,50.94,0,0,0-23.94-3.8A4.89,4.89,0,0,1,351.07,189.1Z"/></g></g></svg>