<svg xmlns="http://www.w3.org/2000/svg" viewBox="0 0 691.61 459.53"><defs><style>.cls-1{fill:#eae8e3;}.cls-2{fill:#f2efea;}.cls-3{fill:#e4e1dc;}.cls-4{fill:#dddad5;}.cls-5{fill:#f68889;}.cls-6{fill:#eeb2b3;}.cls-7{fill:#f58283;}.cls-8{fill:#c9c7c3;}.cls-9{fill:#fabcbd;}.cls-10{fill:#f8adae;}.cls-11{fill:#fbbfc0;}.cls-12{fill:#cfcbc7;}.cls-13{fill:#f29091;}.cls-14{fill:#fabbbb;}.cls-15{fill:#fac2c2;}.cls-16{fill:#f79294;}.cls-17{fill:#f4b2b3;}.cls-18{fill:#fac3c4;}.cls-19{fill:#eaaaab;}.cls-20{fill:#f1b0b1;}.cls-21{fill:#e67071;}.cls-22{fill:#e5999a;}.cls-23{fill:#e5a6a7;}.cls-24{fill:#fefefe;}.cls-25{fill:#fdfdfd;}.cls-26{fill:#f38f90;}.cls-27{fill:#dd6567;}.cls-28{fill:#e97879;}.cls-29{fill:#e86d6f;}.cls-30{fill:#de6465;}.cls-31{fill:#dd6e6f;}.cls-32{fill:#e87375;}.cls-33{fill:#e95b5d;}.cls-34{fill:#e96364;}.cls-35{fill:#f79394;}.cls-36{fill:#ec8789;}.cls-37{fill:#f0a4a5;}.cls-38{fill:#f58b8d;}.cls-39{fill:#e98182;}.cls-40{fill:#e9797a;}.cls-41{fill:#f9a9aa;}.cls-42{fill:#f69b9c;}.cls-43{fill:#fab4b5;}.cls-44{fill:#f9a6a7;}.cls-45{fill:#de5f60;}.cls-46{fill:#f7898b;}.cls-47{fill:#e88384;}.cls-48{fill:#e5898a;}.cls-49{fill:#f8a6a6;}.cls-50{fill:#f89a9b;}.cls-51{fill:#e89d9e;}.cls-52{fill:#f7b5b6;}.cls-53{fill:#f49091;}.cls-54{fill:#f8a9a9;}.cls-55{fill:#f89d9e;}.cls-56{fill:#f9a7a8;}.cls-57{fill:#f67273;}.cls-58{fill:#f17879;}.cls-59{fill:#f08080;}.cls-60{fill:#f69b9d;}.cls-61{fill:#e97677;}.cls-62{fill:#f67577;}.cls-63{fill:#de7273;}.cls-64{fill:#ea7375;}.cls-65{fill:#eb6d6f;}.cls-66{fill:#f57e80;}.cls-67{fill:#e96d6f;}.cls-68{fill:#f66d6f;}.cls-69{fill:#f68788;}.cls-70{fill:#de7a7b;}.cls-71{fill:#de7577;}.cls-72{fill:#e06e6f;}.cls-73{fill:#f68182;}.cls-74{fill:#f6797b;}.cls-75{fill:#f7787a;}.cls-76{fill:#e99496;}.cls-77{fill:#f89395;}.cls-78{fill:#e98486;}.cls-79{fill:#f68384;}.cls-80{fill:#e77c7d;}.cls-81{fill:#ea8284;}.cls-82{fill:#f79192;}.cls-83{fill:#e37c7d;}.cls-84{fill:#f67b7c;}.cls-85{fill:#f47e7f;}.cls-86{fill:#e67b7c;}.cls-87{fill:#e78182;}.cls-88{fill:#ea797a;}.cls-89{fill:#f78182;}.cls-90{fill:#f78788;}.cls-91{fill:#ea7d7e;}.cls-92{fill:#f67879;}.cls-93{fill:#f68f90;}</style></defs><g id="Слой_2" data-name="Слой 2"><g id="Слой_1-2" data-name="Слой 1"><path class="cls-1" d="M267.54,429.56c-.66,0-1.32-.05-2,0-1.05-1.26-2.93-.77-4-1.95-.66,0-1.32-.05-2-.05-1.61-1.87-4.38-.22-6-2s-4.38-.2-6-2l-1,0h-1c-1.08-1.23-3-.75-4.06-2-.65,0-1.3,0-1.95,0-1.07-1.23-3-.74-4.05-2q-1,0-1.95,0c-1.06-1.24-3-.76-4-2-.66,0-1.32,0-2,0-1.05-1.25-2.95-.75-4-2-.66,0-1.32,0-2,0-1.06-1.25-2.95-.76-4-1.95-.66,0-1.32-.05-2-.05-1.06-1.25-2.95-.75-4-1.95-.66,0-1.32-.05-2-.05-1.05-1.25-2.95-.75-4-2-.66,0-1.31-.05-2,0-1.07-1.24-3-.75-4.05-2q-1,0-1.95,0c-1.07-1.24-3-.75-4.05-2l-1,0h-1c-.62-.7-1.39-1.24-2-1.92l-3.95-.09c-1.09-1.2-3-.81-4.06-2s-2.91-.8-4-2c-.66,0-1.32-.05-2-.05-1-1.26-2.94-.77-4-2-.66,0-1.32-.05-2,0-1.05-1.26-2.95-.77-4-2-.66,0-1.31-.05-2,0-1.08-1.22-3-.82-4.05-2s-2.91-.8-4-1.95c-.66,0-1.32-.06-2-.06-1-1.27-2.94-.76-4-2-.66,0-1.31,0-2,0-1.07-1.22-2.93-.82-4-2h0c-1-1.24-2.91-.8-4-1.95-.66,0-1.32-.06-2-.06-1-1.26-2.94-.76-4-2-.66,0-1.31,0-2,0-1.07-1.22-2.94-.82-4-2s-2.91-.8-4-2c-.66,0-1.32-.05-2-.05-1-1.26-3-.76-4-2l-1,0h-1c-.63-.7-1.41-1.25-2-1.94-.66,0-1.32-.05-2-.05-1-1.26-3-.76-4-2l-1,0h-1c-.63-.7-1.41-1.25-2-1.94-.66,0-1.32-.05-2-.05-1-1.26-3-.76-4-2-.65,0-1.3-.05-2,0-.63-.7-1.41-1.25-2-1.94-.66,0-1.32-.05-2-.05-1.06-1.24-2.93-.83-4-2h0c-1-1.25-2.91-.79-4-2-.66,0-1.31-.05-2-.05-1.07-1.22-2.94-.82-4-2h0c-1.05-1.24-2.93-.79-4-2-.65,0-1.3-.05-2,0-.63-.7-1.41-1.25-2-1.94-.66,0-1.32-.05-2-.06-1.06-1.22-2.94-.81-4-2h0l-2-2h0c-1.17-1.08-.8-2.93-2-4-.67-.68-1.29-1.4-2-2.07,0-.65,0-1.29-.05-1.93-.71-.64-1.25-1.43-2-2,0-.65,0-1.31-.06-2-.67-.65-1.27-1.37-2-2h0c-1.17-1.08-.81-2.93-2-4h0c-1.15-1.09-.8-2.94-2-4h0c-1.15-1.09-.79-2.94-2-4h0c-1.13-1.1-.77-2.94-2-4s-.79-2.94-2-4h0c-1.15-1.09-.8-2.94-2-4h0c-1.17-1.1-.77-3-2-4,0-.66,0-1.31-.06-2-.69-.63-1.23-1.42-1.94-2,0-.65,0-1.3,0-1.94-1.18-1.07-.74-3-2-4s-.75-3-2-4q0-1-.06-2c-1.16-1.08-.72-2.95-2-4s-.75-3-2-4q0-1-.06-2c-1.16-1.08-.72-2.95-2-4-1.15-1.35-1-2.94-.83-4.52,6.19-3.11,6.83,3,8.71,5.79,12.52,18.72,27.09,35.51,45.35,48.8,37.82,27.53,80.41,42.48,126.72,47.45a382.36,382.36,0,0,0,81.73-.1,94.8,94.8,0,0,0,27.9-7.43c14.77-6.42,16.21-16.94,3.75-27.42-10.68-9-23.63-13.47-36.68-17.67-17.81-5.73-36.54-7.39-54.45-12.83-21.21-6.44-40.79-16.34-60.34-26.4-3.1-1.6-6.93-3.18-6-8,6.68-3.28,12.56.69,18.67,2.16,4.08,1,8,2.53,12.11,3.56,13.19,4,26.56,7.36,40,10.41,13.83,3,27.67,5.9,41.61,8.34,12.78,2.21,25.52,4.59,38.53,5.06,16.15,1.58,32.31,3.22,48.53,3.79,30,1.07,59.56-3.4,89.25-6.58,23.12-2.49,46.11-5.63,69.07-9.1,16.68,1.53,33.17-2.17,49.83-1.93a81.86,81.86,0,0,1,18.81,2.22c6.79,1.69,7.71,4.5,2.66,9.41-6.45,6.26-13.79,11.56-20.94,17-25,18.9-51.09,36.2-79.11,50.4a94,94,0,0,1-16.73,6.55c-19.5,5.57-32.39-4-32.77-24.16a68.93,68.93,0,0,1,.68-9.95c-2.14,11.83-6.63,22.88-11.19,33.9a222.71,222.71,0,0,1-16.24,32.06,287.48,287.48,0,0,1-21.27,30.21c-4.18,5.15-7.83,10.81-13.32,14.79-.7.76-1.4,1.5-2.12,2.24h-5.95c-1.59-1.91-4.36-.21-6-2l-2,0c-1.59-1.91-4.36-.21-6-2l-2,0c-1.59-1.91-4.36-.2-6-2-.66,0-1.32,0-2,0-1.6-1.89-4.37-.19-6-2-.66,0-1.32,0-2,0-1.62-1.89-4.4-.19-6-2l-1,0h-1c-1.06-1.24-2.95-.76-4-1.94l-2,0c-1.59-1.91-4.37-.2-6-2q-1,0-2,0c-1-1.26-2.93-.77-4-1.94l-2-.05c-1.59-1.91-4.37-.2-6-2-.66,0-1.32,0-2,0-1.06-1.25-2.95-.76-4-1.95-.66,0-1.33,0-2,0-1.6-1.9-4.39-.18-6-2q-1,0-1.95,0c-1.06-1.24-3-.76-4-1.95-.66,0-1.32,0-2,0-1-1.26-2.92-.77-4-1.94l-2-.05c-1.58-1.92-4.38-.19-6-2q-1,0-1.95,0C270.51,430.27,268.62,430.75,267.54,429.56Z"/><path class="cls-2" d="M163.65,279.13c.8,3.45,3.86,4.36,6.48,5.7C186.7,293.3,203.21,302,220.85,308c15.66,5.34,31.91,8.44,48.13,11.73,17.89,3.63,35.3,9.26,50.63,19.8a31.46,31.46,0,0,1,10.72,11.55c3.63,7.06,2.79,12.28-3.09,17.68-3.51,3.22-7.84,5-12.2,6.61-15.05,5.67-30.77,7.7-46.72,8.08-11,.26-22,0-33,.06-33.5.13-65.75-6.47-97.05-18.08-33.85-12.56-63.95-30.95-87.93-58.3-7.62-8.69-14.76-17.91-20.22-28.24-.53-1-.72-3-2.66-1.36-.67.88-1.33.87-2,0,0-.66,0-1.33,0-2-1.18-1.07-.67-3-2-4l0-2c-.7-.64-1.23-1.43-2-2,0-1.32,0-2.65,0-4-1.19-1.07-.69-3-2-4,0-.66,0-1.33,0-2-1.2-1.07-.7-3-2-4,0-.66,0-1.33,0-2-1.2-1.07-.7-3-2-4,0-.66,0-1.33,0-2-1.2-1.07-.7-3-2-4,0-.66,0-1.32,0-2-1.8-1.62-.07-4.42-2-6,0-.67,0-1.34,0-2-1.2-1.07-.7-3-2-4,0-.67,0-1.33,0-2-1.8-1.63-.07-4.42-2-6,0-.66,0-1.33,0-2-1.2-1.08-.71-3-2-4l0-4c-1.2-1.08-.71-3-2-4l0-4c-1.78-1.64-.06-4.42-2-6l-.09-4A1.49,1.49,0,0,1,1,189.9q.3-.78.57-.78c3.62-.2,5,2.85,6.92,4.94a156.69,156.69,0,0,0,37,29.59,563.68,563.68,0,0,0,90.46,42.23c6.88,2.39,13.73,4.85,20.45,7.62C159.21,274.69,163.05,274.88,163.65,279.13Z"/><path class="cls-3" d="M379.54,457.58c7.55-10.06,15.75-19.6,23.18-29.79A245.53,245.53,0,0,0,433.42,371a192.79,192.79,0,0,0,8.45-27.53,10.12,10.12,0,0,1,3.66-5.81c0,6.59,0,13.17,0,19.75a22.72,22.72,0,0,0,.92,7.87c4.51,12.52,13.5,17,27,13.26,11.33-3.12,21.82-8.25,31.84-14.15,21.44-12.63,42.44-26,62.33-41,9.18-6.93,17.91-14.46,28.21-22.82-16.3-3-30.73-4.57-45.52-1.74-8.86,1.7-17.94.45-26.92.61,1.69-6.18,7.6-4.86,11.78-6.47,3.61-1.38,7.55-1.81,11.26-3,19.38-6.1,38.19-13.53,55.54-24.25.7-.5,1.44-1,2.16-1.43s1.38-.93,2.08-1.36,1.38-.8,2.08-1.16,1.33-.8,2-1.21c.31-.24.63-.45.93-.69a22.4,22.4,0,0,1,1.88-1.36c.65-.45,1.32-.85,2-1.25s1.29-.95,1.93-1.46c.3-.28.62-.54.93-.82a22.89,22.89,0,0,1,2-1.71c17.83-14.47,33.36-30.92,44.47-51.21a136.71,136.71,0,0,0,12.24-33.64c.66-3.22.87-6.69,4-8.81a3.25,3.25,0,0,1,2.9-.11l0,0c.71.66,1.33,1.4,2,2.1a17.65,17.65,0,0,0,.11,1.92c.62.68,1.26,1.34,1.92,2h0c1.16,1.09.75,3,2,4,0,.68.06,1.35.1,2a2.53,2.53,0,0,1,.34,2.64c-1.51,17.71-8.55,33.41-18.06,48-17.37,26.74-40.67,48.24-63.25,70.33-4.32,4.22-7.59,6.88-.72,12,5.29,3.9,4.26,10,1.85,15.56C606,329,598.8,335,591.66,341c-29.16,24.54-62.21,43.27-94.37,63.33-16.61,10.36-34,19.37-50.5,29.91-.94,2.45-3.76,1.83-5.33,3.27a15.91,15.91,0,0,0-1.95.09c-1.09,1.16-3,.68-4,1.93l-2,.1c-1.09,1.11-2.93.68-4,1.91s-3,.78-4.08,2a15.56,15.56,0,0,0-1.93.06c-1.08,1.2-3,.71-4,1.95-.65,0-1.31,0-2,.07-1.08,1.17-3,.68-4,1.94l-2,.08c-1.08,1.13-2.93.7-4,1.93h0c-1.12,1.16-3,.79-4.09,2h-1l-1,.05c-1.09,1.21-3,.74-4.07,2a17.88,17.88,0,0,0-1.94.07c-1.1,1.19-3,.71-4.06,1.93-.65,0-1.3,0-1.94.06-1.09,1.19-3,.72-4.06,1.94-.65,0-1.29,0-1.94.06A2.79,2.79,0,0,1,379.54,457.58Z"/><path class="cls-4" d="M445.64,433.61c-1-.91-.81-1.63.31-2.28,16.93-9.81,34-19.4,50.76-29.5,24.71-14.89,49.46-29.79,72.92-46.58,11-7.87,21.92-16.08,31.27-26.06a32.43,32.43,0,0,0,5.39-7.11c5.44-10.37,4.84-13.12-4.77-19.57-4.49-3-4.23-3.1-.07-7,20.13-18.8,40-37.73,57.27-59.46,12.4-15.64,21.82-32.31,27.54-51.36,1.11-3.7-.27-8.19,3.23-11.16,1.44,1,.72,3,2,4.09q0,8.91,0,17.82c-2.38,3,.34,7-1.93,10.07a12.71,12.71,0,0,0-.06,1.95c-1.84,1.63-.22,4.35-1.91,6l-.08,2c-1.88,1.6-.2,4.37-1.95,6a11,11,0,0,0-.08,1.9c-1.19,1.11-.74,3-1.89,4.09a12.81,12.81,0,0,0-.09,2c-1.23,1.07-.76,2.95-1.93,4a12.35,12.35,0,0,0-.09,1.92c-1.19,1.1-.73,3-1.94,4.09a9.65,9.65,0,0,0-.06,1.86c-.64.69-1.19,1.45-1.86,2.12a13,13,0,0,0-.12,2c-1.23,1.07-.76,3-2,4.05a9.56,9.56,0,0,0-.08,1.85c-.63.7-1.19,1.47-1.86,2.13a16,16,0,0,0-.12,1.95c-1.19,1.1-.8,3-2,4.08v0c-1.2,1.08-.85,2.91-2,4h0c-1.23,1-.87,2.89-2,4v0c-1.26,1-.81,2.88-1.94,4a11.92,11.92,0,0,0-.11,1.89c-.65.68-1.2,1.45-1.89,2.11a12,12,0,0,0-.11,1.89c-.65.68-1.2,1.45-1.89,2.11a12,12,0,0,0-.11,1.89c-.65.68-1.2,1.46-1.89,2.11a10.73,10.73,0,0,0-.11,1.88c-.65.69-1.21,1.47-1.91,2.12a9.57,9.57,0,0,0-.1,1.85c-.61.75-1.26,1.47-1.92,2.18l0,0c-1.24,1-.87,2.88-2,4h0c-1.24,1-.86,2.91-2,4h0c-1.21,1.06-.84,2.93-2,4l0,0q-1,1-1.89,2a11,11,0,0,0-.12,1.9c-.66.68-1.22,1.46-1.91,2.11a8.75,8.75,0,0,0-.11,1.84,26.85,26.85,0,0,1-2,2.18c-1.22,1.05-.85,2.92-2,4l0,0c-.64.66-1.27,1.33-1.88,2a10.93,10.93,0,0,0-.14,1.89c-.64.72-1.27,1.45-1.94,2.15h0c-1.24,1-.86,2.91-2,4l0,0c-.66.69-1.34,1.35-2,2s-1.35,1.31-2,2h0c-.69.64-1.35,1.31-2,2h0c-.69.66-1.35,1.35-2,2l0,0c-.65.69-1.32,1.38-2,2l0,0a19.55,19.55,0,0,1-2,2l0-.05c-1,1.26-2.91.83-3.89,2.12l-.06,0c-.7.61-1.37,1.25-2,1.93s-1.35,1.33-2,2l0,0a21.29,21.29,0,0,1-2.15,2,9.9,9.9,0,0,0-1.88.18,20,20,0,0,0-1.92,1.88l0,0c-.72.61-1.36,1.3-2,1.95l0,0c-.67.68-1.33,1.37-2.06,2l0-.05c-1,1.26-2.92.86-4,2.09h0c-.7.64-1.35,1.33-2.06,2l0,0c-1,1.23-2.93.83-4,2.09h0c-.71.62-1.36,1.31-2.06,1.95l0,0c-1,1.22-2.93.82-4,2.08h0c-.72.62-1.36,1.31-2.06,1.95l0,0c-1,1.22-2.93.83-4,2.07h0c-.7.67-1.43,1.3-2.15,1.94a11.85,11.85,0,0,0-1.89.15q-1,.9-2,1.89h0a25.38,25.38,0,0,1-2.18,2,8.75,8.75,0,0,0-1.84.11c-.64.69-1.42,1.24-2.09,1.91a11.35,11.35,0,0,0-1.93.17c-.69.59-1.34,1.21-2,1.86h0a23.55,23.55,0,0,1-2.18,2,9.28,9.28,0,0,0-1.83.11c-.65.7-1.43,1.26-2.13,1.91a12,12,0,0,0-1.89.13l-2.06,1.89a12.82,12.82,0,0,0-2,.16,26.7,26.7,0,0,0-2,1.86v0c-1.08,1.17-2.94.79-4,2h0c-1.09,1.12-2.94.74-4,2h0c-.71.66-1.43,1.3-2.15,1.93a11.79,11.79,0,0,0-1.88.11c-.66.69-1.43,1.24-2.11,1.89a11.92,11.92,0,0,0-1.89.11c-.65.69-1.43,1.24-2.11,1.89a11.92,11.92,0,0,0-1.89.11c-.65.69-1.43,1.24-2.11,1.89a11.92,11.92,0,0,0-1.89.11c-.65.69-1.43,1.24-2.11,1.9a10.9,10.9,0,0,0-1.89.11c-.66.68-1.43,1.23-2.11,1.88a11.92,11.92,0,0,0-1.89.11c-.65.69-1.43,1.24-2.11,1.89a11.92,11.92,0,0,0-1.89.11c-.65.69-1.43,1.24-2.11,1.89a11.92,11.92,0,0,0-1.89.11c-.66.69-1.43,1.24-2.12,1.89a11.84,11.84,0,0,0-1.88.09c-1.06,1.16-2.94.7-3.95,2l0,0c-1.11,1.11-2.94.75-4,2s-2.94.8-4,2h0c-1.09,1.2-3,.81-4.07,2a16,16,0,0,0-1.95.13c-.66.66-1.42,1.22-2.1,1.87a12,12,0,0,0-1.89.09c-1.08,1.15-2.94.7-4,2h0c-1.11,1.15-3,.75-4,2l-2,.15c-.69.61-1.38,1.22-2.06,1.84a12.35,12.35,0,0,0-1.92.09,27.67,27.67,0,0,1-2.15,1.89h-.92l-.92.08c-1.08,1.19-2.95.76-4,2l0,0c-1.11,1.21-3,.85-4.13,2a9.73,9.73,0,0,0-1.87.09c-1.09,1.2-3,.71-4,1.95a14.42,14.42,0,0,0-2,.14l-2.1,1.85a10.72,10.72,0,0,0-1.88.08A2.67,2.67,0,0,1,445.64,433.61Z"/><path class="cls-5" d="M78.19,159.72a1.63,1.63,0,0,0,1.4-.46,5,5,0,0,1,2.85-.6c3,1.37,3.3,4.77,5.12,7,3.71,4.57,7.94,7.22,14.47,6.26,8.11-1.2,16-4,24.35-3.56,2.67,3.13,5.13,6.51,9.09,1.13a10.39,10.39,0,0,1,7.09-4.58,2.66,2.66,0,0,1,2,1.8c-2.88,13.34-11.9,22.44-21.53,31.13-14.5,5.38-28.55.61-42.75-1.74-8-1.32-15.38-6.36-24-4.11-7.87-2.2-3.45-7.78-3-12s3.29-6.19,7.74-5.62c4.94.65,9.89.9,14.86-.73-1.08-2.91-3.91-4.59-4.84-7.48a2.43,2.43,0,0,1,.61-2.58l-.11.06c1-1.32,2.92-.94,4-2.13h0A5.8,5.8,0,0,1,78.19,159.72Z"/><path class="cls-6" d="M219.41,103.56a3.56,3.56,0,0,0,.23-1.68,17.81,17.81,0,0,1,1.66-2.29,5.45,5.45,0,0,0,.3-1.88c1.1-1.18.76-3,2-4.17h0c1.21-1.06.79-2.88,1.89-4a3.78,3.78,0,0,0,.24-1.7c1-1.29.66-3.17,2-4.29l0,.06c1.08-1.16.78-3,1.95-4.09v0c1.19-1.08.83-2.93,2-4l0,0c1.11-1.2,3-.82,4.1-2a5.17,5.17,0,0,0,1.92-.14c1.13-1.09,2.94-.7,4-1.86l0,0c1.08-1.22,2.93-.9,4.07-2l-.06,0c1-1.28,2.93-.9,4-2.08h0a8.5,8.5,0,0,1,2.39-1.91,3.71,3.71,0,0,0,1.65-.31,19.72,19.72,0,0,0,1.95-1.82c.7-.65,1.35-1.36,2.1-2l-.06.06a11.53,11.53,0,0,1,2.09-2l-.07.07a8.62,8.62,0,0,1,2.09-2l-.06.06a7.38,7.38,0,0,1,2.07-2.06l-.07.06a7.48,7.48,0,0,1,2.06-2.06l-.06.06a8.62,8.62,0,0,1,2-2.09l-.07.07a10.92,10.92,0,0,1,2.05-2.08l-.06.06a18,18,0,0,1,2-2.09l0,0c.64-.69,1.33-1.33,1.93-2.06l0,0c1.29-1,.84-2.94,2.21-3.88l-.1.08a11.18,11.18,0,0,1,2-2.12l-.05,0c.6-.72,1.32-1.34,1.88-2.1l.05-.07c1.32-1,.87-2.9,2.16-3.88l-.08.08c.59-.75,1.31-1.38,1.89-2.13l0-.06c1.31-1,.88-2.89,2.13-3.9l0,.06c1.14-1.11.77-3,2.12-4l-.09.08c.53-.79,1.27-1.41,1.87-2.15l0,0c1.27-1,.87-2.9,2.07-3.94l0,0c1.17-1.1.82-3,2-4l0,0c1.15-1.1.8-3,2.06-4l0,.06c1.12-1.14.79-3,2-4.07l0,0c1.15-1.11.81-3,2-4l0,.05c1.35-1.19,2.66-1.24,3.93.11l-.1-.11c1.34,1,1,2.9,2.07,4.06l-.05-.07c2.05,4.26,8,4.92,9.21,9.94-.26,3.57-2.21,6.19-4.79,8.44-5.9-.94-9.43,1.61-12.34,6.85-4.09,7.38-8,14.92-12.83,21.88-4.34,4.59-8.67,9.16-12.71,14-4.64,5.63-9.81,11.06-18.21,10.33-.88-.11-1.25-1.79-1.95-1.22s1.16.82,1.15,1.74c.53,4.18-.34,8.66-3.42,10.86-7.05,5-13.31,10.14-15.58,19.08-.58,2.29-3.45,2.83-5.81,1.17a6.49,6.49,0,0,0-6.53-.79,3.08,3.08,0,0,1-2.59-.52A3.25,3.25,0,0,1,219.41,103.56Z"/><path class="cls-7" d="M71.23,165.39c5.59.78,5.24,8.14,12.47,8.66-10.18,3.57-18.43,4.87-28.15,1.39,1.64,6.38-4.26,10.82,0,16.08,3-1,5.26.74,7,2.6,7.65,8.1,17.58,10.12,28,10.7,6.65.36,13.08,1.94,19.62,2.94,7.42,2.69,15.72-1.06,22.94,3.1,1.36,5.17-3.36,4.88-5.88,6.58C107,222.37,87,221.92,67.39,214.32c-6.34-2.65-11.47-7.44-17.8-10.17-6.86-5-7.92-12.72-9.34-20.25,1.28-4-1.34-8.59,1.91-12.28l.84.11a8,8,0,0,0,7.13,0l3.45-.36c1.69-1.57,4.35,0,6-1.86,1.16-1.14,2.95-.87,4.16-1.89l-.11.07c1-1.36,2.91-1.07,4.16-2l-.12.1C68.68,164.42,69.9,164.4,71.23,165.39Z"/><path class="cls-8" d="M41.4,185.43c2.74,2.6,2.82,6.39,4.24,9.57s2.41,6.74,5.7,8.75c4,2.85,4.48,6.52,1.62,10.21S48.73,223,43.83,225.3c-16.26-9.39-30.72-20.89-42.21-35.89-.53-.48-.68-.9-.43-1.27s.44-.53.66-.53l5.71-.14c5.85-2.44,12.28.69,18.13-1.88l5.89-.17A12.37,12.37,0,0,1,41.4,185.43Z"/><path class="cls-9" d="M171.39,91.57a4.65,4.65,0,0,0,.25-1.7,8.23,8.23,0,0,1,2-2.3l-.05.05c.6-.74,1.31-1.39,2-2.09,1.92-2.74,4.13-5.26,6.15-7.93l-.08.05a10.53,10.53,0,0,1,2-2.07l-.06.06a11.42,11.42,0,0,1,2.06-2l0,0a9.72,9.72,0,0,1,2.07-2l-.06.07c.93-1.33,2.89-.87,3.83-2.2l.08,0a21.21,21.21,0,0,0,2-1.9h0c.71-.64,1.35-1.35,2.11-1.94l-.07.07c1-1.29,2.92-.92,4-2.09l0,0c1-1.21,2.93-.83,4-2.06h0c1.13-1.14,2.94-.83,4.09-1.93l-.07,0c3.65-.71,8.61-4.15,8.07,3.87l-.2,3.78c-1.94,2.44.06,5.72-1.73,8.19V93.6a3.65,3.65,0,0,1,0,4.29,3,3,0,0,1-2.72-.46c-4-5.26.17-12-3.14-17.34-3.87.86-6.4,3.56-8.53,6.45-7.27,9.88-16.56,17.83-25,26.53-2.7,2.76-5.32,7.13-9.46,6.28-5.14-1.06-1.82-7-3.92-10.11-.27-1.34-.39-2.64.76-3.68l-.05,0c.61-.66,1.21-1.34,1.79-2a5.52,5.52,0,0,0,.26-1.76,14.28,14.28,0,0,1,1.9-2.28h0c1.25-1,.84-3,2.13-4l-.06.07a27.71,27.71,0,0,1,1.94-2.11A22.93,22.93,0,0,0,171.39,91.57Z"/><path class="cls-10" d="M283.53,51.53A211.86,211.86,0,0,1,297.45,26.7c4.24-6.75,4.38-6.66,12.05-3.17,7.46-1.7,12.27,6.65,17.48,6.2,5-.44,9.6-7.09,15.83-8.89,4-1.16,5.32,1.15,6.73,3.89,1.28,1.45.65,3.61,1.88,5.08.1,1.26.19,2.53.29,3.8a3.91,3.91,0,0,1,.34,3.93c-2.24.13-3.49,1-4.62,3.37-2.84,6-9.23,8.57-14.05,5.48C327.7,42.74,327,47,324,49c-2.78,1.91-5.63,10.18-9.8,1,.59-3.22-.7-5.69-2.76-8.11-5.61-6.58-6.94-6.49-11.54,1.11-3.26,5.41-6.83,10.62-10.39,15.83-1.37,2-2.46,5.59-5.72,4.26-2.76-1.13-2.52-4.39-2.19-7.06A8.85,8.85,0,0,1,283.53,51.53Z"/><path class="cls-11" d="M115.86,129.64a5.21,5.21,0,0,0,1.71-.25,13.84,13.84,0,0,0,1.87-1.88l.07-.07a14.15,14.15,0,0,0,1.94-1.93l.06-.06a14.82,14.82,0,0,0,1.94-1.94l.06-.06a22.67,22.67,0,0,0,2-1.92l0,0c.7-.63,1.35-1.31,2-2l0,0c.67-.68,1.34-1.35,2-2l0,0c.66-.7,1.38-1.33,2.09-2l0,.07a1.15,1.15,0,0,1,1.88,0l-.06-.09c1.34,1,.94,3,2.06,4.11a7,7,0,0,0,.25,1.88q.85,1,1.8,2l0,0c1.22,1.06.84,2.93,2.06,4h0a12.68,12.68,0,0,1,1.92,2.28,5.5,5.5,0,0,0,.23,1.76c.59.69,1.21,1.35,1.85,2l0,0a20.57,20.57,0,0,1,2,2.09h0c1,.73,2.44,1.09,2.65,2.64-.51,2.49-2.61,3.53-4.42,4.85-.75.56-1.53,1.07-2.33,1.56a56.63,56.63,0,0,0-4.42,3.91c-12.72,12.62-28.46,11.42-37.74-2.45a1.7,1.7,0,0,1,.63-2.52,6.82,6.82,0,0,0,1.8-.34,8.39,8.39,0,0,0,1.81-1.76l.1-.09a21.3,21.3,0,0,0,2-1.89c.7-.65,1.35-1.34,2.06-2l0,0a19.75,19.75,0,0,1,2.07-2l-.05.05a12.82,12.82,0,0,1,2.07-2l0,0a9.91,9.91,0,0,1,2.06-2l0,0A7.11,7.11,0,0,1,115.86,129.64Z"/><path class="cls-12" d="M681.52,159.55c-3.26,11.26-5,23-10.13,33.69-1.69,3.53-2.81,7.35-5.51,10.34-4.34-5.72.47-12.74-2.66-18.63-.73-6.3-4.87-10.43-9.2-14.43-2.82-2.61-6.4-4.75-5.81-9.46.93-3.45.35-7.42,3.46-10.12,2.65-.39,5.31-1,7.83.52l3.83.15c1.74,1.68,4.4.22,6.16,1.82a8.72,8.72,0,0,0,2,.12c1.62,1.85,4.42.19,6,2l0,0c.75.64,1.73.93,2.49,1.56a5.9,5.9,0,0,1,1.29,1.48Z"/><path class="cls-13" d="M353.35,44l.18,3.52c1.87,2.9.58,6.12,1,9.17a4.14,4.14,0,0,1-.61,2.87c-5.36.47-2.75-3.9-3.9-6.59,1.7,17.39-12.49,24.19-21.59,34.28-8.77,4.25-17.84-1.59-26.67.78.93-10.67,7.73-17.37,15.77-23.22,15.89,4.38,17.13,3.77,24-11.7,2-4.57,3.79-9.4,9.56-10.61A2.72,2.72,0,0,1,353.35,44Z"/><path class="cls-14" d="M483.51,79.48a6,6,0,0,0,1.89.1c1.68,1.77,4.45.19,6.13,2h0c1.6,1.86,4.43.17,6,2.08l-.06,0c4.18.63,7.06,3.41,10,6.06l-.06-.08c.77.59,1.41,1.3,2.11,2a21.32,21.32,0,0,0,2,1.9l.08.06c.94,1.32,2.9.86,3.83,2.2l-.06-.08a8.36,8.36,0,0,1,2.05,2.06l-.05-.06a9.32,9.32,0,0,1,2.07,2l-.06-.06a12.17,12.17,0,0,1,2.08,2l-.06-.06a15.35,15.35,0,0,1,2.07,2l0,0c.73.62,1.39,1.32,2.08,2h0c4.18,2.41,9.23,3.54,11.91,8.15v-.09a22.78,22.78,0,0,1,2.12,1.93c1.05,1.22,2.93.85,4,2.06l0,0c1.1,1.16,2.95.82,4,2h0a2,2,0,0,1-.07,2.59c-5.22,2.94-9.55.4-13.63-2.46a191.28,191.28,0,0,1-20.06-15.9c-4.6-4.25-9.44-6.88-15.68-6.94a29,29,0,0,0-22.5-3.34c-4.37,1.11-9,1.28-13.36-1-1.3-9.15,7.53-10,11.91-14.51C477.5,76.82,480.6,77.58,483.51,79.48Z"/><path class="cls-15" d="M349.41,25.57c-2.09-1.7-3.09-3.6-7.24-2.27-6.75,2.17-10.26,7.77-16.11,11.8-3.13-7.59-10.7-8.24-16.56-11.57-.24-3.5,2.94-5.28,4.08-8.09,2-1.65,4-1.51,5.87.21V15.6a17.29,17.29,0,0,0,12.29,0,6,6,0,0,0,1.79-.06c4.38-2.61,8.43-7.58,14-2h0c1.76,1.69.2,4.44,2,6.13.09,1.32.19,2.64.28,4,.48.54.58,1,.32,1.4S349.62,25.57,349.41,25.57Z"/><path class="cls-16" d="M127.54,169.54c-9.29,1.87-18.56,3.85-27.87,5.58-5.61,1-13.89-4.49-16-10.62-.62-1.84-.41-4-2.43-5.09a1.37,1.37,0,0,1,.35-1.84l-.07.05a5.8,5.8,0,0,1,2.54-1.92,2.2,2.2,0,0,0,1.51-.53c.84-.37,1.66-.78,2.47-1.23a5.25,5.25,0,0,1,2.58-.94l1.24.67c7.5,14.89,9.93,15.52,26,9.26,7.31-2.85,13.13-8.78,21.21-9.88a3.66,3.66,0,0,1,1.48,2.39C138,161.76,135.18,167.89,127.54,169.54Z"/><path class="cls-17" d="M499.53,95.54c4.49-1.66,8.35-.7,11.69,2.7,7,7.08,15.31,12.48,22.86,18.85,4,3.4,8.48,5,13.73,4.28a2.65,2.65,0,0,1,3.72.16c1.58,1.89,4.39.21,6,2.06l0,0c1.64,1.8,4.33.24,6,1.88a5.45,5.45,0,0,0,1.93.13c7.15,2.49,14.64-.15,21.85,1.44.64,5.41-4,5.18-7,6-9.88,2.65-19.59,1.15-28.87-2.71a77.14,77.14,0,0,0-16-4.71c-9.45-5.36-17.67-12.57-27.09-18C505.21,103.71,498.74,102.28,499.53,95.54Z"/><path class="cls-18" d="M409.49,59.44l3.89.16c4,1.35,8.7.78,12.15,3.94h0c1.05,1.23,2.9.8,4,1.94a6.61,6.61,0,0,0,1.83.11c.73.59,1.44,1.19,2.14,1.8a8.49,8.49,0,0,0,1.95.19c1.11,1.18,3,.78,4.08,2.05l-.06-.06c.68.63,1.36,1.24,2.05,1.85a7,7,0,0,0,1.82.18c.78.59,1.49,1.25,2.22,1.88l0,0c1,1.29,2.91.86,3.9,2.14l-.05-.06c.77.57,1.35,1.35,2.09,2h0a1.78,1.78,0,0,1-.4,2.67c-5.4,1.63-11.19,1.27-15.36-1.83-11.79-8.74-25.66-8.24-39-10.12-11.27-1.59-11.66-2.18-4.83-11.45,2.55-.17,5.14-.86,7.55.63a8.84,8.84,0,0,0,2,.11C403.78,59.73,407.13,57.47,409.49,59.44Z"/><path class="cls-19" d="M353.32,59.48c.11-.72.22-1.44.32-2.16.71-.77,1.33-.71,1.89.17l4,0c2.8-1.71,5.88-.6,8.81-.87,2.84,1.86,4.94,4.56,9,4.76,7.35.36,8.25,3.92,3.36,9.2-3.87,3.1-7.84,6-12.74,7.36-3,.55-5.87,1.78-9,.85-3.87-1.74-3.8-5.84-5.4-9C352.57,66.4,350.48,63,353.32,59.48Z"/><path class="cls-20" d="M597.74,123.61a4.6,4.6,0,0,0,1.84-.23c1.15-1,2.92-.68,4-1.79l0,0c3-4.09,7.45-5.14,12-6h0c6.19-3.67,9.13-12.21,17.92-12l0-.07a16,16,0,0,1,2,2.07l-.06-.06a9.86,9.86,0,0,1,2,2.11l-.1-.08c1.29,1.05,1.13,2.51,1.1,3.93-5,6.39-7.5,16.57-19.5,11.72-1.65-.67-3.9,2.17-6,3.16-5.07,2.38-9.82,5.83-15.92,4.89-2.91-.74-5.91-1.29-7.94-3.83C590,121.85,595.51,126.36,597.74,123.61Z"/><path class="cls-21" d="M651.76,151.34c-.88,3.43.61,7.33-2.09,10.38-5-3-7,1.62-9.92,3.94-5.75,4.67-10.06,11.54-18.52,12-2.06-7.8,4.92-11.35,7.88-16.79,2.33-3.08,4.54-6.31,8.31-7.86,1.24-.08,2.8.9,3.5-1.05a32.12,32.12,0,0,0,1.42-3.24c2.06-3.53,1.26-9.32,7.52-9.51,1.24,2,0,4.65,1.56,6.59l.33,3.69c.58.4.77.8.58,1.21S652,151.34,651.76,151.34Z"/><path class="cls-22" d="M139.52,155.54v-2c-2.31-2.2-.67-4.36,0-6.54a15.67,15.67,0,0,1,1.08-2,19.88,19.88,0,0,1,2.87-3.41l3.89-4.14c-.47-.42-.62-.83-.46-1.24s.32-.61.48-.61a2.2,2.2,0,0,0,.32-1.52,13.21,13.21,0,0,1,1.36-2.9,7.05,7.05,0,0,0,1.58-2.92,5.77,5.77,0,0,1,1.3-2,6.83,6.83,0,0,1,2.1-1.38l1.32.13a6.08,6.08,0,0,1,3.73,3.78c1.61,5.86-.92,11.26-1.83,16.85a7.44,7.44,0,0,1-1.49,2.35C149.62,148.82,147,157.46,139.52,155.54Z"/><path class="cls-23" d="M473.5,79.67c-2.4,5.59-8.9,7-12,11.86-1.4,2.32-3.66,3.2-6.17,3.66a14.24,14.24,0,0,1-3,0c-4.06-1.4-9.32-.14-11.71-5.27,0-4.31,3.15-5.93,6.34-7.54,3.16-.91,6.46-1.11,9.67-1.78,1.76-.16,3.63.31,5.2-.93a3.25,3.25,0,0,0,1.72-.13C466.87,78.2,470.2,77.73,473.5,79.67Z"/><path class="cls-24" d="M633.49,103.63c-6.38,3.4-10.68,9.91-17.92,12,2.89-6.18,6.94-11.38,12.84-15C631.71,98.68,633.16,100.3,633.49,103.63Z"/><path class="cls-24" d="M369.51,57.63l-9.95-.15a5.23,5.23,0,0,1,4.29-1.92h31.32a5.28,5.28,0,0,1,4.31,1.88l-7.94.16C384.2,61.8,376.85,61.89,369.51,57.63Z"/><path class="cls-6" d="M211.55,97.51l1.81,0c2.14,1.57.28,4.49,2.09,6.17a4.6,4.6,0,0,0,.09,1.81,2.89,2.89,0,0,0,3.66,1.74l.43.33c1.8,1.9,1.78,4.17,1.16,6.46s-1.36,4.93-3.84,5.3c-3.23.49-4.69-2.52-5-4.92C211.06,108.86,207.13,103.22,211.55,97.51Z"/><path class="cls-24" d="M473.5,79.67l-10-.15c3-3.19,7.54-2.69,11.14-5,4.16-2.7,6.71,1.72,8.84,5Z"/><path class="cls-24" d="M347.52,13.54c-2.2-1.36-4.32-.95-6.46.24a13,13,0,0,1-7.53,1.78c.31-4,2.48-7,6.31-7.55S346.87,9,347.52,13.54Z"/><path class="cls-24" d="M319.45,15.65l-5.87-.21c-2.85-3.19-7.86-4.58-8.19-9.86C308.7,7,312,8.48,315.32,9.71A5.72,5.72,0,0,1,319.45,15.65Z"/><path class="cls-24" d="M597.74,123.61c-2,2.93-6.32.92-8.4,3.79a1.11,1.11,0,0,1-1.83.18c-7.33-1-15,2-22.08-2C576.29,126.44,587,124.29,597.74,123.61Z"/><path class="cls-24" d="M615.61,115.63a22.81,22.81,0,0,1-12,6C605.15,112.75,606.2,112.22,615.61,115.63Z"/><path class="cls-24" d="M537.42,113.69a22.2,22.2,0,0,1-11.91-8.15C536.05,105.73,536.05,105.73,537.42,113.69Z"/><path class="cls-25" d="M41.4,185.43H31.57c5.06-1.9,9.34-4.31,8.23-10.94-.24-1.39,1.11-2.27,2.36-2.86C40.25,176.14,42.1,180.85,41.4,185.43Z"/><path class="cls-24" d="M425.53,63.54a20.43,20.43,0,0,1-12.15-3.95C418.59,57.35,423,57.59,425.53,63.54Z"/><path class="cls-24" d="M507.48,89.66c-4.18-.64-7-3.6-10-6.06C504.33,82,504.33,82,507.48,89.66Z"/><path class="cls-25" d="M25.69,185.59C19.93,189,13.61,187,7.56,187.47,13.28,183.76,19.64,186.22,25.69,185.59Z"/><path class="cls-25" d="M215.62,63.5c-.64-5.57-4.94-3.49-8.07-3.87,1.79-2.68,4.58-2.49,7-1.81C218.15,58.82,218,61.08,215.62,63.5Z"/><path class="cls-24" d="M331.74,15.62c-4.1,2.67-8.2,2.89-12.29,0Z"/><path class="cls-25" d="M181.68,77.6c-.46,3.88-3.09,6.07-6.15,7.93C175.73,81.46,178.27,79.19,181.68,77.6Z"/><path class="cls-24" d="M461.81,79.65c-1.1,1.43-2.72,1.77-4.35,2.11l-.84.53-1-.08A14.65,14.65,0,0,1,453,80.93a2.45,2.45,0,0,1-1.25-1.5c-.06-.63-.12-1.26-.19-1.89C455.21,77,458.29,79.39,461.81,79.65Z"/><path class="cls-24" d="M353.35,44a12.33,12.33,0,0,0-1.62-.63c-1.87-1.83-2-3.79-.42-5.87l.39-3.9C354.84,36.66,353.13,40.49,353.35,44Z"/><path class="cls-24" d="M689.57,205.52c.36-3.41-1.17-7.19,1.93-10.07C691.06,198.84,692.87,202.67,689.57,205.52Z"/><path class="cls-24" d="M651.42,145.84q-1-3.12-2.09-6.22a3.06,3.06,0,0,1-.92-2.14,3.11,3.11,0,0,1,1.27-1.95C652.82,138.53,651.12,142.35,651.42,145.84Z"/><path class="cls-25" d="M215.45,103.72c-2-1.6-1.69-4-2.09-6.17.11-1.32.22-2.64.34-4C216.82,96.53,215.1,100.31,215.45,103.72Z"/><path class="cls-24" d="M355.53,57.49l-.95,0-.94-.19c0-3.26-.07-6.53-.11-9.79C356.87,50.31,355,54.13,355.53,57.49Z"/><path class="cls-24" d="M445.64,433.61l3.88,0c-1.55,3.64-4.62,4.15-8.06,3.92Z"/><path class="cls-24" d="M651.76,151.34a2.32,2.32,0,0,1,0-1.81c2.67.27,5.71-.89,7.75,1.93Z"/><path class="cls-25" d="M213.69,75.47c0-2.85-.83-5.88,1.73-8.18C215.29,70.11,216.46,73.21,213.69,75.47Z"/><path class="cls-24" d="M409.49,59.44c-2.79-.12-5.83.8-8-1.89C404.23,57.81,407.34,56.6,409.49,59.44Z"/><path class="cls-25" d="M219.2,107.27c-2.29,1.65-3.86,1.82-3.66-1.74,1.29-.66,2.58-1.32,3.88-2C219.34,104.79,219.27,106,219.2,107.27Z"/><path class="cls-24" d="M677.52,155.58c-2.21-.09-4.53.12-6-2C673.7,153.6,676.09,153.14,677.52,155.58Z"/><path class="cls-25" d="M11.53,233.53c2.34,1.44,1.94,3.8,2,6C11.17,238.09,11.6,235.73,11.53,233.53Z"/><path class="cls-25" d="M7.53,219.52c2.34,1.45,1.93,3.81,2,6C7.17,224.09,7.6,221.72,7.53,219.52Z"/><path class="cls-24" d="M685.57,221.52c0-2.21-.29-4.53,1.95-6C687.46,217.7,687.91,220.06,685.57,221.52Z"/><path class="cls-24" d="M497.51,83.63c-2.21-.1-4.52.09-6-2.08C493.72,81.61,496.13,81.14,497.51,83.63Z"/><path class="cls-24" d="M647.59,127.45c2.3,1.63,1.89,4,1.83,6.34a2.14,2.14,0,0,1-2.46-.22,5.9,5.9,0,0,1-1-2.53,6.35,6.35,0,0,1,.59-2.64Z"/><path class="cls-24" d="M687.6,213.5c0-2.21-.32-4.52,1.91-6C689.46,209.67,689.91,212,687.6,213.5Z"/><path class="cls-24" d="M563.5,125.44c-2.23.08-4.48.25-6-1.88C559.67,123.6,562,123.15,563.5,125.44Z"/><path class="cls-24" d="M557.52,123.59c-2.22,0-4.49.09-6-2.06C553.74,121.6,556.12,121.16,557.52,123.59Z"/><path class="cls-25" d="M1.53,195.52c2.34,1.45,1.94,3.8,2,6C1.17,200.08,1.6,197.72,1.53,195.52Z"/><path class="cls-24" d="M367.54,457.56c2.21,0,4.55-.34,6,2C371.35,459.46,369,459.9,367.54,457.56Z"/><path class="cls-25" d="M247.53,423.53c2.2.06,4.55-.32,6,2C251.33,425.46,249,425.89,247.53,423.53Z"/><path class="cls-25" d="M253.53,425.53c2.21.06,4.56-.32,6,2C257.34,427.47,255,427.89,253.53,425.53Z"/><path class="cls-24" d="M669.49,153.43c-2.25.07-4.54.27-6.15-1.82C665.57,151.6,667.94,151.11,669.49,153.43Z"/><path class="cls-24" d="M359.54,455.56c2.21,0,4.54-.34,6,2C363.35,457.46,361,457.9,359.54,455.56Z"/><path class="cls-24" d="M691.49,177.63c-1.53-.94-1.86-2.47-2-4.09,0-.66.09-1.31.14-2C691.93,173.07,691.46,175.42,691.49,177.63Z"/><path class="cls-24" d="M351.54,453.56c2.21,0,4.54-.34,6,2C355.35,455.46,353,455.9,351.54,453.56Z"/><path class="cls-24" d="M349.41,25.57c.12-.65.24-1.3.35-1.95,2.21,1.62,1.7,4,1.66,6.18C350,28.75,349.7,27.16,349.41,25.57Z"/><path class="cls-24" d="M491.53,81.56c-2.25,0-4.56.13-6.13-2C487.65,79.6,490.06,79.13,491.53,81.56Z"/><path class="cls-25" d="M50.13,171.75c-2.38,2-4.75,2-7.12,0Z"/><path class="cls-24" d="M343.54,451.55c2.2,0,4.55-.33,6,2C347.35,453.46,345,453.9,343.54,451.55Z"/><path class="cls-24" d="M335.53,449.54c2.21,0,4.56-.33,6,2C339.36,451.46,337,451.9,335.53,449.54Z"/><path class="cls-24" d="M321.54,445.55c2.2.05,4.54-.33,6,2C325.35,447.46,323,447.9,321.54,445.55Z"/><path class="cls-25" d="M307.54,441.55c2.2,0,4.54-.34,6,2C311.34,443.46,309,443.89,307.54,441.55Z"/><path class="cls-25" d="M293.53,437.54c2.21,0,4.56-.32,6,2C297.34,439.47,295,439.89,293.53,437.54Z"/><path class="cls-25" d="M273.53,431.54c2.2,0,4.55-.33,6,2C277.33,433.46,275,433.89,273.53,431.54Z"/><path class="cls-25" d="M59.53,169.53c-1.57,1.94-3.72,2.05-6,1.86C55.06,169.16,57.37,169.59,59.53,169.53Z"/><path class="cls-24" d="M349.48,19.66c-2.15-1.56-1.93-3.89-2-6.13C349.92,15,349.47,17.41,349.48,19.66Z"/><path class="cls-24" d="M303.47,1.7l-3.93-.11C300.91-.54,302.22-.56,303.47,1.7Z"/><path class="cls-24" d="M299.59,1.54c0,1.67-.46,3.14-2,4.05C297.57,3.9,297.91,2.39,299.59,1.54Z"/><path class="cls-24" d="M305.44,5.65c-1.62-.88-2-2.38-2.07-4.06C305.15,2.38,305.49,3.92,305.44,5.65Z"/><path class="cls-24" d="M297.6,5.55c-.06,1.66-.41,3.17-2,4.07C295.57,7.92,295.9,6.4,297.6,5.55Z"/><path class="cls-24" d="M295.63,9.56c-.08,1.65-.5,3.13-2.06,4C293.57,11.9,293.92,10.38,295.63,9.56Z"/><path class="cls-24" d="M293.6,13.55c-.06,1.66-.48,3.13-2,4C291.57,15.9,291.91,14.38,293.6,13.55Z"/><path class="cls-24" d="M291.58,17.54a4.25,4.25,0,0,1-2.07,3.94C289.57,19.84,289.94,18.35,291.58,17.54Z"/><path class="cls-24" d="M287.7,23.59a4.3,4.3,0,0,1-2.12,4C285.58,25.89,285.92,24.37,287.7,23.59Z"/><path class="cls-24" d="M285.62,27.55a4.21,4.21,0,0,1-2.13,3.91C283.58,29.82,284,28.33,285.62,27.55Z"/><path class="cls-24" d="M281.65,33.56a4.19,4.19,0,0,1-2.16,3.88C279.58,35.8,280,34.32,281.65,33.56Z"/><path class="cls-25" d="M275.71,41.6a4.17,4.17,0,0,1-2.21,3.88C273.58,43.81,274,42.32,275.71,41.6Z"/><path class="cls-25" d="M207.62,59.6c-.92,1.57-2.43,1.91-4.09,1.93C204.42,59.89,205.93,59.56,207.62,59.6Z"/><path class="cls-25" d="M203.53,61.53a4.32,4.32,0,0,1-4,2.06C200.37,61.93,201.86,61.57,203.53,61.53Z"/><path class="cls-25" d="M199.58,63.56a4.35,4.35,0,0,1-4,2.09C196.37,63.92,197.89,63.57,199.58,63.56Z"/><path class="cls-24" d="M429.51,65.47a4.13,4.13,0,0,1-4-1.94C427.15,63.57,428.64,63.88,429.51,65.47Z"/><path class="cls-25" d="M249.57,67.56c-.88,1.56-2.35,2-4,2.08C246.37,67.92,247.88,67.57,249.57,67.56Z"/><path class="cls-24" d="M439.51,69.62a4.59,4.59,0,0,1-4.08-2.05C437.13,67.57,438.67,67.9,439.51,69.62Z"/><path class="cls-25" d="M191.43,69.48c-.77,1.62-2.18,2.11-3.83,2.2C188.31,70,189.79,69.59,191.43,69.48Z"/><path class="cls-25" d="M245.62,69.6c-.89,1.61-2.39,2-4.07,2C242.4,69.9,243.92,69.56,245.62,69.6Z"/><path class="cls-25" d="M241.59,71.57a4.08,4.08,0,0,1-4,1.86C238.46,71.85,240,71.56,241.59,71.57Z"/><path class="cls-25" d="M235.64,73.57a5.13,5.13,0,0,1-4.1,2C232.41,73.88,234,73.55,235.64,73.57Z"/><path class="cls-24" d="M449.49,75.64a4.24,4.24,0,0,1-3.9-2.14C447.24,73.58,448.73,74,449.49,75.64Z"/><path class="cls-25" d="M231.56,75.54a4.54,4.54,0,0,1-2,4C229.56,77.89,229.91,76.39,231.56,75.54Z"/><path class="cls-25" d="M229.56,79.54c0,1.67-.36,3.18-1.95,4.09C227.56,81.93,227.89,80.42,229.56,79.54Z"/><path class="cls-25" d="M227.65,83.57a5,5,0,0,1-2,4.29C225.56,86.07,225.77,84.44,227.65,83.57Z"/><path class="cls-25" d="M225.43,89.56a4.13,4.13,0,0,1-1.89,4C223.56,91.93,223.87,90.45,225.43,89.56Z"/><path class="cls-25" d="M223.55,93.54a4.61,4.61,0,0,1-2,4.17C221.56,96,221.87,94.45,223.55,93.54Z"/><path class="cls-24" d="M515.46,95.69c-1.65-.09-3.07-.56-3.83-2.2C513.27,93.59,514.75,94,515.46,95.69Z"/><path class="cls-25" d="M167.65,95.57a4.31,4.31,0,0,1-2.13,4C165.58,97.85,165.94,96.34,167.65,95.57Z"/><path class="cls-25" d="M161.62,105.56c-.07,1.29-.13,2.58-.2,3.87l-.55.65-.85,0-.58-.63C159.56,107.83,159.94,106.33,161.62,105.56Z"/><path class="cls-24" d="M637.75,111.36l-.39-3.76c1.74.71,2.13,2.21,2.27,3.87l-1,.53Z"/><path class="cls-25" d="M157.43,113.46c.11-1.61.51-3.08,2-4l.11.08a3,3,0,0,1,.88,3.34l-.74,1-1.22.24Z"/><path class="cls-24" d="M639.63,111.47c1.49.89,1.89,2.36,2.06,3.94l-1.26.49c-1.93-1.07-2.46-2.46-1-4.3Z"/><path class="cls-25" d="M155.43,117.46a4.61,4.61,0,0,1,2-4l.1.07a3.37,3.37,0,0,1,1.15,2.12,4,4,0,0,1-1,2.23l-1.22.25Z"/><path class="cls-25" d="M135.46,119.7a4.68,4.68,0,0,1-2.06-4.11C135.18,116.41,135.5,118,135.46,119.7Z"/><path class="cls-24" d="M543.52,117.59c-1.66,0-3.12-.48-4-2.06C541.19,115.57,542.69,115.93,543.52,117.59Z"/><path class="cls-24" d="M641.69,115.41a5.05,5.05,0,0,1,2,4l-1.3.49a3.35,3.35,0,0,1-1.8-2,2.74,2.74,0,0,1,1-2.43Z"/><path class="cls-25" d="M153.44,121.47c.1-1.61.49-3.09,2-4l.1.07a3,3,0,0,1,.92,3.33,2.36,2.36,0,0,1-1.95,1.27Z"/><path class="cls-24" d="M547.53,119.56c-1.66,0-3.15-.43-4-2C545.15,117.56,546.66,117.9,547.53,119.56Z"/><path class="cls-24" d="M551.53,121.53l-3.72-.16a16.09,16.09,0,0,1-.31-1.82C549.16,119.57,550.66,119.91,551.53,121.53Z"/><path class="cls-24" d="M643.71,119.4a5.06,5.06,0,0,1,2,4l-1.3.47c-1.93-1.14-2.51-2.54-.84-4.37Z"/><path class="cls-25" d="M151.42,125.46c.12-1.61.51-3.08,2-4l.18.15c1.07,1.31,1.14,2.58-.18,3.78v0l-1,.88Z"/><path class="cls-24" d="M603.62,121.59a4.06,4.06,0,0,1-4,1.79C600.5,121.83,602,121.56,603.62,121.59Z"/><path class="cls-25" d="M139.53,127.54c-1.58-.87-2-2.34-2.06-4C139.14,124.37,139.49,125.87,139.53,127.54Z"/><path class="cls-24" d="M645.69,123.42a4.73,4.73,0,0,1,1.9,4l-.31.27c-2.86-.43-3.22-1.92-1.77-4.17Z"/><path class="cls-25" d="M151.9,127.48a5.39,5.39,0,0,0-.49,1.89l-.93.91-1-.8a4.57,4.57,0,0,1,2-4l.17.12a1.37,1.37,0,0,1,.57,1.21C152.11,127.25,152,127.48,151.9,127.48Z"/><path class="cls-25" d="M150,131.47,147.72,134c-.18-1.79,0-3.45,1.73-4.52l.21.15a1.38,1.38,0,0,1,.53,1.17C150.15,131.25,150.07,131.47,150,131.47Z"/><path class="cls-26" d="M647.67,133.25c.59.16,1.18.33,1.75.54a2.75,2.75,0,0,0,.26,1.74c-.16.65-.33,1.3-.49,1.95C645.94,137.06,646.41,135.3,647.67,133.25Z"/><path class="cls-25" d="M89.48,151.5c.84-1.55,2.31-2,3.9-2.15l.51,1.29a2.68,2.68,0,0,1-3.32,1.72Z"/><path class="cls-24" d="M679.53,157.54l-2-2c1.67,0,3.18.34,4.09,1.94l-1,.86Z"/><path class="cls-25" d="M75.56,161.55a4.61,4.61,0,0,1-4,2.13C72.35,161.94,73.86,161.57,75.56,161.55Z"/><path class="cls-25" d="M71.23,165.39l-3.61.4c.7-1.93,2.29-2.22,4.06-2.17A17.64,17.64,0,0,1,71.23,165.39Z"/><path class="cls-25" d="M67.74,165.7c-.91,1.66-2.48,2-4.16,2C64.38,165.83,66,165.57,67.74,165.7Z"/><path class="cls-24" d="M689.53,169.54c-1.58-.88-1.95-2.36-2-4C689.15,166.39,689.49,167.89,689.53,169.54Z"/><path class="cls-25" d="M63.69,167.64c-1,1.58-2.47,1.92-4.16,1.89C60.45,167.87,62,167.56,63.69,167.64Z"/><path class="cls-25" d="M1.85,187.61a10.81,10.81,0,0,0-.23,1.8l-.18,2.1C-.6,190-.48,188.68,1.85,187.61Z"/><path class="cls-25" d="M3.55,205.5c1.59.88,1.94,2.38,2,4C3.9,208.65,3.56,207.15,3.55,205.5Z"/><path class="cls-25" d="M5.55,213.5c1.59.88,2,2.37,2,4C5.9,216.65,5.56,215.15,5.55,213.5Z"/><path class="cls-24" d="M683.6,227.51c0-1.67.34-3.15,1.89-4.09C685.5,225.08,685.21,226.6,683.6,227.51Z"/><path class="cls-25" d="M9.54,227.52c1.6.87,2,2.36,2,4C9.9,230.66,9.57,229.16,9.54,227.52Z"/><path class="cls-24" d="M681.58,233.51a4.19,4.19,0,0,1,1.93-4C683.5,231.12,683.19,232.62,681.58,233.51Z"/><path class="cls-24" d="M679.55,239.52c0-1.66.39-3.15,1.94-4.09C681.5,237.11,681.18,238.63,679.55,239.52Z"/><path class="cls-25" d="M13.54,241.51c1.6.88,2,2.37,2,4C13.9,244.66,13.56,243.16,13.54,241.51Z"/><path class="cls-24" d="M675.56,249.52c0-1.65.39-3.14,2-4.05C677.5,247.13,677.18,248.64,675.56,249.52Z"/><path class="cls-25" d="M15.54,247.52c1.6.87,1.95,2.36,2,4C15.9,250.66,15.57,249.17,15.54,247.52Z"/><path class="cls-25" d="M17.54,253.52c1.6.87,1.95,2.36,2,4C17.9,256.66,17.57,255.17,17.54,253.52Z"/><path class="cls-24" d="M671.51,259.53c0-1.67.42-3.16,2-4.08C673.5,257.13,673.17,258.65,671.51,259.53Z"/><path class="cls-25" d="M19.54,259.52c1.6.87,1.95,2.36,2,4C19.9,262.65,19.57,261.16,19.54,259.52Z"/><path class="cls-24" d="M669.54,263.53c0-1.65.4-3.13,2-4C671.5,261.17,671.15,262.66,669.54,263.53Z"/><path class="cls-24" d="M667.55,267.53c0-1.64.42-3.11,2-4C669.5,265.18,669.15,266.67,667.55,267.53Z"/><path class="cls-24" d="M665.6,271.51c0-1.64.37-3.09,1.94-4C667.49,269.16,667.17,270.64,665.6,271.51Z"/><path class="cls-25" d="M23.53,271.53c1.6.87,1.95,2.35,2,4C23.9,274.65,23.57,273.17,23.53,271.53Z"/><path class="cls-25" d="M25.53,277.52l2,0,0,4C25.91,280.67,25.57,279.17,25.53,277.52Z"/><path class="cls-25" d="M27.53,281.53c1.59.87,2,2.34,2,4C27.9,284.65,27.56,283.17,27.53,281.53Z"/><path class="cls-25" d="M29.55,287.5c1.59.89,1.95,2.38,2,4C29.91,290.66,29.56,289.16,29.55,287.5Z"/><path class="cls-25" d="M31.53,291.53c1.59.87,1.95,2.34,2,4C31.9,294.65,31.56,293.16,31.53,291.53Z"/><path class="cls-24" d="M653.55,295.53c0-1.64.42-3.11,2-4C655.49,293.19,655.14,294.68,653.55,295.53Z"/><path class="cls-24" d="M651.52,299.53c0-1.65.43-3.12,2-4C653.49,297.19,653.14,298.68,651.52,299.53Z"/><path class="cls-25" d="M33.55,297.5c1.59.88,2,2.37,2,4C33.91,300.66,33.56,299.16,33.55,297.5Z"/><path class="cls-24" d="M649.48,303.52c.06-1.65.46-3.13,2-4C651.49,301.18,651.14,302.69,649.48,303.52Z"/><path class="cls-25" d="M35.53,301.53c1.6.87,2,2.35,2,4C35.91,304.66,35.57,303.17,35.53,301.53Z"/><path class="cls-25" d="M39.55,311.49c1.59.89,2,2.38,2,4C39.91,314.66,39.56,313.16,39.55,311.49Z"/><path class="cls-24" d="M641.48,317.52c.07-1.65.47-3.12,2-4C643.49,315.19,643.14,316.69,641.48,317.52Z"/><path class="cls-25" d="M41.54,315.52c1.6.87,2,2.36,2,4C41.91,318.67,41.57,317.18,41.54,315.52Z"/><path class="cls-25" d="M43.54,319.52c1.6.87,2,2.36,2,4C43.91,322.67,43.56,321.17,43.54,319.52Z"/><path class="cls-25" d="M45.53,323.53c1.6.87,2,2.35,2,4C45.91,326.67,45.57,325.18,45.53,323.53Z"/><path class="cls-24" d="M635.49,327.52c.07-1.64.46-3.11,2-4C637.49,325.2,637.13,326.69,635.49,327.52Z"/><path class="cls-25" d="M47.53,327.54c1.6.86,2,2.34,2,4C47.92,330.68,47.57,329.19,47.53,327.54Z"/><path class="cls-25" d="M49.54,331.52c1.6.87,2,2.36,2,4C49.91,334.67,49.57,333.18,49.54,331.52Z"/><path class="cls-25" d="M51.54,335.52c1.6.87,2,2.36,2,4C51.92,338.67,51.57,337.18,51.54,335.52Z"/><path class="cls-24" d="M619.6,341.56c.8-1.61,2.26-2,3.89-2.12C622.72,341.12,621.24,341.48,619.6,341.56Z"/><path class="cls-25" d="M59.53,349.53c1.61.86,2,2.35,2,4C59.92,352.68,59.57,351.18,59.53,349.53Z"/><path class="cls-24" d="M601.54,355.53c.85-1.59,2.31-2,4-2.08C604.7,355.13,603.2,355.49,601.54,355.53Z"/><path class="cls-25" d="M63.54,355.51c1.65.05,3.14.42,4,2C65.9,357.5,64.39,357.15,63.54,355.51Z"/><path class="cls-24" d="M595.56,359.55c.84-1.6,2.31-2,4-2.08C598.71,359.13,597.21,359.49,595.56,359.55Z"/><path class="cls-25" d="M73.54,359.55c1.65,0,3.13.38,4,2C75.9,361.5,74.4,361.16,73.54,359.55Z"/><path class="cls-25" d="M77.53,361.52c1.66,0,3.15.4,4,2C79.91,363.5,78.4,363.16,77.53,361.52Z"/><path class="cls-24" d="M589.56,363.55c.84-1.6,2.31-2,4-2.08C592.7,363.13,591.21,363.49,589.56,363.55Z"/><path class="cls-25" d="M83.54,363.56c1.64,0,3.12.37,4,2C85.89,365.5,84.4,365.16,83.54,363.56Z"/><path class="cls-25" d="M87.53,365.54c1.66,0,3.14.39,4,2C89.9,367.5,88.4,367.16,87.53,365.54Z"/><path class="cls-24" d="M583.55,367.54c.85-1.59,2.32-2,4-2.07C586.7,367.13,585.2,367.49,583.55,367.54Z"/><path class="cls-25" d="M97.54,369.55c1.65,0,3.14.38,4,2C99.91,371.5,98.41,371.16,97.54,369.55Z"/><path class="cls-25" d="M107.53,373.54c1.66,0,3.14.39,4,2C109.9,375.5,108.4,375.16,107.53,373.54Z"/><path class="cls-25" d="M117.53,377.54c1.66,0,3.14.39,4,2C119.9,379.5,118.4,379.16,117.53,377.54Z"/><path class="cls-25" d="M123.54,379.57c1.65,0,3.12.37,4,2C125.9,381.5,124.41,381.17,123.54,379.57Z"/><path class="cls-25" d="M127.53,381.53c1.66,0,3.15.39,4,2C129.91,383.5,128.4,383.16,127.53,381.53Z"/><path class="cls-25" d="M133.54,383.55c1.65,0,3.13.39,4,2C135.9,385.5,134.41,385.16,133.54,383.55Z"/><path class="cls-25" d="M139.54,385.58c1.65,0,3.12.36,4,1.95C141.9,387.5,140.41,387.17,139.54,385.58Z"/><path class="cls-24" d="M549.55,387.54c.86-1.59,2.33-2,4-2C552.69,387.14,551.19,387.49,549.55,387.54Z"/><path class="cls-25" d="M143.53,387.54c1.66,0,3.15.38,4,2C145.91,389.5,144.41,389.16,143.53,387.54Z"/><path class="cls-24" d="M545.56,389.55c.87-1.59,2.33-2,4-2C548.68,389.14,547.2,389.49,545.56,389.55Z"/><path class="cls-25" d="M149.54,389.55c1.65,0,3.13.39,4,2C151.9,391.5,150.41,391.16,149.54,389.55Z"/><path class="cls-25" d="M155.54,391.58c1.65,0,3.12.36,4,1.95C157.9,393.5,156.41,393.17,155.54,391.58Z"/><path class="cls-25" d="M159.53,393.53c1.66,0,3.15.39,4.05,2C161.91,395.5,160.41,395.16,159.53,393.53Z"/><path class="cls-25" d="M165.54,395.55c1.65,0,3.14.38,4,2C167.91,397.5,166.41,397.16,165.54,395.55Z"/><path class="cls-25" d="M171.54,397.56c1.65,0,3.13.38,4,2C173.91,399.5,172.41,399.16,171.54,397.56Z"/><path class="cls-25" d="M177.54,399.57c1.65,0,3.12.37,4,2C179.9,401.5,178.41,401.16,177.54,399.57Z"/><path class="cls-25" d="M181.53,401.53c1.66,0,3.16.38,4.06,2C183.92,403.5,182.41,403.16,181.53,401.53Z"/><path class="cls-25" d="M193.53,405.54c1.66,0,3.15.38,4.05,2C195.92,407.5,194.41,407.16,193.53,405.54Z"/><path class="cls-25" d="M199.53,407.54c1.66,0,3.15.38,4.05,2C201.92,409.5,200.41,409.17,199.53,407.54Z"/><path class="cls-24" d="M505.56,409.54c.86-1.57,2.31-2,4-2C508.66,409.16,507.18,409.49,505.56,409.54Z"/><path class="cls-25" d="M205.54,409.55c1.65,0,3.14.38,4,2C207.91,411.5,206.41,411.17,205.54,409.55Z"/><path class="cls-24" d="M501.53,411.53c.89-1.57,2.36-1.95,4-2C504.66,411.15,503.17,411.5,501.53,411.53Z"/><path class="cls-25" d="M211.54,411.56c1.65,0,3.14.37,4,1.95C213.91,413.5,212.41,413.17,211.54,411.56Z"/><path class="cls-24" d="M497.5,413.51c.9-1.57,2.38-1.95,4-2C500.66,413.15,499.16,413.5,497.5,413.51Z"/><path class="cls-25" d="M217.54,413.56c1.65,0,3.14.37,4,1.95C219.91,415.5,218.41,415.17,217.54,413.56Z"/><path class="cls-24" d="M493.45,415.5c.92-1.57,2.41-2,4.07-2C496.66,415.16,495.13,415.5,493.45,415.5Z"/><path class="cls-25" d="M223.54,415.55c1.65,0,3.14.38,4,2C225.91,417.5,224.41,417.17,223.54,415.55Z"/><path class="cls-25" d="M229.54,417.55c1.65,0,3.14.37,4,2C231.92,419.5,230.42,419.17,229.54,417.55Z"/><path class="cls-24" d="M483.54,419.54c.88-1.56,2.33-2,4-2C486.64,419.17,485.16,419.5,483.54,419.54Z"/><path class="cls-25" d="M235.53,419.54c1.66,0,3.15.38,4.05,2C237.92,421.5,236.41,421.17,235.53,419.54Z"/><path class="cls-24" d="M479.49,421.51c.91-1.55,2.38-1.95,4-2C482.65,421.16,481.15,421.5,479.49,421.51Z"/><path class="cls-25" d="M241.53,421.54c1.66,0,3.15.38,4.06,2C243.92,423.5,242.41,423.17,241.53,421.54Z"/><path class="cls-24" d="M465.49,427.51c.9-1.58,2.38-1.94,4-2C468.65,427.17,467.15,427.5,465.49,427.51Z"/><path class="cls-25" d="M261.54,427.57c1.65,0,3.13.36,4,1.95C263.92,429.5,262.42,429.17,261.54,427.57Z"/><path class="cls-24" d="M461.39,429.47c.95-1.55,2.46-1.94,4.13-2C464.64,429.18,463.1,429.5,461.39,429.47Z"/><path class="cls-25" d="M267.54,429.56c1.65,0,3.14.36,4,1.95C269.92,431.5,268.42,431.17,267.54,429.56Z"/><path class="cls-24" d="M455.48,431.51c.91-1.56,2.38-1.94,4-1.95C458.64,431.18,457.13,431.5,455.48,431.51Z"/><path class="cls-25" d="M281.54,433.58c1.66,0,3.13.36,4,1.94C283.91,435.5,282.42,435.17,281.54,433.58Z"/><path class="cls-25" d="M287.54,435.56c1.65,0,3.14.36,4,1.95C289.92,437.5,288.42,437.17,287.54,435.56Z"/><path class="cls-24" d="M435.5,439.52c.89-1.57,2.36-1.93,4-1.93C438.63,439.18,437.14,439.5,435.5,439.52Z"/><path class="cls-25" d="M301.54,439.56c1.65,0,3.14.37,4,1.95C303.92,441.5,302.42,441.17,301.54,439.56Z"/><path class="cls-24" d="M429.53,441.53c.87-1.57,2.33-1.93,4-1.91C432.62,441.19,431.14,441.5,429.53,441.53Z"/><path class="cls-24" d="M425.45,443.5c.92-1.58,2.42-1.95,4.08-2C428.64,443.17,427.13,443.5,425.45,443.5Z"/><path class="cls-24" d="M315.55,443.58c1.65,0,3.13.36,4,1.94C317.92,445.5,316.43,445.18,315.55,443.58Z"/><path class="cls-24" d="M419.47,445.51c.91-1.58,2.39-1.94,4-1.95C422.64,445.17,421.13,445.5,419.47,445.51Z"/><path class="cls-24" d="M413.51,447.52c.89-1.56,2.35-1.94,4-1.94C416.64,447.18,415.14,447.5,413.51,447.52Z"/><path class="cls-24" d="M329.54,447.57c1.66,0,3.14.36,4,1.94C331.93,449.5,330.43,449.18,329.54,447.57Z"/><path class="cls-24" d="M407.53,449.53c.88-1.57,2.33-1.94,4-1.93C410.63,449.18,409.15,449.5,407.53,449.53Z"/><path class="cls-24" d="M403.44,451.49c.92-1.57,2.43-1.93,4.09-2C406.64,451.17,405.12,451.5,403.44,451.49Z"/><path class="cls-24" d="M397.46,453.5c.91-1.57,2.41-1.94,4.07-2C400.64,453.17,399.13,453.5,397.46,453.5Z"/><path class="cls-24" d="M391.46,455.5c.91-1.57,2.4-1.93,4.06-1.94C394.63,455.18,393.12,455.5,391.46,455.5Z"/><path class="cls-24" d="M385.46,457.5c.91-1.57,2.4-1.93,4.06-1.94C388.63,457.18,387.12,457.5,385.46,457.5Z"/><path class="cls-24" d="M379.54,457.58l4,0c-.88,1.62-2.38,1.94-4,2C379.52,458.87,379.53,458.23,379.54,457.58Z"/><path class="cls-24" d="M561.39,381.49l2.13-1.91Z"/><path class="cls-24" d="M557.44,383.51l2.06-1.89Z"/><path class="cls-24" d="M687.53,165.53l-1.92-2Z"/><path class="cls-24" d="M553.52,385.53l2-1.86Z"/><path class="cls-24" d="M543.39,391.49l2.15-1.93Z"/><path class="cls-24" d="M539.4,393.49l2.11-1.89Z"/><path class="cls-24" d="M535.4,395.49l2.11-1.89Z"/><path class="cls-24" d="M531.4,397.49l2.11-1.89Z"/><path class="cls-24" d="M527.4,399.5l2.11-1.9Z"/><path class="cls-24" d="M523.4,401.49l2.11-1.88Z"/><path class="cls-24" d="M519.4,403.49l2.11-1.89Z"/><path class="cls-25" d="M189.54,403.59l2,1.92Z"/><path class="cls-24" d="M515.4,405.49l2.11-1.89Z"/><path class="cls-24" d="M511.39,407.49l2.12-1.89Z"/><path class="cls-25" d="M127.56,119.54l-2,2Z"/><path class="cls-24" d="M523.5,103.61l-2.07-2Z"/><path class="cls-24" d="M489.4,417.5l2.1-1.87Z"/><path class="cls-24" d="M451.53,77.54l-2.09-2Z"/><path class="cls-24" d="M475.43,423.5l2.06-1.84Z"/><path class="cls-24" d="M471.36,425.48l2.15-1.89Z"/><path class="cls-25" d="M183.64,75.58l-2,2.07Z"/><path class="cls-25" d="M125.51,121.53l-2,1.92Z"/><path class="cls-25" d="M137.51,123.59l-1.81-2Z"/><path class="cls-24" d="M451.4,433.49l2.1-1.84Z"/><path class="cls-25" d="M169.53,93.53c-.65.7-1.3,1.4-1.94,2.11Z"/><path class="cls-25" d="M165.52,99.53l-1.9,2.28Z"/><path class="cls-25" d="M185.64,73.59l-2.06,2Z"/><path class="cls-25" d="M123.45,123.51l-1.94,1.94Z"/><path class="cls-25" d="M175.53,85.53l-2,2.09Z"/><path class="cls-25" d="M163.36,103.57l-1.79,2Z"/><path class="cls-24" d="M511.55,93.43l-2-1.9Z"/><path class="cls-25" d="M171.39,91.57l-1.86,2Z"/><path class="cls-25" d="M121.45,125.51l-1.94,1.93Z"/><path class="cls-24" d="M445.54,73.47l-2.21-1.88Z"/><path class="cls-25" d="M187.66,71.61l-2.07,2Z"/><path class="cls-24" d="M525.53,105.55l-2.08-2Z"/><path class="cls-24" d="M441.5,71.41l-2.05-1.85C440.13,70.18,440.81,70.8,441.5,71.41Z"/><path class="cls-25" d="M119.44,127.51l-1.87,1.88Z"/><path class="cls-25" d="M141.44,129.81l-1.92-2.28Z"/><path class="cls-24" d="M635.49,105.63l-2-2.07Z"/><path class="cls-25" d="M221.3,99.59c-.55.76-1.11,1.52-1.66,2.29Z"/><path class="cls-24" d="M677.63,243.5l1.86-2.12Z"/><path class="cls-25" d="M193.52,67.53l-2,1.9Z"/><path class="cls-25" d="M115.86,129.64l-2.25,2A2.89,2.89,0,0,1,115.86,129.64Z"/><path class="cls-24" d="M521.49,101.63l-2.07-2Z"/><path class="cls-24" d="M433.48,67.38l-2.13-1.8Z"/><path class="cls-25" d="M251.93,65.66l-2.39,1.91A3.05,3.05,0,0,1,251.93,65.66Z"/><path class="cls-25" d="M113.65,131.61l-2.06,2Z"/><path class="cls-25" d="M143.52,133.56l-1.85-2Z"/><path class="cls-24" d="M673.62,253.5l1.86-2.13Z"/><path class="cls-25" d="M133.46,115.68c-.63,0-1.25,0-1.88,0C132.23,114.17,132.85,114.17,133.46,115.68Z"/><path class="cls-25" d="M111.64,133.59l-2.07,2Z"/><path class="cls-25" d="M145.48,135.63l-2-2.09Z"/><path class="cls-24" d="M539.53,115.53l-2.12-1.93Z"/><path class="cls-24" d="M509.53,91.53l-2.11-2Z"/><path class="cls-25" d="M195.64,65.58l-2.11,1.94Z"/><path class="cls-25" d="M21.54,267.5l2,2Z"/><path class="cls-25" d="M109.62,135.57l-2.07,2Z"/><path class="cls-25" d="M147.41,135.53a5.23,5.23,0,0,1,0,1.85l-2-1.76Q146.42,135.53,147.41,135.53Z"/><path class="cls-25" d="M255.53,63.53l-1.95,1.82Z"/><path class="cls-24" d="M663.6,275.51l1.89-2.11Z"/><path class="cls-24" d="M637.45,107.68c-.67-.7-1.35-1.4-2-2.11C636.1,106.28,636.78,107,637.45,107.68Z"/><path class="cls-24" d="M661.6,279.51l1.89-2.11Z"/><path class="cls-25" d="M257.63,61.57l-2.1,2Z"/><path class="cls-24" d="M659.6,283.51l1.9-2.11C660.86,282.1,660.23,282.81,659.6,283.51Z"/><path class="cls-25" d="M107.59,137.56l-2.06,2Z"/><path class="cls-24" d="M657.58,287.51c.64-.7,1.28-1.41,1.91-2.12C658.86,286.1,658.22,286.81,657.58,287.51Z"/><path class="cls-25" d="M259.66,59.59l-2.09,2Z"/><path class="cls-25" d="M105.53,139.53l-2,1.89Z"/><path class="cls-25" d="M261.68,57.62l-2.09,2Z"/><path class="cls-24" d="M655.56,291.54l1.92-2.18Z"/><path class="cls-25" d="M263.69,55.62a2.88,2.88,0,0,1-2.07,2.06Z"/><path class="cls-25" d="M103.41,141.51l-1.81,1.76Z"/><path class="cls-25" d="M131.63,115.58l-2.09,2Z"/><path class="cls-25" d="M265.68,53.62l-2.06,2.06Z"/><path class="cls-24" d="M647.62,305.5l1.89-2Z"/><path class="cls-24" d="M519.47,99.65l-2.07-2Z"/><path class="cls-25" d="M99.8,143.61c-.1.65-.18,1.29-.22,1.94l-1.07.5-1-.56Z"/><path class="cls-25" d="M267.66,51.59l-2,2.09Z"/><path class="cls-25" d="M37.55,307.47l1.94,2Z"/><path class="cls-24" d="M645.59,309.51l1.91-2.11Z"/><path class="cls-24" d="M643.53,313.53l2-2.18Z"/><path class="cls-24" d="M517.45,97.67l-2.05-2.06Z"/><path class="cls-25" d="M269.64,49.58l-2.05,2.08C268.28,51,269,50.27,269.64,49.58Z"/><path class="cls-24" d="M639.63,319.5l1.88-2Z"/><path class="cls-25" d="M95.41,147.43l2.06-1.94.16.16a1.93,1.93,0,0,1-.95,2.19Z"/><path class="cls-25" d="M271.58,47.55l-2,2.09Z"/><path class="cls-24" d="M637.55,323.54c.65-.72,1.3-1.43,1.94-2.15C638.85,322.11,638.2,322.82,637.55,323.54Z"/><path class="cls-25" d="M273.48,45.52c-.65.68-1.29,1.37-1.93,2.06C272.19,46.89,272.83,46.2,273.48,45.52Z"/><path class="cls-25" d="M93.38,149.35l2-1.92.11.09a1.7,1.7,0,0,1,.57,1.48c-.09.54-.2.8-.33.8a1.71,1.71,0,0,1-2.26-.32Z"/><path class="cls-24" d="M633.53,329.53l2-2Z"/><path class="cls-24" d="M631.54,331.53l2-2Z"/><path class="cls-24" d="M629.52,333.53l2-2Z"/><path class="cls-24" d="M277.61,39.56c-.66.71-1.33,1.41-2,2.12C276.28,41,277,40.27,277.61,39.56Z"/><path class="cls-24" d="M627.49,335.51l2-2Z"/><path class="cls-24" d="M625.47,337.5l2-2Z"/><path class="cls-24" d="M279.44,37.51l-1.88,2.1Z"/><path class="cls-24" d="M623.45,339.49l2-2Z"/><path class="cls-25" d="M53.54,339.51l2,2Z"/><path class="cls-24" d="M617.53,343.53l2-1.93Z"/><path class="cls-25" d="M87.37,153.4l2.11-1.9.26.24c.56.47.72.89.47,1.26s-.46.53-.68.53h0l-1.13.8C88.05,154,87.71,153.71,87.37,153.4Z"/><path class="cls-25" d="M55.55,343.48c.65.68,1.31,1.36,2,2C56.86,344.84,56.2,344.16,55.55,343.48Z"/><path class="cls-24" d="M615.49,345.51l2-2Z"/><path class="cls-24" d="M613.37,347.48l2.15-2Z"/><path class="cls-25" d="M57.56,347.46l2,2.07Z"/><path class="cls-24" d="M609.57,349.54l1.93-1.89Z"/><path class="cls-24" d="M607.5,351.52l2-1.95Z"/><path class="cls-24" d="M283.46,31.51l-1.89,2.12Z"/><path class="cls-25" d="M87.08,155.32a6.15,6.15,0,0,1-1.48-.15l1.77-1.77.14.1c.48.54.57,1,.29,1.35A1,1,0,0,1,87.08,155.32Z"/><path class="cls-24" d="M605.46,353.49l2.06-2Z"/><path class="cls-25" d="M61.54,353.51l2,2Z"/><path class="cls-24" d="M289.48,21.52l-1.87,2.15Z"/><path class="cls-24" d="M599.47,357.5l2.06-2C600.85,356.2,600.16,356.85,599.47,357.5Z"/><path class="cls-25" d="M69.54,357.57l2,1.94Z"/><path class="cls-24" d="M593.48,361.51l2.06-1.95Z"/><path class="cls-24" d="M587.48,365.51l2.06-1.95Z"/><path class="cls-25" d="M84.1,155.7l-2.54,1.92A3,3,0,0,1,84.1,155.7Z"/><path class="cls-25" d="M93.54,367.57l2,1.94Z"/><path class="cls-24" d="M581.39,369.49l2.14-1.94Z"/><path class="cls-25" d="M81.63,157.57c-.1.62-.22,1.23-.35,1.84a7.93,7.93,0,0,1-1.69-.15Z"/><path class="cls-24" d="M577.52,371.53l2-1.89Z"/><path class="cls-24" d="M683.52,159.57c-.67,0-1.34,0-2,0h0a1.29,1.29,0,0,1-.42-1.34c.15-.45.29-.67.44-.67l0,0Z"/><path class="cls-25" d="M103.54,371.57c.68.65,1.36,1.3,2,1.94C104.9,372.87,104.22,372.22,103.54,371.57Z"/><path class="cls-24" d="M575.35,373.48l2.18-2Z"/><path class="cls-25" d="M129.56,117.54c-.68.67-1.35,1.34-2,2C128.21,118.88,128.88,118.21,129.56,117.54Z"/><path class="cls-25" d="M78.19,159.72l-2.65,1.84A3.12,3.12,0,0,1,78.19,159.72Z"/><path class="cls-24" d="M571.42,375.5l2.09-1.91Z"/><path class="cls-24" d="M685.5,161.64l-2-2.1Z"/><path class="cls-25" d="M113.54,375.57c.68.65,1.36,1.3,2,1.94Z"/><path class="cls-24" d="M567.52,377.53l2-1.86Z"/><path class="cls-25" d="M173.62,87.57l-2,2.3A3,3,0,0,1,173.62,87.57Z"/><path class="cls-24" d="M565.35,379.47l2.18-2Z"/><path class="cls-27" d="M547.56,291.55c-7.45,4.5-16.59,3.84-24.18,7.92-16.05,2.37-32,5.59-48.18,6.94-37,3.1-73.62,10.65-111,8.92-16.9-.78-33.8-1.56-50.56-4.07,1.8-6.28,7.37-5.7,12-6.05a129.92,129.92,0,0,0,21.95-3.58c-8.35-2.71-15.93-2.76-22.71-5.5-3.45-1.4-9.41-1.6-6.7-8.31a5,5,0,0,1,3.74-1.65,21.6,21.6,0,0,1,5.2,1.21,24.87,24.87,0,0,1,2.39.81,41.49,41.49,0,0,0,4.64,1.57c.8.19,1.58.43,2.36.69a39.52,39.52,0,0,0,7.41,1.22,23.48,23.48,0,0,1,2.62.56c3.14,1,6.43.82,9.65,1.28a24.25,24.25,0,0,1,2.92.56c9.24.8,18.35,2.51,27.65,2.87,8.64.34,14.25-2.14,14.89-11.64a9.67,9.67,0,0,1,2-4.54c6.34-5.82,12.7-5.68,19.07-.07,10.85,16.65,28.57,13.37,44.06,13.64,12.66.23,25.66-1.39,38.36-3.62,2.89-.51,6.72-.47,7.14-4.06.47-4-3.67-3.88-6.3-4.88a42,42,0,0,1-7.23-2.74,22.81,22.81,0,0,1-4.29-2.53c-1.54-1.21-3.55-2.45-2.6-4.76.65-1.56,2.52-2,4.17-2.37,2.93-.59,6-.41,8.83-1.4,8.74-1.16,10.55-6.22,8.34-14.07-2.32-8.25-5.82-16-9-23.93-1.2-4.1-3.37-7.86-4.12-12.11,2.28-8.75,5.72-3.57,8.12-.36,6.13,8.19,11.34,17,17.66,25.12,1.22,1.56,2.47,3.11,3.65,4.68a16.14,16.14,0,0,1,1.49,2.27c.46.76.86,1.55,1.25,2.35.21.38.39.78.6,1.17.43.78.81,1.57,1.19,2.37.64,1.19,1.25,2.39,1.85,3.6C540,269.8,541.63,281.45,547.56,291.55Z"/><path class="cls-28" d="M163.65,279.13l-28.48-11.42c-1.38-7.51-6.15-10.94-13.51-11.79-9.43-1.08-12.61-5-12.78-15,4.56-3.87,4.56-3.81,15.3-3.83,1.42,0,1.78-2.09,3-2.79,5.8-3.25,10.45-9.5,18.42-7.12,1,5.6-4.22,6.89-6.92,9.85-6.14,6.73-5.49,11.27,1.15,17.5,11.44,10.74,25.39,15,40.31,17.34,8.17,2.65,11-1.06,10.72-8.8-.37-9.1,2.17-17.69,5.05-26.17,1-2.89,1-7.45,5.3-7.19,3.91.24,4.44,4.35,5.26,7.55a11.73,11.73,0,0,1,.28,3.91,5.36,5.36,0,0,1-1,2.24c-.76.65-1.89.81-2.51,1.67a3.59,3.59,0,0,0,.17,1.78,12.43,12.43,0,0,0,1.5,2.47,34.21,34.21,0,0,1,2.41,3.56c.44.66.84,1.33,1.24,2s.84,1.44,1.22,2.18a32.26,32.26,0,0,0,5,7.6c2.65,3.32,4.5,7.38,8.65,9.31,6.58,2.33,9.17-2,10.88-6.9,3.45-9.93,1.27-19.48-2.65-28.81-1-2.29-2-4.57-.37-7,12.51,2.46,21.14,12.09,23.37,26a57,57,0,0,1-1.27,10.32c-2.73,8.47-8.94,14.05-15.83,19.06-10.29,2.56-19.54-1.36-27.09-7.07-6.53-4.94-9.39-4-12.36,2.51-1,2.17-2.13,4.16-4.5,5.08Z"/><path class="cls-29" d="M319.54,287.54c-1.52,2.74-.28,4.06,2.31,5.12,6.44,2.63,13.31,3.46,20,4.67,3.61.65,6.85,1.87,11.23,3.16-7.34,6.45-15.72,6.15-23.57,6.9-5.57.53-11.13.35-15.9,3.87a166,166,0,0,1-38.39-5.59c-13.58-7.08-16.65-14.41-12.56-29.93a4.63,4.63,0,0,1,2.54-1.34c3.24,0,5.53,1.91,7.54,4,6,6.32,13.94,8,22,9.36a25.37,25.37,0,0,0,14.49.61c.81-.43,1.63-.81,2.46-1.18C314.41,286.11,317.06,285.05,319.54,287.54Z"/><path class="cls-30" d="M263.54,275.53c0,2.61.14,5.24,0,7.84-.7,10,2.6,17.27,12.93,20.12.91.25,1.8.69.7,1.68-.43.39-1.23.35-1.87.5a232.43,232.43,0,0,1-41.73-8.17c-7.57-7,.12-8.83,4-12,4-6.53,11.57-10.25,14-18,1.81-3.17,4.78-4.43,7.11-1.6C260.86,268.6,267.77,269.48,263.54,275.53Z"/><path class="cls-31" d="M237.51,285.51a29,29,0,0,1-3.45,4.43c-2.75,2.45-2.11,4.92-.53,7.56a277.06,277.06,0,0,1-39.9-10.25c1.24-6.52,5.62-11.21,9.66-16.75C212.43,280.9,224,285.47,237.51,285.51Z"/><path class="cls-32" d="M109.53,241.53a15.52,15.52,0,0,0,5.4,10.22c1.71,1.47,3.48,2.53,6.16,2.11,7.42-1.16,16.23,5.78,16.64,12.87,0,.27-1.67.65-2.56,1-14.44-3.77-27.83-10.28-41.32-16.37-17.13-7.73-34.15-15.83-50-26,1.47-4.05,3-8.27,6.33-11,4.11-3.42,2.61-6.83,1.19-10.53,6,.31,9.52,5.07,14.19,7.77.14.44.28.87.43,1.31C74.56,223.59,86.69,229.16,98.6,235,102.43,236.9,106.9,237.66,109.53,241.53Z"/><path class="cls-33" d="M665.34,183.5c3.09,6.62.85,13.38.54,20.08a145.08,145.08,0,0,1-46,52.06,8.6,8.6,0,0,0-2.37,1.87h0a10.13,10.13,0,0,1-1.91,1.61,1.69,1.69,0,0,1-1.39.62,4.33,4.33,0,0,0-2.64,1.88l.07-.05c-.67.56-1.35,1.1-2,1.61a1.69,1.69,0,0,1-1.39.56,4.48,4.48,0,0,0-2.65,1.83h0c-6.87-2.16-2.17-6.32-1-9,2.85-6.53,7.71-12.14,9.09-19.4,3-6.9,9-11.44,13.53-17.1,8.53-10.6,14.44-22.16,16.57-35.63a44.59,44.59,0,0,1,1.75-7.77c2.41-7,6.28-8.06,11.79-3.27A44.13,44.13,0,0,1,665.34,183.5Z"/><path class="cls-34" d="M615.53,237.53c.1,6.33-3.86,10.89-6.64,16.05-1.93,3.59-6.46,6.86-3.33,12-17.63,12.47-37.27,20.44-58,26-3.44-.22-5.16-2-6-5.42-2.47-9.58-5.3-19.07-8-28.59l1-.87a6.13,6.13,0,0,1,2.69-.21,11.6,11.6,0,0,1,2.51,1.08,33,33,0,0,0,16.63,5.13c3.16.19,5.78.68,7.21,3.73a2.13,2.13,0,0,0,1.75-.5c.49-.48,1-.93,1.46-1.42.24-.28.48-.53.72-.81.47-.62,1-1.19,1.43-1.8.23-.34.48-.64.71-1a19.77,19.77,0,0,1,1.62-2c8.37-5.21,15.2-13.32,26-13.9,2.46,4.37-1.62,6.39-3.1,9.06C600.26,247.5,605.38,239.27,615.53,237.53Z"/><path class="cls-34" d="M617.52,257.51l2.37-1.87Z"/><path class="cls-34" d="M615.6,259.13l1.91-1.61A2.06,2.06,0,0,1,615.6,259.13Z"/><path class="cls-34" d="M611.57,261.63a3,3,0,0,1,2.64-1.88Z"/><path class="cls-34" d="M609.59,263.19c.68-.54,1.36-1.08,2-1.61A2.16,2.16,0,0,1,609.59,263.19Z"/><path class="cls-34" d="M605.55,265.58a3,3,0,0,1,2.65-1.83A3.43,3.43,0,0,1,605.55,265.58Z"/><path class="cls-35" d="M109.53,209.53l-26.38-2.45c-11.53-1.05-19.71-8-27.6-15.56.78-5.05,4.19-4.29,7.45-3.16a189.23,189.23,0,0,0,35.31,8.34c8.39,1.21,17,2.4,25.21-1.17,5-3.75,10.4-6.91,15.73-10.18,9.13-5.59,17.31-12.45,13.77-25.63-1-3.88-.77-8.63,2.5-12.19v0c1.74-1.08,3.81-1.61,5.26-3.18a18.59,18.59,0,0,1,2.06-1.72c3.32-2.34,7.22-3.4,10.84-5.08,11.45-5.33,21.56-11.9,24.82-25.38.75-3.1,2.26-7.42,6.29-6.36,3.81,1,3.15,5.44,2.73,8.65-.61,4.67-1.68,9.48,1.07,13.58,1.6,2.39-.79,9.61,7.1,6.14,1.9-.84,5.06,4.56,6.43,8.05-.27,1.34-.73,2.82-2,3.22-15.75,4.85-30.74,12.85-47.63,12.92-6.25,0-8.08,2.12-8.4,7.85-1,18.52-15,29.43-25.52,42.33-2.33,2.88-6.14,2.12-9.39,1.92C122.62,210.06,116,211.68,109.53,209.53Z"/><path class="cls-36" d="M155.52,147.53c.63,5.71-1.66,11.66,1.68,17.22.64,1.06-.13,3.26-.75,4.72-3.93,9.15-9.7,16.82-19.59,19.81-4.85,1.47-8.18,5.74-13.34,6.25,5.63-6.83,11.52-13.45,16.13-21.07,1.71-2.83,3.64-5.49,3.88-8.93-4.46,2.43-7.23,6.73-11,9.93-1.57,1.33-3.37,2.63-5.31,1.37-2.34-1.54-.15-3.53,0-5.33.07-.65.18-1.31.27-2,4.64-4.11,8.12-9.22,12-14,3.93-1.82,7.72-3.76,10-7.74C151.31,144.69,153.49,146.85,155.52,147.53Z"/><path class="cls-37" d="M211.55,97.51c-.19,7,2.47,13.32,3.49,20.2,3.53-.38,2.72-3,3.44-4.4.85-1.67.81-3.79,1.15-5.71,5.08-5.86,5.08-5.86,11.35.56,2.71-1.14,2.23-3.7,2.73-5.89,1.29-5.64,3.07-10.34,9.95-12.09s7.23-8.65,7.86-14.64l0,0c9,.45,14.77-4.92,19.58-11.4,3.58-4.82,7.43-9.22,12.41-12.59v12c6.12-9.94,12.46-17.28,16.4-26.3,2.39-5.46,4.4-5.67,8.66-1.64a99.38,99.38,0,0,1,7.62,7.88c1.7,2,1.77,4.25-.67,6-4.6,1.11-7.48-6.37-11.39-3.41a30,30,0,0,0-9.9,13.32,24.54,24.54,0,0,1-9.56,12.22,48.84,48.84,0,0,0-7.49,6.58c-4.93,5.22-10.53,6.68-17.58,3.12,1,3.35,3.57,5.8,3.51,9.14-1.77,8.46-9.61,10.24-15.69,13.39-5.3,2.74-9.5,5.13-9.83,11.83-.19,3.81-2.26,6.87-6.86,6.73-4.31-1.77-5.67,2.22-8.06,4.18-6,4.88-8.79,4.29-11.9-2.91-2-4.57-3.42-9.32-3.27-14.44s-.75-9.92-4.57-13.75c-.52-7,2.54-12.67,6.58-18,2.22-.83,1.95.9,2,2C211.56,85.56,211.54,91.53,211.55,97.51Z"/><path class="cls-37" d="M251.52,75.54c-.27-.16-.8-.37-.78-.46.14-.67.46-.51.8.44Z"/><path class="cls-38" d="M109.53,209.53c5.65,0,11.36-.5,16.94.13,6.94.78,11.43-2.54,15.24-7.46,4.65-6,9-12.28,13.68-18.26a29.26,29.26,0,0,0,6.28-20.34c-.39-8.55.61-9.09,8.83-7.67a29.47,29.47,0,0,0,12.7-.87c12.57-3.46,24.9-7.8,37.3-11.88.47-.15.69-1.08,1-1.65a5.4,5.4,0,0,1-1.23-5.62c3.57-6.41,8-7.13,13.25-1.93a12.65,12.65,0,0,1,1.82,2.24c3.33,6.43,3.44,13.59,3.64,20.47.29,10-4.93,13.08-14.48,9.62-.68,1.86.45,4-1,5.77a5.49,5.49,0,0,1-5.41.54c-3.07-2.05-3.57-5.46-4.28-8.62-2-8.87-4.94-5.84-8.13-.75-.32.85-.69,1.67-1,2.51-.94,6.41-1.28,12.79.59,19.11a116.3,116.3,0,0,0,22,38.12c2.15,2.48,4.53,4.86,4.24,8.55l2,6c3.36,10.09,1.9,20.1-1,29.91-1.5,5.09-4.13,9.81-11,8.12-4.35-2-6.1-6.07-8-10-2.41-3.08-3.42-7-6-10l0,0c-.64-.67-1.3-1.33-2-2l-2-4c-.65-.67-1.3-1.33-2-2,0-.67,0-1.35,0-2-.72-2.05.08-2.58,2-2h0c7.51,1.55,11.73,8.07,18.78,13.53-1.59-11.52-6.28-19.9-10.44-28.41-1.9-3.86-4.18-7.54-6-11.46-7.47-16-26.58-17.62-36.44-2.87-5.17,7.73-10,15.67-16.64,22.18,0,2.59,2.18,2.21,3.52,2.75,4.11,1.67,8.85,3.48,7.68,8.79s-6.55,1.66-10.08,2.81c7.3,8.19,16.68,11,26.72,12.47,3.54.51,6.83,1.95,6,6.28-.68,3.64-2.92,6-7.15,3.93-14.12-1.23-27.57-4.12-38-14.9a20.77,20.77,0,0,0-4-2.87c-7.07-4.4-8.09-11.82-3-18.34,3.12-4,8.53-5.28,11-9.91.69-3.93,3.79-6.15,6.33-8.69,10.9-10.9,18-23.71,20-39.14a15.86,15.86,0,0,0-1.6-13.71c-6.08,13.84-11.48,27.34-21.38,38.13-4,4.35-7.65,10.34-15.35,7.42H115.8C113.5,211.53,111.15,211.68,109.53,209.53Z"/><path class="cls-39" d="M133.54,211.53c12.26-2.34,16.88-12.94,22.64-21.82a90.17,90.17,0,0,0,10.15-21.36c.94-2.92,2-6.21,6.21-8.48,0,7,5.91,12.8,1,19.66-.21-.25-.64-.54-.61-.75.16-1-.48-1.33-.57-.79-2.3,14.65-10.53,26.35-19.13,37.71-4.83,6.38-10.53,12.29-19.94,10.76-3.71-2.7-8.37-4.9-5.75-10.93C128.71,213,132.36,214.1,133.54,211.53Z"/><path class="cls-40" d="M127.53,215.53c-.21,4.66,4.59,6.31,6,10-13.54,7.1-27.27,11.63-42.27,4-9.43-4.8-20.6-7.05-25.74-18l0,0c14.72,5.32,29.93,6.58,45.49,6.17C116.68,217.54,121.86,214.78,127.53,215.53Z"/><path class="cls-41" d="M209.53,77.54c-.13,6.62-4.18,11.93-6,18,1,4-2.18,5.17-4.67,6.45-14.14,7.26-23.42,19-30.28,32.86-1.91,3.9-4.56,7.22-7.06,10.69h0c-5.23-.3-3.7-4.12-3.51-7,.25-3.69,1.64-7.39-.47-11l-4.11-2.12.18-3.78,1.63-.22c1.61-.85,1.06-2.87,2.14-4v0c1.49-1,.91-2.91,2-4v0c1.48-.93.9-2.91,2-4h0c1.24.11,3.61-2.07,3.39,1-.18,2.48-2.17,4.83-.5,7.52,2.79.18,3.94-2.14,5.41-3.69,9.47-10,20.32-18.78,28.44-30.15C200.77,80.48,204,76.73,209.53,77.54Z"/><path class="cls-42" d="M283.53,69.54c4.33-2.73,6.56-6.48,8.61-11.41,2.67-6.43,8.1-11.72,12.57-17.81l10.83,9.21c.22,1.63.5,3.78,2.71,2a27.27,27.27,0,0,0,7.24-7.91c1.1-2,2.14-4.08,4.92-4.6,2,1.88.71,7.37,5.53,6.23,3.83-.91,8.72-.48,10-6.14.65-2.85,2.07-6.05,5.35-1.62q.19,2.94.41,5.87c-4.25,2-6.23,5.78-7.89,9.84-1.25,3.06-2.32,6.21-3.79,9.15-4.42,8.81-14.42,10.16-22.52,3.16-1.4-2.94-3-2.88-4.8-.33-3.91,5.56-8.78,10.25-13.61,15a14.2,14.2,0,0,1-2.25,1.76,7.9,7.9,0,0,1-2.72.88C287.12,81.19,283.9,76.51,283.53,69.54Z"/><path class="cls-43" d="M95.28,149.32q.1-.9.24-1.8l2.1-1.87,2-.1a6.53,6.53,0,0,1,4.43,1.78c9.72,10,19,10.42,29.44,1.26,2.69-2.36,4.71-5.48,8.1-7a2.73,2.73,0,0,1,0,4h0c-4.37,7.82-11.47,12.49-19.22,16.25C107.59,168.92,100.56,165.61,95.28,149.32Z"/><path class="cls-44" d="M141.53,145.53c0-1.32,0-2.65,0-4,.65,0,1.3-.05,1.95,0C143.51,143.18,143.15,144.66,141.53,145.53Z"/><path class="cls-45" d="M615.53,237.53c-8.66,7.08-18.59,12.74-24.39,23.1-.49-6.58,4.94-9.91,6.36-15.15.57-8.32,7.89-11.21,12.82-16a83.68,83.68,0,0,0,27.59-36.38c-3,.77-5.7,4.47-8.36,1.83-3.18-3.15,2.26-6.39.92-10.45-8.35,5.26-15.22,12-22.92,17.61a71.42,71.42,0,0,1-19.28,10.21c-3.74,1.25-9.07,2.23-5.9-5.25,10.73-8.65,22.71-15.8,31.81-26.43,2.19-1.62,3.94-4.34,7.34-3.08,6.66-4.81,13.32-9.61,18.87-15.77a20.73,20.73,0,0,1,4.51-3.8c4.75-2.87,4.57.76,4.77,3.79.21,3.63,3.57,4.47,5.69,6.41,4.65,4.26,9.44,8.44,10,15.37-4.07-2.38-6.68-6.38-10.23-9.32-3.94-3.27-6.34-2.42-7.44,2.72-.89,4.17-1.24,8.46-2.23,12.6-2.57,10.71-6.92,20.61-14,29.15C626.14,225,620.82,231.24,615.53,237.53Z"/><path class="cls-3" d="M681.53,157.53l0,2-2-2Z"/><path class="cls-46" d="M217.54,171.53h6c11.77,5.34,12.47,5.08,16.76-6.93,3.5-9.81,9.05-19.13,4.1-30.39-1.94-4.42,2.51-7.1,6.23-8.74,6.06-2.68,11.82-5.9,17.62-9.06a36.63,36.63,0,0,0,15-15.41c4.2-2.63,8.21-5.4,11.14-9.61,1.61-2.32,3.46-5.06,7.18-3.86,2.81,0,5.06-1.56,7.44-2.71s4.74-1.9,6.51,0c4,4.33,8,1.12,12.07.68,2.66,3.82-.39,6.15-2.39,8.6a21.18,21.18,0,0,1-7.81,6.1C305,105.63,300,114.88,302,128.14c.81,5.34-2.06,10.4-1.47,15.78.23,2.15,1.2,5.13-2.22,5.52-2.66.3-3.94-2.11-4.93-4.25-2.92-6.34-4-13.19-5.29-18.29,1.47,16.4,8.67,31.11,25,40.74.9-2-1-2.8-1.81-3.78-6.91-8-13.11-16.36-9.62-27.73,4.84-15.77,13.5-28.79,28.65-36.58a2.82,2.82,0,0,1,4.13,1.42c-.4,1.27.43-.26-.07,1a5.62,5.62,0,0,1-.94,1.66,9.72,9.72,0,0,0,1-1.23c6-8.63,12.19-16.91,24.2-16.94a8.72,8.72,0,0,1,3.36,5.91c1.33,9.34,4.73,15.82,16,13a4.69,4.69,0,0,1,5.57,3.21c.91,2.58-.69,4.51-2.49,6-5.16,4.3-11.64,6.29-17.3,9.71-7.89,4.78-8.19,7-1.29,13.2,14.06,12.65,18.25,30.34,24.25,47.1a4.66,4.66,0,0,1-1.17,4.62c-13.9,2.19-26.55-3.73-39.69-6.33-7.13-1.41-13.76-4.8-20.72-6.83-4.53,5.19,2.33,6.08,3.5,9.09,1.48,3.76,8.65,4.2,6.19,10.42-1.79,1-3.91,1.75-5.76,1.26-13.47-3.59-22.09,3.69-30.15,12.82-3.28,3.72-6.66,7.6-11.23,9.8s-9.2,3.4-10.42-3.9c.15-7.47,1.72-14.8,2.28-22.22,4-16.82.7-31.47-13.62-43,2.24,19.36,10.44,37.91,8.28,57.81-1.56,11.57-2.46,24.65-15.5,28.68-11.53,3.56-17.94-7.43-25.42-14a29.25,29.25,0,0,1-7.49-10.4,128.59,128.59,0,0,1-8.88-29.47C216.25,178.42,214.58,174.82,217.54,171.53Z"/><path class="cls-47" d="M357.52,85.53c-9.56,3.92-16.08,11.88-24,18-.2-1.76-.53-3.56-2.88-2-8.13,5.33-15.41,11.58-20.16,20.22-2.86,5.2-5.17,10.71-7.86,16-1.51,3-1.1,5.71.31,8.56,2.94,6,5.47,12.13,10.82,16.52a26.41,26.41,0,0,1,4.11,4.34c1.23,1.6.36,3.24-.74,4.48s-2.57.51-3.59-.21c-4-2.87-8.29-5.55-11.89-8.92-9.88-9.24-14.26-21.21-15.95-34.34-.4-3.1,1.38-5.67,2.86-9.88A160.91,160.91,0,0,0,296.84,148c3.87-.65,2.59-3.18,2.62-4.81.14-8.31.44-16.65,0-24.93-.41-6.9,2.4-11.4,8.08-14.68,3.15-1.82,6.27-3.73,9.32-5.71,4.73-3.07,9.58-6.08,10.73-12.29,3.16-1.11,3.57-4.64,5.72-6.53,8.53-7.49,16-15.55,16.32-29.07,3,3.85.75,7.59,3.74,9.54q1.14,5.06,2.27,10.09C355.73,75,359.83,79.85,357.52,85.53Z"/><path class="cls-48" d="M301.52,87.53c-3.19,1.5-4.83,4.34-6.72,7.13-2.63,3.9-5.73,7.52-11.27,6.87-6.5,3.17-10-2.64-14.65-4.92a7.89,7.89,0,0,1-2.49-3.79c.31-7.45,5.35-9.46,11.54-9.48,5.95,0,11.82-.27,17.58-1.8l0,0c.67-.65,1.33-1.31,2-2,4.53-6.39,10.82-11.29,15.11-17.92,1.13-1.73,3.15-4.5,5.44-3,3.06,2,.18,4.62-.53,6.94Z"/><path class="cls-49" d="M455.54,93.56c1.92-.84,3.68-2.14,5.93-2,6.28-.16,12.49.18,18.76-1.61,7.25-2.07,13.69.9,19.3,5.62,2.06,4.6,6.72,6.6,10,10-3.44,2.93-6.91,1-10.35,0-9.68-2.82-19.37-4.23-29.49-2.08-5.92,1.25-12.06,1.34-16.13-4.7a5.25,5.25,0,0,1-.54-3.19A9.24,9.24,0,0,1,455.54,93.56Z"/><path class="cls-44" d="M95.28,149.32c2.34,2.75,4.78,5.43,7,8.26,5.18,6.53,8.58,7.63,15.94,4.5a56.08,56.08,0,0,0,16.53-10.78c2.16-2,3.92-4.53,6.76-5.77l-2,8a108.36,108.36,0,0,1-27.89,14.29c-12,3.92-16.73,1.38-20.13-11a5.75,5.75,0,0,0-2-3.26,17.83,17.83,0,0,1,.21-1.79,4.87,4.87,0,0,0,3.76-2.26C94.09,149.45,94.69,149.4,95.28,149.32Z"/><path class="cls-44" d="M87.08,155.32c.17-.6.31-1.2.43-1.81l2,0A2.83,2.83,0,0,1,87.08,155.32Z"/><path class="cls-50" d="M453.5,95.54c3,6.49,8.88,7.19,14.4,5.71,13.22-3.52,25.48-1,37.67,3.93,1.17.47,2.62.26,3.94.37,5.92,4.59,13,7.35,18.75,12.29,2,1.73,4.13,3.22,5.28,5.69a1.94,1.94,0,0,1-.34,2.77c-4.93,2.66-9.62,1.74-14.1-1.08C504.46,116,488.77,112,471.64,116c-9.79,2.27-17.37-2.61-25.16-7-2.08-1.18-4-3.12-3-5.65C445.19,98.88,447.71,95,453.5,95.54Z"/><path class="cls-51" d="M533.51,125.53l0-2c6.42-.61,12.12,1.22,18,3.81,11.74,5.16,23.92,6.58,35.94.24a6.26,6.26,0,0,1,1.83-.18,15.77,15.77,0,0,1,8.21,2.14c-3.1,8.23-11.42,9.48-17.8,13.34a13.45,13.45,0,0,1-4.31.69c-3.81-.26-7.42-1.52-11.12-2.33-1.35-.34-2.69-.71-4.06-1a65.17,65.17,0,0,1-6.94-1.28C545.79,135.86,537,134.55,533.51,125.53Z"/><path class="cls-52" d="M455.56,81.49a7.58,7.58,0,0,1,1.9.27c-2.87,3-6.6,1.31-9.93,1.78-8.29,5.06-15,5-22.8-2.63-7.05-6.87-17.9-6-27.53-6.59-6.23-.34-12.8.55-17.68-4.79l2.85-5.18c-3.69-1.4-7-.71-10.16-.81-5.09-.17-4.2-2.85-2.7-5.91l22,0c2.61,3.45-1.77,4.22-2.76,7.17,7.82.94,15.42,2.23,23.08,2.65,7.45.41,14.25,1.48,20.28,6.56,5.5,4.64,12.88,4.18,19.58,5.45a8.85,8.85,0,0,1,1.84.38Q454.6,80.61,455.56,81.49Z"/><path class="cls-53" d="M533.51,125.53c5.67,5.65,13.16,8.27,20,12-4.25,3.79-8.79,1.43-13.19.52-9-1.87-17.72-5.44-27.1-5.65-12.45-3.18-24.9-.43-37.32.1a45.18,45.18,0,0,1-17.8.2c-4.93-.87-9.82-.54-8.74,6.83a26.41,26.41,0,0,1,.5,2.91c1.1,8.55-2.12,16.22-5.09,23.88-1.81,4.7-3.36,9.29-1.71,14.33a22.87,22.87,0,0,1,.71,5.88,16.14,16.14,0,0,1-.63,4.26c-.55,1.8-1.17,3.57-1.72,5.38a18.8,18.8,0,0,1-1,2.7c-1.86,3.59-4.15,6.78-7.92,8.63a17.4,17.4,0,0,1-6.71,1.69c-2.89,0-5.44-.87-6.22-3.86-.71-2.73,1.33-4.56,3.49-5.33,9.57-3.4,9.78-11.06,10-19.44.35-14.51,2.35-28.82-3.27-43.14-2.84-7.21-5.46-8.4-12.28-6-4.81,1.72-10.56,7.8-15.33-.49,4.18-13.74,16.58-17.38,27.84-22.85-3.74-.15-7.39-.3-11,.58-3.85.94-7,3.79-11,4.43-14.15.38-24.44,8.45-34.64,17-4.11,3.44-1.31,5.75.35,8.38A229.18,229.18,0,0,1,393,177.6c1.92,4.92,4,9.93,1.7,15.37a4.49,4.49,0,0,1-2.28,1.72l-1.48.12c-.49-.09-1-.2-1.46-.3a9.2,9.2,0,0,1-2.46-1.64c-1.27-1.55-2.5-3.12-1.47-5.31-4.35-13.52-8.89-27-16.18-39.28a36.86,36.86,0,0,0-11.55-12c-6-4-5.55-8,.29-12.39,5.09-3.8,11.09-5.91,16.61-8.92,2.31-1.26,4.93-2.12,6.57-4.34a3.81,3.81,0,0,0,.86-2.6,2.42,2.42,0,0,0-3-1.85,32.61,32.61,0,0,1-9.77,1.39c-4.7,0-7.39-1.65-7.85-6.79a48.16,48.16,0,0,0-3.94-15.25,41.11,41.11,0,0,1-1.93-16c3.16,1.75.74,6.26,4,8C361,78.8,361.7,80.69,363.1,82a22.92,22.92,0,0,0,2.15,1.23c15.59,7.59,33.18,9.19,48.86,16.59,5.43,2.56,10.15-1.32,14.57-4.29.67-.64,1.37-1.23,2.08-1.83s1.38-1.26,2.1-1.86c2.64-1.68,4.83-5.09,8.67-2.36,3.23,3.64,8.63.92,12,4.09a1.2,1.2,0,0,1,.42,1.28c-.15.42-.29.63-.44.63l0,0c-3.9,2.1-6.39,5.58-9.82,9.26,11.08,6,20.57,11.3,33.81,7.63a37,37,0,0,1,27.78,3.39c5.37,3,11.78,3.75,16.63,8.38C524.89,127.07,529.59,125.17,533.51,125.53Z"/><path class="cls-54" d="M441.53,89.5c-3.46-.22-5.24,2.87-8,4-.65.68-1.38,1.27-2,2h0c-.84.54-2.27,1.27-2.68.57C421.72,84,409.3,85.64,398.19,84.49c-12.16-1.25-24.48,1.32-36.65-1h0c-1.11-5,3.76-5.51,6-8,4.79-.41,7.58-4.81,12-6,11.2,3.39,23.07.62,34.32,3.88,6.5,1.88,13.86,1.45,17,9.67,1.21,3.19,5.08,2.68,8,2.2s5.6-2.12,8.69-1.74C446,86,442.4,86.38,441.53,89.5Z"/><path class="cls-55" d="M367.54,75.54q-3,4-6,8c-2.36-1.43-1.93-3.78-2-6Z"/><path class="cls-56" d="M579.56,141.49l18-12c9.64-.32,16.33-7.7,24.58-10.95,1.59,2.15-.6,3.55.54,6.06,5.15-4.54,10.89-8,15.08-13.29q.86.15,1.71.24a4.58,4.58,0,0,0,2.11,3.9l-.12,2.09c-1.14,2.85,1.56,4.84,1.65,7.43.1,3-1.07,6.22-4.08,5.32-7.21-2.16-10.88,3.06-15.64,6.16-6.06,3.94-11.75,8.55-19.11,10a12.71,12.71,0,0,1-2.95.2C593.92,145.61,586,146.7,579.56,141.49Z"/><path class="cls-57" d="M621.52,177.5l-5.95,4.05c-7.76,6.5-16.7,10.35-26.51,12.82-10,2.53-16.16,9.61-19.61,19.19-4.86,13.51-12.19,25.69-20.89,37-2.65,3.44-5.33,7.91-11,7l-2,0a7.15,7.15,0,0,0-1.93-1.24l-.82-.81a8.38,8.38,0,0,0-1.23-1.94l0,0c-.65-.66-1.3-1.32-2-2,0-.67-.05-1.33-.06-2A1.46,1.46,0,0,1,529,248q.27-.78.54-.78c2.15-.56,7.2,1.73,3.91-4.11-2.13-3.76-4.66-7.26-6.9-10.94-3.73-6.13-4.75-12.8-1.17-19,8-13.72,19.12-24.86,31.26-35,24.51,4.7,46.85,0,66.86-15.2,2.28-1.73,4.86-3.89,8.06-1.46C628.28,166.91,622.77,170.87,621.52,177.5Z"/><path class="cls-58" d="M631.52,161.53c-2.53,0-4.28,1.41-6,3-12.13,11.06-27.44,15.59-42.84,18.38-8.71,1.58-18.26-.6-27.11-3.39-1.22-7.56,4.32-10.22,9.52-13.16a11.05,11.05,0,0,1,3-.67c18.82,3.41,35.25-3,51-12.37,3.69-2.19,7-5.3,11.48-5.67,4.28-.35,9-.62,9,5.87A20.78,20.78,0,0,0,631.52,161.53Z"/><path class="cls-59" d="M639.52,153.53c-5.46-4.8-7.61-5.35-12.78-2.05s-10.48,7-16.23,9.58c-14.37,6.52-29,11.23-45,6.47,11.6-9.17,19.93-24,38-22h0c4.43-1.72,9-1.69,13.58-1,5.7.87,10.87-1.59,16.21-2.55,7.24-1.29,9.48-6.86,14-10.36a2.58,2.58,0,0,1,.32,1.61c-.19,1.66,0,3.17,1.52,4.23,0,.71.09,1.42.14,2.14-3.78,3.07-3.42,8.17-5.83,11.91l-2,2C640.88,154.88,640.21,154.91,639.52,153.53Z"/><path class="cls-58" d="M641.54,153.51l2-2Z"/><path class="cls-60" d="M157.55,127.52c3.73.4,1.57,3.24,1.91,4.94.88,4.31-1.65,9.17,2.07,13.06-.47,5.28-3.41,3.1-6,2C154.61,140.69,158.45,134.34,157.55,127.52Z"/><path class="cls-41" d="M151.9,127.48a8.11,8.11,0,0,1-.31-1.9,14.27,14.27,0,0,1,1.85-.15C152.93,126.11,152.41,126.79,151.9,127.48Z"/><path class="cls-41" d="M150,131.47a7.62,7.62,0,0,1-.31-1.83c.58-.1,1.16-.19,1.75-.27Z"/><path class="cls-50" d="M453.53,95.5c0-.64,0-1.27,0-1.91.66,0,1.32,0,2,0Z"/><path class="cls-18" d="M455.56,81.49l-2-1.68Z"/><path class="cls-26" d="M647.35,131.64c-3.48,4.86-1,11.9-6.14,16.42-3.13-1.41-.61-4.9-2.44-6.75-.54,0-1.43-.25-1.67,0-6.2,7.7-14.48,7.16-22.74,5.32a56.91,56.91,0,0,0-10.83-1.14c9.18-5,18.41-9.85,26.16-17.06,2.16-2,2.36-1.81,10.61-.05,3.81-3.27-2.65-7.55,1.15-10.83l2.1,1.93a4.6,4.6,0,0,0,2,4,4.62,4.62,0,0,0,1.77,4.16C647.3,129,647.32,130.33,647.35,131.64Z"/><path class="cls-9" d="M161.43,109.43c.09,1.73-.25,3.24-2,4,.05-1.3.11-2.59.16-3.89C160.18,109.48,160.8,109.44,161.43,109.43Z"/><path class="cls-9" d="M159.38,113.39c.13,1.74-.19,3.25-2,4,.05-1.31.09-2.61.14-3.91A14.26,14.26,0,0,1,159.38,113.39Z"/><path class="cls-9" d="M157.39,117.39c.11,1.78-.17,3.34-2.14,4,.09-1.3.19-2.59.28-3.88C156.15,117.46,156.77,117.41,157.39,117.39Z"/><path class="cls-61" d="M319.54,287.54a13.3,13.3,0,0,0-8,2,8.28,8.28,0,0,1-5.14-2.84c-3.09-3.33-8.71-7.15-5.21-11.54,3.91-4.9,7,1.82,10.37,3.67,1.74,1,3.25,2.36,5.19,2.95,3.83,1.17,8.19,1.13,9.24-3.08s-3.72-3.86-6.32-4.33c-11.52-2.07-18.69-8.22-20.08-20.25.92-7.72,6.58-7.46,11.92-6.54,7.18,1.22,14.07,3.75,21.09,5.68,13,3.55,26,5.38,39.08.66,14.13-5.08,19.33-12.74,18.89-27.69-.1-3.14-1.58-6.68,2-9.08,7.64.26,12,5.31,12.72,11.78,1.85,17.07,2.81,34.27-.7,51.33-14.5,8.71-29.66,15.42-47,15.29h-2c-3-2.46-7,.35-10-2h-2c-2.27-2.26-5.7.14-8-2l-2,0c-1-1.28-2.94-.77-4-2h-2c-1-1.29-2.94-.78-4-2Z"/><path class="cls-62" d="M501.52,217.54c1.72,3.86,4.5,7.36,4,12,0,6.49,3,12.17,5,18.1,4,11.94,0,17.09-12.45,15.59-1.61-.19-3.13-.86-4.81-.79.77,1.76,3.07,2.74,2.6,5.11-9.49,5-9.49,5-19.29,1.3,7.43,3.44,15.3,5.7,22.89,8.71l6,2c1.29,10.82-7.73,11.55-14.33,14s-13.83.3-20.69,1.6a53.54,53.54,0,0,1-17.82-8.53c-10.82-8.16-12.1-15.09-5.11-27.33,4.92-5.6,11.6-8.76,18-12.16a50.5,50.5,0,0,0,22.21-23.2c2.13-4.36,3.77-9.36,9.27-11C500.62,212.41,500,216,501.52,217.54Z"/><path class="cls-63" d="M403.53,281.52c0-14.88-.29-29.78.11-44.65.25-9.45-3.12-16-12.11-19.33l-1.33-.43a11,11,0,0,1-3.74-4.58c-1.35-2.61-4.2-5.35-2.79-8.16,1.87-3.75,5.22-.67,7.95-.33,7.46.91,9.79-3.16,8.39-14.7a10.48,10.48,0,0,1,0-3c2.56-5.62,4.75-2.45,6.43.47,2.23,3.91,3.11,8.42,5,12.49a32.64,32.64,0,0,1,2.74,10.53c2.59,17.31,4.05,34.77,6.13,52.39,9.54-20.86,10.69-43.89,19.2-64.74,0-.66,0-1.33,0-2,1.25-1,.76-2.91,1.9-4,0-1.33.05-2.66.07-4,1.61-2.54,3.28-7.63,5.73-.85,2.28,6.32,1.39,13.1.26,19.58A88.19,88.19,0,0,0,446.16,218a205.35,205.35,0,0,1-12.45,37.93c-1.4,1-2.6,2.06-1.18,3.93a3.93,3.93,0,0,1-1.93,4.45c-5.28,4.56-4.11,12.53-9.08,17.25-5.33-3.28-10.66-4.24-16,0C404.86,282.34,404.19,282.3,403.53,281.52Z"/><path class="cls-64" d="M501.52,217.54l-4-4c-4.41-3.89-7.4-8.54-7.38-14.62,0-4.52-2.93-7.25-5.75-10.09q-14.79-14.88-29.67-29.7c-4.78-4.79-7.29-10.23-5.67-17.09,4.51-1.93,5.59,2.42,7.71,4.45A349.41,349.41,0,0,0,484,169.72c3.71,1.87,6.2,6.3,11.29,5.24a4.11,4.11,0,0,1,2.56.61c3.58,4.16,4.17,9.58,6.07,14.44,3.7,9.44,4.43,9.64,11.75,3.15,6.14-5.45,12.2-11.13,19.41-15.1,5.66-3.12,8.33-1.38,5.88,5.31-5.14,7.7-10.42,15.2-13.82,24C522.65,219,522.56,230,528.23,241c1,2,2.42,4.05,1.3,6.54,0,.68,0,1.35,0,2-6.92-4.91-10.49-12.56-15.4-19.09-3.55-4.74-6.26-10.13-9.95-14.75C502.34,213.42,501.82,216,501.52,217.54Z"/><path class="cls-65" d="M421.52,281.55c1.53-6.51,1.41-13.75,8-18a9.15,9.15,0,0,1,2.58,7.26c-.33,10.67,6.4,15.08,15.3,17.83,7.25,2.23,15,2.12,22.11,4.89,4.66,0,9.36.37,14-.08,9.58-.92,17.74-4.45,22-13.91,1.33,0,2.66,0,4,.07,4.11.34,7.18,2.5,7.59,6.55.47,4.74-3.89,5.77-7.23,6.85-4.74,1.52-9.9,1.13-14.73,1.36-14.7.69-29.28,5.82-44.21,1.55-3.09-.89-6.61-.09-9.9-.43C431.94,294.53,424.4,291.27,421.52,281.55Z"/><path class="cls-29" d="M403.53,281.52l2,0c-1.76,2.95-2,6.19-2.08,9.55-.09,4.59-2.67,7.87-7.1,8.17-13.1.87-26.13.11-38.82-3.72,12.47-2,23.79-7.49,35.46-11.89C396.48,282.34,399.82,281.27,403.53,281.52Z"/><path class="cls-66" d="M495.54,267.52c-2-3.18-6.59-3-9.08-7.19a16.12,16.12,0,0,1,10.64.09,14.78,14.78,0,0,0,6.83,1c5.65-.69,7.67-4.27,5.66-9.75-1.82-5-3.65-10-5.37-15-.9-2.6-1.3-5.22,1.34-7.22,6.21,8.78,8.84,19,11.29,29.19,1.61,6.65-2.42,10.11-11.31,10.87C501.75,271.09,498.56,269.74,495.54,267.52Z"/><path class="cls-67" d="M495.54,267.52c3.58-.54,6.58,1.78,10,2-3.43,3.79-8.15.87-12.18,2.43.76,3.27,5,2.8,6.17,5.53-14-.89-21.37-4.09-28.53-13.16A28.42,28.42,0,0,0,495.54,267.52Z"/><path class="cls-29" d="M345.53,293.54c3.37.47,7.2-1.35,10,2C352.16,295.06,348.33,296.87,345.53,293.54Z"/><path class="cls-29" d="M335.53,291.54c2.77.27,5.9-.94,8,2C340.77,293.26,337.63,294.46,335.53,291.54Z"/><path class="cls-29" d="M323.53,287.54c1.65,0,3.14.37,4,2C325.88,289.5,324.39,289.15,323.53,287.54Z"/><path class="cls-29" d="M329.53,289.54c1.65,0,3.14.37,4,2C331.88,291.5,330.39,291.15,329.53,289.54Z"/><path class="cls-68" d="M529.57,251.54l2,2Z"/><path class="cls-68" d="M531.55,253.53l2,2a1.18,1.18,0,0,1-2,0Z"/><path class="cls-34" d="M531.55,255.51c.66,0,1.32,0,2,0v0a1.25,1.25,0,0,1,.44,1.32c-.15.44-.29.66-.44.66l0,0C532.87,256.86,532.21,256.19,531.55,255.51Z"/><path class="cls-69" d="M179.52,273.54a16.05,16.05,0,0,0,2-.34c2.53-.78,4.1-2.49,3.58-5.16-.49-2.51-2.82-2.37-4.81-2.5a42.07,42.07,0,0,1-23.88-8.67c-3.41-2.65-6.73-5.39-7.82-11.12l9.75,3.09c1.64.52,3.46.9,4.24-1s-.82-3.07-2-4.16c-3.82-3.39-9.69-1.67-13.9-5.76,8.78-5.85,14.66-14,19.41-23.2,6.55-12.62,20.83-15.41,33.42-10.86,4.18,1.51,6.12,5.6,7.33,9,3.68,10.39,10.52,19.14,14.35,29.44,1.75,4.69,2.67,9.54,4.17,14.26a4.14,4.14,0,0,1-.86,3.64c-1.53,1.31-3,0-4.28-1.12q-8.31-7.75-16.6-15.53c.86-5.46.86-5.46-2.66-13.61-3.59,12.06-7.89,22.65-7.47,34.61S191.22,278,179.52,273.54Z"/><path class="cls-70" d="M227.55,211.51c6.2,7.28,12.32,14.6,20.59,19.77,7.69,4.81,14.8,3.51,18.5-4.75,2.64-5.92,5.42-12.12,4.89-19,2.73-13.53.29-26.75-2.32-40-.55-2.77-2.52-6.54,1.18-7.8,3.29-1.11,4.88,2.6,6.15,5.21,4.06,8.39,6.59,17.1,5,26.57,1.15,8.15-1.71,16-2,24,.26,8-1.59,15.75-3.67,23.42-1.08,3.18-1.71,6.61-4.56,8.88-6.88,1.48-10.34,9.25-17.79,9.71-2.66-12.61-11.74-19.79-22-26-7.07-7.82-13.79-15.78-18.94-25.18-3.69-6.74-7.42-13.27-9.06-20.83a52.91,52.91,0,0,1,0-22h0a2.68,2.68,0,0,1,3.54,2.41C209.22,183.27,219.07,197.08,227.55,211.51Z"/><path class="cls-71" d="M65.52,211.54c6,6.46,13.86,9.89,21.56,13.46,3.26,1.51,6.76,2.62,10,4.33a16.17,16.17,0,0,0,12.4,1.35c7.94-2.07,16-3.48,24.08-5.16,9.36-1,15.1-7.09,20.18-14.27,8.2-11.59,15.19-23.74,18.15-38.24,2.59,2.16,1.28,4.52,1.67,6.52.33,14.17-6.83,25.34-15.06,35.8-3.62,4.6-7.74,9.09-13,12.19-4.72.68-8.48,3.47-12.56,5.61-3.62,1.91-6,6.33-12,3.55-2.53-1.17-7.56,3.07-11.45,4.85C95.3,237.82,83,230.16,71.29,221.77,68.39,219.7,62.26,217.78,65.52,211.54Z"/><path class="cls-72" d="M253.51,257.54c5.3-3.41,8.68-9.9,16-10,4.47,10.15,2.05,19.33-4,28h-2c-1.65-6.47-6.09-9.43-12-8A16.42,16.42,0,0,1,253.51,257.54Z"/><path class="cls-73" d="M221.52,275.56c7.3-.67,8.66-6.78,9.46-12,1.33-8.6,3.61-17.2,2.56-26.07,5.57,9.79,6.49,20.18,3.34,30.81C234.38,276.78,229.79,278.69,221.52,275.56Z"/><path class="cls-69" d="M207.54,255.55c4,2.11,5.32,5.86,6,10C209.54,263.4,208.21,259.67,207.54,255.55Z"/><path class="cls-69" d="M203.51,243.53l-2,2c-1.14-.72-2.05-1.76-.9-2.9S202.8,242.37,203.51,243.53Z"/><path class="cls-69" d="M201.56,247.54l2,2Z"/><path class="cls-69" d="M205.56,253.54l2,2Z"/><path class="cls-74" d="M265.55,275.52c.09-2-.57-4.52.41-5.86,5-6.86,3.37-14.61,3.59-22.12,2.7-2,2.11-5.61,4-8,4.42-2.48,10.07-8.47,13.52-4.92s1.76,11.2,0,16.95c-4.18,13.81-3.94,15.95,3.82,24.89.65-4.84-1.79-8.71-1.57-12.85.43-8,3.91-10.39,12.22-8.07,3.3,16,17.25,15.89,29.07,18.73-3.21,11.88-10.38,14.54-19.48,7.69-2.88-2.16-4.74-5.52-8.85-7.42-1,7.92,7.43,9.52,9.26,15h0a28,28,0,0,1-16,0c-10,.31-18.65-2.65-25.43-10.35A32.7,32.7,0,0,0,265.55,275.52Z"/><path class="cls-61" d="M295.54,289.54h16A15.18,15.18,0,0,1,295.54,289.54Z"/><path class="cls-68" d="M537.52,257.55c11.36-7.37,16.69-19.4,23.09-30.49,3.24-5.62,7.28-11.2,7.06-18.29a2.83,2.83,0,0,1,.5-1.88c4.67-4.47,8.69-10.9,14.27-12.86,11.15-3.9,22.31-7.69,33.13-12.48-8.52,11.33-19.87,19.16-32,26-2.54,1.36-4.22,4.23-7.59,4.15,9.92,2.51,19.21-2.28,28.88-2a7,7,0,0,1,2.55,1.16c2.82,4.69-4.4,6-3.39,10.14-12.93,8.56-20.36,22.5-31.87,32.46a18.85,18.85,0,0,0-6.6,14.08c-.68,1.55-1.58,3.22-3.34,3.28-2.39.07-1.13-1.73-1-2.84.37-2.71-.67-2.82-3.3-3C550.46,264.61,542.64,264.54,537.52,257.55Z"/><path class="cls-75" d="M565.51,267.52c-4.44-5.29-.65-9.46,2.38-13.08,4.24-5.07,9.24-9.52,14-14.2,2.6-2.58,5.3-5.07,6.62-8.6,1.38-3.69,4.12-5.82,7.57-7.44,2.66-1.25,5.66-2,7.49-4.67,3.29-4.93,8.37-7.2,13.67-9,2.17-.76,4.72-1.05,6.16,1.38,1.18,2-.29,3.8-1.43,5.31-3.55,4.73-7.11,9.44-10.4,14.34a63.8,63.8,0,0,0-14,14,135.15,135.15,0,0,0-26,16l-2,2,0,0-2,2,0,0c-.66.64-1.32,1.3-2,2Z"/><path class="cls-68" d="M533.54,257.52v-2l2,2h-2Z"/><path class="cls-68" d="M569.54,263.5l2-2Z"/><path class="cls-68" d="M567.54,265.5l2-2Z"/><path class="cls-68" d="M565.54,267.5l2-2Z"/><path class="cls-60" d="M161.52,145.53c7.48-20.45,18.27-38.09,39.51-47,1.06-.44,1.68-2,2.5-3,5.85-.5,6.32,3.3,6,7.6-.71,9.09,2.11,17.25,6.06,25.69,6.12-2.6,8.81-8,12.3-12.43,2,1.83,1.53,3.56,1.66,5.14,0,.46,0,.92,0,1.38-1.13,5.18-6.17,7.87-8,12.61l0,6c-4.36.14-4.3-4.56-6.86-6.37-2,1.13-.25,4-2.93,5.24-7.51-10-8.89-21.18-5.8-33.39-5.38.71-4.93,4.69-5.44,7.07-2.46,11.47-10.58,17.81-20,22.88C174.41,140.25,167.87,142.7,161.52,145.53Z"/><polygon class="cls-5" points="143.53 165.53 143.99 164.7 144.37 165.07 143.53 165.53"/><path class="cls-60" d="M267.55,93.51l2,2c2.57,5.13-1.51,7.22-4.65,9.24-5,3.2-9.89,6.78-15.49,8.7-7.12,2.45-8.82,6.2-6.61,13.52,2.75,9.14.08,11.19-9.28,8.57-3.07-4.16-7.26-8-4-14v0c5.41-.39,6.3-4.09,6-8.43-.45-5.86,1.81-8.17,7.76-10.26,6.92-2.42,15.21-4.78,18.27-13.29C265.39,88.05,265.78,91.84,267.55,93.51Z"/><path class="cls-76" d="M267.55,93.51l-6-4c-1.23-3-4.65-4.88-4.49-8.54a1.77,1.77,0,0,1,2.3-1.33c7.93,3.35,13.93.9,18.89-5.73,1.34-1.79,3.51-3,5.3-4.41,3.87,4.13,4.73,11.26,12,12-5.07,3.45-10,5.81-16.78,4.26C272.33,84.33,270.82,86.13,267.55,93.51Z"/><path class="cls-77" d="M233.53,135.53a45.06,45.06,0,0,0,4.94-.15c3.25-.46,4.75-2.08,3.2-5.45-.69-1.5-1.39-3-1.93-4.55-2.9-8.32-1.7-11,6.81-13.68,7.6-2.37,13.72-7.28,20.47-11.11,1.88-1.06,2.41-3,2.54-5.09,5.3.52,8.44,6,14,6,1.31,2.32.78,4-1,6.13-7.25,8.63-17.06,13.31-26.85,18.07-1.78.87-3.6,1.65-5.43,2.42-4.08,1.71-5.87,4.34-3.12,8.46,3.79,5.72,2.19,11.4.09,17.09-1.83,5-3.89,9.82-5.65,14.79-1.46,4.12-2.76,9.17-7.17,10-4.8.95-8.49-2.68-10.88-7A39.46,39.46,0,0,1,220,160.45c4.88-.36,6.19,3.31,8.64,5.16,2.81,2.14,5.09,1.6,6.24-1.46,1-2.7,3.13-5.57,2.17-8.41C234.81,149.14,236.32,142,233.53,135.53Z"/><path class="cls-78" d="M227.55,211.51c-12.1-12.16-20.4-26.24-22-43.68a5.48,5.48,0,0,0-2-4.28,6.26,6.26,0,0,1,1.68-4.54c2.1-1.93,3.58-5.46,7-4.59,3.65.93,3.09,4.55,3.36,7.46.3,3.28,2.4,6.21,1.92,9.65,2.52,11.52,3.73,23.38,9,34.21C227.32,207.44,227.22,209.58,227.55,211.51Z"/><path class="cls-77" d="M229.52,121.55c-.8,5.27,3.75,9,4,14-4-2.05-8-4.92-12,0C220.88,129,226.44,126,229.52,121.55Z"/><path class="cls-78" d="M203.54,163.54q0,11,0,22A26,26,0,0,1,203.54,163.54Z"/><path class="cls-76" d="M297.51,79.54l-2,2Z"/><path class="cls-34" d="M611.52,231.52c1.23-7.52,5.91-13.09,12-19.37-8.74-.16-13.8,5.17-20,7.38-1.4-1-.79-2,0-3,1.35-1.65,2.65-3.33,4-5a142,142,0,0,1-35.62,1.63c4.45-3.27,7.67-5.14,11.62-5.63-1.22,2.93-.73,5,2.82,3.43,10.09-4.34,19.58-9.73,27.88-17.08,4.46-4,9.06-7.77,13.8-11.37,1.72-1.3,4-3.4,6.22-1.77,2.47,1.85.23,4.18-.48,6.29-.81,2.4-3.5,3.87-3.75,7.59l11.25-6.39C636.68,207.4,625.5,220.4,611.52,231.52Z"/><path class="cls-79" d="M301.53,255.53c-9.45.77-11.6,3.48-9.54,12.37a63.41,63.41,0,0,0,2.5,7.5c.7,1.92,1.49,4-.55,5.34s-3.76.1-5.34-1.25c-5.81-5-8.87-16.32-6.06-23.68,1.8-4.72,5.6-8.86,1.72-14.49-1.14-1.67,3-3.28,2.28-7-4,3.13-7.78,6.45-13,5.18,1.55-8.11,2.72-16.32,6-24,.14,1.33.35,2.87,2.07,2.68a14.84,14.84,0,0,0,9.4-5.06c5-5.33,10.27-10.44,15.5-15.56,4.51-4.42,9.56-6.94,16.14-4.72,4.17,1.41,8.59.43,12.89.66,12.07.91,23,5.16,33.28,11.29,3.32,5.29,1.45,7.32-4.34,8.78-12,3-24.58.24-36.49,3.91-6,1.85-11.73,4.1-16.38,8.69,10.91-9.1,23.69-11,37.31-10.78,8.93.16,17.69-2.16,26.43-4,6.08.23,11.29,2.75,16.18,6.12h0c.31,1.29.59,2.58.92,3.87,3.89,15.45-.58,25.64-14.71,33-10.74,5.58-22.17,6.38-33.91,4.24-10.12-1.85-19.94-4.86-29.73-7.92a26.2,26.2,0,0,0-7.83-1.16C302,249.51,301.46,252.23,301.53,255.53Z"/><path class="cls-80" d="M391.52,217.54c-5.74.26-10.51-3.36-16-4a3.19,3.19,0,0,1-.75-2.58c2.37-4.61,1.16-7.48-3.43-10.32-9.34-5.8-19.38-9.68-29.76-12.94a53.57,53.57,0,0,1-11.61-6,17.74,17.74,0,0,1-1.86-1.61c-.28-.27-.55-.57-.84-.85-.55-.54-1.07-1.13-1.57-1.72-.26-.29-.5-.6-.75-.88a9.63,9.63,0,0,1-1.23-1.94c-.07-.38-.13-.76-.19-1.14,2-2.8,4-.81,6,0,18,7.45,37,10.8,56,14l2,4q1,1,2,2l0,0a1.17,1.17,0,0,0,2,0l2,0c.57-.38,1.4-.85,1.8-.53,5,4,4.6-1.51,6.22-3.46,4.53,5.57.82,10.7-1.3,15.58-1.35,3.12-5,2.39-8,2.29-2.7-.09-3.93-3.58-7.35-2.89Z"/><path class="cls-81" d="M281.54,191.54a71,71,0,0,0-11.11-30.23c.72,4.12,1.68,8.22,2.09,12.37,1.11,11.31,2.8,22.67-1,33.85,1.07-16.78-2.31-32.83-7.85-48.55-1.2-3.4-2.63-6.82-2.13-10.61.21-1.62.09-3.37,1.95-4.18a3.8,3.8,0,0,1,4.52,1.07c7,7.94,14.51,15.91,15.25,27C283.69,178.6,285.51,185.45,281.54,191.54Z"/><path class="cls-82" d="M329.54,179.51l12,6c6.48,4.61,13.84,7.49,21,10.78,2.95,1.35,6.39,2,7.93,5.38.11,2.09.31,4.25-2.9,3.82-10.42-4.64-21.91-6.46-32-12-5.82-5.17-12.64-9.5-15.48-17.26-1.33-3.64.65-3.91,3.46-2.75l0,0c.65.66,1.31,1.31,2,2l0,0c.64.67,1.3,1.32,2,2l0,0C328.2,178.21,328.86,178.87,329.54,179.51Z"/><polygon class="cls-47" points="333.53 103.53 333.07 104.37 332.69 103.99 333.53 103.53"/><path class="cls-26" d="M603.53,145.53c-3,3.71-7.2,4.26-11.56,4s-8.38,1-9.65,5.15c-2.29,7.47-7.48,10.23-14.5,11.16-.82.1-1.53,1.11-2.29,1.7h0c-8.75-3.8-18-3.32-27.26-3.43-9.74-1.81-19.65-2.83-29.05-6.26a32.72,32.72,0,0,1-5.58-2.72,11.07,11.07,0,0,1-2.4-2c-4.11-5.82-1.19-7.73,4.42-7.21,4.49.42,8.58,3,13.18,3.29a79.07,79.07,0,0,0,47.44-4.52c3.05-1.25,6.35-1.54,9.23-3.14l4.06-.08C587.57,142.74,595.79,142.71,603.53,145.53Z"/><path class="cls-83" d="M575.5,141.57c-8,8.68-19.2,9.92-29.65,11.53-9.24,1.42-19,1.63-28.32-1.56,1.77-3.81,1.64-4.07-2.46-6.32a4.13,4.13,0,0,1-2-3.08,4,4,0,0,1,1.83-2c5.33-1.41,10.72-.29,16.08-.36,1.33,0-.4.07.93.15a1.15,1.15,0,0,1-.46-.2c-7.83-.23-16.1.47-17.91-10.16,10.84.43,20.86,4.7,31.33,6.87a37.41,37.41,0,0,0,8.65,1.09l8,.11c.62.62,1.26,1.22,1.91,1.8C567.7,138.92,571.49,140.84,575.5,141.57Z"/><path class="cls-53" d="M563.47,139.4l-1.91-1.8Z"/><path class="cls-79" d="M401.54,189.52c.58,6.7.67,8.67-8,4,.88-10.83-4.61-19.87-8.72-29.13-5.07-11.43-10.53-22.77-19.71-33.24,8.56-2.59,14.3-7.85,19.55-13.71,2.33-2.6,5.11-4.63,8.68-3.82,5.1,1.16,9-5,14.21-2.07,1.8,5.61-3.49,8.73-4.61,13.29-.38,1.52-3.78,3.71.6,4.7.33,2.15,1,4.05,3.75,3.05,5-1.78,9.87-3.78,14.89-5.43,5.7-1.88,8-1.16,8.74,3.91,1.07,7.65,4.08,14.62,6,21.93.74,2.8,1.16,6.15.35,8.83-2.58,8.48-1.5,17.09-1.73,25.65-.24,8.88-1.9,11.19-10.67,14.09-1.86.62-4.48.82-3.85,3.37.71,2.88,3.42,2.81,5.72,1.87a16.35,16.35,0,0,1,6.77-1.29c2.14,8.26-3.83,11.47-9.61,13.37-7.59,2.49-10.3-3.47-12.37-9.36.55-3.58-1.82-6.56-2-10-6.38-25.06-12.06-50.35-22.2-70.73a233.27,233.27,0,0,1,14.19,58.73C401.53,188.2,401.53,188.86,401.54,189.52Z"/><path class="cls-84" d="M449.53,141.54c-.67,6.54,2.26,11.41,6.78,15.84,10.93,10.7,21.66,21.6,32.49,32.41,2.85,2.84,6.05,5.46,3.62,10.24-1.11,2.17.65,3.67,1.73,5.32,1.65,2.49,3.23,5.05,3.38,8.18-1.87,2.26-4.44,3.93-5.47,6.89-5.73,16.46-18.57,25.85-33.24,33.47-3.2,1.66-6.19,3.75-9.28,5.64-2.15-2.19-2-4.91-1.37-7.51,5.1-22.11,6.57-44.72,9.26-67.17-.6,5.49-1.9,10.89-2,16.45-.06,3.28-1.28,5.83-4.75,6.74a3.15,3.15,0,0,1-2.76-3.53c2.17-12.12-.82-24.28.31-36.39.4-1.32-1.58-.11-.25-.26.31,0,.46.23.35.8-.92,5-.35,10.81-6.81,12.9-3.36-4.54-2.13-9.05-.16-13.73,3.55-8.39,7.06-16.85,6.21-26.3l1-.75Z"/><path class="cls-85" d="M513.53,141.53c2,3,5.6,3.2,8.46,4.76-1.11,2.15-3.85,2.8-4.46,5.25-5.86,1.08-10.3-5.44-16.35-3.62-.45,2.79,2,3.72,2.35,5.61a15.46,15.46,0,0,1-9.93,7c-2.78.59-.33,2.48-.56,3.75a8,8,0,0,1-.4,4.26c-2.28,3.32-5.08,5-9.11,3-12.66-8.49-24.43-18-34-30h0a12.61,12.61,0,0,1-2-2c-2.59-7.4-1.67-9.43,4.81-9.93,2.95-.22,6-.41,8.82.8a13.63,13.63,0,0,0,12.39-.82c6.65,6.86,14.39,9.3,24.09,7.74C503,136.46,509.66,134.89,513.53,141.53Z"/><path class="cls-55" d="M361.54,83.53c13.77-3.3,27.77-1.81,41.68-1.91,8-.06,15.32,4.09,23.4,4.31,3.06.08,3.11,3.15,2.59,5.47s-.57,3.93,2.31,4.14c-2.65,4.82-7.76,5.85-12.26,7.63-1.69.67-4.45.84-5.77-.1-11.92-8.43-26.81-8-39.59-13.74C369.75,87.48,365.15,86.54,361.54,83.53Z"/><path class="cls-28" d="M411.55,209.52c.83,1,1.65,2,2.48,3,5.45,6.5,8.55,6.76,14.44,1.07,2.32-2.24,5.13-4.26,5.06-8l6-8c-3.47,25.15-9.88,49.5-20.95,73Z"/><path class="cls-86" d="M513.53,141.53c-6.87-3.28-14.06-2.39-21.12-1.24-9.49,1.55-14.68-1.21-18.87-10.71,6.21-.25,12.38.24,18.57-1.66,7.16-2.19,14.21,1.67,21.42,1.61,4.72,7.23,12.8,7.72,20,10C527.08,142.31,520,138.67,513.53,141.53Z"/><path class="cls-87" d="M403.52,129.53l-3.37,2.57c-2.65-9,5-13.84,7.38-20.56,7.51-6.53,16.94-6.05,26.08-7,1.09,4.64-1.37,7.79-5.57,8.33C416.9,114.35,410.26,121.9,403.52,129.53Z"/><path class="cls-88" d="M441.51,181.56c-1.36-4.28,5.28-4.29,4.49-9.1-.55-3.34,1.84-7.23,2.46-11,1.26,15.46,5.05,30.73,1.08,46.1,1.93,6,.4,10.2-6,12-.49-9.93,3.36-19.58,2-29.56-.21-1.52.82-3.28-.89-4.67-1,.75-2.06,1.49-3.09,2.22Z"/><path class="cls-84" d="M441.46,191.52c0,1.65-.31,3.12-1.9,4C439.56,193.89,439.89,192.41,441.46,191.52Z"/><path class="cls-55" d="M431.54,95.53l2-2Z"/><path class="cls-79" d="M389.53,193.51l-2-2Z"/><path class="cls-79" d="M391.51,193.54c-.65,1.16-1.31,1.15-2,0Z"/><path class="cls-64" d="M447.52,139.53l2,2h-2C447.55,140.86,447.53,140.2,447.52,139.53Z"/><path class="cls-89" d="M537.53,161.52a77.65,77.65,0,0,0,7.93,0c7.56-.77,14.57,0,20.06,6-4.1,3.36-8.29,6.65-10,12-6.32,9-13.77,16.9-21.52,24.65-10.58,10.58-11,18.21-2.76,30.89,3.32,5.13,7.7,10,6.69,17.26-4.18.37-5.33-4-8.41-4.81-13.64-18.32-7.77-36.27,1.32-54,2.24-4.35,5.77-8,8.7-12,4.35-4.83,9.38-9,14.05-13.42C549,162.8,540.19,170.1,537.53,161.52Z"/><path class="cls-90" d="M443.55,219.54a23,23,0,0,0,6-12c4.19-1.9,4.13-5.62,4-9.35-.28-7.27,1.44-14.14,4-22.38,2.71,3.27,2.28,6,2,8.23-1.61,12.44-1.86,25-3.33,37.46-1.52,12.84-4.41,25.36-6.59,38a63.4,63.4,0,0,0-3,6.22c-2,5.7-1.64,10.83,3.32,15.22,4,3.52,8.07,6.68,13,8.62,2.45,1,5,1.63,6.65,3.93-7.89,0-15.75.25-23.51-2.12-12.44-3.79-16.47-8.89-16.47-21.92,0-2,0-4,0-5.94,1.61-.88,1.94-2.38,1.94-4a1.2,1.2,0,0,1-.45-1.31c.16-.43.32-.65.47-.65Z"/><path class="cls-91" d="M401.52,187.53c-2.72-4.27-3.17-9.24-4.34-14-4-16.39-7.64-32.9-12.92-49-.13-.42.41-1,1.06-2.6,14.15,24.48,22.23,50,24.21,77.56-3.49-3.67-3-9.09-5.65-13.07C401.86,183.43,401.91,186.28,401.52,187.53Z"/><path class="cls-65" d="M431.49,257.55c0,.65,0,1.31,0,2-.77-.29-1.06-.78-.73-1.4C430.87,257.86,431.23,257.74,431.49,257.55Z"/><path class="cls-92" d="M537.53,161.52c4.3,3.79,9.48,1.35,14.23,2,2.26.3,5-.32,6.15,2.16,1.23,2.75-1.44,4.51-3.16,5.4-5.53,2.89-8.59,9.28-15.2,10.49.2-1.49,1.92-5.13-1.71-2.79a132.5,132.5,0,0,0-22.41,17.85c-6.86,6.94-6.8,9.93-12.72-2.83-2.75-5.94-3.18-12.8-7.18-18.25-.38,2.88-1.47,4.63-4.45,2.34-2.6-2-5-4.22-7.55-6.34,3.17-.32,6-1.39,8-4,1.3-1.33,1.19-2.66,0-4-1.66-4.12-1.67-4.21,1.85-4.62,4.11-.48,5.57-5.84,10.14-5.38,1,1.29,3,.78,4,2Z"/><path class="cls-68" d="M608.68,210.16c.8-.38,1.31-.17,1.41.64,0,.14-.44.45-.71.51-.61.13-1.23.15-1.85.22C607.92,211.06,608.31,210.59,608.68,210.16Z"/><path class="cls-93" d="M367.53,205.53c1.61-.85,2-2.34,2-4,7.72-.13,8.51,3.93,6,10,0,.67,0,1.35,0,2-9.68,1.95-19.3,4.47-29.3,4-13.61-.66-25.4,3.37-35,13.27a8.32,8.32,0,0,1-2.4,1.72c-.52.25-1.25.05-2.43.05-1.05-5.14,1.19-8.7,5.52-11.14,8.19-4.61,17.13-7.7,26.4-7.64,9,.05,17.7-2.19,26.62-2.28C370.09,211.45,368.94,208.52,367.53,205.53Z"/><path class="cls-79" d="M375.54,211.51c.75-5-1-8.44-6-10-7.21-2.74-14.48-5.29-21.07-9.49-2.79-1.78-5.43-3.46-6.94-6.5,14.17,3,26.54,9.88,39,18.09C379.87,206.82,377.91,209.28,375.54,211.51Z"/><path class="cls-46" d="M325.51,175.52l-2-2Z"/><path class="cls-46" d="M327.52,177.51l-2-2Z"/><path class="cls-46" d="M329.54,179.51l-2-2Z"/><path class="cls-85" d="M507.54,155.52c-1.65,0-3.15-.37-4-2C505.18,153.56,506.67,153.92,507.54,155.52Z"/><path class="cls-85" d="M513.53,141.53c6.32-4.1,13.36-1.07,20-2l3.81.41,0,1.62Z"/><path class="cls-64" d="M491.54,163.53c2,1.34,2,2.67,0,4C491.53,166.19,491.54,164.86,491.54,163.53Z"/><path class="cls-64" d="M493.78,172.48l.94-1.31a25,25,0,0,1,.77,2.51,10.36,10.36,0,0,1,0,1.85A3.2,3.2,0,0,1,493.78,172.48Z"/></g></g></svg>