<svg xmlns="http://www.w3.org/2000/svg" viewBox="0 0 712.66 392.12"><defs><style>.cls-1{fill:#ddd;}.cls-2{fill:#e8693a;}.cls-3{fill:#e4e4e4;}.cls-4{fill:#ff8051;}.cls-5{fill:#f76f3e;}.cls-6{fill:#bdbdbd;}.cls-7{fill:#eb6a3b;}.cls-8{fill:#fe8051;}.cls-9{fill:#fe7340;}.cls-10{fill:#cbcbcb;}.cls-11{fill:#f77d4f;}.cls-12{fill:#ff7442;}.cls-13{fill:#ea754a;}.cls-14{fill:#fdfdfd;}.cls-15{fill:#e8e8e8;}.cls-16{fill:#d9d8d8;}.cls-17{fill:#c2c2c2;}.cls-18{fill:#e1e1e1;}.cls-19{fill:#fa7e51;}.cls-20{fill:#ef6c3c;}.cls-21{fill:#f68256;}.cls-22{fill:#e8744a;}.cls-23{fill:#ec7348;}.cls-24{fill:#f1794c;}.cls-25{fill:#cbcaca;}.cls-26{fill:#ececec;}.cls-27{fill:#efefef;}.cls-28{fill:#d9d9d9;}.cls-29{fill:#d3d1d0;}.cls-30{fill:#ff7a4a;}.cls-31{fill:#f06c3c;}.cls-32{fill:#ff8659;}.cls-33{fill:#f77c4e;}.cls-34{fill:#f46e3e;}.cls-35{fill:#ee774b;}.cls-36{fill:#fc8558;}.cls-37{fill:#e8693b;}.cls-38{fill:#ec764b;}.cls-39{fill:#ff8052;}.cls-40{fill:#f66f3e;}.cls-41{fill:#f7f7f7;}.cls-42{fill:#e3e3e3;}.cls-43{fill:#ea6a3b;}.cls-44{fill:#d2d2d2;}.cls-45{fill:#ec754a;}.cls-46{fill:#ebebeb;}.cls-47{fill:#f77648;}.cls-48{fill:#fe7645;}.cls-49{fill:#fff;}.cls-50{fill:#f2f2f2;}.cls-51{fill:#d2d1d1;}.cls-52{fill:#cbc3c0;}.cls-53{fill:#ff7340;}.cls-54{fill:#ff8153;}.cls-55{fill:#ef784c;}.cls-56{fill:#f77b4d;}.cls-57{fill:#ee6c3c;}.cls-58{fill:#ff8152;}</style></defs><g id="Слой_2" data-name="Слой 2"><g id="Слой_1-2" data-name="Слой 1"><path class="cls-1" d="M508.16,322.15a18,18,0,0,0-1.93.17,17,17,0,0,0-1.92,1.88l0,0c-.72.6-1.36,1.29-2,1.94l0,0c-1.07,1.19-2.93.82-4,2h0c-1.1,1.19-3,.8-4.07,2a17.87,17.87,0,0,0-1.94.09c-1.66,1.72-4.41.06-6,1.93h-7.92c-1.62-1.86-4.41-.2-6-2l0,0c-.67-.65-1.34-1.29-2-1.92a11.62,11.62,0,0,0-1.86-.12,14.88,14.88,0,0,1-2.11-2h0a2.91,2.91,0,0,0-4.15,0,15.41,15.41,0,0,0-1.92.08c-1.08,1.19-3,.71-4,1.94a18.57,18.57,0,0,0-2,.1c-1.09,1.12-2.94.69-4,1.92h0c-1.12,1.17-3,.79-4.09,2a15.41,15.41,0,0,0-1.92.08c-1.09,1.19-3,.71-4.05,1.94a18.17,18.17,0,0,0-1.95.08c-1.1,1.17-3,.69-4.05,1.92a18.17,18.17,0,0,0-1.95.08c-1.1,1.17-3,.69-4.05,1.92a18.16,18.16,0,0,0-1.95.07c-1.11,1.18-3,.72-4.08,1.91a15.18,15.18,0,0,0-1.91.06c-1.67,1.77-4.43.12-6.08,1.95l-3.94.09c-3.72,2.38-8.3-.62-12,1.93h0c-.66.64-1.29,1.3-1.9,2a17.69,17.69,0,0,0-.13,1.92,28.33,28.33,0,0,1-2,2.08l0,0c-1.05,1.22-2.93.84-4,2.06h0c-1.1,1.14-2.94.78-4,2-1.64,1.77-4.41.12-6,2-.67,0-1.33,0-2,.06-3.69,1.87-7.64.61-11.46.89-3.17.23-6.66-.68-8.53,3.06h0l-2,2,0,0a35.86,35.86,0,0,1-18,.08q-1-.08-2-.06c-1.05-1.24-2.9-.77-4-1.89a18.62,18.62,0,0,0-2-.12c-1.07-1.21-2.95-.81-4-2v0c-.65-.66-1.31-1.3-2-1.91a14.75,14.75,0,0,0-1.88-.16,1.4,1.4,0,0,0-2.13.08h0c-1.23,1.05-.87,2.89-2,4v0c-1.25,1-.86,2.91-2.07,4l0,0c-.65.7-1.32,1.37-2,2l0,0c-.65.7-1.32,1.37-2,2l0,0c-1,1.21-2.93.81-3.94,2.07l0,0c-.71.62-1.36,1.3-2,1.94l0,0c-1.08,1.23-3,.85-4.09,2a17.06,17.06,0,0,0-1.89.07c-1.11,1.21-3,.75-4.1,1.93h-1l-.95.05a53.42,53.42,0,0,1-22,0,14.93,14.93,0,0,0-1.89-.07,2.9,2.9,0,0,0-4.16,0h0c-.65.7-1.33,1.36-2,2h0a3.87,3.87,0,0,1-2.88.76c-8.75,0-17-2.24-25.13-5.24-15.88-5.85-25.32-17.39-29.62-33.49-.74-3.11-1-6.19.42-9.19a3.48,3.48,0,0,1,2.34-1.75c5.29-.74,6.87,2.86,7.9,6.93a63.38,63.38,0,0,0,5.7,14.75c6.07,11.21,16.39,12.19,24.41,2.25,1.46-1.8,2.61-3.84,4.92-4.72,9-2.18,18.32-3.66,24.56-11.74a5.47,5.47,0,0,1,5.46-1.79c9.5,1.85,18.34-2,27.5-2.85,7.9-.76,13-4.11,16-11.24,2.71-5.11,6.06-3.39,10-1.33,15.12,8,15.75,7.88,28.23-3.54,1.85-1.69,3.72-2.78,6.2-2.59,13.37,1,25.56-3.65,37.77-8,6.67-2.38,12.61-2.71,18.88,1.54,5.85,4,12.79,2.87,19.41,1.9,15.72-2.29,30.09-8.15,43.45-16.62,10.4-7.43,19.72-5.27,31.72-1.23,12.74,4.28,27.67,7.17,41.33,6,19.68-1.73,40.83.5,58.07-13.2,3.2-2.54,7.6-2,11.58-2.28,16.88-1.28,26.54-9.08,31.56-25.34,2.06-6.67,17.62-18.88,24.94-19.57.16,3.24,1.06,6.51-.68,9.6a15.38,15.38,0,0,0,0,1.92c-1.21,1.09-.74,3-1.94,4.08a13.08,13.08,0,0,0-.07,1.88c-.66.69-1.21,1.47-1.91,2.11a13,13,0,0,0-.1,1.87,24.84,24.84,0,0,1-2,2.13h0c-.65.66-1.3,1.33-1.92,2l-2.1,3.91c-.67.7-1.28,1.44-2,2.08l0,0c-.65.7-1.32,1.37-2,2l0,0c-.65.7-1.32,1.37-2,2l0,0a24.81,24.81,0,0,1-2.1,2,15,15,0,0,0-1.9.15,21.75,21.75,0,0,0-1.94,1.9l0,0c-.71.61-1.36,1.3-2,1.95l0,0c-1.06,1.2-2.93.82-4,2h0c-1.1,1.15-2.94.8-4,2h0c-1.6,1.79-4.4.1-6,2l0,0c-1.28,1-.86,2.9-2.1,3.91l0,0a22.76,22.76,0,0,1-2,2l0,0c-.65.7-1.32,1.37-2,2l0,0c-.65.7-1.32,1.37-2,2l0,0a27.64,27.64,0,0,1-2,2l0,0a16,16,0,0,1-2.11,2,12.73,12.73,0,0,0-1.86.13c-.69.62-1.35,1.26-2,1.93h0c-.7.63-1.36,1.32-2,2l0,0c-1,1.2-2.93.81-4,2.06h0l-2.12,1.94a13.36,13.36,0,0,0-1.9.08c-1.08,1.16-3,.71-4,2h0a28.28,28.28,0,0,1-16,0h0a7.39,7.39,0,0,0-8,0l-4,.11c-1.67,1.67-4.39,0-6,1.9q-1,0-2,.06c-2.33,2.06-5.73-.28-8,1.94h-1l-1,0a43.55,43.55,0,0,1-20,0h0a2.71,2.71,0,0,0-4-.05h0c-1,1.21-2.93.83-4,2.05h0c-1.1,1.17-3,.77-4.06,2a18.16,18.16,0,0,0-2,.07,8.14,8.14,0,0,1-8,0,17.78,17.78,0,0,0-1.93-.06c-.68-.64-1.37-1.26-2.07-1.89a17.69,17.69,0,0,0-1.93-.11c-.68-.67-1.4-1.3-2.09-2h0a24.2,24.2,0,0,0-2-1.93l-.06,0c-1.3-1.34-2.6-1.23-3.92,0h0c-1.24,1-.84,2.93-2.08,4l0,0c-.63.71-1.31,1.38-2,2l0,0c-.65.7-1.32,1.37-2,2l0,0c-.65.7-1.32,1.37-2,2l0,0C509.6,320.87,508.86,321.48,508.16,322.15Z"/><path class="cls-2" d="M2,254.25l.33-3.8c2-2.44-.19-5.85,1.9-8.27a.81.81,0,0,0,.27-1.2c.58-1.57.61-3.32,1.59-4.76a1.13,1.13,0,0,0,.37-1.4c.72-1.5.62-3.31,1.8-4.63v0c1.93-1.51,0-4.58,2.37-5.91l-.13.2c.8-1.35.54-3.2,2-4.24l-.1.15c1-1.26.64-3.14,2.08-4.15l-.08.14a13.61,13.61,0,0,1,2-3.23,9.41,9.41,0,0,1,2.09-1.56,3.37,3.37,0,0,1,2.33,1.16c1.5,4.2-.6,8.29-.32,12.46a28.34,28.34,0,0,1-.73,4.47c-1.13,12.29-1.88,24.57,1.42,36.65,3,11.23,7.46,14,18.93,12.38s22.64-5.65,34.45-5.24a23.81,23.81,0,0,0,7.36-.88,31.55,31.55,0,0,1,5.72-.82,26.66,26.66,0,0,0,6.91-1.21,22.93,22.93,0,0,1,4.26-.76A36,36,0,0,0,109,268.34a25.65,25.65,0,0,1,7.61-.6c2.2.5,5.29.42,5.36,3.34s-3,3.16-5.19,3.53c-20,3.41-39.37,9.7-60.93,14.24,17.74,5.9,34.13,6.62,50.55,1.69,6.8-2.05,13.53-3.49,20.55-3,8.8.63,16.37-1.21,22.23-8.47,2.7-3.34,7-5,10.67-7.92-6.17-1-11.84,1.32-17.56.95-5.16-.33-9.49-1.88-3.08-7.45,9.65-1.91,19.32-3.52,29.19-3.4,14.22.9,28.56-1.42,42.7,1.72,3.89.86,7.91,1.24,10.92,4.26,3.35,5.51-.34,9.33-3.52,12.88a172,172,0,0,1-17.34,17.13c-6.48,4-12.64,8.52-19.89,11.18A20.1,20.1,0,0,1,178,309c-42.84,6.18-85.79,10.82-129.15,9.79a15.7,15.7,0,0,1-3.19-.57,38.49,38.49,0,0,1-4.3-1.52c-9.69-4.63-17-12.39-25.08-19.14a17.07,17.07,0,0,1-1.66-3.76l.1.19a3,3,0,0,1-2.15-2.25l.24.21c-2.25-1.36-2.91-3.94-4.45-5.84l0,.07c-1.27-1-.81-2.92-2.18-3.83l0-.11c-1-1.15-.66-2.95-1.9-4v0c-1.67-1.79-.27-4.49-1.87-6.3a1.73,1.73,0,0,0-.22-1.74A33.53,33.53,0,0,1,2,254.25Z"/><path class="cls-3" d="M688.19,236.2c-7.13,4.15-10.76,12.74-19.38,15.13-2,.56-2.52,3-2.49,5.06.17,12.21-8.11,18.26-17.33,23.37-5.55,3.07-11.59,5-18.12,4.41-4.53-.44-8.15,1.25-12,3.55-11.75,6.92-23.81,13.31-38.31,9a5.21,5.21,0,0,0-3.82.46c-6.71,4.22-14.15,2.87-21.38,3-2,0-4.79.34-5.75-.76-5-5.77-11-4-17.22-3.31-7.85.85-15.5-1-21.3-6.42-4.39-4.09-7.7-2.81-11.21.2-2.84,2.44-5.45,4.93-9.58,4.33-.27-6.66,5.87-9.33,8.73-14.05a4.84,4.84,0,0,1,2.41-.83,12.76,12.76,0,0,1,3.55,1.17c2.46.89,4.89-.16,7.34-.18a11.22,11.22,0,0,1,4.79,1.22c15.38,7.69,26.67,4.85,36.81-9.24,7-9.75,7-9.75,15.53-2,5,4.55,9.33,3.5,13.6-3.32,6.13-9.79,6.17-9.84,15.21-2.86a58.34,58.34,0,0,0,16.51,9.07c11.14,3.9,21.08,2.39,28.9-6.91s19-16.31,18.42-30.49c2.44-6.85,4.31-13.88,7.48-20.51,4.68-9.81,2.66-16.59-6-23.28a93.52,93.52,0,0,1-12.06-11.82c-.15-7-3.53-14-.39-21.12,5.81-2.57,12-1.12,18-1.52,10.24.76,20.17,2.66,29,8.42.7.81,1.42,1.6,2.18,2.35q0,1,.06,1.95c1.17,1.08.72,2.95,2,4h0c1.77,1.64.12,4.42,2,6,0,.66,0,1.32,0,2a12,12,0,0,1,0,10c0,.65,0,1.31,0,2a11.13,11.13,0,0,0,0,10.07l0,11.92c-1.22,1.08-.74,3-1.93,4.06,0,.64-.07,1.28-.07,1.92-.67.68-1.29,1.4-2,2.08h0c-.67.64-1.32,1.3-1.93,2l-.06.06a17.59,17.59,0,0,0-1.92,1.94l-.08.08a16.76,16.76,0,0,0-1.94,1.92l-.06.06c-.7.61-1.36,1.26-2,1.93h0c-.69.65-1.34,1.33-2,2h0C689.59,234.88,689.37,236,688.19,236.2Z"/><path class="cls-4" d="M378.9.41l62.75,0c1.52,1.18,4.24,0,5.06,2.6C441.28,10.3,432.09,8.7,425,12.15,412.91,13.4,407,23.63,398.93,30.61c-3.86,3.35-.16,5.82,3.15,7.07,7.43,2.8,14.85,5.63,22.53,7.74,6.39,1.77,12.67,4,18.27,7.63,3,2,6.6,4.15,2.43,8.39-2.92,1.29-5.91.86-8.83.17-19-4.47-38.57-5.47-53.94-9.21,24.93,3.52,52,14,80.19,19.67,11.07,2.23,22,5.11,33.17,7.05,4.54.79,9.3,1.27,12.85,4.83a4.29,4.29,0,0,1-.49,4.8c-8.86,2.82-16.91-1.51-25.12-3.23-45-9.44-90.3-17.36-136-22.93-9.5-1.16-19.17-1.21-28.52-3.63-6.54-.6-10.64-3.6-10.49-10.74a9.28,9.28,0,0,1,3.54-6.68,26.59,26.59,0,0,1,3.61-2.3c.77-.49,1.57-1,2.36-1.41,1.14-.8,2.23-1.67,3.3-2.58,23.18-13.87,47.18-25.83,73.62-32.12,1.45.07-.09-2,.27-.68,0,0-.11.07-.35.15-5.39,1.87-10.78,3.25-16.2.1C377.48,1.66,377.69.9,378.9.41Z"/><path class="cls-5" d="M538.21,14a1.74,1.74,0,0,0,1.76.31c1.81,1.57,4.39.29,6.24,1.69a1.75,1.75,0,0,0,1.77.31c1.8,1.6,4.44.22,6.25,1.78a1.32,1.32,0,0,0,1.51.31,17.24,17.24,0,0,1,4.06,2.06c6,10.87,15.83,16.11,27.32,19.8,16.12,5.18,32.91,7.6,49,12.79,1.43.27,3.1,0,4,1.62l-.22-.23a6.13,6.13,0,0,1,2.39,1.76h0c1,1.25,3.06.78,3.86,2.37l-.19-.19c1,.32,1.54,1.17,2.36,1.69l.11.06c.86,1.39,3,.86,3.72,2.43l-.19-.19a7.66,7.66,0,0,1,2.33,1.83h0c1,1.26,3.12.75,3.77,2.5l-.21-.24a4.16,4.16,0,0,1,2.36,1.94l-.12-.11a27.64,27.64,0,0,1,2.22,1.83l.06,0c.89,1.34,3.08.79,3.68,2.54l-.21-.23a3.54,3.54,0,0,1,2.31,2l-.17-.16a6.5,6.5,0,0,1,2.26,2l-.07-.07c.76.58,1.38,1.3,2.14,1.89l0,0c2.58,2.15,5.47,3.93,7.71,6.49l-.2-.23a3.24,3.24,0,0,1,2.2,2.2l-.2-.2a3.24,3.24,0,0,1,2.2,2.2l-.2-.2a3.24,3.24,0,0,1,2.2,2.2l-.2-.2A3.15,3.15,0,0,1,688,92.62l-.24-.19c2.22,1.29,2.67,4,4.56,5.59l.08.12c.49.81,1.24,1.41,1.79,2.16l-.06-.07a6.66,6.66,0,0,1,2,2.25l-.18-.16c1.92,1.65,2.85,4,4.22,6l-.08-.11c1.36.92.9,2.91,2.24,3.84l0,.07a8,8,0,0,1,1,1.89c.45,1,.83,2,1.27,3,.38.65.73,1.32,1.06,2,.49,1.1.87,2.23,1.31,3.36.18.85.31,1.7.41,2.57-.33,3.94-2.51,4-5.32,2.47a34.06,34.06,0,0,1-6-4.85C642.07,74.69,578,49.19,507.47,38.21c-3.56-.78-7.21-1.25-10.65-2.47-3.87-1.37-7.59-3.31-7.66-8-.07-4.37,2.52-7.65,6.41-9.29,8.54-3.59,17.16-7.1,26.67-7.17,2.68.24,5.48-.73,8,.87a1.34,1.34,0,0,0,1.56.24C533.72,13.75,536.28,12.62,538.21,14Z"/><path class="cls-4" d="M301,12.44l3.29-.47c1.89-1.37,4.45-.16,6.31-1.65a1.62,1.62,0,0,0,1.67-.26c1.88-1.25,3.86-.93,5.85-.39,1.12,5.05-3.41,5.11-6,6.28a260.86,260.86,0,0,0-43.26,24.81c-10.46,8.25-19.66,17.9-29.7,26.61-2.45,2.12-6,4.12-4.14,8.09,1.58,3.44,5.31,4,8.65,3.86,16.66-.59,33.12,2.94,49.8,2.35,5.71-.2,12.1-2.06,17,3,28.75,7.33,57.8,13.49,86.59,20.72,7.1,1.78,14.12,3.84,21.33,5.22,3.16.6,6.72,1.06,8.24,4.75-1.29,3.07-4.05,2.92-6.67,3.06a13.49,13.49,0,0,1-2.95-.44,34.19,34.19,0,0,0-6.95-1.51,26.78,26.78,0,0,1-4.18-.78,23.24,23.24,0,0,0-7.14-.88,43.42,43.42,0,0,1-9.45-.88c-43.91-7.93-88.15-12.62-132.69-15.16-13.94-.79-27.86-1.66-41.82-1.87-5.15-.07-10.21-.7-13-5.74-3.08-5.59,0-10.26,3-14.72,5.06-7.44,12-13.29,17.21-20.62a18.5,18.5,0,0,1,2.34-2.08c2.4-1.6,5-3,7-5.07,8.08-8.7,18.91-14.07,27.21-22.49a8.63,8.63,0,0,1,1.68-1.89l-.08,0c1.62-1.89,4.41-.28,6.08-2l-.08.05c1.8-1.86,4.55-.5,6.48-1.93a1.49,1.49,0,0,0,1.54-.34c1.4-1,3.15-1,4.68-1.59a1,1,0,0,0,1.27-.26c1.78-1.74,4.51-.28,6.33-1.88a1.9,1.9,0,0,0,1.73-.32c1.76-1.44,4.35,0,6-1.74l-.07,0C296.22,12.5,299,13.64,301,12.44Z"/><path class="cls-6" d="M16.74,295.77l19.87,15.82c1.53,1.21,3,2.57,5,2.85a4.84,4.84,0,0,1,2.59,1.82l0,0c10.21,3.11,18.25,10.54,28.21,14.17,25.68,11.46,51.36,14.92,77.09.17a8.08,8.08,0,0,1,4.77-1.08c8.48,4.29,18.53,4.4,26.47,10.38,2.65,2,6.4.18,9.63-.45,13.12-2.6,15.22-1.42,19.73,11a148.93,148.93,0,0,0,6.51,24.89c1.9,5.2.66,8.5-5.73,7.82-1.6,0-3.26.2-4.6-1l0,0c-1.08-1.18-2.9-.78-4-1.87a3.45,3.45,0,0,0-1.68-.21,12.6,12.6,0,0,1-2.31-1.74,3.82,3.82,0,0,0-1.7-.26,13.9,13.9,0,0,1-2.3-1.74,3.84,3.84,0,0,0-1.67-.27,10.38,10.38,0,0,1-2.38-1.89h0c-1-1.23-3-.81-3.93-2.17l.08.1a9.2,9.2,0,0,1-2.09-2l.06.06a10.63,10.63,0,0,1-2.06-2.07l.06.07a6.26,6.26,0,0,1-2-2.38,3.23,3.23,0,0,0-.19-1.57c-3.66-2.57-8.22.43-11.92-1.93l-.91-.15h-.92c-1.19-1.08-3.06-.74-4.18-2l0,0a19.93,19.93,0,0,0-2.08-1.82l-.14-.13a7.47,7.47,0,0,0-1.86-1.86l-.13-.14a16.24,16.24,0,0,0-1.83-2.05h0c-1.16-1.07-.78-2.94-2-4l0,0a2.55,2.55,0,0,0-3.95,0h0c-1.17,1.14-3,.81-4.18,1.91a5,5,0,0,0-1.89.27c-1.17,1-2.94.6-4,1.77a5.37,5.37,0,0,0-1.95.21c-1.25,1-3,.73-4.25,1.7l-3.76.28a68.53,68.53,0,0,1-23.9-.08l-.83-.19h-.85a13.19,13.19,0,0,1-2.32-1.75,3.42,3.42,0,0,0-1.58-.29,5.38,5.38,0,0,1-2.36-2l.1.08c-1.39-1-1-2.89-2.14-4l0,0a1.61,1.61,0,0,0-2.27,0,5.63,5.63,0,0,0-1.87.2c-9.33,1.28-18.64,1.59-27.95-.14l-.81-.17-.83,0c-1.31-.94-3.16-.66-4.34-1.9l0,0c-1.07-1.17-3-.77-4-2.15l.1.1c-1.38-.93-1-2.89-2.2-3.9h0c-1-2.76-3.76-2.85-5.92-3.84a5.43,5.43,0,0,0-1.88-.24c-1.17-1.11-3.06-.74-4.15-2l.06.06c-.66-.61-1.34-1.21-2-1.78a3.41,3.41,0,0,0-1.6-.33,6.06,6.06,0,0,1-2.39-2l.06.07a17.89,17.89,0,0,1-2.1-2l0,0c-.68-.65-1.35-1.33-2-2h0c-.64-.68-1.31-1.35-2-2h0c-.65-.69-1.34-1.35-2-2.06l0,0a12.83,12.83,0,0,1-2-2.12l.09.08c-1.35-.94-.91-2.9-2.2-3.88l0,0c-.6-.74-1.33-1.37-1.89-2.13l.08.07c-1.31-1-.95-2.91-2.09-4l0,.05c-1.27-1.12-.94-3-2-4.22a4.28,4.28,0,0,0-.17-1.78C15.05,301.28,14.3,298.42,16.74,295.77Z"/><path class="cls-7" d="M701.56,166l-.7-.13-.6.39a1.8,1.8,0,0,1-2.46.22c-8.1-5.7-17.43-9-26.28-13.22-15.09-15.42-31.43-29.15-51.09-38.54-2.31-1.1-4.75-2.55-4.59-5.82,4.23-5,9.78-3.25,14.88-2.57a112.41,112.41,0,0,1,20.4,4.7c-41.79-22.45-84.75-35.91-128.3-47.78-2.56-.7-5.27-1-7.61-2.34-5.52-3.18-5.38-5.93.47-10.78,18.2.19,35.31,5.87,52.38,11.12a310.17,310.17,0,0,1,106.63,56.85c8.84,7.82,17.95,15.36,25.91,24.12,3.75,4.12,7.82,8.05,8.6,14,0,1.44.21,3-1.35,3.86l.22-.24a6,6,0,0,1-1.87,2.34l0,0c-.63.72-1.33,1.38-2,2.06h0A5.62,5.62,0,0,1,701.56,166Z"/><path class="cls-8" d="M522.83,11.86c-8.09,2.66-16.15,5.37-24.26,7.94-2.22.71-4.31,1.32-5.77,3.4-3.08,4.35-2.41,6.76,2.3,9.41,4.14,2.33,9.25.67,13.16,3.57,5.49,3.68,10,7.68,5.1,14.91-10.93,3.13-21.37-1.31-32-2.26-8.46-.75-16.89-2-25.38-2.44C451.9,45,447.51,45,443.4,43.74a6.74,6.74,0,0,1-2.53-1.9,11.73,11.73,0,0,1-2.06-4.21c-1.15-7.28,4.44-9.93,9.21-12.73A213.32,213.32,0,0,1,491.84,5.66a5,5,0,0,1,4.34.26l3.64.42C503.05,8.39,507,6,510.25,8.12a1.63,1.63,0,0,0,1.66.19c2.5,1.87,5.78-.05,8.3,1.71a2.08,2.08,0,0,0,1.83.25A1.26,1.26,0,0,1,522.83,11.86Z"/><path class="cls-9" d="M268.26,38.18c15.51-11.4,32.71-19.8,50-28,.36-1.17,1.49-1.33,2.37-1.82a1.53,1.53,0,0,0,1.67-.26c2.59-1.78,5.9,0,8.51-1.69a1.08,1.08,0,0,0,1.45-.19c3.28-2.2,7.32.13,10.65-1.79l3.39-.33c4-2.08,8.56.36,12.54-1.69L364.32,2A25,25,0,0,1,378,2h18c-26,10.82-51.75,21.47-75.65,36.16-.62.71-1.41,1.24-2,2l-2,0c-.62.71-1.41,1.25-2,2a7.11,7.11,0,0,0-4,4c-6-3.24-1.07-6,.48-8.79s5.56-5,2.85-8.52c-2.48-3.19-6.09-1-9.17,0-9.46,3-18.4,7.42-27.7,10.84C273.94,40.72,270.08,44,268.26,38.18Z"/><path class="cls-9" d="M442.25,40.2c0,.66,0,1.32,0,2-6.71,5.17-11.65-.81-17-3-5-2-6-6.89-5.11-11.74a119.67,119.67,0,0,1,4.08-17.27c6.88-3.89,15.39-3.27,22-7.87C450.88.37,455.54,1,460.21,2c3.06.53,6.12,1.2,9.25.44,4.08,1.89,8.7-.38,12.77,1.64l3.46.31c1.92,1.52,4.86-.17,6.54,2.09-4.27,4-9.83,5.23-15.05,7.16a186.86,186.86,0,0,0-31.85,15.85c-3.53,2.14-5.51,4.56-5,8.71C441,38.81,441.51,39.6,442.25,40.2Z"/><path class="cls-10" d="M210.17,382.24c3.6-.11,6.85-.11,4.42-5.5-3.79-8.4-6.53-17.16-6.34-26.56-1.36-3.34-1.68-6.69,0-10,2.48,1.67,2.5,4.65,3.37,7,4.91,13.36,15.14,20.65,27.93,25,5.95,2,12,4.05,18.39,4a5,5,0,0,1,4.32,2c.49.47.63.9.42,1.31s-.39.59-.57.59l.07-.06c-1,1.29-2.91.88-3.94,2.12h0c-1.09,1.12-2.95.74-4,2l0,0c-1.13,1.09-3,.75-4,1.94h0c-1.17,1.18-3,.87-4.24,1.9h-.88l-.87.11c-2.33,2.15-5.77-.2-8.09,2l-3.94.12a5.24,5.24,0,0,1-5.94,0l-3.85-.18c-1.17-1.1-3.08-.7-4.12-2.06l.08.06c-1.18-1.43-2.28-3-4.1-3.69l-3.8-.33c-.74-.29-1-.65-.9-1.1S210,382.24,210.17,382.24Z"/><path class="cls-11" d="M636.54,54.05C616.1,51.55,596.32,46.26,577,39.4c-9.23-3.27-15.93-9.32-18.72-19.07a2.54,2.54,0,0,1,4,0l-.09,0c1.69,1.72,4.45.16,6.1,2l0,0c1.64,1.8,4.42.17,6,2l0,0c1.63,1.8,4.44.15,6,2.05l-.07,0c1.63,1.79,4.52.06,6,2.15l-.13-.08c1.24,1,3,.74,4.2,1.82h0c1.49,2,4.45.13,5.89,2.25l-.13-.08c1.24,1,3,.73,4.19,1.85h0c1,1.23,2.82.82,3.94,1.84a1.07,1.07,0,0,0,1.3.42c1.55.69,3.51.45,4.64,2.08L610,38.4c1.31.86,3.16.59,4.21,2l-.12-.08c1.22,1,3.1.68,4.13,2.06l-.12-.07c1.19,1,3.15.65,4.07,2.19l-.16-.11c1.29.9,3.21.56,4.15,2.14l-.19-.18c.94.33,1.51,1.19,2.36,1.65l.17.08c.84,1.45,2.76,1,3.78,2.09h0c1,1.26,3,.83,3.93,2.21l-.14-.07c.66.23.95.57.87,1S636.72,54.05,636.54,54.05Z"/><path class="cls-12" d="M259.71,25.89c2.13,1.41,1.14,2.58-.31,3.68L232.27,50.18c-2.33.85-4,2.74-6,4v0c-3,1-4.33,5.23-8.33,4.16-1.66-6-5.23-5.34-10-3.5-4.62,1.78-8.22,7.23-14.27,4.48-1.11-3.18.86-5.18,2.74-7.22.62-.65,1.28-1.27,2-1.86l-.09,0c1.05-1.27,2.93-.91,4-2.07h0c1.08-1.2,2.93-.85,4-2l0,0c1.13-1.2,2.94-.93,4.16-1.92l-.12.07c1-1.38,2.91-1.08,4.14-2.05l-.13.08c1.17-1.47,3.08-1.25,4.57-2a1.23,1.23,0,0,0,1.41-.43c1.15-1,2.91-.57,3.94-1.8h0c1.18-1.12,3-.89,4.2-1.85l-.14.09c1.43-2.14,4.4-.26,5.88-2.26l.05,0c1.2-1.06,3-.85,4.21-1.8l-.14.08c1.47-2.13,4.41-.31,6-2.22h0c1.31-1.17,3.12-1.06,4.61-1.79a1.24,1.24,0,0,0,1.43-.41c1.23-1,2.92-.75,4.19-1.64l-.17.1C256,24.69,257.81,25.09,259.71,25.89Z"/><path class="cls-13" d="M708.28,156.22C700.44,144,690.22,134,678.72,125.3a12.91,12.91,0,0,1-4.46-5.12c8.33-3.22,16.22-1.33,24,2,1.29.95,2.65,1.81,3.85,2.87,5.3,4.66,3.68-.6,4.15-2.87,1.14-1,1.71-.69,1.72.79a1,1,0,0,0,.4,1.24c1,1.4,1,3.16,1.64,4.69a1,1,0,0,0,.25,1.28,63.06,63.06,0,0,1,.05,24,.94.94,0,0,0-.33,1.23C709.88,156.63,709.29,156.86,708.28,156.22Z"/><path class="cls-14" d="M64.26,348.17l27.95.14A42.52,42.52,0,0,1,64.26,348.17Z"/><path class="cls-14" d="M106.3,356.26l23.9.08A32.71,32.71,0,0,1,106.3,356.26Z"/><path class="cls-14" d="M710.32,154.17c.94-8,.53-16-.05-24A31.49,31.49,0,0,1,710.32,154.17Z"/><path class="cls-14" d="M358.25,360.18c.39-3.33,2.6-4,5.5-4,4.83.08,9.66,0,14.49,0-2.62,3.07-6.18,1.82-9.37,1.9C365.18,358.21,361.54,358.18,358.25,360.18Z"/><path class="cls-14" d="M272.27,376.2l22,0A26.16,26.16,0,0,1,272.27,376.2Z"/><path class="cls-14" d="M554.26,312.19l20,0A22.58,22.58,0,0,1,554.26,312.19Z"/><path class="cls-14" d="M338.28,362.23l18-.08C350.28,365.45,344.29,365.32,338.28,362.23Z"/><path class="cls-14" d="M460.21,2l-13.93.33L441.65.39C447.85.81,454.28-1.56,460.21,2Z"/><path class="cls-14" d="M56,158c.93-4.79,4.53-7.37,8.2-9.88l.87,1.2c.17,5.4-3,8-7.75,9.36Z"/><path class="cls-14" d="M604.26,308.2h16A15.2,15.2,0,0,1,604.26,308.2Z"/><path class="cls-14" d="M2,254.25l.12,15.9C-.77,264.87-.62,259.57,2,254.25Z"/><path class="cls-14" d="M378,2,364.32,2C368.87-1.42,374,.68,378.9.41,378.6,1,378.29,1.5,378,2Z"/><path class="cls-14" d="M358.84,2.37c-4,2.1-8.26,1.84-12.54,1.69C350.09.61,354.63,2.72,358.84,2.37Z"/><path class="cls-14" d="M482.23,4.06c-4.33,0-8.75.76-12.77-1.64C473.75,2.72,478.35.59,482.23,4.06Z"/><path class="cls-14" d="M688.19,236.2l2-2c-.56,4,1.65,8.5-2,12C688.24,242.86,688.22,239.53,688.19,236.2Z"/><path class="cls-14" d="M86.19,126.16c1.78-3.14,4.06-5.64,7.86-6.23L94.9,121a4.45,4.45,0,0,1-.62,2.62c-1.79,2.24-3.79,4.09-7,3.39Z"/><path class="cls-14" d="M398.25,344.17c3.54-3.5,8-1.38,12-1.93C406.71,345.77,402.26,343.58,398.25,344.17Z"/><path class="cls-14" d="M680,84.64c-3.41-1.17-5.77-3.58-7.71-6.49C676.39,78.53,678.84,80.84,680,84.64Z"/><path class="cls-14" d="M168.29,362.25c4,.62,8.48-2,11.92,1.93C176.23,363.58,171.8,365.76,168.29,362.25Z"/><path class="cls-14" d="M704.26,204.2c-2.86-3.35-2.93-6.71,0-10.07C704.24,197.49,704.25,200.84,704.26,204.2Z"/><path class="cls-14" d="M704.29,192.17v-10Q708.63,187.19,704.29,192.17Z"/><path class="cls-14" d="M342.91,4.39c-3.3,2.11-7,1.85-10.65,1.79C335.34,2.79,339.29,4.6,342.91,4.39Z"/><path class="cls-14" d="M492.23,6.46l-6.54-2.09c3.55.19,7.36-1.45,10.49,1.56Z"/><path class="cls-14" d="M510.25,8.12c-3.59.09-7.21.33-10.42-1.79C503.36,6.59,507.23,4.84,510.25,8.12Z"/><path class="cls-14" d="M16.74,295.77l-.54,8.39c-3.26-3-1.61-6.84-1.61-10.39Z"/><path class="cls-14" d="M8.33,286.08a10,10,0,0,1,4.45,5.84C9.52,291.32,8.32,289.16,8.33,286.08Z"/><path class="cls-14" d="M4.26,242.18c0,2.91.06,5.82-1.9,8.27C2.51,247.58,1.29,244.4,4.26,242.18Z"/><path class="cls-14" d="M22.18,202.14A6.8,6.8,0,0,1,26.11,196c.31.38.62.75.94,1.12.59,2.95-.74,4.65-3.49,5.46Z"/><path class="cls-14" d="M46.32,336.35c2.89-.13,5.71-.16,5.92,3.84C50.2,339,47.76,338.45,46.32,336.35Z"/><path class="cls-14" d="M692.34,98a8.49,8.49,0,0,1-4.55-5.59C690.9,93,692.1,95.12,692.34,98Z"/><path class="cls-14" d="M122.18,96.15a6.57,6.57,0,0,1,6-4.08c.19.39.38.79.58,1.18A5.05,5.05,0,0,1,127,96.64a4.37,4.37,0,0,1-3.79.4Z"/><path class="cls-14" d="M330.81,6.37c-2.58,1.86-5.53,1.88-8.51,1.69C324.68,5.21,327.87,6.42,330.81,6.37Z"/><path class="cls-14" d="M532.28,316.22h8Q536.26,320.4,532.28,316.22Z"/><path class="cls-14" d="M320.63,8.32l-2.37,1.82-6-.08C314.61,7.23,317.75,8.42,320.63,8.32Z"/><path class="cls-14" d="M520.21,10c-2.92.18-5.82.29-8.29-1.71C514.77,8.42,517.9,7.24,520.21,10Z"/><path class="cls-14" d="M236.18,390.15c2.21-2.64,5.28-1.78,8.09-2C242.14,391.13,239,389.92,236.18,390.15Z"/><path class="cls-14" d="M522.83,11.86a13.07,13.07,0,0,0-.79-1.59c2.84.16,6-1,8.2,1.84Z"/><path class="cls-14" d="M44,172a6.82,6.82,0,0,1,4.2-5.88l.81.75a4.2,4.2,0,0,1,.07,3.23,6.53,6.53,0,0,1-2.2,2.44,3.33,3.33,0,0,1-2.13.27Z"/><path class="cls-14" d="M104.2,110.16a6.73,6.73,0,0,1,5.91-4.17c.2.45.4.89.59,1.33-.71,2.75-2.38,4.13-5.31,3.69Z"/><path class="cls-14" d="M576.23,312.17c2.15-2.81,5.24-1.73,8-1.94C582.12,313.12,579,311.91,576.23,312.17Z"/><path class="cls-14" d="M596.22,308.16c2.68-2.71,5.36-2.82,8,0Z"/><path class="cls-14" d="M700.16,108.35a9.26,9.26,0,0,1-4.22-6C699,103.18,700.28,105.27,700.16,108.35Z"/><path class="cls-14" d="M2.37,271.89c1.7,1.78,1.92,4,1.87,6.3C1.84,276.62,2.31,274.19,2.37,271.89Z"/><path class="cls-14" d="M650.31,284.21c1.39-2.42,3.76-2,6-2C654.86,284.54,652.5,284.11,650.31,284.21Z"/><path class="cls-14" d="M554.23,18.07A7.23,7.23,0,0,1,548,16.29C550.25,16.24,552.64,15.75,554.23,18.07Z"/><path class="cls-14" d="M272.77,20.37c-1.77,1.95-4.13,1.93-6.48,1.92C267.86,19.68,270.39,20.27,272.77,20.37Z"/><path class="cls-14" d="M286.59,16.3c-1.75,1.86-4,2-6.33,1.88C281.83,15.74,284.27,16.25,286.59,16.3Z"/><path class="cls-14" d="M10.65,224.3c-.11,2.25-.56,4.35-2.37,5.91C8.35,228,7.83,225.46,10.65,224.3Z"/><path class="cls-14" d="M266.37,22.25c-1.62,1.9-3.84,2-6.08,2C261.71,21.79,264.11,22.24,266.37,22.25Z"/><path class="cls-14" d="M568.25,22.25c-2.27.05-4.44-.18-6.1-2C564.41,20.23,566.8,19.79,568.25,22.25Z"/><path class="cls-14" d="M574.25,24.25c-2.27.07-4.41-.22-6-2C570.44,22.24,572.82,21.8,574.25,24.25Z"/><path class="cls-14" d="M546.21,16c-2.3.25-4.47,0-6.24-1.69C542.22,14.24,544.58,13.75,546.21,16Z"/><path class="cls-14" d="M294.35,14.24c-1.67,1.77-3.78,2-6,1.74C289.86,13.79,292.17,14.24,294.35,14.24Z"/><path class="cls-14" d="M586.23,310.17c1.49-2.25,3.79-1.92,6-1.9C590.76,310.56,588.42,310.12,586.23,310.17Z"/><path class="cls-14" d="M244.28,30.19c-1.58,1.84-3.72,2.15-6,2.22C239.61,29.79,242,30.25,244.28,30.19Z"/><path class="cls-14" d="M259.71,25.89l-5.38.57c1.3-2.7,3.76-2.21,6-2.21Z"/><path class="cls-14" d="M580.24,26.28c-2.25,0-4.41-.24-6-2.05C576.44,24.24,578.84,23.79,580.24,26.28Z"/><path class="cls-14" d="M226.3,390.28h5.94Q229.27,394,226.3,390.28Z"/><path class="cls-14" d="M472.27,330.15c2.21.1,4.55-.24,6,2C476.09,332.12,473.7,332.56,472.27,330.15Z"/><path class="cls-14" d="M486.23,332.17c1.49-2.25,3.81-1.92,6-1.93C490.78,332.56,488.43,332.12,486.23,332.17Z"/><path class="cls-14" d="M310.63,10.32A7.49,7.49,0,0,1,304.32,12C306,9.73,308.36,10.24,310.63,10.32Z"/><path class="cls-14" d="M414.18,342.15c1.52-2.25,3.85-1.92,6.08-1.95C418.78,342.56,416.41,342.12,414.18,342.15Z"/><path class="cls-14" d="M234.2,34.15c-1.55,1.83-3.64,2.22-5.88,2.26C229.57,33.81,232,34.26,234.2,34.15Z"/><path class="cls-14" d="M538.21,14c-2.32.19-4.58.13-6.41-1.63C534.1,12.25,536.51,11.71,538.21,14Z"/><path class="cls-14" d="M380.24,356.17c1.48-2.26,3.81-1.93,6-2C384.82,356.55,382.45,356.12,380.24,356.17Z"/><path class="cls-14" d="M301,12.44c-1.91,1.84-4.31,1.91-6.75,1.83C296,11.61,298.58,12.29,301,12.44Z"/><path class="cls-14" d="M586.21,28.4c-2.25-.07-4.47-.21-6-2.16C582.44,26.25,584.88,25.77,586.21,28.4Z"/><path class="cls-14" d="M562.24,20.3l-4,0-2.5-1.95C558.13,18.27,560.66,17.68,562.24,20.3Z"/><path class="cls-14" d="M214.31,384.41c2.65-.19,3.92,1.14,4.1,3.69A6.33,6.33,0,0,1,214.31,384.41Z"/><path class="cls-14" d="M596.21,32.4c-2.24,0-4.34-.4-5.89-2.25C592.53,30.26,595,29.81,596.21,32.4Z"/><path class="cls-14" d="M704.25,180.21c-2.29-1.47-1.93-3.82-2-6C704.63,175.63,704.2,178,704.25,180.21Z"/><path class="cls-14" d="M279,18.44A5,5,0,0,1,274.31,20C275.45,18.26,277.18,18.23,279,18.44Z"/><path class="cls-14" d="M254.5,26.36c-1,1.56-2.53,1.77-4.19,1.64C251.3,26.43,252.82,26.2,254.5,26.36Z"/><path class="cls-14" d="M248.88,28.41a5.13,5.13,0,0,1-4.61,1.79C245.32,28.35,247,28.22,248.88,28.41Z"/><path class="cls-14" d="M590.28,30.14c-1.69.06-3.22-.25-4.2-1.82C587.79,28.21,589.32,28.51,590.28,30.14Z"/><path class="cls-14" d="M6.12,236.22A5.1,5.1,0,0,1,4.53,241C4.32,239.15,4.33,237.39,6.12,236.22Z"/><path class="cls-14" d="M238.46,32.33c-1,1.58-2.52,1.87-4.21,1.8C235.21,32.51,236.75,32.21,238.46,32.33Z"/><path class="cls-14" d="M600.27,34.17c-1.69,0-3.21-.3-4.19-1.85C597.79,32.21,599.33,32.52,600.27,34.17Z"/><path class="cls-14" d="M604.22,36a4.4,4.4,0,0,1-3.94-1.84C601.87,34.2,603.33,34.5,604.22,36Z"/><path class="cls-14" d="M228.46,36.32c-1,1.57-2.51,1.9-4.2,1.85C225.2,36.51,226.74,36.21,228.46,36.32Z"/><path class="cls-14" d="M610.16,38.52a5.87,5.87,0,0,1-4.64-2.08C607.46,36.25,609.27,36.35,610.16,38.52Z"/><path class="cls-14" d="M224.25,38.18a4.27,4.27,0,0,1-3.94,1.8C221.21,38.48,222.67,38.2,224.25,38.18Z"/><path class="cls-14" d="M614.2,40.4c-1.69-.06-3.29-.3-4.21-2C611.8,38.22,613.4,38.48,614.2,40.4Z"/><path class="cls-14" d="M218.9,40.41c-1.12,1.59-2.78,2-4.57,2C215.25,40.38,217,40.24,218.9,40.41Z"/><path class="cls-14" d="M618.21,42.38c-1.69-.07-3.2-.49-4.13-2.06C615.84,40.22,617.43,40.5,618.21,42.38Z"/><path class="cls-14" d="M214.46,42.33c-.93,1.57-2.45,2-4.14,2.05C211.11,42.49,212.69,42.22,214.46,42.33Z"/><path class="cls-14" d="M622.16,44.5a4.71,4.71,0,0,1-4.07-2.19C619.88,42.23,621.47,42.52,622.16,44.5Z"/><path class="cls-14" d="M210.44,44.31c-.95,1.58-2.49,1.89-4.16,1.92C207.17,44.53,208.71,44.21,210.44,44.31Z"/><path class="cls-14" d="M626.15,46.53c-1.7-.1-3.26-.47-4.15-2.14C623.83,44.23,625.45,44.5,626.15,46.53Z"/><path class="cls-14" d="M206.31,46.21a4.48,4.48,0,0,1-4,2C203.12,46.56,204.63,46.21,206.31,46.21Z"/><path class="cls-14" d="M202.32,48.22a4.61,4.61,0,0,1-4,2.07C199.11,48.58,200.62,48.22,202.32,48.22Z"/><path class="cls-14" d="M632.27,50.17a4.26,4.26,0,0,1-3.78-2.09C630.05,48.22,631.48,48.61,632.27,50.17Z"/><path class="cls-14" d="M198.38,50.25c-.1.49-.19,1-.28,1.46-.7,1.38-1.86,1.57-3.21,1.23l-.84-1A4.81,4.81,0,0,1,198.38,50.25Z"/><path class="cls-14" d="M636.21,52.38a4.53,4.53,0,0,1-3.93-2.21C634,50.23,635.47,50.62,636.21,52.38Z"/><path class="cls-14" d="M190.05,54a5.57,5.57,0,0,1,4-2l.26.27c.63,2.95-1.18,3-3.23,2.69Z"/><path class="cls-14" d="M636.54,54.05c-.18-.57-.33-1.16-.47-1.74,1.82-.06,3.45.23,4,2.33Z"/><path class="cls-14" d="M186.05,56a5.57,5.57,0,0,1,4-2l.26.27c.46,2.79-1.27,2.89-3.26,2.66Z"/><path class="cls-14" d="M182.12,58.05c.92-1.44,2.38-1.84,3.93-2.09l.25.28c.52,2.74-1.2,2.86-3.16,2.69Z"/><path class="cls-14" d="M646.13,58.55a4.57,4.57,0,0,1-3.86-2.37C644,56.24,645.52,56.65,646.13,58.55Z"/><path class="cls-14" d="M178.15,60.09c.91-1.48,2.38-1.87,4-2l.3.34c.21,2.53-1.33,2.8-3.28,2.55Z"/><path class="cls-14" d="M174.18,62.16c.88-1.55,2.36-1.93,4-2.07l.36.4c0,2.39-1.42,2.74-3.34,2.47Z"/><path class="cls-14" d="M652.13,62.54a4.47,4.47,0,0,1-3.72-2.43C650.09,60.25,651.57,60.69,652.13,62.54Z"/><path class="cls-14" d="M168.07,66a5.4,5.4,0,0,1,4-2l.55,1.31a2.82,2.82,0,0,1-3.45,1.66Z"/><path class="cls-14" d="M658,66.68a4.65,4.65,0,0,1-3.77-2.5C656,64.26,657.56,64.68,658,66.68Z"/><path class="cls-14" d="M164.13,68.07c.91-1.46,2.38-1.85,3.94-2.08l.27.29c.42,2.68-1.23,2.85-3.19,2.65Z"/><path class="cls-14" d="M160.21,70.16c.85-1.55,2.33-1.93,3.92-2.09l.32.35c.18,2.46-1.31,2.78-3.25,2.54Z"/><path class="cls-14" d="M666,72.68a4.41,4.41,0,0,1-3.68-2.54C664.08,70.26,665.59,70.7,666,72.68Z"/><path class="cls-14" d="M154.18,74.14c.87-1.53,2.34-2,3.94-2.14.17.42.33.85.5,1.28A2.79,2.79,0,0,1,155.29,75Z"/><path class="cls-14" d="M148.16,78.13c.86-1.5,2.32-1.95,3.89-2.2.23.34.45.68.67,1a3,3,0,0,1-1.28,2,4,4,0,0,1-2.38.06Z"/><path class="cls-14" d="M142.16,82.13c.86-1.5,2.32-1.95,3.89-2.2l.67,1a3,3,0,0,1-1.28,2,4.11,4.11,0,0,1-2.38.06Z"/><path class="cls-14" d="M136.17,86.14c.85-1.51,2.31-2,3.87-2.21l.82.78a2.59,2.59,0,0,1-.65,2.07,4.35,4.35,0,0,1-2.18.54L136.94,87Z"/><path class="cls-14" d="M130.19,90.16c.84-1.53,2.3-2,3.87-2.22l.79,1-.18,1.27-1,.8a4.5,4.5,0,0,1-2.52,0Z"/><path class="cls-14" d="M114.2,102.16c.83-1.53,2.29-2,3.86-2.22l.57,1.26a2.78,2.78,0,0,1-3.3,1.76Z"/><path class="cls-14" d="M702.32,112.08a4.55,4.55,0,0,1-2.24-3.84C701.81,109,702.22,110.42,702.32,112.08Z"/><path class="cls-14" d="M704.3,114.1c1.56.92,2,2.42,2,4.08l-1.05.74-.93-.88,0,.1a3.24,3.24,0,0,1-.95-3.21Z"/><path class="cls-14" d="M708,123c-.58-.24-1.15-.51-1.72-.79h0a2.86,2.86,0,0,1-.33-3.7l.39-.31C708.16,119.34,708.21,121.11,708,123Z"/><path class="cls-14" d="M710,128.9a5.48,5.48,0,0,1-1.64-4.69C710.17,125.34,710.22,127.07,710,128.9Z"/><path class="cls-14" d="M708.28,156.22l1.71-.82c.2,2,.11,3.8-2.13,4.66Z"/><path class="cls-14" d="M702.26,174.19c-1.59-.88-2-2.35-2-4C701.9,171.06,702.23,172.55,702.26,174.19Z"/><path class="cls-14" d="M38,180c.25-1.57.7-3,2.22-3.86.27.38.54.75.8,1.13a2.76,2.76,0,0,1-1.76,3.31Z"/><path class="cls-14" d="M32,188c.25-1.57.7-3,2.22-3.88.27.38.53.76.8,1.13a2.78,2.78,0,0,1-1.75,3.32Z"/><path class="cls-14" d="M26.11,196c.19-1.58.58-3.05,2.13-3.9l.85,1.1a4.49,4.49,0,0,1-.22,2.71,1.94,1.94,0,0,1-2.44.41Z"/><path class="cls-14" d="M20,206c.23-1.55.64-3,2.15-3.85l.31.23c1.25,1.91.75,3.28-1.27,4.2Z"/><path class="cls-14" d="M16.19,212.17c.09-1.65.48-3.15,2-4.06l.83.87c.38,1.23.34,2.34-.9,3.11l0,0-1,.87Z"/><path class="cls-14" d="M16.83,214.15l-2.41,2.25c-.13-1.71.16-3.25,1.77-4.23l.38.29A1.22,1.22,0,0,1,16.83,214.15Z"/><path class="cls-14" d="M14.5,216.26c-.09,1.68-.49,3.21-2.08,4.14C12.3,218.62,12.58,217,14.5,216.26Z"/><path class="cls-14" d="M702.3,220.18c0-1.65.37-3.15,1.93-4.06C704.23,217.78,703.91,219.29,702.3,220.18Z"/><path class="cls-14" d="M12.52,220.26c-.06,1.7-.32,3.3-2,4.24C10.31,222.67,10.55,221.06,12.52,220.26Z"/><path class="cls-14" d="M8.29,230.19a5.12,5.12,0,0,1-1.8,4.63C6.3,233,6.42,231.24,8.29,230.19Z"/><path class="cls-14" d="M686.29,252.18c0-1.66.39-3.15,1.94-4.07C688.24,249.77,687.91,251.29,686.29,252.18Z"/><path class="cls-14" d="M4.25,278.21a4.73,4.73,0,0,1,1.9,4C4.62,281.31,4.27,279.84,4.25,278.21Z"/><path class="cls-14" d="M660.27,280.18c.85-1.59,2.34-2,4-2C663.42,279.8,661.92,280.15,660.27,280.18Z"/><path class="cls-14" d="M656.25,282.17c.88-1.57,2.37-1.94,4-2C659.4,281.81,657.9,282.15,656.25,282.17Z"/><path class="cls-14" d="M6.19,282.32a4.84,4.84,0,0,1,2.18,3.83C6.7,285.41,6.3,284,6.19,282.32Z"/><path class="cls-14" d="M648.19,288.15c.08-1.64.49-3.1,2.1-3.91C650.22,285.88,649.86,287.37,648.19,288.15Z"/><path class="cls-14" d="M628.29,304.2c.85-1.6,2.32-2,4-2.06C631.43,303.79,629.94,304.14,628.29,304.2Z"/><path class="cls-14" d="M16.36,305.94a4.87,4.87,0,0,1,2,4.22C16.53,309.3,16.29,307.69,16.36,305.94Z"/><path class="cls-14" d="M620.27,308.19c.87-1.57,2.34-1.95,4-2C623.38,307.82,621.9,308.15,620.27,308.19Z"/><path class="cls-14" d="M518.27,310.19c1.32-2.11,2.63-2,3.92,0Z"/><path class="cls-14" d="M18.31,310.11c1.56.9,2,2.38,2.09,4C18.65,313.34,18.3,311.82,18.31,310.11Z"/><path class="cls-14" d="M516.19,314.15c.08-1.64.49-3.11,2.08-4C518.22,311.85,517.87,313.35,516.19,314.15Z"/><path class="cls-14" d="M550.21,312.14c1.38-2.05,2.72-1.93,4,.05Z"/><path class="cls-14" d="M546.26,314.18c.85-1.59,2.34-2,4-2.05C549.42,313.8,547.92,314.14,546.26,314.18Z"/><path class="cls-14" d="M542.2,316.16c.91-1.57,2.41-1.94,4.06-2C545.39,315.82,543.87,316.15,542.2,316.16Z"/><path class="cls-14" d="M22.23,316.24a4.27,4.27,0,0,1,2.2,3.88C22.69,319.4,22.31,317.9,22.23,316.24Z"/><path class="cls-14" d="M462.17,326.14c1.37-1.92,2.76-2.14,4.15,0Z"/><path class="cls-14" d="M456.21,328.16c.91-1.56,2.39-1.94,4-1.94C459.37,327.83,457.87,328.15,456.21,328.16Z"/><path class="cls-14" d="M498.25,328.17c.87-1.59,2.36-2,4-2C501.41,327.8,499.91,328.15,498.25,328.17Z"/><path class="cls-14" d="M450.27,330.18c.87-1.56,2.33-1.93,4-1.92C453.37,329.83,451.89,330.15,450.27,330.18Z"/><path class="cls-14" d="M494.19,330.15c.92-1.56,2.41-1.94,4.07-2C497.39,329.82,495.87,330.15,494.19,330.15Z"/><path class="cls-14" d="M446.17,332.14c.93-1.56,2.43-1.93,4.09-2C449.37,331.83,447.85,332.16,446.17,332.14Z"/><path class="cls-14" d="M440.2,334.16c.91-1.56,2.4-1.94,4.05-1.94C443.37,333.83,441.86,334.16,440.2,334.16Z"/><path class="cls-14" d="M40.29,334.09a4.92,4.92,0,0,1,4.15,2C42.71,336.16,41.15,335.84,40.29,334.09Z"/><path class="cls-14" d="M434.2,336.16c.91-1.56,2.39-1.94,4.05-1.92C437.36,335.84,435.85,336.16,434.2,336.16Z"/><path class="cls-14" d="M428.2,338.16c.91-1.56,2.39-1.94,4.05-1.92C431.36,337.84,429.85,338.16,428.2,338.16Z"/><path class="cls-14" d="M422.17,340.14c.93-1.56,2.42-1.92,4.08-1.91C425.35,339.85,423.83,340.16,422.17,340.14Z"/><path class="cls-14" d="M52.25,340.2a4.55,4.55,0,0,1,2.2,3.9C52.68,343.39,52.31,341.88,52.25,340.2Z"/><path class="cls-14" d="M54.35,344a4.49,4.49,0,0,1,4,2.15C56.6,346.14,55.09,345.79,54.35,344Z"/><path class="cls-14" d="M58.28,346.13a5.16,5.16,0,0,1,4.34,1.9C60.84,348.16,59.2,348,58.28,346.13Z"/><path class="cls-14" d="M96.32,348.1c1.65.83,2,2.34,2.13,4C96.65,351.35,96.31,349.82,96.32,348.1Z"/><path class="cls-14" d="M150.28,350.19c1.32-1.67,2.64-2.4,3.95,0Z"/><path class="cls-14" d="M146.09,352.11a4.63,4.63,0,0,1,4.18-1.91C149.34,351.85,147.79,352.16,146.09,352.11Z"/><path class="cls-14" d="M154.25,350.22a4.38,4.38,0,0,1,2,4C154.66,353.35,154.3,351.86,154.25,350.22Z"/><path class="cls-14" d="M390.27,352.18c.86-1.57,2.33-2,4-2.06C393.43,351.79,391.93,352.14,390.27,352.18Z"/><path class="cls-14" d="M140.16,354.15a4.2,4.2,0,0,1,4-1.77C143.27,353.91,141.78,354.17,140.16,354.15Z"/><path class="cls-14" d="M386.26,354.18c.88-1.57,2.35-2,4-2C389.4,353.8,387.91,354.15,386.26,354.18Z"/><path class="cls-14" d="M134,356.06a4.47,4.47,0,0,1,4.25-1.7C137.2,356,135.64,356.17,134,356.06Z"/><path class="cls-14" d="M318.29,360.19c0-1.65.4-3.12,2-4C320.23,357.83,319.89,359.32,318.29,360.19Z"/><path class="cls-14" d="M326.27,358.16c1.65,0,3.14.43,4,2C328.64,360.15,327.13,359.81,326.27,358.16Z"/><path class="cls-14" d="M162.28,360.13a4.88,4.88,0,0,1,4.18,2C164.73,362.16,163.17,361.85,162.28,360.13Z"/><path class="cls-14" d="M316.21,364.16c.08-1.63.47-3.1,2.07-4C318.22,361.86,317.87,363.35,316.21,364.16Z"/><path class="cls-14" d="M332.29,360.28c1.65,0,3.11.34,4,1.89C334.67,362.16,333.18,361.85,332.29,360.28Z"/><path class="cls-14" d="M308.3,370.2c.84-1.59,2.31-2,3.94-2.07C311.44,369.79,309.94,370.14,308.3,370.2Z"/><path class="cls-14" d="M186.33,372a4.39,4.39,0,0,1,3.93,2.17C188.58,374.14,187.07,373.77,186.33,372Z"/><path class="cls-14" d="M302.15,374.13c.93-1.56,2.43-1.94,4.09-2C305.38,373.83,303.85,374.15,302.15,374.13Z"/><path class="cls-14" d="M266.22,376.15c1.38-2.13,2.76-2,4.16,0Z"/><path class="cls-14" d="M296.16,376.13c.94-1.55,2.43-1.92,4.1-1.93C299.36,375.84,297.84,376.16,296.16,376.13Z"/><path class="cls-14" d="M202.3,380.29a4.24,4.24,0,0,1,4,1.87C204.68,382.16,203.19,381.86,202.3,380.29Z"/><path class="cls-14" d="M258.28,382.19c.85-1.56,2.31-2,3.94-2.12C261.45,381.78,260,382.14,258.28,382.19Z"/><path class="cls-14" d="M210.17,382.24c.11.61.22,1.23.34,1.84-1.75.08-3.35-.15-4.24-1.94Z"/><path class="cls-14" d="M254.3,384.21c.88-1.56,2.33-2,4-2C257.41,383.79,255.93,384.15,254.3,384.21Z"/><path class="cls-14" d="M250.25,386.17a4.25,4.25,0,0,1,4-1.94C253.38,385.81,251.9,386.16,250.25,386.17Z"/><path class="cls-14" d="M246,388.07a4.71,4.71,0,0,1,4.24-1.9C249.32,387.87,247.76,388.16,246,388.07Z"/><path class="cls-14" d="M218.33,388a4.78,4.78,0,0,1,4.12,2.06C220.71,390.15,219.15,389.84,218.33,388Z"/><path class="cls-14" d="M522.25,310.26l2,1.93Z"/><path class="cls-14" d="M524.26,312.2c.69.66,1.39,1.31,2.09,2Z"/><path class="cls-14" d="M20.32,314.07l1.89,2.13Z"/><path class="cls-14" d="M514.22,316.16l2-2Z"/><path class="cls-14" d="M528.28,314.27l2.07,1.89Z"/><path class="cls-14" d="M120.1,98.06l2.08-1.91.42.42a2.25,2.25,0,0,1-1.31,2Z"/><path class="cls-14" d="M512.22,318.16c.68-.67,1.35-1.34,2-2C513.57,316.82,512.9,317.49,512.22,318.16Z"/><path class="cls-14" d="M510.22,320.16l2-2Z"/><path class="cls-14" d="M24.34,320l2,2.12Z"/><path class="cls-14" d="M508.16,322.15l2.08-2Z"/><path class="cls-14" d="M26.29,322.12c.65.69,1.31,1.38,2,2.06C27.6,323.5,26.94,322.81,26.29,322.12Z"/><path class="cls-14" d="M504.31,324.2l1.92-1.88Z"/><path class="cls-14" d="M118.06,99.94l2-1.88.25.22c.21,1.67-.35,2.45-2.13,1.86Z"/><path class="cls-14" d="M28.26,324.19l2,2Z"/><path class="cls-14" d="M694.21,100.3a2.46,2.46,0,0,1-1.79-2.16Z"/><path class="cls-14" d="M502.23,326.17l2-1.94Z"/><path class="cls-14" d="M30.26,326.19l2,2Z"/><path class="cls-14" d="M466.31,326.12l2.11,2Z"/><path class="cls-14" d="M696.12,102.48a2.58,2.58,0,0,1-2-2.25A2.94,2.94,0,0,1,696.12,102.48Z"/><path class="cls-14" d="M32.28,328.15l2.1,2Z"/><path class="cls-14" d="M470.28,328.25l2,1.92Z"/><path class="cls-14" d="M112.17,104.14l2-2,.51.53a2.39,2.39,0,0,1-1.38,1.86Z"/><path class="cls-14" d="M34.32,330.06l2.38,2A2.91,2.91,0,0,1,34.32,330.06Z"/><path class="cls-14" d="M38.31,332.37l2,1.78Z"/><path class="cls-14" d="M110.11,106l2.06-1.85.33.29c0,1.53-.56,2.3-2.19,1.8Z"/><path class="cls-14" d="M396.36,346.16c.64-.66,1.27-1.32,1.9-2C397.63,344.84,397,345.5,396.36,346.16Z"/><path class="cls-14" d="M102.19,112.15l2-2,.53.55a2.45,2.45,0,0,1-1.38,1.84Z"/><path class="cls-14" d="M94.08,348.11c.77-1.19,1.52-1.52,2.27,0Z"/><path class="cls-14" d="M100.16,114.13l2-2,.47.44a2.34,2.34,0,0,1-1.31,1.94Z"/><path class="cls-14" d="M702.29,114.12c0-.66,0-1.31.07-2l1.94,1.95-.4.44A1,1,0,0,1,702.29,114.12Z"/><path class="cls-14" d="M394.21,350.16c.67-.7,1.35-1.39,2-2.08C395.56,348.77,394.88,349.46,394.21,350.16Z"/><path class="cls-14" d="M98.06,116l2.1-1.89.31.27a2.06,2.06,0,0,1-1.17,2.12Z"/><path class="cls-14" d="M98.36,352c.78.68,1.57,1.35,2.36,2A2.86,2.86,0,0,1,98.36,352Z"/><path class="cls-14" d="M96,118l2-2,.23.2a1.89,1.89,0,0,1-1,2.28Z"/><path class="cls-14" d="M102.3,354.33l2.32,1.75Z"/><path class="cls-14" d="M94.05,119.93,96,118l.19.15c.5,1.84-.11,2.57-2,2Z"/><path class="cls-14" d="M156.27,354.17l1.83,2.05Z"/><path class="cls-14" d="M320.27,356.19c.66-1.53,1.37-1.39,2.13-.07Z"/><path class="cls-14" d="M158.23,356.36l1.86,1.86Z"/><path class="cls-14" d="M324.28,356.27l2,1.91Z"/><path class="cls-14" d="M160.23,358.35l2.08,1.82Z"/><path class="cls-14" d="M356.23,362.17l2-2Z"/><path class="cls-14" d="M314.21,366.16l2-2Z"/><path class="cls-14" d="M180.4,365.75l2,2.38A3,3,0,0,1,180.4,365.75Z"/><path class="cls-14" d="M312.21,368.16l2-2Z"/><path class="cls-14" d="M182.32,368.06l2.06,2.07Z"/><path class="cls-14" d="M184.32,370.07l2.09,2Z"/><path class="cls-14" d="M306.22,372.16l2-1.94Z"/><path class="cls-14" d="M84.19,128.15l2-2,.54.54a2.41,2.41,0,0,1-1.38,1.84Z"/><path class="cls-14" d="M190.26,374.18l2.37,1.89Z"/><path class="cls-14" d="M82.19,130.15l2-2,.54.5a2.46,2.46,0,0,1-1.36,1.89Z"/><path class="cls-14" d="M194.31,376.34l2.29,1.74Z"/><path class="cls-14" d="M264.25,378.18l2-2Z"/><path class="cls-14" d="M198.31,378.34l2.31,1.74Z"/><path class="cls-14" d="M262.15,380.13c0-.63.08-1.27.15-1.9l2-.06Z"/><path class="cls-14" d="M80.19,132.15l2-2,.54.5a2.44,2.44,0,0,1-1.36,1.89Z"/><path class="cls-14" d="M78.19,134.15l2-2,.54.5a2.42,2.42,0,0,1-1.36,1.89Z"/><path class="cls-14" d="M76.19,136.15l2-2,.54.5a2.42,2.42,0,0,1-1.36,1.89Z"/><path class="cls-14" d="M74.19,138.15l2-2,.54.5a2.46,2.46,0,0,1-1.36,1.89Z"/><path class="cls-14" d="M642.26,56.18a2.41,2.41,0,0,1-2.39-1.76A2.86,2.86,0,0,1,642.26,56.18Z"/><path class="cls-14" d="M72.19,140.15l2-2,.54.5a2.42,2.42,0,0,1-1.36,1.89Z"/><path class="cls-14" d="M70.19,142.15l2-2,.54.5a2.46,2.46,0,0,1-1.36,1.89Z"/><path class="cls-14" d="M68.19,144.15l2-2,.54.5a2.46,2.46,0,0,1-1.36,1.89Z"/><path class="cls-14" d="M66.19,146.15l2-2,.54.5a2.46,2.46,0,0,1-1.36,1.89Z"/><path class="cls-14" d="M64.23,148.11l2-2,.54.5a1.85,1.85,0,0,1-2,2Z"/><path class="cls-14" d="M54.07,160c.65-.69,1.3-1.37,2-2l.22.18a1.84,1.84,0,0,1-.84,2.31Z"/><path class="cls-14" d="M52.15,162.12,54.07,160l.25.2a1.87,1.87,0,0,1-.86,2.23Z"/><path class="cls-14" d="M706.2,162.16a2.66,2.66,0,0,1,1.87-2.34A2.92,2.92,0,0,1,706.2,162.16Z"/><path class="cls-14" d="M50.17,164.14l2-2,.32.27a2.07,2.07,0,0,1-1,2.11Z"/><path class="cls-14" d="M704.24,164.18l2-2.06Z"/><path class="cls-14" d="M648.3,60.05a2.41,2.41,0,0,1-2.36-1.69Z"/><path class="cls-14" d="M48.24,166.12l1.93-2,.41.36a1.79,1.79,0,0,1-1.72,2.21Z"/><path class="cls-14" d="M701.56,166l2.7-1.81A3.2,3.2,0,0,1,701.56,166Z"/><path class="cls-14" d="M698.29,166.11l2,.13c0,.67,0,1.33,0,2l-2-.06c-.56-.49-.73-1-.52-1.41S698.09,166.11,698.29,166.11Z"/><path class="cls-14" d="M42.15,174.12,44,172l.21.17a1.77,1.77,0,0,1-.75,2.29Z"/><path class="cls-14" d="M40.23,176.11l1.92-2,.31.25c.33,1.47-.38,2.11-1.76,2.2Z"/><path class="cls-14" d="M172.06,63.94l2.12-1.78.44.45c-.23,1.4-.77,2.3-2.39,1.53Z"/><path class="cls-14" d="M654.27,64.18a2.47,2.47,0,0,1-2.33-1.83Z"/><path class="cls-14" d="M36.09,182.05,38,180l.21.18a1.79,1.79,0,0,1-.78,2.32Z"/><path class="cls-14" d="M34.23,184.1l1.86-2,.25.21c.5,1.55-.27,2.15-1.7,2.26Z"/><path class="cls-14" d="M30.14,190.09,32,188l.2.17a1.77,1.77,0,0,1-.72,2.31Z"/><path class="cls-14" d="M28.24,192.13l1.9-2,.29.23.45,1.23-.74,1.08-1.3.13Z"/><path class="cls-14" d="M660.19,68.38a2.55,2.55,0,0,1-2.36-1.94A2.74,2.74,0,0,1,660.19,68.38Z"/><path class="cls-14" d="M18.23,208.11,20,206l.2.17c.77,1.58-.12,2.15-1.47,2.45Z"/><path class="cls-14" d="M662.29,70.1a2.52,2.52,0,0,1-2.22-1.83Z"/><path class="cls-14" d="M628.32,48A2.36,2.36,0,0,1,626,46.35Z"/><path class="cls-14" d="M158.12,72c.69-.62,1.39-1.23,2.09-1.84l.57.54a2,2,0,0,1-.54,2,1.55,1.55,0,0,1-1.93-.45Z"/><path class="cls-14" d="M700.27,224.18c.65-.69,1.31-1.38,2-2.08Z"/><path class="cls-14" d="M698.33,226.19c.65-.66,1.29-1.33,1.93-2C699.62,224.86,699,225.53,698.33,226.19Z"/><path class="cls-14" d="M668.13,74.49a2.59,2.59,0,0,1-2.31-2A2.61,2.61,0,0,1,668.13,74.49Z"/><path class="cls-14" d="M696.35,228.19l1.92-1.94Z"/><path class="cls-14" d="M694.33,230.19l1.94-1.92Z"/><path class="cls-14" d="M692.27,232.18l2-1.93Z"/><path class="cls-14" d="M690.23,234.16l2-2Z"/><path class="cls-14" d="M152.05,75.93l2.13-1.79.42.38a2.11,2.11,0,0,1-.57,1.94,1.28,1.28,0,0,1-1.81-.33Z"/><path class="cls-14" d="M670.22,76.3a2.58,2.58,0,0,1-2.25-2A2.93,2.93,0,0,1,670.22,76.3Z"/><path class="cls-14" d="M672.29,78.12a2.62,2.62,0,0,1-2.14-1.89Z"/><path class="cls-14" d="M146.05,79.93l2.11-1.8.33.28a1.89,1.89,0,0,1-.41,2,1.33,1.33,0,0,1-1.87-.28Z"/><path class="cls-14" d="M684.31,256.17l1.91-2.11Z"/><path class="cls-14" d="M682.24,260.17l2-2.13Z"/><path class="cls-14" d="M680.33,262.17l1.92-2Z"/><path class="cls-14" d="M676.22,268.16l2-2.08Z"/><path class="cls-14" d="M674.22,270.16l2-2Z"/><path class="cls-14" d="M672.22,272.16c.67-.67,1.35-1.34,2-2Z"/><path class="cls-14" d="M140,83.93l2.12-1.8.33.28.45,1.17c-.21.36-.43.72-.65,1.07a1.5,1.5,0,0,1-2.08-.54Z"/><path class="cls-14" d="M670.14,274.14l2.1-2Z"/><path class="cls-14" d="M666.3,276.19l1.94-1.91Z"/><path class="cls-14" d="M664.23,278.17l2-1.95Z"/><path class="cls-14" d="M682,86.61a2.65,2.65,0,0,1-2.2-2.2A2.56,2.56,0,0,1,682,86.61Z"/><path class="cls-14" d="M646.21,290.16l2-2Z"/><path class="cls-14" d="M644.22,292.16c.67-.67,1.34-1.35,2-2C645.56,290.81,644.89,291.49,644.22,292.16Z"/><path class="cls-14" d="M134.06,87.94l2.11-1.8.34.3c.14.39.28.77.43,1.16-.22.35-.43.7-.64,1.06a1.52,1.52,0,0,1-2.07-.52Z"/><path class="cls-14" d="M12.54,291.71A2.65,2.65,0,0,1,14.69,294,2.49,2.49,0,0,1,12.54,291.71Z"/><path class="cls-14" d="M642.21,294.16l2-2Z"/><path class="cls-14" d="M640.2,296.15l2-2Z"/><path class="cls-14" d="M684,88.61a2.65,2.65,0,0,1-2.2-2.2A2.55,2.55,0,0,1,684,88.61Z"/><path class="cls-14" d="M638.11,298.13l2.11-2Z"/><path class="cls-14" d="M634.28,300.19l2-1.93Z"/><path class="cls-14" d="M632.23,302.17l2-2Z"/><path class="cls-14" d="M686,90.61a2.65,2.65,0,0,1-2.2-2.2A2.55,2.55,0,0,1,686,90.61Z"/><path class="cls-14" d="M128.19,92.07l2-1.91.49.5c-.14,1.36-.78,2.07-2.24,1.72Z"/><path class="cls-14" d="M688,92.62a2.63,2.63,0,0,1-2.18-2.21A2.52,2.52,0,0,1,688,92.62Z"/><path class="cls-14" d="M626.15,306.15l2.12-1.94Z"/><path class="cls-15" d="M500.27,280.19c-1.72,5.82-7,9.06-10,14-16.21,12-34.58,17.36-54.54,18-4.15.14-8.39-.3-11.14-3.25-4.61-4.94-9.49-3.55-14.42-1.63a147.6,147.6,0,0,1-26.37,8c-2.26.42-4.67,1.13-6.84.75-6.75-1.17-11.26.36-15.05,6.91-2.89,5-9,6.46-15.08,4.39-5.3-1.82-10.65-3.41-15-7.42-2.55-2.37-3.13.25-3.59,2.22-5.06,1.11-9.52,2.27-12.82,7.48-3.57,5.62-9.21,4.78-14.33-2.8-4.92-7.27-8.31-6.95-14.36-1.34-7.14,6.62-16.53,6.8-31.38,2.62-2.33,7.17,2,15.32-3.11,22-2.34,1.31-1.89,4.1-3.2,6-6.27,9-20.68,8.67-26.51-.63-3.86-6.16-7.1-12.74-7.88-19.94-.37-3.48-2.31-4.14-4.42-5.4a3.32,3.32,0,0,1-1.18-3.18,14.61,14.61,0,0,1,1.24-3.36,21.35,21.35,0,0,1,1.05-2.15c.55-1.07,1.14-2.1,1.74-3.13.94-1.69,2.41-3,3.09-4.87-.82-2.88-4.38-4.44-3.76-7.95,1.14-6.61,5.06-11.78,10-15.58,14.21-10.9,28.15-22.12,42.06-33.4,2.29-1.85,4.83-3.58,8.08-3.41,5.93,2.43,5.79,8.64,8.25,13.24-12.14,12.07-25.6,22.67-38.24,34.21a18.58,18.58,0,0,0,8.42-4.23c4.86-4,9.27-3.21,14.67-.63,13.88,6.64,27.84,10.34,39.82-4a5.12,5.12,0,0,1,4.43-1.92c15,1.42,29.5-2.14,44.13-4.42.66-.11,1.56-.53,1.95-.19,8.83,7.83,19.54.59,29,3.67,6.88,2.23,13.26-.14,18.43-4.94s11.32-7,18.27-6.19c8.91,1,17.83-3.19,26.7.19,2.74,1,5.5,1.88,8.31,2.62,12.13,2.86,23.93,3.35,35.09-3.69C495.67,274.46,498.76,275.81,500.27,280.19Z"/><path class="cls-16" d="M210.3,326.22c0,1.32,0,2.64-.05,4H208.3c-2.74-2.56-2.39-5.79-2-9,2.16-6.34,1.2-11.91-3.47-17-2.1-2.28-4.36-4.95-3-8.64,7.7-8.18,16.92-15,22.67-24.94,2.28-6.77,9.06-9.11,13.5-13.76,20.34-9,36.38-23.93,52.88-38.27a13.15,13.15,0,0,1,3-.91c10.13-2.06,20.27-3.56,30.54-1.13,5,4.75-.54,6.13-2.9,7.68-10.6,6.91-21.6,13.19-31.61,21-4.75,3.83-9.41,7.84-15.69,9a229.58,229.58,0,0,0-25.48,20.25c-5.84,5.25-12.72,9.34-19.05,14.05-6.17,4.6-11.25,10.08-13.47,17.71-4.37,5.54,4.47,4.45,4,8l-4,6c-.75.58-1.28,1.39-2,2,0,.66,0,1.32,0,2A18.86,18.86,0,0,0,210.3,326.22Z"/><path class="cls-17" d="M208.29,320.2q0,5,0,10c0,3.32,0,6.65,0,10s0,6.68,0,10a6.68,6.68,0,0,1-2-3.26c-2-5.6-4.79-7.37-10.19-6.32a89.77,89.77,0,0,0-10.42,2.87c-3.48,1.13-6.64.85-9-2-3.45-4.17-7.78-5.18-13-5.66-3.27-.29-8.44.08-9.32-5.42-1.6-3.64,1.33-5.2,3.27-7.24,7.32-3.89,11.34-13.09,21.06-13.18,7.5,3.44,15.06,6.36,23.6,6C204.67,315.88,208.65,315.45,208.29,320.2Z"/><path class="cls-18" d="M252.26,350.18V323.26c6.55,3.37,12.48,5.33,19.26,5.13s12.31-2.11,16.76-7.19c1.09-1.25,2.4-2.31,3.5-3.55,2.67-3,4.94-3.2,6.62.86,1.82,4.42,4.84,7.87,8.27,11.1,2.85,2.66,5.17,2.66,7.23-.79.34-.57.57-1.21.91-1.78,4.84-8.29,4.84-8.29,13.45-4.86-3.32,8-8.3,13-17.94,12.27-3.74-.3-7.73,1.36-11.45,2.58a26.92,26.92,0,0,1-8.75,1.15c-9.22,0-9.13.12-17.33,6.26C266.76,349,259.55,349.85,252.26,350.18Z"/><path class="cls-19" d="M30.47,192.3a16.36,16.36,0,0,1,0-2,2.6,2.6,0,0,0,1.78-2.17,5.27,5.27,0,0,0,2.43-3.63l1.7-2.26,1.88-2.11a5.65,5.65,0,0,0,2.48-3.58,2.62,2.62,0,0,0,1.75-2.2,2.68,2.68,0,0,0,1.8-2.2l1.84-.43a3.13,3.13,0,0,1,1.38,1.79,6.71,6.71,0,0,1-.07,2.28c-.42,1.42-1,2.8-1.35,4.23a13,13,0,0,1-.69,2.05c-.44,1-.93,1.93-1.39,2.9-.26.67-.56,1.32-.87,2a26,26,0,0,0-1.28,4.25c-.16.8-.38,1.57-.61,2.34-.29,1.25-.55,2.5-.79,3.75-2.15,9.31-4.18,18.64-6.34,28,4.22-13.75,9.21-27,17.11-39.06,2.26-3.45,3.73-9.24,8.9-7.89,5.62,1.47,4.49,7.3,4.47,11.91a15,15,0,0,1-.5,2.74c-.67,2.2-1.48,4.35-2.1,6.57-.24.89-.54,1.76-.87,2.63-2.94,9.4-8.65,17.19-14.48,24.91-3.42,4.54-4.42,8.48,2.91,9.95,22.6.5,45.17-.26,67.73.23,4.6.1,12-1.73,12.49,4.46.42,5.47-6.83,6.13-11.62,7.12-24.73,5.16-49.89,7.18-74.94,10a24.23,24.23,0,0,1-8.89-.57c-11.72-6.64-16.37-17.06-16-30.12l0-4c2.38-9.68,6.28-18.83,9.75-28.13.27-1.1.53-2.2.8-3.3l1.57-.34.68.29Z"/><path class="cls-20" d="M138.27,266.29c-.3,1.45-1.68,3.36,1,3.78a14.57,14.57,0,0,0,6.86-.78c6.73-2.24,13.51-.55,20.41-1.22-.21,4.24-3.13,4.24-4.91,5.38-4.75,3-10.28,5.3-13.43,10.05-3.89,5.87-9.1,6.91-15.45,6.76-9.23-.22-18.11.46-27.31,3.36-16.42,5.16-33.39,3.83-49.78-1.91-2.13-.75-4.45-1.43-6.32-4.55,24.18-3.71,46.71-12.93,70.87-15.38-.62-2.36-2.62-1.26-4-1.61C122.44,262.38,130.3,264,138.27,266.29Z"/><path class="cls-21" d="M138.27,266.29c-7.17,2.28-15.09.3-22,3.88l-8,.06c-3,2.26-7-.48-10,1.94l-4,0c-2.11,1.56-4.55.74-6.84.95-8.44.79-16.93,1.89-25.33.66-5.42-.79-12.24-.1-14.28-7.66,1.67-3.44,4.94-4.24,8.25-4.84,37.71-6.84,75.52-12.92,113.93-14.09,8.23.5,16.49-.54,24.7.47,2.61.32,5.56.86,6.17,4s-1.89,4.71-4.15,6.09c-5.76,3.52-12.2,4.78-18.81,5.4-3.22.3-6.6-.89-9.65,1C158.14,263.31,148.39,267.31,138.27,266.29Z"/><path class="cls-22" d="M178.21,310.1c-7.36,3.75-12.14,10.94-19.57,14.59-17.23,3.9-34.76,5.52-52.34,6.31-12,.53-24-.2-35.91.89a94.71,94.71,0,0,1-26.2-15.65c2.33,0,4.67-.2,7,0,20.61,1.41,41.1-1.49,61.6-2.47a290.68,290.68,0,0,0,43.21-5c8-1.62,16.4-1.65,24.62-2.39l.57.95-.27,1.08a4.94,4.94,0,0,1-1.59,1.53Z"/><path class="cls-23" d="M168.25,264.16c1.92-2.52,4.72-1.75,7.29-2,8.93-.85,16.57-4.76,23.84-10-9.73-3.18-19.5-1.42-29.12-2,7-11.49,15.81-20.89,28.78-25.67a8.94,8.94,0,0,1,3.07.58c6.46,3.23,7,9.24,6.79,15.31s2.38,8.64,8.31,10c6.77,1.59,14.85.78,19.41,8-3.86,5-9.3,8.22-14.08,12.18-6.91-6.64-16-5.43-24.33-6.19C188.3,263.48,178.24,264.17,168.25,264.16Z"/><path class="cls-24" d="M48.26,266.18c6.08,5.52,13.94,5,21.25,5.86,6.18.7,12.5.14,18.75.14.66.45.87.9.65,1.34s-.44.65-.67.65l-6,0c-1.63,1.78-4.41.07-6,2-11.72-.8-22.77,3-34,5.16a46,46,0,0,1-12.79.63,10,10,0,0,1-8.17-6.56,76.4,76.4,0,0,1-3-47.22c2.82,10.26,6.89,19.89,14,28,.51,6.74,3.61,10,10.75,8.25A5.07,5.07,0,0,1,48.26,266.18Z"/><path class="cls-25" d="M208.29,320.2c-3.86-3.72-8.67-1.82-13-1.9-7.11-.12-12.27-3.62-17.07-8.2l0,0a19,19,0,0,0,2.1-1.91l0,0a6.44,6.44,0,0,1,1.9-1.74l17.65-10.92c2,3,3.58,6.63,6.25,8.92C211.76,309.31,211.46,314.42,208.29,320.2Z"/><path class="cls-24" d="M28,196.06c2.21,1.77.68,3.86,0,5.41-3.17,7.61-5.39,15.64-9.78,22.72.05-2.64-.33-5.32.91-7.81a3.06,3.06,0,0,0-1-4.29l.6-3.48,1.47-2.45a4.64,4.64,0,0,0,2.26-3.79,9.61,9.61,0,0,0,3.94-6Z"/><path class="cls-20" d="M98.24,272.17c2.83-3.27,6.63-1.53,10-1.94C105.43,273.51,101.61,271.71,98.24,272.17Z"/><path class="cls-20" d="M88.24,274.17c0-.66,0-1.32,0-2l6,0C92.81,274.55,90.45,274.12,88.24,274.17Z"/><path class="cls-20" d="M76.25,276.17c1.46-2.33,3.81-1.92,6-2C80.81,276.54,78.45,276.12,76.25,276.17Z"/><path class="cls-22" d="M44.23,316.26c-.86-.61-1.72-1.22-2.59-1.82A2.84,2.84,0,0,1,44.23,316.26Z"/><path class="cls-24" d="M16.83,214.15a10.79,10.79,0,0,1-.26-1.69l1.62-.4C17.73,212.75,17.28,213.45,16.83,214.15Z"/><path class="cls-17" d="M182.22,306.46l-1.9,1.74a10.49,10.49,0,0,1,.28-1.84A6.79,6.79,0,0,1,182.22,306.46Z"/><path class="cls-15" d="M664.26,236.18c1,7.45-1.4,13.2-7.09,18.49-4.27,4-7.85,8.92-11.66,13.48-9.78,11.7-22.5,11.42-35.06,6.12-8-3.38-14.77-8.64-21.28-14.45-1.4,3-2.66,6-4.2,8.85-5.37,10-13.42,10.31-19.84.81a35.42,35.42,0,0,1-2.24-4.94c-4.35,2.45-4.95,7.22-7.75,10.27-6.32,6.89-12.51,13.52-22.94,13.74-5.41.11-10.56.32-14.61-4-2-2.16-4.6-2.46-7.33-2.37,5.42-6.21,12-11.25,17.19-17.74,1.54-1.94,4.28-1.86,6.5-1.17,8.21,2.57,11.49-1.48,12.76-8.89a21.15,21.15,0,0,1,2.82-8.38,9.14,9.14,0,0,1,2.32-1.78c4.57-2.06,9.58-2.72,14.23-4.51,3.91-1.5,7.36-.62,9.74,2.72,5.29,7.42,13.62,8.46,21.28,8.79,8.57.36,18.67,5.18,25.42-5a1.63,1.63,0,0,1,1.88-.34c14.19,5.1,24.94-2.91,36.07-9.47A4,4,0,0,1,664.26,236.18Z"/><path class="cls-26" d="M664.26,236.18c-5.5,4.89-12.06,8-18.5,11.37a23.15,23.15,0,0,1-13.42,2.59c-5.17-.53-10.9-3.76-13.63,4.23-.59,1.74-3.41,2.09-5.37,1.2-4.45-2-9.17-.81-13.7-1.46-9.72-1.39-20.49-.54-26.29-11.3-1.35-2.51-3.65-2.45-6-1.13-4.69,2.62-10,3.07-15.1,4.49-3.86-7.81,1.74-13,5.52-18.41,2.72-3.85,6.43-1.7,9.53.47,3.48,4.23,7.59,6.56,13.45,5.73a16.92,16.92,0,0,1,12,3c2.67,2,4.24,5.07,6.71,7.29,7,6.29,10.27,6.07,15.32-2.11,2.53-4.1,5.63-5.51,9.88-4.53,12.05,2.77,18.16-5.69,24.62-13.07,3.34-3.81-.07-6.69-2.71-9.21-3-2.88-7.84-4.06-8.47-9.15-.41-2.28-.25-4.64-.83-6.86-1.57-5.93-.29-10.28,6-12.51,3.18-1.13,4.8-4.44,7.58-6.22.47-.16.95-.3,1.43-.45,3.82,0,5.77,2.9,8.1,5.2,1.61,1.59,2.56,3.57,4.76,4.86,9.3,5.46,12.63,14.7,7.66,24.2C669.11,221.46,668,229.3,664.26,236.18Z"/><path class="cls-27" d="M550.27,246.19a31.54,31.54,0,0,1-1.52,9.65c-3.28,12.09-3.21,12.44-14.65,9.84-3.62-.81-5.55-.44-7.21,2.64-.45.84-1.49,1.38-1.92,2.23-3.13,6.15-8.34,9.61-14.71,11.63-2,.53-4,3.18-6,0-.68-.65-1.34-1.32-2-2h-2c-2.95-2-5.32-4.3-9.07-.26-5.6,6-14,5.19-21.12,5.32-4.15.07-9.88.72-13.83-3.06,2.75-3.4,6.86-3.9,10.68-4.72A82.81,82.81,0,0,0,495,265.24c5.55-2.91,11.3-5.46,16-9.83,2.82-2.62,6.68-4.38,10-2.17,6.91,4.61,9.34-.69,12.55-4.78C538.67,244.29,543.46,237.67,550.27,246.19Z"/><path class="cls-26" d="M650.27,160.18c3.54,6.38,4,13.07,2,20h0c-9.63,2-19.48-.25-29.11,1.65a11.14,11.14,0,0,1-3.29-.47c-5.17-2.66-10.92-3.9-16.08-6.61-4.3-2.26-6.91-5-2.9-9.71,13.06-2.31,26.18-4.27,39.13-7.21C643.53,157,647.37,157.16,650.27,160.18Z"/><path class="cls-28" d="M650.27,160.18c-6.33-.24-12.6,0-18.66,2.09a82.3,82.3,0,0,1-31.35,3.91c-2.39,2.18-5.31,2.72-8.4,2.76-6.79-.61-14.34,2.68-20-3.86,5.14-5.82,12.49-4.39,19-5.45,4.8-.79,9.66-1,14.14-3.16,10.91-5.72,22.18-10.14,34.83-9.5a7.85,7.85,0,0,1,3.11.5c6.09,5.12,12.5,9.19,21.1,8.46,2.5-.21,6.27-.24,6.24,4.24Z"/><path class="cls-29" d="M670.27,160.17c-2.25-2.79-5.48-2.27-8.26-1.89-9,1.21-15.2-2.54-19.77-9.88,10.84-6.29,20.44-1.65,30,3.43,9.52,3.24,19.27,6.07,26.07,14.28,0,.69-.06,1.38-.1,2.07A67.39,67.39,0,0,0,670.27,160.17Z"/><path class="cls-15" d="M502.26,280.19l2,2Z"/><path class="cls-30" d="M268.26,38.18c1.55,2.21,3.23,1.24,5.15.45,10.32-4.24,20.68-8.37,31-12.52a21.24,21.24,0,0,1,4.6-1.68c2.94-.43,6.15-.75,8.05,2.23,2,3.21,1.25,6.28-1.32,9-2.06,2.14-4.19,4.2-6.14,6.43-1.3,1.47-1.1,3,.6,4.12.49,8.72.49,8.72,8,10,.69.78,1.34,1.58,2,2.4,5.5,11.2,16,15.45,26.84,19,19.64,6.46,40.12,9.3,60.19,13.94,11,2.55,22.07,5,32.18,10.36,2.08,2,6.68,2.6,4,7.22-4.26,2.17-8.46.72-12.55-.44-33.82-9.57-68.72-13.28-103.24-19a17.68,17.68,0,0,0-8-1.6c-3.11-.83-6.48-.4-9.45-1.93-2.26-2.8-5.47-2.13-8.32-1.94-19.91,1.34-39.61-2.82-59.5-2.11a16.07,16.07,0,0,1-5.82-.93c-7.4-2.67-8.6-8.6-2.61-13.51,9.93-8.14,19.83-16.27,28.26-26.06C263.69,40,266.24,39.31,268.26,38.18Z"/><path class="cls-31" d="M318.27,58.19c0-.66,0-1.32,0-2,17.34,2,34.81,3.31,52,6.26,21.43,3.67,43,6.7,64.36,10.63,24.66,4.53,49,10.28,73.63,15.08a5.8,5.8,0,0,1,5.64-1c13.51,3.52,27.05,7,40.36,11.27,2.52.81,5,1.83,6.43,4.36,7.21,6.39,17,6.29,25.3,10,4.52,2,9.56,2.89,13.88,5.46,1.93,1.14,4.48,2.34,4,5.06s-3.37,2.93-5.58,3.2c-7.91,1-15.9.22-23.85,1.38-21.67,3.14-43.41,5.83-65.32,6.78-10.05-3.45-20.74-5.72-27.69-14.94.3-1,.58-2.08,1.47-2.52,20.48-10,42.22-13.18,60.69-12.8-11.29-.93-26-5.42-40.9-9.43C449.42,83.83,395.65,75.4,342,66.59,333.73,65.24,324.38,66,318.27,58.19Z"/><path class="cls-30" d="M424.26,10.18c2.27,3.36,1.7,6.63.29,10.24-1.29,3.3-2.65,6.69-2.32,10.47.21,2.44.64,4.51,3,5.69,5.41,2.66,10.56,6.07,17,5.6,4,.62,8.48-1.6,12,2C465.91,46.74,477.63,49,489,52.8c10.87,3.66,20.5,9.49,29.67,16.17,2.94,2.15,5.91,4.45,6.12,8.64a3.61,3.61,0,0,1-2.24,2c-15-1.37-29-7-43.7-9.62-7.85-1.41-15.58-3.49-23.44-4.91-3.54-.64-7.46-.71-9.13-4.9-.22-4.28-4-4.82-6.77-6.33-11.4-6.15-24.28-8.2-36.22-12.93-12.88-5.1-13.42-6.37-3.08-15.64,3.87-3.47,8.32-6.07,11.46-10.68C414.2,10.86,419.53,10.27,424.26,10.18Z"/><path class="cls-32" d="M446.26,60.18c11,3.51,22.54,4.59,33.74,7.36,13.13,3.26,26.41,5.88,39.32,10a25.67,25.67,0,0,0,4.91.63c-.87,9-5,10.54-16,6a886,886,0,0,1-93.4-21.53c-10.79-3.08-21.71-5.72-32.6-8.4a26,26,0,0,1-9.34-3.94c10.9-.42,20.1,2.41,29.48,2.9C417.28,54,431.49,58.84,446.26,60.18Z"/><path class="cls-33" d="M508.27,84.18c3.24,0,6.48,0,9.71-.05,3.86-.07,6-2,6.25-5.92l0,0c3.09-2.49,6.39-1.12,9.49-.28,24,6.52,47.67,14.21,70.48,24.26,3.44,1.52,7.93,2.24,8.41,7.34-2.82,4-7,3.47-10.85,2.79-7.23-1.27-14.52-1.18-21.79-1.58-4.18-.23-8-1.85-12-2.86a31.84,31.84,0,0,0-5.44-2,6.18,6.18,0,0,1-2.23-1.7c-8.52-5.56-18.73-6.25-28-9.54-7.78-2.75-16-4.35-24-6.46C508.26,86.84,508.26,85.51,508.27,84.18Z"/><path class="cls-30" d="M314.25,42.16l2-2Z"/><path class="cls-30" d="M318.25,40.17l2-2Z"/><path class="cls-33" d="M698.26,122.18a84.93,84.93,0,0,1-24-2c-17.09-12-33.79-24.6-52.45-34.18A349.05,349.05,0,0,0,530,54.1c-4.55-.91-9-2.42-13.72-1.94-.6-.74-1.89-.76-2-2a31.13,31.13,0,0,0-6-14c14.86,1.14,29.33,4.67,43.61,8.43,26.25,6.93,52,15.6,76,28.45,21.6,11.54,42.61,24,60.88,40.63C691.94,116.53,696.53,117.77,698.26,122.18Z"/><path class="cls-13" d="M702.29,114.12c.53.16,1.07.29,1.61.42.17,1.2.33,2.4.5,3.6C702.66,117.35,702.27,115.84,702.29,114.12Z"/><path class="cls-13" d="M705.94,118.49l.33,3.7c-1.67-.91-2-2.42-1.92-4.15Q705.15,118.29,705.94,118.49Z"/><path class="cls-20" d="M406.28,114.17l4,0c1.6,1.9,4.39.19,6,2h2c17.72,1.73,34.84,5.65,50.85,13.73,4,3.54,5.31,7.68-.52,9.92-15.14,5.81-29.12,14-43.06,20.7-2.11-.27-.76,2.12-.92.79,0-.12.18-.08.54-.14,2.59-.5,5.34-1.31,5.07,3-8.36,5.29-17.56,2.13-26.38,2.68C389,163.5,376.53,154,361.72,150.27c-5.32-1.34-11-2.31-15.64-5.74-.85-2.71.65-4.63,2.54-6,13.47-9.59,28.09-16.42,44.76-18.12a10,10,0,0,1,2.95.47,13.84,13.84,0,0,1,1.89.49c-2.45-1.4-5.81-1-9.26-.9-4.3.05-10.54-.42-10.21-5.27s6.39-4.21,10.69-3.56c.3,0,.57.33.85.51l10,0C401.86,114.09,404.64,112.39,406.28,114.17Z"/><path class="cls-34" d="M390.29,112.17c-3.63,0-7.32-.24-10.66,3,5.93,5.7,14.67.48,20.64,6.36-14.74,1.85-28.67,5.79-41.37,13.33-4.5,2.68-9.56,4.64-12.63,9.29a4.07,4.07,0,0,1-2.83.89c-5.79-1.29-11.69-2.13-17.5-3.38-3.35-.72-8.71-.18-9.13-4.22-.46-4.35,4.95-4.29,8.14-5.51,4.63-1.77,9.9-2.73,9.45-9.47-13.6-12.85-31.09-12.72-47.8-13.31-24.63-.88-49.13-1.85-73.07-8.34a84.89,84.89,0,0,1-10.48-3.29c-8.84-3.64-11.76-10.31-6.72-18.24,5.51-8.67,12.24-16.56,21.93-21.11,2.78-1.11,4.53-4.31,8-4-5.74,9.36-14.58,16.25-20.41,25.54-1.89,3-4.75,6-2.58,10s6,4.71,10.28,4.54c4-.16,8,0,12,0,18.85,0,37.56,2.25,56.33,3.58,10.54.74,21.07,1.79,31.61,2.54,12.82.91,25.61,2.48,38.34,4.23,12.08,1.66,24.07,3.89,36.08,6C388.76,110.66,389.49,111.6,390.29,112.17Z"/><path class="cls-35" d="M468.26,132.16c-14.52-7-30.1-10.59-45.73-14-1.66-.35-3.2-.59-4.27-2h8c3.45-3.32,7.41-1.51,11.2-1,5.64.69,11.19,1.27,15.32-3.92,11-.68,20.42,3.48,29.48,9,8.6,4.13,16.78,9.2,26,12,6.88,2.11,13.63,4.52,19.25,9.2,1.84,1.54,4.86,3,1.9,6.17-7.62,4.35-15.74,3.85-23.94,2.48C493.64,142.89,480.55,138.35,468.26,132.16Z"/><path class="cls-36" d="M452.28,112.18c1.33,2.94,2.54,5.54-2.58,6-8,.8-15.6-1.69-23.44-2.06-8.17-4.62-17.59-5.15-26.4-7.48-24.23-6.41-48.77-11.67-73.2-17.33-5.43-1.26-10.9-2.32-16.35-3.51-.21,0-.46-.51-.46-.77s.26-.6.41-.9h10c1.59,1.91,4.38.19,6,2,13.63-.14,27,2.55,40.35,4.57,16.95,2.57,33.76,6.12,50.58,9.5,6.47,1.3,12.84,3.17,19.17,5.06a29.39,29.39,0,0,0,7.88.89C448.24,106.87,450.67,108.69,452.28,112.18Z"/><path class="cls-34" d="M226.27,54.21c1.76-1.7,1.76-6,6-4A6.13,6.13,0,0,1,226.27,54.21Z"/><path class="cls-35" d="M416.27,116.17c-2.2,0-4.56.37-6-2C412.46,114.24,414.82,113.83,416.27,116.17Z"/><path class="cls-35" d="M406.28,114.17c-2.21,0-4.57.37-6-2C402.46,112.24,404.82,111.84,406.28,114.17Z"/><path class="cls-37" d="M70.39,331.89c3-3.16,6.76-3.78,10.87-3.72,6.95.09,13.91-.07,20.85,0,12.89.19,25.53-1.94,38.26-3.52,6-.74,12.19-1.83,18.27,0l-4.33,5.68C126.65,348.37,98.63,345.93,70.39,331.89Z"/><path class="cls-5" d="M514.25,50.17l2,2c-4.42.81-5.14,2.92-1.77,5.9A10.46,10.46,0,0,0,519,60c36,8.14,70.75,20.3,104.76,34.48,11.53,4.8,23,10,33.67,18.47-2.47,1.63-4.47,1.11-6.63.56-6.72-1.71-13.42-3.7-20.26-4.76-4.71-.72-9.87-2.18-14.3,1.45-2.13,1-3.13-.39-4-2a561.09,561.09,0,0,0-88-30c-8-10.33-19.19-16.45-30.86-21.09a189.31,189.31,0,0,0-43.2-11.31c.68-2.31,2.65-1.27,4.07-1.6,17.26-.41,34.14,2.72,51.08,5.39C508.28,50,511.28,50,514.25,50.17Z"/><path class="cls-38" d="M612.26,108.2l4,2c21.55,10,40.87,23,56,41.66-10-1.36-19.67-5-30-3.43h-2c-3,1.34-6.13.6-9.22.61,1.8-5.87,2-5.93,10.69-3.27-.78-3.28-3.85-4.05-6-5.52-16.18-10.84-33.11-20.27-51.5-26.93-2.42-.87-6.42-.57-5.91-5.1,8.59.26,17.22-.85,25.72,1.75C606.59,110.75,610,111,612.26,108.2Z"/><path class="cls-30" d="M442.25,40.2l-2-2Z"/><path class="cls-39" d="M160.39,72.23c.15-.51.28-1,.39-1.54,1.47-.36,2.87-.83,3.67-2.27a4.57,4.57,0,0,0,3.89-2.14,5,5,0,0,0,3.89-2.14l2.39-1.53c1.56-.22,3-.63,3.89-2.12,1.57-.2,3-.62,3.91-2.1a4.76,4.76,0,0,0,3.88-2.15,4.55,4.55,0,0,0,4-2,4.5,4.5,0,0,0,4-2l3.79-.53-3.85,6.47A43.13,43.13,0,0,1,181.32,77.3c7.26-2.71,6.73,2.49,7.44,6,1,4.81-2.71,10.37,1.05,14.49,4.48,4.9,11.4,5.08,17.46,6.63,11.29,2.9,22.82,4.73,34.24,7,2.94.59,5.93,1,8.7,2.18,1.79.78,4,1.49,4,3.84,0,2.16-1.76,3.59-3.7,4.3A56.13,56.13,0,0,1,230.88,125c-22.65,0-45.3.11-67.95-.07-2.51,0-5.32-1.24-9.1,3.1,42.74-.18,83.93-2.78,124.89,2.25,9,2.65,19.42-.61,28.25,6.76-4.05,4.7-9.13,4-13.79,4-14.62.17-29.37-1-43.42,4.6a24.16,24.16,0,0,1-5.18,1.11,18,18,0,0,1-3.51.17c-30.92.83-61.88-1.37-92.79,1.83-7.52.78-16.8,3-21.78-5.68-4.5-7.87,1.23-14.75,4.39-21.45,4.54-9.59,9.09-19.25,15.44-27.85.91-1.16,1.92-2.26,2.85-3.4.48-.73,1-1.45,1.56-2.15s1-1.36,1.54-2c.24-.33.51-.65.75-1,.43-.69.89-1.36,1.33-2s.85-1.41,1.31-2.1,1-1.39,1.45-2.06c.23-.36.49-.7.72-1C158.91,76.15,160.41,74.53,160.39,72.23Z"/><path class="cls-30" d="M278.26,132.18c-30.79-2.71-61.67-1.93-92.52-2-7.59,0-15.23-.8-22.73,1.71-2.38.79-5.33.41-7.91-.05-3.91-.7-5.69-4.23-4.63-8.45,1-3.9,3.65-3.06,6.27-2.06,2.89,1.11,5.9.8,8.88.8,22.61,0,45.23-.08,67.84.07,6.69.05,12.69-2.47,19.25-3.87a35.94,35.94,0,0,0-12.36-4.32c-16.2-3.16-32.53-5.68-48.32-10.81-6.51-2.12-9.39-4.83-6.68-11.45a14.65,14.65,0,0,0,.86-4.85c.13-3,0-5.92,0-9.24-5.38.39-6.48,6.13-11.48,7.29.38-4.22,3.69-6.55,5.78-8.84,5.11-5.63,6.63-13.94,13.7-18,4.07,1.2,6-2.86,9.31-3.77,2.52-.7,4.76-2.33,7.2-3.36s5.42-1.7,7.63-.11c2.9,2.09-.67,4.78-.13,7.24-4.29,6.4-10.4,11.09-15.65,16.59-2.57,2.68-4.87,5.48-5.9,9-1.6,5.52,0,8.49,5.56,10.6,12.4,4.7,25.4,7.07,38.34,9.62a16.44,16.44,0,0,0,8.85-.57c1.55-.57,3.49-1.68,4.73-.59,6.35,5.58,13.94,3.3,20.92,3.12a168.84,168.84,0,0,1,43.21,4.37c7.66,1.8,15.33,4.45,19.92,11.82a15.6,15.6,0,0,1-9,4c-15.79,2.08-31.47,4.89-47.27,6.89A4.94,4.94,0,0,1,278.26,132.18Z"/><path class="cls-40" d="M200.27,226.18h-2c-33.34-6.65-66.29-2.31-99.19,3.51-5.89,1-11.82,2.43-17.68-.19,0-6.65,1.5-7.93,9.87-8.26-32.17,1.24-35.37-.93-31-21h0c1.89-1.6.19-4.38,2-6,0-.66,0-1.33,0-2,2.1-8.6,3.13-17.49,7.23-25.55,3.3-6.5,6-13.3,10.37-19.24-9.82,14-21.13,27-30.7,41.23-2,3-3.34,9.21-9.73,6.14a3.17,3.17,0,0,1,.81-2.59l0-2c1.28-1,.77-2.93,2-4l0-2c.75-.57,1.27-1.37,2-2,0-.67,0-1.35,0-2,1.29-1,.78-2.93,2-4,0-.66,0-1.32,0-2,1.26-1.28,1-3.13,1.7-4.61.29-1,.57-1.93.86-2.89a2.57,2.57,0,0,0,1.72-2.21,2.7,2.7,0,0,0,1.89-2.11,2.51,2.51,0,0,0,1.85-2.15,2.65,2.65,0,0,0,1.93-2.07c3.42-2.66,6.63-5.5,8.5-9.54a2.63,2.63,0,0,0,2-2,2.68,2.68,0,0,0,2-2,2.67,2.67,0,0,0,2-2,2.67,2.67,0,0,0,2-2,2.67,2.67,0,0,0,2-2,2.67,2.67,0,0,0,2-2,2.67,2.67,0,0,0,2-2,2.67,2.67,0,0,0,2-2,2.67,2.67,0,0,0,2-2,2.67,2.67,0,0,0,2-2l2-2c3-.69,4.32-3.67,6.91-4.9,6.09,1.57,2.6,5.61,1.69,8.26-2.78,8.17-6.71,15.89-10,23.88a247.19,247.19,0,0,0-13.31,42.74c-2.09,10,0,12,10.2,10.44,9.19-1.42,18.41-2.63,27.57-4.17,3.54-.59,7.25-1.77,10.31,1.42.59,3.43-3.15,3.9-4.56,6.83,21.66-2.81,43-4.92,64.36-6.89,13.67-1.26,27.29-.57,40.93-.61,2.6,0,5.94.07,6.88,3,1,3.19-2.17,4.67-4.38,5.7C215.18,216.19,208.6,222.64,200.27,226.18Z"/><path class="cls-4" d="M120.26,204.21C109.17,205.79,98,207.06,87,209.1c-3.62.67-7.21,1-10.81,1.33-7,.69-7.94-.3-7.95-7.54,0-5.4,2.1-10.34,3.3-15.47,4-17.18,10.63-33.42,17.8-49.46,1.89-4.23,3.57-8.56,5.36-12.83a2.42,2.42,0,0,0-1.07-3.33,5.09,5.09,0,0,1,.56-1.66l2-2,2.07-1.92a2.59,2.59,0,0,0,2.18-1.82l2.19-1.81,2.07-1.88a9.61,9.61,0,0,0,5.58-4.48,2.67,2.67,0,0,0,2.19-1.8l2.21-1.74a5.19,5.19,0,0,0,3.51-2.55,2.61,2.61,0,0,0,2.13-1.86,2.59,2.59,0,0,0,2.25-1.71l3.43-1c4.47,5.67.23,10.13-2.41,14.4C110.23,131.61,100.13,154.77,92,178.8c-4,11.77-2,14.2,10.09,11.89,10.82-2.06,21.71-3.48,32.61-4.79,6.2-.74,12.63-1.39,18.74,1.13,3.1,4.69-1.47,5.63-3.85,7a90.81,90.81,0,0,1-27.77,10.33C121.27,204.34,120.76,204.27,120.26,204.21Z"/><path class="cls-30" d="M154.27,188.18a203.41,203.41,0,0,0-51.21,5.37,36,36,0,0,1-7.91.61c-9.24,0-10.43-1.56-7.53-10.71,8.47-26.68,19.55-52.21,34.47-76,2.35-3.73,4.71-7.27,3.94-11.94l2.41-3.17a2.57,2.57,0,0,0,2.24-1.72l3.22-.81c4.44,14.08,0,26.47-5.62,39.5-7.54,17.53,2.56,29.88,21.45,27.64,13.5-1.61,27.11-2.08,40.51-4.81,6.78-1.37,13.86-1.61,20.71.56,4.36,6-2.16,6.63-4.67,7.89-12,6-24,12.18-35.2,19.71-3.27,2.19-6.6,4.29-9.74,6.68C159.12,188.19,156.91,189.52,154.27,188.18Z"/><path class="cls-24" d="M48,169.6c.24,1.83.08,3.52-1.7,4.61l-.21-2.47Z"/><path class="cls-30" d="M160.39,72.23c1.66.2,3.47.44,2,2.73-1.21,1.84-2.72,3.48-4.1,5.21a7.81,7.81,0,0,1-3.59-3c-.16-.36-.3-.73-.45-1.09a14.91,14.91,0,0,0,.39-1.6,4.69,4.69,0,0,0,3.71-2.27Z"/><path class="cls-30" d="M148.13,80q.21-.8.36-1.62l3.25-.71.93,1.14a2.74,2.74,0,0,1-3.34,2.06Z"/><path class="cls-30" d="M152.22,76.13h2l.26.38c.05,1.48-.55,2.2-2.11,1.79l-.62-.59C151.9,77.18,152.05,76.65,152.22,76.13Z"/><path class="cls-30" d="M142.15,84.1c.1-.57.21-1.13.33-1.69l3.24-.72.95,1.12C145.74,85.25,144.18,85.52,142.15,84.1Z"/><path class="cls-30" d="M146.21,80.12l1.92-.09.32.41c.1,1.52-.51,2.23-2.09,1.85l-.63-.6C145.87,81.16,146,80.64,146.21,80.12Z"/><path class="cls-40" d="M146.36,82.29l2.09-1.85a5.07,5.07,0,0,0,3.91-2.15l2.11-1.79c2.7-.26,3.69,1.25,3.78,3.67h0c-.75.59-1.28,1.39-2,2,0,.66,0,1.32,0,2-.72.63-1.32,1.36-2,2h0c-.7.63-1.3,1.36-2,2q0,1,0,2c-.74.6-1.27,1.4-2,2-8.35,13.47-16.17,27.22-22,42-2.75,7,.2,11.84,7.73,11.88,7.23,0,14.53,1.1,21.73-1.26,2.73-.89,5.9-.59,8.87-.59q37.81,0,75.64,0c-3.83,8.19-11.6,2.83-18.14,5.55,22.39-2,43.62,2.1,65,1.92,5.84-.05,14.86-.3,16.06,4.85,1.42,6.05-7.76,6.18-12.42,8.35a165.8,165.8,0,0,0-42,28,9.24,9.24,0,0,1-3.15,1.06c-11.61-1.44-23.33-2.17-34.78-4.74-3.49-5,.31-6.48,4-7.2a132.48,132.48,0,0,1,17.64-2.57A30.94,30.94,0,0,0,246,176.8c6.81-3.25,7.37-7,1.74-11.86-4.43-3.8-9.93-4.9-15.46-6.14-6.68-1.49-14-.45-20-4.62-12.93-.42-25.58,1.37-38.37,3.34-9.66,1.49-19.66,1.93-29.53,2.69-4.11.31-7.84-.93-11.62-2.17-3-1-5.42-2.95-6.13-6-2.43-10.42-4-20.83,2-30.77a97.09,97.09,0,0,0,4.44-8.9c1.64-3.46,2.68-8.64.43-10.39-6.29-4.89-1.26-8.21.38-12.13l-.05.1a7.15,7.15,0,0,0,2.4-1.82l0,0a6.25,6.25,0,0,1,2-1.59,1.23,1.23,0,0,1,1.26-.65,5.4,5.4,0,0,0,2.73-1.86l-.07,0A4.28,4.28,0,0,0,146.36,82.29Z"/><path class="cls-30" d="M142.22,84.06a2.94,2.94,0,0,1-2.73,1.86,12.18,12.18,0,0,1,.72-1.81Z"/><path class="cls-30" d="M138.23,86.57l-2,1.59c.08-.57.18-1.15.3-1.72A8.26,8.26,0,0,1,138.23,86.57Z"/><path class="cls-30" d="M136.25,88.13a2.71,2.71,0,0,1-2.4,1.82,8.57,8.57,0,0,1,.38-1.81Z"/><path class="cls-27" d="M448.26,280.19c-4.14-.88-8.08-2.43-12.53-.39-2.23,1-5.26.55-7.9.34-9.49-.73-18.06.12-25.41,7.73-5.83,6.05-13.73,5.62-21.37,2.69-2.28-.87-4.65-3.34-6.93.09-3.87,5.82-8.26,3-11.86.1s-6.12-2.87-11-2c-6.34,1.08-13,4.75-19.91,2.13a6.73,6.73,0,0,0-5.73.69c-4.89,2.55-9.74,4.34-14.89.39-1.67-1.28-3,0-4,1.45-8.08,11.81-19.18,12.81-31.65,8.76a21.72,21.72,0,0,0-3.75-1.31c-5.14-.61-8.79-6-13.43-5.63-4.25.3-7.2,5.42-11.67,7.11-3.43,1.29-6.65,2.86-11.59.49,14.86-9.41,25.62-22.49,38.84-32.82,2.13-1.67,5.3-1.19,6.8-3.79,2.58-6.68,8.08-9.63,14.51-11.4,5.57.68,11.17.89,16.78,1,6.33.18,8.84,3.05,7.28,9.62s3.22,14.74,9.18,17c3,1.12,4.15-1.23,5.47-3,2.73-3.66,4.31-8.26,8.79-10.47a7.41,7.41,0,0,1,5.7.17c2,1.24,3.11,3.31,4.29,5.26,2.83,4.71,6.16,6.61,11.1,2.57,6.74-5.51,15.4-1.74,22.73-4.51,5.28-2.23,10.18-3.66,15.56.64,4.45,3.56,10,2.37,15.21.72,8.54-2,17-5.74,25.7-.38C445.25,275.11,449,275.68,448.26,280.19Z"/><path class="cls-41" d="M448.26,280.19c-6-5-12.14-8.69-20.63-6.37-3.67,1-7.33,2.87-11.38,2.35-1-7.83,4.65-12.78,8.41-18.29,2.88-4.21,5.21-.37,6.29,2.27,3.36,8.2,8.09,6.65,12.73,1.72,5.65-6,10.72-6.87,18.08-2.06,6.05,4,13.89,3.79,21.26,3.88,4.5.06,9.38-1.19,13.24,2.49-4.92,6.2-12.34,8.48-19.15,11.16-6.57,2.59-13.87,3.31-20.86,4.85A13.55,13.55,0,0,1,448.26,280.19Z"/><path class="cls-42" d="M294.25,256.18l-14,10c-2.14-.22-3.69-1.09-3.92-3.49-.32-3.33-1.34-6.34-4.08-8.52l14-10c5.22.67,9.91,2.24,12.64,7.25C298.6,254.22,296.4,255.18,294.25,256.18Z"/><path class="cls-1" d="M218.28,314.2c-6.92-1.52-7.06-1.8-4-8,.12,2.81,1.89,3.41,4.36,4.14C222.87,311.57,220.19,313,218.28,314.2Z"/><path class="cls-1" d="M212.28,322.21l2-2Z"/><path class="cls-1" d="M210.3,326.22l2-2Z"/><path class="cls-43" d="M200.27,226.18c6-9.87,17.32-12.55,26-19.41-16,.33-31.94-1.93-47.95.87-9.36,1.64-19,.9-28.59,2.28-9.74,1.4-19.58,2.25-29.33,3.86a34.93,34.93,0,0,1-13.06-.2c3.35-5.4,9-6.24,12.93-9.37v0c6.81-1.4,13.34-4.1,20.36-4.61,10.59-.51,21.28-1.45,31.75-1.48,32.13-.1,64.52-.08,95.62,9.83,7.4,2.36,16.55,3.11,20.23,12.19-14.33,16.64-31.07,30-51.6,38.31-7.34-3.23-15.23-4.53-23-6.11-7.12-1.45-7.19-1.16-7.35-8.61a52.2,52.2,0,0,1,0-6C206.75,232.53,205.13,228.53,200.27,226.18Z"/><path class="cls-44" d="M402.58,164.34c9.37-.46,18.88,1.06,28.08-2,4.88-4.65,11.31-2.88,17-3.79,10.7-1.73,21.24-5.08,32.29-4.17a5.78,5.78,0,0,1,2.64,1.82c0,2.46-1.74,3.54-3.65,4.12-20.54,6.25-38.29,18.57-58.06,26.55a278.16,278.16,0,0,1-34,11.47c-20.05,5.23-39.11,13.11-58.2,21a4.81,4.81,0,0,1-4.38-1.15,168.7,168.7,0,0,0-34.12,1.94c1.15-6.91,7.95-7.74,12.16-11.37a443.33,443.33,0,0,0,74.17-36.39c1.27-.71,2.57-1.36,3.88-2A63.82,63.82,0,0,1,402.58,164.34Z"/><path class="cls-45" d="M302.92,210.57l-12.76,9.57c-.65,0-1.3,0-1.94,0-11.26-7.17-23.76-11.34-36.69-13.75-15.54-2.89-31.27-4.08-47.15-4.59-10.48-.33-21.19-2.84-31.52-1.19-10.93,1.74-21.74,1.25-32.6,1.61.15-4.29,3.67-4.25,6.41-4.57,24.36-2.85,48.79-3.75,73.18-1,10.06,1.12,19.72,2.17,28.41-4.4h2c9.41-3.88,17.21,2.3,25.72,4.08C285.3,200.39,295.45,203,302.92,210.57Z"/><path class="cls-46" d="M324.28,218.2l4,0c5.74-2.45,11.42-3,17,.5,3.44,5.11-1.52,6.35-4.17,7.61-13.21,6.25-24.68,15.14-36.57,23.42-2,1.08-3.45,3.46-6.24,2.48-3.1-4-8.93-3.95-12-8,6.63-7,15.31-11.16,23.15-16.46C314.26,224.4,319.31,221.36,324.28,218.2Z"/><path class="cls-47" d="M80.26,228.19c13.7.73,26.86-2.95,40.18-5.15,21.39-3.53,42.91-3.24,64.41-2.53,4.67.15,9.87,1.59,13.41,5.66a32.11,32.11,0,0,0-9.65,6.58c-6,5.94-12.22,11.64-18.35,17.43-19.48,0-38.62,3.24-57.91,5.34S74.11,262,54.83,264.15a22.53,22.53,0,0,0-6.57,2c-2.64.06-5.28-.13-7.84.91-2.83,1.15-5.88,2.11-8-1.14s-3.73-6.48-.15-9.78c13,.16,25.65-2.41,38.47-3.55,15.51-1.37,30.78-4,46.13-6.34,4.31-.65,8-2.31,13.24-3.69-3.14-3-5.5-2.37-7.57-2.38-22,0-43.95,0-65.92-.09-3.5,0-7.41,1.35-10.36-1.94C57.15,233.33,67.87,227.91,80.26,228.19Z"/><path class="cls-48" d="M80.26,228.19c-11.25,3.62-21.91,9.21-34,10-5.91-1.61-7.05-3.19-5.08-7.37a20.8,20.8,0,0,1,2.79-4,131.18,131.18,0,0,0,16.29-26.58c0,.33,0,.67,0,1-2,20.24,9.59,20.44,23.25,18.25,1.93-.31,3.82-.93,5.75-1.17a57,57,0,0,1,6,0C90.76,223.56,84,223.72,80.26,228.19Z"/><path class="cls-48" d="M40.26,194.17c4-1,5.72-4.57,7.67-7.51C58,171.5,69.64,157.53,80.56,143a9.39,9.39,0,0,1,2.4-1.64c.24.75.76,1.49.57,1.88C76,158.74,67.78,173.89,63.6,190.76c-.14.55-.87,1-1.33,1.43-.94-4.25,2.64-10.77-2.92-12.27-3.69-1-4.46,5.7-6.63,8.85-8,11.59-12.36,24.81-16.47,38.11a17.56,17.56,0,0,1-2.86,6c-3.05-8.85.75-16.44,1.75-24.17.63-4.89,3.07-9.44,3.12-14.49A1.32,1.32,0,0,1,40.26,194.17Z"/><path class="cls-48" d="M62.26,194.18c-.06,2.2.36,4.57-2,6C60.33,198,59.91,195.62,62.26,194.18Z"/><path class="cls-24" d="M46.25,176.19c0,1.64-.37,3.13-2,4C44.3,178.53,44.65,177.05,46.25,176.19Z"/><path class="cls-24" d="M42.25,186.19c0,1.64-.37,3.13-2,4C40.3,188.54,40.64,187.05,42.25,186.19Z"/><path class="cls-24" d="M44.24,182.19l-2,2Z"/><path class="cls-24" d="M30.47,192.3c.25.15.73.34.71.44-.11.66-.42.54-.77-.32Z"/><path class="cls-24" d="M40.26,194.17l-2,0,2-2C40.26,192.85,40.26,193.51,40.26,194.17Z"/><path class="cls-17" d="M180.28,308.24l-2.1,1.91A2.68,2.68,0,0,1,180.28,308.24Z"/><path class="cls-41" d="M550.27,246.19c-6.91-5-11.19.57-16,4-3.32-5-3.39-10.66,2.7-11.93,7.41-1.55,10.41-6.37,13.64-11.79.85-1.42,1.86-2.74,2.84-4.09,3.59-4.93,8.81-3.63,12.55-1.7,3.58,1.85,3,6.19.28,9.49-3.41-2.62-6.55-4.59-8.75,1.42-1.78,4.85-5.64,8.95-5.29,14.58Z"/><path class="cls-49" d="M566.28,230.17a22.59,22.59,0,0,0-.06-3.95c-.31-1.6.07-5.62-1.69-4.13-3.24,2.75-6.21-4.05-8.59.74a41.51,41.51,0,0,1-5.73,9.16c-3.25,3.66-4.46,11-12.36,7.55-1.82-.81-3,1.1-3.25,2.77-.33,2.6-.24,5.25-.33,7.88a45.87,45.87,0,0,1-3.34,6c-2.52,3.37-5.19,5-8.57.52-3.26-4.29-6.89-2.77-10,.42a31.39,31.39,0,0,1-16.1,9c-8.61-.45-17.24.73-25.87-.86-6.58-1.21-12.78-2.81-18.87-10.08-3.17,4.15-5.32,8.12-8.51,10.91-7,6.12-10.35,5-13.56-3.52l-2.1-5.56-11.1,19.1c-4.95,3.15-9.92,2.07-14.88.05-8.12-3.3-8.12-3.3-15.11-2.05-4.52-2.3-9-4.36-13.81-.46-1.21,1-3.55,2.05-4.66,1.15-5.85-4.69-13.44-1.5-19.54-4.67l-6,0c-11.44,2.48-18.33-3.9-16.43-15.32-5.93-.14-11.89.73-17.76-.23-3.35-.55-7.8-.73-5.78-6.4,13.77-10.74,28.88-19.37,44-28a6.59,6.59,0,0,1,3.74-4.42c19.22-8.85,37.74-19.41,58.76-23.83,16.86-1.54,33.22-.15,48.07,8.88,5.15,3.13,9.36,1.68,13.78-1.32,14-9.5,30.57-12.61,46-18.57,4.49-1.73,8.63-.13,11.89,3.05,5.15,5,10.82,5,17.47,3.62,14.79-3.13,29.66-5.3,42.16,6.81,2.35,2.28,5.6,1.52,8.59,1.37a121.35,121.35,0,0,1,20.88.23,18.29,18.29,0,0,1,7.23,3.11c3.1,3.19,4.94,7.5,10.67,7.9,4.74.34,4.86,4.81,4.11,8.61-1.59,8-11.31,15.91-19.21,14.07-6.65-1.54-10.46.59-14.75,5-3.41,3.52-7.88,6.41-13.39,3.48-4.11-.73-8.25-3.3-12.31-1.86C573,238.8,569.3,235.62,566.28,230.17Z"/><path class="cls-41" d="M592.26,238.19c6.71-1.19,12.68-3.59,16-10.08,1.66-3.22,3.72-3.7,7.26-2.37,10.21,3.85,20.59-1.85,22.44-11.88.72-3.9-1-6.22-4.65-4.87-5.76,2.11-7-.42-7.56-5.18-.14-1.25-1-2.41-1.55-3.62,7.49-3.75,11.89.75,16,6a4.27,4.27,0,0,0,3.51,4.15c4,1.17,6.44,4.57,8.92,7.61s2.66,7.1-.65,8.7c-4.24,2.07-6.42,5.17-8.74,8.84-2,3.21-5.68,4.44-9.46,4.63-3,.15-6.08.56-8.92-.07-4.69-1-6.95.21-8.77,4.9-3.17,8.19-6.68,8.69-14.38,4.24A21.73,21.73,0,0,1,592.26,238.19Z"/><path class="cls-50" d="M640.25,206.19c-5.29-2.11-9.77-6.37-16-6-2.25.11-4-1.18-6-2,.21-6.24.53-12.47,4-18a49.17,49.17,0,0,1,30,0c-2.32,4.72-4.31,9.65-10.74,10.22-3.07.28-3.53,2.7-2.46,5.14C640.58,199,640.17,202.61,640.25,206.19Z"/><path class="cls-41" d="M622.26,180.18c0,6.29,1,12.83-4,18-9.24.65-18.6-1.44-27.74,1.51-2.33.75-3.17-1.12-4.48-2.79-4.47-5.73-10.19-8.93-17.89-8.83-8.67.11-17.31,0-25.54,3-5.78,2.14-10,.65-14.26-3.67-6.26-6.38-6.48-6.12-14.34-2.38a27.32,27.32,0,0,1-5.6,2,114.54,114.54,0,0,0-41.7,18.14c-3.13,2.22-5.43,1.91-8,0-12.44-8.94-26.5-11.65-41.48-11.08-3,.12-6,0-9,0,3.32-6,9.56-5.88,15.08-6.69,21.69-3.18,43.35-6.46,64.57-12.07,8.77-2.33,17.07-5.49,23.54-12.25s15.22-5.43,23.43-5.76c12.44,2.39,25.48,1.48,37.38,6.84,6.36,3.92,13.39,1,20,2,1.34,1.41,3.5,2.76,3.33,4.66-1.24,13.51,7,10,14.41,8.28,3.5-.83,7.07-1.43,10.26,1.07Z"/><path class="cls-50" d="M620.26,180.18c-9.12.09-17.64,3.51-28,5.51,3-7.09,2.13-13.35,0-19.52h8c.08,2.7.25,4.73,3.62,6.12C609.45,174.6,616.11,174.91,620.26,180.18Z"/><path class="cls-51" d="M572.22,164.21c-12.88.77-25.25-3.07-37.94-4.06-12.81-2.19-25.74,0-38.59-1-4.56-.34-9.4.72-13.29-2.76l-.45-.69c5.93-7.16,14.36-6.68,22.42-7.36,8.66-.34,17.35-.3,25.87-2.25,7.32-5.29,14.65-1.08,22,0,6.46,2.28,13.19,1.66,19.74,1.28,12.95-.77,23.94,3.92,34.33,10.85a11.55,11.55,0,0,1-8.81,3.61C588.91,161.6,580.77,165,572.22,164.21Z"/><path class="cls-52" d="M606.28,158.2a17.13,17.13,0,0,1-12.11-3.3c-5-3.73-10.68-4.75-16.75-4.66s-11.86,0-17.79-.07c-2.59,0-5.34.5-7.39-1.81,2.71-3.1,6.45-3.22,10.08-3.26q29.35-.33,58.71,0c3.3,0,6.67.26,9.28,2.8l9.91.51c-.24.22-.49.62-.73.62C627.6,149.15,616.89,153.49,606.28,158.2Z"/><path class="cls-53" d="M318.27,58.19C330.08,62.83,342.7,63.87,355,66c23.73,4.17,47.64,7.19,71.31,11.76,22.7,4.39,45.48,8.34,68.23,12.42,3.26.58,6.25,2.44,9.7,2,2.35,5.34-1.68,7.12-5.2,8.84a43.5,43.5,0,0,1-19.25,4.13c-13.86,0-27.72.38-41.55-1-12.51-6.44-26.22-9-39.77-11.83-18.08-3.8-36.33-6.94-53.94-12.58-6.54-2.09-12.73-5.66-18.63-9.3A16.12,16.12,0,0,1,318.27,58.19Z"/><path class="cls-5" d="M438.26,104.18c2.6-3.06,6.16-1.91,9.34-2,11.31-.12,22.62-.3,33.92,0,6.94.21,12.9-2.76,19.22-4.61,2.54-.74,3.39-3,3.52-5.49,12.07,4.56,24.81,6.6,37.23,9.81a82.37,82.37,0,0,1,10.75,3.65c-23.76,1.55-45.29,4.17-65.79,12.2-1.54.6-3.2.83-4.19,2.35-6.35-.12-11.83-3.37-17.77-4.93-4.06-1.07-7.82-3.32-12.21-3.08l-8-4C442.87,105.93,440.35,105.37,438.26,104.18Z"/><path class="cls-54" d="M243.78,73.9c4.65-3.63,8.57-6.54,12.31-9.65,6.57-5.48,13.79-10.34,16.94-19,.84-2.32,2.88-5.29,5.93-3.77,2.21,1.11,1.66,4.32,1,6.42a90.07,90.07,0,0,1-4.47,10c-1.69,3.5-.86,5.54,3,6.63,9.89,2.78,20.07,3.9,30.14,5.67,3.9.69,7.79,1.48,11.66,2.33a2.91,2.91,0,0,1,2.59,2.63,2.7,2.7,0,0,1-2.53,2.59,40.62,40.62,0,0,1-5.94.42c-18.63,0-37.26,0-55.89,0A24.44,24.44,0,0,1,243.78,73.9Z"/><path class="cls-4" d="M326.27,88.17c-2.2,0-4.56.37-6-2C322.46,86.25,324.82,85.83,326.27,88.17Z"/><path class="cls-2" d="M630.31,147.9c-22.72,1.41-45.46.69-68.19.37-3.29-.05-6.59.06-9.88.09l-22-2.25-22-13.93c17-1.78,34.09-2.43,51-5.13,10.35-1.64,20.82-3.63,31.47-2.91,3.79.26,7.6,0,13.38,0a33.43,33.43,0,0,0-12-6.34c-10.68-3.48-21.31-7.13-31.92-10.84-.86-.3-4-.52-1-2.83.68-.53.33,1.11,1.08,0l2,0c1,1.28,2.94.78,4,2l12,2c2,2.55,4.94,3.07,7.68,4.21,18.93,7.9,38,15.47,54.65,27.89,1.6,1.19,3.35,2.14,4.27,4.53C640.54,148.28,634.41,143.89,630.31,147.9Z"/><path class="cls-31" d="M566.29,106.16c-1.66,0-3.15-.35-4-2C563.92,104.22,565.4,104.57,566.29,106.16Z"/><path class="cls-37" d="M504.37,148.36c-6.86,4.33-15.24,4-22.42,7.37-10.83,1.66-21.7,3.09-32.46,5.09a98.55,98.55,0,0,1-18.83,1.54c-2.79-.6-5.79.61-9.2-1.3,14.63-9.19,29.26-17.27,45.23-22.61,4.82-1.61,5.06-3.18,1.57-6.29C481.51,134.87,494.24,138.72,504.37,148.36Z"/><path class="cls-55" d="M402.58,164.34c-7.11,3.52-14.79,5.43-22.24,8a291.51,291.51,0,0,0-50.22-15.79c-2.65-.59-5.1-1.56-6.33-4.29,5.1-7.07,12.55-8.16,20.48-8.06h2c12.94,1.3,24.69,6.48,36.53,11.33C389.48,158.23,395.39,162.72,402.58,164.34Z"/><path class="cls-56" d="M344.27,144.17l-20,8c-2.63,2.73-6,2.57-9.27,2.06a566.08,566.08,0,0,0-59.13-5.88c-2.85-.8-5.68-1.66-7.6-4.18,6.95-4.28,14.65-5.84,22.66-5.95,10.95-.14,21.91,0,32.93-.58-5.6-2-11.16-3.79-17.23-3.52-2.87.13-6.09.91-8.35-1.94,12.57-2.17,24.86-5.78,37.64-6.93,7.48-.68,14.89-2,22.34-3.06.57,7.23-4.48,9.88-10,11.59-3.39,1.05-7.05,1.18-10.09,3.49C326.63,140.75,336.51,138.45,344.27,144.17Z"/><path class="cls-57" d="M254.27,146.16c20.91-.62,41.52,2,62,5.63a58.18,58.18,0,0,0,7.94.38c10.2,2.69,20.5,5.05,30.56,8.17,9,2.79,18.93,3.92,25.53,12l-2.25,1.41c-16.51,1.62-33.15,1.54-49.57,4.22s-31.6,7.78-45,17.8c-2.13,1.59-4.33,3.16-7.27,2.44-8.95-.74-16.93-5.73-26-6,2.13-7.44,9.23-10,14.5-14.06,11.84-9.19,25.27-15.68,39.93-20.55-9.22-4-18.43-2.6-27.39-3.53-17.89-1.87-35.79-1.84-53.71-1.87-3.38,0-5.91-1-5.51-6,4.91,0,9.85.13,14.78,0,3.2-.11,6.75,1.11,9.38-1.92h2C247.28,146.6,251.26,143.87,254.27,146.16Z"/><path class="cls-40" d="M254.27,146.16c-3.37-.45-7.17,1.34-10-1.93l4-.06C250.45,144.27,252.82,143.83,254.27,146.16Z"/><path class="cls-30" d="M156.27,82.18l2-2Z"/><path class="cls-30" d="M154.26,86.18l2-2Z"/><path class="cls-30" d="M152.28,88.19l2-2Z"/><path class="cls-30" d="M150.27,92.18l2-2Z"/><path class="cls-33" d="M248.26,192.18c-1.44,3.12-4.22,5.08-6.51,7.45a6.23,6.23,0,0,1-6.25,2.06c-22.55-5-45.48-4-68.23-3.12-8.89.35-18.38-.18-27,3.61-6.76-.28-13.15,3.19-20,2,7.75-5.66,17.87-5.69,25.82-10.88,2.7-1.76,6.15-2.29,8.19-5.11,1.94-.83,3.73-2.12,6-2,17.56-5,34.93-5.18,52,2C224.5,187.47,236.43,189.37,248.26,192.18Z"/><path class="cls-47" d="M212.27,188.17c-17.26-2.6-34.65-1.9-52-2,5.89-8.12,15.64-10.83,23.27-16.53,6.14-4.59,13.68-6.64,20.35-10.3,2.88-1.58,6.29-2.32,8.39-5.17,9.69-.34,19.07,1.45,28.41,3.82A24.25,24.25,0,0,1,253,166c4.21,4.75,4,7.88-1.35,11.29-4.51,2.89-9.61,5-15,4.78-7.09-.37-13.66,2.85-20.71,2.3C213.58,184.16,212.57,186,212.27,188.17Z"/><path class="cls-58" d="M117,125.19c2,3.82.87,6.51.17,9.33-2.72,10.91-3.73,22.11-4.76,33.23-.87,9.44,2.7,12.49,11.85,9.83,6.59-1.91,13.29-.15,19.65-2.28s13.15-.6,19.88-1.22c-.83,3.52-3.8,3.39-5.82,3.75-12.64,2.28-25.32,4.31-38,6.22a23.39,23.39,0,0,1-7.91-.31c-10.35-2.1-12.78-5.51-9.65-15.75C106.74,153.84,111.93,140,117,125.19Z"/><path class="cls-41" d="M302.29,248.22c.37,3.52,2.81,4,5.7,4,5.93-.05,11.86,0,18.48,0,.47,4.28-1.11,8.72,2.68,12s7.71,6.23,13.11,6c-3,4.7-5.67,9.72-9.2,14-4.23,5.16-6.48,4.78-8.59-1.57-1.17-3.52-2.4-3.95-5.58-3-3.69,1.06-4.36-1.48-4.65-4.5-.4-4.15,1.28-7.82,2.54-11.52,1.45-4.24-.18-5.22-4-5.41-6.19-.31-12.63,1.42-18.5-2a7.11,7.11,0,0,1,4-4Z"/><path class="cls-41" d="M348.25,270.19c2.3-.21,5.24.4,6.79-.79,4-3.11,6.55-1.55,9.1,1.64,2.71,3.4,5.12,2.53,8.44.29,7.39-5,7.57-4.74,13.68,2.84-2.92,3.32-6.83,1.92-10.3,1.93-5.11,0-9.92.08-13.4,4.72-3,4-5.91,3.15-8.95-.23C350.89,277.55,348.72,274.34,348.25,270.19Z"/><path class="cls-3" d="M482.4,156.41c16.24-1.29,32.35.73,48.49,2,1.17.09,2.26,1.16,3.39,1.77l-10.93,0c-3.84,0-7.75,1.1-9.68,4.18-4.49,7.15-11.82,9.43-18.9,11.8-14.38,4.82-29.34,7.42-44.27,10-12.95,2.21-26,4.1-38.94,6.09a5.31,5.31,0,0,0-3.34,1.91c-9.93.52-18.06,6.18-26.86,9.74-11.95,4.83-23.42,10.82-35.1,16.3-6-.42-11.84-2.94-18-2,9-7.16,20.26-9.61,30.66-13.66,11.06-4.3,22.75-7,34.15-10.41a256.55,256.55,0,0,0,53-22.29A189.62,189.62,0,0,1,482.4,156.41Z"/><path class="cls-2" d="M276.26,198.18c18.5-16.17,40.48-22.46,64.58-24.33,9.9-.78,19.76-1.64,29.68-1.64,2.6,0,5.38-.62,7.57,1.51a337,337,0,0,1-75.17,36.85C293.5,207.6,285.07,202.48,276.26,198.18Z"/></g></g></svg>