<svg xmlns="http://www.w3.org/2000/svg" viewBox="0 0 829.15 396.75"><defs><style>.cls-1{fill:#bd6636;}.cls-2{fill:#b15f32;}.cls-3{fill:#3d433a;}.cls-4{fill:#eaba93;}.cls-5{fill:#ddd;}.cls-6{fill:#e4e4e4;}.cls-7{fill:#bcbcbc;}.cls-8{fill:#f5dbb9;}.cls-9{fill:#eabb94;}.cls-10{fill:#f5dab8;}.cls-11{fill:#c2c2c2;}.cls-12{fill:#ccc;}.cls-13{fill:#ebbd96;}.cls-14{fill:#cbcbcb;}.cls-15{fill:#c86d3c;}.cls-16{fill:#474d44;}.cls-17{fill:#fdfdfd;}.cls-18{fill:#edd1b0;}.cls-19{fill:#c46a39;}.cls-20{fill:#c7774c;}.cls-21{fill:#d2d2d2;}.cls-22{fill:#d9d9d9;}.cls-23{fill:#c9c8c8;}.cls-24{fill:#33392f;}.cls-25{fill:#bf6737;}.cls-26{fill:#eee;}.cls-27{fill:#d2d2d1;}.cls-28{fill:#e8e8e8;}.cls-29{fill:#353b31;}.cls-30{fill:#cc7c4f;}.cls-31{fill:#db9e74;}.cls-32{fill:#f4d9b7;}.cls-33{fill:#d89e75;}.cls-34{fill:#f6ebd4;}.cls-35{fill:#f4d9b6;}.cls-36{fill:#f5f0e4;}.cls-37{fill:#f3d9b7;}.cls-38{fill:#4b5147;}.cls-39{fill:#d3d3d3;}.cls-40{fill:#ede7da;}.cls-41{fill:#f3eee4;}.cls-42{fill:#f7f4ee;}.cls-43{fill:#ebceac;}.cls-44{fill:#e0a37a;}.cls-45{fill:#e1a379;}.cls-46{fill:#d89e76;}.cls-47{fill:#e2a57b;}.cls-48{fill:#dba27b;}.cls-49{fill:#e2e2e2;}.cls-50{fill:#e3b48e;}.cls-51{fill:#c8c8c8;}.cls-52{fill:#e2a379;}.cls-53{fill:#dc9367;}.cls-54{fill:#d27f50;}.cls-55{fill:#c5784e;}.cls-56{fill:#cc8961;}.cls-57{fill:#d48d63;}.cls-58{fill:#cc8154;}.cls-59{fill:#d8885a;}.cls-60{fill:#cb8054;}.cls-61{fill:#eaeaea;}.cls-62{fill:#f7f7f7;}.cls-63{fill:#fff;}.cls-64{fill:#efefef;}.cls-65{fill:#f6efdf;}.cls-66{fill:#f3ecdd;}.cls-67{fill:#3e443b;}.cls-68{fill:#8d8c7c;}.cls-69{fill:#d48052;}.cls-70{fill:#f7f3ed;}.cls-71{fill:#f9f3e9;}.cls-72{fill:#4b4f45;}.cls-73{fill:#9f9b89;}.cls-74{fill:#c3bca6;}.cls-75{fill:#da9266;}.cls-76{fill:#db9e75;}.cls-77{fill:#d58e64;}.cls-78{fill:#838374;}</style></defs><g id="Слой_2" data-name="Слой 2"><g id="Слой_1-2" data-name="Слой 1"><path class="cls-1" d="M74.78,192.43a.74.74,0,0,0,.46-1.08,5.18,5.18,0,0,1,1.68-3l0-.06c1.31-1,.91-2.84,2-3.93v0c.94-1,1.45-2.31,2.48-3.24A4.42,4.42,0,0,1,84,179.93a3.87,3.87,0,0,1,2,2c-1.19,9.6-4,18.8-7,27.93a56.46,56.46,0,0,0-1.56,29.48,21.59,21.59,0,0,1-.61,4.39,10.31,10.31,0,0,0,.58,8.23c2.28,4,5.69,2.44,8.83,1.75a175.74,175.74,0,0,1,63.06-2.54c10.72,1.52,21.1.23,30.85-4.82,2.91-.67,5.79-1.66,8.74-2,29.29-3.75,46.41-21.72,54.91-48.51,4.38-13.83,11.3-23.11,26.65-24a14.4,14.4,0,0,0,5.79-1.46c22-11.59,46.27-7.27,69.5-10.17a7.24,7.24,0,0,1,4.73,1.31c.81,7.21-5.39,6.19-9.11,7.1-16.19,3.94-32.38,7.75-47.92,14-11.46,4.59-21.81,11.13-27.58,22.05-18,34.21-47.26,57.21-77.68,79-32.33,23.2-66.63,42.93-104,57-12.27,4.61-24.92,7.24-38.16,6.26-12.33-.92-17.58-6-17.48-18.27.15-18.13,7.06-34.46,14.79-50.37,6.42-13.21,13.15-26.21,15.75-40.87.76-4.25,1.93-8.44,1.32-12.82-.29-1.53-.63-3.07,1.12-4l-.16.22c.7-1.41.42-3.29,2-4.26l-.12.18c.82-1.34.56-3.19,2-4.23l-.09.14c1-1.25.69-3.09,2-4.17l0,.08c1.08-1.17.79-3,1.93-4.12h0c1.21-1.08.87-2.89,1.94-4l0-.06c2.06-1.37-.06-4.6,2.55-5.73l-.22.25C73.38,193.79,74.25,193.22,74.78,192.43Z"/><path class="cls-2" d="M61.17,224.41c2.67,2.39,2.3,5.7,1.6,8.41-2.71,10.57-4.37,21.44-9.59,31.31-8.08,15.28-15.48,30.84-20,47.71A65.88,65.88,0,0,0,31,330.52c.22,9,4.22,13.17,13.29,13.86a87.63,87.63,0,0,0,38.08-5.74c44.17-16.77,84-41.09,121.4-69.7,11.63-8.89,22.55-18.57,33.26-28.37A99.45,99.45,0,0,0,258.6,211c10.26-20.92,28.52-30.63,49.66-36.43,11.81-3.24,23.51-7,35.67-8.88,2.39-.39,5.38-.73,7.07-3.24,2-2.53,5.05-3.07,7.91-3.72,23.24-5.23,46.36-10.89,69.34-17.14,9.87,3.62,11.9,12.18,13.3,21.14-5.51,6.21-13.69,6.39-20.77,8.6-49.72,15.46-97.54,35.13-142,62.37a346.06,346.06,0,0,0-67.14,52c-19.72,16.33-40,31.86-62.42,44.42-17.28,8-33.46,18.53-52.44,22.53-.87.26-1.75.49-2.63.7-1.74.19-3.57-.19-5.2.77l.09.39c-1.44,1.06-3.23,1.12-4.83,1.69l-.68-.13-.52.45c-1.7,1.69-4.4.14-6.09,1.88l.08,0c-1.9,1.8-4.64.6-6.69,1.86l-.72-.14-.58.45c-1.89,1.58-4.54.34-6.48,1.75l-.82-.13-.71.42c-2,1.44-4.66.5-6.78,1.64l-3.24.47c-2.09,1.25-4.64.43-6.77,1.52l-3.22.43c-3.22,1.92-7.14-.36-10.34,1.7l-3.68.36c-6,2.09-12.38-.73-18.32,1.64l-5.4.07c-1.95-2.63-2-5.25.07-7.84l-.11.14C5.63,357.43,6,351.4,9.46,346.56l-.15.21c.68-1.41.49-3.2,1.86-4.32l-.07.12c1.74-1.65-.12-4.66,2.3-6l-.13.2c.74-1.37.55-3.15,1.84-4.29l0,.08c1.8-1.6-.1-4.64,2.33-6l-.13.2c.74-1.37.55-3.15,1.84-4.29l0,.08c1.8-1.6-.1-4.64,2.33-6l-.13.2c.74-1.37.55-3.15,1.84-4.29l0,.08c1.8-1.6-.1-4.64,2.33-6l-.14.2c.75-1.37.56-3.15,1.85-4.29l-.05.08c1.82-1.59-.1-4.65,2.37-6l-.15.21c.72-1.39.53-3.17,1.84-4.31l0,.09c1.81-1.57-.19-4.71,2.44-5.94l-.16.21c.62-1.45.43-3.24,1.86-4.33l-.08.14c1.58-3.29,1.93-7.09,4.17-10.11l-.11.17c.84-1.32.63-3.1,1.87-4.25l0,.06c1.86-1.55-.09-4.63,2.39-5.94l-.15.21c.73-1.39.51-3.21,1.93-4.29l-.08.14c.95-1.25.73-3,1.84-4.21h0c2-1.47,0-4.57,2.41-5.85l-.13.2c.76-1.37.54-3.18,1.9-4.28l-.06.12c1-1.22.76-3,1.87-4.18v0c2-1.45,0-4.57,2.44-5.84l-.14.21c.75-1.38.53-3.19,1.91-4.28l-.07.12c1-1.23.72-3,1.93-4.16l0,0C59.67,225.7,59.89,224.5,61.17,224.41Z"/><path class="cls-3" d="M440.39,162.86c-2.51-7.53-5.34-14.88-11.18-20.61l-1.2-.56a21.87,21.87,0,0,1-2.83-2.78c-4.24-4.55-8.76-8.82-13.15-13.21-3.94-4.14-8-8.15-12.09-12.14-3.89-4.06-7.91-8-11.9-12-2.45-2.36-4.15-5.33-6.4-7.84-1.83-1.77-4.12-3-6-4.62-3.72-3.66-8.14-6.38-12.49-9.19-1.72-1.18-3.31-2.54-5.12-3.6s-3.58-1.85-5.33-2.88a51.75,51.75,0,0,0-6-3.83c-1.41-.71-2.83-1.42-4.24-2.15-2.13-1.14-4.28-2.24-6.47-3.26-1.87-.9-3.74-1.78-5.6-2.7-2.29-1.2-4.6-2.35-7-3.42-5.29-3.84-13.61-3.7-15.65-11.83a2.94,2.94,0,0,0-.65-1.38,4.55,4.55,0,0,1,2.23-2.4l3.65-.3c5.24-1.67,10.63-.37,15.91-.78,3.21.27,6.56-.71,10.11.77-.76,4.57-4.49,4.46-7.19,5.89,11.4-2.41,21.53-8,31.74-13.41A7,7,0,0,1,366,33.44c1.74-.57,3.46-1.18,5.19-1.78a15.77,15.77,0,0,1,2.74-.24c1.81-.19,3.68-.86,5.25.71.61,3.77-2.6,4.18-4.83,5.2-6.83,3.12-11.1,8.19-12.57,15.59a5,5,0,0,1-2.63,3c-1,.65-3.08,1.94-2.29,2.39,8.7,5,11.22,17.48,22.82,18.88a23.52,23.52,0,0,1,4,2.17c9.42,8.3,20,15.47,25.45,27.51a16.16,16.16,0,0,0,7.52,7.84c16.22,7.22,22.79,23.66,34.41,35.24,4.37,4.36,5.07,10,4.3,15.82-3.79,28.32-6.68,56.77-14.25,84.51-5.45,20-5.73,40.74-7.18,61.25-.7,9.8-.87,19.66-1.58,24.84.4-8.41,2.63-11.23,13.65-12.91,3.93,6.94,10.29,8.29,17.69,8.45a142.32,142.32,0,0,0,36.52-4c6.4-1.54,10-4.71,8-12.08s1.7-14.33,3.52-21.33c1.54-6,.78-9.16-6.58-7.19-5.64,1.51-13.11,4.44-16.24-2-2.85-5.86,4.53-9.44,8.11-13.5,4-4.51,8.86-8,13.73-11.5,2-1.43,4.17-3.75,7-1.14,2.44,20.08,7.06,40.14-.27,60.26.39,1.32,2.25.11.94.34-.21,0-.25-.28-.18-.95.72-7.65,3.26-14.93,4.38-22.52,1-6.69,1.69-13.16-.6-19.71-1.51-4.32-.54-8.46,1.2-12.61,7.42-17.75,9.2-35.09,5.43-55.49.11,12.75-3.6,25.21-2,38.12,1.08,8.71-1.25,11-10,11.56,2-15.44,2-31,2.38-46.51.69-24.69,8.38-48.5,7.49-73.43-.63-17.65-7.41-29.72-23-37.59-8-4-16.72-6.71-24.1-12-4.11-7.3-10-12.53-18.09-15-4.58-4.33-10.2-7.32-14.85-11.57a26.63,26.63,0,0,0-6.29-4.7c-5.28-1.69-2.41-8.48-6.77-10.73-5-2.77-9.64,1.36-14.52.93-2.62-.59-4-2.55-5.39-4.64-.81-1.81-1.85-3.62,0-5.43a25.28,25.28,0,0,1,11.47-3.1c-11.21-5.64-24.76-5.31-38.46-2.8a3.06,3.06,0,0,1-2.1-2c0-1.91,1.57-2.34,2.79-3.11l-.11,0c1.77-1.93,4.55-.53,6.47-2a1,1,0,0,0,1.5-.35c1.76-1.5,4.38-.05,6.06-1.78l-.06,0c2.57-2.1,6-.2,8.67-1.86l4.86,0c1.35.9,3.29.57,4.36,2.08l-.18.18C427.91,25,434.05,32,441.53,36.88c3.2,2.9,7,5.09,10.2,7.94,2,1.6,4.16,2.85,6.13,4.44,2.78,2.52,6.11,4.33,8.9,6.85.64.52,1.24,1.09,1.84,1.67s1.25,1.09,1.88,1.63c2.75,2,5.53,4,8.24,6,8.36,6.51,16.83,12.9,25.14,19.46A161.3,161.3,0,0,1,523.74,103a21.89,21.89,0,0,1,2.57,3.19c1.71,2.75,3.6,5.38,5.25,8.18a85.07,85.07,0,0,1,9.9,27.44c.19,1.55.45,3.07.77,4.6s.84,3.23,1.15,4.88c1.36,15.65-.07,31.3.39,46.94-3.06,26.4-5.42,52.85-6.57,79.41-2.23,6.8-1.28,13.8-1.33,20.75-.08,10.61-.12,21.24-5.2,31a8.46,8.46,0,0,1-2.13,2.76l.18-.2c-.21,1.05-1.06,1.67-1.63,2.48l-.05.07c-1.4,2.57-4.17,2.76-6.48,3.74l-5.61.38c-2.78,1.47-6,.1-8.82,1.53l-3.18.46c-2.12,1.23-4.69.47-6.85,1.52l-3.15.48c-2.12,1.23-4.69.47-6.85,1.52l-3.15.48c-2.7,1.55-5.95,0-8.65,1.56l-3.34.36c-3.43,1.82-7.41-.05-10.87,1.61l-.62-.25-.48.47c-1.65,1.82-4.43.19-6.09,2l.06,0c-1.13,1.23-2.93,1-4.21,1.91l.15-.09c-1,1.47-2.89,1.15-4.15,2.09l.15-.09c-1,1.47-2.89,1.2-4.23,2l.22-.12a16.92,16.92,0,0,1-13.83.07l.21.15a7.7,7.7,0,0,1-2.27-1.9l.19-.18c-4.92-2.05-5-6.52-5.09-10.74-.28-8.82-.3-17.65.07-26.46q2.07-22.11,4.09-44.22c3.43-23.88,4.92-48,10.5-71.6C438.93,188.74,439,175.7,440.39,162.86Z"/><path class="cls-4" d="M466.78,58.55a36.07,36.07,0,0,1-10.16-7.92c3.92-3.28,8.36-1.47,12.48-1,11.9,1.45,23.76,3.22,35.65,4.77,6,.79,12,1.24,17.79-.69,7.92-2.62,15.91.07,23.84-.39-32-.09-63.71-3.65-95.45-7a34.82,34.82,0,0,1-10.12-7.84c8-4.73,16.27-1,24.2-.38,32.09,2.51,64.11,5.74,96.27,7.76-22.66-3.63-45.4-6.67-68.27-8.61C476.8,35.93,460.74,33,444.4,33c-2.81,0-6.79-.08-7.16-3.77s3.24-4.77,6.15-5.44c7.48-1.73,12.33-7.68,18.67-11.19A4.36,4.36,0,0,1,465,11.47c2.52,0,4.9.15,3.85,3.76-.86,3-3.23,5-6.32,8.7,45.37,3,89.18,8.67,133.12,13.4C573.32,34.69,551,32.12,529.27,25.9c-9.33-2.67-18.46-5.57-26.33-11.46-2.76-2.06-5.87-2.88-9.19-3.52-2.63-.5-6.4.16-6.53-4.33L487,6.24c2.49-1.78,5.78.24,8.22-1.76l3.87-.27c2.53-1.71,5.78.17,8.28-1.67l7.74-.37a90.5,90.5,0,0,1,25.83.05l7.74.31c2.49,1.83,5.71,0,8.25,1.63l3.92.3c1.83,1.89,4.89,0,6.63,2.13-1.45,6.35-7.11,2.24-10.48,4,7.92-.76,15,2.31,22,3.8-2.73-1-6.59-1.18-8.8-3.35-3.3-3.26.27-3.35,2.58-3.59,1.44,0,2.9-.11,4.17.78a4.54,4.54,0,0,0,1.9.25c1.7,1.74,4.39.22,6.12,1.85a3.13,3.13,0,0,0,1.71.22c1.27,1,3,.69,4.27,1.7a3.75,3.75,0,0,0,1.78.28c1.23,1,3,.7,4.22,1.72a3.73,3.73,0,0,0,1.78.28c1.24,1,3.07.67,4.26,1.82a2.48,2.48,0,0,0,1.56.21c.81.46,1.6.95,2.36,1.48l2,.4a6.26,6.26,0,0,1,1.52,2.11c4.49,7.85,12.14,8.91,20.06,9.35a2.31,2.31,0,0,1,2.45.63l-.07-.07c.66.6,1.34,1.16,2,1.69a2.87,2.87,0,0,0,1.59.41A10.31,10.31,0,0,1,639,34.35l0,0a2,2,0,0,1,.1,2.49c-1.47,1.75-4.32.84-5.72,2.94,1.9,2.75,5.12,3.84,7.3,6.13a13.8,13.8,0,0,0,4.09,2.44c.74.23,1.46.52,2.18.82a31.2,31.2,0,0,0,4.46,1.51,14.82,14.82,0,0,1,2.42.86c1.64.86,3.26,1.73,4,3.6a4.68,4.68,0,0,1-.6,2.86,5,5,0,0,1-4.67,1.13c-14.21-4-27.36,0-40.72,4.47-9.92,3.36-20.62.81-31.44,1.62,6.48,1.12,14.34-2.72,16.46,7.1-2.52,2.76-5.9,2.52-9.15,2.73a25.47,25.47,0,0,1-3.15,0c-18.52-2.44-37-6.34-57-2.47,12.38,4.43,25,3,35.44,9.74a2.25,2.25,0,0,1-.41,2.77,12.61,12.61,0,0,1-5.55,2.37,12.24,12.24,0,0,1-2.9,0c-11.42-1.25-22.57-4.14-34.89-6.19,7.9,5,17.5,2.4,23.8,8.8a3.46,3.46,0,0,1,.21,2.93,6.09,6.09,0,0,1-3.65,2.83,85.87,85.87,0,0,1-36.7-9.47,198.77,198.77,0,0,1-25.93-20c3.6-3.22,7.54-1.1,11.29-.55,4.54.66,9,1.42,13.58-1.74C489.91,62,478.1,61.73,466.78,58.55Z"/><path class="cls-5" d="M315,382.39l-9.9,0c-1.65-1.81-4.4-.22-6.07-1.95h0a2.63,2.63,0,0,0-4,0h0c-.67.66-1.34,1.32-2,2h0c-.69.66-1.35,1.33-2,2h0c-.67.7-1.4,1.33-2.11,2a13.37,13.37,0,0,0-1.9.11c-.68.62-1.36,1.26-2,1.91l0,0a2.23,2.23,0,0,1-2.75.4c-20.4-6.57-41.18-12.07-60.64-21.34a53.4,53.4,0,0,1-14-9.31,8.08,8.08,0,0,1-2.48-5.59,6.86,6.86,0,0,1,1.49-4.27c10.25-4.73,22-5.19,31.86-11.22,4.17-2.54,6,.71,7.07,4.19A71.88,71.88,0,0,0,252,355.84c7.06,12.35,17.26,12.67,25,.66a9.16,9.16,0,0,1,3.46-3.5c9-2,18.14-3.75,24.56-11.41a5.8,5.8,0,0,1,7.17-1.66c6.37,2.73,12.29.85,18.15-1.59,2.45-1,4.95-2.47,7.56-2,7.38,1.39,11.81-2.61,15.7-7.9a8.5,8.5,0,0,1,2.48-1.62c1.91-.68,4.08-1.2,5.84-.44,18,7.8,35.29,2.53,52.61-2.59,5.33,7.95.07,15.07-1.83,22.43-1.32,5.12-6.33,8.45-7,13.95a2.09,2.09,0,0,1-.78,2.17H391.06a1.33,1.33,0,0,0-2.1,0h0c-.66.66-1.34,1.31-2,2l0,0a23,23,0,0,0-2,2l0,0c-1.12,1.13-3,.75-4.07,1.95H371c-1.62-1.86-4.34-.23-6-1.9l-2-.09c-1-1.26-2.91-.77-4-1.92a18,18,0,0,0-1.94-.1c-.64-.68-1.41-1.23-2.07-1.9a14.75,14.75,0,0,0-1.89-.12,19.81,19.81,0,0,1-2.1-2h0a1.29,1.29,0,0,0-2,0h0c-1.25,1-.8,2.9-2,4a15,15,0,0,0-.08,1.9c-.65.71-1.28,1.44-2,2.11h0c-.67.66-1.34,1.32-2,2h0c-.69.65-1.36,1.32-2,2h0c-.68.66-1.34,1.34-2,2l0,0c-1,1.22-2.92.84-4,2.05h0c-1.1,1.15-2.95.79-4,2h0c-1.64,1.78-4.42.12-6,2l-2,.08C320.62,382.48,317.25,380.18,315,382.39Z"/><path class="cls-6" d="M722.91,236.38c-.65,0-1.3.06-1.95.13-.69.6-1.35,1.23-2,1.88h0c-2.41,3,.28,7-1.91,10l-.09,4a2.21,2.21,0,0,1-2.65.1c-6.8-.69-16.27,4.14-16.78,9.82-1.71,19.39-16.16,24.82-31.34,28.39-9.1,2.15-17.91,4.11-26.18,8.73a43.46,43.46,0,0,1-27,5.37c-6.44-.8-12.48,1.78-18.79,2.11-15.37.79-30-4.63-45.21-5.59-6-.38-14.11-3.07-14.89-12.19a5,5,0,0,1,1.8-2.25c4.12-2.2,8-2.06,12.2.32,11.26,6.31,21,4.55,30.15-5a57.24,57.24,0,0,0,4.89-6.29c6.57-9.06,6.57-9.06,14.74-1.31,5.74,5.45,8.53,5,13.05-2.31,6.47-10.39,6.53-10.44,16.16-3.35,4.82,3.55,9.62,6.88,15.44,8.85,12.49,4.21,23.19,1.66,31.32-8.48,7-8.7,18.86-14.79,16.73-28.84a22.74,22.74,0,0,1,.72-4.34c2.55-9.45,8-17.78,10.67-27.18,4.7-2.56,5.49,1.9,6.82,4.25a45,45,0,0,0,11.1,13.23,12.44,12.44,0,0,1,3.87,7.43A3,3,0,0,1,722.91,236.38Z"/><path class="cls-5" d="M535.32,288.23c2.74,9.28,11.31,9.86,18.57,12,3.05.9,6.65.54,9.91.08,4.4-.63,8,.52,12.09,2.25,8.14,3.45,16.9,2.55,25.34.6a31.74,31.74,0,0,1,11.66-.91c13.19,1.72,24.72-3.12,35.37-10.3a12.4,12.4,0,0,1,7.85-2.41c12.51-.07,24-4.16,33.34-12.74,4.38-4,5.61-9.58,5.43-15.43-.06-1.76-1.77-4.12,1.27-4.88,7-1.76,11-8.48,17.7-10.63,1.93,2,.81,4.46,1.19,6.63a2.7,2.7,0,0,1,0,3.91,13.27,13.27,0,0,0-.07,1.89c-.66.68-1.22,1.46-1.92,2.11a14.94,14.94,0,0,0-.08,1.89c-.65.71-1.28,1.43-2,2.12h0c-1.24,1-.85,2.92-2.08,4l0,0c-.63.72-1.31,1.38-2,2h0c-.66.68-1.33,1.34-2,2h0c-.69.65-1.35,1.32-2,2h0c-.69.65-1.35,1.33-2,2h0c-.69.66-1.35,1.33-2,2l0,0c-.67.68-1.34,1.36-2.05,2l0,0c-1,1.23-2.93.84-4,2.08h0c-.69.66-1.41,1.3-2.11,2a13.51,13.51,0,0,0-1.91.11c-.66.67-1.43,1.21-2.06,1.89a17.88,17.88,0,0,0-1.94.08c-1.6,1.73-4.35,0-5.88,1.95a11.69,11.69,0,0,0-.15,1.87,23.32,23.32,0,0,1-2,2.1l0,0c-.64.7-1.32,1.37-2,2l0,0c-.67.68-1.34,1.34-2,2h0c-.69.64-1.36,1.31-2,2h0c-.69.66-1.35,1.34-2,2l0,0c-.66.69-1.33,1.37-2,2l0,0a21,21,0,0,1-2.11,2,13.1,13.1,0,0,0-1.88.13c-.69.61-1.34,1.25-2,1.92h0c-.7.64-1.35,1.33-2,2l0,0c-1.06,1.21-2.93.85-4,2.05h0c-1.09,1.16-2.94.81-4,2h0c-1.63,1.81-4.42.14-6,2l-4,.05a1.26,1.26,0,0,1-2,0l-3.91-.09c-1.11-1.17-3-.79-4.09-2h0a2.7,2.7,0,0,0-4,0c-.67,0-1.33,0-2,.06-1.67,1.73-4.41.1-6.06,1.92l-3.95.1c-1.68,1.69-4.4.08-6,1.91l-4,.09c-3,2.23-7-.47-10,1.91H587c-1.62-1.86-4.41-.2-6-2h0a1.28,1.28,0,0,0-2,0h0c-.68.69-1.41,1.32-2.12,2a15,15,0,0,0-1.9.1c-.65.68-1.42,1.23-2.08,1.91a15.4,15.4,0,0,0-1.92.06,16.77,16.77,0,0,1-12,0,14.71,14.71,0,0,0-1.88-.06c-.71-.65-1.43-1.28-2.13-1.93l0,0a18.21,18.21,0,0,0-1.94-1.89,13.4,13.4,0,0,0-1.9-.16,26.52,26.52,0,0,1-2.11-2h0a1.21,1.21,0,0,0-2,0l0,0c-1.27,1-.87,2.89-2.06,3.93l0,0c-.65.69-1.33,1.35-2,2h0c-.69.65-1.36,1.32-2,2h0c-.69.64-1.36,1.31-2,2h0c-.69.65-1.35,1.32-2,2h0c-.68.66-1.34,1.34-2,2l0,0c-1,1.22-2.92.76-3.86,2.1l-.1.07a1.27,1.27,0,0,1-1.86-.08,223.64,223.64,0,0,0,4.28-40.57c.06-3.88-.65-8,1.44-11.73C538,281.36,537.75,284.75,535.32,288.23Z"/><path class="cls-7" d="M206.92,352.46a4.41,4.41,0,0,0,2,4c2.9,4.27,6.16,8.27,8.93,12.62,1.69,2.67,4,5.56-.16,8.21a3.69,3.69,0,0,1-2.72-.88h0a17.83,17.83,0,0,0-2-1.86l-.12-.11a9.72,9.72,0,0,0-1.88-1.91l-.09-.1c-.53-.77-1.26-1.38-1.84-2.12l.06.06c-4.13-6.21-11.24-.66-16.08-4.09l.08.05c-1.14-1.09-3-.73-4-2.1l.08.09a8.8,8.8,0,0,1-2.1-2l.07.07a7.06,7.06,0,0,1-2-2.34,3.62,3.62,0,0,0-.37-1.68c-.53-.7-1.1-1.38-1.7-2l.07,0c-2.12-2.18-4.28-1-6.44-.06a3.94,3.94,0,0,0-1.7.23c-1.16,1.12-3,.72-4.15,1.83a5.15,5.15,0,0,0-1.87.23c-1.23,1-3,.73-4.24,1.73l-.86,0-.85.16c-2.42,2.07-5.82-.12-8.26,1.88l-15.58,0c-1.73-1.72-4.43-.23-6.17-1.89l0,0c-1-1.27-2.9-.87-3.94-2.09l.05.05a28,28,0,0,1-2-2l0,0c-1.21-1-.76-2.87-2.06-3.81l-2-.07c-1.78,1.59-4.44.17-6.22,1.79l-17.59,0c-1.12-1.24-3.16-.54-4.17-2,18.28-7.4,36.14-15.72,53.82-24.42,6,3.82,11.52,4.76,16.36-2,2.62-3.62,5.55-2.59,8.31.19,2.3,2.31,4.41,5.17,8.38,3.91a9.52,9.52,0,0,1,2.48-.4,6.13,6.13,0,0,1,2.26.92l.95.73a20,20,0,0,1,1.7,1.62c.27.26.53.55.81.82.57.51,1.1,1.06,1.64,1.61.28.26.55.53.84.79.62.49,1.21,1,1.84,1.47.34.22.66.46,1,.68.74.41,1.44.87,2.14,1.35C202.21,342.78,204.36,347.77,206.92,352.46Z"/><path class="cls-8" d="M165.15,96.45a8.58,8.58,0,0,0,1.89-.24,20.9,20.9,0,0,0,2-1.81h0a19.51,19.51,0,0,1,2.21-2l2.14.28c16.2-4.75,32.28-10,49.55-9.17,10.46.53,12.19,1.94,12.93,12.08A307.77,307.77,0,0,0,246,155.16a5.28,5.28,0,0,1-2.78,3.93c-6.19,1.24-8-3.83-10.3-7.6-7.71-12.47-10.38-26.58-12.35-40.81-1.4-10.09-2.2-11-11.63-7.14a243,243,0,0,1-60.65,16.08c-4.71.63-9.52,1-6.37-6.39a7,7,0,0,1,1.1-2.82h0a16.32,16.32,0,0,1,2.21-2,8.24,8.24,0,0,0,1.85-.32,12.74,12.74,0,0,0,1.91-1.76l0,0a25.36,25.36,0,0,1,2.22-1.91,7.64,7.64,0,0,0,1.84-.26,19.63,19.63,0,0,0,2-1.8v0c1.08-1.17,2.94-.8,4-2h0a17.77,17.77,0,0,1,2.23-1.92,7.69,7.69,0,0,0,1.79-.15C163.67,97.64,164.44,97.08,165.15,96.45Z"/><path class="cls-9" d="M257.26,58.5a3.48,3.48,0,0,0,1.75-.18c1.79-1.62,4.46-.2,6.25-1.81a3.33,3.33,0,0,0,1.74-.15c1.82-1.67,4.5-.3,6.36-1.81l3.69-.34c1.25-.92,2.7-.76,4.12-.78,2.56.41,4.7-.7,6.8-1.93,2-.11,4.07,0,6.11-.08,15.18.65,18.46,4.6,15.13,19.23a119.92,119.92,0,0,0-.87,50.53c1.7,8.54,4,17,12.16,22.06a2.57,2.57,0,0,1,.51,3.1c-10.66,4.83-21.36,8.31-32.4,1,.89-2.06,2.72-2.74,4.71-3.2,10.68-2.47,10.51-2.43,7.34-13.41-5.64-19.53-5.13-39.3-2-59.18.53-3.43,3.71-8.32-2.44-10s-9.62,1.21-12,7.26c-8.74,22.62-6.95,44.81,1.6,66.92,1.29,3.35,4,6.22,3.49,10.19-1.85,2.12-3.82,3.89-6.94,2.52-15.32-22.8-16.54-47.75-11.22-73.71.57-2.78,3.51-6,.75-8.34s-6.4-.13-9.65.15c-2,.17-3,1.15-2.13,3.32,2.75,6.94.72,13.84-.34,20.7-3,19.24-3.7,38.37,2.13,57.28-1,2.62-1.66,5.65-5.65,4.4-9.66-12.71-11.14-27.27-9.38-42.47.95-8.23,2.78-16.37,3.14-24.66.43-10.05-.79-11.07-10.6-9.38-6.23,1.08-12.45,2.1-18.74.6-1.92-.46-3.87-1.22-3.56-3.88l-.18-.37c1.23-.84,2.95-.55,4-1.76h0c1.68-1.71,4.41-.15,6.06-1.95l0,0c1.65-1.83,4.4-.25,6.08-2l-.06,0c1.13-1.31,3-1,4.3-2a3.18,3.18,0,0,0,1.7-.23c1.17-1.11,3-.73,4.17-1.82a4.17,4.17,0,0,0,1.85-.24c1.27-1,3-.79,4.35-1.68l3.67-.38C254.3,59.23,256,59.51,257.26,58.5Z"/><path class="cls-10" d="M487.22,6.59c.22.25.46.71.68.7,9.33-.31,16.36,4.85,23.91,9.34,11.6,6.89,25.11,8.57,38,11.3,15.48,3.28,31.13,6.4,47.12,6.52,3.23,0,6.54.46,5.7,4.77s-4.3,3.08-7.21,2.32a10.66,10.66,0,0,1-2.81-1,20.55,20.55,0,0,0-17.77-2.49c-6,1.74-12.33-1.49-18.64-2-13.15-1-26.15-3.81-39.28-5.2-9.87-1.05-19.83-1.57-29.72-2.14-9.58-.54-18.89-2.64-29.38-2.66,2.42-5.06,6.81-7.35,9.27-11.11,1.58-2.41-.92-2.38-2.33-2.82-.48-.48-.59-.89-.35-1.25s.44-.49.64-.49l4-.29c1.2-.9,2.93-.54,4-1.69l4-.29c1.74-1.4,4.32.08,5.94-1.74Z"/><path class="cls-10" d="M463,12.48c-3,4.47-7,8-11.08,11.35-3.82,3.19-9.45,1.69-14.79,4.9,3.73,2.16,6.34,1.63,8.76,1.61,13.28-.15,26.33,1.84,39.44,3.61,7.51,1,15.15,1.64,22.68,2.12,19.16,1.2,37.95,5.28,57.07,6.42,2,.12,4.35.51,4.48,2.91.12,2.14-1.9,3.44-3.72,4.24a6.79,6.79,0,0,1-3.87.49C545.46,46.79,528.53,47,511.82,45c-10.42-1.26-21-2.3-31.61-2.73a224,224,0,0,1-33.45-3.46,39.22,39.22,0,0,0-5.95-.25l-22.09-15.7,2.35-.68c1.76-1.39,4.34.06,6-1.73l4-.16c1.16-1.07,3-.66,4.09-1.8a8.44,8.44,0,0,0,1.88-.09c1.67-1.75,4.42-.12,6.07-1.94a9,9,0,0,0,1.94-.1c1.68-1.69,4.41-.07,6-1.91a10,10,0,0,0,2-.11c1.68-1.66,4.39-.05,6-1.89l2-.18A1.16,1.16,0,0,1,463,12.48Z"/><path class="cls-11" d="M722.91,234.31c-2.53-1.18-1.4-4.74-3.89-5.95-4.52-7-3.52-15.08-2.51-22.36,2.48-17.81-10.6-27.83-18.86-40.08-3.39-5-10.65-2.12-16.11-3a11.68,11.68,0,0,1-6.42-2.43c-7.69-6.78-16.71-10.41-26.71-12.26-3.19-.59-7.62-.89-7.58-6.08,2.5-2.21,5.51-2.23,8.47-1.64,17.5,3.51,35.47,5.47,51.28,14.82,8.54,5.05,18.47,7.36,26.51,13.42,3.09,2.6,2.15,6.75,3.8,9.92a5.05,5.05,0,0,0,.21,1.81c1.09,1.19.74,3,1.78,4.21a4.74,4.74,0,0,0,.11,1.76,15.55,15.55,0,0,1-.11,12l0-.07a12.46,12.46,0,0,0,0,10.33c0,3.19,0,6.37,0,9.56-1.7,1.74-.19,4.43-1.86,6.17a3.67,3.67,0,0,0-.19,1.64A10.25,10.25,0,0,1,729,228.4h0C727.23,230.65,725.89,233.33,722.91,234.31Z"/><path class="cls-9" d="M142.86,112.28c2.81,1.88-1.21,3.35,0,5.77,20.91-3,41.67-7.47,61.59-15.42,2.77-1.11,5.51-2.31,8.36-3.15,7.3-2.17,9.56-.49,10.13,7.17,1.11,15,4.06,29.51,11.6,42.71,2.06,3.6,3.38,8.12,8.41,9,.52,3.63-2.22,4.07-4.68,4.79a4.89,4.89,0,0,1-2.87-.88c-11.78-13.25-16.23-29.48-18.79-46.47-1.41-9.37-1.81-9.82-10.59-6.22-18.93,7.77-38.76,11.93-58.86,15-14.4,2.18-21.28,15-15,28.42,2.11,4.5,6.47,7.7,7.26,12.91-6.55,4.88-11.85-.15-17.34-2.42-5.3-2.19-9.17-6.45-12.91-10.69-1.14-1.35-2.2-2.78-3.42-4.08a7.82,7.82,0,0,1-1.45-2.09,4,4,0,0,0,.81-1.73c1.27-1.55,2.83-2.84,4-4.43l-.11.07a6.66,6.66,0,0,1,2.08-2.08l-.08.08a6.66,6.66,0,0,1,2.08-2.08l-.08.08a7.91,7.91,0,0,1,2-2.12l-.08.08a10.2,10.2,0,0,1,2.07-2.08l-.07.07a8.7,8.7,0,0,1,2.11-2l-.08.08a7,7,0,0,1,2.09-2.07l-.08.08a6.66,6.66,0,0,1,2.08-2.08l-.08.08a4.82,4.82,0,0,1,2.47-2,2.6,2.6,0,0,0,1.52-.49,5.79,5.79,0,0,0,1.72-1.73l.16-.13a13,13,0,0,0,2-1.83h0c.72-.64,1.36-1.35,2.11-1.94l-.06.07a9.28,9.28,0,0,1,2.12-2l-.07.12a3.07,3.07,0,0,1,1.89-1.16,5.33,5.33,0,0,0,2.11-.81l-.13-.39a24.24,24.24,0,0,0,2.1-1.82l0,0A1.15,1.15,0,0,1,142.86,112.28Z"/><path class="cls-10" d="M321,144.36c-5.1.62-8.33-2.08-10.05-6.41-2.19-5.51-4.62-11.1-5.63-16.89a127.43,127.43,0,0,1,1.85-53.92c2.42-9.43,1.63-10.53-7.63-13-2.24-.59-4.45-1.27-6.67-1.91-.54-.48-.67-.91-.42-1.29s.46-.52.68-.52a9.5,9.5,0,0,0,1.92-.08c1.73-1.69,4.44-.17,6.17-1.87l3.85-.26a5.86,5.86,0,0,0,1.57-1.72,1.19,1.19,0,0,1,1.2-.21c5,4.6,11.67,6.6,17.11,10.53,2.36,3.15.73,6.32.06,9.49-4.85,23.06-7.84,46.2-2.94,69.66C322.65,138.94,323.35,141.82,321,144.36Z"/><path class="cls-8" d="M217.14,72.52c5.87,3.53,12.19,1.81,18.31,1.29a57.71,57.71,0,0,0,11.63-2.49c4.83-1.47,5.65.92,6,5,.91,9.73-.64,19.39-2.54,28.66-3.24,15.79-.94,30.27,5.83,44.47a10.7,10.7,0,0,1,.48,2.94c-2.37,3.13-5.21,4.3-8.84,2.07-9.86-17.65-10.69-37.22-11.8-56.69-.76-13.28-1.74-14.15-15.25-14.48-9.24-.23-18.08,4.1-27.41,2a2.06,2.06,0,0,1-.63-2.9l0,0c1.13-1.1,3-.76,4-2h0c1.12-1.19,3-.82,4.11-2a10.46,10.46,0,0,0,1.93-.21c.7-.6,1.41-1.2,2.13-1.79a8.19,8.19,0,0,0,1.85-.12c1.09-1.13,2.94-.7,4-1.93h0c1-1.15,2.95-.69,3.91-2Z"/><path class="cls-12" d="M216.83,376.5c3-2,1.27-3.8-.33-5.55a31.24,31.24,0,0,1-7.56-14.51c9.1,7.37,19.49,12.23,30.55,15.85,11.61,3.81,23.15,7.79,34.75,11.61,3.13,1,6.44,1.58,8.67,4.36-.09,1.29-1.32,1.44-2.08,2.07a8.61,8.61,0,0,0-1.89.2c-1.12,1.06-2.92.66-4,1.85h0c-1.69,1.78-4.44.22-6.15,2l-3.89.17a23.63,23.63,0,0,1-13.93-.06l-.89-.12h-.9a12.29,12.29,0,0,1-2.21-2l0,0c-1.45-3.81-5.58-2.24-8.06-4l0,0c-1.6-1.85-4.4-.19-6-2l0,0c-1.09-1.17-2.94-.76-4-1.93l-.86-.13h-.87a16.69,16.69,0,0,1-2.25-1.77,6.49,6.49,0,0,0-1.81-.2c-.75-.58-1.5-1.15-2.19-1.8a5.32,5.32,0,0,0-1.73-.23,10.91,10.91,0,0,1-2.29-1.94l0,0a1.26,1.26,0,0,1-.52-1.21C216.6,376.72,216.7,376.5,216.83,376.5Z"/><path class="cls-13" d="M192.8,84.24c7,.19,13.71-2,20.53-3.07a47.31,47.31,0,0,1,9.9-.71c12.29.57,16.14,4.22,15.64,16.48-.81,19.94,3.86,38.78,10.2,57.38-.78,1.86-1.95,3-4.11,2.07a136,136,0,0,1-10.08-46.12c-.24-5.9-2.52-11.61-1.89-17.66.49-4.78-2.13-6.2-6.59-6.32-10.63-.28-21.11.4-31.42,3.12-5.41,1.43-10.87,2.69-16.27,4.17-2,.55-3.84,1.07-5.38-.84L173,92.4a8.74,8.74,0,0,1,2.5-1.85A2.53,2.53,0,0,0,177,90.3a7.64,7.64,0,0,1,2.47-1.74,2.53,2.53,0,0,0,1.53-.27c1.08-1.09,2.93-.64,3.92-1.92l0,0a4.18,4.18,0,0,1,2-.89,4.94,4.94,0,0,0,3.93-1.57A1.46,1.46,0,0,1,192.8,84.24Z"/><path class="cls-14" d="M405.12,360.51c-1.57-.27-3.34.27-5-1.45,11.52-8.7,13.59-21.5,14.81-34.66-2.14-2.57-.67-4.56,1-6.52,2.07-1.47,4.19-2.7,6.84-1.47-.05,8.16-.17,16.33-.12,24.49,0,4.55,0,9.16,2.46,13.28l-2.24.35-2.07,1.81.06-.07c-1,1.3-2.91.94-4,2.07l0,0c-1.58,1.9-4.4.21-6,2.08h0A4.92,4.92,0,0,1,405.12,360.51Z"/><path class="cls-15" d="M75,240.4c-4-14.67.14-28.36,4.92-42,1.71-4.89,1.62-10.31,4.33-15,.74-1.27-.43-2.42-1.51-3.25-.81-1.36-.88-2.61.55-3.63l-.15.17c.5-.75,1-1.5,1.57-2.22a.82.82,0,0,0,.53-1.11,4.45,4.45,0,0,1,1.83-2.92l0,.05c1.17-1.07.71-3.15,2.4-3.9l-.22.22A5.77,5.77,0,0,1,91,164.41l0,0c.88-1.3,1.57-2.92,3.66-2.22,3.62,3.65,1.31,7.37,0,11a313.48,313.48,0,0,0-13.87,53.42C78.15,230.9,82.42,238.15,75,240.4Z"/><path class="cls-16" d="M365,34.36c-.52,5.17-5.21,5.73-8.62,7.11-4.93,2-9.88,3.83-14.31,6.84-5.48,3.72-11.45,1.62-18.54,1.89,4.08-5.06,9.25-5,13.95-6.42-2.33-2.16-4.77-.88-6.85-1.56a1.24,1.24,0,0,1,1.22-1.56l3.18-.42c2.54-1.77,5.83.15,8.34-1.72a1.27,1.27,0,0,0,1.67-.29c2-1.38,4.58-.37,6.61-1.61a.92.92,0,0,0,1.37-.3c1.88-1.57,4.53-.32,6.46-1.75a1.23,1.23,0,0,0,1.56-.34A3,3,0,0,1,365,34.36Z"/><path class="cls-17" d="M825.13,180.5c-9.79,4.73-26.5,6.39-36.34,5-11.66-1.65-23.47-2.26-35-5-3.85-.92-7.68-1.59-11-3.93l1.28-1.22c2.86-1.42,5.84-1.09,8.76-.43A199,199,0,0,0,819,178.43a9.08,9.08,0,0,1,4.83.87Z"/><path class="cls-18" d="M573.16,8.27c-.71.52-3.33,1.13-1.65,1.63,4.13,1.23,8.12,2.33,11.72,5.17-7.69,1.33-21.25-1.53-28.46-5.9,3.76-2.31,8.76,1.22,12.16-2.63.5-.92,1.17-1,2-.38l3.85.34c.7.25,1,.59.88,1S573.35,8.27,573.16,8.27Z"/><path class="cls-17" d="M540.91,2.22l-25.83-.05A39.05,39.05,0,0,1,540.91,2.22Z"/><path class="cls-17" d="M9.46,346.56a43.49,43.49,0,0,1-6.29,16.08C3.5,356.59,4.27,350.71,9.46,346.56Z"/><path class="cls-17" d="M331.83,40.66c-.39.54-.79,1.06-1.22,1.56H313C319,38.65,325.54,41,331.83,40.66Z"/><path class="cls-17" d="M193,366.27c3.86.09,7.72.24,11.57.23,2.7,0,4.24,1.14,4.51,3.86a18.44,18.44,0,0,0-10.14-2C196.73,368.48,194.43,368.54,193,366.27Z"/><path class="cls-17" d="M8.61,370.27c6-1.78,12.15-1.75,18.32-1.64C21.08,372,14.73,369.84,8.61,370.27Z"/><path class="cls-17" d="M730.89,178.62c-2.37-2.15-3.35-5-3.84-8a2.4,2.4,0,0,1,2-.94c1.56.22,3.1.6,4.65.9s3.1,1,3.7,2.77l-.45,1.15C733.84,174.27,731.1,174.59,730.89,178.62Z"/><path class="cls-17" d="M427.06,356.11c4.62,1.83,9.22.77,13.83-.06C436.3,359.84,431.68,359.77,427.06,356.11Z"/><path class="cls-17" d="M251,394.44l13.93.06C260.28,397.47,255.64,397.55,251,394.44Z"/><path class="cls-17" d="M825,172.3c5.47,3.08,5.49,5,.1,8.2l-.54-.59a12.48,12.48,0,0,1-.28-6.5Z"/><path class="cls-17" d="M39.31,272.5a18.9,18.9,0,0,1-4.17,10.1C34.85,278.54,35.56,274.89,39.31,272.5Z"/><path class="cls-17" d="M559,320.42h12Q565,324.86,559,320.42Z"/><path class="cls-17" d="M722.91,234.31a16.54,16.54,0,0,1,6.08-5.9c-.18,4.06-2.78,6.28-6.08,8Z"/><path class="cls-17" d="M732.88,198.38q.06-6,.11-12C735.94,190.42,736.07,194.41,732.88,198.38Z"/><path class="cls-17" d="M460.09,348.15c3.36-2.31,7.14-1.78,10.87-1.61C467.73,349.74,463.77,348,460.09,348.15Z"/><path class="cls-17" d="M732.89,208.64c-2.43-3.45-3.1-6.9,0-10.33Z"/><path class="cls-17" d="M239,388.36c3.16.39,7.3-1.19,8.06,4C244.6,390.57,241,391.14,239,388.36Z"/><path class="cls-17" d="M3.28,362.5c.11,2.61-1.59,5.21-.07,7.84C-1.08,367.22-1.08,366.78,3.28,362.5Z"/><path class="cls-17" d="M594.93,318.37c2.86-3.15,6.64-1.54,10-1.91C602.12,319.72,598.31,317.93,594.93,318.37Z"/><path class="cls-17" d="M717.07,248.37c.4-3.37-1.43-7.17,1.91-10C718.51,241.75,720.3,245.54,717.07,248.37Z"/><path class="cls-17" d="M30.61,368.27c3.24-1.85,6.76-1.94,10.34-1.7C37.92,369.69,34.11,368,30.61,368.27Z"/><path class="cls-17" d="M520.56,338.25l6.48-3.74C526.6,338.74,523.55,338.44,520.56,338.25Z"/><path class="cls-17" d="M725.2,98.14a7,7,0,0,1,5.87,4.22l-1.2.86c-3,.43-4.65-1-5.33-3.76Z"/><path class="cls-17" d="M737.2,108.14a7,7,0,0,1,5.87,4.21l-1.19.87c-3,.43-4.66-1-5.34-3.76Z"/><path class="cls-17" d="M506.13,340.16c2.7-1.9,5.73-1.85,8.82-1.53C512.4,341.38,509.15,340.15,506.13,340.16Z"/><path class="cls-17" d="M343.35,38.52c-2.52,1.87-5.39,2-8.34,1.72C337.34,37.46,340.47,38.62,343.35,38.52Z"/><path class="cls-17" d="M293.08,50.43c-.08.61-.17,1.21-.26,1.82l-5.79.34c-.86.7-1.55.55-2.06-.43C287.24,49.54,290.3,50.64,293.08,50.43Z"/><path class="cls-17" d="M675.09,58.26a6.6,6.6,0,0,1,6,4.1l-1.17.86c-2.92.49-4.61-.85-5.34-3.61Z"/><path class="cls-17" d="M749.2,118.14a7,7,0,0,1,5.88,4.22l-1.2.86c-3,.43-4.66-1-5.34-3.77Z"/><path class="cls-17" d="M693.17,72.16a7,7,0,0,1,5.91,4.2l-1.19.86c-3,.45-4.64-.94-5.35-3.73Z"/><path class="cls-17" d="M761.19,128.15a7,7,0,0,1,5.88,4.22l-1.2.85c-3,.44-4.64-.95-5.33-3.75C760.75,129,761,128.59,761.19,128.15Z"/><path class="cls-17" d="M474.3,346.18c2.66-1.74,5.61-1.89,8.65-1.56C480.47,347.36,477.28,346.18,474.3,346.18Z"/><path class="cls-17" d="M773.2,138.14a7,7,0,0,1,5.88,4.22l-1.19.86c-3,.44-4.66-.95-5.35-3.76Z"/><path class="cls-17" d="M315,382.39c2.15-2.8,5.23-1.73,8-1.92C320.83,383.33,317.72,382.12,315,382.39Z"/><path class="cls-17" d="M176.66,356.26c2.16-1.24,4.35-5.67,6.44.06Z"/><path class="cls-17" d="M507.34,2.54c-2.41,2.32-5.4,1.74-8.28,1.67C501.38,1.45,504.49,2.64,507.34,2.54Z"/><path class="cls-17" d="M556.9,4.16c-2.88.13-5.84.65-8.25-1.63C551.49,2.63,554.57,1.47,556.9,4.16Z"/><path class="cls-17" d="M154.73,362.29c2.35-2.41,5.39-1.78,8.26-1.88C160.77,363.37,157.6,362.15,154.73,362.29Z"/><path class="cls-17" d="M495.19,4.48c-2.36,2.37-5.33,1.85-8.22,1.76C489.25,3.51,492.36,4.62,495.19,4.48Z"/><path class="cls-17" d="M568.9,6.16l-2,.38c-2.14-.39-4.52-.08-6.11-2.08C563.59,4.65,566.65,3.49,568.9,6.16Z"/><path class="cls-17" d="M783.18,146.16a7,7,0,0,1,5.91,4.2l-1,.88a4.31,4.31,0,0,1-3.85-.44,4.82,4.82,0,0,1-1.76-3.49Z"/><path class="cls-17" d="M409.68,20.61c-2.65,1.74-5.63,2-8.67,1.86C403.36,19.33,406.67,20.65,409.68,20.61Z"/><path class="cls-17" d="M713.19,88.15a7,7,0,0,1,5.88,4.21l-1.2.86c-3,.43-4.64-1-5.33-3.75Z"/><path class="cls-17" d="M17.4,326.53c-.09,2.26-.42,4.43-2.33,6C15.08,330.22,14.51,327.7,17.4,326.53Z"/><path class="cls-17" d="M351.63,36.62c-1.89,1.82-4.23,1.82-6.61,1.61C346.78,35.89,349.26,36.47,351.63,36.62Z"/><path class="cls-17" d="M73.5,194.59c-.12,2.23-.69,4.27-2.55,5.73C71.09,198.1,70.55,195.56,73.5,194.59Z"/><path class="cls-17" d="M742.82,176.55c-2.11-.24-4.46.17-5.87-2.06l.21-.32c2.71-1.62,5-1.83,6.12,1.84Z"/><path class="cls-17" d="M233.08,66.47c-1.54,2.14-3.82,2-6.08,2C228.44,66,230.83,66.45,233.08,66.47Z"/><path class="cls-17" d="M359.46,34.57c-1.8,1.9-4.11,1.88-6.46,1.75C354.66,33.93,357.12,34.46,359.46,34.57Z"/><path class="cls-17" d="M365,34.36l-4-.13c1.42-2.18,3.75-1.77,5.85-2l.68.7a1.55,1.55,0,0,1-1.44,1.15l-.65-.15Z"/><path class="cls-16" d="M379,32.38l-6.37-.16c-.34-.87-.09-1.43.85-1.65a1.22,1.22,0,0,0,1.56-.39,4.36,4.36,0,0,1,3.39-.6l1,.62A2.3,2.3,0,0,1,379,32.38Z"/><path class="cls-17" d="M25.4,306.53c-.09,2.26-.41,4.44-2.33,6C23.08,310.22,22.51,307.7,25.4,306.53Z"/><path class="cls-17" d="M13.4,336.53c-.12,2.25-.36,4.47-2.3,6C11.07,340.25,10.5,337.72,13.4,336.53Z"/><path class="cls-17" d="M373.46,30.57c-.28.56-.56,1.1-.85,1.65l-.88-.09-.76.45a2.92,2.92,0,0,1-3.94-.13l-.16-.24C368.65,30,371.09,30.43,373.46,30.57Z"/><path class="cls-17" d="M268.83,394.33c1.58-2.13,3.9-1.93,6.15-2C273.5,394.8,271.1,394.34,268.83,394.33Z"/><path class="cls-17" d="M819,170.31c2.18.14,4.53-.24,6,2l-.2.3c-2.35,1.82-4.4,1.62-6.13-.88C818.81,171.25,818.92,170.78,819,170.31Z"/><path class="cls-17" d="M29.43,296.54c-.09,2.27-.45,4.43-2.37,6C27.08,300.22,26.51,297.69,29.43,296.54Z"/><path class="cls-16" d="M385,28.43c0,.65,0,1.3,0,2a4.08,4.08,0,0,1-5.52.55l-.59-.68c-.49-1-.19-1.5.89-1.59a.8.8,0,0,0,1.24-.33A2.78,2.78,0,0,1,385,28.43Z"/><path class="cls-17" d="M385,28.43l-4-.09c1.53-2.34,3.89-1.91,6.15-1.83Z"/><path class="cls-17" d="M393.51,24.58c-1.83,1.74-4.08,2.08-6.47,2C388.59,23.89,391.12,24.48,393.51,24.58Z"/><path class="cls-17" d="M496.1,342.14c2-1.81,4.4-1.76,6.85-1.52C501.07,343,498.53,342.29,496.1,342.14Z"/><path class="cls-17" d="M401.07,22.45A7.33,7.33,0,0,1,395,24.23C396.55,22,398.87,22.43,401.07,22.45Z"/><path class="cls-17" d="M427.05,20.42c-1.55,2.11-3.77,1.9-6,1.73C422.62,20,424.91,20.47,427.05,20.42Z"/><path class="cls-17" d="M486.1,344.14c2-1.81,4.4-1.76,6.85-1.52C491.07,345,488.53,344.29,486.1,344.14Z"/><path class="cls-17" d="M618.91,314.36c1.51-2.25,3.84-1.91,6.06-1.92C623.49,314.78,621.12,314.34,618.91,314.36Z"/><path class="cls-17" d="M645,314.38c1.47-2.26,3.82-1.93,6-2C649.55,314.77,647.17,314.33,645,314.38Z"/><path class="cls-17" d="M55.41,234.53A7.68,7.68,0,0,1,53,240.37C53.07,238.13,52.56,235.63,55.41,234.53Z"/><path class="cls-17" d="M443.07,16.43c-1.53,2.19-3.84,1.94-6.07,1.94C438.48,16,440.85,16.46,443.07,16.43Z"/><path class="cls-17" d="M49.39,248.53A7.58,7.58,0,0,1,47,254.38C47.07,252.13,46.56,249.64,49.39,248.53Z"/><path class="cls-17" d="M233,386.34c2.21.08,4.52-.16,6,2C236.79,388.33,234.41,388.78,233,386.34Z"/><path class="cls-17" d="M451.05,14.42c-1.52,2.2-3.81,2-6,1.92C446.49,14,448.85,14.46,451.05,14.42Z"/><path class="cls-17" d="M459,12.42c-1.52,2.17-3.8,1.94-6,1.89C454.5,12,456.85,12.46,459,12.42Z"/><path class="cls-17" d="M608.92,316.37c1.51-2.25,3.83-1.92,6.05-1.91C613.48,316.78,611.12,316.33,608.92,316.37Z"/><path class="cls-17" d="M585,10.31c-2.24,0-4.51.19-6.12-1.85C581.06,8.46,583.43,8,585,10.31Z"/><path class="cls-17" d="M483,6.41c-1.53,2.12-3.76,1.84-5.94,1.74C478.6,6,480.89,6.47,483,6.41Z"/><path class="cls-17" d="M452.9,350.34a6.74,6.74,0,0,1,6.09-2C457.52,350.77,455.15,350.36,452.9,350.34Z"/><path class="cls-17" d="M95,352.34l4.17,2-6.52-.13c-.42-.46-.5-.85-.27-1.16s.42-.43.61-.43Z"/><path class="cls-17" d="M116.73,354.29c1.68-2,4-1.86,6.22-1.79C121.38,354.83,119,354.34,116.73,354.29Z"/><path class="cls-17" d="M109.19,140.5c-.21,2.52-1.85,3.72-4,4.43A5.28,5.28,0,0,1,109.19,140.5Z"/><path class="cls-17" d="M21.4,316.53c-.09,2.26-.42,4.43-2.33,6C19.08,320.22,18.51,317.7,21.4,316.53Z"/><path class="cls-17" d="M76.88,358.33A7.12,7.12,0,0,1,83,356.45C81.47,358.79,79.12,358.36,76.88,358.33Z"/><path class="cls-17" d="M581,316.37c2.21.09,4.55-.24,6,2C584.81,318.33,582.42,318.77,581,316.37Z"/><path class="cls-17" d="M70.27,360.16c1.91-1.8,4.27-1.94,6.69-1.86C75.29,361,72.71,360.3,70.27,360.16Z"/><path class="cls-17" d="M43.43,262.54c-.14,2.25-.47,4.41-2.39,5.94C41.08,266.2,40.52,263.67,43.43,262.54Z"/><path class="cls-17" d="M411,360.39c1.49-2.17,3.79-2,6-2.08C415.58,360.78,413.19,360.33,411,360.39Z"/><path class="cls-17" d="M62.49,362.22c1.84-1.76,4.12-1.9,6.48-1.75C67.3,362.88,64.84,362.33,62.49,362.22Z"/><path class="cls-17" d="M133,360.44c2.24,0,4.53-.12,6.16,1.89C136.89,362.35,134.51,362.79,133,360.44Z"/><path class="cls-17" d="M405.12,360.51l5.86-.13c-1.44,2.39-3.83,1.95-6.05,2C405,361.75,405,361.13,405.12,360.51Z"/><path class="cls-17" d="M54.18,364.15c2-1.79,4.33-1.87,6.78-1.64C59.16,365,56.61,364.3,54.18,364.15Z"/><path class="cls-17" d="M731.05,224.37c0-2.23-.13-4.52,1.86-6.17C732.93,220.45,733.4,222.84,731.05,224.37Z"/><path class="cls-17" d="M679.09,288.4c1.39-2.37,3.72-1.91,5.88-1.95C683.55,288.74,681.24,288.33,679.09,288.4Z"/><path class="cls-17" d="M33.52,286.59c-.13,2.26-.58,4.39-2.44,5.94C31.09,290.22,30.47,287.65,33.52,286.59Z"/><path class="cls-17" d="M44.17,366.14c2-1.76,4.36-1.68,6.77-1.52C49.1,367,46.58,366.3,44.17,366.14Z"/><path class="cls-17" d="M299,380.41c2.21,0,4.55-.28,6.07,1.95C302.83,382.34,300.46,382.77,299,380.41Z"/><path class="cls-17" d="M61.17,224.41,59,226.46c.07-2.28-.51-4.83,2.46-5.9C61.38,221.84,61.27,223.12,61.17,224.41Z"/><path class="cls-17" d="M365,366.48c2.21,0,4.52-.35,6,1.9C368.84,368.33,366.49,368.78,365,366.48Z"/><path class="cls-17" d="M325,380.39c1.47-2.27,3.81-1.94,6-2C329.55,380.76,327.18,380.33,325,380.39Z"/><path class="cls-17" d="M265.26,56.51c-1.69,2-4,1.91-6.25,1.81C260.59,56,263,56.45,265.26,56.51Z"/><path class="cls-17" d="M273.36,54.55c-1.73,2-4,1.91-6.36,1.81C268.6,53.94,271,54.46,273.36,54.55Z"/><path class="cls-10" d="M285,52.16l2.06.43c-1.67,2.09-4,1.83-6.23,1.62-.51-.49-.63-.92-.36-1.28s.46-.48.69-.48Z"/><path class="cls-17" d="M227,68.43c-1.58,2-3.83,1.95-6.06,1.95C222.46,68,224.82,68.45,227,68.43Z"/><path class="cls-17" d="M301.17,48.48c-1.58,2.18-3.91,1.92-6.17,1.87C296.53,48,298.92,48.45,301.17,48.48Z"/><path class="cls-17" d="M573.16,8.27c-.15-.59-.29-1.18-.41-1.77,1.66-.09,3.19.14,4.18,1.71Z"/><path class="cls-17" d="M473.09,8.44a3.88,3.88,0,0,1-4,1.69C470,8.65,471.5,8.42,473.09,8.44Z"/><path class="cls-17" d="M463,12.48l-2-.24c.91-1.54,2.39-1.82,4-1.82-.08.58-.17,1.17-.29,1.74A16.3,16.3,0,0,0,463,12.48Z"/><path class="cls-17" d="M590.93,12.23a4.64,4.64,0,0,1-4.27-1.7C588.35,10.42,589.92,10.62,590.93,12.23Z"/><path class="cls-17" d="M596.93,14.23a4.48,4.48,0,0,1-4.22-1.72C594.39,12.42,595.94,12.64,596.93,14.23Z"/><path class="cls-17" d="M603,16.33a4.67,4.67,0,0,1-4.26-1.82C600.43,14.42,602,14.68,603,16.33Z"/><path class="cls-17" d="M435.12,18.46a4.17,4.17,0,0,1-4.09,1.8C432,18.68,433.48,18.42,435.12,18.46Z"/><path class="cls-17" d="M609.32,20.06c-.11-.55-.25-1.09-.4-1.64a4.8,4.8,0,0,1,4.26,1.78l-.83.91C611.1,21.47,610,21.5,609.32,20.06Z"/><path class="cls-17" d="M418.9,22.65a5,5,0,0,1-4.36-2.08C416.38,20.45,418.06,20.66,418.9,22.65Z"/><path class="cls-17" d="M613.18,20.2a5.49,5.49,0,0,1,4,2l-1,.93c-2,.2-3.76.15-3.21-2.69Z"/><path class="cls-17" d="M617.19,22.18a5.71,5.71,0,0,1,4,2l-1,.95c-2,.19-3.81.17-3.22-2.71Z"/><path class="cls-17" d="M621.22,24.16a5.6,5.6,0,0,1,4,2l-1,.93c-2,.14-3.85.16-3.13-2.77Z"/><path class="cls-17" d="M625.19,26.19c1.55.24,3,.63,4,2l-1,.9c-2,.15-3.78.11-3.13-2.73Z"/><path class="cls-17" d="M379.76,28.67a8.86,8.86,0,0,1-.89,1.59L375,30.18C376.21,28.47,378,28.44,379.76,28.67Z"/><path class="cls-17" d="M633,30.51l-2.11.12c-1.85.36-2.41-.44-1.91-2.16l.22-.24C630.74,28.45,632.23,28.84,633,30.51Z"/><path class="cls-17" d="M639.35,36.12c-.09-.58-.19-1.17-.31-1.75a4.55,4.55,0,0,1,4.07,1.9l-.56.79-.91.35-1,0A1.39,1.39,0,0,1,639.35,36.12Z"/><path class="cls-17" d="M643.11,36.27c1.59.17,3.07.55,3.92,2.11l-.93.84a3.52,3.52,0,0,1-3.51-.59,1.65,1.65,0,0,1,.34-2.17Z"/><path class="cls-17" d="M649.1,40.25c1.61.16,3.09.57,3.94,2.13l-1.1.79a2.79,2.79,0,0,1-3.3-1.65Z"/><path class="cls-17" d="M655.11,44.23c1.61.18,3.08.59,3.93,2.15l-1.11.79a2.78,2.78,0,0,1-3.29-1.66Z"/><path class="cls-17" d="M661.09,48.26c1.61.15,3.09.55,3.95,2.12-.37.26-.74.52-1.1.79a2.78,2.78,0,0,1-3.3-1.63Z"/><path class="cls-17" d="M281.13,52.45c-.09.59-.2,1.18-.32,1.77H277C278,52.66,279.5,52.42,281.13,52.45Z"/><path class="cls-17" d="M669.18,54.16c1.58.24,3,.68,3.88,2.21l-1.13.8a2.78,2.78,0,0,1-3.31-1.75C668.8,55,669,54.58,669.18,54.16Z"/><path class="cls-17" d="M257.26,58.5a4.39,4.39,0,0,1-4.2,1.68C254.06,58.62,255.6,58.41,257.26,58.5Z"/><path class="cls-17" d="M249.39,60.56A4.68,4.68,0,0,1,245,62.24C246.07,60.61,247.67,60.42,249.39,60.56Z"/><path class="cls-17" d="M243.19,62.48A4.44,4.44,0,0,1,239,64.3C240,62.68,241.51,62.42,243.19,62.48Z"/><path class="cls-17" d="M237.32,64.53a4.39,4.39,0,0,1-4.3,2C233.89,64.64,235.53,64.42,237.32,64.53Z"/><path class="cls-17" d="M685.19,66.15c1.57.25,3,.69,3.87,2.22l-1.13.79a2.78,2.78,0,0,1-3.31-1.75Z"/><path class="cls-17" d="M221,70.39a4,4,0,0,1-4,1.76A4.47,4.47,0,0,1,221,70.39Z"/><path class="cls-17" d="M214.9,72.37a4.1,4.1,0,0,1-3.91,2C211.82,72.8,213.28,72.44,214.9,72.37Z"/><path class="cls-17" d="M211,74.4a4.09,4.09,0,0,1-4,1.93C207.88,74.75,209.36,74.43,211,74.4Z"/><path class="cls-17" d="M201.1,78.45c-.94,1.54-2.44,1.93-4.11,2C197.88,78.75,199.41,78.43,201.1,78.45Z"/><path class="cls-17" d="M197,80.41c-.89,1.57-2.37,1.94-4,2C193.87,80.77,195.36,80.43,197,80.41Z"/><path class="cls-17" d="M703.2,80.14c1.56.26,3,.7,3.85,2.23l-1.13.8a2.77,2.77,0,0,1-3.3-1.77C702.81,81,703,80.56,703.2,80.14Z"/><path class="cls-17" d="M655,310.39c.87-1.59,2.35-2,4-2.05C658.14,310,656.64,310.36,655,310.39Z"/><path class="cls-17" d="M627,312.38c1.35-1.93,2.7-2,4,0Z"/><path class="cls-17" d="M651,312.38c.88-1.59,2.37-2,4-2C654.13,312,652.63,312.36,651,312.38Z"/><path class="cls-17" d="M23.11,312.44c0,1.7-.21,3.3-1.85,4.29C21,314.93,21.24,313.33,23.11,312.44Z"/><path class="cls-17" d="M631,312.37c1.67,0,3.16.42,4.09,2C633.39,314.37,631.87,314,631,312.37Z"/><path class="cls-17" d="M545,318.38c.07-1.63.45-3.1,2.06-3.93C546.94,316.09,546.58,317.57,545,318.38Z"/><path class="cls-17" d="M27.11,302.44c0,1.7-.21,3.3-1.85,4.29C25,304.93,25.24,303.33,27.11,302.44Z"/><path class="cls-17" d="M19.11,322.44c0,1.71-.21,3.3-1.85,4.29C17,324.93,17.24,323.33,19.11,322.44Z"/><path class="cls-17" d="M531.1,330.44c.79-1.62,2.23-2,3.86-2.1C534.18,330,532.72,330.35,531.1,330.44Z"/><path class="cls-17" d="M15.11,332.44c0,1.7-.21,3.3-1.85,4.29C13,334.93,13.24,333.33,15.11,332.44Z"/><path class="cls-17" d="M11.17,342.45c0,1.72-.24,3.31-1.86,4.32C9,344.94,9.24,343.33,11.17,342.45Z"/><path class="cls-17" d="M448.75,352.23a4,4,0,0,1,4.21-1.91C452.05,352.06,450.5,352.37,448.75,352.23Z"/><path class="cls-7" d="M93,352.62a9.58,9.58,0,0,1-.34,1.59l-3.71-.16A3.61,3.61,0,0,1,93,352.62Z"/><path class="cls-17" d="M125,352.57c1.66.74,1.92,2.25,2.06,3.81C125.43,355.62,125,354.19,125,352.57Z"/><path class="cls-17" d="M444.75,354.23c.91-1.63,2.46-2,4.15-2.09C448.14,354.08,446.54,354.35,444.75,354.23Z"/><path class="cls-17" d="M84.17,356.13A5.38,5.38,0,0,1,89,354.44C87.84,356.29,86.05,356.35,84.17,356.13Z"/><path class="cls-17" d="M440.67,356.16c1-1.58,2.54-1.93,4.23-2C444.11,356.11,442.49,356.35,440.67,356.16Z"/><path class="cls-17" d="M170.81,358.32a4.46,4.46,0,0,1,4.15-1.83C174,358.11,172.48,358.38,170.81,358.32Z"/><path class="cls-17" d="M416.91,358.34c.89-1.57,2.38-2,4-2.06C420.14,358,418.62,358.36,416.91,358.34Z"/><path class="cls-17" d="M129,358.33a4.56,4.56,0,0,1,3.94,2.09C131.29,360.36,129.81,360,129,358.33Z"/><path class="cls-17" d="M164.7,360.28a4.48,4.48,0,0,1,4.24-1.73C167.94,360.16,166.39,360.38,164.7,360.28Z"/><path class="cls-17" d="M347,364.38c0-1.64.39-3.1,2-4C349,362,348.62,363.52,347,364.38Z"/><path class="cls-17" d="M189.06,364.22a4.49,4.49,0,0,1,4,2.1C191.36,366.36,189.83,366,189.06,364.22Z"/><path class="cls-17" d="M359,364.47c1.64,0,3.1.37,4,1.92C361.38,366.37,359.89,366.05,359,364.47Z"/><path class="cls-17" d="M380.92,368.37c.92-1.56,2.42-1.92,4.07-1.95C384.1,368,382.59,368.37,380.92,368.37Z"/><path class="cls-17" d="M335,376.39c.86-1.59,2.34-2,4-2.05C338.15,376,336.65,376.36,335,376.39Z"/><path class="cls-17" d="M331,378.39c.88-1.58,2.36-1.95,4-2C334.13,378,332.63,378.36,331,378.39Z"/><path class="cls-17" d="M295,380.39c1.34-2.1,2.67-2,4,0Z"/><path class="cls-17" d="M229,384.43c1.65,0,3.13.38,4,1.93C231.38,386.37,229.88,386.05,229,384.43Z"/><path class="cls-17" d="M280.83,390.33l2.09-2.07,2.06.1C284.09,390.05,282.54,390.37,280.83,390.33Z"/><path class="cls-17" d="M275,392.38a4,4,0,0,1,4-1.85C278.05,392.08,276.57,392.37,275,392.38Z"/><path class="cls-17" d="M31.12,292.44c0,1.72-.2,3.31-1.84,4.31C29,294.94,29.23,293.33,31.12,292.44Z"/><path class="cls-17" d="M35.22,282.47c0,1.72-.23,3.32-1.86,4.33C33,284.94,33.24,283.33,35.22,282.47Z"/><path class="cls-17" d="M693,282.41c.84-1.6,2.32-2,4-2.08C696.15,282,694.66,282.36,693,282.41Z"/><path class="cls-17" d="M41.07,268.42c0,1.7-.28,3.26-1.87,4.25C39,270.9,39.25,269.31,41.07,268.42Z"/><path class="cls-17" d="M708.92,268.37c.08-1.64.47-3.12,2.08-4C710.94,266.07,710.59,267.57,708.92,268.37Z"/><path class="cls-17" d="M45.21,258.46c0,1.72-.29,3.31-1.93,4.29C43,260.92,43.25,259.3,45.21,258.46Z"/><path class="cls-17" d="M47,254.39a4.4,4.4,0,0,1-1.84,4.21C45,256.87,45.31,255.34,47,254.39Z"/><path class="cls-17" d="M715,256.39c0-1.3,0-2.61,0-3.91l1.94-.11C717,254,716.63,255.51,715,256.39Z"/><path class="cls-17" d="M51.16,244.45c0,1.71-.3,3.28-1.9,4.28C49,246.91,49.25,245.31,51.16,244.45Z"/><path class="cls-17" d="M53,240.39a4.38,4.38,0,0,1-1.87,4.17C51,242.85,51.32,241.32,53,240.39Z"/><path class="cls-17" d="M57.18,230.46c0,1.7-.28,3.3-1.91,4.27C55,232.91,55.25,231.3,57.18,230.46Z"/><path class="cls-17" d="M59,226.42a4.4,4.4,0,0,1-1.93,4.16C57,228.85,57.34,227.31,59,226.42Z"/><path class="cls-17" d="M63.35,216.52c-.05,1.71-.35,3.31-2,4.26C61,218.9,61.27,217.27,63.35,216.52Z"/><path class="cls-17" d="M65.22,212.47c0,1.71-.39,3.26-2,4.23C63,214.88,63.27,213.27,65.22,212.47Z"/><path class="cls-17" d="M67.11,208.44a4.55,4.55,0,0,1-2,4.17C65,210.85,65.34,209.3,67.11,208.44Z"/><path class="cls-17" d="M69,204.4a4.36,4.36,0,0,1-1.93,4.12C67,206.82,67.34,205.3,69,204.4Z"/><path class="cls-17" d="M70.93,200.38a4.59,4.59,0,0,1-1.94,4C69,202.76,69.35,201.27,70.93,200.38Z"/><path class="cls-17" d="M79,184.39a4.31,4.31,0,0,1-2,3.93C77,186.69,77.37,185.23,79,184.39Z"/><path class="cls-17" d="M732.88,184.64a4.52,4.52,0,0,1-1.78-4.21C732.72,181.4,733,183,732.88,184.64Z"/><path class="cls-17" d="M81.31,182.35c-.78.67-1.56,1.34-2.35,2a4.85,4.85,0,0,1,1.82-4.16l1.12.87Z"/><path class="cls-17" d="M83.28,176.5c-.18,1.21-.37,2.42-.55,3.63l.09,0a1,1,0,0,1-1.73.41l-.31-.29C81.05,178.58,81.5,177.09,83.28,176.5Z"/><path class="cls-17" d="M815,168.32c1.62.09,3.11.45,4,2l-.28.4c-1.82,1.15-3.17.66-4.13-1.18C814.75,169.12,814.88,168.72,815,168.32Z"/><path class="cls-17" d="M811,166.3c1.62.11,3.1.48,4,2l-.37.49c-1.83,1-3.17.53-4.06-1.33Z"/><path class="cls-17" d="M89.43,166.57a4.56,4.56,0,0,1-2.4,3.9C87.05,168.69,87.38,167.1,89.43,166.57Z"/><path class="cls-17" d="M807.21,164.14c1.54.25,3,.67,3.83,2.16l-.25.33c-1.92,1.24-3.29.73-4.2-1.31Z"/><path class="cls-17" d="M801.21,160.14c1.57.25,3,.71,3.9,2.2-.38.27-.76.54-1.13.82a2.8,2.8,0,0,1-3.36-1.75C800.82,161,801,160.56,801.21,160.14Z"/><path class="cls-17" d="M93.43,162.6,91,164.44c0-1.68.36-3.18,1.94-4.12l.79.56A1.11,1.11,0,0,1,93.43,162.6Z"/><path class="cls-17" d="M793.2,154.14c1.57.26,3,.7,3.88,2.22l-1.14.8a2.78,2.78,0,0,1-3.32-1.75C792.81,155,793,154.56,793.2,154.14Z"/><path class="cls-17" d="M96.74,156.2c.25-1.58.69-3,2.22-3.87l.79,1.13a2.77,2.77,0,0,1-1.75,3.3Z"/><path class="cls-17" d="M159,100.39c-.87,1.58-2.35,2-4,2C155.84,100.79,157.33,100.43,159,100.39Z"/><path class="cls-17" d="M184.94,86.37A4.19,4.19,0,0,1,181,88.3C181.88,86.74,183.35,86.43,184.94,86.37Z"/><path class="cls-8" d="M191.08,84.56c-1,1.53-2.45,1.87-4.12,1.81a1.13,1.13,0,0,1,.28-1.89,7,7,0,0,0,1.77-.17A1.18,1.18,0,0,1,191.08,84.56Z"/><path class="cls-17" d="M191.08,84.56,189,84.31c.87-1.56,2.34-1.88,3.94-1.93q-.06.93-.15,1.86A11.31,11.31,0,0,0,191.08,84.56Z"/><path class="cls-17" d="M225,382.53l2.24,1.78C226.52,383.71,225.77,383.12,225,382.53Z"/><path class="cls-17" d="M293,382.4l2-2Z"/><path class="cls-17" d="M221,380.53l2.19,1.8Z"/><path class="cls-17" d="M696.93,280.36l2.05-2Z"/><path class="cls-17" d="M690.88,284.37l2.11-2Z"/><path class="cls-17" d="M217,378.36l2.29,1.94Z"/><path class="cls-17" d="M216.83,376.5c.08.63.14,1.25.2,1.88l-2-2A14.2,14.2,0,0,1,216.83,376.5Z"/><path class="cls-17" d="M213,374.54l2,1.86Z"/><path class="cls-17" d="M338.94,374.37l2-2Z"/><path class="cls-17" d="M211,372.52c.63.63,1.25,1.27,1.88,1.91Z"/><path class="cls-17" d="M729,228.4l1.86-2.39Z"/><path class="cls-17" d="M341,372.39l2-2Z"/><path class="cls-17" d="M209,370.3l1.84,2.12Z"/><path class="cls-17" d="M343,370.4l2-2Z"/><path class="cls-17" d="M345,368.39l2-2.11Z"/><path class="cls-17" d="M385,366.4l2-2Z"/><path class="cls-17" d="M387,364.41l2-2C388.32,363.05,387.67,363.73,387,364.41Z"/><path class="cls-17" d="M355,362.47l2.07,1.9Z"/><path class="cls-17" d="M187,362.28l2.1,2Z"/><path class="cls-17" d="M711,264.4l2-2.12Z"/><path class="cls-17" d="M389,362.38c.69-1.39,1.39-1.3,2.1,0Z"/><path class="cls-17" d="M351,360.35l2.1,2Z"/><path class="cls-17" d="M703,274.4l2-2Z"/><path class="cls-17" d="M185.1,360l2,2.34A3,3,0,0,1,185.1,360Z"/><path class="cls-17" d="M349,360.4c.64-1.48,1.32-1.44,2,0Z"/><path class="cls-17" d="M183,356.29l1.71,2Z"/><path class="cls-17" d="M127,356.34l2,2Z"/><path class="cls-17" d="M425,354.36a2.52,2.52,0,0,1,2.27,1.9Z"/><path class="cls-17" d="M420.88,356.34a2.53,2.53,0,0,1,2.07-1.81Z"/><path class="cls-17" d="M799.07,158.27l2.14,1.87-.18.2a1.75,1.75,0,0,1-2.31-.72C798.84,159.17,799,158.72,799.07,158.27Z"/><path class="cls-17" d="M93,160.32l1.89-2.11.76.67a2.67,2.67,0,0,1-.35,1.93,1.59,1.59,0,0,1-1.85,0Z"/><path class="cls-17" d="M666.94,302.37l2-2Z"/><path class="cls-17" d="M797.08,156.36l2,1.91-.26.31c-1.42.37-2.07-.34-2.3-1.64Z"/><path class="cls-17" d="M94.84,158.21l1.9-2,.21.17c.55,1.81-.13,2.46-1.94,2Z"/><path class="cls-17" d="M527.09,334.44a2.43,2.43,0,0,1,1.63-2.48A3,3,0,0,1,527.09,334.44Z"/><path class="cls-17" d="M713,260.39l1.92-2.11Z"/><path class="cls-17" d="M529.14,330.43c.62,0,1.24.07,1.86.08l-2.46,1.65A1.69,1.69,0,0,1,529.14,330.43Z"/><path class="cls-17" d="M705,272.4l2-2Z"/><path class="cls-17" d="M791.08,152.26l2.12,1.88-.18.22a1.8,1.8,0,0,1-2.31-.75C790.84,153.16,791,152.71,791.08,152.26Z"/><path class="cls-17" d="M534.94,328.37l2-2Z"/><path class="cls-17" d="M537,326.39l2-2Z"/><path class="cls-17" d="M74.78,192.43a2.21,2.21,0,0,1-1.5,2.41A2.7,2.7,0,0,1,74.78,192.43Z"/><path class="cls-17" d="M676.94,292.37l2-2.1Z"/><path class="cls-17" d="M539,324.4l2-2Z"/><path class="cls-17" d="M699,278.39l2-2Z"/><path class="cls-17" d="M701,276.4l2-2Z"/><path class="cls-17" d="M789.09,150.36l2,1.9-.25.3c-1.47.37-2.1-.35-2.24-1.71Z"/><path class="cls-17" d="M707,270.38l2-2Z"/><path class="cls-17" d="M541,322.4l2-2Z"/><path class="cls-17" d="M99,152.33l2-2,.41,1.2a2.21,2.21,0,0,1-2,1.22Z"/><path class="cls-17" d="M76.92,188.38a3.32,3.32,0,0,1-1.68,3A3.43,3.43,0,0,1,76.92,188.38Z"/><path class="cls-17" d="M100.92,150.29l1.91-2.08.49,1.24a2.07,2.07,0,0,1-2.14,1.14Z"/><path class="cls-17" d="M572.89,320.37l2.08-1.91Z"/><path class="cls-17" d="M555,318.43l2.13,1.93Z"/><path class="cls-17" d="M543,320.4l2-2Z"/><path class="cls-17" d="M102.83,148.21l1.51-1.55a2.57,2.57,0,0,0,1.25-.28c-.07,1.67-.79,2.52-2.57,2.05Z"/><path class="cls-17" d="M781.06,144.27l2.12,1.89-.19.23a1.81,1.81,0,0,1-2.28-.78Z"/><path class="cls-17" d="M576.87,318.36l2.12-2Z"/><path class="cls-17" d="M553,316.52l1.94,1.89Z"/><path class="cls-17" d="M779.08,142.36l2,1.91-.27.33c-1.44.3-2.08-.4-2.2-1.76Z"/><path class="cls-17" d="M664.85,304.35l2.11-2Z"/><path class="cls-17" d="M111.16,138.49a2.76,2.76,0,0,1-2.08,2.08Z"/><path class="cls-17" d="M639,314.44a14.69,14.69,0,0,1,2,0C640.32,315.57,639.66,315.57,639,314.44Z"/><path class="cls-17" d="M579,316.39q1-2.07,2,0Z"/><path class="cls-17" d="M549,314.37l2.11,2Z"/><path class="cls-17" d="M771.09,136.24l2.11,1.9-.18.22a1.78,1.78,0,0,1-2.31-.77C770.84,137.14,771,136.69,771.09,136.24Z"/><path class="cls-17" d="M113.16,136.49a2.76,2.76,0,0,1-2.08,2.08Z"/><path class="cls-17" d="M769,134.3l2.05,1.94-.24.3a2,2,0,0,1-2.17-1Z"/><path class="cls-17" d="M115.12,134.45l-2,2.12Z"/><path class="cls-17" d="M767.07,132.37l2,1.93-.36.41c-1.34.16-2-.51-2.16-1.79Z"/><path class="cls-17" d="M117.11,132.45,115,134.53Z"/><path class="cls-17" d="M119.15,130.48l-2.11,2Z"/><path class="cls-17" d="M121.16,128.49a2.79,2.79,0,0,1-2.09,2.07Z"/><path class="cls-17" d="M547,314.42c.62-1.45,1.28-1.4,2,0Z"/><path class="cls-17" d="M759.09,126.25l2.1,1.9-.19.23a1.79,1.79,0,0,1-2.29-.79C758.83,127.14,759,126.69,759.09,126.25Z"/><path class="cls-17" d="M123.16,126.49a2.76,2.76,0,0,1-2.08,2.08C121.78,127.88,122.47,127.19,123.16,126.49Z"/><path class="cls-17" d="M757,124.29l2.05,2-.24.29a2,2,0,0,1-2.17-1Z"/><path class="cls-17" d="M125.55,124.57l-2.47,2A2.87,2.87,0,0,1,125.55,124.57Z"/><path class="cls-17" d="M755.08,122.36l2,1.93-.32.38c-1.38.2-2-.47-2.16-1.79Z"/><path class="cls-17" d="M128.79,122.36l-1.72,1.72Z"/><path class="cls-17" d="M675,294.39l2-2Z"/><path class="cls-17" d="M131,120.39l-2,1.83Z"/><path class="cls-17" d="M133.09,118.44,131,120.38Z"/><path class="cls-17" d="M658.94,308.37l2-2Z"/><path class="cls-17" d="M747.12,116.22l2.08,1.92-.17.21a1.79,1.79,0,0,1-2.33-.78Z"/><path class="cls-17" d="M135.15,116.48l-2.12,2Z"/><path class="cls-17" d="M745.05,114.29l2.07,1.93-.23.28a1.92,1.92,0,0,1-2.2-.92Z"/><path class="cls-8" d="M139.08,114.63,137,116.41c-.48-.48-.61-.93-.4-1.35s.4-.6.58-.6A14.76,14.76,0,0,1,139.08,114.63Z"/><path class="cls-17" d="M137.2,114.46a16.06,16.06,0,0,0-.18,2,8.46,8.46,0,0,1-1.94.19A3,3,0,0,1,137.2,114.46Z"/><path class="cls-17" d="M661,306.4l2-1.92Z"/><path class="cls-17" d="M743.07,112.35l2,1.94-.28.36a1.43,1.43,0,0,1-2.15-1.89Z"/><path class="cls-17" d="M141.05,112.42l-2.1,1.82Z"/><path class="cls-17" d="M673,296.4l2-2Z"/><path class="cls-17" d="M142.86,112.28a9.59,9.59,0,0,1-1.85.18l2-2Z"/><path class="cls-17" d="M84.7,174.45a2,2,0,0,1-1.57,2.22Z"/><path class="cls-17" d="M145.2,108.47l-2.21,2Z"/><path class="cls-17" d="M735.13,106.21l2.07,1.93-.17.21a1.8,1.8,0,0,1-2.33-.79C734.84,107.11,735,106.66,735.13,106.21Z"/><path class="cls-17" d="M149,106.39l-1.91,1.76Z"/><path class="cls-17" d="M701.1,78.24l2.1,1.9-.17.21a1.78,1.78,0,0,1-2.32-.76Z"/><path class="cls-17" d="M699.08,76.36l2,1.88-.23.28c-1.53.4-2.15-.33-2.19-1.78Z"/><path class="cls-17" d="M733.05,104.29l2.08,1.92-.2.25a1.88,1.88,0,0,1-2.23-.87C732.82,105.16,732.93,104.73,733.05,104.29Z"/><path class="cls-17" d="M151.2,104.46,149,106.37Z"/><path class="cls-17" d="M205.16,76.45,203,78.25Z"/><path class="cls-17" d="M731.07,102.36l2,1.93-.28.33c-1.43.27-2.07-.42-2.19-1.77Z"/><path class="cls-17" d="M155,102.4l-2,1.8Z"/><path class="cls-17" d="M161.22,98.47,159,100.39Z"/><path class="cls-17" d="M723.13,96.21l2.07,1.93-.17.21a1.81,1.81,0,0,1-2.33-.79C722.84,97.11,723,96.66,723.13,96.21Z"/><path class="cls-17" d="M165.15,96.45,163,98.32Z"/><path class="cls-17" d="M721.05,94.29l2.08,1.92-.2.25a1.88,1.88,0,0,1-2.23-.87C720.82,95.16,720.93,94.73,721.05,94.29Z"/><path class="cls-17" d="M169,94.4l-2,1.82Z"/><path class="cls-17" d="M719.07,92.36l2,1.93-.29.33c-1.42.27-2.06-.42-2.18-1.77Z"/><path class="cls-17" d="M171.2,92.46l-2.21,2Z"/><path class="cls-17" d="M175.49,90.55,173,92.4A3.07,3.07,0,0,1,175.49,90.55Z"/><path class="cls-17" d="M691.05,70.29l2.12,1.87-.17.22a1.79,1.79,0,0,1-2.28-.75Z"/><path class="cls-17" d="M179.49,88.56,177,90.3A3,3,0,0,1,179.49,88.56Z"/><path class="cls-17" d="M689.06,68.37l2,1.92-.28.33c-1.41.29-2.06-.4-2.22-1.72Z"/><path class="cls-17" d="M87.06,170.42a3.59,3.59,0,0,1-1.83,2.91A3.29,3.29,0,0,1,87.06,170.42Z"/><path class="cls-17" d="M683.08,64.27l2.11,1.88-.17.2a1.77,1.77,0,0,1-2.31-.73C682.84,65.17,683,64.72,683.08,64.27Z"/><path class="cls-17" d="M681.06,62.36l2,1.91-.24.3a1.72,1.72,0,0,1-2,.21,1.83,1.83,0,0,1-.18-2Z"/><path class="cls-17" d="M711.09,86.25l2.1,1.9-.17.21a1.79,1.79,0,0,1-2.31-.76C710.84,87.15,711,86.7,711.09,86.25Z"/><path class="cls-17" d="M709,84.31l2.06,1.94-.24.29a1.94,1.94,0,0,1-2.16-1Z"/><path class="cls-17" d="M673.06,56.37l2,1.89-.23.27c-1.49.43-2.11-.31-2.26-1.68Z"/><path class="cls-17" d="M667.08,52.27l2.1,1.89-.16.19a1.67,1.67,0,0,1-2.24.28l-.36-1.25Z"/><path class="cls-17" d="M187.24,84.48c-.11.63-.2,1.26-.28,1.89l-1,0-1-.06Z"/><path class="cls-17" d="M671,298.4l2-2Z"/><path class="cls-17" d="M665,50.38l2,1.89-.21.24c-1.52.5-2.1-.29-2.29-1.64Z"/><path class="cls-17" d="M659,46.38l2.05,1.88-.19.24c-1.52.49-2.13-.28-2.29-1.66Z"/><path class="cls-17" d="M306.59,46.5c.05,1.1-.63,1.53-1.57,1.73Z"/><path class="cls-17" d="M686.91,286.37l2.06-1.89Z"/><path class="cls-17" d="M653,42.38l2.07,1.85-.17.22c-1.54.58-2.14-.22-2.33-1.61Z"/><path class="cls-17" d="M707.05,82.37l2,1.94-.35.4A1.78,1.78,0,0,1,706.49,83Z"/><path class="cls-17" d="M309.37,42.51l-2.23,2.4A3,3,0,0,1,309.37,42.51Z"/><path class="cls-17" d="M91,164.41a2.47,2.47,0,0,1-1.82,2.38A2.86,2.86,0,0,1,91,164.41Z"/><path class="cls-17" d="M647,38.38l2.07,1.87-.18.22c-1.48.59-2.11-.2-2.41-1.51Z"/><path class="cls-17" d="M669,300.38l2-2Z"/><path class="cls-17" d="M639,34.35l-2.48-1.81A3.16,3.16,0,0,1,639,34.35Z"/><path class="cls-17" d="M634.92,32.13l-2-1.69Z"/><path class="cls-17" d="M719,238.39l2-1.88Z"/><path class="cls-17" d="M805.11,162.34l2.1,1.8-.18.2c-1.69.73-2.22-.15-2.3-1.65Z"/><path class="cls-17" d="M247,392.34l2.21,2Z"/><path class="cls-17" d="M285,388.38l2-1.91Z"/><path class="cls-17" d="M288.87,386.36l2.11-2Z"/><path class="cls-17" d="M606.89,18l-2.36-1.48Z"/><path class="cls-17" d="M291,384.39l2-2Z"/><path class="cls-19" d="M413.31,124.3a58.78,58.78,0,0,1,13.58,14.34c1.41.83.77,2.91,2.26,3.68l.05-.07c-8.11,5.6-17.9,6.61-27,9.19-15.21,4.32-30.8,7.31-46.25,10.78a26.38,26.38,0,0,1-5,.18c-15.47,2.73-31.1,1.74-46.67,2.06-8.15.16-15.12,4.72-22.66,7.08-6,1.89-12.13,3.76-18.2,4.48-7.57.89-11.16,5.2-13.75,11.23-1.57,3.65-2.52,7.55-3.82,11.32-6.15,17.89-16.57,32.26-33.48,41.59a48.9,48.9,0,0,1-15.79,5.7c-5.2.82-10.32,2.36-15.63,2.54-.1-5.55,5.11-7.07,8.05-10.16a169.58,169.58,0,0,0,14.13-17.42c9.48-11.93,16.8-25.28,25-38.06,4-7.17,10.15-11,18.05-13a270.52,270.52,0,0,0,37.79-13,101.66,101.66,0,0,1,25.83-7.4,255.74,255.74,0,0,1,31.2-5.56c3-.1,6.06.15,9-.87a19.8,19.8,0,0,1,2.95-.71c18.83-2.63,37.63-5.28,53.76-16.66C408.67,124.28,410.83,123.2,413.31,124.3Z"/><path class="cls-20" d="M205,222.39a113.8,113.8,0,0,1-24,26c-11.66,7.62-24.21,6.63-37.26,4.76a139.5,139.5,0,0,0-37.58,0c-10.07,1.3-20.31,2.2-29.57,6.42-2.52-3.22-1.23-6.32-1.62-9.18a5,5,0,0,1,0-6c0-1.33,0-2.66,0-4,2.49-1.81,1.88-4.51,2-7s-.51-5.19,2-7c11,.34,21.12-4.42,31.93-5.17a9,9,0,0,1,2.91.44c5.7,3.56,11.52,4.67,18,1.83,4.39-1.92,9.46-2.57,13.55.06,12.91,8.32,24.66,5.2,36.23-2.64a18.64,18.64,0,0,1,4.44-2.28C192.86,217.31,199.32,217.83,205,222.39Z"/><path class="cls-15" d="M75,244.39q0,3,0,6Q71.15,247.39,75,244.39Z"/><path class="cls-15" d="M81.09,180.49a12.45,12.45,0,0,1,1.73-.41l-1.51,2.27C81.21,181.73,81.14,181.11,81.09,180.49Z"/><path class="cls-21" d="M440.39,162.86c4.48,13.07.26,25.39-3.29,37.76-2.6-2.65-5.26-4.81-9.45-3.42a11.21,11.21,0,0,1-11.12-1.84c-4.64-3.66-9.28-2.28-13.6.77-5.62,4-11.26,7.94-16.16,12.83a26.93,26.93,0,0,1-8.29,4.86,44.17,44.17,0,0,0-5.07,2c-.84.47-1.69.88-2.56,1.27-8.53,2.72-16.47,7.3-25.62,8.05-20,2.72-40.14,4.13-59.89,8.49-2.91.64-5.92,1.13-8.43-1.27,16.64-11.71,34.83-20.66,53.18-29.2A701.47,701.47,0,0,1,440.39,162.86Z"/><path class="cls-22" d="M276.91,232.37c12.57-2.39,25.2-4.43,37.82-6.5,10.74-1.77,21.66-1.09,32.28-3.45-.09,5-4.69,5-7.65,6.43-11.42,5.35-23.17,10-33.92,16.7-17.71,1.64-30.64,11.95-42.79,23.66-11.92,9.53-23.06,20-34.27,30.29-5.79,5.94-8.79,14-14.79,19.75a12.61,12.61,0,0,1-2.47,1.29,116,116,0,0,0-24.42,8.93c-.91,0-1.83,0-2.74-.09a4.67,4.67,0,0,1-2.47-1,6.55,6.55,0,0,1-1.5-2.17,6,6,0,0,1,1.73-5.9,10,10,0,0,1,2-1.43c.68-.42,1.4-.8,2.12-1.18s1.41-.8,2.14-1.17c1.49-.8,2.95-1.64,4.44-2.45,2.91-1.55,5.88-2.95,8.8-4.47,6.74-3.5,15.68-5.69,8-16.55-1.79-2.53-.46-6.41,1.44-9.33C230.44,263.64,252.27,246.19,276.91,232.37Z"/><path class="cls-23" d="M183,328.37l2,.05a1.26,1.26,0,0,1,.45,1.34c-.16.44-.31.66-.46.66-3.21,4.6-6.63,5-10.37.59-1.67-2-3.45-3.86-5.12-5.73-3.12.47-3.66,3.11-4.38,5.06-2.32,6.21-7.52,1.91-11.19,3.15-3.82,1.29-4.6-2.54-5.11-5.57,16.68-10.63,33.33-21.29,48.78-33.73,4.34-3.5,7.87-8.05,13.09-10.45.65,12,.65,12,7.22,18.55-8.35,6-17,11.17-26.89,14.11-1.07,1.2-3,.75-4,2-.67.66-1.4,1.27-2,2l-2,0c-2.11,1.51-4.41,2.95-2,6h0C181.61,327.11,182.35,327.7,183,328.37Z"/><path class="cls-24" d="M517,258.41c-9.86,7.72-19.89,15.26-27.79,25.73,4,3.81,8.28,2.17,12.28,1.7,2.26-.26,4.39-1.44,6.62-2.07,7.22-2.06,8.48-.65,7.16,7-.74,4.3-2.52,8.23-3.52,12.39-1.21,5-3.36,10,.09,15.18,2.32,3.49.26,6.31-2.57,8.52a19.1,19.1,0,0,1-7.13,3.39,144.13,144.13,0,0,1-44.27,4,36.27,36.27,0,0,1-8.64-2.08c-4.51-1.43-4.17-4.44-2.24-7.82,2.81-5.9,8.74-6.75,14-8.69,4.75-1.28,9.63-2.18,15-4.57-3-2.73-6-1.93-8.7-2.05-4.31-.18-8.64.12-12.94-.24-15.34-1.28-18.77-6.15-12.2-19.84,5.27-11,7.15-21.91,4.66-33.71a14.06,14.06,0,0,1,.47-3c5.61-13.77,13.3-26.56,18.86-40.39,4.69-11.67,6.63-22.8-.95-34a11.48,11.48,0,0,1-1.83-9.48c1.15-3.29,3.85-4.77,6.85-5.88,6.64-2.3,13.68-2.24,20.49-3.54,2.2-.41,5.08-1.08,4.92-3.95-.11-2.13-2.66-2.64-4.54-3.29-4.19-1.44-10.56-1-10.62-7-.05-6.36,6.67-6.4,11-8.14,7.38-3,14.92-5.49,21.17-10.63,1.13-1,2.51-1.72,3.3-3-6.28-1.06-12.31.24-18.4,1.16-4.25.65-8.71,1.44-11.83-2.88-4.92-8.38-6.09-19.76-17.36-23.21-1.13,1.16-1.51,1.89-1.15,2.44,5.49,8.15,4.32,14.52-4.74,19.13-1.71.87-2.69,2.92-4.11,4.34a8.23,8.23,0,0,1-5.34,2.32c-5.81-1.29-12.54-1.47-12.58-10-3.36-11.92.82-20.08,16-24-6.86-2.77-11.11-3.34-13.07-7.58-2.47-5.31,1.88-7.9,3.78-11.52.76-1.45,0-2.49-1.12-3.38a5.33,5.33,0,0,1-2.19-3.32A6.52,6.52,0,0,1,447,60.4c4.67,4,11.6,5.43,14.05,12.06,7,14.91,7.39,15.23,18.16,14,11.3,5.55,23.29,9.65,33.87,16.74,10.2,6.83,15.24,16.45,15.86,28.31,1,18.6,0,37.1-5,55.21a17.07,17.07,0,0,0-.85,4.87c.52,16.6-3.68,33-2,49.64.67,6.42-3,11.43-4.1,17.23Z"/><path class="cls-2" d="M804.73,162.69a2.48,2.48,0,0,0,2.3,1.65,4.63,4.63,0,0,0,3.76,2.29c.81,1.57,2.25,2,3.86,2.18,1,1.5,2.45,1.86,4.09,1.9,1.63,1.91,3.88,1.83,6.09,1.89,3.11,2.54,2.44,5-.24,7.31-24.74,5.7-49.19,3.11-73.55-2.47-2.56-.59-5.17-1-7.76-1.43-1.72-1.69-3.91-1.79-6.12-1.84-1.09-1.41-2.72-1.6-4.3-1.89-1.08-1-2.57-.9-3.82-1.42l-2-.25c-24.41-11.84-48.56-24.33-76.18-27.22-3.28-.34-6.51-1.18-9.85-.86-7.44,2.93-14.88.4-22.3-.13-17.71-1.25-35.41-2.05-53.11,0-8.71.3-17.41,3.24-26.15.18-2-9.9-5.86-19.12-10.14-28.19,3.6-4.37,8.73-4.4,13.68-4.61,5.65-.25,11.3-1.09,16.89-1.18,28.57-.46,57.09-4.17,85.64-2.5,18.54,1.08,33.51,12.27,49,21.22,12.66,7.32,24,16.79,36.64,24.16,16.4,9.54,32.7,13.29,49-.31a5.51,5.51,0,0,1,5.61-1.1l2.87.82a2.46,2.46,0,0,0,2.24,1.71,2.46,2.46,0,0,0,2.19,1.8,4.6,4.6,0,0,0,3.49,2.58,2.52,2.52,0,0,0,2.3,1.64,2.52,2.52,0,0,0,2.22,1.76A4.73,4.73,0,0,0,804.73,162.69Z"/><path class="cls-25" d="M785.72,150a10.51,10.51,0,0,0-2.59,1.47c-5.38,5.59-10.93,10.57-19.39,10.94-10.81.48-20.91-.8-30.57-6.51-14-8.29-26.74-18.53-40.72-26.78-12.49-7.38-24.88-15.27-39.2-19-13.47-3.54-27.3-2.41-40.69-1.15-10.3,1-20.53,1.26-30.79,1.35-17.59.14-35,1.85-52.45,4-1.76-2.42-4.09-4.47-4.79-7.55,5.72-5.22,13.47-5,20.24-7.43,19.44-6.84,39-13.13,59.29-17.31,9.23-1.91,18.33-3,27.68-1.93,19.7,9.42,38.92,20,59.92,26.47,8.84,3.75,18.22,5.8,27.38,8.54,8,2.39,16,2.83,23.84-.68l1.89.19a2.38,2.38,0,0,0,2.12,1.85,2.61,2.61,0,0,0,2.14,1.85,10,10,0,0,0,5.53,4.53,2.6,2.6,0,0,0,2.16,1.79,2.49,2.49,0,0,0,2.13,1.87,2.51,2.51,0,0,0,2.15,1.84,9.85,9.85,0,0,0,5.52,4.54,2.59,2.59,0,0,0,2.16,1.79,2.54,2.54,0,0,0,2.17,1.83,2.48,2.48,0,0,0,2.17,1.82,9.76,9.76,0,0,0,5.57,4.48,2.54,2.54,0,0,0,2.2,1.76,2.49,2.49,0,0,0,2.2,1.79Z"/><path class="cls-16" d="M442.86,116.14c-.28,1.77-1.56,3.66,1.21,4.8,2.95,1.21,5.56,3.28,8.91,3.48,6.55,4.66,13.56,5.52,21.52,4,12.92-2.39,25.8-5,38.84-6.75,2.47-.32,5.46-1.82,5.64,2.67l-4,2c-9.61,6-20.49,9-30.84,13.23-5.22,2.14-9.92,5.05-15.47,8.76,4.64,2.28,8.62,1.09,12.31,1.7,2.29.38,5.2.47,5.82,3,.75,3-1.84,4.86-4.24,6-3.85,1.8-7.69,3.66-11.59,5.34-2.1,1.19-4.6,1.78-6,4-3.7,6.74-7.07,13.71-7,21.54.33,21.33-2,42.23-9,62.47,0,.67,0,1.33,0,2-2.11,9.33-5.49,18.26-8.61,27.27a38.33,38.33,0,0,0-2.24,8.63c-1.31,13.22,2.07,17.25,15.24,18.12,2,.13,4.11-.32,5.9.54,4.71,2.27,7.21,5.19,1.7,9.42-5.21.72-9.29,4.08-14,6-11.29,1.88-14.38,10.09-15.29,20.25.26-15.84-2-31.3.75-46.89C434,289.06,434,280,434.78,271.1a118.48,118.48,0,0,1,4.15-23.37c4-13.68,6.33-27.66,8.13-41.78,1.58-12.43,3.67-24.79,5.5-37.18,1.1-7.47,1.06-14.43-5.82-19.76-5.58-4.32-9.56-10.18-12.61-16.5a18.88,18.88,0,0,0-9.76-9.46,43.29,43.29,0,0,1-22.07-22c-2.29-4.91-5.37-8.9-10.88-11s-6.8-8.83-11.77-11.75c3.68-2.89,6.94-1,10.21.88a32.32,32.32,0,0,0,6.5,1,12.63,12.63,0,0,1,8.32,4,14.75,14.75,0,0,1,1.67,2.11c1,1.51,1.93,3,3,4.46,3.3,5.3,7.05,7.68,13,3.2,3.34-2.5,7.58-2.36,11.57-1.26,3.52,1,3.78,3,1.9,6-1.63,2.61-7.46,2-5.76,6.81,1.51,4.28,5.21,6.79,9.36,8.47A15,15,0,0,1,442.86,116.14Z"/><path class="cls-9" d="M321,144.36c-1.9-10.65-4.46-21.09-4.15-32.17.54-18.84,2.41-37.35,8.1-55.37,2.36.66,4.73,1.28,6.41,3.27C325.82,78,324.4,96.46,323.78,115a51.22,51.22,0,0,0,1.83,14.78c.66,2.47,1,5.8,4.63,5.34s4.69-3.31,4.74-6.6c0-2.69-1-5.23-1.23-7.85-1.64-16.09-5.06-32.14-1.45-48.41.79-3.56.94-7.32,4.61-9.42,2.28.74,4.58,1.45,6.23,3.37-3.58,18.36-3.82,36.64,2.21,54.7-3.34-12.55-3.42-25.32-3-38.1.17-5.19-.57-10.8,4.64-14.43a10,10,0,0,1,6.53,3.49c-2.54,13.37-3.4,26.67,1.6,42.16,2.35-6.49.37-10.48.05-14.52-.66-8.46-2.91-17.21,3.74-24.58a6.37,6.37,0,0,1,4.25,2.78c2.69,7-1.26,14.49,1.61,21.49,1,2.29.42,6,4.14,5.77,3.34-.21,5-2.88,5.59-6.1.71-3.75-1.06-8.13,2.8-11.09,2.16,1.16,4.28,2.38,5.49,4.66-.53,4.85,2.5,6.74,6.51,7.82a62.76,62.76,0,0,1,12,11.8c.87,4.71-2.86,6.11-5.86,7.73a181.45,181.45,0,0,1-18.25,9c-14.31,5.57-27.4,14.23-43,16.57-4.57.69-8.94,2.16-13.14-.91Z"/><path class="cls-26" d="M535.32,288.23q-.24-5-.46-10.1c-.11-26.74,2.85-53.24,6.25-79.71a1.88,1.88,0,0,1,2.71.39,11.41,11.41,0,0,1,1.64,6,35.37,35.37,0,0,1-.7,9.18,26.11,26.11,0,0,0-1.15,8.83,42.84,42.84,0,0,1-.8,9,26.14,26.14,0,0,0-1.23,8.56,89.5,89.5,0,0,1-1.47,14.77c-1.25,7.57,2.16,10.51,9.41,8.38a15.9,15.9,0,0,0,6.9-3.81c6-6,10.62-13.24,20.34-14.61,3.68-.53,4.07-6.41,6.08-9.77,4.76-7.94,8.36-8.63,14.28-1.67,3.1,3.65,6.25,5.27,11,5.18a36.62,36.62,0,0,1,12.63,2.35c4.84,5.82,12,9.71,14.46,17.52-11.29,4.87-21.58,1.56-30.72-5s-20.37-3.92-24.54,6.77a33.15,33.15,0,0,0-1.82,5.7c-1.51,7.68-5.22,11.26-13.33,7.8-2-.87-5.28-2.18-6.45.16C553.86,283.06,545,285,537,288.4A9.36,9.36,0,0,1,535.32,288.23Z"/><path class="cls-27" d="M542.92,198.29l-1.81.13c-.56-13,1.42-25.94.16-38.91-.39-4-.89-7.92-1.34-11.88l-.19-.7c-.09-1.46-.18-2.92-.28-4.39a94.94,94.94,0,0,1,25-2.36c2.52-1.2,5.21-.49,7.82-.77,7.1-.76,12.25.4,8.84,10,7.73-1.61,14.06.21,20.19,2.77,1.88.8,4.88,1.42,3,4.81-7.49,4-15.56,1.67-23.36,2.14-9.31.56-18.53,1-25.78,8-6.38,4.35-9.77,9.85-9.26,18.13C546.19,189.5,546.74,194.64,542.92,198.29Z"/><path class="cls-28" d="M384.92,208.34c5.14-7.63,13.2-11.78,20.5-16.72,3.34-2.27,8.77-2.78,11.06.26,4.1,5.47,8.38,3.46,13,2.48,6.64-1.39,6.65-1.36,7.58,6.26-2.32,15.73-4.68,31.45-7,47.18-1.19,8.2-2.26,16.41-3.39,24.62-.73,6.34-1.85,12.56-5.64,17.95a2.59,2.59,0,0,1-2.62,0c-1.85-2.46-1.66-5.3-1.58-8.13a17.49,17.49,0,0,1,.4-2.8c.2-.95.46-1.87.73-2.79.31-1.46.59-2.92.84-4.4,5.37-22.82,3.82-45.63,0-68.4-3.94-4.66-7.78-.39-11.61.19C399.74,205.14,393.26,211.53,384.92,208.34Z"/><path class="cls-10" d="M336.91,62.86c-1.89,12.33-5.15,24.27-2.49,37.29,1.88,9.25,1.25,19,4.11,28.4,1.6,5.2-5.55,12.39-10.73,11.52-3.22-.54-3.85-3.48-4.52-6a74.9,74.9,0,0,1-1.93-30.65C323,93,322,82.19,325.11,72c1.32-4.3,1.16-9.47,6.2-11.86A10.38,10.38,0,0,1,336.91,62.86Z"/><path class="cls-16" d="M517,258.41c8.16-4.62,8.14-4.61,6.44-13.69a16.87,16.87,0,0,1-.39-4.94c1.2-10.53,2.45-21.05,2.07-31.7-.1-2.82,1.48-5,4.69-6.33,2.49,3.6,3.23,7.6,3.18,11.89-.06,5.65-.32,11.33.07,17,.86,12.6-1,24.48-7.82,35.36-1.38,2.19-3.1,4.86-1.57,7.48,5.24,8.9,2.54,18.08,1.17,27.16-1.08,7.17-4.19,14-4.13,21.4a2.85,2.85,0,0,1-2.31,2.92c-2.14.31-2.94-1.41-3.17-3a19.11,19.11,0,0,1,.5-8.88c4.4-13.29,4.19-26.84.78-40.14a25.78,25.78,0,0,1,.49-14.49Z"/><path class="cls-29" d="M379.46,30.94l5.52-.55c9.88-2.33,19.61-5.27,30-2.09a61.26,61.26,0,0,1,14.25,6.83c-6.44,1.61-10.9,3.77-15.95,3.19-1.49,1.58-2.85.39-4.25-.16a10,10,0,0,0-4.22-1.48,7.42,7.42,0,0,0-2,.51,1.66,1.66,0,0,0-.69,1.71c.08.63.09,1,.2,1,.29.71.52,1.41.74,2.13,1.82,5.38-2.5,6.15-5.74,7.75a29.75,29.75,0,0,0-9.5,6c-1.68,1.47-3.27,3.07-5.61,3.45-7.56-.48-5.92-6-5.3-10.73-4.55.32-7.87,2.87-11.73,3.79a12.69,12.69,0,0,1-2.67.49l-1.35-.16c-2.15-1.47-1.84-3.24-.68-5.15,3.47-5.69,7-11.26,14.27-12.74,1.64-.34,3.24-.78,4.22-2.33A3.08,3.08,0,0,1,379.46,30.94Z"/><path class="cls-30" d="M633,82.38c-20.81-1-40.28,5.11-60,10.72-16.15,4.61-31.56,11.9-48.49,13.69-.61-.68-1.21-1.37-1.81-2.06,6.73-6.65,16-8.93,24.17-12.48,10.43-4.51,20.66-10,32-12.36,1.46-.37,2.91-.78,4.37-1.17a21.48,21.48,0,0,1,3-.69c7.68-.83,14.58-4.36,21.93-6.32C617.49,69.22,628.09,73.82,633,82.38Z"/><path class="cls-31" d="M377,126.41c5.58-2.79,11.17-5.54,16.72-8.4,2.87-1.48,6.17-2.49,7.53-5.93a64,64,0,0,1,12.05,12.22c-18.35,14.13-39.75,18.87-62.26,20.2-.54-4.84,3.83-5.48,6.55-7.13C364,133.52,370.71,130.37,377,126.41Z"/><path class="cls-32" d="M450.93,46.37c4.74-3.75,10.46-2.62,15.23-1.46,10.08,2.44,20.4,2.08,30.49,3,11.46,1,22.91,3.2,34.56,2.7,5.86-.24,11.37,3.14,17.51,2.36-2.93,2.09-6.09,1.46-9.08,1.39-6-.14-12,.21-17.53,2.67a21.39,21.39,0,0,1-11.73,1.32c-17.94-2.41-35.84-5.09-53.76-7.68A12.76,12.76,0,0,1,450.93,46.37Z"/><path class="cls-33" d="M585,80.38l-2,.09-2.05,1.89c-12.1,1.49-22.19,8.65-33.65,12-5.1,1.48-9.68,4.25-14.24,7-3.16,1.89-6.51,3.39-10.31,3.41L502.93,86.47c11,2.45,22.08,4.93,33.13,7.34a43,43,0,0,0,4.83.51,14.75,14.75,0,0,0,2.1-1.93h0c2.27-5.52,5.88-8.38,12.09-6.07.61,0,1.22,0,1.82,0,1.15-1.11,3-.63,4.1-1.91.63,0,1.26,0,1.89,0,2.33-7.14,7.2-10.53,14.74-10,2.65.18,5.23,0,7.37-1.9h2c1.75,2,4.67.13,6.44,2C593.1,79.92,587.54,78,585,80.38Z"/><path class="cls-34" d="M396.61,48.2c3-1.61,7.09-2.64,4-7.51,5.06-2.07,9.28,5,14.49,1.34,2,.77,1.49,3.82,3.83,4.31.1,2.94-2,7.1,4.52,5.45,4.83-1.24,8.19-4,11.47-7.24,4.39.91,5,3.92,3.55,7.38-1.29,3.1,1.95,2.75,2.66,4.25l-.84,1.08c-3.74,2-7.9,1.52-11.88,2.1a17.37,17.37,0,0,0-6.4.75c-5.92,1.91-12.14,3.32-15.37,9.55a6,6,0,0,1-2.1,1.6c-5.05.84-4.26-4.71-7-6.39-3.47-3.3-7.7-1.21-11.56-1.63-2.3-1.05-4.53-2.14-3.21-5.35.95-1.72,1.93-3.42,3.93-4.13,5,2.32,9.84,2.21,14.43-1.23C400.78,49.79,397.36,50.39,396.61,48.2Z"/><path class="cls-35" d="M347,68.4c-3.15,17.14-4.18,34.21,2.46,50.84,1.18,3,.92,5-1.4,7s-4.19,2.06-5.45-.94a38.07,38.07,0,0,1-1.71-5.66c-3.9-15.92-3.72-32-1.76-48.13a6.71,6.71,0,0,1,4-5.31A4.65,4.65,0,0,1,347,68.4Z"/><path class="cls-32" d="M377.29,87.8c0,3.62-.46,7.34.21,10.83.61,3.21-.54,5-2.73,6.74-8.19,6.61-9.44,5.83-12.18-4.34a41.56,41.56,0,0,1,.57-23.3A40.83,40.83,0,0,1,377.29,87.8Z"/><path class="cls-10" d="M358.91,75c-3,11.15-2.11,22.26.38,33.35.5,2.2,2,4.31.09,6.54-1.1,1.26-2.19,2.69-3.93,2.78-2,.1-2.87-1.67-3.28-3.21C350.91,109.64,349,105,349,99.94c0-6.31.06-12.62-.05-18.93-.07-3.91.62-7.29,4.57-9.12A10.56,10.56,0,0,1,358.91,75Z"/><path class="cls-36" d="M382.8,57.89a8,8,0,0,0,3.68,4.52,3.41,3.41,0,0,1,1.82,2.33c-.69,7.17-4.34,8.33-10.08,4.84-2.26-1.37-4-3.45-6.19-5-3.07-3-7.35-1.74-10.88-3-3.74-1.38-6.91-3.15-2.18-7.19a2.51,2.51,0,0,0,2.2-1.8l-.08,0a3.48,3.48,0,0,1,2.83-1.9c6.22-1.56,11.29-6.67,18.35-6.38,1.14,5.16-4.26,6.46-5.1,10.17C378.24,57,381,56.68,382.8,57.89Z"/><path class="cls-37" d="M466.78,58.55c4.32-3.21,8.86-.18,13.05.17,8.59.72,17.48,1,26.44,4.5-5.09,5.3-9.66,8.34-16.77,5.44-3.83-1.57-8.31-1.54-12.5-2.23a26.42,26.42,0,0,1-8.07-6.08c-.73-.57-1.12-1.55-2.13-1.79Z"/><path class="cls-34" d="M447,60.4q-1.09,2.9-2.2,5.81a5.88,5.88,0,0,1-2,1.83c-4.87,2.63-12.24,1.13-14.12,8.63a7.47,7.47,0,0,1-1.1,3.71c-2.76,1.67-5.85.52-8.75,1a7.28,7.28,0,0,1-2.49-.47c-2.52-1.49-5.35-2.48-7.55-4.51-.94-2.2-4.59-2.72-3.75-6h0c6.68-3.94,15.63-3.14,20.93-10,4.39-3.44,11.53,4.18,14.83-3.7l.42-.55C444.31,55.92,445.44,58.43,447,60.4Z"/><path class="cls-38" d="M359,54.4c-1.91,4-1.11,6.1,3.75,5.89,3.49-.15,7.68-3.08,10,2.17,1.9,5.47,12.43,7,7.16,15.74-7.87.55-13.47-3.24-16.52-10-1.53-3.42-3.31-5.19-6.76-6.26-2.4-.74-5.4-2.61-4.54-5.55C353,53.15,356.56,54.81,359,54.4Z"/><path class="cls-39" d="M419,290.43c3.72-5.51,5.23-12,7.73-18l-3.9,44c-1.87.87-3.62,2.12-5.84,2-2-1.65-2.4-4-2.68-6.32C414.26,304.52,414.57,297,419,290.43Z"/><path class="cls-40" d="M479.17,86.41c-5.39,5.88-7.39,6.38-11.69,1.51-3.79-4.3-8.8-8.45-6.47-15.46C469.94,73.36,477.42,76.16,479.17,86.41Z"/><path class="cls-41" d="M435,44.55c.23,4-1,6.67-5.27,8-5,1.6-9.85,2.35-15.14,1.31.11-3.63,3.72-4.74,4.43-7.56C424.08,43.75,429.2,41.3,435,44.55Z"/><path class="cls-34" d="M379.91,78.2c-.11-3.47-.21-6.8-3.37-9.35a9.24,9.24,0,0,1-3.79-6.39c2.35.69,3.73,2.64,5.47,4.15,5.54,4.81,5.73,4.74,9-2.78a5.8,5.8,0,0,1,6.15,2.67C389.2,71,390.27,77,389,82.4c-2.5-2.8-5.3-4.88-9.36-4.05Z"/><path class="cls-42" d="M415.14,42c-.67,4.69-3.64,5-7.23,3.59-2.73-1.1-4.07-4.4-7.26-4.93l.06,0c-.81-2.18-1.19-4.33.29-6.41l4,.39c1.11.95,2.87.44,3.83,1.72l4.45,1.9Z"/><path class="cls-43" d="M389.3,100.28c-8.45,1.29-9.47.07-6.51-7.82A20.09,20.09,0,0,1,389.3,100.28Z"/><path class="cls-16" d="M367,32.45l3.94.13c-1.23,1.78-3,1.82-4.86,1.48A7.14,7.14,0,0,1,367,32.45Z"/><path class="cls-2" d="M429.15,142.32c-1.68-.65-2.13-2.07-2.26-3.68A3.9,3.9,0,0,1,429.15,142.32Z"/><path class="cls-2" d="M539.74,146.93l.45.27s-.25.45-.26.44l-.39-.28Z"/><path class="cls-4" d="M466.8,58.56a2.38,2.38,0,0,1,2.13,1.79A2.27,2.27,0,0,1,466.8,58.56Z"/><path class="cls-10" d="M597.86,27.68c-9.88,2.44-18.73-.64-27.4-1.8-16.65-2.24-33.37-4.84-49.66-9.41a48.68,48.68,0,0,1-10.88-4.81,3.25,3.25,0,0,1-1.48-2.35A2.48,2.48,0,0,1,511,6.86c13.22.73,26.91-4.14,39.31,5.51,8.58,6.67,19.9,6.54,30.35,8,2.62.35,5.33-.08,8,.17C592.77,20.89,596.45,22.07,597.86,27.68Z"/><path class="cls-44" d="M596.88,72.28c-1.06-2.31-2.79-3.81-5.37-3.77-4.4.07-8.28-1.88-12.9-2.75,4.79-3.77,10-3.65,15.06-3.3a59.56,59.56,0,0,0,27.23-4.31c8.81-3.64,17.61-5,27.12-2.24,2.28.66,7,4.48,9-1.5,3.16-2.58,5.85-1.57,8.33,1.07a4.81,4.81,0,0,1,.52,4.4c1.31,1.46-6.46.08-.92,3,2.11,1.12,3.17,3.27,3.63,5.64a10.06,10.06,0,0,1-.1,3c-2.26,6.33-5.29,7.35-10.81,2.64-16-13.66-38-14.68-55.36-3.08a7.48,7.48,0,0,1-4,1.81Z"/><path class="cls-45" d="M585,72.42a6.44,6.44,0,0,1-4.3,3.76c-11.6,2.88-11.6,2.87-17.81,8.18-10.47-5.11-22.14-5.22-33.21-7.88-2.59-.62-5.17-.85-7.27-3.11,4.25-3.56,9-4.82,14.53-5.08C553.16,67.54,569,70.33,585,72.42Z"/><path class="cls-46" d="M665,56.4a13.28,13.28,0,0,0-8-2l0,0c-1-1.29-2.93-.78-4-2l-2,0c-1.05-1.27-2.94-.78-4-2q-1,0-2,0c-1-1.29-3-.77-4-2-4.42-3.25-9.69-5.43-13.65-10.57,4.17-2.31,8.28-.92,12-1.69a4.9,4.9,0,0,1,1.62.53c.81.48,1.58,1,2.36,1.52l3.18.78,2.41,1.51a5.06,5.06,0,0,0,3.69,2.37l2.33,1.61a5,5,0,0,0,3.67,2.39l2.29,1.66c.76,1.51,2.19,2,3.68,2.37l2.29,1.64c.13.57.25,1.14.36,1.72A2.62,2.62,0,0,1,665,56.4Z"/><path class="cls-47" d="M555.07,86.32c-5.56-1-8.06,4.06-12.09,6.07-3.9-5.34-10.43-3.28-15.5-5.43-3.59-1.52-7.67-1.91-11.53-2.79a2.76,2.76,0,0,1-2.48-2.64c0-2,1.41-2.86,3.19-3a15.44,15.44,0,0,1,4,.16q16.47,3.14,32.92,6.41C554.11,85.22,554.56,85.91,555.07,86.32Z"/><path class="cls-48" d="M628.93,28.47l1.91,2.16c-9.12,2.78-18.22-.85-22.54-9.06-.13-.25.66-1,1-1.5l3.65.35a4.58,4.58,0,0,0,4,2,4.73,4.73,0,0,0,4,2,4.57,4.57,0,0,0,4,2A4.74,4.74,0,0,0,628.93,28.47Z"/><path class="cls-45" d="M593.05,74.43c-2.2-.11-4.6.34-6.06-2l9.89-.13.17.2C597,75.65,595.33,75.72,593.05,74.43Z"/><path class="cls-44" d="M641,48.39c1.64,0,3.13.4,4,2C643.33,50.37,641.85,50,641,48.39Z"/><path class="cls-44" d="M646.94,50.43c1.66,0,3.16.33,4,2C649.32,52.38,647.84,52,646.94,50.43Z"/><path class="cls-44" d="M653,52.43c1.65,0,3.15.33,4,2C655.32,54.38,653.85,54,653,52.43Z"/><path class="cls-47" d="M561,84.41c-.9,1.63-2.41,2-4.1,1.91A4.46,4.46,0,0,1,561,84.41Z"/><path class="cls-47" d="M543,92.39l-2.1,1.93Z"/><path class="cls-28" d="M419,290.43c.67,7.45-3.07,14.48-2,22-.9,8.12-5.64,11.18-13.48,10.38-2.94-.3-5.63-.06-8.3,2.06-8.13,6.47-9.36,6-13.49-4a5,5,0,0,0-1.92-2.9c-5.52,5.47-10.64,13-20.52,8.32-1.21-.58-2.95,1.15-4.27,2.15-3.19,1.31-4.41-1.39-6.13-3.08a21.86,21.86,0,0,1-2,4.61c-5,9.14-11.81,10.17-17.34,1.29-5-8-8.12-6.66-14.1-1.43-9.24,8.09-19.94,8.26-30.91,2.09-3,7.59,1.59,15.87-3.52,22.52-2.33,1.35-2,4-3,6.05-3.25,6.37-6.12,7-13.41,7-8.23,0-11.76-3.74-15.07-10.8-2.8-6-5.64-11.81-7-19.07-11.31,6.1-22.66,11-35.44,10.82l-1.14-1.15c-1.83-3.52-1.39-7.34-1.42-11.09.88-6.4,2.13-12.66,6.57-17.74h2c11.28,2.17,22.37,2.42,32.86-3.32,5.64-1.84,9.66-6.58,15.24-8.54,7.31-.62,14.42-1.38,20.59-6.32,4.17-3.33,8.91-1.41,13.19.77,7,3.55,14.23,5.54,22.13,4.86,3-.26,6.73,0,8.53-2.18,10.3-12.71,25-8.45,38.1-10.49,4.92-.76,10.07-.33,14.73-2.37s8.92-2.08,13.07,1.23c3.19,2.53,6.57,3.27,9.78-.1,1.92-2,4.36-2.39,6.26-.67,4.33,3.94,7.72-.13,11.5-.88Z"/><path class="cls-49" d="M281,354.4V328.71c3.48-1.49,5.09,1.45,7.29,2.38,10.78,4.6,19.37,3.19,28-5,.48-.46.94-.94,1.41-1.41,6.83-6.63,6.83-6.63,11.23,1.48a34.48,34.48,0,0,0,1.87,3.5c5.55,7.94,9.47,7.73,13.94-.69.92-1.75,1.81-3.51,2.68-5.19,3.67.06,4.7,3.83,7.6,4.59-4.19,9.51-5.85,10.58-15.78,10.05-2.74-.15-5,1.08-7.51,1.93-6.59,2.25-13.23,7-20.51,1.48-2.13-1.61-3.45-.17-4.8,1.61C300,351.87,291.07,354.5,281,354.4Z"/><path class="cls-49" d="M355,328.4c1.07-2.39,2.15-4.78,3.15-7,2.44-.24,2.92,1.67,4,2.81,2.58,2.75,5.24,2.53,7.84.1,4.1-3.81,8.11-7.71,11.6-13.77,1.48,5.55,2.53,9.84,3.8,14.07a3.85,3.85,0,0,0,3.5,3.07,3.42,3.42,0,0,0,3.62-2.84c.85-5.79,4.34-5.22,8.74-4.58,6.8,1,13.41.58,15.74-7.86q0,3,0,6l-2,6c-7.18,5-14.6,9.05-23.85,6.4a5.54,5.54,0,0,0-4.75,1c-5.78,4.11-11.57,2.23-17-.39A27.54,27.54,0,0,0,355,328.4Z"/><path class="cls-21" d="M211,318.4c.24,6.36-4.32,11.63-4,18a15.25,15.25,0,0,0,0,12h0l-.09,4.08c-5.61-2.41-6.22-9.76-11.93-12.07-.6-.73-1.34-1.33-2-2s-1.32-1.36-2-2-1.32-1.36-2-2-1.32-1.36-2-2h0a18.79,18.79,0,0,0-2-2h0c0-.67,0-1.34,0-2A67.1,67.1,0,0,1,211,318.4Z"/><path class="cls-28" d="M537,288.4c.88-1.89,2.21-3.69,4.3-3.71,6.22-.09,9.13-4.79,12.67-8.61,1.75-1.89,1.69-5.65,4.41-6.18s5.57,1.13,8.54,1.46c6.72.75,7.28,1.41,8.21-4.73C577,254,585,248.36,596.65,246.21c2.42-.44,4.57-1.24,6,1.51,5,9.84,14.57,9.52,23.45,10.62a72,72,0,0,0,8.94.05,5.11,5.11,0,0,1,4-1.43c11.77-6.13,25.34-4.08,37.6-8.23,5.93-2,9.27-8.8,16.34-8.34,1.12,9.38-1.81,16.73-9.87,22.29-3.12,2.15-4.78,6.27-7.53,9.09-15.36,15.76-29.58,11.84-44.81,3.09-4.51-2.6-8.38-6.33-12.53-9.54-4.27,1.95-3.5,6.37-5.32,9.35-5.5,9-9.74,9.59-16.7,1.91-2-2.16-3.62-4.58-5.82-7.39-5.6,9.91-11.69,18.49-22.43,22.91-7.52,3.1-14.44,3.66-20.18-2.23C544.07,286,540.72,287.76,537,288.4Z"/><path class="cls-26" d="M703,208.4c.52,5.09-1.31,9.71-3.23,14.21-2,4.7-4.49,9.2-6.76,13.79-5.7-.35-5.3-6.8-9.1-9a15.12,15.12,0,0,1-1.48-1.9c-.58-.93-1.06-1.93-1.56-2.91-.36-.55-.72-1.12-1.09-1.67s-.83-1-1.29-1.41c0,0-.72-.61-.74-.58-.55-.32-1.09-.64-1.66-.93a14,14,0,0,1-1.77-.89c-.92-.47-1.85-.93-2.78-1.39a8.62,8.62,0,0,1-1.88-1.21,8.09,8.09,0,0,1-2-2.85,11.8,11.8,0,0,1-.59-2.34,40.73,40.73,0,0,0-1.14-8.37,8,8,0,0,1-.16-2.44c.38-2.19,1.93-3.42,3.68-4.48a15.83,15.83,0,0,1,2-1,15.28,15.28,0,0,0,2.88-1.73,8.69,8.69,0,0,0,1.22-1.67c0-1.22-.86-1.72-1.86-2.12a141,141,0,0,0-44.18,3c-7.06,1.59-11.11.16-9.45-8.15,1-5.26-2.06-9.5-3.54-14.14a2.66,2.66,0,0,1,1.18-2.67c22.12-.51,42.79,5.58,63,13.83a25.66,25.66,0,0,1,2.64,1.41c1.29.72,2.55,1.5,3.79,2.31a49.84,49.84,0,0,1,14.75,16.49C703.32,202.26,705.67,205.05,703,208.4Z"/><path class="cls-21" d="M703,208.4c-2.87-10.36-9.64-17.77-18-24a18.07,18.07,0,0,0-2-2v0c-3.46-5.82-4.8-12.22-5.16-18.89.44-1.68,2-2.22,3.21-3.13a45.89,45.89,0,0,0,5,0c9.12-1,16.53.5,18.73,11.22.62,3,3.08,5.24,5.54,6.87,6.93,4.59,8.47,11.58,8.67,19,.27,10.29.09,20.6.1,30.89a30.48,30.48,0,0,1-11.91-13.57C706.05,212.5,705.3,209.92,703,208.4Z"/><path class="cls-26" d="M683,224.4c5.26,2.39,7.21,7.55,10,12,0,1.33,0,2.66,0,4-5.21,3.46-9.18,8.61-15.4,10.72-5,1.71-9.92,3.72-15.4,3.31-5.64-.41-11.43-2.23-15.42,4.54-1.42,2.4-5.35,2.31-7.78-.58-.78-5.29,3.55-8.92,4.47-13.73.59-3.08,3.52-4.09,6.27-3.17,11.23,3.73,18.87-.81,25.4-9.71A38.2,38.2,0,0,1,683,224.4Z"/><path class="cls-23" d="M193,338.4l2,2Z"/><path class="cls-23" d="M191,336.4l2,2Z"/><path class="cls-23" d="M189,334.4l2,2Z"/><path class="cls-23" d="M187,332.4l2,2Z"/><path class="cls-23" d="M185,330.42l2,2Z"/><path class="cls-50" d="M377,126.41c-6,6.5-14.44,9.52-21.41,14.64-1.53,1.13-3.63,1.51-4.55,3.45h0c-2.4,1.92-5.73-.25-8.08,1.85l-34,4.09c-17.39,2.65-33.82,9.27-51.11,12.34-5.94-.55-11.73,2.87-17.73.73-.41-.37-.8-.75-1.2-1.13l4-4,2-2,4.11-2.06,7.8-2q2.07-2,4.16-4c7.25-2.54,14.51-4.49,21.8-.09l6.09-1.86,0,0c3.63,3.48,8.13,1.66,12.24,1.86A43.47,43.47,0,0,0,321,144.44c16.15.45,30.05-6.63,44.15-13.11C369,129.55,372.53,126.76,377,126.41Z"/><path class="cls-8" d="M288.92,146.43c-7.73-10.86-10.13-23.24-12.38-36.23-3-17.26,2.42-32.59,6.66-48.45a4.06,4.06,0,0,1,4.27-3.32c1.66-.08,3.33-.08,5-.09,11.86-.1,11-.22,9.41,11.12-2,14.67-4.27,29.31-1.74,44.47a147.51,147.51,0,0,0,8.79,31.51c-7,1.8-13.57.59-20,1Z"/><path class="cls-8" d="M282.83,148.29c-5.77.34-11.59-.58-17.29,1.35-1.22.41-3-.8-4.51-1.26-4.66-8-6.29-16.51-6.26-25.8a198.81,198.81,0,0,1,3.85-40.52c1.33-6.32.33-9.91-4-17.41,8,.4,15.39-4.12,23.5-1.42-11,27.35-9,53.59,2.95,79.41C281.91,144.46,283,146.19,282.83,148.29Z"/><path class="cls-51" d="M681,160.42l-2,2c-12.51,7.83-26.17,4.74-39.46,3.79-8.19-.59-16-3.85-24.11-5.18a16.69,16.69,0,0,1-3-.67,36.74,36.74,0,0,1-6.55-2.89c-.31-.35-.62-.7-.92-1.06-8.61-3.42-17-8.19-26.85-2.87-.78-4.63,2.67-7.91,1.6-12.32-4.87-1.63-10.16-.25-15.23-1,1.62-1.39,3.6-1.45,5.59-1.55a375.34,375.34,0,0,1,64.21,2.24,57.24,57.24,0,0,1,6.72,1.65c2.48,2.53,5.89,3.24,9.05,3.63,10.26,1.26,19.16,5,26.38,12.54A6.58,6.58,0,0,0,681,160.42Z"/><path class="cls-8" d="M138.94,166.44c-2.13-2.52-4.48-4.88-6.35-7.58-7.58-10.94-7.16-22.85.88-33.27a7.32,7.32,0,0,1,5.88-3.14c17.68-.65,34.6-5.29,51.43-10.12,7.29-2.1,14.28-5.25,21.39-8,4-1.51,6.65-.75,6.71,4,.28,19.54,7.06,36.89,17.58,53a4.66,4.66,0,0,1,.37.92c-.77,1.77-2.28,2.84-3.77,3.93a31.84,31.84,0,0,1-9.23,3.89,10.65,10.65,0,0,1-4.6-.07c-5.56-2.3-5.8-7.57-6.9-12.35-7.39-32.23-4.6-26.16-32.1-26.51-10.54-.14-21.21-1.45-31.64,1.64-8.75,2.58-10,4.67-7.66,13.62,1.11,4.17,2.75,8.17,3.94,12.31,1,3.36,2.94,7-.53,10.15C141.79,169.72,140.07,168.71,138.94,166.44Z"/><path class="cls-52" d="M221,168.48l4-.2c1.06,3.83-1.81,5.42-4.28,6.85-13.39,7.73-26.48,16.05-41.15,21.36-13.08,4-26.19,2.59-39.3.2a14.6,14.6,0,0,1-5.86-2.66c-9.19-8.13-17.69-16.91-23-28.12-2.31-4.83-6.29-9.7-2.29-15.58,8.57,7.95,17.45,15.34,29.89,16.11l4.05,2c18.28,7.07,37,6,55.76,2.82a16.4,16.4,0,0,1,3-.8C208.11,169.35,214.67,170,221,168.48Z"/><path class="cls-53" d="M109.05,150.33c.85,11.86,7.56,20.86,14.59,29.65,3.5,4.38,8.45,7.46,11.33,12.43-7.35,4.55-13.57.26-18.92-3.54-8.29-5.9-15.55-13.14-19.28-23.08-.59-1.81-1.19-3.63-1.85-5.43,0-.65,0-1.3.09-1.94l1.94-2a6,6,0,0,0,2.39-3.66c.61-.71,1.22-1.42,1.84-2.12a2.62,2.62,0,0,0,1.84-2.16l2.57-2.05C107.94,146.65,108.94,148.1,109.05,150.33Z"/><path class="cls-50" d="M233.05,164.44c.78-1.57,2.2-2,3.78-2.14l2.14.07,0,0C238.27,166.8,235.78,166,233.05,164.44Z"/><path class="cls-54" d="M94.92,160.36c1.69.83,2,2.35,2.09,4a57.79,57.79,0,0,1,6.79,32.19c-.47,7.06,1,13.69,5.47,19.48,1.38,1.8,2.65,3.83,1.72,6.34-9,4.3-19.26,3.72-28.41,7.58-2.27,1-3.33-1.43-3.61-3.6-.44-7.07,1.62-13.79,3.31-20.48,3.25-12.82,6.14-25.79,11.86-37.86.92-1.95,1-3.82-.71-5.44a7.83,7.83,0,0,1,0-1.81A5.3,5.3,0,0,0,94.92,160.36Z"/><path class="cls-11" d="M729,170.86a3.31,3.31,0,0,1,3.82,1.42A3.3,3.3,0,0,1,729,170.86Z"/><path class="cls-55" d="M742.88,114.46c-2.87,3.79-5.92,7.16-11.44,5.89C717.71,117.2,703.7,115,691,108.42a6.4,6.4,0,0,1-2.06-4.38c-.66-11.47-.65-11.47-5.35-19.47-.07-5.52-3.66-8.85-7.36-12.22-2.29-2.08-6.71-4-4.84-7.52,2.11-4,6.22-1.71,9.51-.39.65.06,1.3.11,2,.13A2.62,2.62,0,0,0,685,66.35a5,5,0,0,0,3.53,2.55,2.59,2.59,0,0,0,2.22,1.72A2.52,2.52,0,0,0,693,72.38a9.33,9.33,0,0,0,5.68,4.36,2.59,2.59,0,0,0,2.19,1.77A2.69,2.69,0,0,0,703,80.35,5.06,5.06,0,0,0,706.49,83a2.64,2.64,0,0,0,2.19,1.75,2.68,2.68,0,0,0,2.17,1.83A2.62,2.62,0,0,0,713,88.36a9.75,9.75,0,0,0,5.57,4.49,2.59,2.59,0,0,0,2.17,1.77,2.62,2.62,0,0,0,2.17,1.84,2.66,2.66,0,0,0,2.1,1.89,10.71,10.71,0,0,0,5.55,4.5,2.62,2.62,0,0,0,2.19,1.77,2.61,2.61,0,0,0,2.16,1.84,2.66,2.66,0,0,0,2.1,1.89,9.91,9.91,0,0,0,5.59,4.41C742.72,113.32,742.81,113.89,742.88,114.46Z"/><path class="cls-56" d="M680.89,64.44c-2.78.2-5.68-.59-9.75,1.22,5.52,3.36,9.25,7.26,13.16,11,2.73,2.58,2.33,5,.69,7.78-3.26,5.24-7.39,5.13-12,2,.66-3.09,4-6.27-1.05-9-2.51-1.33-4-4.16-4.93-7v-2c2.18-3.39-4-4.64-2-8l0-4,2.23-2.17a13.34,13.34,0,0,0,1.79.12,5,5,0,0,0,3.58,2.49c.75.57,1.51,1.13,2.27,1.69a9.59,9.59,0,0,0,5.77,4.21C680.75,63.3,680.83,63.87,680.89,64.44Z"/><path class="cls-4" d="M643.33,38.18A2.56,2.56,0,0,1,641,36.66a8.64,8.64,0,0,1,2-.2C643,37,643.17,37.61,643.33,38.18Z"/><path class="cls-57" d="M257,160.39c12.19-2.59,24.1-6.33,36.39-8.61A88,88,0,0,1,309,150.43c-21.31,7.12-41.6,17.33-63.67,22-7.78,1.64-11.36,7.35-16.29,12-2,1.57-2.59,6-6.66,3.13-1.44-5.43,2-8.7,5.47-11.74C236.36,168.46,245.68,162.53,257,160.39Z"/><path class="cls-58" d="M223,188.42l6-4C222.44,198,214,210.39,205,222.39c-6.76.33-13.12-3.23-20-2-2,.53-2.45-.5-2.26-2.2,15.48-6.42,28.1-16.67,39-29.19Z"/><path class="cls-31" d="M343,146.34c2.19-2.82,5.26-1.77,8.08-1.85C348.84,147.18,345.81,146.32,343,146.34Z"/><path class="cls-59" d="M111,222.4c-8.91-8-11.25-18.33-10-29.72,1.11-9.82-2.93-18.83-4-28.29,5.12,6,9.26,12.69,15,18.26,6.56,6.38,14,9.64,23,9.76l4,2c5.71,3.42,13.44,4.55,14.8,13-11.63,10.37-25.31,15.18-40.81,15Z"/><path class="cls-60" d="M113,222.41c8.26-3.26,17.25-4.18,25.35-8,5-2.4,10.46-4,14.67-7.94,11,1.44,21.33,4.63,30,12l2,2c-15.92,12.8-25,14.59-38.84,6.07-5.11-3.15-10-2.62-15-.16C124.05,229.87,117.92,229,113,222.41Z"/><path class="cls-61" d="M305,244.38c6.62-7.29,16-9.76,24.46-13.73,5.86-2.74,11.95-5,17.58-8.23,9.14-1.12,16.95-6.56,26-8,.39,6.75-6.38,6.64-9.54,10C346.13,233.79,329.16,244,309,246.5A6,6,0,0,1,305,244.38Z"/><path class="cls-62" d="M363,222.4c2.5-3.7,8.26-3.34,10-8,1.08-1.16,3-.74,4-2l7.94-4c9-2.85,18.09-5.65,27.1-8.56,3.12-1,6.18-2.72,8.94.65-1.07,2.82-3.58,3.67-6.11,4.59a135.43,135.43,0,0,0-33.32,17.59C375.36,227.05,369.09,229.06,363,222.4Z"/><path class="cls-61" d="M377,212.38c-.85,1.63-2.33,2-4,2C373.84,212.78,375.33,212.42,377,212.38Z"/><path class="cls-63" d="M227,298.39a221.86,221.86,0,0,1,34-30c11.31-7.39,20.9-17.37,34.28-21.69,4.8-1.55,7.07-.61,7.86,4,1,5.58,2.81,10.93,3.93,16.47,2.19,10.85-6.69,15.19-12.67,20.86-4.81,4.56-10.78,3-15.63-.53-5-3.62-6.67-1.34-8.4,3.25s-3.32,9.4-5.43,13.92a5.68,5.68,0,0,1-3.33,2.61c-3.82.3-6.42-2-7.77-4.95-2.77-6.1-6.31-4.81-11-2.39S233.59,305,228,303.36C226.06,302,225.38,300.44,227,298.39Z"/><path class="cls-62" d="M263,304.4c2-8.74,5.95-16.67,9.85-26,3.58,4.2,6.16,7.59,10.34,9,5.39,1.88,8.37,1.18,11.63-3.68a11.14,11.14,0,0,1,3.26-3.44c7.08-4.62,8.52-7.36,6.28-14.58a83.43,83.43,0,0,1-4.07-18.89c-6.49,1.43-11.42,4.67-16.51,7.66-7.67,4.51-14.1,11.06-22.81,13.85,12.18-12.56,24.61-24.66,44-24l4,.05c2.81,4,9.88,3.85,10,10.41-4,8.68-9.44,16.74-10.23,26.73-.33,4.19-3.26,7.35-6.92,9.22-4.41,2.25-9,3.95-13.05,7-3.37,2.6-7.06,1.56-9.89-1.35-3.36-3.45-5.2-2.55-7.24,1.43C270,301.31,268.14,305.3,263,304.4Z"/><path class="cls-64" d="M227,298.39c.06,1.64.39,3.14,2,4,6.61,3.89,12.17,9.14,18,14-8.82,7.63-19.42,6.11-29.76,5.64-2.07-.09-3.35-1.84-4.26-3.66C216.88,311.19,221,304.12,227,298.39Z"/><path class="cls-21" d="M181,326.38c-3.35-3.33-2.24-5.17,2-6C182.15,322.34,180.87,324.12,181,326.38Z"/><path class="cls-21" d="M187,318.4c.86-1.62,2.35-2,4-2C190.13,318,188.63,318.36,187,318.4Z"/><path class="cls-21" d="M183,328.37l-2-2Z"/><path class="cls-21" d="M185,320.39l2-2Z"/><path class="cls-65" d="M426.94,76.39C424.12,74,425.88,72.17,428,71c4.67-2.49,9.54-4.57,15-4.61.52,2.37,1.89,3.25,4.24,2.42,1.91.26,6.47-2.68,3.92,3-1.64,3.69-5.25,5.83-8.09,9.08l4.4,7.19c2.19,1,3.77-.68,5.6-1.18s3.7-1.66,5.85.18C455.88,95.67,448.33,99.06,440,103c3.28,4,5.66,8.23,2.83,13.19-3.28.94-6.41,1.49-9.14-1.48-3.38-3.66-6.75-7.37-8-12.31-.65-2.58,1.35-3.7,3.56-3.3,3.5.64,5.55-.68,7.21-4.89-6,.61-11.68-1.8-16,4.47-2,2.86-5.37,2.08-7.89-.16s-4.73-4.6-5.66-7.93c-1.12-1.15-.65-3.13-2.16-4.08l.07.13c-2.39-4.2-1.16-7.39,2.72-9.86L409,76.4c3.42-.19,6.49.33,8,4a8.56,8.56,0,0,0-1.27,2.43s-.21.7-.21.7a4.92,4.92,0,0,0,.56.48,6.47,6.47,0,0,1,.64-.39s-.24-.69-.26-.73-.15-.84-.16-.87A1.77,1.77,0,0,1,417,80.4a8.31,8.31,0,0,1,10,0C428.16,79,428.59,77.68,426.94,76.39Z"/><path class="cls-3" d="M449,252.4a63.1,63.1,0,0,1,1.62-14.68,167.82,167.82,0,0,0,4.43-41.15,63,63,0,0,1,1.23-15.73c1.3-5.69,3.88-9.63,8.7-12.45a14.46,14.46,0,0,0,3.4,10.17c6.89,9,5.92,18.64,2.34,28.31A267.68,267.68,0,0,1,449,252.4Z"/><path class="cls-3" d="M461,318.37c2.29-4.05,1.86-7-3.33-7.84-1.62-.25-3.32,0-5-.16-4.22-.37-10.44,2-12.21-1.49-2.84-5.62-7.12-11.86-5.27-18.67,3.37-12.37,6.63-24.87,13.78-35.82,3.76,12.8,1.23,24.45-4.8,36.25s-3.69,14.77,9.87,15.66c5.95.39,11.94.15,17.91.08,3.73,0,7.21.38,10.54,3.78C476.47,316.52,468.08,315.9,461,318.37Z"/><path class="cls-3" d="M471,164.38c4-4.48,9.92-6.28,14.54-9.95-1.27-3.41-4-1.85-5.94-2-4.28-.26-8.58-.13-12.87-.18-1.47,0-2.68-.73-2.77-2.18a3.33,3.33,0,0,1,1.33-2.48c3.56-2.38,7-5.12,10.92-6.72,12.77-5.25,25.31-11.17,38.8-14.49-6.07,7.83-15.54,9.4-23.92,13-3.38,1.45-9.35,1-8.85,5.95.45,4.4,6.25,2.15,9.35,3.6,3.34,1.57,9.16.87,8.9,6.25-.23,4.64-5.43,5.86-9,6.47C484.73,162.85,477.75,162.9,471,164.38Z"/><path class="cls-66" d="M457.18,122c2.72-5.29,7.67-8,13.05-10.55-2.26-3.88-4.64-7.38-6.41-11.16s-.1-6.13,3.77-5.17c6.55,1.63,12.8,4.07,13.78,12,.27,2.2.9,3.85,2.75,4.85,3.38,1.83,2.79,4.86,2.58,7.81C477.43,128.62,464.61,129.57,457.18,122Z"/><path class="cls-67" d="M457.18,122c10.27,5,19.88,1.23,29.52-2.18,3.4,4.15,7.82,2.92,11.75,1.62,6.32-2.09,13.14.21,19.34-2.73,1.47-.7,3.43.45,3.9,2.13.52,1.92-1.21,2.78-2.71,3.51-1.74-2.42-3.83-1.52-6.2-1-14.15,3.06-28.3,6.14-42.55,8.7-7.12,1.28-14.14.81-17.25-7.66C454.79,124.35,456.34,123.82,457.18,122Z"/><path class="cls-68" d="M447.26,68.83a7.93,7.93,0,0,1-6.78,2.71c-.18-2.35,2.17-3.23,2.54-5.13a9.28,9.28,0,0,1,1.74-.2C445.6,67.08,446.43,68,447.26,68.83Z"/><path class="cls-69" d="M673,84.4c4,3.8,8,1.73,12,0,1.64,4,5.67,5.29,8.61,7.84,2,1.7,5.3,3.35-.75,5.33-3.91,1.28-1.23,7.1-1.86,10.84-20.68-5.7-39.77-14.92-58-26-4.45-4.2-10.42-5.71-15.53-8.73-3.05-1.81-5.67-.27-8.56.46-8,2-15.29,6.68-23.92,6.27l8.08-5.95c1.63,0,3.1-.41,4-2l3.92-2.1c4.63-4.6,10.69-5.64,16.64-5.42,6.34.23,12.58.72,18.91-.29,3.38-.55,7.32.4,9.28,2.84,6,7.47,13.92,10.86,22.8,13A7,7,0,0,1,673,84.4Z"/><path class="cls-36" d="M389,82.4c-.12-1.28.22-3.34-.42-3.71-6.4-3.72-2.94-6.47.69-9.3,1.26-1,2.48-2,3.72-3,.24-4.2,2.66-3.51,5.29-2.36,2.06.45,4.52.51,4,3.73-.39,2.27,1.2,2.39,2.74,2.61.51,2.55,7,1.11,4,6h0c-3.58,3-7.42,5.43-12.08,6.32A11.72,11.72,0,0,1,389,82.4Z"/><path class="cls-34" d="M396.91,82.71c3.86-2.42,7.41-5.44,12.08-6.32-1.9,3.19-4.81,6-4.14,10.2C402.38,84.93,400,83,396.91,82.71Z"/><path class="cls-34" d="M404.78,86.46c1.81.79,2.18,2.33,2.16,4.08C405.31,89.66,404.89,88.14,404.78,86.46Z"/><path class="cls-63" d="M621,242.42c-6.18,1.24-12.18-3.49-18.52-.43-1.55.75-2.9-1-3.87-2.45a57.94,57.94,0,0,0-5.18-7.27c-2.18-2.38-4.72-2.45-6.51.64a65.16,65.16,0,0,0-4.08,8c-2,4.85-3,10-10.7,7.83-3.29-.94-6,2.83-7.65,5.58-3.35,5.7-8.51,8.61-13.84,12.1-5.69,3.73-8.38-1.57-12.51-1.95-1.82-.17-1-3.46-1-5.33.13-6.28,2.76-12.32,1.89-18.71,2.19-2.3-.16-5.7,2-8l0-10c2.2-2.3-.14-5.7,2-8q0-5,0-10c2-3.4.74-7.12,1-10.68.52-8.39,5.4-11.7,11.25-6.16,7.68,7.3,15.24,5.84,23.83,3.93,13.35-3,26.41-3.7,37.18,7.29,2.61,2.67,6.17,1.69,9.48,1.4,12.07-1.06,24.15-2,32.54,9.54a1.71,1.71,0,0,0,.78.6c4.23,2.44,11.18,2.4,9.1,10.44-1.67,6.45-9.84,14.3-16.81,13.39-8.23-1.07-13.84,1.7-19.42,7C629,243.91,625,245.22,621,242.42Z"/><path class="cls-62" d="M621,242.42c9.08-1.57,9.08-1.57,19.92-13.23,10.88,5.18,19.91,2.29,24.58-7.89,2.15-4.66,1.6-6.4-3.17-6.71-4.06-.27-6.43-1.2-8.3-5.28-2.2-4.82-7.09-7-12.43-6.84-6.6.19-13.29-1.17-19.78,1.34-2.61,1-5.15.76-7-2-7.74-11.35-19.28-10.12-30.6-8.75a116.28,116.28,0,0,0-17.43,3.79c-3,.83-5,1.12-6.65-2a13.24,13.24,0,0,0-2.63-3c-2.64-2.55-5.62-5.78-9.37-4.52-4.38,1.48-2.84,6.15-3.09,9.65-.19,2.59.55,5.42-2,7.37l-.09-6.12c-.77-7.19,2.15-14.27.58-21.51-.46-2.1.69-3.68,2.52-4.93,2.42-1.66,4.66-3.61,7-5.43a20.73,20.73,0,0,1,11.29-3.17c14.2-.06,28.4-.16,42.59.07,3.62.05,7.33.16,10.09,3.15,6.16,6.21,7.95,13.39,4.29,22,7,.86,13.34-1.51,19.49-2.73,11.24-2.22,22.39-.71,33.55-1.33,2.73-.15,4.35,1.18,4.69,3.95-.75.59-1.28,1.39-2,2s-1.34,1.33-2,2-1.42,1.25-2,2h-2c-.91,1.76-5.54-.19-4,4,0,.66,0,1.33,0,2,2.35,3-.47,7,2,10v2c.68.65,1.34,1.32,2,2h2c.59.75,1.39,1.28,2,2h2c.62.72,1.35,1.32,2,2h0c.66.68,1.32,1.35,2,2h0c1.17,1.08.74,3,2,4,0,1,.33,2.37-.18,2.92-6.94,7.32-12.14,17-23.51,18.62-4.35.63-8.11-2.43-13.11-2.91-.86,5.85-3,11.15-7.2,15.35h-4C629.52,253.77,623.58,249.56,621,242.42Z"/><path class="cls-62" d="M541,232.39c-.25,2.77.93,5.89-2,8C539.28,237.64,538.11,234.52,541,232.39Z"/><path class="cls-62" d="M543,214.39c-.25,2.77.93,5.89-2,8C541.25,219.63,540.1,216.52,543,214.39Z"/><path class="cls-6" d="M617,166.47l-64-.05c5.37-8.95,14.66-9.25,23.35-9.87,9.5-.67,19.08-.15,28.63-.15v0c1.62,1.83,4.36.2,6,2h0c2.51,2.27,7.4,2.74,6,8Z"/><path class="cls-63" d="M319,254.39c-1.3-2.16-3.66-2.81-5.7-3.83-2.61-1.31-4.26-3.1-4.29-6.13,9.9-1.48,19.15-5.08,28.15-9.21,8.73-4,17.23-8.52,25.83-12.82,7.41,3,13.33,1.59,19.9-3.62C394,209.94,407.23,204.4,421,200.43c4,7.58,2.72,16.2,3.46,24.13,1.46,15.91,2.1,32.21-3.07,47.91a18,18,0,0,0-.4,3.92c-.7.63-1.31,1.34-1.95,2h0c-1.81,1.66-3.67,1-5.5.08-1.48-.76-3.28-2.84-4.26-2.29-13.61,7.58-26.86-3.9-40.51-.51-7.35,1.83-13.85-2.1-15.09-9.53-1.19-7.13-4.92-7.42-10.32-7.32-8,.13-16,.57-23.42-3.38C319.6,255.12,319.3,254.76,319,254.39Z"/><path class="cls-64" d="M263,304.4c6.34-2.88,7-10.07,10.77-14.72,2.54.36,3.6,2.22,5,3.53,5.86,5.41,6,5.53,12.05-.47a9.48,9.48,0,0,1,5.14-2.4c8.07-1.86,10.6-4.67,11-12.64.39-8.65,6.46-14.85,9.33-22.42.21-.56,1.79-.6,2.73-.89,5.34,5.55,12.23,5.95,19.33,6,10,.08,12.2,2.31,8.66,11-3.26,8,1.16,10.4,6.41,13.9,6.32,4.22,8.1-1,10.9-4.38,6.61-7.85,10-8.18,17.6-.42,3.18,3.25,5.44,3.37,9.42,1.43,8.85-4.31,18.19-5.66,27.66-1.51,0,3.33,0,6.66,0,10a4.29,4.29,0,0,0-1.91,3.32c-.19,4.79-2.72,4.66-5.89,2.71-2.23-1.37-4.28-3-6.58-4.69-2.54,1.49-1.86,5.77-5.4,6.31a8.94,8.94,0,0,1-8.1-3c-4.19-5-8.4-4.36-12.93-1.13-3.11,2.22-6.6,0-9.56,1-6.78,2.44-14.51-1.54-20.89,3.31a3.16,3.16,0,0,1-2.9.05c-6.09-3.87-9.11-.76-13.13,4-7.79,9.3-18.62,6.28-28.73,4.9a11.62,11.62,0,0,1-3.62-1.64c-7.77-4.18-15.07-7.45-22.93.79-3.81,4-10.17,1.67-15.4,2-.6-.44-.8-.88-.6-1.33s.4-.66.6-.66Z"/><path class="cls-62" d="M419,280.39c-4,0-8,.15-11.93,0-6.42-.27-12.45-.18-17,5.71-2.57,3.33-5.23,2.41-7.95-1.05-8.79-11.19-8.94-11.06-18.06,1a46.25,46.25,0,0,1-3.35,3.66c-2.58,2.71-5.12,3.05-7.21-.46a9.92,9.92,0,0,0-5.87-4.84c-7-2.23-6.71-2.4-4.5-9.73,1.08-3.6,5.54-7,2.61-10.85-2.51-3.27-7,.1-10.29-.67-6.14-1.42-15,1.71-16.43-8.71,12.05,2.44,24.35,1.94,36.56,2.17-.58,11.32.7,14.09,7.37,16.75.92.36,2.13.35,2.79,1,4.12,3.75,4.9-8.17,9.91-1.89,2.95,3.69,7.05,2.51,10.61-.13,2.25-1.66,3.56.27,5.1,1.48,6.78,5.35,7,5.53,12.89.26,2.81-2.51,4.73-3.13,7.35-.07,1.93,2.26,4,4.56,7.43,4.5Z"/><path class="cls-62" d="M419,278.41l1.95-2Z"/><path class="cls-70" d="M396.61,48.2c3.05.74,8.12-1.21,8.69,2.7.74,5.1-4.9,5.33-8.44,6.41-4,1.23-8.7,3.11-10.13-3.55C389.28,50.58,392.42,48.45,396.61,48.2Z"/><path class="cls-34" d="M401,34.31c-.1,2.14-.19,4.27-.29,6.41C398.83,38.49,396.14,36.23,401,34.31Z"/><path class="cls-34" d="M408.85,36.42A3.87,3.87,0,0,1,405,34.7,3.64,3.64,0,0,1,408.85,36.42Z"/><path class="cls-3" d="M363.92,50.73a3.13,3.13,0,0,1-2.83,1.9A3,3,0,0,1,363.92,50.73Z"/><path class="cls-69" d="M580.92,82.36,583,80.47Z"/><path class="cls-71" d="M427,60.39c-1.59,7.76-8.46,8.16-14.17,9.84-2.42.71-5.21.15-7.82.17,1.49-10.81,10.53-10.28,18.05-12l1.15.13a5.77,5.77,0,0,1,2.08,1Z"/><path class="cls-71" d="M440.75,56.73c.42,5.88-2.37,8.72-7,6.83-2.3-.94-4-3.31-6.81-3.17h0l-.75-1,.84-.94C431.37,55.69,436.08,56.37,440.75,56.73Z"/><path class="cls-72" d="M398.29,64.06A7.06,7.06,0,0,0,393,66.42c-2.62.69-4.2-.89-5.73-2.59a1.29,1.29,0,0,0-.79-1.42C392.57,58.69,395.25,59.07,398.29,64.06Z"/><path class="cls-73" d="M423,58.37c1.39-2.26,2.75-2.7,4,.07l-.06,0a2.8,2.8,0,0,1-4-.14Z"/><path class="cls-71" d="M416.36,74.2c1.52-2.55,3-3.82,5.36-2.57a1.7,1.7,0,0,1,.21,1.61C420.42,74.83,418.6,74.24,416.36,74.2Z"/><path class="cls-74" d="M426.94,76.39c1.13.17,2.81-.18,2.71,1.6-.07,1.32-1.32,2-2.62,2.38Z"/><path class="cls-75" d="M673,84.4c-5.78-1.22-10.86-4.79-17.21-4.34-3.15.23-5.08-2.78-6.66-5.4-3.77-6.26-8.2-10.31-16.31-6.7a13.18,13.18,0,0,1-8.85.26c-8.14-2.88-15.56-.93-23,2.16a5.34,5.34,0,0,1,5.15-5.24c5.74-.54,10.84-2.9,16.15-4.67,5.56-1.86,10.9-2.25,16,1.52,2.42,1.78,5.51,2.11,8.45,2.76,4.88,1.09,9.37,2.94,12.75,7.15S663.25,76,667,70.4c5.28,3.26,8.82,8.2,13.23,12.44C677.49,85.07,675.15,84.12,673,84.4Z"/><path class="cls-75" d="M665,60.4c.16,2.8,6.18,4.1,2,8a63.31,63.31,0,0,1-4.14-5.32C661.34,60.62,663.42,60.64,665,60.4Z"/><path class="cls-62" d="M261,306.4v2c-4.59,2.81-8,7.74-14,8-8.54-1.42-13.2-7.82-18-14,7.83-1.52,14.83-5,22.14-9.91C254.21,297.38,255.1,303.87,261,306.4Z"/><path class="cls-5" d="M207,348.39c-3-4-3-8,0-12Q207,342.39,207,348.39Z"/><path class="cls-22" d="M617,166.36l-6-8c8.85-1.61,16.68,2.95,25,4.36,12.8,2.16,25.36,2.68,38-.17a26.89,26.89,0,0,1,4.93-.18c1.31,6.68,5.15,12.85,4,20C661.76,173.79,639.55,169.34,617,166.36Z"/><path class="cls-26" d="M669,210.4c-3.34-2.8-1.52-6.63-2-10C670.33,203.2,668.5,207,669,210.4Z"/><path class="cls-26" d="M667,198.41c-2.74-5.41,1.94-3.4,4-4C669.65,195.74,668.31,197.07,667,198.41Z"/><path class="cls-26" d="M683,224.4c-1.62-.86-2-2.35-2-4C682.6,221.25,683,222.75,683,224.4Z"/><path class="cls-26" d="M681,220.4l-2-2Z"/><path class="cls-26" d="M679,218.4l-2-2Z"/><path class="cls-26" d="M675,216.4l-2-2Z"/><path class="cls-26" d="M671,214.39l-2-2Z"/><path class="cls-26" d="M673,194.39l2-2Z"/><path class="cls-26" d="M677,190.4l2-2Z"/><path class="cls-22" d="M683,182.42l2,2Z"/><path class="cls-76" d="M257,160.39a148,148,0,0,0-26.13,15.92c-4.18,3.29-7.11,6.84-7.83,12.11h0c-13.3,7-27.24,9.51-42,6,13-7.18,26-14.39,39-21.5,2.09-1.14,4.09-2.22,5-4.6,2.13-2.45,5.56-2.17,8.07-3.84,2.19-.07,4.52.27,5.95-2C245.13,162.93,250.8,159.36,257,160.39Z"/><path class="cls-22" d="M611,158.4c-2.2-.05-4.55.35-6-2C607.19,156.46,609.54,156,611,158.4Z"/><path class="cls-9" d="M200.89,172.31c-4.32,4.21-10.22,2.5-15.12,3.11-14.71,1.81-29.93,3.72-42.78-7,2.24-1.53,1.22-3.32.56-5.23-2-5.63-4-11.25-5.59-17-2.85-9.9-.78-13.24,9-15.88a56.35,56.35,0,0,1,15.67-2c10.94.17,21.89,0,32.83.05,10.61,0,12.95,1.89,15.58,12.54,1.57,6.4,3.39,12.72,4.44,19.28.49,3.08.45,7.74,5.53,8.29-6,4.73-13.14,4-20.14,3.83-6.54-2.86-10.54-8.91-16.14-12.93-6.15-4.41-12.47-8.55-20.24-10.18,1.73,12.74,6.27,17.11,18.19,19.06C188.8,169.26,195.26,169,200.89,172.31Z"/><path class="cls-77" d="M181,194.38a416.28,416.28,0,0,0,42-6c-2.28,8.21-9.57,12.31-15.1,17.67-4.39,4.25-10.19,7.06-15.38,10.49-2.92,1.93-6.23,1.91-9.54,1.82-10.08-3.8-20.58-6.53-30-12-4.12-4.64-10.3-6.88-14-12,6.35-1,12.34,1.37,18.51,2C165.52,197.33,173.06,194,181,194.38Z"/><path class="cls-34" d="M417.12,82.35a4,4,0,0,1,.8.59c1,1.29,2.62,3.3,1.53,4.24C417.32,89,416.27,86.27,415,85,414.89,83.49,415.92,82.85,417.12,82.35Z"/><path class="cls-78" d="M417.12,82.35A2.55,2.55,0,0,1,415,85c-1.23-1.08-1.42-2.14.1-3.14a1.9,1.9,0,0,1,2,.39Z"/><path class="cls-34" d="M417.05,82.27l-2-.39L417,80.39h0C417,81,417,81.65,417.05,82.27Z"/><path class="cls-34" d="M423,58.34l4,.14q0,1,0,1.92C425.34,60.35,423.81,60,423,58.34Z"/><path class="cls-8" d="M163.66,167.51C152.2,169,152,169.11,148,160.2c-2.47-5.43-4.29-11.16-6.32-16.78-1.58-4.39.31-7.21,4.5-8.35s8.4-2.4,12.64-2.51c12.66-.34,25.33-.05,38-.2,4.66-.05,7.07,1.71,8.71,6.3,3.15,8.83,4.57,18,6.21,27.1.67,3.77-1.53,5.6-4.94,4.27-3.23-1.26-5.28-4.05-7.47-6.5a76,76,0,0,0-29.22-20.37c-4-1.55-8.46-4.87-12.8,0-4.08,4.56-1.54,8.67.53,12.85C159.68,159.82,161.66,163.61,163.66,167.51Z"/><path class="cls-10" d="M200.89,172.31c-8.37,1.17-16.34-2.17-24.63-2.12a8.41,8.41,0,0,1-6.87-3.5c-4.26-5.85-8.49-11.75-9.14-20.69,18.17,2.63,30.17,13.23,40.63,26.31Z"/></g></g></svg>